<svg width="43" height="31" viewBox="0 0 43 31" fill="none" xmlns="http://www.w3.org/2000/svg">
<path d="M10.4062 1.07422C13.1146 1.07422 15.2565 1.69922 16.832 2.94922C18.4076 4.1862 19.1953 5.84635 19.1953 7.92969C19.1953 10.8594 17.4375 13.1901 13.9219 14.9219C16.1615 16.0417 17.75 17.2201 18.6875 18.457C19.638 19.694 20.1133 21.0742 20.1133 22.5977C20.1133 24.9544 19.2474 26.8424 17.5156 28.2617C15.7839 29.681 13.4401 30.3906 10.4844 30.3906C7.38542 30.3906 4.98307 29.7266 3.27734 28.3984C1.57161 27.0703 0.71875 25.1888 0.71875 22.7539C0.71875 21.1654 1.16146 19.7396 2.04688 18.4766C2.94531 17.2005 4.41016 16.0677 6.44141 15.0781C4.69661 14.0365 3.45312 12.9362 2.71094 11.7773C1.96875 10.6185 1.59766 9.31641 1.59766 7.87109C1.59766 5.80078 2.41146 4.15365 4.03906 2.92969C5.66667 1.69271 7.78906 1.07422 10.4062 1.07422ZM5.11328 22.5977C5.11328 23.9518 5.58854 25.0065 6.53906 25.7617C7.48958 26.5039 8.77865 26.875 10.4062 26.875C12.0859 26.875 13.388 26.4909 14.3125 25.7227C15.25 24.9414 15.7188 23.8867 15.7188 22.5586C15.7188 21.5039 15.2891 20.5404 14.4297 19.668C13.5703 18.7956 12.2682 17.9883 10.5234 17.2461L9.95703 16.9922C8.23828 17.7474 7.0013 18.5807 6.24609 19.4922C5.49089 20.3906 5.11328 21.4258 5.11328 22.5977ZM10.3672 4.60938C9.0651 4.60938 8.01693 4.9349 7.22266 5.58594C6.42839 6.22396 6.03125 7.09635 6.03125 8.20312C6.03125 8.88021 6.17448 9.48568 6.46094 10.0195C6.7474 10.5534 7.16406 11.0417 7.71094 11.4844C8.25781 11.9141 9.18229 12.4349 10.4844 13.0469C12.0469 12.3568 13.1471 11.6341 13.7852 10.8789C14.4362 10.1107 14.7617 9.21875 14.7617 8.20312C14.7617 7.09635 14.3581 6.22396 13.5508 5.58594C12.7565 4.9349 11.6953 4.60938 10.3672 4.60938ZM42.9648 15.7227C42.9648 20.6836 42.1641 24.3685 40.5625 26.7773C38.974 29.1862 36.5391 30.3906 33.2578 30.3906C30.0807 30.3906 27.6719 29.1471 26.0312 26.6602C24.3906 24.1732 23.5703 20.5273 23.5703 15.7227C23.5703 10.6836 24.3646 6.97266 25.9531 4.58984C27.5547 2.19401 29.9896 0.996094 33.2578 0.996094C36.4479 0.996094 38.8633 2.24609 40.5039 4.74609C42.1445 7.24609 42.9648 10.9049 42.9648 15.7227ZM28.2188 15.7227C28.2188 19.6159 28.6159 22.3958 29.4102 24.0625C30.2174 25.7292 31.5 26.5625 33.2578 26.5625C35.0156 26.5625 36.2982 25.7161 37.1055 24.0234C37.9258 22.3307 38.3359 19.5638 38.3359 15.7227C38.3359 11.8945 37.9258 9.1276 37.1055 7.42188C36.2982 5.70312 35.0156 4.84375 33.2578 4.84375C31.5 4.84375 30.2174 5.68359 29.4102 7.36328C28.6159 9.04297 28.2188 11.8294 28.2188 15.7227Z" fill="#4C8EC0"/>
</svg>
