<svg width="17" height="17" viewBox="0 0 17 17" fill="none" xmlns="http://www.w3.org/2000/svg">
<path d="M16.3214 5.19123C15.4252 3.10165 13.9021 1.58196 11.7951 0.683316C10.742 0.234177 9.63867 0.00476074 8.48603 0.00476074C7.33358 0.00476074 6.23842 0.232011 5.18647 0.683316C3.09689 1.57957 1.56708 3.09829 0.669222 5.19123C0.219306 6.23979 0 7.33832 0 8.49076C0 9.64343 0.219306 10.7511 0.669222 11.7998C1.56708 13.8928 3.09708 15.4206 5.18647 16.3171C6.23861 16.7684 7.33356 16.9954 8.48603 16.9954C9.6385 16.9954 10.742 16.766 11.7949 16.3171C13.9019 15.4184 15.425 13.8892 16.3215 11.7998C16.7728 10.7477 17 9.64343 17 8.49076C17 7.33832 16.7729 6.24334 16.3214 5.19123ZM14.9646 12.246C14.2973 13.3903 13.3832 14.2981 12.2319 14.9693C11.0876 15.6366 9.83381 15.9731 8.48622 15.9731C7.47317 15.9731 6.5065 15.778 5.58622 15.3782C4.66597 14.9786 3.87142 14.4534 3.20675 13.7889C2.54208 13.1242 2.01306 12.3219 1.61747 11.4001C1.22306 10.4816 1.03192 9.50404 1.03192 8.49079C1.03192 7.14301 1.36306 5.89557 2.02656 4.75443C2.69242 3.60912 3.60672 2.70034 4.74986 2.03109C5.89281 1.36187 7.13847 1.02715 8.48603 1.02715C9.83381 1.02715 11.0874 1.36384 12.2317 2.03109C13.383 2.70232 14.2951 3.61107 14.9644 4.7544C15.6336 5.89754 15.9681 7.14301 15.9681 8.49076C15.9681 9.83857 15.6358 11.0945 14.9646 12.246Z" fill="#458AB6"/>
<path d="M9.02522 8.41625V3.60155C9.02522 3.31344 8.77419 3.08105 8.48605 3.08105C8.21658 3.08105 7.97485 3.31344 7.97485 3.60155V8.49058C7.97485 8.49992 7.99349 8.53719 7.99349 8.56497C7.97485 8.73231 8.02146 8.87172 8.13291 8.98336L10.9122 11.7624C11.0981 11.9484 11.442 11.9484 11.6278 11.7624C11.8415 11.5487 11.8275 11.2385 11.6278 11.0374L9.02522 8.41625Z" fill="#458AB6"/>
</svg>
