<svg width="33" height="33" viewBox="0 0 33 33" fill="none" xmlns="http://www.w3.org/2000/svg">
<g clip-path="url(#clip0)">
<path d="M5.19173 29.2328C6.94919 26.9483 10.3124 22.1207 10.3124 19.9138C10.3124 17.0856 8.01989 14.7931 5.19173 14.7931C2.36358 14.7931 0.0710449 17.0856 0.0710449 19.9138C0.0710449 22.1224 3.43428 26.9492 5.19173 29.2328ZM5.19173 17.069C6.44857 17.069 7.4676 18.088 7.4676 19.3448C7.4676 20.6017 6.44857 21.6207 5.19173 21.6207C3.9349 21.6207 2.91587 20.6017 2.91587 19.3448C2.91587 18.088 3.9349 17.069 5.19173 17.069Z" fill="#458AB6"/>
<path d="M28.5194 9.3532C29.7609 7.82661 31.9332 4.85843 31.9332 3.41379C31.9332 1.52854 30.4046 0 28.5194 0C26.6341 0 25.1056 1.52854 25.1056 3.41379C25.1056 4.85732 27.2773 7.82661 28.5194 9.3532ZM28.5194 1.13793C29.462 1.13793 30.2263 1.9022 30.2263 2.84483C30.2263 3.78745 29.462 4.55172 28.5194 4.55172C27.5768 4.55172 26.8125 3.78745 26.8125 2.84483C26.8125 1.9022 27.5768 1.13793 28.5194 1.13793Z" fill="#458AB6"/>
<path d="M27.9504 13.0862H28.5194C28.8336 13.0862 29.0884 12.8314 29.0884 12.5172C29.0884 12.203 28.8336 11.9482 28.5194 11.9482H27.9504C27.6362 11.9482 27.3815 12.203 27.3815 12.5172C27.3815 12.8314 27.6362 13.0862 27.9504 13.0862Z" fill="#458AB6"/>
<path d="M20.5539 16.5H21.7043C22.0185 16.5 22.2733 16.2452 22.2733 15.931C22.2733 15.6168 22.0185 15.3621 21.7043 15.3621H20.5447C20.3944 15.3623 20.2502 15.4226 20.1444 15.5293C20.0385 15.636 19.9794 15.7807 19.9805 15.931C19.9824 16.2461 20.2389 16.5003 20.5539 16.5Z" fill="#458AB6"/>
<path d="M26.9325 15.931C26.9325 16.2452 27.1873 16.5 27.5015 16.5H28.6605C28.9747 16.5 29.2295 16.2452 29.2295 15.931C29.2295 15.6168 28.9747 15.3621 28.6605 15.3621H27.5015C27.1873 15.3621 26.9325 15.6168 26.9325 15.931Z" fill="#458AB6"/>
<path d="M24.4724 13.0862H25.6317C25.9459 13.0862 26.2007 12.8314 26.2007 12.5172C26.2007 12.203 25.9459 11.9482 25.6317 11.9482H24.4724C24.1579 11.9482 23.9034 12.203 23.9034 12.5172C23.9034 12.8314 24.1579 13.0862 24.4724 13.0862Z" fill="#458AB6"/>
<path d="M9.2968 31.8621H8.1372C7.82299 31.8621 7.56824 32.1168 7.56824 32.431C7.56824 32.7452 7.82299 33 8.1372 33H9.2968C9.61101 33 9.86577 32.7452 9.86577 32.431C9.86577 32.1168 9.61101 31.8621 9.2968 31.8621Z" fill="#458AB6"/>
<path d="M18.8828 15.1459C18.9226 15.1459 18.962 15.1417 19.0006 15.1334C19.3079 15.0687 19.5046 14.7675 19.4404 14.4603C19.4243 14.3825 19.4163 14.3036 19.416 14.2241C19.4157 14.0441 19.4582 13.8669 19.5399 13.7063C19.6824 13.4262 19.571 13.0837 19.2907 12.9412C19.0106 12.7987 18.6681 12.9101 18.5256 13.1904C18.2897 13.6535 18.2197 14.1838 18.3269 14.6925C18.3817 14.9559 18.6136 15.1454 18.8828 15.1459Z" fill="#458AB6"/>
<path d="M24.0246 16.5H25.1842C25.4984 16.5 25.7532 16.2452 25.7532 15.931C25.7532 15.6168 25.4984 15.3621 25.1842 15.3621H24.0246C23.7104 15.3621 23.4556 15.6168 23.4556 15.931C23.4556 16.2452 23.7104 16.5 24.0246 16.5Z" fill="#458AB6"/>
<path d="M20.9943 13.0862H22.1539C22.4681 13.0862 22.7228 12.8314 22.7228 12.5172C22.7228 12.203 22.4681 11.9482 22.1539 11.9482H20.9943C20.68 11.9482 20.4253 12.203 20.4253 12.5172C20.4253 12.8314 20.68 13.0862 20.9943 13.0862Z" fill="#458AB6"/>
<path d="M15.3719 22.9731C15.4169 22.9848 15.4635 22.9903 15.5099 22.9903C15.7711 22.9898 15.9983 22.812 16.0614 22.5589C16.135 22.2663 16.2737 21.9941 16.467 21.7624C16.6037 21.6073 16.6454 21.3906 16.5765 21.1962C16.5076 21.0014 16.3384 20.8595 16.1347 20.825C15.9314 20.7908 15.725 20.8695 15.5961 21.0306C15.2913 21.3943 15.0729 21.8221 14.9577 22.2824C14.9207 22.4288 14.9438 22.5841 15.0215 22.7136C15.0991 22.8433 15.2252 22.9367 15.3719 22.9731Z" fill="#458AB6"/>
<path d="M26.6122 31.8381C26.49 31.8542 26.3669 31.8623 26.2436 31.862H25.5273C25.2129 31.862 24.9584 32.1168 24.9584 32.431C24.9584 32.7452 25.2129 33 25.5273 33H26.2436C26.4147 33 26.5858 32.9889 26.7556 32.9669C27.0673 32.9266 27.2873 32.6413 27.2473 32.3296C27.207 32.0179 26.9217 31.7978 26.61 31.8381H26.6122Z" fill="#458AB6"/>
<path d="M27.4048 25.205C27.0284 25.0911 26.6369 25.0336 26.2435 25.0344H26.0944C25.7801 25.0344 25.5254 25.2892 25.5254 25.6034C25.5254 25.9176 25.7801 26.1723 26.0944 26.1723H26.2435C26.5247 26.1723 26.8044 26.2137 27.0736 26.2951C27.1273 26.3118 27.1831 26.3201 27.2392 26.3201C27.5212 26.3204 27.761 26.114 27.8026 25.8351C27.844 25.5559 27.6748 25.2886 27.4048 25.207V25.205Z" fill="#458AB6"/>
<path d="M26.1913 21.0518C26.5055 21.0518 26.7603 20.797 26.7603 20.4828C26.7603 20.1686 26.5055 19.9138 26.1913 19.9138H25.0323C24.7181 19.9138 24.4633 20.1686 24.4633 20.4828C24.4633 20.797 24.7181 21.0518 25.0323 21.0518H26.1913Z" fill="#458AB6"/>
<path d="M29.5912 29.8985C29.3051 29.7696 28.9684 29.8968 28.8392 30.183C28.7067 30.4772 28.5247 30.7466 28.3016 30.9797C28.1555 31.1256 28.0999 31.3389 28.1563 31.5373C28.2127 31.7359 28.3722 31.8885 28.5728 31.9357C28.7736 31.9832 28.9845 31.9182 29.1237 31.7659C29.4365 31.4398 29.6915 31.0622 29.8771 30.6502C30.0055 30.3638 29.8777 30.0274 29.5912 29.8985Z" fill="#458AB6"/>
<path d="M32.5711 18.3069C32.4264 18.2641 32.2705 18.2805 32.1377 18.3528C32.0052 18.425 31.9066 18.547 31.8638 18.6917C31.7802 18.9706 31.6274 19.224 31.4196 19.4279C31.1949 19.6479 31.191 20.0083 31.411 20.233C31.631 20.4578 31.9913 20.4614 32.2161 20.2416C32.5628 19.9019 32.8173 19.4796 32.9556 19.0142C32.9987 18.8695 32.982 18.7137 32.9101 18.5809C32.8378 18.4483 32.7159 18.3497 32.5711 18.3069Z" fill="#458AB6"/>
<path d="M31.9218 17.2568C32.1466 17.257 32.3502 17.1248 32.4419 16.9198C32.5333 16.7147 32.4958 16.475 32.3458 16.3077C32.021 15.9466 31.6098 15.674 31.1509 15.5157C30.8536 15.4135 30.53 15.5718 30.4277 15.8691C30.3255 16.1663 30.4839 16.49 30.7811 16.5922C31.0567 16.687 31.3034 16.8506 31.4979 17.0679C31.606 17.1881 31.7601 17.2568 31.9218 17.2568Z" fill="#458AB6"/>
<path d="M23.776 25.0344H22.6169C22.3027 25.0344 22.048 25.2892 22.048 25.6034C22.048 25.9176 22.3027 26.1724 22.6169 26.1724H23.776C24.0902 26.1724 24.3449 25.9176 24.3449 25.6034C24.3449 25.2892 24.0902 25.0344 23.776 25.0344Z" fill="#458AB6"/>
<path d="M29.6693 19.9138H28.5097C28.1955 19.9138 27.9407 20.1686 27.9407 20.4828C27.9407 20.797 28.1955 21.0518 28.5097 21.0518H29.6693C29.9835 21.0518 30.2383 20.797 30.2383 20.4828C30.2383 20.1686 29.9835 19.9138 29.6693 19.9138Z" fill="#458AB6"/>
<path d="M12.7745 31.8621H11.6155C11.3013 31.8621 11.0465 32.1168 11.0465 32.431C11.0465 32.7452 11.3013 33 11.6155 33H12.7745C13.0887 33 13.3435 32.7452 13.3435 32.431C13.3435 32.1168 13.0887 31.8621 12.7745 31.8621Z" fill="#458AB6"/>
<path d="M29.5396 26.7811C29.362 26.5214 29.0075 26.4547 28.7475 26.6322C28.4878 26.8098 28.4211 27.1642 28.5986 27.4243C28.7803 27.6904 28.915 27.9857 28.9967 28.2975C29.0412 28.5011 29.1934 28.6642 29.3937 28.7225C29.5937 28.7808 29.8096 28.725 29.9566 28.5769C30.1032 28.4291 30.1574 28.2127 30.0977 28.013C29.9838 27.5735 29.7951 27.1567 29.5396 26.7811Z" fill="#458AB6"/>
<path d="M17.1129 24.8303C16.8426 24.6956 16.6061 24.5022 16.4203 24.2641C16.2275 24.0157 15.8699 23.971 15.6218 24.1638C15.3735 24.3563 15.3287 24.7139 15.5213 24.9623C15.8127 25.3362 16.1844 25.6399 16.6092 25.8504C16.8895 25.9813 17.2232 25.8641 17.3601 25.5865C17.4971 25.3093 17.3871 24.9731 17.1129 24.8303Z" fill="#458AB6"/>
<path d="M16.2524 31.8621H15.0917C14.7775 31.8621 14.5228 32.1168 14.5228 32.431C14.5228 32.7452 14.7775 33 15.0917 33H16.2524C16.5667 33 16.8214 32.7452 16.8214 32.431C16.8214 32.1168 16.5667 31.8621 16.2524 31.8621Z" fill="#458AB6"/>
<path d="M23.2087 31.8621H22.0497C21.7355 31.8621 21.4807 32.1168 21.4807 32.431C21.4807 32.7452 21.7355 33 22.0497 33H23.2087C23.5229 33 23.7777 32.7452 23.7777 32.431C23.7777 32.1168 23.5229 31.8621 23.2087 31.8621Z" fill="#458AB6"/>
<path d="M19.2357 21.0518C19.5499 21.0518 19.8046 20.797 19.8046 20.4828C19.8046 20.1686 19.5499 19.9138 19.2357 19.9138H18.0767C17.7624 19.9138 17.5077 20.1686 17.5077 20.4828C17.5077 20.797 17.7624 21.0518 18.0767 21.0518H19.2357Z" fill="#458AB6"/>
<path d="M22.7159 21.0518C23.0301 21.0518 23.2849 20.797 23.2849 20.4828C23.2849 20.1686 23.0301 19.9138 22.7159 19.9138H21.5541C21.2399 19.9138 20.9851 20.1686 20.9851 20.4828C20.9851 20.797 21.2399 21.0518 21.5541 21.0518H22.7159Z" fill="#458AB6"/>
<path d="M20.2982 25.0344H19.1389C18.8247 25.0344 18.5699 25.2892 18.5699 25.6034C18.5699 25.9176 18.8247 26.1724 19.1389 26.1724H20.2982C20.6127 26.1724 20.8672 25.9176 20.8672 25.6034C20.8672 25.2892 20.6127 25.0344 20.2982 25.0344Z" fill="#458AB6"/>
<path d="M19.7313 31.8621H18.5717C18.2574 31.8621 18.0027 32.1168 18.0027 32.431C18.0027 32.7452 18.2574 33 18.5717 33H19.7313C20.0455 33 20.3002 32.7452 20.3002 32.431C20.3002 32.1168 20.0455 31.8621 19.7313 31.8621Z" fill="#458AB6"/>
<path d="M5.76073 31.8621H5.19177C4.87756 31.8621 4.6228 32.1168 4.6228 32.431C4.6228 32.7452 4.87756 33 5.19177 33H5.76073C6.07494 33 6.3297 32.7452 6.3297 32.431C6.3297 32.1168 6.07494 31.8621 5.76073 31.8621Z" fill="#458AB6"/>
</g>
<defs>
<clipPath id="clip0">
<rect width="33" height="33" fill="white"/>
</clipPath>
</defs>
</svg>
