<svg width="16" height="30" viewBox="0 0 16 30" fill="none" xmlns="http://www.w3.org/2000/svg">
<path d="M15.0096 0.930032L11.2954 0.924072C7.12256 0.924072 4.4259 3.69079 4.4259 7.97301V11.223H0.69139C0.368684 11.223 0.107361 11.4847 0.107361 11.8074V16.5163C0.107361 16.839 0.368982 17.1003 0.69139 17.1003H4.4259V28.9825C4.4259 29.3052 4.68722 29.5665 5.00992 29.5665H9.88239C10.2051 29.5665 10.4664 29.3049 10.4664 28.9825V17.1003H14.8329C15.1556 17.1003 15.417 16.839 15.417 16.5163L15.4187 11.8074C15.4187 11.6524 15.3571 11.504 15.2477 11.3944C15.1384 11.2847 14.9894 11.223 14.8344 11.223H10.4664V8.46795C10.4664 7.14374 10.782 6.47151 12.5069 6.47151L15.009 6.47061C15.3314 6.47061 15.5928 6.20899 15.5928 5.88658V1.51407C15.5928 1.19195 15.3317 0.930628 15.0096 0.930032Z" fill="white"/>
</svg>
