<svg width="23" height="24" viewBox="0 0 23 24" fill="none" xmlns="http://www.w3.org/2000/svg">
<g clip-path="url(#clip0)">
<path d="M16.8457 0.728577L13.9354 0.723907C10.6659 0.723907 8.55293 2.89174 8.55293 6.24703V8.79355H5.6268C5.37395 8.79355 5.16919 8.99854 5.16919 9.2514V12.941C5.16919 13.1939 5.37418 13.3986 5.6268 13.3986H8.55293V22.7087C8.55293 22.9616 8.75768 23.1664 9.01054 23.1664H12.8283C13.0812 23.1664 13.2859 22.9614 13.2859 22.7087V13.3986H16.7072C16.9601 13.3986 17.1649 13.1939 17.1649 12.941L17.1663 9.2514C17.1663 9.12999 17.1179 9.01372 17.0322 8.9278C16.9466 8.84188 16.8298 8.79355 16.7084 8.79355H13.2859V6.63483C13.2859 5.59726 13.5332 5.07054 14.8847 5.07054L16.8452 5.06984C17.0978 5.06984 17.3026 4.86484 17.3026 4.61222V1.18619C17.3026 0.933803 17.0981 0.729044 16.8457 0.728577Z" fill="#C5C5C5"/>
</g>
<defs>
<clipPath id="clip0">
<rect width="22.4425" height="22.4425" fill="white" transform="translate(0.0147705 0.723907)"/>
</clipPath>
</defs>
</svg>
