<svg width="41" height="58" viewBox="0 0 41 58" fill="none" xmlns="http://www.w3.org/2000/svg">
<path d="M39.7621 14.4356C39.5556 13.6619 39.1364 12.8374 38.8262 12.1156C35.1149 3.19644 27.0059 0 20.4582 0C11.6929 0 2.03903 5.87748 0.750153 17.9924V20.4675C0.750153 20.5708 0.785752 21.4987 0.83632 21.9628C1.55884 27.7365 6.11468 33.8726 9.51716 39.6462C13.1777 45.8321 16.9761 51.9173 20.7393 57.9999C23.0598 54.0305 25.3719 50.0089 27.6395 46.1423C28.2575 45.0075 28.9749 43.8735 29.5936 42.7904C30.006 42.0692 30.7937 41.348 31.1536 40.677C34.8141 33.9752 40.706 27.2216 40.706 20.5707V17.8384C40.7061 17.1173 39.8124 14.5911 39.7621 14.4356ZM20.6187 26.8608C18.0421 26.8608 15.2219 25.5724 13.8299 22.0145C13.6225 21.4481 13.6392 20.3131 13.6392 20.2091V18.6109C13.6392 14.0752 17.4904 12.0125 20.8409 12.0125C24.9656 12.0125 28.1557 15.3125 28.1557 19.4373C28.1557 23.5618 24.7434 26.8608 20.6187 26.8608Z" fill="#458AB6"/>
</svg>
