<svg width="48" height="68" viewBox="0 0 48 68" fill="none" xmlns="http://www.w3.org/2000/svg">
<path d="M46.3156 16.9245C46.0736 16.0174 45.5821 15.0508 45.2184 14.2045C40.8673 3.74756 31.3601 0 23.6835 0C13.407 0 2.08862 6.89086 0.57752 21.0945V23.9964C0.57752 24.1175 0.619258 25.2054 0.678545 25.7496C1.52563 32.5187 6.86696 39.7128 10.8561 46.4819C15.1478 53.7343 19.6011 60.8687 24.0131 68C26.7337 63.3462 29.4444 58.6313 32.103 54.098C32.8275 52.7676 33.6686 51.438 34.394 50.1681C34.8774 49.3226 35.801 48.4771 36.223 47.6904C40.5146 39.8331 47.4223 31.9151 47.4223 24.1174V20.914C47.4225 20.0686 46.3746 17.1068 46.3156 16.9245ZM23.8716 31.492C20.8508 31.492 17.5444 29.9815 15.9124 25.8101C15.6692 25.1461 15.6888 23.8154 15.6888 23.6935V21.8197C15.6888 16.502 20.2041 14.0837 24.1322 14.0837C28.9681 14.0837 32.7082 17.9527 32.7082 22.7886C32.7082 27.6243 28.7075 31.492 23.8716 31.492Z" fill="#9C4DCD"/>
</svg>
