<svg width="40" height="58" viewBox="0 0 40 58" fill="none" xmlns="http://www.w3.org/2000/svg">
<path d="M39.034 14.4357C38.8275 13.662 38.4083 12.8375 38.0981 12.1157C34.3869 3.19656 26.2778 0.00012207 19.7301 0.00012207C10.9648 0.00012207 1.31094 5.87761 0.0220642 17.9925V20.4676C0.0220642 20.5709 0.0576641 21.4988 0.108232 21.9629C0.830747 27.7366 5.38659 33.8727 8.78907 39.6464C12.4497 45.8322 16.248 51.9174 20.0113 58C22.3317 54.0306 24.6438 50.009 26.9114 46.1424C27.5294 45.0077 28.2468 43.8736 28.8655 42.7905C29.2779 42.0693 30.0656 41.3482 30.4256 40.6771C34.086 33.9753 39.9779 27.2217 39.9779 20.5708V17.8385C39.9781 17.1175 39.0843 14.5912 39.034 14.4357ZM19.8906 26.8609C17.314 26.8609 14.4938 25.5726 13.1018 22.0146C12.8944 21.4482 12.9111 20.3132 12.9111 20.2092V18.611C12.9111 14.0753 16.7624 12.0126 20.1128 12.0126C24.2375 12.0126 27.4276 15.3126 27.4276 19.4374C27.4276 23.562 24.0153 26.8609 19.8906 26.8609Z" fill="#A8C557"/>
</svg>
