<svg width="41" height="58" viewBox="0 0 41 58" fill="none" xmlns="http://www.w3.org/2000/svg">
<path d="M39.5935 14.4356C39.387 13.6619 38.9677 12.8374 38.6575 12.1156C34.9459 3.19644 26.8359 0 20.2876 0C11.5214 0 1.86653 5.8775 0.57752 17.9924V20.4675C0.57752 20.5708 0.613124 21.4987 0.663697 21.9629C1.38629 27.7365 5.9426 33.8727 9.34544 39.6463C13.0064 45.8322 16.8052 51.9174 20.5688 58C22.8895 54.0306 25.2018 50.009 27.4697 46.1424C28.0877 45.0076 28.8052 43.8736 29.424 42.7905C29.8364 42.0693 30.6242 41.3481 30.9842 40.6771C34.645 33.9753 40.5375 27.2217 40.5375 20.5707V17.8384C40.5377 17.1174 39.6438 14.5911 39.5935 14.4356ZM20.4481 26.8608C17.8713 26.8608 15.0508 25.5725 13.6586 22.0145C13.4512 21.4482 13.4679 20.3131 13.4679 20.2092V18.611C13.4679 14.0752 17.3196 12.0126 20.6703 12.0126C24.7955 12.0126 27.9859 15.3126 27.9859 19.4373C27.9859 23.5619 24.5732 26.8608 20.4481 26.8608Z" fill="#9C4DCD"/>
</svg>
