<svg width="25" height="25" viewBox="0 0 25 25" fill="none" xmlns="http://www.w3.org/2000/svg">
<g clip-path="url(#clip0)">
<path d="M6.85211 9.84426H5.73059C5.46089 9.84426 5.24231 9.62568 5.24231 9.35598C5.24231 9.08628 5.46089 8.8677 5.73059 8.8677H5.78133C5.78743 8.85187 5.7943 8.83623 5.80212 8.82078C5.92476 8.58064 6.21868 8.48509 6.45901 8.60754L7.07375 8.92092C7.27497 9.02353 7.37949 9.25051 7.32685 9.47004C7.27421 9.68958 7.07775 9.84426 6.85211 9.84426Z" fill="#458AB6"/>
<path d="M11.8927 9.84426H10.7712C10.5455 9.84426 10.3491 9.68938 10.2964 9.47004C10.2436 9.2505 10.3483 9.02353 10.5493 8.92091L11.1643 8.60753C11.4044 8.48489 11.6985 8.58045 11.821 8.82078C11.8288 8.83623 11.8359 8.85187 11.842 8.8677H11.8927C12.1624 8.8677 12.381 9.08628 12.381 9.35598C12.381 9.62568 12.1624 9.84426 11.8927 9.84426Z" fill="#458AB6"/>
<path d="M8.84175 12.7367C8.53733 12.7367 8.23292 12.6207 8.00099 12.389C7.81025 12.1984 7.81025 11.8892 8.00079 11.6985C8.19153 11.5078 8.50071 11.5078 8.69145 11.6983C8.77442 11.7813 8.90927 11.7813 8.99224 11.6983C9.18297 11.5078 9.49215 11.5078 9.68289 11.6985C9.87343 11.8892 9.87343 12.1984 9.6827 12.389C9.45095 12.6207 9.14635 12.7367 8.84175 12.7367Z" fill="#458AB6"/>
<path d="M15.9609 6.13708H15.0936C15.028 2.74181 12.2456 0 8.83484 0C5.42431 0 2.64187 2.74181 2.57626 6.13708H1.70898C1.43929 6.13708 1.2207 6.35567 1.2207 6.62537C1.2207 6.89506 1.43929 7.11365 1.70898 7.11365H2.24094C1.98021 7.481 1.82419 7.92694 1.81751 8.40721C1.76373 12.3045 1.76392 12.3119 1.76392 12.3199C1.77155 13.4687 2.2234 14.4495 3.07083 15.1566C3.10822 15.1878 3.14655 15.2184 3.18527 15.2483C2.41432 15.443 1.84212 16.1425 1.84212 16.9731V24.5047C1.84212 24.7744 2.0607 24.9929 2.3304 24.9929H15.3393C15.609 24.9929 15.8276 24.7744 15.8276 24.5047V16.9729C15.8276 16.144 15.2575 15.4455 14.4888 15.2494C14.5237 15.2224 14.558 15.1947 14.5918 15.1667C15.443 14.4592 15.8974 13.4764 15.9058 12.3255C15.906 12.3161 15.906 12.3081 15.8524 8.42113C15.8457 7.93514 15.687 7.48424 15.4222 7.11365H15.9609C16.2304 7.11365 16.4492 6.89506 16.4492 6.62537C16.4492 6.35567 16.2304 6.13708 15.9609 6.13708ZM13.0487 10.0855C12.9519 12.2156 11.8328 13.4602 9.63631 13.8861C9.37843 13.936 9.2062 14.1813 9.24683 14.4407L9.36451 15.1943H8.30555L8.42323 14.4407C8.46367 14.1813 8.29163 13.936 8.03375 13.8861C5.73273 13.4399 4.61426 12.0956 4.61426 9.77592V7.11365H13.0487V10.0855ZM7.38792 14.7411L7.33109 15.1049C6.74152 14.9603 5.8176 14.592 5.21221 13.6625C5.78613 14.1535 6.51321 14.5153 7.38792 14.7411ZM6.46667 16.1728H7.74498L6.46667 17.1125V16.1728ZM11.2032 16.1728V17.1125L9.92489 16.1728H11.2032ZM10.3371 15.0925L10.2821 14.7411C11.1208 14.5246 11.8238 14.1829 12.3863 13.7222C11.7861 14.5798 10.91 14.9418 10.3371 15.0925ZM8.83484 0.976562C11.7071 0.976562 14.0512 3.28045 14.1169 6.13708H3.55301C3.61862 3.28045 5.96275 0.976562 8.83484 0.976562ZM2.74048 12.3175C2.74162 12.2335 2.76051 10.854 2.79408 8.42075C2.8017 7.87201 3.14789 7.40128 3.63083 7.20768V11.3533C3.63083 13.2812 4.38919 14.4276 5.1897 15.1003C3.87669 14.8266 2.75345 13.9357 2.74048 12.3175ZM2.81868 24.0164V18.8805H3.69682V24.0164H2.81868ZM14.851 24.0164H13.973V18.8805H14.851V24.0164ZM14.851 16.9729V17.9039H13.4848C13.2151 17.9039 12.9965 18.1225 12.9965 18.3922V24.0164H4.67339V18.3922C4.67339 18.1225 4.4548 17.9039 4.1851 17.9039H2.81868V16.9729C2.81868 16.5308 3.1786 16.1709 3.62091 16.1709H5.49011V18.0775C5.49011 18.2615 5.59368 18.4299 5.7579 18.5131C5.92213 18.5963 6.11916 18.5801 6.26755 18.471L8.83484 16.5836L11.4021 18.471C11.4876 18.5337 11.5892 18.5657 11.6915 18.5657C11.7666 18.5657 11.8422 18.5484 11.9118 18.5131C12.0762 18.4299 12.1796 18.2615 12.1796 18.0775V16.1709H14.049C14.4913 16.1709 14.851 16.5308 14.851 16.9729ZM12.413 15.1184C13.2326 14.4485 14.0253 13.298 14.0253 11.3533L14.0322 7.2094C14.5193 7.40528 14.8684 7.88059 14.876 8.43449C14.9094 10.8599 14.9282 12.236 14.9294 12.3211C14.9155 13.9702 13.7554 14.863 12.413 15.1184Z" fill="#458AB6"/>
<path d="M23.5439 8.1501L18.2409 5.25189C18.0897 5.16911 17.906 5.17235 17.7578 5.26047C17.6094 5.3484 17.5184 5.50805 17.5184 5.68047V24.5117C17.5184 24.7814 17.7372 25 18.0067 25H19.6125C19.882 25 20.1008 24.7814 20.1008 24.5117V18.3365C20.1008 18.0668 19.882 17.8482 19.6125 17.8482C19.3428 17.8482 19.1242 18.0668 19.1242 18.3365V24.0234H18.495V11.7666L19.1242 11.4227V13.6538C19.1242 13.9235 19.3428 14.142 19.6125 14.142C19.882 14.142 20.1008 13.9235 20.1008 13.6538V10.8891L23.5439 9.00727C23.7007 8.92163 23.7982 8.75721 23.7982 8.57869C23.798 8.40016 23.7005 8.23574 23.5439 8.1501ZM18.495 10.6537V6.50368L22.2916 8.57869L18.495 10.6537Z" fill="#458AB6"/>
<path d="M19.6123 16.3803C19.5806 16.3803 19.5484 16.3768 19.5171 16.3706C19.4858 16.3643 19.4551 16.3549 19.4254 16.3427C19.396 16.3305 19.3678 16.3154 19.3415 16.2979C19.3146 16.2803 19.2896 16.2597 19.2671 16.2372C19.2448 16.2147 19.2242 16.1899 19.206 16.163C19.1885 16.1367 19.1734 16.1083 19.1612 16.0785C19.149 16.0494 19.1397 16.0185 19.1334 15.9874C19.1271 15.9561 19.124 15.9239 19.124 15.892C19.124 15.8603 19.1271 15.8281 19.1334 15.7964C19.1397 15.7655 19.149 15.7348 19.1612 15.7051C19.1734 15.6757 19.1885 15.6475 19.206 15.6212C19.2242 15.5943 19.2448 15.5693 19.2671 15.5468C19.2896 15.5245 19.3146 15.5039 19.3415 15.4857C19.3678 15.4682 19.396 15.4535 19.4254 15.4413C19.4551 15.4291 19.4858 15.4194 19.5171 15.4136C19.5803 15.4009 19.6445 15.4009 19.7077 15.4136C19.739 15.4194 19.7697 15.4291 19.7988 15.4413C19.8286 15.4535 19.857 15.4682 19.8833 15.4857C19.9102 15.5039 19.9352 15.5245 19.9575 15.5468C19.98 15.5693 20.0006 15.5943 20.0182 15.6212C20.0357 15.6475 20.0508 15.6757 20.063 15.7051C20.0752 15.7348 20.0849 15.7655 20.0909 15.7964C20.0972 15.8281 20.1006 15.8603 20.1006 15.892C20.1006 16.0206 20.0483 16.1464 19.9575 16.2372C19.935 16.2597 19.9102 16.2803 19.8833 16.2979C19.857 16.3154 19.8286 16.3305 19.7988 16.3427C19.7697 16.3549 19.7388 16.3643 19.7075 16.3706C19.6764 16.3768 19.6442 16.3803 19.6123 16.3803Z" fill="#458AB6"/>
</g>
<defs>
<clipPath id="clip0">
<rect width="25" height="25" fill="white"/>
</clipPath>
</defs>
</svg>
