<svg width="194" height="57" fill="none" xmlns="http://www.w3.org/2000/svg"><path fill-rule="evenodd" clip-rule="evenodd" d="M168.493 31.592c-.26.084-3.809.02-4.414.02 0-.291.637-1.971.835-2.587.031-.136.094-.24.125-.376.063-.157.063-.26.125-.417.188-.49.606-1.92.867-2.546l.292-.814c.094-.136 0-.063.125-.136.063.083.219.689.292.845l.512 1.743c.062.135.062.26.125.417.031.136.094.261.125.397l.668 2.212c.094.261.386 1.065.323 1.242zm5.281 1.461c-.094-.47-1.086-3.078-1.347-3.85l-1.92-5.448c-.156-.438-.448-1.169-.542-1.576a3.952 3.952 0 0 0-.261-.616c-.188-.47-.574-.907-.637-1.085l-.125-.115-.125-.135-.063-.063c-.261-.177-.48-.396-.772-.511-.324-.115-.606-.261-.96-.261l-.094-.042c-1.826 0-1.597.292-2.077.376l-.125.083c-.125.136-.323.22-.449.376-.448.511-.668.71-1.022 1.482l-.449 1.22c-.188.356-.292.815-.449 1.19L159.8 31.05c-.031.084-.094.157-.125.261l-1.346 3.653c-.355.929-.929 2.348-.637 3.34.011.03.032.062.052.104.251.511.981 1.471 1.91 1.471.981 0 1.607-.595 1.857-.929.074-.094.126-.167.157-.208l.094-.136c.031-.177.188-.438.261-.637.062-.114.062-.219.125-.354.157-.439.261-.846.48-1.367.063-.136.063-.22.094-.355h7.232c.125.334.219.688.355 1.043.376 1.138.386 1.43.856 2.025.396.448 1.262 1.054 2.202.918.062-.01.125-.02.208-.042.032-.01.053-.01.084-.02.209-.063.47-.167.783-.397.354-.24.542-.595.699-1.023.417-1.064-.386-2.525-.668-3.475l-.668-1.878-.031.01zM92.03 29.985l-.094-.115c-.094-.083-.063-.042-.094-.136l-.094-.114-.062-.063-.157-.156-.292-.261-.125-.115-.094-.042-.125-.115a8.913 8.913 0 0 1-.804-.532l-.157-.083s-1.659-.731-2.243-.908c-.324-.115-2.14-.69-2.338-.793l-.156-.115-.094-.021c-.126-.042-.324-.136-.418-.24l-.156-.157-.032-.02-.094-.136c-.26-.199-.323-.793-.26-1.086.125-.814.636-1.242 1.408-1.44.094-.042.543-.062.637-.062.125 0 .26-.021.355 0l2.014.47c.156.04.417.135.543.156 1.085.135 1.408.114 2.212-.418l.156-.177c.063-.198.188-.355.293-.668.062-.292.094-.532.031-.845-.063-.334-.355-.992-.668-1.17-.188-.26-.574-.396-.74-.594l-.157-.084a3.372 3.372 0 0 1-.48-.198c-.324-.156-1.347-.438-1.702-.47l-1.346-.083c-.668-.115-1.826.136-2.494.261-.355.063-.74.22-1.054.376-1.377.615-1.315.845-1.763 1.064l-.157.157-.094.083-.125.115-.26.313-.095.115-.062.083-.126.136c-.03.22-.803 1.085-1.022 2.703a8.208 8.208 0 0 0 0 1.753l.188.752c.062.198.187.49.219.688l.094.136c.094.115.062.02.062.157l.094.135.094.157.125.135c.094.063.063.021.094.136l.157.157.062.083.094.063.032.062.125.094c0 .021 1.085.752 1.377.887.48.22 1.117.512 1.597.668l.866.261c.188.084.261.084.449.136.156.042.26.115.417.156.355.136 1.347.418 1.597.668l.125.084c.094.02.157.062.261.156.032.021.063.063.094.084.094.083.031.02.063.083l.125.115c.386.313.449.845.449 1.305 0 .26 0 .553-.094.772-.063.135-.22.438-.355.532l-.292.292c-.324.418-1.315.616-1.795.553-.7-.114-1.284-.177-1.92-.396-.574-.198-1.18-.418-1.795-.574-1.221-.313-1.41.041-1.952.135l-.125.084-.355.292-.094.084-.031.062-.094.136c-.063.156-.094.292-.157.417-.062.157-.062.376-.125.47v.334h.032c0 .376.219.532.26.772l.094.115c.386.417.606.616 1.086.97l.125.084c.125.02.125.02.219.115l.22.136c.542.114.803.47 2.942.772 1.023.135 1.054.062 2.108.062.22-.02.418-.041.637-.083.219-.042.511-.063.699-.115.803-.198 1.597-.438 2.306-.866.157-.115.93-.616.96-.616l.126-.136c.031-.041.74-.772.772-.793l.094-.114c.031-.115.543-.815.835-1.545.156-.396.386-1.524.417-1.951 0-.637-.031-1.545-.26-2.15-.387-1.023-.742-1.399-.804-1.545l.041-.031zM110.94 35.495l-.063-.083c-.094-.063-.125-.063-.156-.178l-.094-.115c-.094-.062-.125-.062-.125-.177l-.126-.115-.636-.772-.157-.157c-.094-.062-.062-.041-.094-.135l-.062-.115c-.125-.063-.157-.063-.188-.178l-.094-.135-.449-.511-.094-.115c-.094-.063-.094-.042-.094-.136l-.125-.136c-.125-.083-.866-.95-.897-1.043l-.094-.136-.96-1.085-.063-.094-.094-.136-.156-.156-.063-.084.031-.136.574-.71.125-.135c.032-.115.835-1.064.961-1.169l.125-.135.094-.136.094-.115c.031-.083.031-.062.125-.136l.094-.114.574-.689.094-.115c.031-.115 1.283-1.617 1.44-1.753l.094-.115.125-.136.094-.114.323-.397.094-.115c.063-.177.387-.396.574-1.22.157-.773-.125-1.023-.219-1.504l-.062-.156c-.094-.084-.188-.26-.293-.376-.542-.595-1.502-.928-2.306-.73-.188.041-.355.062-.511.136a3.716 3.716 0 0 1-.386.219l-.126.083c-.062.115-.031.084-.125.115l-.156.156c-.032.115-.668.867-.804.971l-.125.115-.094.135-.094.136-.094.115-.125.136c-.032.083 0 .062-.094.135l-.125.115c0 .084-.387.574-.512.637l-.094.114-.835.971-.093.136-.324.375-.094.136-.094.115-.156.177-.094.136-.094.115c-.032.083-.032.062-.125.135l-.094.136-.094.136-.126.114-.093.136-.063.084-.605.71-.094.135c-.032.115-.449.574-.574.668l-.094.136-.094.135-.125.115a.861.861 0 0 1-.293.376l-.125.135c-.031.094 0 .042-.094.136l-.156.156c-.032.115 0 .084-.125.136v-6.679c0-1.544-.188-1.127-.355-1.815l-.126-.115-.031-.084-.156-.156-.063-.063-.094-.114-.219-.136-.125-.084c-.157-.02-.418-.198-.668-.24-.324-.041-.511-.041-.835-.041-.157.041-.261.02-.386.062-.094.021-.22.084-.324.136-.125.062-.448.26-.511.26l-.125.116c-.094.156-.188.198-.292.354-.094.136-.188.261-.261.418l-.063.177h-.01c-.032.063-.063.125-.084.199l-.094.918v.606c0 .657 0 1.523-.01 2.232v12.179c0 .595.031.636.031 1.085.094-.02.031.042.063.198.094.47.511.887.699 1.148l.156.136c.22.063.637.47 1.253.47 1.283-.021.96-.22 1.44-.293l.125-.114.386-.293.094-.135.094-.115.125-.136c.063-.292.355-.615.355-1.22v-4.624c0-.292-.062-1.837.063-2.014l.292.376.094.135c.125.063.323.313.355.418l.125.115.637.772.156.156c.094.063.063.042.094.136l.094.115.636.772.157.157c.094.083.063.041.094.135l.125.136.898 1.044.094.135.448.512.063.062c.094.084.386.397.417.512l.094.083.606.71.125.177.094.136.125.115.668.793.125.135.511.553.094.115c.637.199.387.418 1.66.439.772 0 1.221-.533 1.471-.616l.188-.198.219-.313.094-.136c.031-.376.418-.814.188-1.68-.261-.95-.605-.992-.741-1.305v.021zM119.205 26.99c.125-.22.219-.136.511-.637.835-1.398.063-2.254-.031-2.63l-.125-.114-.386-.553-.094-.136c-.063 0-.063.021-.032-.042l-.094-.114-.156-.22-.094-.114c-.094-.094-.668-.814-.699-.93l-.094-.135c-.125-.156-.449-.532-.512-.71l-.125-.135a4.864 4.864 0 0 1-.449-.574c-.125-.198-.354-.355-.511-.512l-.125-.114c-.125 0-.292-.084-.386-.157-.219-.115-.219-.083-.449-.115-.741-.114-1.117-.041-1.764.334-.354.199-.417.376-.605.512l-.094.115c-.031.156-.156.333-.219.51-.219.554-.219 1.347.031 1.858.292.595 1.117 1.503 1.221 1.753l.094.136c.063 0 .032 0 .032.042l.093.135.387.533.125.135c.031 0 .031 0 0 .042l.125.136.125.198.094.136c.094.062.668.814.699.928l.094.115.355.334.125.115c.094.02.48.24.637.292 1.117.376 1.471-.041 2.181-.292l.125-.115-.01-.01zM128.994 19.654l-.157-.084c-.094-.02-.125-.042-.219-.062-.125-.042-.219-.021-.188-.084-.417 0-.448-.177-1.179-.02-.157.04-.355.062-.48.156-.125.062-.261.156-.386.177l-.125.115-.094.063-.188.177-.637.814-.094.115-.062.083-.094.136-.355.47-.125.114c-.032.157-1.701 2.192-1.889 2.432l-.125.136-.063.083-.094.115-.511.689-.126.114-.354.47-.094.136-.063.083-.094.136-.062.063-.126.135c-.031.084-.417.595-.511.668l-.094.136-.063.083-.094.136c-.062.083-.26.376-.386.438l-.094.136-.062.083-.094.136c-.031.115-.261.376-.355.438l-.125.136c-.063.47 0 1.597 0 2.15v6.459h.021c0 .021 0 .063.01.157l.125.511c.094.22.22.376.293.553l.094.136c.26.198.417.47.772.616.741.313 1.409.396 2.181.02.156-.083.292-.156.417-.24.157-.114.219-.219.386-.313l.094-.135.094-.157.094-.135c.063-.376.292-.574.292-1.107 0-.887-.062-6.7.032-6.877l1.221-1.503.125-.135.063-.084.094-.115.062-.083.094-.136c.063-.156.261-.355.355-.47l.125-.114.031-.084.126-.135.354-.47.094-.115.063-.094.094-.135.063-.084.125-.115.188-.26.094-.115.062-.084.094-.136c.031-.114.418-.594.511-.667l.126-.136c.031-.115.417-.595.511-.668l.094-.136c.063-.114.605-.814.699-.887l.094-.135c.063-.115.188-.293.261-.418.292-.49.417-1.085.292-1.659-.261-.929-.48-1.064-1.116-1.617h-.042zM156.325 20.071l-.125-.136-.125-.114-.126-.115c-.219-.042-.605-.355-1.179-.355-.929-.02-1.054.157-1.315.198l-.125.063v.02c-.094.116-.261.2-.355.335-.062.094-.188.26-.261.334l-.094.135c-.031.24-.219.512-.292.73l-.636 3.34c-.032.261-.126.533-.157.814l-.219 1.263c-.031.136-.063.24-.094.376l-.157.866c-.062.313-.125.532-.156.845-.031.24-.125.595-.188.846l-.292 1.659c-.031.135-.063.292-.094.417-.063.532-.157.772-.219 1.242-.032.136-.032.292-.094.417l-.094.313v.021c-.094-.156-.898-3.412-.929-3.558l-1.054-4.028a10.18 10.18 0 0 0-.094-.439l-.48-1.795c-.062-.26-.156-.594-.219-.887-.157-.574-.292-1.19-.48-1.774-.292-.908-.772-1.106-.898-1.325l-.062-.042-.063-.042c-.188-.062-.292-.135-.48-.198-.062-.042-.156-.042-.261-.063-.125-.02-.261 0-.188-.062-.417 0-.699-.021-1.085.063-.125.02-.292.041-.417.114-.157.063-.22.084-.387.157l-.125.083c-.125.22-.605.397-.929 1.347-.219.71-.636 2.348-.834 3.14-.032.157-.094.293-.126.418-.062.355-.156.574-.219.908-.031.178-.094.313-.125.47l-.219.908c-.063.156-.063.292-.094.438l-.741 2.682c-.031.115 0 .157-.031.26-.094.356-.324 1.044-.418 1.545l-.219.908c-.031.136-.094.293-.125.418-.031.156 0 .313-.188.355l-.292-1.743c-.125-.553-.219-1.127-.324-1.68l-.96-5.114c-.094-.47-.094-.532-.156-.845-.063-.293-.126-.532-.157-.846l-.219-1.283c-.031-.157-.063-.261-.094-.418-.261-1.262-.324-.887-.543-1.46l-.094-.116-.511-.438-.188-.135c-.188-.021-.386-.084-.605-.136-.219-.042-.48-.021-.699-.021a3.863 3.863 0 0 1-.668.157l-.261.135-.188.115-.125.115-.261.24-.094.136c-.157.396-.355.553-.386 1.085 0 .532.031.866.094 1.346l.188.887c.062.49.156.49.219.866.156.97.48 2.015.636 2.943.032.198.126.376.157.574.188.992.449 1.973.637 2.943.062.313.125.397.219.887a.8.8 0 0 0 .062.261l.386 1.743c.126.47.063.334.126.595.031.177.125.396.156.595.031.114.031.198.063.334 0 .062.031.156.062.24.063.219.094.375.126.594l.448 1.68c.094.261.418.794.449.971l.094.115.063.084.125.135.125.136.094.115c.063-.042.063-.042.063 0l.125.114c.219.063.417.199.668.261.292.084.48.136.803.136.282 0 .72.01 1.159-.073a2.738 2.738 0 0 0 1.116-.553.63.63 0 0 1 .084-.073c.647-.553 1.096-1.388 1.252-2.223.032-.157.094-.313.125-.47l.48-1.878c.032-.199.063-.292.094-.47l.261-.97c.032-.178.063-.293.126-.47l.219-.95c.219-.772.355-1.596.605-2.369l.699-2.786c0-.02.031-.042.031-.042l.094-.062.032.135 2.045 7.723c.031.156.031.22.094.376.063.24.094.511.188.751.063.24.094.47.188.73.062.24.125.47.188.731.062.376.417 1.367.417 1.398l.157.22c.094.083.292.375.386.51.355.398.866.648 1.388.763.031 0 .052.01.062.01.167.032.334.052.491.052h-.261c.25.042.689.063 1.148 0h-.313c.219 0 .376-.01.511-.03.616-.126 1.263-.44 1.639-1.128.114-.23.281-.5.375-.762.157-.376.261-.772.355-1.148.063-.198.094-.417.157-.616l1.054-4.163c.031-.199.062-.418.125-.616s.094-.397.156-.595c.032-.22.094-.397.157-.595l.866-3.58c.031-.198.094-.375.157-.594.031-.22.094-.397.156-.595.157-.616.574-2.327.668-3.006.063-.49.125-.866.031-1.398-.125-.595-.323-.668-.48-.97l.042-.032zM183.003 26.682l.093-.136c.094-.355.481-.814.293-1.68-.094-.49 0-.313-.261-.793-.125-.22-.292-.376-.418-.595l-.094-.084-2.588-3.141-.094-.084c-1.534-1.147-2.4-.438-2.817-.375l-.126.083-.093.063-.126.083c-.062.115-.772.637-.897 1.482-.157 1.086.355 1.618.449 1.879l.093.136.355.417.063.083.063.084.156.156.063.084.094.136.542.668.094.083.063.083.094.115.094.136.125.136.031.062.125.136c.126.083.387.438.512.595.125.156.355.396.48.574l.125.114c.063-.02.063-.041.031.021l.126.084c.417.136.866.553 1.92.313.699-.157.96-.49 1.409-.929l.021.01zM192.958 21.328c-.26-.887-.448-.814-.772-1.263l-.094-.094c-.386-.135-.125-.156-.835-.355-.292-.083-.667-.156-1.022-.083-1.023.22-1.148.616-1.472.845l-.062.063c-.063.136-.418.616-.543.689l-.094.114c-.032.136-.606.908-.741.971l-.094.136c-.032.114-.219.355-.324.417l-.094.115c.032.063.032.042-.031.063l-.094.114-.48.637-.094.115-.156.219-.094.115-.063.083-.125.136c-.031.115-.188.355-.292.417l-.126.136-.323.417-.094.115c-.031.115-.219.355-.324.418l-.062.083-.355.47-.094.135c-.031.084-.929 1.263-1.023 1.326l-.125.135c-.031.157-.188.314-.292.439l-.094.156a5.893 5.893 0 0 0-.157.49c-.219.637-.125 1.128-.125 1.817 0 .814-.062 6.042.032 6.439.093.553.219.887.26.991l.094.136.063.114.094.136.511.47.125.083c.261.084.387.199.7.261 1.409.261 1.795-.396 2.139-.511l.094-.115c.449-.511.699-.929.699-1.597 0-.866-.031-6.345 0-6.752l.063-.042.125-.135c-.031-.042-.031-.042 0-.042l.094-.115.323-.438.126-.115.48-.637.094-.114c-.032-.063-.032-.042.031-.042l.063-.083.062-.094.094-.115c.031-.115.386-.574.48-.637l.094-.136c.031-.083.219-.354.324-.417l.094-.115c.062-.177.219-.313.323-.417l.125-.136.293-.417.125-.136c.031-.136.699-.97.866-1.127l.094-.136.062-.062.094-.136c.032-.115.22-.355.324-.417l.094-.136.323-.418.094-.114.324-.47.094-.136c.062-.417.448-.866.156-1.722l.021.01zM68.323 43.708c-.72 4.185-3.235 8.067-6.846 10.332a14.082 14.082 0 0 1-3.59 1.617c-3.193.919-6.668.679-9.966.679-.803 0-1.795.114-2.494-.178-2.244-.908-2.432-3.736-.772-4.999.74-.573 1.22-.615 2.045-.615 3.36 0 7.076.48 10.27-.793 3.14-1.253 5.447-4.373 5.718-7.744.303-3.684-1.847-7.378-5.145-9.027-.803-.396-1.315-.553-2.15-.751-.26-.063-.49-.084-.74-.136 2.254-2.358 4.142-4.33 4.58-4.8 0 .136.324.198.45.26.156.084.354.178.51.24 5.01 2.16 8.266 8.015 8.308 13.327.01.866-.063 1.722-.21 2.578l.032.01zM147.938 5.124c.877-.897 2.88-2.995 4.905-5.124v.01c-.031.167-3.746 3.945-4.905 5.124v-.01zM55.425 22.826c-.93 1.002-3.058 3.246-5.156 5.458v-.115c0-.615-.01-1.346-.094-1.91-.48-2.974-2.494-5.624-5.238-6.877-2.516-1.148-5.552-1.075-8.005.188-3.036 1.566-4.529 4.467-4.978 7.723-.062.459.063 1.085.032 1.544 0 .752-.292 1.013-.324 1.305l-.094.135-.188.293-.093.114-.23.22-.156.156c-.512.178-1.086.97-2.88.418-.324-.084-.575-.334-.804-.418l-.157-.156-.23-.22-.093-.114-.126-.157-.094-.136c-.323-1.565-2.577-2.65-3.997-2.682-1.492-.041-2.984.741-3.809 1.994-.897 1.367-1.043 3.548.032 4.873l.094.136c0 .157 0 .083.062.198.511 1.044.324 2.212-.386 3.162-.094.136-.188.198-.292.334l-.094.063c-.157.083-.261.198-.449.292-.188.114-.292.135-.48.219-.74.292-1.67.177-2.369-.198-.386-.178-.74-.24-1.117-.376-.48-.157-.573-.084-.897-.136-.511-.02-.417-.041-1.054-.041-3.12 0-5.949 2.963-5.949 6.063 0 .125 0 .282.01.449 0 .636-.051 1.471.293 2.379v.01C4.946 45.868 2.63 44.908.01 45.002v-1.336c0-.156.032-.219.032-.417 0-.553.188-1.378.323-1.92.324-1.106.386-1.17.741-2.014.804-1.837 2.13-3.423 3.736-4.613 1.273-.95 3.34-2.202 4.999-2.202.26 0 .511-.062.803-.114l.867-.094.605-.063c-.031-.271-.031-.668.062-.887.094-.021 0-.22.063-.532.584-3.12 2.046-5.865 4.832-7.566a10.38 10.38 0 0 1 5.374-1.493c1.68 0 2.975.564 4.52 1.096.156-.313.291-.793.323-.929.094-.177.094-.135.125-.334 2.598-5.301 7.962-8.954 13.973-8.85 5.667.105 11.104 3.674 13.431 8.85.063.22.157.355.22.574.062.157.156.418.229.553l.063.115h.094z" fill="#FFFFFF"/><path fill-rule="evenodd" clip-rule="evenodd" d="M69.982 11.482a3.44 3.44 0 0 1-.574 1.159c-.866 1.168-1.773 2.348-2.744 3.433l-.094.115c-.323.271-.188.49.094 1.284l1.148 3.34c.188.75.898 2.472 1.148 3.318.324.928.668 1.148.031 1.993-.094.115-.355.396-.386.511l-.156.157c-.094.063-.22.177-.324.219-.386 0-.292-.084-.543-.26l-.125-.116c-.375-.939-1.252-1.826-1.847-2.65a62.188 62.188 0 0 1-2.358-3.455c-.293.199-.512.585-.731.856-.25.303-.511.605-.762.908-.24.292-.49.574-.74.856-.095.104-.272.25-.293.386-.02.136.063.313.094.438.063.271 0 .292.094.574-.125.042-.063.063-.094.292 0 .042-.031.199-.031.261a3.412 3.412 0 0 0-.157.533l-.125.219c-.063.083-.188.26-.261.396l-.063.084c-.125.083-.448.375-.48.511l-.448.47c-.042.041-.074.083-.115.114-7.525 8.036-15.122 16.594-24.4 22.667-6.25 4.09-13.566 6.909-21.028 6.616-2.389-.094-4.8-.511-6.97-1.513-2.745-1.263-4.728-3.34-5.907-6.095a11.97 11.97 0 0 1-.449-1.346l-.323-1.502c0-.334-.032-.554-.063-.867v-.521c2.609-.094 4.936.991 6.095 2.17v.01c.25.648.699 1.326 1.502 1.994.01.01.032.02.042.042h.01c.042.041.094.073.136.104.585.449 1.273.741 1.973.97 1.596.512 3.287.72 4.967.752.219 0 .438.01.657 0 5.688-.052 10.708-2.223 15.372-5.322.543-.366 1.086-.73 1.618-1.096 6.73-4.686 12.283-10.457 17.866-16.3a492.663 492.663 0 0 1 5.218-5.406c.386-.324.668-.69 1.137-.909.522-.24 1.107-.302 1.68-.302.188 0 .157.042.355.02l.032-.062.094-.136c.146-.073.281-.281.375-.407.147-.198.303-.386.46-.573.292-.366.594-.731.897-1.096a15.7 15.7 0 0 0 .397-.47c.135-.156.167-.188-.01-.292-.168-.105-.397-.261-.596-.292l-.23-.136c-.291-.156-1.408-.772-1.627-.814l-.23-.136-.188-.135c-.062-.042-.156-.063-.23-.115-.291-.136-1.22-.668-1.377-.689l-.23-.136-.187-.062-.23-.136c-.323-.219-1.085-.553-1.409-.616l-.156-.135c-.032-.22-.094-.157-.032-.397.094-.355.48-1.085.512-1.127l.094-.115.031-.041.125-.115c.261-.021 0-.063.574-.063l5.855.97c.74.084 2.556.47 3.005.47l.157-.271.093-.136c.606-.824 1.19-1.659 1.848-2.452.605-.73 1.325-1.618 2.306-1.816.376-.073.814.02 1.054.324a.855.855 0 0 1 .167.47c.02.208-.01.438-.073.646l.083-.02z" fill="#FFFFFF"/></svg>