<svg width="194" height="57" viewBox="0 0 194 57" fill="none" xmlns="http://www.w3.org/2000/svg">
<path fill-rule="evenodd" clip-rule="evenodd" d="M168.493 31.592C168.233 31.6755 164.684 31.6129 164.079 31.6129C164.079 31.3207 164.716 29.6405 164.914 29.0248C164.945 28.8891 165.008 28.7848 165.039 28.6491C165.102 28.4925 165.102 28.3882 165.164 28.2317C165.352 27.7412 165.77 26.3118 166.031 25.6856L166.323 24.8716C166.417 24.736 166.323 24.809 166.448 24.736C166.511 24.8194 166.667 25.4247 166.74 25.5813L167.252 27.3237C167.314 27.4594 167.314 27.5846 167.377 27.7412C167.408 27.8768 167.471 28.0021 167.502 28.1377L168.17 30.3501C168.264 30.611 168.556 31.4146 168.493 31.592ZM173.774 33.0531C173.68 32.5834 172.688 29.9745 172.427 29.2022L170.507 23.755C170.351 23.3167 170.059 22.5862 169.965 22.1792C169.902 22.0017 169.808 21.7408 169.704 21.5634C169.516 21.0938 169.13 20.6555 169.067 20.4781L168.942 20.3633L168.817 20.2276L168.754 20.165C168.493 19.9876 168.274 19.7685 167.982 19.6537C167.658 19.5389 167.376 19.3928 167.022 19.3928L166.928 19.351C165.102 19.351 165.331 19.6432 164.851 19.7267L164.726 19.8102C164.601 19.9459 164.403 20.0293 164.277 20.1859C163.829 20.6972 163.609 20.8955 163.255 21.6678L162.806 22.8888C162.618 23.2436 162.514 23.7028 162.357 24.0785L159.8 31.0494C159.769 31.1328 159.706 31.2059 159.675 31.3103L158.329 34.9628C157.974 35.8916 157.4 37.3109 157.692 38.3023C157.703 38.3336 157.724 38.365 157.744 38.4067C157.995 38.9181 158.725 39.8782 159.654 39.8782C160.635 39.8782 161.261 39.2833 161.511 38.9494C161.585 38.8554 161.637 38.7824 161.668 38.7406L161.762 38.605C161.793 38.4276 161.95 38.1667 162.023 37.9684C162.085 37.8536 162.085 37.7492 162.148 37.6136C162.305 37.1753 162.409 36.7682 162.628 36.2465C162.691 36.1108 162.691 36.0273 162.722 35.8916H169.954C170.079 36.2256 170.173 36.5804 170.309 36.9352C170.685 38.0727 170.695 38.3649 171.165 38.9598C171.561 39.4085 172.427 40.0138 173.367 39.8782C173.429 39.8677 173.492 39.8573 173.575 39.8364C173.607 39.826 173.628 39.826 173.659 39.8155C173.868 39.7529 174.129 39.6486 174.442 39.419C174.796 39.179 174.984 38.8241 175.141 38.3963C175.558 37.3318 174.755 35.8708 174.473 34.9211L173.805 33.0426L173.774 33.0531Z" fill="#458AB6"/>
<path fill-rule="evenodd" clip-rule="evenodd" d="M92.0301 29.9849L91.9361 29.8701C91.8422 29.7866 91.8735 29.8283 91.8422 29.7344L91.7483 29.6196L91.6857 29.557L91.5291 29.4005L91.2369 29.1396L91.1117 29.0248L91.0178 28.983L90.8926 28.8682C90.8299 28.8474 90.1203 28.3777 90.089 28.336L89.9324 28.2525C89.9324 28.2525 88.2731 27.522 87.6887 27.3446C87.3652 27.2298 85.5493 26.6558 85.3511 26.5515L85.1945 26.4367L85.1006 26.4158C84.9754 26.374 84.7771 26.2801 84.6832 26.1758L84.5266 26.0192L84.4953 25.9983L84.4014 25.8627C84.1405 25.6644 84.0779 25.0695 84.1405 24.7773C84.2657 23.9633 84.7771 23.5355 85.5493 23.3372C85.6433 23.2954 86.092 23.2746 86.1859 23.2746C86.3112 23.2746 86.4468 23.2537 86.5408 23.2746L88.5549 23.7442C88.7114 23.7859 88.9723 23.8799 89.0976 23.9007C90.1829 24.0364 90.5064 24.0155 91.31 23.4833L91.4665 23.3059C91.5291 23.1076 91.6544 22.9511 91.7587 22.638C91.8213 22.3458 91.8527 22.1057 91.79 21.7927C91.7274 21.4587 91.4352 20.8012 91.1221 20.6238C90.9343 20.3629 90.5482 20.2273 90.3812 20.029L90.2246 19.9455C90.1307 19.9246 89.8698 19.8098 89.7446 19.7472C89.4211 19.5907 88.3984 19.3089 88.0435 19.2776L86.6973 19.1941C86.0294 19.0793 84.871 19.3298 84.2031 19.455C83.8483 19.5176 83.4622 19.6742 83.1491 19.8307C81.7715 20.4464 81.8342 20.676 81.3858 20.8952L81.2292 21.0517L81.1353 21.1352L81.0101 21.25L80.7492 21.5631L80.6552 21.6779L80.5926 21.7614L80.4674 21.897C80.4361 22.1162 79.6638 22.9824 79.4447 24.5999C79.3821 25.153 79.3821 25.7896 79.4447 26.3532L79.6325 27.1046C79.6951 27.3028 79.8204 27.595 79.8517 27.7933L79.9456 27.929C80.0395 28.0438 80.0082 27.9499 80.0082 28.0855L80.1021 28.2212L80.1961 28.3777L80.3213 28.5134C80.4152 28.576 80.3839 28.5343 80.4152 28.6491L80.5717 28.8056L80.6344 28.8891L80.7283 28.9517L80.7596 29.0143L80.8848 29.1083C80.8848 29.1291 81.9702 29.8596 82.2624 29.9953C82.7424 30.2145 83.379 30.5067 83.8591 30.6632L84.7253 30.9241C84.9131 31.0076 84.9862 31.0076 85.174 31.0598C85.3305 31.1015 85.4349 31.1746 85.5914 31.2163C85.9463 31.352 86.9377 31.6338 87.1881 31.8842L87.3134 31.9677C87.4073 31.9886 87.4699 32.0303 87.5743 32.1242C87.6056 32.1451 87.6369 32.1869 87.6682 32.2077C87.7621 32.2912 87.6995 32.2286 87.7308 32.2912L87.856 32.406C88.2422 32.7191 88.3048 33.2513 88.3048 33.7105C88.3048 33.9714 88.3048 34.2636 88.2109 34.4828C88.1482 34.6184 87.9917 34.9211 87.856 35.015L87.5638 35.3072C87.2403 35.7246 86.2489 35.9229 85.7689 35.8603C85.0696 35.7455 84.4852 35.6829 83.8486 35.4637C83.2747 35.2655 82.6694 35.0463 82.0537 34.8898C80.8327 34.5767 80.6448 34.9315 80.1021 35.0254L79.9769 35.1089L79.6221 35.4011L79.5282 35.4846L79.4969 35.5472L79.4029 35.6829C79.3403 35.8394 79.309 35.9751 79.2464 36.1003C79.1838 36.2569 79.1838 36.476 79.1212 36.57V36.9039H79.1525C79.1525 37.2796 79.3716 37.4361 79.4134 37.6762L79.5073 37.791C79.8934 38.2084 80.1126 38.4067 80.5926 38.7615L80.7179 38.845C80.8431 38.8659 80.8431 38.8659 80.937 38.9598L81.1562 39.0955C81.6988 39.2102 81.9597 39.5651 84.0991 39.8677C85.1218 40.0034 85.1531 39.9303 86.2072 39.9303C86.4263 39.9095 86.6246 39.8886 86.8438 39.8468C87.0629 39.8051 87.3551 39.7842 87.543 39.732C88.3465 39.5338 89.1397 39.2937 89.8493 38.8659C90.0058 38.7511 90.7781 38.2501 90.8094 38.2501L90.9346 38.1145C90.966 38.0727 91.6756 37.3422 91.7069 37.3213L91.8008 37.2065C91.8321 37.0918 92.3435 36.3925 92.6357 35.662C92.7922 35.2655 93.0218 34.1384 93.0531 33.7105C93.0531 33.0739 93.0218 32.166 92.7922 31.5607C92.4061 30.538 92.0513 30.1623 91.9887 30.0162L92.0301 29.9849Z" fill="#458AB6"/>
<path fill-rule="evenodd" clip-rule="evenodd" d="M110.94 35.4951L110.877 35.4116C110.783 35.349 110.752 35.349 110.721 35.2342L110.627 35.1194C110.533 35.0568 110.502 35.0568 110.502 34.942L110.376 34.8272L109.74 34.0549L109.583 33.8984C109.489 33.8358 109.521 33.8567 109.489 33.7627L109.427 33.6479C109.302 33.5853 109.27 33.5853 109.239 33.4705L109.145 33.3349L108.696 32.8235L108.602 32.7087C108.508 32.6461 108.508 32.667 108.508 32.573L108.383 32.4374C108.258 32.3539 107.517 31.4877 107.486 31.3938L107.392 31.2581L106.432 30.1728L106.369 30.0788L106.275 29.9432L106.119 29.7866L106.056 29.7031L106.087 29.5675L106.661 28.8578L106.786 28.7222C106.818 28.6074 107.621 27.6577 107.747 27.5533L107.872 27.4177L107.966 27.282L108.06 27.1672C108.091 27.0837 108.091 27.1046 108.185 27.0315L108.279 26.9168L108.853 26.228L108.947 26.1132C108.978 25.9984 110.23 24.4956 110.387 24.3599L110.481 24.2452L110.606 24.1095L110.7 23.9947L111.023 23.5981L111.117 23.4833C111.18 23.3059 111.504 23.0868 111.691 22.2623C111.848 21.4901 111.566 21.2396 111.472 20.7595L111.41 20.603C111.316 20.5195 111.222 20.3421 111.117 20.2273C110.575 19.6325 109.615 19.2985 108.811 19.4968C108.623 19.5385 108.456 19.5594 108.3 19.6325C108.174 19.716 108.039 19.789 107.914 19.8516L107.788 19.9351C107.726 20.0499 107.757 20.0186 107.663 20.0499L107.507 20.2064C107.475 20.3212 106.839 21.0726 106.703 21.177L106.578 21.2918L106.484 21.4274L106.39 21.5631L106.296 21.6779L106.171 21.8136C106.139 21.8971 106.171 21.8762 106.077 21.9492L105.952 22.064C105.952 22.1475 105.565 22.638 105.44 22.7006L105.346 22.8154L104.511 23.786L104.418 23.9216L104.094 24.2973L104 24.433L103.906 24.5478L103.75 24.7252L103.656 24.8609L103.562 24.9757C103.53 25.0592 103.53 25.0383 103.437 25.1113L103.343 25.247L103.249 25.3827L103.123 25.4975L103.03 25.6331L102.967 25.7166L102.362 26.4263L102.268 26.5619C102.236 26.6767 101.819 27.1359 101.694 27.2298L101.6 27.3655L101.506 27.5012L101.381 27.616C101.349 27.7308 101.193 27.929 101.088 27.9917L100.963 28.1273C100.932 28.2212 100.963 28.1691 100.869 28.263L100.713 28.4195C100.681 28.5343 100.713 28.503 100.588 28.5552V21.8762C100.588 20.3317 100.4 20.7491 100.233 20.0607L100.107 19.9459L100.076 19.8624L99.9197 19.7059L99.857 19.6432L99.7631 19.5285L99.544 19.3928L99.4187 19.3093C99.2622 19.2884 99.0013 19.111 98.7508 19.0693C98.4273 19.0275 98.2395 19.0275 97.916 19.0275C97.7594 19.0693 97.655 19.0484 97.5298 19.0901C97.4359 19.111 97.3107 19.1736 97.2063 19.2258C97.0811 19.2884 96.7576 19.4867 96.6949 19.4867L96.5697 19.6015C96.4758 19.758 96.3819 19.7998 96.2775 19.9563C96.1836 20.092 96.0897 20.2172 96.0166 20.3738L95.954 20.5512H95.9436C95.9123 20.6138 95.8809 20.6764 95.8601 20.7495L95.7661 21.6678C95.7661 21.72 95.7661 21.7826 95.7661 21.8452C95.7661 21.9078 95.7661 21.9705 95.7661 22.0435C95.7661 22.0435 95.7661 22.0435 95.7661 22.0539C95.7661 22.127 95.7661 22.2001 95.7661 22.2731C95.7661 22.9306 95.7661 23.7968 95.7557 24.506C95.7557 24.5478 95.7557 24.5791 95.7557 24.6208C95.7557 24.6417 95.7557 24.6626 95.7557 24.6835C95.7557 24.7461 95.7557 24.8191 95.7557 24.8817C95.7557 24.9026 95.7557 24.9131 95.7557 24.9339C95.7557 24.9965 95.7557 25.0592 95.7557 25.1113C95.7557 25.1218 95.7557 25.1218 95.7557 25.1322C95.7557 25.1948 95.7557 25.247 95.7557 25.2992C95.7557 25.3096 95.7557 25.3096 95.7557 25.3201C95.7557 25.3722 95.7557 25.4244 95.7557 25.4662V36.6848C95.7557 37.2796 95.787 37.3214 95.787 37.7701C95.8809 37.7493 95.8183 37.8119 95.8496 37.9684C95.9436 38.438 96.361 38.8555 96.5488 39.1164L96.7054 39.252C96.9245 39.3146 97.342 39.7217 97.9577 39.7217C99.2413 39.7008 98.9178 39.5025 99.3979 39.4294L99.5231 39.3146L99.9092 39.0224L100.003 38.8868L100.097 38.772L100.222 38.6363C100.285 38.3441 100.577 38.0206 100.577 37.4153V32.7922C100.577 32.5 100.515 30.9555 100.64 30.7781L100.932 31.1537L101.026 31.2894C101.151 31.352 101.349 31.6025 101.381 31.7068L101.506 31.8216L102.143 32.5939L102.299 32.7504C102.393 32.8131 102.362 32.7922 102.393 32.8861L102.487 33.0009L103.123 33.7732L103.28 33.9297C103.374 34.0132 103.343 33.9714 103.374 34.0654L103.499 34.201L104.397 35.2446L104.491 35.3803L104.939 35.8917L105.002 35.9543C105.096 36.0378 105.388 36.3508 105.419 36.4656L105.513 36.5491L106.119 37.2588L106.244 37.4362L106.338 37.5718L106.463 37.6866L107.131 38.4798L107.256 38.6154L107.767 39.1685L107.861 39.2833C108.498 39.4816 108.248 39.7008 109.521 39.7217C110.293 39.7217 110.742 39.1894 110.992 39.1059L111.18 38.9076L111.399 38.5946L111.493 38.4589C111.524 38.0832 111.911 37.6449 111.681 36.7787C111.42 35.829 111.076 35.7873 110.94 35.4742V35.4951Z" fill="#458AB6"/>
<path fill-rule="evenodd" clip-rule="evenodd" d="M119.205 26.9898C119.33 26.7706 119.424 26.8541 119.716 26.3532C120.551 24.9548 119.779 24.0994 119.685 23.7237L119.56 23.6089L119.174 23.0558L119.08 22.9201C119.017 22.9201 119.017 22.941 119.048 22.8784L118.954 22.7636L118.798 22.5444L118.704 22.4296C118.61 22.3357 118.036 21.6156 118.005 21.5008L117.911 21.3652C117.786 21.2086 117.462 20.8329 117.399 20.6555L117.274 20.5199C117.118 20.3424 116.951 20.1442 116.825 19.9459C116.7 19.7476 116.471 19.5911 116.314 19.4345L116.189 19.3197C116.064 19.3197 115.897 19.2362 115.803 19.1632C115.584 19.0484 115.584 19.0797 115.354 19.0484C114.613 18.9336 114.237 19.0066 113.59 19.3823C113.236 19.5806 113.173 19.758 112.985 19.8937L112.891 20.0085C112.86 20.165 112.735 20.3424 112.672 20.5199C112.453 21.073 112.453 21.8661 112.703 22.3771C112.995 22.972 113.82 23.8799 113.924 24.1303L114.018 24.266C114.081 24.266 114.05 24.266 114.05 24.3078L114.143 24.4434L114.53 24.9757L114.655 25.1113C114.686 25.1113 114.686 25.1113 114.655 25.1531L114.78 25.2887L114.905 25.487L114.999 25.6227C115.093 25.6853 115.667 26.4367 115.698 26.5515L115.792 26.6663L116.147 27.0002L116.272 27.115C116.366 27.1359 116.752 27.355 116.909 27.4072C118.026 27.7829 118.38 27.3655 119.09 27.115L119.215 27.0002L119.205 26.9898Z" fill="#458AB6"/>
<path fill-rule="evenodd" clip-rule="evenodd" d="M128.994 19.6537L128.837 19.5702C128.743 19.5493 128.712 19.5284 128.618 19.5076C128.493 19.4658 128.399 19.4867 128.43 19.4241C128.013 19.4241 127.982 19.2467 127.251 19.4032C127.094 19.4449 126.896 19.4658 126.771 19.5597C126.646 19.6224 126.51 19.7163 126.385 19.7371L126.26 19.8519L126.166 19.9146L125.978 20.092L125.341 20.906L125.247 21.0208L125.185 21.1043L125.091 21.2399L124.736 21.7095L124.611 21.8243C124.579 21.9809 122.91 24.0159 122.722 24.2559L122.597 24.3916L122.534 24.4751L122.44 24.5899L121.929 25.2786L121.803 25.3934L121.449 25.863L121.355 25.9987L121.292 26.0822L121.198 26.2179L121.136 26.2805L121.01 26.4162C120.979 26.4996 120.593 27.011 120.499 27.0841L120.405 27.2197L120.342 27.3032L120.248 27.4389C120.186 27.5224 119.988 27.8146 119.862 27.8772L119.768 28.0128L119.706 28.0963L119.612 28.232C119.581 28.3468 119.351 28.6077 119.257 28.6703L119.132 28.806C119.069 29.2756 119.132 30.4027 119.132 30.9554C119.132 31.6651 119.132 32.3747 119.132 33.1052C119.132 33.2409 119.132 33.387 119.132 33.5227V37.4153C119.142 37.4153 119.153 37.4153 119.153 37.4153C119.153 37.4362 119.153 37.4779 119.163 37.5718L119.288 38.0832C119.382 38.3023 119.508 38.4589 119.581 38.6363L119.675 38.772C119.935 38.9702 120.092 39.2416 120.447 39.3877C121.188 39.7008 121.856 39.7842 122.628 39.4086C122.784 39.3251 122.92 39.252 123.045 39.1685C123.202 39.0537 123.264 38.9494 123.431 38.8554L123.525 38.7198L123.619 38.5632L123.713 38.4276C123.776 38.0519 124.005 37.8536 124.005 37.3214C124.005 36.4343 123.943 30.6215 124.037 30.4441L125.258 28.9413L125.383 28.8056L125.446 28.7221L125.54 28.6074L125.602 28.5239L125.696 28.3882C125.759 28.2317 125.957 28.0334 126.051 27.9186L126.176 27.8038L126.207 27.7203L126.333 27.5846L126.687 27.115L126.781 27.0002L126.844 26.9063L126.938 26.7706L127.001 26.6871L127.126 26.5723L127.314 26.3114L127.408 26.1966L127.47 26.1132L127.564 25.9775C127.595 25.8627 127.982 25.3826 128.075 25.3096L128.201 25.1739C128.232 25.0591 128.618 24.5791 128.712 24.506L128.806 24.3704C128.869 24.2556 129.411 23.5564 129.505 23.4833L129.599 23.3476C129.662 23.2328 129.787 23.0554 129.86 22.9302C130.152 22.4397 130.277 21.8449 130.152 21.2712C129.891 20.3424 129.672 20.2068 129.036 19.6537H128.994Z" fill="#458AB6"/>
<path fill-rule="evenodd" clip-rule="evenodd" d="M156.325 20.0711L156.2 19.9354L156.075 19.8206L155.949 19.7058C155.73 19.6641 155.344 19.351 154.77 19.351C153.841 19.3301 153.716 19.5076 153.455 19.5493L153.33 19.6119V19.6328C153.236 19.7476 153.069 19.8311 152.975 19.9667C152.913 20.0607 152.787 20.2276 152.714 20.3007L152.62 20.4363C152.589 20.6764 152.401 20.9477 152.328 21.1669L151.692 24.5064C151.66 24.7673 151.566 25.0386 151.535 25.3204L151.316 26.5831C151.285 26.7188 151.253 26.8231 151.222 26.9588L151.065 27.825C151.003 28.1381 150.94 28.3572 150.909 28.6703C150.878 28.9103 150.784 29.2652 150.721 29.5156L150.429 31.1746C150.398 31.3103 150.366 31.4668 150.335 31.592C150.272 32.1243 150.178 32.3643 150.116 32.8339C150.084 32.9696 150.084 33.1261 150.022 33.2513L149.928 33.5644V33.5853C149.834 33.4287 149.03 30.1731 148.999 30.027L147.945 25.9987C147.914 25.8422 147.882 25.6856 147.851 25.5604L147.371 23.7654C147.309 23.5045 147.215 23.1706 147.152 22.8784C146.995 22.3044 146.86 21.6887 146.672 21.1043C146.38 20.1963 145.9 19.998 145.774 19.7789L145.712 19.7371L145.649 19.6954C145.461 19.6328 145.357 19.5597 145.169 19.4971C145.107 19.4554 145.013 19.4554 144.908 19.4345C144.783 19.4136 144.647 19.4345 144.72 19.3719C144.303 19.3719 144.021 19.351 143.635 19.4345C143.51 19.4554 143.343 19.4762 143.218 19.5493C143.061 19.6119 142.998 19.6328 142.831 19.7058L142.706 19.7893C142.581 20.0085 142.101 20.1859 141.777 21.1356C141.558 21.8452 141.141 23.4836 140.943 24.2768C140.911 24.4333 140.849 24.569 140.817 24.6942C140.755 25.049 140.661 25.2682 140.598 25.6021C140.567 25.7796 140.504 25.9152 140.473 26.0718L140.254 26.9797C140.191 27.1362 140.191 27.2719 140.16 27.418L139.419 30.1C139.388 30.2148 139.419 30.2566 139.388 30.3609C139.294 30.7158 139.064 31.4045 138.97 31.9054L138.751 32.8134C138.72 32.949 138.657 33.1056 138.626 33.2308C138.595 33.3874 138.626 33.5439 138.438 33.5856L138.146 31.8428C138.021 31.2897 137.927 30.7158 137.822 30.1626L136.862 25.049C136.768 24.5794 136.768 24.5168 136.706 24.2037C136.643 23.9115 136.58 23.6715 136.549 23.3584L136.33 22.0748C136.299 21.9183 136.267 21.8139 136.236 21.6574C135.975 20.3946 135.912 20.7703 135.693 20.1963L135.599 20.0815L135.088 19.6432L134.9 19.5076C134.712 19.4867 134.514 19.4241 134.295 19.3719C134.076 19.3301 133.815 19.351 133.596 19.351C133.502 19.3928 133.022 19.5076 132.928 19.5076L132.667 19.6432L132.479 19.758L132.354 19.8728L132.093 20.1128L131.999 20.2485C131.842 20.6451 131.644 20.8016 131.613 21.3338C131.613 21.8661 131.644 22.2 131.707 22.6801L131.895 23.5671C131.957 24.0576 132.051 24.0576 132.114 24.4333C132.27 25.4039 132.594 26.4475 132.75 27.3763C132.782 27.5745 132.876 27.7519 132.907 27.9502C133.095 28.9416 133.356 29.9226 133.544 30.8932C133.606 31.2062 133.669 31.2897 133.763 31.7802C133.763 31.8637 133.794 31.9576 133.825 32.0411L134.211 33.7839C134.337 34.2535 134.274 34.1179 134.337 34.3788C134.368 34.5562 134.462 34.7753 134.493 34.9736C134.524 35.0884 134.524 35.1719 134.556 35.3076C134.556 35.3702 134.587 35.4641 134.618 35.5476C134.681 35.7667 134.712 35.9233 134.744 36.1424L135.192 37.8226C135.286 38.0835 135.61 38.6158 135.641 38.7932L135.735 38.908L135.798 38.9915L135.923 39.1271L136.048 39.2628L136.142 39.3776C136.205 39.3358 136.205 39.3358 136.205 39.3776L136.33 39.4924C136.549 39.555 136.747 39.6907 136.998 39.7533C137.29 39.8368 137.478 39.8889 137.801 39.8889C138.083 39.8889 138.521 39.8994 138.96 39.8159C139.377 39.722 139.753 39.5237 140.076 39.2628C140.097 39.2419 140.129 39.2106 140.16 39.1897C140.807 38.6366 141.256 37.8018 141.412 36.9669C141.444 36.8103 141.506 36.6538 141.537 36.4973L142.017 34.6188C142.049 34.4205 142.08 34.3266 142.111 34.1492L142.372 33.1786C142.404 33.0012 142.435 32.8864 142.498 32.709L142.717 31.7593C142.936 30.9871 143.072 30.1626 143.322 29.3904L144.021 26.604C144.021 26.5831 144.052 26.5622 144.052 26.5622L144.146 26.4996L144.178 26.6353L146.223 34.3579C146.254 34.5144 146.254 34.5771 146.317 34.7336C146.38 34.9736 146.411 35.245 146.505 35.485C146.568 35.725 146.599 35.9546 146.693 36.2155C146.755 36.4555 146.818 36.6851 146.881 36.946C146.943 37.3217 147.298 38.3131 147.298 38.3444L147.455 38.5636C147.549 38.6471 147.747 38.9393 147.841 39.0749C148.196 39.4715 148.707 39.722 149.229 39.8368C149.26 39.8368 149.281 39.8472 149.291 39.8472C149.458 39.8785 149.625 39.8994 149.782 39.8994H149.521C149.771 39.9411 150.21 39.962 150.669 39.8994H150.356C150.575 39.8994 150.732 39.8889 150.867 39.8681C151.483 39.7428 152.13 39.4298 152.506 38.741C152.62 38.5114 152.787 38.2401 152.881 37.9792C153.038 37.6035 153.142 37.2069 153.236 36.8312C153.299 36.6329 153.33 36.4138 153.393 36.2155L154.447 32.0516C154.478 31.8533 154.509 31.6341 154.572 31.4358C154.635 31.2375 154.666 31.0393 154.728 30.841C154.76 30.6218 154.822 30.4444 154.885 30.2461L155.751 26.6666C155.782 26.4683 155.845 26.2909 155.908 26.0718C155.939 25.8526 156.002 25.6752 156.064 25.4769C156.221 24.8612 156.638 23.1497 156.732 22.4714C156.795 21.9809 156.857 21.6052 156.763 21.0729C156.638 20.4781 156.44 20.405 156.283 20.1024L156.325 20.0711Z" fill="#458AB6"/>
<path fill-rule="evenodd" clip-rule="evenodd" d="M183.003 26.6816L183.096 26.5459C183.19 26.1911 183.577 25.7319 183.389 24.8657C183.295 24.3752 183.389 24.5526 183.128 24.0726C183.003 23.8534 182.836 23.6969 182.71 23.4777L182.616 23.3942L180.028 20.253L179.934 20.1695C178.4 19.0216 177.534 19.7312 177.117 19.7938L176.991 19.8773L176.898 19.9399L176.772 20.0234C176.71 20.1382 176 20.66 175.875 21.5053C175.718 22.5907 176.23 23.1229 176.324 23.3838L176.417 23.5195L176.772 23.9369L176.835 24.0204L176.898 24.1039L177.054 24.2604L177.117 24.3439L177.211 24.4796L177.753 25.1475L177.847 25.231L177.91 25.3145L178.004 25.4293L178.098 25.5649L178.223 25.7006L178.254 25.7632L178.379 25.8989C178.505 25.9824 178.766 26.3372 178.891 26.4937C179.016 26.6503 179.246 26.8903 179.371 27.0677L179.496 27.1825C179.559 27.1616 179.559 27.1407 179.527 27.2034L179.653 27.2869C180.07 27.4225 180.519 27.84 181.573 27.5999C182.272 27.4434 182.533 27.1094 182.982 26.6711L183.003 26.6816Z" fill="#458AB6"/>
<path fill-rule="evenodd" clip-rule="evenodd" d="M192.958 21.3279C192.698 20.4409 192.51 20.5139 192.186 20.0652L192.092 19.9713C191.706 19.8356 191.967 19.8147 191.257 19.6164C190.965 19.533 190.59 19.4599 190.235 19.533C189.212 19.7521 189.087 20.1487 188.763 20.3783L188.701 20.4409C188.638 20.5766 188.283 21.0566 188.158 21.1297L188.064 21.2445C188.032 21.3801 187.458 22.1524 187.323 22.215L187.229 22.3507C187.197 22.4655 187.01 22.7055 186.905 22.7681L186.811 22.8829C186.843 22.9455 186.843 22.9246 186.78 22.9455L186.686 23.0603L186.206 23.6969L186.112 23.8117L185.956 24.0309L185.862 24.1456L185.799 24.2291L185.674 24.3648C185.643 24.4796 185.486 24.7196 185.382 24.7822L185.256 24.9179L184.933 25.3353L184.839 25.4501C184.808 25.5649 184.62 25.805 184.515 25.8676L184.453 25.9511L184.098 26.4207L184.004 26.5563C183.973 26.6398 183.075 27.8191 182.981 27.8817L182.856 28.0174C182.825 28.1739 182.668 28.3305 182.564 28.4557L182.47 28.6122C182.439 28.6957 182.345 28.9671 182.313 29.1027C182.094 29.7393 182.188 30.2298 182.188 30.9186C182.188 31.7326 182.126 36.961 182.22 37.3575C182.313 37.9107 182.439 38.2446 182.48 38.349L182.574 38.4846L182.637 38.5994L182.731 38.7351L183.242 39.2047L183.367 39.2882C183.628 39.3717 183.754 39.4865 184.067 39.5491C185.476 39.81 185.862 39.1525 186.206 39.0377L186.3 38.9229C186.749 38.4116 186.999 37.9941 186.999 37.3262C186.999 36.4601 186.968 30.9812 186.999 30.5742L187.062 30.5324L187.187 30.3968C187.156 30.355 187.156 30.355 187.187 30.355L187.281 30.2402L187.604 29.8019L187.73 29.6871L188.21 29.0505L188.304 28.9357C188.272 28.8731 188.272 28.894 188.335 28.894L188.398 28.8105L188.46 28.7166L188.554 28.6018C188.585 28.487 188.94 28.0278 189.034 27.9652L189.128 27.8295C189.159 27.746 189.347 27.4747 189.452 27.4121L189.546 27.2973C189.608 27.1199 189.765 26.9842 189.869 26.8799L189.994 26.7442L190.287 26.3268L190.412 26.1911C190.443 26.0554 191.111 25.2206 191.278 25.064L191.372 24.9283L191.434 24.8657L191.528 24.7301C191.56 24.6153 191.748 24.3752 191.852 24.3126L191.946 24.177L192.269 23.7595L192.363 23.6447L192.687 23.1751L192.781 23.0394C192.843 22.622 193.229 22.1733 192.937 21.3175L192.958 21.3279Z" fill="#458AB6"/>
<path fill-rule="evenodd" clip-rule="evenodd" d="M68.3231 43.7082C67.603 47.893 65.0883 51.7752 61.4774 54.0398C60.3608 54.739 59.1606 55.2921 57.8875 55.6573C54.6941 56.5757 51.2189 56.3357 47.9211 56.3357C47.1176 56.3357 46.1262 56.4505 45.427 56.1582C43.1832 55.2503 42.9954 52.4222 44.6547 51.1594C45.3956 50.5855 45.8757 50.5437 46.7001 50.5437C50.0605 50.5437 53.7757 51.0238 56.9691 49.7506C60.1103 48.4983 62.4167 45.3779 62.688 42.0071C62.9906 38.3232 60.8408 34.6289 57.5431 32.9804C56.7395 32.5838 56.2282 32.4273 55.3933 32.229C55.1324 32.1664 54.9028 32.1455 54.6523 32.0933C56.9065 29.7348 58.7954 27.7624 59.2337 27.2928C59.2337 27.4285 59.5572 27.4911 59.6824 27.5537C59.839 27.6372 60.0373 27.7311 60.1938 27.7937C65.2031 29.9539 68.4587 35.8082 68.5005 41.1201C68.5109 41.9862 68.4379 42.842 68.2918 43.6977L68.3231 43.7082Z" fill="#458AB6"/>
<path fill-rule="evenodd" clip-rule="evenodd" d="M147.938 5.12405C148.815 4.22656 150.818 2.12893 152.843 0V0.0104355C152.812 0.177411 149.097 3.95522 147.938 5.13448V5.12405Z" fill="#458AB6"/>
<path fill-rule="evenodd" clip-rule="evenodd" d="M55.4246 22.8262C54.4958 23.828 52.3669 26.0718 50.2692 28.2842V28.1694C50.2692 27.5537 50.2588 26.8232 50.1753 26.2596C49.6953 23.2854 47.6811 20.6346 44.9365 19.3823C42.4214 18.2344 39.3849 18.3074 36.9324 19.5702C33.8956 21.1356 32.4033 24.0368 31.9545 27.2928C31.8919 27.752 32.0171 28.3781 31.9858 28.8373C31.9858 29.5887 31.6936 29.8496 31.6623 30.1418L31.5684 30.2774L31.3805 30.5697L31.2866 30.6845L31.057 30.9036L30.9005 31.0601C30.3891 31.2376 29.8151 32.0307 28.0202 31.4776C27.6966 31.3941 27.4462 31.1436 27.2166 31.0601L27.06 30.9036L26.8305 30.6845L26.7365 30.5697L26.6113 30.4131L26.5174 30.2774C26.1939 28.7121 23.9397 27.6267 22.5204 27.5954C21.0281 27.5537 19.5357 28.3364 18.7113 29.5887C17.8138 30.9558 17.6677 33.1369 18.7426 34.4623L18.8365 34.5979C18.8365 34.7545 18.8365 34.6814 18.8991 34.7962C19.4105 35.8398 19.2227 37.0083 18.513 37.958C18.4191 38.0936 18.3252 38.1562 18.2208 38.2919L18.1269 38.3545C17.9703 38.438 17.866 38.5528 17.6781 38.6467C17.4903 38.7615 17.3859 38.7824 17.1981 38.8659C16.4571 39.1581 15.5283 39.0433 14.8291 38.6676C14.443 38.4902 14.0882 38.4276 13.7125 38.2919C13.2324 38.1354 13.1385 38.2084 12.815 38.1562C12.3036 38.1354 12.3976 38.1145 11.761 38.1145C8.64061 38.1145 5.81247 41.0783 5.81247 44.1778C5.81247 44.303 5.81247 44.4595 5.82291 44.6265C5.82291 45.2631 5.77073 46.098 6.11511 47.0059V47.0163C4.94629 45.8684 2.62986 44.9083 0.010437 45.0022V43.6664C0.010437 43.5099 0.0417449 43.4473 0.0417449 43.249C0.0417449 42.6959 0.229592 41.8714 0.365259 41.3288C0.688773 40.2226 0.751389 40.1599 1.10621 39.3146C1.90978 37.4782 3.23514 35.892 4.84228 34.7023C6.11546 33.7526 8.18143 32.5003 9.84075 32.5003C10.1016 32.5003 10.3521 32.4377 10.6443 32.3855L11.5105 32.2916L12.1158 32.229C12.0845 31.9576 12.0845 31.5611 12.1784 31.3419C12.2723 31.321 12.1784 31.1228 12.241 30.8097C12.8254 27.6893 14.2865 24.9447 17.0729 23.2436C18.68 22.2626 20.5689 21.7513 22.4474 21.7513C24.1275 21.7513 25.4216 22.3148 26.9661 22.8471C27.1227 22.534 27.2583 22.0539 27.2896 21.9183C27.3836 21.7408 27.3836 21.7826 27.4149 21.5843C30.0134 16.2829 35.3775 12.6303 41.3882 12.7346C47.055 12.839 52.4921 16.4081 54.8193 21.5843C54.8819 21.8035 54.9758 21.9391 55.0385 22.1583C55.1011 22.3148 55.195 22.5757 55.268 22.7114L55.3307 22.8262H55.4246Z" fill="#458AB6"/>
<path fill-rule="evenodd" clip-rule="evenodd" d="M69.9824 11.4823C69.8676 11.8998 69.6693 12.2963 69.4084 12.6407C68.5422 13.8095 67.6346 14.9888 66.6641 16.0741L66.5702 16.1889C66.2467 16.4603 66.3823 16.6794 66.6641 17.4726L67.812 20.8121C67.9999 21.5634 68.7095 23.2854 68.96 24.1307C69.2835 25.0595 69.6279 25.2786 68.9913 26.124C68.8974 26.2387 68.6365 26.5205 68.6052 26.6353L68.4486 26.7919C68.3547 26.8545 68.2295 26.9693 68.1251 27.011C67.739 27.011 67.8329 26.9275 67.5825 26.7501L67.4572 26.6353C67.0815 25.6961 66.2049 24.809 65.6101 23.9846C64.9213 23.0349 64.243 22.0748 63.6064 21.0834C63.5855 21.0521 63.2515 20.5303 63.2515 20.5303C62.9593 20.7286 62.7402 21.1147 62.521 21.386C62.2706 21.6887 62.0097 21.9913 61.7592 22.294C61.5192 22.5862 61.2687 22.8679 61.0182 23.1497C60.9243 23.2541 60.7469 23.4002 60.726 23.5358C60.7052 23.6715 60.7887 23.8489 60.82 23.9741C60.8826 24.2455 60.82 24.2664 60.9139 24.5481C60.7887 24.5899 60.8513 24.6107 60.82 24.8403C60.82 24.8821 60.7887 25.0386 60.7887 25.1012C60.726 25.2578 60.6634 25.4769 60.6321 25.6335L60.5069 25.8526C60.4443 25.9361 60.319 26.1135 60.246 26.2492L60.1834 26.3327C60.0581 26.4162 59.7346 26.7084 59.7033 26.844L59.2546 27.3137C59.2128 27.3554 59.1815 27.3971 59.1398 27.4284C51.6155 35.4641 44.0181 44.0216 34.7409 50.095C28.4898 54.1858 21.1742 57.0036 13.7125 56.7113C11.323 56.6174 8.91229 56.2 6.74162 55.1981C3.99697 53.9354 2.01414 51.8586 0.834875 49.1035C0.647028 48.6339 0.511361 48.2165 0.38613 47.7573L0.0626156 46.2545C0.0626156 45.9206 0.0313078 45.7014 0 45.3884V44.8666C2.60899 44.7726 4.9362 45.858 6.09459 47.0372V47.0477C6.34505 47.6947 6.7938 48.373 7.59736 49.0409C7.6078 49.0514 7.62867 49.0618 7.63911 49.0827C7.63911 49.0827 7.63911 49.0827 7.64954 49.0827C7.69129 49.1244 7.74347 49.1557 7.78521 49.187C8.36963 49.6358 9.0584 49.928 9.7576 50.1576C11.3543 50.6689 13.0446 50.8777 14.7248 50.909C14.9439 50.909 15.1631 50.9194 15.3822 50.909C21.0698 50.8568 26.0895 48.6861 30.7544 45.5866C31.297 45.2214 31.8397 44.8561 32.3719 44.4909C39.1028 39.8051 44.6547 34.0344 50.2379 28.1903C51.939 26.4057 53.6505 24.6212 55.3933 22.8471C55.4037 22.8366 55.4559 22.7845 55.4559 22.7845C55.842 22.4609 56.1238 22.0957 56.5934 21.8765C57.1152 21.6365 57.6996 21.5739 58.2736 21.5739C58.4614 21.5739 58.4301 21.6156 58.6284 21.5948L58.6597 21.5321L58.7537 21.3965C58.8998 21.3234 59.0354 21.1147 59.1293 20.9895C59.2755 20.7912 59.432 20.6033 59.5885 20.4155C59.8807 20.0502 60.1834 19.685 60.486 19.3197C60.6217 19.1632 60.7574 19.0066 60.8826 18.8501C61.0183 18.6936 61.0496 18.6623 60.8722 18.5579C60.7052 18.4535 60.4756 18.297 60.2773 18.2657L60.0477 18.13C59.7555 17.9735 58.6389 17.3578 58.4197 17.316L58.1901 17.1804L58.0023 17.0447C57.9396 17.0029 57.8457 16.9821 57.7727 16.9299C57.4805 16.7942 56.5517 16.262 56.3951 16.2411L56.1655 16.1054L55.9777 16.0428L55.7481 15.9072C55.4246 15.688 54.6628 15.3541 54.3392 15.2914L54.1827 15.1558C54.1514 14.9366 54.0888 14.9992 54.1514 14.7592C54.2453 14.4044 54.6315 13.6739 54.6628 13.6321L54.7567 13.5173L54.788 13.4756L54.9132 13.3608C55.1741 13.3399 54.9132 13.2982 55.4872 13.2982L61.3418 14.2687C62.0827 14.3522 63.8982 14.7383 64.347 14.7383L64.5035 14.467L64.5974 14.3313C65.2027 13.5069 65.7871 12.672 66.4446 11.8789C67.0499 11.1484 67.77 10.2613 68.7509 10.063C69.1266 9.98999 69.5649 10.0839 69.805 10.3866C69.9093 10.5222 69.9615 10.6892 69.9719 10.8562C69.9928 11.0649 69.9615 11.2945 69.8989 11.5032L69.9824 11.4823Z" fill="#458AB6"/>
</svg>
