<svg width="20" height="20" viewBox="0 0 20 20" fill="none" xmlns="http://www.w3.org/2000/svg">
<path d="M16.6945 12.9289C15.6425 11.8398 14.3904 11.0335 13.0242 10.5454C14.4874 9.50199 15.4487 7.75578 15.4487 5.78125C15.4487 2.59348 12.9438 0 9.86484 0C6.7859 0 4.28096 2.59348 4.28096 5.78125C4.28096 7.75578 5.24226 9.50199 6.7055 10.5454C5.33933 11.0335 4.08719 11.8398 3.03519 12.9289C1.21092 14.8177 0.206238 17.3289 0.206238 20H1.71539C1.71539 15.3475 5.37121 11.5625 9.86484 11.5625C14.3585 11.5625 18.0143 15.3475 18.0143 20H19.5234C19.5234 17.3289 18.5188 14.8177 16.6945 12.9289ZM9.86484 10C7.61805 10 5.79012 8.1075 5.79012 5.78125C5.79012 3.455 7.61805 1.5625 9.86484 1.5625C12.1116 1.5625 13.9396 3.455 13.9396 5.78125C13.9396 8.1075 12.1116 10 9.86484 10Z" fill="#C7C7C7"/>
</svg>
