<svg width="20" height="33" viewBox="0 0 20 33" fill="none" xmlns="http://www.w3.org/2000/svg">
<path d="M8.21313 22.778C5.70617 22.5165 3.44577 21.8991 1.5105 20.3855C1.27037 20.1972 1.02246 20.0157 0.803324 19.8053C-0.0437337 18.9918 -0.129083 18.0601 0.54118 17.0999C1.11458 16.2782 2.07713 16.0584 3.07761 16.5302C3.27134 16.6217 3.45593 16.7358 3.63272 16.8584C7.23941 19.3366 12.1941 19.405 15.8143 16.9698C16.173 16.6948 16.5564 16.4706 17.0007 16.3561C17.8647 16.1343 18.6705 16.4516 19.1341 17.2076C19.6638 18.0709 19.6571 18.9136 19.0044 19.5838C18.0032 20.6114 16.7992 21.3548 15.4614 21.8737C14.1964 22.3641 12.8108 22.611 11.4395 22.7749C11.6464 23.0002 11.744 23.1109 11.8733 23.241C13.7354 25.1119 15.6057 26.975 17.4617 28.8517C18.094 29.4911 18.2261 30.284 17.8779 31.0277C17.4972 31.8406 16.6451 32.3754 15.8096 32.3181C15.2802 32.2816 14.8673 32.0181 14.5005 31.6486C13.0953 30.2345 11.6637 28.8466 10.2869 27.4058C9.88625 26.9869 9.69354 27.0661 9.33995 27.4299C7.92627 28.8852 6.48955 30.3182 5.04437 31.7431C4.39545 32.3828 3.62324 32.498 2.87067 32.1325C2.07069 31.7447 1.56165 30.9282 1.60093 30.1075C1.62803 29.5524 1.90101 29.1284 2.28203 28.748C4.12483 26.9079 5.96255 25.0631 7.80095 23.22C7.92254 23.0974 8.036 22.9673 8.21313 22.778Z" fill="white"/>
<path d="M9.74033 16.3685C5.26796 16.3532 1.60065 12.6456 1.62673 8.16613C1.65247 3.6372 5.32215 -0.0124993 9.83855 3.21741e-05C14.3641 0.0122249 17.9965 3.71442 17.9738 8.29043C17.9508 12.7608 14.2581 16.384 9.74033 16.3685ZM13.8049 8.17697C13.7971 5.95281 12.0258 4.18215 9.80603 4.18011C7.56765 4.17774 5.78039 5.98058 5.79766 8.22506C5.81426 10.4408 7.60084 12.1989 9.82669 12.1908C12.0458 12.183 13.8124 10.4008 13.8049 8.17697Z" fill="white"/>
</svg>
