<svg width="27" height="26" viewBox="0 0 27 26" fill="none" xmlns="http://www.w3.org/2000/svg">
<g clip-path="url(#clip0)">
<path d="M12.3434 17.8475C10.3791 17.6426 8.608 17.1588 7.09165 15.9729C6.9035 15.8253 6.70924 15.6831 6.53755 15.5183C5.87384 14.8808 5.80697 14.1508 6.33215 13.3985C6.78143 12.7547 7.53562 12.5824 8.31954 12.9521C8.47133 13.0237 8.61596 13.1132 8.75449 13.2092C11.5805 15.151 15.4626 15.2046 18.2992 13.2965C18.5803 13.0811 18.8807 12.9054 19.2288 12.8157C19.9058 12.6419 20.5371 12.8905 20.9004 13.4828C21.3155 14.1593 21.3102 14.8195 20.7988 15.3447C20.0143 16.1499 19.0709 16.7324 18.0227 17.1389C17.0315 17.5232 15.9459 17.7166 14.8714 17.8451C15.0335 18.0215 15.11 18.1083 15.2113 18.2102C16.6704 19.6762 18.1358 21.136 19.59 22.6064C20.0855 23.1075 20.189 23.7287 19.9162 24.3115C19.6179 24.9484 18.9502 25.3674 18.2955 25.3225C17.8807 25.2939 17.5572 25.0874 17.2698 24.7979C16.1688 23.69 15.0471 22.6024 13.9683 21.4735C13.6544 21.1453 13.5034 21.2074 13.2263 21.4924C12.1186 22.6327 10.9929 23.7555 9.86057 24.8719C9.35211 25.3732 8.74706 25.4635 8.15739 25.1771C7.53058 24.8733 7.13172 24.2334 7.1625 23.5904C7.18373 23.1555 7.39763 22.8232 7.69617 22.5252C9.14008 21.0834 10.58 19.6379 12.0205 18.1938C12.1157 18.0977 12.2046 17.9958 12.3434 17.8475Z" fill="#C5C5C5"/>
<path d="M13.54 12.8253C10.0358 12.8133 7.16228 9.90829 7.18271 6.39845C7.20288 2.84985 10.0782 -0.00982417 13.617 -5.30795e-06C17.1629 0.00954818 20.0091 2.91036 19.9913 6.49584C19.9732 9.99852 17.0799 12.8375 13.54 12.8253ZM16.7248 6.40694C16.7187 4.66422 15.3308 3.27684 13.5915 3.27525C11.8377 3.27339 10.4373 4.68598 10.4508 6.44462C10.4638 8.1807 11.8637 9.55826 13.6077 9.55189C15.3464 9.54579 16.7306 8.14939 16.7248 6.40694Z" fill="#C5C5C5"/>
</g>
<defs>
<clipPath id="clip0">
<rect width="25.3383" height="25.3383" fill="white" transform="translate(0.921432)"/>
</clipPath>
</defs>
</svg>
