<svg width="22" height="22" viewBox="0 0 22 22" fill="none" xmlns="http://www.w3.org/2000/svg">
<path d="M21.0669 16.2264L18.4254 13.4915C17.6971 12.7375 16.5121 12.7375 15.7838 13.4915L14.5831 14.7346C14.0314 15.3059 13.1336 15.3057 12.5821 14.7349L7.37779 9.34197C6.82477 8.76941 6.82469 7.84271 7.37779 7.27006C7.57119 7.06983 8.12652 6.49486 8.57848 6.02693C9.30356 5.27627 9.31368 4.05316 8.57777 3.29132L5.93692 0.565727C5.20865 -0.188246 4.02364 -0.188246 3.29732 0.563751C2.75381 1.12157 2.57851 1.30152 2.33481 1.55165C-0.291432 4.27067 -0.291432 8.69486 2.33468 11.4138L10.5808 19.9558C13.2132 22.6813 17.4737 22.6815 20.1063 19.9558L21.0669 18.9613C21.7952 18.2073 21.7952 16.9805 21.0669 16.2264ZM4.17592 1.47735C4.41866 1.22603 4.81359 1.22599 5.05713 1.47804L7.69797 4.20364C7.9413 4.45556 7.9413 4.86329 7.69797 5.11526L7.25768 5.57108L3.7379 1.92689L4.17592 1.47735ZM11.4614 19.0443L3.21531 10.5022C1.18346 8.39855 1.07178 5.09533 2.87184 2.85351L6.38141 6.48713C5.45924 7.56947 5.49767 9.21874 6.49707 10.2535L11.7012 15.6461C11.7013 15.6461 11.7014 15.6462 11.7014 15.6463C12.6997 16.6799 14.2926 16.7223 15.3393 15.7662L18.849 19.3999C16.6906 21.2604 13.5073 21.1625 11.4614 19.0443ZM20.1865 18.0497L19.7462 18.5055L16.2241 14.859L16.6643 14.4031C16.9071 14.1518 17.3021 14.1518 17.5449 14.4031L20.1864 17.1381C20.4292 17.3894 20.4292 17.7984 20.1865 18.0497Z" fill="#C7C7C7"/>
</svg>
