<svg width="35" height="35" viewBox="0 0 35 35" fill="none" xmlns="http://www.w3.org/2000/svg">
<g clip-path="url(#clip0)">
<path d="M28.1759 33.1533C27.9025 33.1533 27.6309 33.0724 27.398 32.9144L18.5976 26.9449L13.8776 30.3412C13.5074 30.6074 13.0303 30.6745 12.6004 30.5208C12.1711 30.3667 11.8451 30.0111 11.7287 29.5702L9.35871 20.5886L0.890459 17.3506C0.357349 17.1467 0.00378935 16.6366 -8.98348e-05 16.0658C-0.00396902 15.495 0.342571 14.9802 0.873095 14.7691L33.0725 1.95671C33.2186 1.89464 33.3732 1.8588 33.5291 1.8492C33.5849 1.84587 33.6409 1.84587 33.6965 1.84901C34.0194 1.86822 34.3366 1.99975 34.5841 2.24247C34.6098 2.26759 34.6342 2.29327 34.6572 2.32006C34.8623 2.55428 34.975 2.83987 34.9962 3.1308C35.0014 3.20395 35.001 3.27803 34.9946 3.3521C34.9901 3.40493 34.9825 3.45758 34.9718 3.50986L29.5367 32.0272C29.4494 32.4853 29.1375 32.8688 28.7068 33.0474C28.5359 33.1184 28.3554 33.1533 28.1759 33.1533ZM19.3703 24.1209L27.2094 29.4381L31.4384 7.24846L16.1643 21.9461L19.3334 24.0959C19.3461 24.1039 19.3583 24.1124 19.3703 24.1209ZM12.8446 22.9385L13.8942 26.9155L16.1556 25.2883L13.1945 23.2796C13.0569 23.1865 12.939 23.0705 12.8446 22.9385ZM5.19727 16.0306L11.012 18.2537C11.4285 18.4129 11.7429 18.7632 11.8567 19.1943L12.5941 21.989C12.6279 21.6666 12.7741 21.3633 13.0114 21.1348L27.5656 7.13024L5.19727 16.0306Z" fill="#458AB6"/>
</g>
<defs>
<clipPath id="clip0">
<rect width="35" height="35" fill="white"/>
</clipPath>
</defs>
</svg>
