<svg width="27" height="27" viewBox="0 0 27 27" fill="none" xmlns="http://www.w3.org/2000/svg">
<path d="M25.0747 19.322C24.944 19.2222 24.8089 19.1189 24.6824 19.017C24.0113 18.4769 23.2973 17.9791 22.6067 17.4976C22.4634 17.3978 22.3201 17.2979 22.1774 17.1977C21.2928 16.5764 20.4976 16.2745 19.7463 16.2745C18.7344 16.2745 17.8521 16.8336 17.124 17.9361C16.8014 18.4249 16.41 18.6626 15.9276 18.6626C15.6424 18.6626 15.3183 18.5812 14.9645 18.4206C12.1094 17.1259 10.0707 15.1408 8.90492 12.5206C8.34135 11.2541 8.52405 10.4263 9.51588 9.75256C10.0791 9.3703 11.1274 8.65865 11.0532 7.29587C10.9691 5.7483 7.55449 1.09187 6.11579 0.563001C5.50666 0.339001 4.86666 0.336914 4.21014 0.557783C2.55622 1.11378 1.36935 2.09022 0.777529 3.38135C0.205616 4.62891 0.231442 6.09378 0.852224 7.61761C2.64683 12.0233 5.16996 15.8646 8.35179 19.0344C11.4662 22.1373 15.2941 24.6791 19.7291 26.5887C20.1288 26.7607 20.5481 26.8546 20.8543 26.923C20.9587 26.9465 21.0487 26.9665 21.1144 26.9845C21.1505 26.9943 21.1877 26.9996 21.225 26.9999L21.26 27.0001C21.2601 27.0001 21.26 27.0001 21.2602 27.0001C23.3461 27.0001 25.8507 25.094 26.62 22.921C27.2939 21.0182 26.0634 20.0777 25.0747 19.322Z" fill="#458AB6"/>
</svg>
