<svg width="23" height="23" viewBox="0 0 23 23" fill="none" xmlns="http://www.w3.org/2000/svg">
<g clip-path="url(#clip0)">
<path d="M22.3235 16.5547C22.2963 16.4961 22.271 16.4475 22.2474 16.4086C21.8581 15.7073 21.114 14.8465 20.0156 13.826L19.9924 13.8027L19.9808 13.7912L19.9691 13.7795H19.9573C19.4588 13.3043 19.1431 12.9847 19.0109 12.8212C18.769 12.5095 18.7149 12.1941 18.847 11.8745C18.9404 11.6331 19.2913 11.1231 19.8987 10.344C20.2182 9.93108 20.4713 9.60015 20.6581 9.35083C22.0059 7.55906 22.5902 6.41409 22.4109 5.91549L22.3413 5.79897C22.2945 5.72882 22.1738 5.66465 21.9793 5.60612C21.7843 5.54772 21.5351 5.53806 21.2312 5.57698L17.8661 5.60023C17.8116 5.58091 17.7337 5.58271 17.6323 5.60612C17.531 5.62953 17.4803 5.64128 17.4803 5.64128L17.4218 5.67054L17.3753 5.70569C17.3363 5.72894 17.2935 5.76983 17.2467 5.82827C17.2002 5.88651 17.1612 5.95486 17.1301 6.03274C16.7638 6.97532 16.3472 7.85168 15.8797 8.66179C15.5915 9.14484 15.3267 9.56348 15.085 9.91795C14.8436 10.2723 14.641 10.5334 14.4776 10.7007C14.3138 10.8682 14.1661 11.0024 14.0334 11.1038C13.9009 11.2052 13.7998 11.2481 13.7298 11.2324C13.6596 11.2167 13.5935 11.2012 13.5309 11.1856C13.4219 11.1155 13.3343 11.0201 13.2682 10.8993C13.2018 10.7786 13.1571 10.6266 13.1337 10.4436C13.1105 10.2604 13.0967 10.1028 13.0928 9.97033C13.0892 9.83802 13.0908 9.65086 13.0987 9.40939C13.1068 9.1678 13.1105 9.00434 13.1105 8.91864C13.1105 8.62258 13.1163 8.30126 13.1278 7.95461C13.1396 7.60797 13.1492 7.33331 13.1571 7.13097C13.1651 6.92842 13.1688 6.71413 13.1688 6.48821C13.1688 6.2623 13.155 6.08513 13.1278 5.95653C13.101 5.82811 13.0598 5.70344 13.0055 5.58259C12.9508 5.46185 12.8709 5.36846 12.7659 5.30216C12.6608 5.23594 12.5301 5.18339 12.3745 5.14435C11.9616 5.05091 11.4358 5.00037 10.7969 4.99251C9.34806 4.97696 8.4171 5.07051 8.00423 5.27306C7.84065 5.35864 7.69261 5.47556 7.56026 5.62347C7.42 5.79491 7.40044 5.88847 7.50169 5.90386C7.96916 5.97389 8.30009 6.1414 8.49486 6.40624L8.56505 6.54657C8.61964 6.64783 8.67416 6.82709 8.72871 7.0841C8.78319 7.34112 8.81834 7.62544 8.83381 7.93689C8.87269 8.50565 8.87269 8.99251 8.83381 9.39752C8.79481 9.8027 8.75798 10.1181 8.72282 10.344C8.68766 10.5699 8.63511 10.753 8.56505 10.8932C8.49486 11.0334 8.44816 11.1191 8.42475 11.1502C8.40138 11.1813 8.3819 11.2009 8.36643 11.2086C8.26518 11.2474 8.15987 11.2672 8.05089 11.2672C7.94173 11.2672 7.80938 11.2126 7.65361 11.1035C7.49788 10.9944 7.33627 10.8445 7.16875 10.6536C7.00124 10.4627 6.81232 10.1959 6.60192 9.85316C6.39168 9.51044 6.17354 9.10539 5.94762 8.63801L5.76071 8.29905C5.64387 8.081 5.48425 7.76349 5.28171 7.34681C5.07904 6.92997 4.8999 6.52677 4.74418 6.13727C4.68193 5.97368 4.58841 5.84914 4.46379 5.76344L4.4053 5.72829C4.36642 5.69718 4.30401 5.66415 4.21839 5.62896C4.13265 5.5938 4.04318 5.56859 3.94963 5.55308L0.747975 5.57633C0.420808 5.57633 0.198822 5.65044 0.0819352 5.79848L0.035156 5.8685C0.0117869 5.9075 0 5.96979 0 6.05554C0 6.14124 0.0233691 6.24642 0.0701483 6.37096C0.537531 7.46943 1.0458 8.52882 1.59495 9.54928C2.14411 10.5697 2.62131 11.3918 3.02628 12.0146C3.43133 12.6379 3.8442 13.2261 4.26488 13.779C4.68557 14.3321 4.96403 14.6866 5.10028 14.8423C5.23669 14.9983 5.34383 15.115 5.42172 15.1929L5.71389 15.4732C5.90085 15.6602 6.17538 15.8842 6.53762 16.1451C6.89995 16.4062 7.30107 16.6632 7.74119 16.9166C8.1814 17.1695 8.69352 17.376 9.27783 17.5356C9.86205 17.6954 10.4307 17.7596 10.9838 17.7286H12.3276C12.6001 17.7051 12.8066 17.6194 12.9469 17.4715L12.9934 17.4129C13.0247 17.3664 13.054 17.2942 13.081 17.197C13.1083 17.0996 13.1219 16.9924 13.1219 16.8757C13.1139 16.5408 13.1394 16.2389 13.1977 15.9702C13.2559 15.7016 13.3223 15.499 13.3966 15.3626C13.4708 15.2263 13.5545 15.1113 13.6477 15.0181C13.7411 14.9247 13.8076 14.8681 13.8467 14.8486C13.8855 14.829 13.9165 14.8157 13.9398 14.8077C14.1268 14.7454 14.3468 14.8057 14.6002 14.989C14.8534 15.172 15.0909 15.3981 15.3131 15.6667C15.5351 15.9356 15.8019 16.2373 16.1134 16.5722C16.4251 16.9072 16.6977 17.1562 16.9313 17.3201L17.1649 17.4603C17.3209 17.5538 17.5235 17.6395 17.7728 17.7174C18.0217 17.7953 18.2397 17.8147 18.427 17.7758L21.4182 17.7292C21.714 17.7292 21.9443 17.6802 22.1076 17.583C22.2712 17.4856 22.3684 17.3783 22.3997 17.2617C22.431 17.1449 22.4327 17.0123 22.4057 16.8642C22.378 16.7164 22.3507 16.6131 22.3235 16.5547Z" fill="#C5C5C5"/>
</g>
<defs>
<clipPath id="clip0">
<rect width="22.4425" height="22.4425" fill="white" transform="translate(0 0.171722)"/>
</clipPath>
</defs>
</svg>
