<svg width="30" height="18" viewBox="0 0 30 18" fill="none" xmlns="http://www.w3.org/2000/svg">
<path d="M29.0049 15.6806C28.9702 15.6058 28.9379 15.5438 28.9078 15.4941C28.4109 14.5991 27.4612 13.5006 26.0595 12.1981L26.0298 12.1683L26.015 12.1537L26 12.1387H25.985C25.3488 11.5322 24.9459 11.1244 24.7772 10.9157C24.4685 10.5179 24.3993 10.1154 24.568 9.7075C24.6872 9.39932 25.135 8.7485 25.9102 7.75414C26.318 7.22716 26.641 6.8048 26.8795 6.4866C28.5996 4.19983 29.3453 2.73856 29.1165 2.1022L29.0277 1.95349C28.968 1.86397 28.8139 1.78207 28.5656 1.70737C28.3168 1.63284 27.9987 1.62051 27.6109 1.67018L23.3161 1.69985C23.2465 1.6752 23.1471 1.67749 23.0177 1.70737C22.8884 1.73725 22.8238 1.75224 22.8238 1.75224L22.749 1.78959L22.6897 1.83446C22.64 1.86412 22.5853 1.9163 22.5256 1.99089C22.4662 2.06522 22.4165 2.15245 22.3768 2.25185C21.9092 3.45483 21.3776 4.5733 20.7809 5.6072C20.4131 6.22371 20.0752 6.758 19.7667 7.21039C19.4585 7.66263 19.2 7.99582 18.9914 8.2094C18.7825 8.42319 18.5939 8.59446 18.4246 8.72385C18.2555 8.85328 18.1264 8.90797 18.0371 8.88796C17.9475 8.86796 17.8631 8.84811 17.7833 8.82826C17.6442 8.73873 17.5323 8.61698 17.4479 8.46289C17.3632 8.3088 17.3062 8.11486 17.2764 7.88122C17.2467 7.64743 17.2291 7.44633 17.2241 7.27725C17.2195 7.10838 17.2216 6.86952 17.2317 6.56134C17.242 6.25301 17.2467 6.04439 17.2467 5.93502C17.2467 5.55716 17.2541 5.14708 17.2688 4.70466C17.2839 4.26225 17.296 3.91171 17.3062 3.65347C17.3164 3.39497 17.3211 3.12148 17.3211 2.83315C17.3211 2.54483 17.3035 2.31871 17.2688 2.15459C17.2346 1.99068 17.182 1.83158 17.1127 1.67734C17.0429 1.52325 16.9409 1.40405 16.8069 1.31944C16.6727 1.23492 16.5059 1.16786 16.3074 1.11803C15.7804 0.998778 15.1094 0.93427 14.294 0.924241C12.4448 0.904392 11.2567 1.0238 10.7298 1.2823C10.521 1.39152 10.3321 1.54075 10.1631 1.72952C9.98414 1.94832 9.95918 2.06773 10.0884 2.08737C10.685 2.17674 11.1074 2.39053 11.3559 2.72853L11.4455 2.90764C11.5152 3.03686 11.5848 3.26564 11.6544 3.59367C11.7239 3.92169 11.7688 4.28455 11.7885 4.68205C11.8382 5.40793 11.8382 6.0293 11.7885 6.5462C11.7388 7.0633 11.6917 7.46586 11.6469 7.75419C11.602 8.04252 11.5349 8.27616 11.4455 8.45505C11.3559 8.63401 11.2963 8.74338 11.2665 8.78308C11.2366 8.82278 11.2118 8.8478 11.192 8.85762C11.0628 8.90713 10.9284 8.93236 10.7893 8.93236C10.65 8.93236 10.4811 8.86268 10.2823 8.72343C10.0835 8.58418 9.87727 8.3929 9.66348 8.14928C9.44969 7.90561 9.20859 7.56511 8.94006 7.12771C8.67173 6.69031 8.39333 6.17336 8.10501 5.57685L7.86646 5.14426C7.71733 4.86596 7.51362 4.46074 7.25512 3.92895C6.99646 3.39696 6.76784 2.88236 6.56909 2.38525C6.48964 2.17648 6.37029 2.01753 6.21124 1.90816L6.1366 1.86329C6.08698 1.82359 6.00732 1.78144 5.89805 1.73652C5.78862 1.69165 5.67444 1.65947 5.55504 1.63968L1.46889 1.66935C1.05134 1.66935 0.768031 1.76394 0.618853 1.95287L0.55915 2.04224C0.529325 2.09202 0.514282 2.17152 0.514282 2.28094C0.514282 2.39032 0.544107 2.52456 0.60381 2.6835C1.20031 4.08544 1.84899 5.4375 2.54986 6.73988C3.25072 8.04226 3.85976 9.09136 4.37661 9.88624C4.89356 10.6817 5.42049 11.4324 5.95739 12.1381C6.49429 12.844 6.84969 13.2964 7.02357 13.4952C7.19766 13.6943 7.33441 13.8432 7.43381 13.9426L7.8067 14.3004C8.0453 14.5391 8.39568 14.8249 8.858 15.1579C9.32042 15.4911 9.83235 15.8191 10.3941 16.1425C10.9559 16.4653 11.6095 16.7288 12.3552 16.9325C13.1008 17.1365 13.8266 17.2184 14.5325 17.1789H16.2475C16.5953 17.1488 16.8589 17.0395 17.038 16.8507L17.0973 16.7759C17.1372 16.7166 17.1746 16.6244 17.209 16.5004C17.2439 16.3761 17.2613 16.2392 17.2613 16.0903C17.2511 15.6629 17.2836 15.2776 17.358 14.9347C17.4323 14.5918 17.517 14.3333 17.6118 14.1592C17.7065 13.9853 17.8134 13.8385 17.9323 13.7195C18.0515 13.6003 18.1364 13.528 18.1863 13.5032C18.2358 13.4782 18.2753 13.4612 18.3051 13.451C18.5437 13.3715 18.8245 13.4485 19.148 13.6823C19.4711 13.916 19.7742 14.2045 20.0578 14.5473C20.3411 14.8905 20.6816 15.2755 21.0792 15.7029C21.477 16.1305 21.8249 16.4483 22.1231 16.6574L22.4212 16.8364C22.6203 16.9558 22.8788 17.0652 23.197 17.1646C23.5147 17.2639 23.793 17.2888 24.0319 17.2391L27.8495 17.1796C28.2271 17.1796 28.5209 17.117 28.7293 16.993C28.9381 16.8687 29.0622 16.7318 29.1022 16.5829C29.1421 16.4338 29.1442 16.2647 29.1098 16.0756C29.0744 15.887 29.0396 15.7551 29.0049 15.6806Z" fill="white"/>
</svg>
