<svg width="30" height="30" viewBox="0 0 30 30" fill="none" xmlns="http://www.w3.org/2000/svg">
<path d="M14.2726 0.0173493C6.34958 0.394596 0.0972496 6.99289 0.121285 14.9248C0.128603 17.3407 0.711836 19.621 1.74069 21.6358L0.161033 29.3036C0.0755819 29.7184 0.449672 30.0816 0.861715 29.984L8.37529 28.2039C10.3056 29.1654 12.4738 29.7208 14.7685 29.7558C22.8666 29.8795 29.6189 23.4495 29.8713 15.3545C30.1419 6.67713 22.9802 -0.397349 14.2726 0.0173493ZM23.2379 23.1167C21.0374 25.3171 18.1118 26.5289 15 26.5289C13.1779 26.5289 11.4334 26.1201 9.8149 25.3139L8.76854 24.7926L4.16194 25.8841L5.1316 21.1769L4.6161 20.1675C3.77587 18.5219 3.34983 16.7425 3.34983 14.8788C3.34983 11.7669 4.56164 8.84132 6.76206 6.64083C8.94281 4.46008 11.9162 3.22854 15.0002 3.22854C18.112 3.22861 21.0375 4.44042 23.2379 6.64076C25.4383 8.84117 26.6502 11.7667 26.6502 14.8786C26.6502 17.9627 25.4186 20.936 23.2379 23.1167Z" fill="#458AB6"/>
<path d="M22.2209 18.1055L19.3389 17.278C18.96 17.1692 18.552 17.2767 18.2759 17.558L17.5711 18.2761C17.2739 18.5788 16.823 18.6761 16.4297 18.517C15.0664 17.9652 12.1985 15.4153 11.4661 14.1399C11.2548 13.772 11.2897 13.312 11.5492 12.9763L12.1645 12.1803C12.4055 11.8684 12.4564 11.4495 12.297 11.089L11.0845 8.3466C10.794 7.68975 9.95465 7.49855 9.40629 7.96232C8.60193 8.64263 7.64755 9.67643 7.53154 10.8217C7.32698 12.841 8.19297 15.3864 11.4677 18.4429C15.251 21.9739 18.2806 22.4404 20.2531 21.9626C21.3719 21.6916 22.266 20.6052 22.8303 19.7157C23.215 19.1092 22.9113 18.3037 22.2209 18.1055Z" fill="#458AB6"/>
</svg>
