<?xml version="1.0" encoding="utf-8"?>
<!-- Generator: Adobe Illustrator 23.0.1, SVG Export Plug-In . SVG Version: 6.00 Build 0)  -->
<svg version="1.1" id="Layer_1" xmlns="http://www.w3.org/2000/svg" xmlns:xlink="http://www.w3.org/1999/xlink" x="0px" y="0px"
	 viewBox="0 0 100 100" style="enable-background:new 0 0 100 100;" xml:space="preserve">
<style type="text/css">
	.st0{fill:#ffffff;}
</style>
<g>
	<g>
		<path class="st0" d="M63.7,27.4l-5.8,0c-6.6,0-10.8,4.3-10.8,11.1v5.1h-5.9c-0.5,0-0.9,0.4-0.9,0.9v7.4c0,0.5,0.4,0.9,0.9,0.9h5.9
			v18.7c0,0.5,0.4,0.9,0.9,0.9h7.7c0.5,0,0.9-0.4,0.9-0.9V52.8h6.9c0.5,0,0.9-0.4,0.9-0.9l0-7.4c0-0.2-0.1-0.5-0.3-0.6
			c-0.2-0.2-0.4-0.3-0.6-0.3h-6.9v-4.3c0-2.1,0.5-3.1,3.2-3.1l3.9,0c0.5,0,0.9-0.4,0.9-0.9v-6.9C64.6,27.8,64.2,27.4,63.7,27.4
			L63.7,27.4z M63.7,27.4"/>
	</g>
</g>
</svg>
