<?xml version="1.0" encoding="utf-8"?>
<!-- Generator: Adobe Illustrator 23.0.1, SVG Export Plug-In . SVG Version: 6.00 Build 0)  -->
<svg version="1.1" id="Layer_1" xmlns="http://www.w3.org/2000/svg" xmlns:xlink="http://www.w3.org/1999/xlink" x="0px" y="0px"
	 viewBox="0 0 100 100" style="enable-background:new 0 0 100 100;" xml:space="preserve">
<style type="text/css">
	.st0{fill:#ffffff;}
</style>
<g>
	<path class="st0" d="M74.5,52.8v16h-9.3V53.8c0-3.7-1.3-6.3-4.7-6.3c-2.6,0-4.1,1.7-4.7,3.4c-0.2,0.6-0.3,1.4-0.3,2.3v15.5h-9.3
		c0,0,0.1-25.2,0-27.8h9.3v3.9c0,0,0,0.1-0.1,0.1h0.1v-0.1c1.2-1.9,3.4-4.6,8.3-4.6C69.9,40.2,74.5,44.2,74.5,52.8L74.5,52.8z
		 M36.6,27.5c-3.2,0-5.2,2.1-5.2,4.8c0,2.7,2,4.8,5.1,4.8h0.1c3.2,0,5.2-2.1,5.2-4.8C41.7,29.5,39.7,27.5,36.6,27.5L36.6,27.5z
		 M31.9,68.7h9.3V40.9h-9.3V68.7z M31.9,68.7"/>
</g>
</svg>
