<?xml version="1.0" encoding="utf-8"?>
<!-- Generator: Adobe Illustrator 23.0.1, SVG Export Plug-In . SVG Version: 6.00 Build 0)  -->
<svg version="1.1" id="Layer_1" xmlns="http://www.w3.org/2000/svg" xmlns:xlink="http://www.w3.org/1999/xlink" x="0px" y="0px"
	 viewBox="0 0 100 100" style="enable-background:new 0 0 100 100;" xml:space="preserve">
<style type="text/css">
	.st0{fill-rule:evenodd;clip-rule:evenodd;fill:#ffffff;}
</style>
<g>
	<path class="st0" d="M38.2,30.7h28.7c2.7,0,5,2,5,5v28.7c0,2.9-2.2,5-5,5H38.2c-2.7,0-5-2-5-5V35.7C33.2,32.7,35.5,30.7,38.2,30.7
		L38.2,30.7z M61.3,35c-1,0-1.7,0.8-1.7,1.7v4.2c0,1,0.8,1.7,1.7,1.7h4.4c1,0,1.7-0.8,1.7-1.7v-4.2c0-1-0.8-1.7-1.7-1.7H61.3z
		 M67.5,47h-3.4c0.3,1,0.5,2.2,0.5,3.3c0,6.4-5.4,11.6-12,11.6c-6.6,0-12-5.2-12-11.6c0-1.1,0.2-2.3,0.5-3.3h-3.5v16.3
		c0,0.8,0.7,1.5,1.5,1.5h26.9c0.8,0,1.5-0.7,1.5-1.5V47z M52.6,42.4c-4.3,0-7.7,3.4-7.7,7.5s3.5,7.5,7.7,7.5c4.3,0,7.8-3.4,7.8-7.5
		S56.9,42.4,52.6,42.4L52.6,42.4z M52.6,42.4"/>
</g>
</svg>
