<?xml version="1.0" encoding="utf-8"?>
<!-- Generator: Adobe Illustrator 23.0.1, SVG Export Plug-In . SVG Version: 6.00 Build 0)  -->
<svg version="1.1" id="Layer_1" xmlns="http://www.w3.org/2000/svg" xmlns:xlink="http://www.w3.org/1999/xlink" x="0px" y="0px"
	 viewBox="0 0 100 100" style="enable-background:new 0 0 100 100;" xml:space="preserve">
<style type="text/css">
	.st0{fill:#ffffff;}
</style>
<g>
	<path class="st0" d="M74.6,55.9C74.6,55.9,74.5,55.8,74.6,55.9c0.3-1.4,0.4-2.9,0.4-4.3c0-3.2-0.6-6.3-1.9-9.2
		c-1.2-2.8-2.9-5.4-5.1-7.5c-2.2-2.2-4.7-3.9-7.5-5.1c-2.9-1.2-6-1.9-9.2-1.9c-1.5,0-3,0.1-4.5,0.4c0,0,0,0,0,0
		c-2-1.1-4.3-1.6-6.6-1.6c-3.7,0-7.3,1.5-9.9,4.1c-2.6,2.6-4.1,6.2-4.1,9.9c0,2.4,0.6,4.7,1.8,6.8c-0.2,1.3-0.4,2.7-0.4,4.1
		c0,3.2,0.6,6.3,1.9,9.2c1.2,2.8,2.9,5.4,5.1,7.5c2.2,2.2,4.7,3.9,7.5,5.1c2.9,1.2,6,1.9,9.2,1.9c1.4,0,2.8-0.1,4.1-0.4
		c2.1,1.2,4.5,1.8,6.9,1.8c3.7,0,7.3-1.5,9.9-4.1c2.6-2.6,4.1-6.2,4.1-9.9C76.4,60.3,75.7,57.9,74.6,55.9L74.6,55.9z M51.4,66.1
		c-8.4,0-12.2-4.1-12.2-7.2c0-1.6,1.2-2.7,2.8-2.7c3.6,0,2.7,5.2,9.4,5.2c3.4,0,5.3-1.9,5.3-3.8c0-1.1-0.6-2.4-2.8-3l-7.5-1.9
		c-6-1.5-7.1-4.8-7.1-7.8c0-6.4,6-8.7,11.6-8.7c5.2,0,11.3,2.9,11.3,6.7c0,1.6-1.4,2.6-3,2.6c-3.1,0-2.5-4.3-8.7-4.3
		c-3.1,0-4.8,1.4-4.8,3.4c0,2,2.4,2.6,4.5,3.1l5.5,1.2c6.1,1.4,7.6,4.9,7.6,8.2C63.4,62.2,59.4,66.1,51.4,66.1L51.4,66.1z
		 M51.4,66.1"/>
</g>
</svg>
