<?xml version="1.0" encoding="utf-8"?>
<!-- Generator: Adobe Illustrator 23.0.1, SVG Export Plug-In . SVG Version: 6.00 Build 0)  -->
<svg version="1.1" id="Layer_1" xmlns="http://www.w3.org/2000/svg" xmlns:xlink="http://www.w3.org/1999/xlink" x="0px" y="0px"
	 viewBox="0 0 100 100" style="enable-background:new 0 0 100 100;" xml:space="preserve">
<style type="text/css">
	.st0{fill:#ffffff;}
</style>
<path class="st0" d="M51.3,27.9L51.3,27.9L51.3,27.9c-13.1,0-23.8,10.7-23.8,23.8c0,5.2,1.7,10,4.5,13.9l-3,8.8l9.1-2.9
	c3.8,2.5,8.3,3.9,13.1,3.9c13.1,0,23.8-10.7,23.8-23.8S64.4,27.9,51.3,27.9z M65.1,61.5c-0.6,1.6-2.9,3-4.7,3.4
	c-1.2,0.3-2.9,0.5-8.3-1.8c-7-2.9-11.5-10-11.8-10.5c-0.3-0.5-2.8-3.8-2.8-7.2s1.7-5.1,2.4-5.8c0.6-0.6,1.5-0.9,2.4-0.9
	c0.3,0,0.6,0,0.8,0c0.7,0,1.1,0.1,1.5,1.2c0.6,1.4,2,4.8,2.1,5.1c0.2,0.4,0.3,0.8,0.1,1.3c-0.2,0.5-0.4,0.7-0.8,1.1
	c-0.4,0.4-0.7,0.7-1,1.1c-0.3,0.4-0.7,0.8-0.3,1.5c0.4,0.7,1.8,3,3.9,4.8c2.7,2.4,4.8,3.1,5.6,3.4c0.6,0.2,1.3,0.2,1.7-0.3
	c0.5-0.6,1.2-1.5,1.9-2.5c0.5-0.7,1.1-0.8,1.7-0.5c0.6,0.2,4,1.9,4.7,2.3c0.7,0.4,1.2,0.5,1.3,0.8C65.7,58.5,65.7,59.9,65.1,61.5z"
	/>
</svg>
