<svg xmlns="http://www.w3.org/2000/svg" viewBox="0 0 36 34"><defs><style>.cls-1{fill:#008dbe;}</style></defs><title>Ресурс 10</title><g id="Слой_2" data-name="Слой 2"><g id="Слой_1-2" data-name="Слой 1"><circle class="cls-1" cx="8.5" cy="18.5" r="1.5"/><circle class="cls-1" cx="8.5" cy="32.5" r="1.5"/><circle class="cls-1" cx="15.5" cy="25.5" r="1.5"/><circle class="cls-1" cx="1.5" cy="25.5" r="1.5"/><path class="cls-1" d="M13.45,19.05a1.5,1.5,0,0,0-1.06,2.56,1.53,1.53,0,0,0,2.12,0,1.5,1.5,0,0,0-1.06-2.56Z"/><path class="cls-1" d="M4.61,29.39a1.5,1.5,0,1,0-2.12,2.12,1.53,1.53,0,0,0,2.12,0,1.5,1.5,0,0,0,0-2.12Z"/><path class="cls-1" d="M4.61,19.49a1.5,1.5,0,1,0-2.12,2.12,1.53,1.53,0,0,0,2.12,0,1.5,1.5,0,0,0,0-2.12Z"/><path class="cls-1" d="M12.39,31.51a1.53,1.53,0,0,0,2.12,0,1.5,1.5,0,1,0-2.12,0Z"/><circle class="cls-1" cx="8.5" cy="25.5" r="4"/><circle class="cls-1" cx="27.5" cy="18.5" r="1.5"/><circle class="cls-1" cx="27.5" cy="32.5" r="1.5"/><circle class="cls-1" cx="34.5" cy="25.5" r="1.5"/><circle class="cls-1" cx="20.5" cy="25.5" r="1.5"/><path class="cls-1" d="M32.45,19.05a1.5,1.5,0,0,0-1.06,2.56,1.53,1.53,0,0,0,2.12,0,1.5,1.5,0,0,0-1.06-2.56Z"/><path class="cls-1" d="M23.61,29.39a1.5,1.5,0,1,0-2.12,2.12,1.53,1.53,0,0,0,2.12,0,1.5,1.5,0,0,0,0-2.12Z"/><path class="cls-1" d="M23.61,19.49a1.5,1.5,0,1,0-2.12,2.12,1.53,1.53,0,0,0,2.12,0,1.5,1.5,0,0,0,0-2.12Z"/><path class="cls-1" d="M31.39,31.51a1.53,1.53,0,0,0,2.12,0,1.5,1.5,0,1,0-2.12,0Z"/><circle class="cls-1" cx="27.5" cy="25.5" r="4"/><circle class="cls-1" cx="18" cy="1.5" r="1.5"/><circle class="cls-1" cx="18" cy="15.5" r="1.5"/><circle class="cls-1" cx="25" cy="8.5" r="1.5"/><circle class="cls-1" cx="11" cy="8.5" r="1.5"/><path class="cls-1" d="M23,2.05a1.5,1.5,0,0,0-1.06,2.56,1.53,1.53,0,0,0,2.12,0A1.5,1.5,0,0,0,23,2.05Z"/><path class="cls-1" d="M14.11,12.39A1.5,1.5,0,1,0,12,14.51a1.53,1.53,0,0,0,2.12,0,1.5,1.5,0,0,0,0-2.12Z"/><path class="cls-1" d="M14.11,2.49A1.5,1.5,0,1,0,12,4.61a1.53,1.53,0,0,0,2.12,0,1.5,1.5,0,0,0,0-2.12Z"/><path class="cls-1" d="M21.89,14.51a1.53,1.53,0,0,0,2.12,0,1.5,1.5,0,1,0-2.12,0Z"/><circle class="cls-1" cx="18" cy="8.5" r="4"/></g></g></svg>