<svg xmlns="http://www.w3.org/2000/svg" viewBox="0 0 10 15"><defs><style>.cls-1{fill:#008dbe;}</style></defs><title>Ресурс 3</title><g id="Слой_2" data-name="Слой 2"><g id="Слой_1-2" data-name="Слой 1"><path class="cls-1" d="M10,5.5A11.07,11.07,0,0,0,8.17.63,1.32,1.32,0,0,0,7,0H3A1.32,1.32,0,0,0,1.83.63,11.07,11.07,0,0,0,0,5.5c0,2.3,1.19,4.76,4.5,5V14h-2a.5.5,0,0,0,0,1h5a.5.5,0,0,0,0-1h-2V10.48C8.81,10.26,10,7.8,10,5.5Zm-9,0C1,4,2.29,1.8,2.68,1.15A.33.33,0,0,1,3,1H7a.33.33,0,0,1,.28.15C7.71,1.8,9,4,9,5.5a3.72,3.72,0,0,1-4,4A3.72,3.72,0,0,1,1,5.5Z"/></g></g></svg>