<svg xmlns="http://www.w3.org/2000/svg" viewBox="0 0 24.57 16.52"><defs><style>.cls-1{fill:#008dbe;}</style></defs><title>Ресурс 1</title><g id="Слой_2" data-name="Слой 2"><g id="Слой_1-2" data-name="Слой 1"><path class="cls-1" d="M12.85,5.07a3.71,3.71,0,0,0-2.25.67,4.2,4.2,0,0,0-1.38,1.4H9.17a3.22,3.22,0,0,0-3.1-2.07A3.88,3.88,0,0,0,2.62,7H2.55L2.44,5.33H0c.07,1,.09,2,.09,3.33v7.86H2.85V9.9A2.54,2.54,0,0,1,3,9,2.22,2.22,0,0,1,5,7.37C6.35,7.37,7,8.48,7,10v6.48H9.73V9.81a3.94,3.94,0,0,1,.14-.94,2.14,2.14,0,0,1,2-1.5c1.36,0,2,1.11,2,3v6.18H16.6V9.93C16.6,6.34,14.72,5.07,12.85,5.07Z"/><path class="cls-1" d="M21,7.5v0l.76-.66c1.52-1.4,2.62-2.64,2.62-4.17A2.59,2.59,0,0,0,21.5,0a4.3,4.3,0,0,0-2.68.9l.48,1.17a3.14,3.14,0,0,1,1.86-.73A1.38,1.38,0,0,1,22.72,2.8c0,1.16-1,2.2-3,4.11l-1,1v1h5.91V7.5Z"/></g></g></svg>