<svg xmlns="http://www.w3.org/2000/svg" viewBox="0 0 27 33"><defs><style>.cls-1{fill:#008dbe;}</style></defs><title>Ресурс 7</title><g id="Слой_2" data-name="Слой 2"><g id="Слой_1-2" data-name="Слой 1"><path class="cls-1" d="M5.5,10.5h1a1,1,0,0,1,1,1v17a0,0,0,0,1,0,0h-2a1,1,0,0,1-1-1v-16A1,1,0,0,1,5.5,10.5Z"/><path class="cls-1" d="M20.5,10.5h1a1,1,0,0,1,1,1v16a1,1,0,0,1-1,1h-2a0,0,0,0,1,0,0v-17A1,1,0,0,1,20.5,10.5Z"/><path class="cls-1" d="M12,18h2a1,1,0,0,1,1,1V35a1,1,0,0,1-1,1H12a0,0,0,0,1,0,0V18A0,0,0,0,1,12,18Z" transform="translate(40.5 13.5) rotate(90)"/><rect class="cls-1" x="12" y="-1" width="3" height="14" rx="1" ry="1" transform="translate(19.5 -7.5) rotate(90)"/><circle class="cls-1" cx="9.5" cy="1.5" r="1.5"/><circle class="cls-1" cx="1.5" cy="12.5" r="1.5"/><circle class="cls-1" cx="1.5" cy="16.5" r="1.5"/><circle class="cls-1" cx="1.5" cy="20.5" r="1.5"/><circle class="cls-1" cx="1.5" cy="24.5" r="1.5"/><circle class="cls-1" cx="25.5" cy="12.5" r="1.5"/><circle class="cls-1" cx="25.5" cy="16.5" r="1.5"/><circle class="cls-1" cx="25.5" cy="20.5" r="1.5"/><circle class="cls-1" cx="25.5" cy="24.5" r="1.5"/><circle class="cls-1" cx="19.5" cy="31.5" r="1.5"/><circle class="cls-1" cx="15.5" cy="31.5" r="1.5"/><circle class="cls-1" cx="11.5" cy="31.5" r="1.5"/><circle class="cls-1" cx="7.5" cy="31.5" r="1.5"/><circle class="cls-1" cx="13.5" cy="1.5" r="1.5"/><circle class="cls-1" cx="17.5" cy="1.5" r="1.5"/></g></g></svg>