<?xml version="1.0" encoding="UTF-8"?>
<!DOCTYPE svg PUBLIC "-//W3C//DTD SVG 1.1//EN" "http://www.w3.org/Graphics/SVG/1.1/DTD/svg11.dtd">
<!-- Creator: CorelDRAW 2019 (64-Bit Оценочная версия) -->
<svg xmlns="http://www.w3.org/2000/svg" xml:space="preserve" width="1000px" height="1000px" version="1.1" style="shape-rendering:geometricPrecision; text-rendering:geometricPrecision; image-rendering:optimizeQuality; fill-rule:evenodd; clip-rule:evenodd"
viewBox="0 0 1000 1000"
 xmlns:xlink="http://www.w3.org/1999/xlink">
 <defs>
  <style type="text/css">
   <![CDATA[
    .str0 {stroke:black;stroke-width:3.13;stroke-miterlimit:22.9256;stroke-opacity:0.000000}
    .fil1 {fill:#80A7AF}
    .fil0 {fill:black;fill-opacity:0.000000}
   ]]>
  </style>
 </defs>
 <g id="Слой_x0020_1">
  <metadata id="CorelCorpID_0Corel-Layer"/>
  <g id="pause.svg">
   <g>
    <g>
     <g>
      <g>
       <path class="fil0" d="M999 10.75c0,0 0,0 0,0 0,588.28 0,915.13 0,980.56 0,0 0,0 0,0 -602.13,0 -936.61,0 -1003.55,0 0,0 0,0 0,0 0,-588.38 0,-915.23 0,-980.56 0,0 0,0 0,0 602.13,0 936.61,0 1003.55,0z"/>
      </g>
      <g>
       <g>
        <path class="fil0 str0" d="M999 10.75c0,0 0,0 0,0 0,588.28 0,915.13 0,980.56 0,0 0,0 0,0 -602.13,0 -936.61,0 -1003.55,0 0,0 0,0 0,0 0,-588.38 0,-915.23 0,-980.56 0,0 0,0 0,0 602.13,0 936.61,0 1003.55,0z"/>
       </g>
      </g>
     </g>
     <g>
      <g>
       <polygon class="fil1" points="28.57,2.31 29.17,2.42 29.88,2.42 30.48,2.52 31.18,2.62 31.88,2.72 32.48,2.92 33.09,3.02 33.79,3.22 34.39,3.42 34.99,3.62 35.69,3.82 36.3,4.02 36.8,4.32 37.4,4.63 38,4.92 38.51,5.23 39.11,5.63 39.61,5.93 40.11,6.33 40.51,6.73 41.01,7.23 726.24,479.71 726.64,480.01 727.04,480.21 727.54,480.5 727.94,480.81 728.44,481.11 728.85,481.41 729.25,481.81 729.65,482.11 730.15,482.51 730.55,482.91 730.95,483.32 731.35,483.72 731.75,484.22 732.16,484.62 732.56,485.12 732.86,485.52 733.26,486.02 733.66,486.53 733.96,487.03 734.36,487.53 734.66,488.03 734.97,488.54 735.27,489.04 735.57,489.54 735.87,490.04 736.07,490.54 736.37,491.04 736.57,491.55 736.77,492.15 736.97,492.65 737.17,493.15 737.38,493.65 737.47,494.16 737.68,494.66 737.78,495.16 737.88,495.56 737.88,496.06 737.98,496.56 737.98,496.96 737.98,497.47 737.98,498.17 737.98,498.77 737.98,499.47 737.88,500.08 737.88,500.78 737.78,501.38 737.78,502.08 737.68,502.69 737.58,503.39 737.47,503.99 737.38,504.69 737.17,505.29 737.07,505.89 736.87,506.5 736.77,507.1 736.57,507.7 736.37,508.3 736.17,508.91 735.97,509.41 735.77,510.01 735.57,510.51 735.37,511.11 735.07,511.61 734.86,512.12 734.56,512.62 734.27,513.12 733.96,513.63 733.66,514.02 733.36,514.53 733.06,514.93 732.66,515.33 732.36,515.73 731.96,516.03 731.66,516.43 731.25,516.74 730.85,517.04 730.45,517.34 730.05,517.64 729.55,517.94 729.14,518.14 43.93,990.71 43.52,990.91 43.12,991.11 42.72,991.31 42.22,991.51 41.82,991.61 41.52,991.81 41.11,992.01 40.71,992.11 40.31,992.21 40.01,992.41 39.61,992.52 39.31,992.62 38.91,992.72 38.6,992.82 38.21,992.92 37.9,993.02 37.6,993.12 37.2,993.12 36.9,993.22 36.6,993.22 36.19,993.32 35.9,993.32 35.6,993.42 35.19,993.42 34.89,993.52 34.59,993.52 34.19,993.52 33.89,993.52 33.49,993.62 33.19,993.62 32.79,993.62 32.38,993.62 32.08,993.62 31.68,993.62 31.28,993.62 30.88,993.62 30.48,993.62 30.07,993.62 29.57,993.62 28.77,993.62 28.37,993.62 27.87,993.62 27.47,993.62 27.07,993.62 26.76,993.62 26.36,993.62 25.96,993.62 25.66,993.62 25.26,993.62 24.96,993.62 24.56,993.52 24.26,993.52 23.95,993.52 23.65,993.52 23.35,993.42 23.05,993.42 22.75,993.32 22.45,993.32 22.15,993.22 21.94,993.22 21.65,993.12 21.35,993.12 21.15,993.02 20.84,992.92 20.64,992.82 20.34,992.72 20.14,992.62 19.84,992.52 19.64,992.41 19.44,992.21 19.14,992.11 18.94,992.01 18.74,991.81 18.54,991.61 18.23,991.51 18.03,991.31 17.83,991.11 17.63,990.91 17.33,990.71 16.93,990.41 16.53,990.21 16.02,989.91 15.62,989.6 15.12,989.3 14.72,989.01 14.32,988.6 13.92,988.2 13.41,987.9 13.02,987.5 12.61,986.99 12.21,986.6 11.81,986.09 11.41,985.69 11.01,985.19 10.71,984.69 10.31,984.19 9.9,983.68 9.6,983.08 9.2,982.58 8.9,981.98 8.6,981.48 8.3,980.88 8,980.27 7.69,979.67 7.49,979.07 7.19,978.47 6.99,977.86 6.79,977.16 6.59,976.56 6.39,975.96 6.19,975.26 6.09,974.65 5.89,973.95 5.79,973.35 5.69,972.65 5.69,972.04 5.59,971.34 5.59,970.64 5.59,970.04 5.59,24.89 5.59,24.3 5.59,23.59 5.59,22.89 5.69,22.29 5.69,21.58 5.79,20.98 5.89,20.28 5.89,19.68 6.09,18.97 6.19,18.37 6.29,17.77 6.39,17.07 6.59,16.47 6.79,15.86 6.99,15.26 7.19,14.66 7.4,14.06 7.6,13.46 7.9,12.95 8.1,12.35 8.4,11.85 8.7,11.25 9,10.75 9.4,10.24 9.7,9.74 10.1,9.24 10.51,8.74 10.91,8.34 11.31,7.94 11.81,7.44 12.21,7.03 12.71,6.63 13.21,6.33 13.82,5.93 14.32,5.63 14.92,5.33 15.52,5.03 16.13,4.72 16.73,4.42 17.33,4.22 17.83,4.02 18.33,3.82 18.84,3.62 19.34,3.42 19.84,3.32 20.34,3.12 20.94,3.02 21.54,2.82 22.15,2.72 22.75,2.62 23.35,2.52 23.95,2.42 24.56,2.42 25.26,2.31 25.86,2.31 26.56,2.31 27.16,2.31 27.87,2.31 "/>
      </g>
      <g>
       <g>
        <polygon class="fil0 str0" points="28.57,2.31 29.17,2.42 29.88,2.42 30.48,2.52 31.18,2.62 31.88,2.72 32.48,2.92 33.09,3.02 33.79,3.22 34.39,3.42 34.99,3.62 35.69,3.82 36.3,4.02 36.8,4.32 37.4,4.63 38,4.92 38.51,5.23 39.11,5.63 39.61,5.93 40.11,6.33 40.51,6.73 41.01,7.23 726.24,479.71 726.64,480.01 727.04,480.21 727.54,480.5 727.94,480.81 728.44,481.11 728.85,481.41 729.25,481.81 729.65,482.11 730.15,482.51 730.55,482.91 730.95,483.32 731.35,483.72 731.75,484.22 732.16,484.62 732.56,485.12 732.86,485.52 733.26,486.02 733.66,486.53 733.96,487.03 734.36,487.53 734.66,488.03 734.97,488.54 735.27,489.04 735.57,489.54 735.87,490.04 736.07,490.54 736.37,491.04 736.57,491.55 736.77,492.15 736.97,492.65 737.17,493.15 737.38,493.65 737.47,494.16 737.68,494.66 737.78,495.16 737.88,495.56 737.88,496.06 737.98,496.56 737.98,496.96 737.98,497.47 737.98,498.17 737.98,498.77 737.98,499.47 737.88,500.08 737.88,500.78 737.78,501.38 737.78,502.08 737.68,502.69 737.58,503.39 737.47,503.99 737.38,504.69 737.17,505.29 737.07,505.89 736.87,506.5 736.77,507.1 736.57,507.7 736.37,508.3 736.17,508.91 735.97,509.41 735.77,510.01 735.57,510.51 735.37,511.11 735.07,511.61 734.86,512.12 734.56,512.62 734.27,513.12 733.96,513.63 733.66,514.02 733.36,514.53 733.06,514.93 732.66,515.33 732.36,515.73 731.96,516.03 731.66,516.43 731.25,516.74 730.85,517.04 730.45,517.34 730.05,517.64 729.55,517.94 729.14,518.14 43.93,990.71 43.52,990.91 43.12,991.11 42.72,991.31 42.22,991.51 41.82,991.61 41.52,991.81 41.11,992.01 40.71,992.11 40.31,992.21 40.01,992.41 39.61,992.52 39.31,992.62 38.91,992.72 38.6,992.82 38.21,992.92 37.9,993.02 37.6,993.12 37.2,993.12 36.9,993.22 36.6,993.22 36.19,993.32 35.9,993.32 35.6,993.42 35.19,993.42 34.89,993.52 34.59,993.52 34.19,993.52 33.89,993.52 33.49,993.62 33.19,993.62 32.79,993.62 32.38,993.62 32.08,993.62 31.68,993.62 31.28,993.62 30.88,993.62 30.48,993.62 30.07,993.62 29.57,993.62 28.77,993.62 28.37,993.62 27.87,993.62 27.47,993.62 27.07,993.62 26.76,993.62 26.36,993.62 25.96,993.62 25.66,993.62 25.26,993.62 24.96,993.62 24.56,993.52 24.26,993.52 23.95,993.52 23.65,993.52 23.35,993.42 23.05,993.42 22.75,993.32 22.45,993.32 22.15,993.22 21.94,993.22 21.65,993.12 21.35,993.12 21.15,993.02 20.84,992.92 20.64,992.82 20.34,992.72 20.14,992.62 19.84,992.52 19.64,992.41 19.44,992.21 19.14,992.11 18.94,992.01 18.74,991.81 18.54,991.61 18.23,991.51 18.03,991.31 17.83,991.11 17.63,990.91 17.33,990.71 16.93,990.41 16.53,990.21 16.02,989.91 15.62,989.6 15.12,989.3 14.72,989.01 14.32,988.6 13.92,988.2 13.41,987.9 13.02,987.5 12.61,986.99 12.21,986.6 11.81,986.09 11.41,985.69 11.01,985.19 10.71,984.69 10.31,984.19 9.9,983.68 9.6,983.08 9.2,982.58 8.9,981.98 8.6,981.48 8.3,980.88 8,980.27 7.69,979.67 7.49,979.07 7.19,978.47 6.99,977.86 6.79,977.16 6.59,976.56 6.39,975.96 6.19,975.26 6.09,974.65 5.89,973.95 5.79,973.35 5.69,972.65 5.69,972.04 5.59,971.34 5.59,970.64 5.59,970.04 5.59,24.89 5.59,24.3 5.59,23.59 5.59,22.89 5.69,22.29 5.69,21.58 5.79,20.98 5.89,20.28 5.89,19.68 6.09,18.97 6.19,18.37 6.29,17.77 6.39,17.07 6.59,16.47 6.79,15.86 6.99,15.26 7.19,14.66 7.4,14.06 7.6,13.46 7.9,12.95 8.1,12.35 8.4,11.85 8.7,11.25 9,10.75 9.4,10.24 9.7,9.74 10.1,9.24 10.51,8.74 10.91,8.34 11.31,7.94 11.81,7.44 12.21,7.03 12.71,6.63 13.21,6.33 13.82,5.93 14.32,5.63 14.92,5.33 15.52,5.03 16.13,4.72 16.73,4.42 17.33,4.22 17.83,4.02 18.33,3.82 18.84,3.62 19.34,3.42 19.84,3.32 20.34,3.12 20.94,3.02 21.54,2.82 22.15,2.72 22.75,2.62 23.35,2.52 23.95,2.42 24.56,2.42 25.26,2.31 25.86,2.31 26.56,2.31 27.16,2.31 27.87,2.31 "/>
       </g>
      </g>
     </g>
    </g>
   </g>
  </g>
 </g>
</svg>
