<?xml version="1.0" encoding="UTF-8"?>
<!DOCTYPE svg PUBLIC "-//W3C//DTD SVG 1.1//EN" "http://www.w3.org/Graphics/SVG/1.1/DTD/svg11.dtd">
<!-- Creator: CorelDRAW 2019 (64-Bit Оценочная версия) -->
<svg xmlns="http://www.w3.org/2000/svg" xml:space="preserve" width="1000px" height="1000px" version="1.1" style="shape-rendering:geometricPrecision; text-rendering:geometricPrecision; image-rendering:optimizeQuality; fill-rule:evenodd; clip-rule:evenodd"
viewBox="0 0 1000 1000"
 xmlns:xlink="http://www.w3.org/1999/xlink">
 <defs>
  <style type="text/css">
   <![CDATA[
    .str0 {stroke:black;stroke-width:3.13;stroke-miterlimit:22.9256;stroke-opacity:0.000000}
    .fil1 {fill:white}
    .fil0 {fill:white;fill-opacity:0.000000}
   ]]>
  </style>
 </defs>
 <g id="Слой_x0020_1">
  <metadata id="CorelCorpID_0Corel-Layer"/>
  <g id="play.svg">
   <g>
    <g>
     <g>
      <g>
       <path class="fil0" d="M1020 8.15c0,0 0,0 0,0 0,591.09 0,919.5 0,985.24 0,0 0,0 0,0 -605,0 -941.08,0 -1008.33,0 0,0 0,0 0,0 0,-591.18 0,-919.6 0,-985.24 0,0 0,0 0,0 604.99,0 941.07,0 1008.33,0z"/>
      </g>
      <g>
       <g>
        <path class="fil0 str0" d="M1020 8.15c0,0 0,0 0,0 0,591.09 0,919.5 0,985.24 0,0 0,0 0,0 -605,0 -941.08,0 -1008.33,0 0,0 0,0 0,0 0,-591.18 0,-919.6 0,-985.24 0,0 0,0 0,0 604.99,0 941.07,0 1008.33,0z"/>
       </g>
      </g>
     </g>
     <g>
      <g>
       <path class="fil0" d="M1020 -6.47c0,0 0,0 0,0 0,605 0,941.08 0,1008.33 0,0 0,0 0,0 -605,0 -941.08,0 -1008.33,0 0,0 0,0 0,0 0,-605 0,-941.07 0,-1008.33 0,0 0,0 0,0 604.99,0 941.07,0 1008.33,0z"/>
      </g>
      <g>
       <g>
        <path class="fil0 str0" d="M1020 -6.47c0,0 0,0 0,0 0,605 0,941.08 0,1008.33 0,0 0,0 0,0 -605,0 -941.08,0 -1008.33,0 0,0 0,0 0,0 0,-605 0,-941.07 0,-1008.33 0,0 0,0 0,0 604.99,0 941.07,0 1008.33,0z"/>
       </g>
      </g>
     </g>
     <g>
      <g>
       <polygon class="fil1" points="34.55,-0.62 35.26,-0.52 35.97,-0.52 36.57,-0.42 37.28,-0.32 37.88,-0.22 38.59,-0.12 39.19,0.08 39.9,0.29 40.5,0.39 41.11,0.69 41.72,0.89 42.32,1.09 42.92,1.39 43.53,1.7 44.03,2 44.64,2.3 45.14,2.61 45.65,3.01 46.15,3.41 46.65,3.81 47.06,4.22 731.51,478.64 731.92,478.84 732.32,479.04 732.82,479.35 733.23,479.65 733.63,479.95 734.14,480.35 734.54,480.66 734.94,481.06 735.35,481.36 735.85,481.77 736.25,482.17 736.66,482.67 737.06,483.08 737.46,483.48 737.77,483.98 738.17,484.49 738.57,484.89 738.88,485.39 739.28,485.9 739.58,486.4 739.88,486.91 740.19,487.41 740.49,487.92 740.79,488.42 741.1,488.92 741.4,489.43 741.6,489.93 741.8,490.54 742.1,491.04 742.3,491.55 742.41,492.05 742.61,492.56 742.81,493.06 742.91,493.56 743.01,494.06 743.11,494.57 743.21,494.98 743.21,495.48 743.31,495.98 743.31,496.39 743.31,497.09 743.21,497.7 743.21,498.4 743.21,499.01 743.11,499.71 743.11,500.42 743.01,501.02 742.91,501.73 742.81,502.33 742.71,502.94 742.61,503.64 742.51,504.25 742.3,504.86 742.2,505.46 742,506.06 741.9,506.67 741.7,507.28 741.5,507.88 741.3,508.39 741.1,508.99 740.79,509.49 740.59,510.1 740.39,510.6 740.09,511.11 739.78,511.61 739.58,512.12 739.28,512.62 738.98,513.02 738.67,513.53 738.27,513.93 737.97,514.34 737.57,514.74 737.26,515.04 736.86,515.44 736.46,515.75 736.15,516.05 735.75,516.35 735.25,516.65 734.84,516.96 734.44,517.16 49.98,991.47 49.58,991.68 49.18,991.88 48.77,992.08 48.37,992.28 47.97,992.48 47.56,992.69 47.16,992.79 46.76,992.99 46.45,993.09 46.05,993.19 45.65,993.29 45.34,993.49 45.04,993.59 44.64,993.7 44.34,993.7 43.93,993.8 43.63,993.89 43.33,994 42.92,994 42.62,994.1 42.32,994.1 42.02,994.2 41.61,994.2 41.31,994.3 41.01,994.3 40.61,994.3 40.3,994.4 39.9,994.4 39.6,994.4 39.19,994.4 38.89,994.4 38.49,994.4 38.08,994.4 37.78,994.5 37.38,994.5 36.97,994.5 36.57,994.5 36.17,994.5 35.66,994.5 34.86,994.5 34.35,994.5 33.95,994.5 33.55,994.5 33.14,994.5 32.84,994.5 32.44,994.4 32.04,994.4 31.74,994.4 31.33,994.4 31.03,994.4 30.73,994.4 30.32,994.4 30.02,994.3 29.71,994.3 29.41,994.3 29.11,994.2 28.81,994.2 28.51,994.1 28.31,994.1 28,994 27.7,994 27.5,993.89 27.2,993.8 26.89,993.7 26.69,993.7 26.49,993.59 26.19,993.49 25.98,993.29 25.68,993.19 25.48,993.09 25.28,992.99 25.08,992.79 24.78,992.69 24.57,992.48 24.37,992.28 24.17,992.08 23.87,991.88 23.67,991.68 23.46,991.47 23.06,991.28 22.56,990.97 22.15,990.77 21.75,990.47 21.25,990.17 20.84,989.76 20.44,989.46 19.94,989.05 19.53,988.65 19.13,988.25 18.72,987.85 18.32,987.34 17.92,986.94 17.52,986.44 17.11,985.93 16.81,985.53 16.41,984.92 16,984.42 15.7,983.91 15.4,983.31 14.99,982.8 14.69,982.2 14.39,981.6 14.09,981.09 13.88,980.49 13.58,979.88 13.38,979.18 13.08,978.57 12.88,977.97 12.68,977.36 12.47,976.65 12.37,976.05 12.17,975.34 12.07,974.74 11.97,974.03 11.87,973.43 11.77,972.72 11.67,972.12 11.67,971.41 11.67,970.71 11.67,22.07 11.67,21.36 11.67,20.66 11.77,20.05 11.77,19.34 11.77,18.74 11.87,18.03 11.97,17.43 12.07,16.72 12.17,16.12 12.27,15.41 12.37,14.81 12.57,14.2 12.68,13.6 12.88,12.99 13.08,12.39 13.28,11.78 13.48,11.18 13.68,10.57 13.99,9.97 14.29,9.46 14.49,8.86 14.79,8.35 15.19,7.85 15.5,7.34 15.8,6.84 16.2,6.34 16.61,5.83 17.01,5.43 17.41,4.92 17.92,4.52 18.32,4.12 18.83,3.72 19.33,3.31 19.83,3.01 20.44,2.71 20.94,2.3 21.55,2 22.15,1.8 22.86,1.5 23.46,1.3 23.97,1.09 24.37,0.89 24.88,0.69 25.38,0.49 25.89,0.29 26.49,0.19 26.99,-0.02 27.6,-0.12 28.2,-0.22 28.81,-0.32 29.41,-0.42 30.02,-0.52 30.73,-0.52 31.33,-0.62 31.93,-0.62 32.64,-0.62 33.24,-0.62 33.95,-0.62 "/>
      </g>
      <g>
       <g>
        <polygon class="fil0 str0" points="34.55,-0.62 35.26,-0.52 35.97,-0.52 36.57,-0.42 37.28,-0.32 37.88,-0.22 38.59,-0.12 39.19,0.08 39.9,0.29 40.5,0.39 41.11,0.69 41.72,0.89 42.32,1.09 42.92,1.39 43.53,1.7 44.03,2 44.64,2.3 45.14,2.61 45.65,3.01 46.15,3.41 46.65,3.81 47.06,4.22 731.51,478.64 731.92,478.84 732.32,479.04 732.82,479.35 733.23,479.65 733.63,479.95 734.14,480.35 734.54,480.66 734.94,481.06 735.35,481.36 735.85,481.77 736.25,482.17 736.66,482.67 737.06,483.08 737.46,483.48 737.77,483.98 738.17,484.49 738.57,484.89 738.88,485.39 739.28,485.9 739.58,486.4 739.88,486.91 740.19,487.41 740.49,487.92 740.79,488.42 741.1,488.92 741.4,489.43 741.6,489.93 741.8,490.54 742.1,491.04 742.3,491.55 742.41,492.05 742.61,492.56 742.81,493.06 742.91,493.56 743.01,494.06 743.11,494.57 743.21,494.98 743.21,495.48 743.31,495.98 743.31,496.39 743.31,497.09 743.21,497.7 743.21,498.4 743.21,499.01 743.11,499.71 743.11,500.42 743.01,501.02 742.91,501.73 742.81,502.33 742.71,502.94 742.61,503.64 742.51,504.25 742.3,504.86 742.2,505.46 742,506.06 741.9,506.67 741.7,507.28 741.5,507.88 741.3,508.39 741.1,508.99 740.79,509.49 740.59,510.1 740.39,510.6 740.09,511.11 739.78,511.61 739.58,512.12 739.28,512.62 738.98,513.02 738.67,513.53 738.27,513.93 737.97,514.34 737.57,514.74 737.26,515.04 736.86,515.44 736.46,515.75 736.15,516.05 735.75,516.35 735.25,516.65 734.84,516.96 734.44,517.16 49.98,991.47 49.58,991.68 49.18,991.88 48.77,992.08 48.37,992.28 47.97,992.48 47.56,992.69 47.16,992.79 46.76,992.99 46.45,993.09 46.05,993.19 45.65,993.29 45.34,993.49 45.04,993.59 44.64,993.7 44.34,993.7 43.93,993.8 43.63,993.89 43.33,994 42.92,994 42.62,994.1 42.32,994.1 42.02,994.2 41.61,994.2 41.31,994.3 41.01,994.3 40.61,994.3 40.3,994.4 39.9,994.4 39.6,994.4 39.19,994.4 38.89,994.4 38.49,994.4 38.08,994.4 37.78,994.5 37.38,994.5 36.97,994.5 36.57,994.5 36.17,994.5 35.66,994.5 34.86,994.5 34.35,994.5 33.95,994.5 33.55,994.5 33.14,994.5 32.84,994.5 32.44,994.4 32.04,994.4 31.74,994.4 31.33,994.4 31.03,994.4 30.73,994.4 30.32,994.4 30.02,994.3 29.71,994.3 29.41,994.3 29.11,994.2 28.81,994.2 28.51,994.1 28.31,994.1 28,994 27.7,994 27.5,993.89 27.2,993.8 26.89,993.7 26.69,993.7 26.49,993.59 26.19,993.49 25.98,993.29 25.68,993.19 25.48,993.09 25.28,992.99 25.08,992.79 24.78,992.69 24.57,992.48 24.37,992.28 24.17,992.08 23.87,991.88 23.67,991.68 23.46,991.47 23.06,991.28 22.56,990.97 22.15,990.77 21.75,990.47 21.25,990.17 20.84,989.76 20.44,989.46 19.94,989.05 19.53,988.65 19.13,988.25 18.72,987.85 18.32,987.34 17.92,986.94 17.52,986.44 17.11,985.93 16.81,985.53 16.41,984.92 16,984.42 15.7,983.91 15.4,983.31 14.99,982.8 14.69,982.2 14.39,981.6 14.09,981.09 13.88,980.49 13.58,979.88 13.38,979.18 13.08,978.57 12.88,977.97 12.68,977.36 12.47,976.65 12.37,976.05 12.17,975.34 12.07,974.74 11.97,974.03 11.87,973.43 11.77,972.72 11.67,972.12 11.67,971.41 11.67,970.71 11.67,22.07 11.67,21.36 11.67,20.66 11.77,20.05 11.77,19.34 11.77,18.74 11.87,18.03 11.97,17.43 12.07,16.72 12.17,16.12 12.27,15.41 12.37,14.81 12.57,14.2 12.68,13.6 12.88,12.99 13.08,12.39 13.28,11.78 13.48,11.18 13.68,10.57 13.99,9.97 14.29,9.46 14.49,8.86 14.79,8.35 15.19,7.85 15.5,7.34 15.8,6.84 16.2,6.34 16.61,5.83 17.01,5.43 17.41,4.92 17.92,4.52 18.32,4.12 18.83,3.72 19.33,3.31 19.83,3.01 20.44,2.71 20.94,2.3 21.55,2 22.15,1.8 22.86,1.5 23.46,1.3 23.97,1.09 24.37,0.89 24.88,0.69 25.38,0.49 25.89,0.29 26.49,0.19 26.99,-0.02 27.6,-0.12 28.2,-0.22 28.81,-0.32 29.41,-0.42 30.02,-0.52 30.73,-0.52 31.33,-0.62 31.93,-0.62 32.64,-0.62 33.24,-0.62 33.95,-0.62 "/>
       </g>
      </g>
     </g>
    </g>
   </g>
  </g>
 </g>
</svg>
