<svg xmlns="http://www.w3.org/2000/svg" xmlns:xlink="http://www.w3.org/1999/xlink" version="1.1" style="" xml:space="preserve" width="100" height="100"><rect id="backgroundrect" width="100%" height="100%" x="0" y="0" fill="none" stroke="none"/>
<style type="text/css">
	.st0{fill:#ffffff;}
</style>

<g class="currentLayer" style=""><title>Layer 1</title><g id="svg_1" class="" stroke="#ffffff" stroke-opacity="1" fill="#ffffff" fill-opacity="1" opacity="1">
	<g id="svg_2" stroke="#ffffff" stroke-opacity="1" fill="#ffffff" fill-opacity="1" opacity="1">
		<path class="st0" d="M49.58845026867649,75.64604730563016 c0,1.3832275047836675 -0.8645171904897921,2.766455009567335 -2.074841257175501,3.28516532386121 c-0.5187103142938758,0.17290343809795847 -1.0374206285877507,0.34580687619591693 -1.556130942881626,0.34580687619591693 c-0.8645171904897921,0 -1.7290343809795843,-0.34580687619591693 -2.4206481333714183,-0.8645171904897921 l-20.229702257461135,-16.771633495501966 h-10.720013162073423 c-2.074841257175501,0 -3.630972200057127,-1.7290343809795843 -3.630972200057127,-3.630972200057127 V43.4860078194099 c0,-2.074841257175501 1.7290343809795843,-3.630972200057127 3.630972200057127,-3.630972200057127 h10.720013162073423 l20.229702257461135,-16.771633495501966 c1.0374206285877507,-0.8645171904897921 2.5935515714693773,-1.0374206285877507 3.9767790762530444,-0.5187103142938758 c1.210324066685709,0.691613752391834 2.074841257175501,1.9019378190775431 2.074841257175501,3.28516532386121 V75.64604730563016 zM63.76653219270909,69.94023384839753 c-0.17290343809795847,0 -0.17290343809795847,0 -0.34580687619591693,0 c-1.0374206285877507,0 -1.9019378190775431,-0.34580687619591693 -2.5935515714693773,-1.0374206285877507 l-0.5187103142938758,-0.5187103142938758 c-1.210324066685709,-1.210324066685709 -1.3832275047836675,-3.28516532386121 -0.34580687619591693,-4.841296266742836 c2.766455009567335,-3.8038756381550867 4.149682514351002,-8.126461590604046 4.149682514351002,-12.794854419248924 c0,-5.014199704840794 -1.7290343809795843,-9.682592533485671 -4.841296266742836,-13.486468171640757 c-1.210324066685709,-1.3832275047836675 -1.0374206285877507,-3.630972200057127 0.17290343809795847,-5.014199704840794 l0.5187103142938758,-0.5187103142938758 c0.691613752391834,-0.691613752391834 1.7290343809795843,-1.210324066685709 2.766455009567335,-1.0374206285877507 c1.0374206285877507,0 2.074841257175501,0.5187103142938758 2.5935515714693773,1.3832275047836675 c4.322585952448961,5.3600065810367115 6.57033064772242,11.757433790661173 6.57033064772242,18.67357131457951 c0,6.397427209624465 -2.074841257175501,12.449047543053007 -5.878716895330586,17.63615068599176 C65.84137344988459,69.42152353410367 64.80395282129682,69.94023384839753 63.76653219270909,69.94023384839753 L63.76653219270909,69.94023384839753 zM78.98203474532943,81.3518607628628 c-0.691613752391834,0.8645171904897921 -1.556130942881626,1.210324066685709 -2.5935515714693773,1.3832275047836675 c0,0 -0.17290343809795847,0 -0.17290343809795847,0 c-1.0374206285877507,0 -1.9019378190775431,-0.34580687619591693 -2.5935515714693773,-1.0374206285877507 l-0.5187103142938758,-0.5187103142938758 c-1.3832275047836675,-1.3832275047836675 -1.3832275047836675,-3.4580687619591686 -0.17290343809795847,-5.014199704840794 c5.878716895330586,-7.089040962016296 9.163882219191796,-16.080019743110135 9.163882219191796,-25.24390196230193 c0,-9.682592533485671 -3.4580687619591686,-18.84647475267747 -9.85549597158363,-26.108419152791722 c-1.210324066685709,-1.3832275047836675 -1.210324066685709,-3.630972200057127 0.17290343809795847,-5.014199704840794 l0.5187103142938758,-0.5187103142938758 c0.691613752391834,-0.691613752391834 1.7290343809795843,-1.0374206285877507 2.766455009567335,-1.0374206285877507 c1.0374206285877507,0 1.9019378190775431,0.5187103142938758 2.5935515714693773,1.210324066685709 c7.607751276310172,8.645171904897921 11.930337228759132,19.88389538126522 11.930337228759132,31.468425733828433 C90.22075822169673,61.98667569589146 86.24397914544369,72.87959229606284 78.98203474532943,81.3518607628628 L78.98203474532943,81.3518607628628 zM78.98203474532943,81.3518607628628 " id="svg_3" stroke="#ffffff" stroke-opacity="1" fill="#ffffff" fill-opacity="1" opacity="1"/>
	</g>
</g><path fill="#ffffff" fill-opacity="1" stroke="#ffffff" stroke-opacity="1" stroke-width="1" stroke-dasharray="none" stroke-linejoin="miter" stroke-linecap="butt" stroke-dashoffset="" fill-rule="nonzero" opacity="1" marker-start="" marker-mid="" marker-end="" id="svg_4" d="M43.33332751795905,56.14034847071733 " style="color: rgb(0, 0, 0);"/></g></svg>