<?xml version="1.0" encoding="UTF-8"?>
<!DOCTYPE svg PUBLIC "-//W3C//DTD SVG 1.1//EN" "http://www.w3.org/Graphics/SVG/1.1/DTD/svg11.dtd">
<!-- Creator: CorelDRAW 2019 (64-Bit Оценочная версия) -->
<svg xmlns="http://www.w3.org/2000/svg" xml:space="preserve" width="1226px" height="1000px" version="1.1" style="shape-rendering:geometricPrecision; text-rendering:geometricPrecision; image-rendering:optimizeQuality; fill-rule:evenodd; clip-rule:evenodd"
viewBox="0 0 1226 1000"
 xmlns:xlink="http://www.w3.org/1999/xlink">
 <defs>
  <style type="text/css">
   <![CDATA[
    .fil0 {fill:white}
   ]]>
  </style>
 </defs>
 <g id="Слой_x0020_1">
  <metadata id="CorelCorpID_0Corel-Layer"/>
  <g id="volume_x0020_on.svg">
   <g>
    <g>
     <path class="fil0" d="M615 872.92c0,20.7 -12.93,41.4 -31.05,49.16 -7.76,2.59 -15.52,5.18 -23.28,5.18 -12.94,0 -25.87,-5.18 -36.22,-12.94l-302.71 -250.96 -160.41 0c-31.05,0 -54.33,-25.88 -54.33,-54.33l0 -217.33c0,-31.05 25.87,-54.33 54.33,-54.33l160.41 0 302.71 -250.97c15.52,-12.93 38.81,-15.52 59.5,-7.76 18.12,10.35 31.05,28.46 31.05,49.16l0 745.12zm212.16 -85.38c-2.59,0 -2.59,0 -5.18,0 -15.52,0 -28.46,-5.17 -38.81,-15.52l-7.76 -7.76c-18.11,-18.11 -20.7,-49.16 -5.17,-72.44 41.39,-56.92 62.09,-121.6 62.09,-191.46 0,-75.03 -25.87,-144.88 -72.44,-201.8 -18.11,-20.7 -15.53,-54.33 2.59,-75.03l7.76 -7.76c10.35,-10.35 25.87,-18.11 41.39,-15.53 15.53,0 31.05,7.77 38.81,20.7 64.69,80.21 98.32,175.93 98.32,279.42 0,95.73 -31.05,186.28 -87.97,263.9 -2.59,15.52 -18.11,23.28 -33.63,23.28l0 0zm227.67 170.76c-10.35,12.94 -23.29,18.11 -38.81,20.7 0,0 -2.59,0 -2.59,0 -15.52,0 -28.46,-5.17 -38.81,-15.52l-7.76 -7.77c-20.69,-20.69 -20.69,-51.74 -2.59,-75.02 87.97,-106.08 137.13,-240.62 137.13,-377.74 0,-144.88 -51.75,-282.01 -147.48,-390.67 -18.11,-20.7 -18.11,-54.34 2.59,-75.03l7.76 -7.76c10.35,-10.35 25.88,-15.53 41.4,-15.53 15.52,0 28.46,7.76 38.81,18.11 113.84,129.36 178.52,297.54 178.52,470.88 0,165.58 -59.51,328.58 -168.17,455.35l0 0zm0 0z"/>
    </g>
   </g>
  </g>
 </g>
</svg>
