<svg xmlns="http://www.w3.org/2000/svg" xmlns:xlink="http://www.w3.org/1999/xlink" version="1.1" style="" xml:space="preserve" width="100" height="100"><rect id="backgroundrect" width="100%" height="100%" x="0" y="0" fill="none" stroke="none"/>
<style type="text/css">
	.st0{fill:#FFFFFF;}
</style>

<g class="currentLayer" style=""><title>Layer 1</title><g id="svg_1" class="">
	<g id="svg_2">
		<path class="st0" d="M58.28704769720535,79.00925941810239 c0,1.559902247922162 -0.9749389049513508,3.1198044958443236 -2.3398533718832426,3.7047678388151337 c-0.5849633429708112,0.19498778099027034 -1.1699266859416215,0.3899755619805408 -1.754890028912432,0.3899755619805408 c-0.9749389049513508,0 -1.949877809902702,-0.3899755619805408 -2.729828933863783,-0.9749389049513508 l-22.813570375861612,-18.913814756056208 h-12.089242421396753 c-2.3398533718832426,0 -4.094743400795674,-1.949877809902702 -4.094743400795674,-4.094743400795674 V42.741532153912146 c0,-2.3398533718832426 1.949877809902702,-4.094743400795674 4.094743400795674,-4.094743400795674 h12.089242421396753 l22.813570375861612,-18.913814756056208 c1.1699266859416215,-0.9749389049513508 2.924816714854053,-1.1699266859416215 4.484718962776214,-0.5849633429708112 c1.3649144669318918,0.7799511239610811 2.3398533718832426,2.1448655908929726 2.3398533718832426,3.7047678388151337 V79.00925941810239 zM91.43497046555129,85.44385619078133 " id="svg_3"/>
	</g>
</g></g></svg>