<?xml version="1.0" encoding="UTF-8"?>
<!DOCTYPE svg PUBLIC "-//W3C//DTD SVG 1.1//EN" "http://www.w3.org/Graphics/SVG/1.1/DTD/svg11.dtd">
<!-- Creator: CorelDRAW 2019 (64-Bit Оценочная версия) -->
<svg xmlns="http://www.w3.org/2000/svg" xml:space="preserve" width="1226px" height="1000px" version="1.1" style="shape-rendering:geometricPrecision; text-rendering:geometricPrecision; image-rendering:optimizeQuality; fill-rule:evenodd; clip-rule:evenodd"
viewBox="0 0 1226 1000"
 xmlns:xlink="http://www.w3.org/1999/xlink">
 <defs>
  <style type="text/css">
   <![CDATA[
    .fil0 {fill:white}
   ]]>
  </style>
 </defs>
 <g id="Слой_x0020_1">
  <metadata id="CorelCorpID_0Corel-Layer"/>
  <g id="volume_x0020_off.svg">
   <g>
    <g>
     <path class="fil0" d="M616.26 873.38c0,20.74 -12.96,41.49 -31.11,49.26 -7.78,2.6 -15.56,5.19 -23.33,5.19 -12.97,0 -25.93,-5.19 -36.3,-12.96l-303.33 -251.49 -160.75 0c-31.11,0 -54.44,-25.93 -54.44,-54.44l0 -217.78c0,-31.11 25.93,-54.45 54.44,-54.45l160.75 0 303.33 -251.48c15.56,-12.96 38.89,-15.55 59.63,-7.78 18.15,10.38 31.11,28.52 31.11,49.26l0 746.67zm440.74 85.56z"/>
    </g>
   </g>
  </g>
 </g>
</svg>
