<?xml version="1.0" encoding="UTF-8" standalone="no"?>
<!DOCTYPE svg PUBLIC "-//W3C//DTD SVG 1.1//EN" "http://www.w3.org/Graphics/SVG/1.1/DTD/svg11.dtd">
<svg version="1.1" xmlns="http://www.w3.org/2000/svg" xmlns:xlink="http://www.w3.org/1999/xlink" preserveAspectRatio="xMidYMid meet" viewBox="0 0 100 100" width="100" height="100"><defs><path d="M23.69 19.13C25.33 19.13 26.68 17.79 26.68 16.15C26.68 14.51 25.33 13.17 23.69 13.17C22.2 13.17 10.28 13.17 8.79 13.17C7.15 13.17 5.81 14.51 5.81 16.15C5.81 17.94 7.15 19.13 8.79 19.13C11.77 19.13 22.2 19.13 23.69 19.13Z" id="iUCCh401z"></path><path d="M26.68 39.7C26.68 38.06 25.33 36.72 23.69 36.72C22.2 36.72 10.28 36.72 8.79 36.72C7.15 36.72 5.81 38.06 5.81 39.7C5.81 41.34 7.15 42.68 8.79 42.68C9.79 42.68 14.75 42.68 23.69 42.68C25.68 41.79 26.68 40.79 26.68 39.7Z" id="bnOFrd1uS"></path><path d="M17.88 30.91C19.52 30.91 20.86 29.57 20.86 27.93C20.86 26.29 19.52 24.95 17.88 24.95C16.39 24.95 4.47 24.95 2.98 24.95C1.34 24.95 0 26.29 0 27.93C0 29.57 1.34 30.91 2.98 30.91C5.96 30.91 16.39 30.91 17.88 30.91Z" id="defF0oXBa"></path><path d="M76.45 39.7C76.45 32.64 76.45 28.71 76.45 27.93C76.45 22.71 70.19 20.03 66.46 23.75C64.11 26.11 45.27 44.94 42.92 47.3C40.68 49.53 40.68 53.26 42.92 55.64C43.81 56.54 48.28 61.01 56.33 69.06C46.5 78.89 41.03 84.36 39.94 85.45C37.7 87.68 37.7 91.41 39.94 93.79C42.17 96.03 45.9 96.03 48.28 93.79C50.34 91.74 66.79 75.29 68.85 73.23C71.08 70.99 71.08 67.27 68.85 64.88C67.95 63.99 63.48 59.52 55.44 51.47L64.68 42.23C64.68 44.29 64.68 45.43 64.68 45.66C64.68 48.94 67.36 51.47 70.49 51.47C72.86 51.47 91.81 51.47 94.18 51.47C97.46 51.47 99.99 48.79 99.99 45.66C100.14 42.38 97.46 39.7 94.18 39.7C91.82 39.7 85.91 39.7 76.45 39.7Z" id="ar26x5tr0"></path><path d="M52.16 22.41L56.48 25.54C59.88 22.14 61.76 20.26 62.14 19.88C63.04 18.98 64.23 18.24 65.42 17.64C64.33 16.9 55.63 10.94 54.54 10.19C52.16 8.7 49.18 9 47.09 10.94C45.51 12.52 32.87 25.15 31.29 26.73C29.06 28.97 29.06 32.69 31.29 35.08C33.53 37.46 37.26 37.31 39.49 35.08C41.18 33.39 45.4 29.17 52.16 22.41Z" id="a1aH807ASE"></path><path d="M35.91 54.45C32.8 57.55 7.88 82.35 4.77 85.45C2.53 87.68 2.53 91.41 4.77 93.79C7 96.03 10.73 96.03 13.11 93.79C15.1 91.81 25.04 81.87 42.92 63.99L38.89 59.82C37.21 57.63 36.21 55.84 35.91 54.45Z" id="c9cf2FhUZ"></path><path d="M79.43 4.53C74.57 4.53 70.64 8.47 70.64 13.32C70.64 18.18 74.57 22.11 79.43 22.11C84.28 22.11 88.22 18.18 88.22 13.32C88.22 8.47 84.28 4.53 79.43 4.53Z" id="c11wJ18QWa"></path></defs><g><g><path></path><path></path><path></path><path></path><g><use xlink:href="#iUCCh401z" opacity="1" fill="#448dbc" fill-opacity="1"></use><g><use xlink:href="#iUCCh401z" opacity="1" fill-opacity="0" stroke="#000000" stroke-width="1" stroke-opacity="0"></use></g></g><g><use xlink:href="#bnOFrd1uS" opacity="1" fill="#448dbc" fill-opacity="1"></use><g><use xlink:href="#bnOFrd1uS" opacity="1" fill-opacity="0" stroke="#000000" stroke-width="1" stroke-opacity="0"></use></g></g><g><use xlink:href="#defF0oXBa" opacity="1" fill="#448dbc" fill-opacity="1"></use><g><use xlink:href="#defF0oXBa" opacity="1" fill-opacity="0" stroke="#000000" stroke-width="1" stroke-opacity="0"></use></g></g><g><use xlink:href="#ar26x5tr0" opacity="1" fill="#448dbc" fill-opacity="1"></use><g><use xlink:href="#ar26x5tr0" opacity="1" fill-opacity="0" stroke="#000000" stroke-width="1" stroke-opacity="0"></use></g></g><g><use xlink:href="#a1aH807ASE" opacity="1" fill="#448dbc" fill-opacity="1"></use><g><use xlink:href="#a1aH807ASE" opacity="1" fill-opacity="0" stroke="#000000" stroke-width="1" stroke-opacity="0"></use></g></g><g><use xlink:href="#c9cf2FhUZ" opacity="1" fill="#448dbc" fill-opacity="1"></use><g><use xlink:href="#c9cf2FhUZ" opacity="1" fill-opacity="0" stroke="#000000" stroke-width="1" stroke-opacity="0"></use></g></g><g><use xlink:href="#c11wJ18QWa" opacity="1" fill="#448dbc" fill-opacity="1"></use><g><use xlink:href="#c11wJ18QWa" opacity="1" fill-opacity="0" stroke="#000000" stroke-width="1" stroke-opacity="0"></use></g></g></g></g></svg>