<?xml version="1.0" encoding="UTF-8" standalone="no"?>
<!DOCTYPE svg PUBLIC "-//W3C//DTD SVG 1.1//EN" "http://www.w3.org/Graphics/SVG/1.1/DTD/svg11.dtd">
<svg version="1.1" xmlns="http://www.w3.org/2000/svg" xmlns:xlink="http://www.w3.org/1999/xlink" preserveAspectRatio="xMidYMid meet" viewBox="0 0 100 100" width="100" height="100"><defs><path d="M61.3 60.03L61.3 68.93L35.17 68.93L35.17 60.03L61.3 60.03Z" id="dG3Knmd2V"></path><path d="M49.29 0L49.5 0.01L49.71 0.01L49.92 0.02L50.13 0.03L50.34 0.04L50.55 0.05L50.76 0.06L50.96 0.07L51.17 0.09L51.37 0.1L51.58 0.12L51.78 0.14L51.99 0.16L52.19 0.18L52.4 0.2L52.6 0.22L52.8 0.24L53 0.26L53.2 0.29L53.4 0.31L53.6 0.34L53.8 0.37L54 0.39L54.2 0.42L54.4 0.45L54.59 0.48L54.79 0.51L54.99 0.54L55.18 0.57L55.38 0.6L55.57 0.63L55.77 0.66L55.96 0.69L56.15 0.72L56.35 0.75L56.54 0.78L56.73 0.82L56.92 0.85L56.84 0.95L56.75 1.06L56.66 1.17L56.58 1.28L56.49 1.4L56.41 1.51L56.32 1.63L56.24 1.75L56.15 1.88L56.07 2L55.99 2.13L55.9 2.26L55.82 2.39L55.74 2.53L55.66 2.67L55.59 2.81L55.51 2.95L55.44 3.1L55.37 3.25L55.3 3.41L55.23 3.57L55.16 3.73L55.1 3.89L55.04 4.06L54.98 4.23L54.93 4.41L54.87 4.59L54.82 4.78L54.78 4.96L54.74 5.16L54.7 5.36L54.66 5.56L54.63 5.76L54.6 5.97L54.58 6.19L54.56 6.41L54.54 6.64L54.53 6.87L54.52 7.1L54.52 7.34L54.52 7.61L54.53 7.86L54.54 8.11L54.56 8.35L54.58 8.59L54.61 8.82L54.64 9.05L54.68 9.27L54.71 9.49L54.76 9.7L54.8 9.9L54.86 10.1L54.91 10.29L54.97 10.48L55.03 10.67L55.09 10.85L55.16 11.03L55.22 11.2L55.29 11.37L55.37 11.53L55.44 11.69L55.52 11.84L55.6 12L55.68 12.14L55.76 12.29L55.84 12.43L55.93 12.57L56.01 12.7L56.1 12.84L56.19 12.97L56.28 13.09L56.36 13.22L56.45 13.34L56.54 13.46L56.63 13.57L56.72 13.69L56.8 13.8L56.89 13.91L56.98 14.02L57.06 14.12L57.12 14.2L57.19 14.27L57.25 14.34L57.3 14.41L57.36 14.48L57.41 14.55L57.47 14.62L57.52 14.69L57.57 14.76L57.62 14.83L57.67 14.9L57.71 14.96L57.75 15.03L57.8 15.1L57.84 15.17L57.88 15.24L57.91 15.31L57.95 15.38L57.98 15.45L58.02 15.52L58.05 15.59L58.08 15.66L58.1 15.74L58.13 15.81L58.15 15.89L58.18 15.97L58.2 16.04L58.22 16.12L58.24 16.21L58.25 16.29L58.27 16.37L58.28 16.46L58.29 16.55L58.3 16.64L58.31 16.73L58.32 16.83L58.33 16.93L58.33 17.02L58.33 17.13L58.33 17.23L58.33 17.34L58.33 17.44L58.33 17.54L58.32 17.63L58.31 17.72L58.3 17.81L58.29 17.9L58.28 17.99L58.27 18.07L58.25 18.15L58.24 18.23L58.22 18.31L58.2 18.39L58.18 18.46L58.15 18.54L58.13 18.61L58.1 18.68L58.08 18.75L58.05 18.82L58.02 18.89L57.98 18.96L57.95 19.03L57.91 19.1L57.88 19.16L57.84 19.23L57.8 19.3L57.75 19.37L57.71 19.44L57.67 19.51L57.62 19.58L57.57 19.65L57.52 19.72L57.47 19.79L57.41 19.86L57.36 19.94L57.3 20.02L57.25 20.09L57.19 20.17L57.12 20.26L57.06 20.34L56.98 20.45L56.89 20.55L56.8 20.66L56.72 20.78L56.63 20.89L56.54 21.01L56.45 21.13L56.36 21.25L56.28 21.37L56.19 21.5L56.1 21.63L56.01 21.76L55.93 21.89L55.84 22.03L55.76 22.17L55.68 22.32L55.6 22.47L55.52 22.62L55.44 22.77L55.37 22.93L55.29 23.1L55.22 23.27L55.16 23.44L55.09 23.61L55.03 23.79L54.97 23.98L54.91 24.17L54.86 24.36L54.8 24.56L54.76 24.77L54.71 24.98L54.68 25.19L54.64 25.41L54.61 25.64L54.58 25.87L54.56 26.11L54.54 26.35L54.53 26.6L54.52 26.86L54.52 27.12L54.52 27.38L54.53 27.64L54.55 27.89L54.56 28.13L54.59 28.37L54.62 28.6L54.65 28.82L54.69 29.05L54.73 29.26L54.78 29.47L54.83 29.68L54.88 29.88L54.94 30.07L55 30.26L55.06 30.45L55.13 30.63L55.2 30.81L55.27 30.98L55.34 31.15L55.42 31.32L55.5 31.48L55.58 31.64L55.66 31.8L55.74 31.95L55.82 32.1L55.91 32.24L55.99 32.39L56.08 32.53L56.16 32.66L56.25 32.8L56.33 32.93L56.42 33.06L56.5 33.19L56.59 33.32L56.67 33.44L56.75 33.56L56.83 33.68L56.91 33.8L56.99 33.92L57.06 34.04L57.07 34.04L57.08 34.04L57.09 34.04L57.1 34.04L57.11 34.05L57.12 34.05L57.12 34.05L57.13 34.06L57.14 34.06L57.15 34.06L57.15 34.07L57.16 34.07L57.16 34.08L57.17 34.09L57.18 34.09L57.18 34.1L57.19 34.11L57.19 34.11L57.2 34.12L57.2 34.13L57.21 34.14L57.21 34.14L57.22 34.15L57.22 34.16L57.23 34.17L57.24 34.19L57.25 34.2L57.25 34.21L57.26 34.22L57.27 34.23L57.27 34.24L57.28 34.25L57.29 34.26L57.3 34.27L57.31 34.28L57.32 34.29L57.32 34.3L57.33 34.31L57.34 34.32L59.46 42.94L87.57 42.94L87.57 48.73L82.34 48.73L82.34 100L14.27 100L14.27 48.73L9.04 48.73L9.04 42.94L35.03 42.94L37.15 34.6L27.26 34.6L27.73 33.81L28.18 33.02L28.6 32.24L29 31.46L29.37 30.68L29.72 29.91L30.04 29.15L30.34 28.38L30.62 27.63L30.87 26.88L31.11 26.13L31.32 25.39L31.51 24.66L31.68 23.94L31.84 23.22L31.97 22.5L32.08 21.8L32.18 21.1L32.26 20.41L32.33 19.72L32.37 19.04L32.41 18.38L32.42 17.71L32.43 17.06L32.41 16.42L32.39 15.78L32.35 15.16L32.3 14.54L32.24 13.93L32.17 13.33L32.08 12.74L31.99 12.16L31.88 11.59L31.77 11.04L31.65 10.49L31.52 9.95L31.38 9.42L31.24 8.91L31.09 8.4L30.93 7.91L30.86 7.68L30.78 7.45L30.71 7.22L30.63 6.99L30.55 6.77L30.47 6.55L30.39 6.33L30.31 6.11L30.23 5.9L30.14 5.68L30.06 5.47L29.97 5.26L29.89 5.05L29.8 4.85L29.72 4.64L29.63 4.44L29.54 4.24L29.45 4.05L29.36 3.85L29.27 3.65L29.18 3.46L29.09 3.27L29 3.08L28.91 2.9L28.82 2.71L28.72 2.53L28.63 2.35L28.54 2.17L28.44 1.99L28.35 1.81L28.26 1.64L28.16 1.46L28.07 1.29L27.97 1.12L27.88 0.96L27.78 0.79L27.69 0.63L27.59 0.46L27.5 0.3L27.4 0.14L42.94 0.14L42.93 0.21L42.92 0.29L42.9 0.35L42.89 0.42L42.88 0.49L42.86 0.55L42.85 0.61L42.84 0.67L42.82 0.73L42.8 0.79L42.79 0.85L42.77 0.91L42.75 0.96L42.73 1.01L42.71 1.07L42.69 1.12L42.67 1.17L42.65 1.22L42.63 1.27L42.6 1.32L42.58 1.37L42.55 1.42L42.53 1.47L42.5 1.52L42.47 1.57L42.44 1.62L42.42 1.68L42.39 1.73L42.35 1.78L42.32 1.83L42.29 1.88L42.26 1.94L42.22 1.99L42.18 2.05L42.15 2.1L42.11 2.16L42.07 2.22L42.03 2.28L41.99 2.34L41.95 2.4L41.88 2.5L41.82 2.6L41.75 2.69L41.68 2.8L41.61 2.9L41.54 3.01L41.47 3.11L41.4 3.22L41.33 3.33L41.26 3.45L41.19 3.57L41.12 3.69L41.05 3.81L40.98 3.93L40.91 4.06L40.84 4.19L40.77 4.33L40.7 4.46L40.64 4.61L40.57 4.75L40.51 4.9L40.45 5.05L40.39 5.2L40.33 5.36L40.28 5.52L40.22 5.69L40.18 5.86L40.13 6.03L40.08 6.21L40.04 6.39L40 6.58L39.97 6.77L39.94 6.97L39.91 7.17L39.89 7.37L39.87 7.58L39.85 7.8L39.84 8.02L39.83 8.24L39.83 8.47L39.83 8.7L39.84 8.93L39.85 9.15L39.87 9.37L39.89 9.58L39.91 9.78L39.94 9.98L39.97 10.18L40 10.37L40.04 10.56L40.08 10.74L40.13 10.92L40.18 11.09L40.22 11.26L40.28 11.43L40.33 11.59L40.39 11.75L40.45 11.9L40.51 12.05L40.57 12.2L40.64 12.34L40.7 12.48L40.77 12.62L40.84 12.76L40.91 12.89L40.98 13.02L41.05 13.14L41.12 13.26L41.19 13.38L41.26 13.5L41.33 13.61L41.4 13.73L41.47 13.84L41.54 13.94L41.61 14.05L41.68 14.15L41.75 14.25L41.82 14.35L41.88 14.45L41.95 14.55L42 14.62L42.05 14.69L42.1 14.76L42.15 14.83L42.19 14.9L42.24 14.97L42.28 15.03L42.32 15.1L42.36 15.16L42.4 15.23L42.44 15.29L42.47 15.35L42.51 15.42L42.54 15.48L42.57 15.54L42.6 15.6L42.63 15.67L42.66 15.73L42.68 15.79L42.71 15.85L42.73 15.92L42.75 15.98L42.77 16.05L42.79 16.11L42.81 16.18L42.83 16.25L42.84 16.32L42.86 16.39L42.87 16.46L42.88 16.53L42.89 16.61L42.9 16.69L42.91 16.76L42.92 16.84L42.92 16.93L42.93 17.01L42.93 17.1L42.94 17.19L42.94 17.28L42.94 17.37L42.94 17.48L42.94 17.58L42.93 17.67L42.93 17.77L42.92 17.86L42.92 17.95L42.91 18.03L42.9 18.11L42.89 18.19L42.88 18.27L42.87 18.35L42.86 18.42L42.84 18.49L42.83 18.56L42.81 18.63L42.79 18.69L42.77 18.76L42.75 18.82L42.73 18.88L42.71 18.94L42.68 19L42.66 19.06L42.63 19.12L42.6 19.18L42.57 19.24L42.54 19.3L42.51 19.36L42.47 19.42L42.44 19.48L42.4 19.54L42.36 19.6L42.32 19.66L42.28 19.72L42.24 19.79L42.19 19.85L42.15 19.92L42.1 19.98L42.05 20.05L42 20.12L41.95 20.2L41.88 20.29L41.82 20.39L41.75 20.49L41.68 20.59L41.61 20.7L41.54 20.8L41.47 20.91L41.4 21.02L41.33 21.13L41.26 21.25L41.19 21.36L41.12 21.48L41.05 21.61L40.98 21.73L40.91 21.86L40.84 21.99L40.77 22.12L40.7 22.26L40.64 22.4L40.57 22.55L40.51 22.69L40.45 22.84L40.39 23L40.33 23.16L40.28 23.32L40.22 23.49L40.18 23.66L40.13 23.83L40.08 24.01L40.04 24.19L40 24.38L39.97 24.57L39.94 24.76L39.91 24.96L39.89 25.17L39.87 25.38L39.85 25.6L39.84 25.82L39.83 26.04L39.83 26.27L39.83 26.5L39.84 26.73L39.85 26.95L39.87 27.16L39.89 27.37L39.91 27.58L39.94 27.78L39.97 27.97L40 28.17L40.04 28.35L40.08 28.53L40.13 28.71L40.18 28.89L40.22 29.06L40.28 29.22L40.33 29.39L40.39 29.54L40.45 29.7L40.51 29.85L40.57 30L40.64 30.14L40.7 30.28L40.77 30.42L40.84 30.55L40.91 30.68L40.98 30.81L41.05 30.94L41.12 31.06L41.19 31.18L41.26 31.3L41.33 31.41L41.4 31.52L41.47 31.63L41.54 31.74L41.61 31.85L41.68 31.95L41.75 32.05L41.82 32.15L41.88 32.25L41.95 32.34L41.99 32.42L42.03 32.49L42.07 32.56L42.11 32.63L42.15 32.69L42.19 32.76L42.23 32.82L42.27 32.88L42.31 32.94L42.34 33L42.38 33.06L42.41 33.12L42.45 33.18L42.48 33.24L42.51 33.29L42.54 33.35L42.57 33.41L42.6 33.46L42.63 33.52L42.66 33.58L42.68 33.64L42.71 33.7L42.73 33.76L42.75 33.82L42.77 33.88L42.79 33.94L42.81 34.01L42.83 34.07L42.85 34.14L42.86 34.21L42.88 34.28L42.89 34.36L42.9 34.43L42.91 34.51L42.92 34.59L42.93 34.67L42.93 34.76L42.93 34.84L42.94 34.93L42.94 35.03L40.96 42.94L53.39 42.94L51.27 34.46L51.22 34.47L51.16 34.48L51.11 34.49L51.06 34.5L51 34.51L50.94 34.52L50.89 34.53L50.83 34.53L50.77 34.54L50.72 34.54L50.66 34.55L50.6 34.56L50.54 34.56L50.48 34.57L50.42 34.57L50.36 34.57L50.31 34.58L50.24 34.58L50.18 34.58L50.12 34.59L50.06 34.59L50 34.59L49.94 34.59L49.88 34.6L49.82 34.6L49.75 34.6L49.69 34.6L49.63 34.6L49.57 34.6L49.5 34.6L49.44 34.6L49.38 34.6L49.31 34.6L49.25 34.6L49.19 34.6L49.12 34.6L49.06 34.6L49 34.6L48.87 34.6L48.86 34.41L48.84 34.21L48.82 34.02L48.8 33.83L48.77 33.64L48.74 33.46L48.71 33.28L48.68 33.11L48.64 32.94L48.6 32.77L48.56 32.61L48.51 32.44L48.46 32.29L48.41 32.13L48.36 31.98L48.31 31.83L48.25 31.69L48.19 31.54L48.14 31.4L48.08 31.27L48.01 31.13L47.95 31L47.89 30.88L47.82 30.75L47.76 30.63L47.69 30.51L47.62 30.39L47.56 30.28L47.49 30.17L47.42 30.06L47.35 29.95L47.28 29.85L47.22 29.74L47.15 29.64L47.08 29.55L47.01 29.45L46.95 29.36L46.88 29.27L46.82 29.18L46.75 29.1L46.7 29.02L46.65 28.95L46.6 28.88L46.55 28.81L46.51 28.75L46.46 28.68L46.42 28.62L46.38 28.56L46.34 28.5L46.3 28.44L46.26 28.38L46.23 28.32L46.19 28.26L46.16 28.2L46.13 28.14L46.1 28.08L46.07 28.02L46.04 27.96L46.02 27.9L45.99 27.84L45.97 27.78L45.95 27.72L45.93 27.66L45.91 27.59L45.89 27.52L45.87 27.46L45.86 27.39L45.84 27.32L45.83 27.24L45.82 27.17L45.81 27.09L45.8 27.01L45.79 26.93L45.78 26.85L45.78 26.76L45.77 26.67L45.77 26.57L45.76 26.48L45.76 26.38L45.76 26.27L45.76 26.17L45.76 26.07L45.77 25.97L45.77 25.88L45.78 25.78L45.78 25.7L45.79 25.61L45.8 25.53L45.81 25.45L45.82 25.37L45.83 25.3L45.84 25.23L45.86 25.15L45.87 25.08L45.89 25.02L45.91 24.95L45.93 24.89L45.95 24.82L45.97 24.76L45.99 24.7L46.02 24.64L46.04 24.58L46.07 24.52L46.1 24.46L46.13 24.4L46.16 24.34L46.19 24.28L46.23 24.23L46.26 24.17L46.3 24.11L46.34 24.05L46.38 23.98L46.42 23.92L46.46 23.86L46.51 23.79L46.55 23.73L46.6 23.66L46.65 23.59L46.7 23.52L46.75 23.45L46.83 23.35L46.9 23.25L46.98 23.15L47.05 23.05L47.13 22.94L47.2 22.83L47.28 22.72L47.35 22.61L47.43 22.49L47.5 22.38L47.57 22.25L47.65 22.13L47.72 22L47.79 21.87L47.86 21.74L47.92 21.6L47.99 21.47L48.06 21.32L48.12 21.18L48.18 21.03L48.24 20.87L48.3 20.72L48.36 20.56L48.41 20.4L48.46 20.23L48.51 20.06L48.56 19.88L48.6 19.7L48.64 19.52L48.68 19.33L48.71 19.14L48.74 18.95L48.77 18.75L48.8 18.55L48.82 18.34L48.84 18.13L48.85 17.91L48.86 17.69L48.87 17.46L48.87 17.23L48.87 17L48.86 16.78L48.85 16.56L48.83 16.34L48.81 16.13L48.79 15.93L48.76 15.72L48.73 15.53L48.7 15.34L48.66 15.15L48.62 14.97L48.57 14.79L48.53 14.62L48.48 14.45L48.42 14.28L48.37 14.12L48.31 13.96L48.25 13.8L48.19 13.65L48.13 13.51L48.06 13.36L48 13.22L47.93 13.08L47.86 12.95L47.79 12.82L47.72 12.69L47.65 12.57L47.58 12.44L47.51 12.32L47.44 12.21L47.37 12.09L47.3 11.98L47.23 11.87L47.16 11.76L47.09 11.66L47.02 11.55L46.95 11.45L46.88 11.35L46.82 11.25L46.75 11.16L46.7 11.08L46.65 11.01L46.6 10.94L46.55 10.87L46.51 10.81L46.46 10.74L46.42 10.67L46.38 10.61L46.34 10.54L46.3 10.48L46.26 10.42L46.23 10.35L46.19 10.29L46.16 10.23L46.13 10.17L46.1 10.1L46.07 10.04L46.04 9.98L46.02 9.92L45.99 9.85L45.97 9.79L45.95 9.72L45.93 9.66L45.91 9.59L45.89 9.53L45.87 9.46L45.86 9.39L45.84 9.32L45.83 9.25L45.82 9.17L45.81 9.1L45.8 9.02L45.79 8.94L45.78 8.86L45.78 8.78L45.77 8.69L45.77 8.61L45.76 8.52L45.76 8.43L45.76 8.33L45.76 8.23L45.76 8.13L45.77 8.03L45.77 7.94L45.78 7.85L45.78 7.76L45.79 7.67L45.8 7.59L45.81 7.51L45.82 7.44L45.83 7.36L45.84 7.29L45.86 7.22L45.87 7.15L45.89 7.08L45.91 7.01L45.93 6.95L45.95 6.89L45.97 6.82L45.99 6.76L46.02 6.7L46.04 6.64L46.07 6.58L46.1 6.52L46.13 6.46L46.16 6.41L46.19 6.35L46.23 6.29L46.26 6.23L46.3 6.17L46.34 6.11L46.38 6.05L46.42 5.98L46.46 5.92L46.51 5.86L46.55 5.79L46.6 5.72L46.65 5.65L46.7 5.58L46.75 5.51L46.82 5.42L46.88 5.34L46.95 5.25L47.01 5.16L47.08 5.06L47.15 4.97L47.22 4.87L47.28 4.77L47.35 4.67L47.42 4.57L47.49 4.46L47.56 4.35L47.62 4.24L47.69 4.13L47.76 4.01L47.82 3.89L47.89 3.77L47.95 3.65L48.01 3.52L48.08 3.39L48.14 3.26L48.19 3.12L48.25 2.98L48.31 2.83L48.36 2.69L48.41 2.54L48.46 2.38L48.51 2.22L48.56 2.06L48.6 1.89L48.64 1.72L48.68 1.55L48.71 1.37L48.74 1.19L48.77 1L48.8 0.81L48.82 0.61L48.84 0.41L48.86 0.21L48.87 0L49.08 0L49.29 0ZM29.38 74.86L67.23 74.86L67.23 54.1L29.38 54.1L29.38 74.86Z" id="a4gKvnFhCY"></path><path d="M94.07 7.2C94.39 7.03 95.99 6.19 98.87 4.66C95.99 3.14 94.39 2.29 94.07 2.12C91.67 0.85 88.84 0.14 86.16 0.14C80.93 0.14 76.13 2.54 73.02 6.5C70.06 5.08 66.81 3.67 63.14 2.54C62.71 3.25 62.29 3.81 61.86 4.38C61.02 5.51 60.59 6.07 60.59 7.49C60.59 8.9 61.02 9.6 61.86 10.59C62.99 12.01 64.41 13.84 64.41 17.37C64.41 20.9 62.99 22.74 61.86 24.15C61.02 25.28 60.59 25.85 60.59 27.26C60.59 28.67 61.02 29.38 61.86 30.37C62.29 30.93 62.71 31.5 63.14 32.2C66.95 31.07 70.48 29.52 73.45 27.97C76.55 31.64 81.21 33.76 86.16 33.76C88.98 33.76 91.67 33.05 94.07 31.78C94.39 31.61 95.99 30.76 98.87 29.24C95.99 27.71 94.39 26.86 94.07 26.69C90.4 24.58 88.28 20.9 88.28 16.81C88.28 12.71 90.54 9.04 94.07 7.2Z" id="bl73AiKpl"></path><path d="M21.01 0.9L21.3 1.32L21.59 1.76L21.9 2.24L22.21 2.74L22.53 3.26L22.85 3.81L23.16 4.39L23.48 4.98L23.79 5.6L24.09 6.24L24.39 6.9L24.67 7.58L24.94 8.29L25.19 9.01L25.42 9.75L25.83 11.22L26.14 12.69L26.37 14.16L26.51 15.62L26.56 17.09L26.53 18.55L26.4 20.01L26.18 21.47L25.88 22.92L25.48 24.37L25 25.81L24.42 27.24L23.76 28.67L23 30.1L22.16 31.51L21.22 32.92L20.2 34.32L19.59 34.18L18.98 33.99L18.35 33.76L17.71 33.5L17.06 33.19L16.4 32.84L15.73 32.45L15.05 32.03L14.36 31.56L13.66 31.05L12.95 30.51L12.22 29.92L11.49 29.3L10.75 28.63L10 27.93L9.24 27.19L8.47 26.41L7.86 25.77L7.27 25.12L6.71 24.49L6.16 23.87L5.65 23.26L5.17 22.68L4.71 22.12L4.29 21.6L3.91 21.1L3.56 20.65L3.24 20.24L2.97 19.88L2.74 19.57L2.55 19.31L2.41 19.12L2.31 18.99L2.26 18.93L1.13 17.23L2.4 15.54L2.43 15.48L2.51 15.35L2.64 15.15L2.82 14.9L3.05 14.59L3.32 14.22L3.64 13.81L3.99 13.36L4.39 12.87L4.81 12.34L5.27 11.78L5.77 11.2L6.29 10.6L6.84 9.98L7.41 9.34L8 8.7L8.62 8.05L9.41 7.25L10.18 6.49L10.94 5.78L11.69 5.11L12.43 4.48L13.16 3.89L13.87 3.35L14.57 2.85L15.26 2.39L15.95 1.97L16.62 1.59L17.28 1.25L17.94 0.95L18.58 0.69L19.22 0.47L19.85 0.28L20.48 0.14L20.74 0.5L21.01 0.9ZM14.97 11.35L14.31 12.3L14.12 13.42L14.41 14.6L15.02 15.54L15.93 16.16L17.09 16.38L18.21 16.16L19.16 15.54L19.81 14.6L20.06 13.42L19.77 12.24L19.16 11.3L18.25 10.68L17.09 10.45L15.95 10.7L14.97 11.35Z" id="a1mZoM02lI"></path></defs><g><g><path></path><path></path><path></path><path></path><g><use xlink:href="#dG3Knmd2V" opacity="1" fill="#448dbc" fill-opacity="1"></use><g><use xlink:href="#dG3Knmd2V" opacity="1" fill-opacity="0" stroke="#000000" stroke-width="1" stroke-opacity="0"></use></g></g><g><use xlink:href="#a4gKvnFhCY" opacity="1" fill="#448dbc" fill-opacity="1"></use><g><use xlink:href="#a4gKvnFhCY" opacity="1" fill-opacity="0" stroke="#000000" stroke-width="1" stroke-opacity="0"></use></g></g><g><use xlink:href="#bl73AiKpl" opacity="1" fill="#448dbc" fill-opacity="1"></use><g><use xlink:href="#bl73AiKpl" opacity="1" fill-opacity="0" stroke="#000000" stroke-width="1" stroke-opacity="0"></use></g></g><g><use xlink:href="#a1mZoM02lI" opacity="1" fill="#448dbc" fill-opacity="1"></use><g><use xlink:href="#a1mZoM02lI" opacity="1" fill-opacity="0" stroke="#000000" stroke-width="1" stroke-opacity="0"></use></g></g></g></g></svg>