<?xml version="1.0" encoding="UTF-8" standalone="no"?>
<!DOCTYPE svg PUBLIC "-//W3C//DTD SVG 1.1//EN" "http://www.w3.org/Graphics/SVG/1.1/DTD/svg11.dtd">
<svg version="1.1" xmlns="http://www.w3.org/2000/svg" xmlns:xlink="http://www.w3.org/1999/xlink" preserveAspectRatio="xMidYMid meet" viewBox="0 0 100 100" width="100" height="100"><defs><path d="M57.08 0.01L57.22 0.02L57.35 0.04L57.48 0.06L57.6 0.08L57.72 0.11L57.84 0.14L57.96 0.18L58.07 0.22L58.18 0.27L58.29 0.32L58.39 0.37L58.49 0.43L58.59 0.49L58.68 0.55L58.77 0.62L58.86 0.69L58.94 0.77L59.02 0.84L59.1 0.92L59.18 1.01L59.25 1.1L59.31 1.19L59.38 1.28L59.44 1.38L59.5 1.47L59.55 1.58L59.61 1.68L59.65 1.79L59.7 1.9L59.74 2.01L59.78 2.12L59.81 2.24L59.84 2.36L59.87 2.48L59.89 2.6L59.91 2.73L59.93 2.85L59.95 2.98L59.98 3.26L60.03 3.53L60.08 3.8L60.13 4.06L60.2 4.31L60.26 4.55L60.34 4.79L60.42 5.03L60.5 5.25L60.59 5.48L60.69 5.69L60.79 5.9L60.9 6.11L61.02 6.3L61.14 6.5L61.26 6.69L61.4 6.87L61.53 7.05L61.68 7.23L61.83 7.4L61.98 7.56L62.15 7.72L62.31 7.88L62.49 8.03L62.67 8.18L62.85 8.33L63.04 8.47L63.24 8.61L63.44 8.74L63.65 8.87L63.87 9L64.09 9.13L64.31 9.25L64.55 9.37L64.79 9.49L65.03 9.6L65.28 9.72L65.54 9.83L65.8 9.94L66.07 10.04L66.35 10.16L66.63 10.27L66.9 10.38L67.18 10.49L67.45 10.6L67.72 10.7L67.99 10.79L68.26 10.88L68.52 10.97L68.79 11.05L69.05 11.13L69.31 11.2L69.57 11.26L69.83 11.32L70.09 11.37L70.34 11.41L70.6 11.45L70.85 11.48L71.11 11.5L71.36 11.51L71.61 11.52L71.87 11.51L72.12 11.5L72.37 11.48L72.62 11.45L72.87 11.4L73.12 11.35L73.37 11.29L73.63 11.21L73.88 11.12L74.13 11.03L74.38 10.92L74.63 10.79L74.89 10.66L75.14 10.51L75.39 10.35L75.65 10.18L75.91 9.99L76.16 9.79L76.42 9.57L76.52 9.49L76.61 9.42L76.71 9.35L76.81 9.28L76.91 9.22L77.01 9.16L77.11 9.11L77.21 9.06L77.31 9.02L77.41 8.98L77.52 8.95L77.62 8.92L77.72 8.89L77.83 8.87L77.93 8.86L78.04 8.85L78.14 8.84L78.25 8.84L78.36 8.84L78.46 8.85L78.57 8.86L78.67 8.87L78.78 8.89L78.89 8.92L78.99 8.95L79.1 8.98L79.2 9.02L79.3 9.06L79.41 9.1L79.51 9.15L79.61 9.21L79.72 9.27L79.82 9.33L79.92 9.4L80.02 9.47L80.12 9.54L80.21 9.62L80.31 9.71L80.41 9.79L80.5 9.89L80.74 10.12L80.97 10.36L81.21 10.59L81.44 10.82L81.68 11.06L81.91 11.29L82.15 11.52L82.39 11.75L82.62 11.98L82.86 12.22L83.09 12.45L83.33 12.68L83.56 12.91L83.8 13.14L84.03 13.37L84.27 13.6L84.5 13.83L84.74 14.06L84.97 14.29L85.45 14.75L85.68 14.97L85.92 15.2L86.15 15.43L86.39 15.66L86.62 15.89L86.86 16.12L87.09 16.35L87.33 16.58L87.56 16.82L87.8 17.05L88.03 17.28L88.27 17.51L88.51 17.74L88.74 17.97L88.98 18.21L89.21 18.44L89.45 18.68L89.68 18.91L89.92 19.14L90.02 19.25L90.12 19.36L90.21 19.47L90.3 19.58L90.39 19.69L90.47 19.8L90.54 19.91L90.61 20.03L90.68 20.14L90.74 20.26L90.79 20.37L90.85 20.49L90.89 20.61L90.93 20.72L90.97 20.84L91 20.96L91.03 21.08L91.05 21.2L91.06 21.32L91.07 21.44L91.08 21.56L91.08 21.68L91.08 21.8L91.07 21.92L91.06 22.05L91.04 22.17L91.01 22.29L90.98 22.41L90.95 22.53L90.91 22.65L90.87 22.77L90.82 22.9L90.76 23.02L90.7 23.14L90.64 23.26L90.57 23.38L90.49 23.5L90.41 23.62L90.32 23.73L90.23 23.85L90.06 24.08L89.9 24.3L89.74 24.52L89.6 24.74L89.46 24.96L89.34 25.19L89.22 25.41L89.11 25.63L89.01 25.85L88.92 26.07L88.84 26.29L88.77 26.51L88.7 26.74L88.64 26.96L88.59 27.18L88.55 27.41L88.52 27.63L88.49 27.85L88.48 28.08L88.47 28.31L88.46 28.53L88.47 28.76L88.48 28.99L88.5 29.22L88.53 29.45L88.57 29.68L88.61 29.92L88.66 30.15L88.71 30.39L88.78 30.63L88.84 30.87L88.92 31.11L89 31.35L89.09 31.6L89.19 31.84L89.29 32.09L89.4 32.34L89.51 32.6L89.63 32.85L89.76 33.11L89.88 33.38L90 33.65L90.11 33.91L90.23 34.17L90.35 34.43L90.47 34.69L90.59 34.94L90.71 35.18L90.83 35.43L90.96 35.67L91.09 35.9L91.22 36.13L91.35 36.36L91.49 36.58L91.63 36.8L91.78 37.01L91.93 37.22L92.08 37.42L92.24 37.61L92.41 37.8L92.58 37.98L92.76 38.16L92.94 38.33L93.13 38.49L93.32 38.64L93.53 38.79L93.74 38.93L93.96 39.07L94.18 39.19L94.42 39.31L94.66 39.42L94.91 39.52L95.17 39.62L95.45 39.7L95.73 39.78L96.02 39.84L96.32 39.9L96.63 39.95L96.96 39.99L97.29 40.02L97.42 40.03L97.55 40.05L97.67 40.07L97.79 40.1L97.9 40.13L98.02 40.17L98.13 40.21L98.23 40.25L98.34 40.3L98.44 40.35L98.54 40.41L98.63 40.47L98.73 40.53L98.82 40.6L98.9 40.67L98.99 40.75L99.07 40.82L99.15 40.9L99.22 40.99L99.29 41.07L99.36 41.16L99.43 41.26L99.49 41.35L99.55 41.45L99.61 41.55L99.66 41.65L99.72 41.76L99.76 41.87L99.81 41.98L99.85 42.09L99.89 42.2L99.93 42.32L99.96 42.44L99.99 42.56L100.02 42.68L100.05 42.8L100.07 42.93L100.09 43.05L100.1 43.18L100.12 43.31L100.12 43.39L100.12 43.48L100.12 43.56L100.13 43.64L100.13 43.72L100.14 43.81L100.14 43.89L100.15 43.97L100.16 44.05L100.17 44.13L100.18 44.22L100.19 44.3L100.2 44.38L100.21 44.46L100.22 44.55L100.23 44.63L100.24 44.71L100.25 44.79L100.26 44.88L100.29 45.04L100.3 45.12L100.31 45.21L100.32 45.29L100.33 45.37L100.34 45.45L100.35 45.54L100.36 45.62L100.37 45.7L100.38 45.78L100.39 45.87L100.4 45.95L100.41 46.03L100.41 46.11L100.42 46.19L100.42 46.28L100.43 46.36L100.43 46.44L100.43 46.52L100.43 46.61L100.43 49.9L100.37 49.94L100.32 49.97L100.27 50L100.22 50.03L100.18 50.06L100.14 50.08L100.1 50.11L100.06 50.13L100.03 50.15L100 50.17L99.97 50.19L99.95 50.21L99.93 50.23L99.91 50.24L99.89 50.26L99.87 50.27L99.86 50.28L99.84 50.29L99.83 50.3L99.82 50.31L99.82 50.32L99.81 50.33L99.8 50.34L99.8 50.34L99.8 50.35L99.79 50.35L99.79 50.36L99.79 50.36L99.79 50.36L99.79 50.37L99.79 50.37L99.79 50.37L99.8 50.37L99.8 50.37L99.8 50.37L99.79 50.53L99.78 50.68L99.77 50.83L99.75 50.99L99.74 51.14L99.72 51.3L99.71 51.46L99.69 51.61L99.68 51.77L99.66 51.93L99.65 52.08L99.63 52.24L99.62 52.4L99.6 52.56L99.59 52.72L99.57 52.88L99.55 53.03L99.54 53.19L99.52 53.35L99.51 53.51L99.5 53.67L99.48 53.83L99.47 53.99L99.45 54.15L99.44 54.3L99.43 54.46L99.42 54.62L99.41 54.78L99.39 54.94L99.38 55.1L99.38 55.25L99.37 55.41L99.36 55.57L99.35 55.72L99.35 55.88L99.34 56.03L99.34 56.19L99.34 56.34L99.33 56.5L99.33 56.65L99.32 56.79L99.3 56.93L99.29 57.07L99.27 57.2L99.24 57.33L99.22 57.46L99.19 57.59L99.16 57.72L99.13 57.84L99.09 57.96L99.05 58.08L99.01 58.2L98.97 58.31L98.92 58.42L98.87 58.53L98.81 58.63L98.76 58.74L98.7 58.83L98.63 58.93L98.57 59.02L98.5 59.11L98.43 59.2L98.35 59.28L98.27 59.36L98.19 59.44L98.1 59.51L98.01 59.58L97.92 59.64L97.82 59.7L97.72 59.76L97.62 59.81L97.51 59.86L97.4 59.91L97.28 59.95L97.16 59.99L97.04 60.02L96.91 60.05L96.78 60.07L96.65 60.09L96.51 60.1L96.21 60.14L95.91 60.19L95.63 60.24L95.35 60.3L95.08 60.37L94.82 60.44L94.57 60.52L94.33 60.61L94.09 60.7L93.86 60.8L93.63 60.9L93.42 61.02L93.21 61.14L93 61.26L92.8 61.39L92.61 61.53L92.43 61.67L92.24 61.82L92.07 61.98L91.9 62.14L91.73 62.31L91.57 62.48L91.42 62.66L91.27 62.85L91.12 63.04L90.98 63.23L90.84 63.44L90.7 63.64L90.57 63.86L90.44 64.07L90.31 64.3L90.19 64.53L90.07 64.76L89.95 65L89.84 65.24L89.73 65.49L89.61 65.75L89.5 66L89.4 66.27L89.29 66.54L89.17 66.82L89.06 67.1L88.96 67.37L88.85 67.64L88.76 67.91L88.66 68.18L88.58 68.45L88.5 68.71L88.42 68.97L88.35 69.23L88.29 69.49L88.23 69.75L88.18 70L88.13 70.26L88.1 70.51L88.06 70.76L88.04 71.01L88.02 71.26L88.02 71.51L88.01 71.75L88.02 72L88.04 72.25L88.06 72.49L88.09 72.74L88.13 72.98L88.18 73.23L88.24 73.48L88.31 73.72L88.39 73.97L88.47 74.22L88.57 74.46L88.68 74.71L88.79 74.96L88.92 75.21L89.06 75.46L89.21 75.71L89.37 75.97L89.54 76.22L89.72 76.48L89.92 76.74L89.96 76.8L90 76.86L90.04 76.94L90.08 77.01L90.11 77.09L90.14 77.17L90.16 77.26L90.19 77.35L90.21 77.45L90.22 77.55L90.23 77.64L90.25 77.75L90.25 77.85L90.26 77.96L90.26 78.07L90.26 78.17L90.26 78.28L90.25 78.4L90.24 78.51L90.23 78.62L90.22 78.73L90.2 78.84L90.19 78.95L90.17 79.06L90.14 79.17L90.12 79.28L90.09 79.39L90.07 79.49L90.04 79.59L90.01 79.69L89.97 79.79L89.94 79.88L89.9 79.98L89.86 80.06L89.82 80.15L89.78 80.23L89.74 80.3L89.7 80.37L89.65 80.44L89.6 80.5L89.38 80.76L89.15 81.02L88.93 81.27L88.7 81.53L88.47 81.78L88.24 82.04L88.01 82.29L87.78 82.54L87.55 82.79L87.31 83.04L87.08 83.29L86.84 83.53L86.61 83.78L86.37 84.03L86.13 84.27L85.9 84.51L85.66 84.76L85.42 85L85.18 85.24L84.94 85.48L84.69 85.73L84.45 85.97L84.21 86.21L83.97 86.45L83.72 86.68L83.48 86.92L83.23 87.16L82.99 87.4L82.74 87.64L82.5 87.87L82.25 88.11L82.01 88.35L81.76 88.58L81.51 88.82L81.27 89.05L81.02 89.29L80.77 89.53L80.53 89.76L80.28 90L80.03 90.23L79.94 90.32L79.84 90.41L79.74 90.5L79.65 90.57L79.55 90.65L79.45 90.72L79.35 90.79L79.24 90.85L79.14 90.91L79.04 90.96L78.93 91.01L78.83 91.06L78.72 91.1L78.62 91.13L78.51 91.16L78.4 91.19L78.3 91.21L78.19 91.23L78.08 91.24L77.97 91.25L77.86 91.25L77.75 91.25L77.64 91.25L77.53 91.24L77.42 91.22L77.31 91.2L77.21 91.18L77.1 91.15L76.99 91.11L76.88 91.07L76.77 91.02L76.66 90.97L76.55 90.92L76.44 90.86L76.33 90.79L76.22 90.72L76.11 90.65L76.01 90.57L75.9 90.48L75.79 90.39L75.57 90.19L75.35 90.01L75.13 89.84L74.9 89.68L74.68 89.53L74.46 89.39L74.24 89.27L74.02 89.15L73.79 89.04L73.57 88.94L73.35 88.86L73.13 88.78L72.9 88.71L72.68 88.65L72.46 88.6L72.23 88.56L72.01 88.53L71.78 88.51L71.55 88.49L71.32 88.49L71.09 88.49L70.86 88.5L70.63 88.51L70.39 88.54L70.16 88.57L69.92 88.6L69.68 88.65L69.44 88.7L69.2 88.76L68.95 88.82L68.71 88.89L68.46 88.97L68.21 89.05L67.95 89.14L67.7 89.23L67.44 89.32L67.18 89.43L66.91 89.53L66.65 89.65L66.38 89.76L66.09 89.88L65.8 90L65.52 90.12L65.25 90.24L64.98 90.37L64.71 90.49L64.45 90.62L64.2 90.76L63.95 90.89L63.71 91.03L63.48 91.17L63.25 91.31L63.02 91.46L62.81 91.61L62.59 91.77L62.39 91.92L62.19 92.09L62 92.26L61.81 92.43L61.63 92.6L61.46 92.79L61.29 92.97L61.13 93.17L60.98 93.36L60.83 93.57L60.69 93.78L60.56 93.99L60.43 94.22L60.31 94.45L60.2 94.68L60.09 94.92L60 95.17L59.91 95.43L59.82 95.7L59.75 95.97L59.68 96.25L59.61 96.54L59.56 96.83L59.51 97.14L59.47 97.45L59.46 97.52L59.44 97.59L59.42 97.67L59.39 97.74L59.35 97.82L59.32 97.9L59.27 97.98L59.23 98.06L59.18 98.14L59.12 98.21L59.07 98.29L59.01 98.37L58.94 98.45L58.88 98.53L58.81 98.61L58.74 98.69L58.67 98.76L58.59 98.84L58.51 98.91L58.43 98.98L58.35 99.05L58.27 99.12L58.19 99.18L58.11 99.25L58.02 99.31L57.94 99.37L57.85 99.42L57.77 99.47L57.68 99.52L57.6 99.57L57.51 99.61L57.43 99.65L57.35 99.68L57.27 99.71L57.19 99.74L57.11 99.76L57.03 99.78L56.95 99.79L56.88 99.8L56.81 99.8L56.46 99.83L56.12 99.85L55.78 99.87L55.44 99.88L55.09 99.9L54.75 99.92L54.4 99.93L54.06 99.94L53.71 99.95L53.37 99.96L53.02 99.97L52.68 99.98L52.33 99.98L51.98 99.99L51.64 99.99L51.29 99.99L50.94 100L50.6 100L50.25 100L49.9 100L49.55 100L49.21 100L48.86 100L48.51 100L48.17 99.99L47.82 99.99L47.47 99.99L47.13 99.99L46.78 99.98L46.43 99.98L46.09 99.98L45.74 99.97L45.4 99.97L45.05 99.97L44.71 99.97L44.37 99.96L44.02 99.96L43.68 99.96L43.34 99.96L43 99.96L42.87 99.96L42.74 99.95L42.62 99.94L42.49 99.93L42.37 99.91L42.25 99.89L42.14 99.86L42.02 99.83L41.91 99.8L41.8 99.76L41.7 99.72L41.59 99.68L41.49 99.63L41.39 99.58L41.3 99.53L41.2 99.47L41.11 99.41L41.02 99.35L40.94 99.28L40.86 99.22L40.78 99.14L40.71 99.07L40.64 98.99L40.57 98.91L40.5 98.83L40.44 98.74L40.39 98.65L40.33 98.56L40.28 98.47L40.24 98.37L40.2 98.27L40.16 98.17L40.13 98.07L40.1 97.97L40.07 97.86L40.05 97.75L40.04 97.64L40.03 97.52L40.02 97.41L40.02 97.29L39.99 96.99L39.95 96.7L39.91 96.41L39.86 96.14L39.8 95.87L39.74 95.61L39.67 95.36L39.59 95.11L39.5 94.87L39.41 94.64L39.31 94.42L39.2 94.2L39.08 93.99L38.96 93.78L38.84 93.58L38.7 93.39L38.56 93.2L38.41 93.01L38.25 92.84L38.09 92.66L37.93 92.5L37.75 92.33L37.57 92.17L37.38 92.02L37.19 91.87L36.99 91.72L36.78 91.57L36.57 91.43L36.36 91.29L36.13 91.16L35.9 91.03L35.67 90.9L35.43 90.77L35.18 90.64L34.93 90.52L34.67 90.4L34.41 90.27L34.14 90.15L33.86 90.04L33.58 89.92L33.3 89.8L33.02 89.69L32.75 89.58L32.48 89.48L32.21 89.38L31.95 89.28L31.68 89.19L31.42 89.11L31.17 89.03L30.91 88.95L30.66 88.89L30.41 88.82L30.16 88.77L29.91 88.72L29.67 88.67L29.42 88.64L29.18 88.61L28.94 88.59L28.7 88.57L28.46 88.56L28.22 88.57L27.99 88.57L27.75 88.59L27.51 88.62L27.28 88.65L27.04 88.7L26.81 88.75L26.57 88.81L26.34 88.89L26.1 88.97L25.86 89.06L25.63 89.16L25.39 89.28L25.15 89.4L24.91 89.54L24.67 89.68L24.43 89.84L24.19 90.01L23.94 90.19L23.7 90.39L23.6 90.47L23.5 90.54L23.41 90.62L23.31 90.68L23.2 90.75L23.1 90.81L23 90.86L22.89 90.91L22.79 90.96L22.68 91L22.57 91.04L22.46 91.07L22.35 91.1L22.24 91.12L22.13 91.14L22.02 91.16L21.91 91.17L21.8 91.18L21.69 91.18L21.58 91.17L21.47 91.16L21.35 91.15L21.24 91.13L21.13 91.11L21.02 91.08L20.91 91.05L20.8 91.01L20.69 90.97L20.58 90.93L20.47 90.87L20.37 90.82L20.26 90.75L20.16 90.69L20.05 90.62L19.95 90.54L19.85 90.46L19.75 90.37L19.65 90.28L19.55 90.18L19.46 90.07L19.22 89.84L18.99 89.6L18.75 89.37L18.52 89.14L18.28 88.9L18.05 88.67L17.81 88.44L17.58 88.21L17.34 87.98L17.1 87.75L16.87 87.51L16.63 87.28L16.4 87.05L16.16 86.82L15.93 86.59L15.69 86.36L15.46 86.13L15.22 85.9L14.99 85.67L14.52 85.22L14.28 84.99L14.04 84.76L13.81 84.53L13.57 84.3L13.34 84.07L13.1 83.84L12.87 83.61L12.63 83.38L12.4 83.15L12.16 82.91L11.93 82.68L11.69 82.45L11.46 82.22L11.22 81.99L10.98 81.75L10.75 81.52L10.51 81.29L10.28 81.05L10.04 80.82L9.94 80.71L9.84 80.6L9.75 80.49L9.66 80.38L9.57 80.27L9.49 80.16L9.42 80.05L9.35 79.93L9.28 79.82L9.22 79.71L9.17 79.59L9.12 79.47L9.07 79.36L9.03 79.24L8.99 79.12L8.96 79L8.93 78.88L8.91 78.76L8.9 78.64L8.89 78.52L8.88 78.4L8.88 78.28L8.88 78.16L8.89 78.04L8.9 77.92L8.92 77.79L8.95 77.67L8.98 77.55L9.01 77.43L9.05 77.31L9.09 77.19L9.14 77.06L9.2 76.94L9.26 76.82L9.32 76.7L9.39 76.58L9.47 76.46L9.55 76.34L9.64 76.23L9.73 76.11L9.9 75.89L10.06 75.66L10.21 75.44L10.36 75.22L10.49 75L10.61 74.78L10.73 74.57L10.83 74.35L10.93 74.13L11.02 73.91L11.1 73.7L11.17 73.48L11.23 73.26L11.29 73.05L11.33 72.83L11.37 72.61L11.41 72.39L11.43 72.17L11.45 71.95L11.46 71.73L11.46 71.51L11.45 71.29L11.44 71.07L11.42 70.84L11.4 70.62L11.37 70.39L11.33 70.16L11.29 69.93L11.24 69.7L11.19 69.47L11.13 69.23L11.06 68.99L10.99 68.75L10.91 68.51L10.83 68.27L10.75 68.02L10.66 67.77L10.56 67.52L10.46 67.26L10.36 67.01L10.24 66.71L10.12 66.43L10 66.15L9.88 65.87L9.76 65.6L9.63 65.33L9.5 65.07L9.38 64.81L9.24 64.56L9.11 64.31L8.97 64.07L8.83 63.84L8.69 63.61L8.54 63.38L8.38 63.16L8.23 62.95L8.07 62.75L7.9 62.54L7.73 62.35L7.55 62.16L7.37 61.98L7.18 61.8L6.99 61.63L6.79 61.47L6.58 61.31L6.37 61.16L6.14 61.02L5.92 60.88L5.68 60.75L5.44 60.63L5.18 60.51L4.92 60.4L4.65 60.3L4.38 60.21L4.09 60.12L3.79 60.04L3.49 59.96L3.17 59.9L2.85 59.84L2.51 59.79L2.38 59.77L2.26 59.76L2.14 59.73L2.02 59.7L1.91 59.67L1.8 59.64L1.69 59.6L1.59 59.55L1.49 59.5L1.39 59.45L1.3 59.39L1.21 59.33L1.12 59.27L1.04 59.2L0.96 59.13L0.88 59.06L0.81 58.98L0.74 58.9L0.67 58.82L0.61 58.73L0.55 58.64L0.49 58.55L0.44 58.45L0.39 58.35L0.34 58.25L0.3 58.15L0.25 58.04L0.22 57.94L0.18 57.83L0.15 57.71L0.12 57.6L0.1 57.48L0.07 57.37L0.05 57.25L0.04 57.12L0.02 57L0.01 56.88L0.01 56.75L0 56.62L0 56.49L0 43.47L0 43.32L0.01 43.17L0.02 43.02L0.03 42.88L0.05 42.73L0.07 42.59L0.1 42.46L0.13 42.32L0.16 42.19L0.2 42.07L0.24 41.94L0.29 41.82L0.34 41.7L0.39 41.58L0.45 41.47L0.51 41.36L0.57 41.26L0.64 41.15L0.71 41.05L0.78 40.96L0.86 40.86L0.94 40.78L1.03 40.69L1.12 40.61L1.21 40.53L1.31 40.46L1.4 40.39L1.51 40.32L1.61 40.26L1.72 40.2L1.83 40.15L1.95 40.1L2.07 40.05L2.19 40.01L2.31 39.98L2.44 39.94L2.57 39.91L2.71 39.89L2.84 39.87L2.98 39.86L3.28 39.83L3.57 39.8L3.86 39.75L4.13 39.7L4.39 39.65L4.65 39.58L4.89 39.51L5.13 39.43L5.36 39.35L5.59 39.26L5.8 39.16L6.01 39.05L6.21 38.94L6.41 38.82L6.6 38.69L6.78 38.56L6.95 38.43L7.13 38.28L7.29 38.13L7.45 37.98L7.61 37.81L7.76 37.65L7.91 37.47L8.05 37.29L8.2 37.11L8.33 36.92L8.47 36.72L8.6 36.52L8.73 36.32L8.85 36.11L8.98 35.89L9.1 35.67L9.22 35.45L9.34 35.21L9.46 34.98L9.57 34.74L9.69 34.5L9.81 34.25L9.93 34L10.04 33.74L10.17 33.45L10.29 33.16L10.41 32.87L10.52 32.59L10.63 32.31L10.73 32.03L10.82 31.76L10.91 31.49L11 31.22L11.07 30.95L11.14 30.69L11.21 30.42L11.26 30.16L11.31 29.9L11.36 29.65L11.39 29.39L11.42 29.14L11.44 28.89L11.45 28.63L11.46 28.38L11.45 28.13L11.44 27.89L11.42 27.64L11.39 27.39L11.35 27.14L11.3 26.89L11.24 26.65L11.18 26.4L11.1 26.15L11.01 25.9L10.92 25.66L10.81 25.41L10.69 25.16L10.57 24.91L10.43 24.66L10.28 24.4L10.12 24.15L9.95 23.9L9.77 23.64L9.57 23.38L9.53 23.32L9.48 23.25L9.44 23.18L9.41 23.11L9.37 23.03L9.34 22.94L9.31 22.86L9.29 22.76L9.27 22.67L9.25 22.57L9.23 22.47L9.22 22.37L9.2 22.27L9.19 22.16L9.19 22.05L9.19 21.94L9.19 21.83L9.19 21.72L9.19 21.61L9.2 21.5L9.21 21.39L9.22 21.28L9.24 21.16L9.26 21.05L9.28 20.95L9.3 20.84L9.33 20.73L9.35 20.63L9.38 20.52L9.42 20.42L9.45 20.33L9.49 20.23L9.53 20.14L9.58 20.05L9.62 19.97L9.67 19.89L9.72 19.81L9.77 19.74L9.83 19.68L9.89 19.62L10.12 19.36L10.36 19.1L10.59 18.84L10.83 18.59L11.07 18.33L11.31 18.08L11.55 17.83L11.79 17.58L12.03 17.33L12.27 17.08L12.51 16.83L12.75 16.58L12.99 16.33L13.23 16.09L13.47 15.84L13.72 15.59L13.96 15.35L14.2 15.1L14.45 14.86L14.69 14.61L14.94 14.37L15.18 14.13L15.43 13.88L15.67 13.64L15.92 13.4L16.16 13.15L16.41 12.91L16.65 12.67L16.9 12.42L17.15 12.18L17.39 11.94L17.64 11.69L17.89 11.45L18.13 11.2L18.38 10.96L18.63 10.71L18.87 10.47L19.12 10.22L19.37 9.98L19.62 9.73L19.71 9.65L19.8 9.57L19.9 9.5L20 9.43L20.09 9.37L20.19 9.31L20.29 9.25L20.39 9.2L20.48 9.15L20.58 9.11L20.68 9.07L20.78 9.03L20.88 9L20.98 8.97L21.08 8.95L21.18 8.93L21.28 8.91L21.38 8.9L21.48 8.89L21.58 8.89L21.68 8.88L21.78 8.89L21.88 8.89L21.98 8.9L22.08 8.92L22.18 8.94L22.28 8.96L22.37 8.98L22.47 9.01L22.57 9.05L22.67 9.08L22.77 9.12L22.87 9.17L22.96 9.21L23.06 9.26L23.16 9.32L23.25 9.38L23.35 9.44L23.44 9.5L23.54 9.57L23.79 9.78L24.03 9.97L24.28 10.15L24.52 10.32L24.76 10.47L25 10.62L25.25 10.75L25.49 10.87L25.73 10.98L25.97 11.08L26.21 11.17L26.45 11.25L26.69 11.31L26.93 11.37L27.17 11.42L27.41 11.46L27.65 11.48L27.9 11.5L28.14 11.51L28.38 11.51L28.63 11.51L28.87 11.49L29.12 11.47L29.37 11.44L29.62 11.4L29.87 11.35L30.12 11.3L30.37 11.24L30.63 11.17L30.89 11.1L31.15 11.01L31.41 10.93L31.67 10.84L31.94 10.74L32.2 10.63L32.47 10.53L32.75 10.41L33.02 10.29L33.3 10.17L33.58 10.04L33.85 9.93L34.11 9.81L34.37 9.69L34.63 9.57L34.88 9.44L35.12 9.32L35.36 9.19L35.59 9.07L35.82 8.94L36.04 8.8L36.26 8.67L36.47 8.53L36.68 8.39L36.88 8.24L37.08 8.1L37.27 7.94L37.46 7.79L37.63 7.63L37.81 7.47L37.98 7.3L38.14 7.12L38.29 6.95L38.44 6.76L38.59 6.57L38.72 6.38L38.86 6.18L38.98 5.98L39.1 5.76L39.21 5.55L39.32 5.32L39.42 5.09L39.51 4.85L39.6 4.61L39.68 4.35L39.75 4.09L39.82 3.82L39.88 3.55L39.93 3.26L39.98 2.97L40.02 2.67L40.03 2.54L40.05 2.41L40.07 2.29L40.1 2.17L40.12 2.06L40.16 1.94L40.2 1.83L40.24 1.73L40.28 1.62L40.33 1.52L40.38 1.42L40.44 1.33L40.5 1.24L40.56 1.15L40.62 1.07L40.69 0.98L40.76 0.9L40.84 0.83L40.92 0.76L41 0.69L41.08 0.62L41.17 0.56L41.26 0.5L41.35 0.44L41.44 0.39L41.54 0.34L41.64 0.29L41.74 0.25L41.85 0.21L41.96 0.17L42.07 0.14L42.18 0.11L42.29 0.09L42.41 0.06L42.53 0.04L42.65 0.03L42.77 0.02L42.9 0.01L43.03 0L43.15 0L56.81 0L56.95 0L57.08 0.01ZM48.88 18.94L48.58 18.98L48.28 19.03L47.98 19.1L47.68 19.18L47.38 19.28L47.08 19.4L46.79 19.53L46.5 19.67L46.21 19.84L45.92 20.01L45.64 20.2L45.36 20.41L45.08 20.63L44.81 20.87L44.55 21.12L44.29 21.39L44.03 21.67L43.78 21.97L43.7 22.06L43.62 22.16L43.54 22.25L43.46 22.35L43.38 22.45L43.31 22.54L43.23 22.64L43.16 22.74L43.09 22.84L43.01 22.94L42.94 23.04L42.87 23.14L42.8 23.24L42.74 23.35L42.67 23.45L42.6 23.55L42.54 23.66L42.48 23.76L42.41 23.86L42.35 23.97L42.29 24.08L42.23 24.18L42.17 24.29L42.11 24.4L42.05 24.51L41.99 24.62L41.94 24.73L41.88 24.84L41.83 24.95L41.77 25.06L41.72 25.17L41.67 25.28L41.62 25.4L41.56 25.51L41.51 25.63L41.46 25.74L41.42 25.86L41.37 25.97L41.32 26.09L41.27 26.21L41.19 26.34L41.11 26.47L41.03 26.6L40.96 26.73L40.88 26.87L40.81 27L40.74 27.14L40.66 27.27L40.6 27.41L40.53 27.55L40.46 27.69L40.4 27.82L40.33 27.96L40.27 28.1L40.21 28.24L40.15 28.38L40.09 28.52L40.03 28.66L39.97 28.79L39.92 28.93L39.86 29.07L39.81 29.21L39.75 29.35L39.7 29.48L39.65 29.62L39.6 29.75L39.55 29.89L39.49 30.02L39.44 30.16L39.4 30.29L39.35 30.42L39.3 30.55L39.25 30.68L39.2 30.81L39.15 30.93L39.11 31.06L39.06 31.18L39.01 31.3L38.96 31.42L38.92 31.54L38.62 31.53L38.33 31.52L38.04 31.5L37.74 31.49L37.45 31.47L37.16 31.45L36.87 31.44L36.58 31.42L36.29 31.4L36 31.38L35.72 31.36L35.43 31.34L35.14 31.32L34.86 31.3L34.57 31.28L34.28 31.26L34 31.24L33.72 31.23L33.43 31.21L33.15 31.19L32.87 31.17L32.59 31.15L32.31 31.14L32.03 31.12L31.75 31.11L31.47 31.1L31.19 31.08L30.91 31.07L30.63 31.06L30.36 31.06L30.08 31.05L29.8 31.04L29.53 31.04L29.25 31.04L28.98 31.04L28.71 31.04L28.43 31.05L28.16 31.05L27.89 31.06L27.62 31.07L27.25 31.1L26.88 31.15L26.53 31.21L26.18 31.28L25.85 31.37L25.52 31.47L25.21 31.59L24.9 31.72L24.61 31.86L24.33 32.01L24.05 32.18L23.79 32.35L23.54 32.54L23.3 32.74L23.07 32.95L22.85 33.17L22.65 33.39L22.46 33.63L22.27 33.88L22.11 34.13L21.95 34.39L21.81 34.66L21.68 34.94L21.56 35.23L21.46 35.52L21.37 35.82L21.29 36.13L21.23 36.44L21.19 36.75L21.15 37.07L21.13 37.4L21.13 37.73L21.14 38.06L21.17 38.4L21.21 38.74L21.27 39.09L21.34 39.43L21.43 39.78L21.53 40.13L21.66 40.49L21.73 40.66L21.8 40.84L21.88 41.01L21.95 41.18L22.03 41.36L22.11 41.53L22.19 41.7L22.27 41.86L22.36 42.03L22.44 42.2L22.53 42.37L22.62 42.53L22.71 42.7L22.8 42.86L22.89 43.03L22.98 43.19L23.07 43.35L23.17 43.52L23.27 43.68L23.36 43.84L23.46 44L23.56 44.16L23.66 44.33L23.76 44.49L23.86 44.65L23.96 44.81L24.06 44.97L24.16 45.13L24.27 45.29L24.37 45.45L24.47 45.61L24.58 45.77L24.68 45.94L24.79 46.1L24.89 46.26L25 46.42L25.1 46.59L25.21 46.75L25.32 46.91L25.42 47.08L25.48 47.16L25.54 47.24L25.6 47.32L25.67 47.4L25.73 47.48L25.79 47.56L25.86 47.64L25.92 47.72L25.99 47.8L26.06 47.87L26.12 47.95L26.19 48.03L26.26 48.1L26.33 48.18L26.4 48.26L26.46 48.33L26.53 48.4L26.6 48.48L26.67 48.55L26.74 48.63L26.8 48.7L26.87 48.77L26.94 48.85L27 48.92L27.07 48.99L27.13 49.06L27.2 49.14L27.26 49.21L27.32 49.28L27.39 49.35L27.45 49.42L27.51 49.49L27.56 49.56L27.62 49.63L27.68 49.71L27.73 49.78L27.78 49.85L27.83 49.92L27.88 49.99L27.93 50.06L27.78 50.27L27.63 50.48L27.47 50.69L27.32 50.9L27.16 51.1L27.01 51.31L26.85 51.52L26.7 51.72L26.54 51.92L26.39 52.13L26.23 52.33L26.08 52.53L25.93 52.73L25.77 52.93L25.62 53.13L25.47 53.33L25.32 53.53L25.17 53.72L25.02 53.92L24.87 54.12L24.73 54.32L24.58 54.51L24.44 54.71L24.29 54.91L24.15 55.1L24.01 55.3L23.88 55.49L23.74 55.69L23.61 55.89L23.47 56.08L23.35 56.28L23.22 56.48L23.09 56.67L22.97 56.87L22.85 57.07L22.73 57.27L22.61 57.46L22.5 57.66L22.39 57.86L22.28 58.06L22.06 58.51L21.86 58.95L21.68 59.39L21.52 59.82L21.39 60.25L21.28 60.67L21.19 61.09L21.12 61.5L21.07 61.9L21.04 62.3L21.03 62.7L21.05 63.08L21.08 63.46L21.14 63.83L21.21 64.19L21.3 64.54L21.42 64.89L21.55 65.23L21.7 65.55L21.87 65.87L22.06 66.18L22.27 66.47L22.49 66.76L22.74 67.03L23 67.3L23.27 67.55L23.57 67.79L23.88 68.02L24.21 68.23L24.56 68.43L24.92 68.62L25.3 68.8L25.69 68.96L26.1 69.11L26.52 69.24L26.97 69.36L27.42 69.46L27.89 69.55L28.38 69.62L28.87 69.67L28.94 69.67L29.01 69.67L29.08 69.67L29.15 69.67L29.22 69.67L29.29 69.67L29.36 69.67L29.42 69.67L29.49 69.67L29.56 69.67L29.62 69.67L29.69 69.67L29.75 69.67L29.82 69.67L29.88 69.67L29.95 69.66L30.01 69.66L30.08 69.66L30.14 69.66L30.21 69.65L30.27 69.65L30.34 69.65L30.4 69.64L30.47 69.64L30.53 69.64L30.6 69.63L30.66 69.63L30.73 69.62L30.79 69.61L30.86 69.61L30.93 69.6L30.99 69.59L31.06 69.59L31.13 69.58L31.2 69.57L31.26 69.56L31.33 69.55L31.4 69.54L31.47 69.53L31.54 69.52L31.72 69.49L31.89 69.47L32.07 69.44L32.25 69.42L32.42 69.39L32.6 69.37L32.78 69.34L32.96 69.31L33.13 69.29L33.31 69.26L33.49 69.23L33.66 69.2L33.84 69.17L34.02 69.14L34.2 69.11L34.38 69.09L34.56 69.06L34.73 69.03L34.91 69L35.09 68.97L35.27 68.94L35.45 68.91L35.63 68.88L35.81 68.85L35.99 68.82L36.17 68.79L36.36 68.76L36.54 68.74L36.72 68.71L36.9 68.68L37.09 68.65L37.27 68.62L37.46 68.6L37.64 68.57L37.83 68.54L38.01 68.52L38.2 68.49L38.38 68.47L38.57 68.44L38.76 68.42L38.78 68.5L38.81 68.58L38.83 68.67L38.85 68.75L38.88 68.83L38.9 68.91L38.93 68.99L38.95 69.08L38.97 69.16L39 69.24L39.02 69.32L39.05 69.4L39.07 69.48L39.1 69.57L39.12 69.65L39.15 69.73L39.17 69.81L39.2 69.89L39.22 69.97L39.25 70.05L39.28 70.13L39.3 70.21L39.33 70.28L39.36 70.36L39.39 70.44L39.42 70.52L39.44 70.6L39.47 70.67L39.5 70.75L39.53 70.82L39.56 70.9L39.59 70.97L39.63 71.05L39.66 71.12L39.69 71.2L39.72 71.27L39.76 71.34L39.79 71.42L39.82 71.49L39.86 71.56L39.95 71.75L40.04 71.94L40.14 72.12L40.23 72.31L40.32 72.5L40.41 72.7L40.49 72.89L40.58 73.08L40.67 73.27L40.76 73.46L40.85 73.65L40.93 73.84L41.02 74.03L41.11 74.22L41.2 74.41L41.28 74.6L41.37 74.78L41.46 74.97L41.55 75.16L41.64 75.34L41.74 75.53L41.83 75.71L41.92 75.9L42.02 76.08L42.11 76.26L42.21 76.44L42.31 76.62L42.41 76.79L42.51 76.97L42.62 77.14L42.72 77.31L42.83 77.48L42.94 77.65L43.05 77.82L43.17 77.98L43.29 78.15L43.41 78.31L43.53 78.47L43.65 78.62L43.78 78.78L44.01 79.05L44.24 79.31L44.48 79.56L44.72 79.79L44.97 80.01L45.23 80.22L45.49 80.41L45.75 80.59L46.02 80.75L46.29 80.9L46.56 81.03L46.84 81.15L47.12 81.26L47.4 81.35L47.68 81.43L47.97 81.5L48.25 81.55L48.54 81.59L48.83 81.61L49.12 81.62L49.41 81.62L49.69 81.6L49.98 81.57L50.27 81.52L50.55 81.46L50.84 81.39L51.12 81.3L51.4 81.2L51.67 81.09L51.95 80.96L52.22 80.82L52.48 80.66L52.75 80.5L53.01 80.31L53.26 80.12L53.51 79.91L53.75 79.68L53.99 79.45L54.23 79.2L54.45 78.93L54.59 78.77L54.73 78.6L54.86 78.43L55 78.25L55.12 78.07L55.25 77.9L55.37 77.71L55.5 77.53L55.62 77.34L55.73 77.16L55.85 76.97L55.96 76.77L56.07 76.58L56.18 76.38L56.29 76.19L56.4 75.99L56.5 75.79L56.6 75.59L56.71 75.39L56.81 75.19L56.91 74.98L57 74.78L57.1 74.57L57.2 74.37L57.29 74.16L57.39 73.96L57.48 73.75L57.58 73.54L57.67 73.34L57.76 73.13L57.86 72.92L57.95 72.72L58.04 72.51L58.13 72.3L58.22 72.1L58.32 71.9L58.41 71.69L58.5 71.49L58.6 71.29L58.69 71.09L58.72 71.02L58.76 70.95L58.79 70.87L58.82 70.8L58.85 70.73L58.88 70.66L58.91 70.59L58.94 70.52L58.97 70.45L58.99 70.38L59.02 70.31L59.05 70.24L59.07 70.17L59.1 70.1L59.12 70.03L59.14 69.96L59.17 69.89L59.19 69.82L59.22 69.74L59.26 69.6L59.29 69.53L59.31 69.46L59.33 69.39L59.36 69.32L59.38 69.25L59.41 69.18L59.43 69.11L59.46 69.04L59.48 68.97L59.51 68.9L59.54 68.83L59.57 68.76L59.6 68.69L59.63 68.62L59.66 68.54L59.69 68.47L59.72 68.4L59.75 68.33L59.79 68.26L59.83 68.27L59.88 68.29L59.93 68.3L59.97 68.31L60.02 68.32L60.06 68.33L60.1 68.34L60.23 68.38L60.27 68.39L60.31 68.4L60.36 68.41L60.4 68.42L60.44 68.43L60.48 68.44L60.52 68.45L60.55 68.46L60.59 68.47L60.63 68.48L60.67 68.49L60.71 68.49L60.75 68.5L60.78 68.51L60.82 68.52L60.86 68.52L60.89 68.53L60.93 68.54L60.97 68.54L61 68.55L61.04 68.55L61.07 68.56L61.11 68.56L61.15 68.57L61.18 68.57L61.22 68.57L61.25 68.57L61.29 68.57L61.32 68.58L61.36 68.58L61.59 68.6L61.83 68.63L62.07 68.65L62.3 68.68L62.54 68.71L62.78 68.73L63.02 68.76L63.26 68.79L63.5 68.82L63.74 68.85L63.98 68.88L64.22 68.91L64.46 68.94L64.7 68.97L64.94 69L65.18 69.02L65.42 69.05L65.66 69.08L65.9 69.1L66.14 69.13L66.38 69.15L66.63 69.17L66.87 69.19L67.11 69.21L67.35 69.23L67.59 69.24L67.83 69.25L68.07 69.27L68.31 69.28L68.55 69.28L68.79 69.29L69.03 69.29L69.27 69.29L69.51 69.29L69.75 69.28L69.98 69.27L70.22 69.26L70.46 69.24L70.69 69.23L70.93 69.2L71.31 69.16L71.69 69.11L72.05 69.04L72.4 68.95L72.74 68.86L73.07 68.75L73.38 68.63L73.69 68.49L73.98 68.35L74.26 68.19L74.54 68.03L74.79 67.85L75.04 67.66L75.28 67.46L75.5 67.25L75.71 67.03L75.91 66.8L76.09 66.57L76.26 66.32L76.42 66.07L76.57 65.8L76.7 65.53L76.82 65.25L76.93 64.97L77.02 64.67L77.1 64.37L77.17 64.07L77.22 63.76L77.26 63.44L77.29 63.11L77.3 62.78L77.29 62.45L77.27 62.11L77.24 61.77L77.19 61.42L77.13 61.07L77.06 60.71L76.96 60.36L76.86 59.99L76.74 59.63L76.7 59.53L76.66 59.42L76.62 59.31L76.59 59.21L76.55 59.1L76.5 59L76.46 58.89L76.42 58.79L76.37 58.68L76.33 58.58L76.28 58.47L76.24 58.37L76.19 58.26L76.14 58.16L76.09 58.06L76.04 57.96L75.99 57.85L75.94 57.75L75.89 57.65L75.83 57.55L75.78 57.45L75.73 57.35L75.67 57.25L75.62 57.16L75.56 57.06L75.51 56.96L75.45 56.87L75.39 56.77L75.34 56.68L75.28 56.59L75.22 56.49L75.16 56.4L75.11 56.31L75.05 56.22L74.99 56.13L74.93 56.05L74.87 55.96L74.81 55.88L74.75 55.79L74.7 55.71L74.59 55.57L74.48 55.43L74.38 55.28L74.27 55.14L74.16 55L74.05 54.86L73.94 54.72L73.83 54.58L73.72 54.44L73.61 54.3L73.5 54.16L73.4 54.02L73.29 53.88L73.18 53.74L73.07 53.61L72.96 53.47L72.85 53.33L72.74 53.19L72.63 53.06L72.52 52.92L72.41 52.79L72.3 52.65L72.19 52.52L72.09 52.39L71.98 52.25L71.87 52.12L71.77 51.99L71.66 51.86L71.45 51.6L71.35 51.48L71.25 51.35L71.14 51.22L71.04 51.1L70.94 50.98L70.84 50.85L70.75 50.73L70.65 50.61L70.55 50.49L70.46 50.37L70.61 50.15L70.77 49.93L70.92 49.71L71.07 49.49L71.23 49.27L71.38 49.06L71.54 48.85L71.7 48.63L71.85 48.42L72.01 48.21L72.16 48L72.32 47.79L72.47 47.58L72.63 47.37L72.78 47.17L72.93 46.96L73.08 46.75L73.24 46.55L73.39 46.34L73.54 46.14L73.69 45.93L73.84 45.72L73.98 45.52L74.13 45.31L74.28 45.1L74.42 44.9L74.56 44.69L74.7 44.48L74.84 44.27L74.98 44.06L75.12 43.85L75.25 43.64L75.39 43.43L75.52 43.21L75.65 43L75.78 42.78L75.9 42.56L76.03 42.34L76.15 42.12L76.27 41.9L76.47 41.48L76.65 41.06L76.81 40.64L76.95 40.23L77.06 39.82L77.16 39.42L77.24 39.03L77.3 38.63L77.34 38.25L77.36 37.87L77.36 37.49L77.34 37.13L77.3 36.77L77.25 36.42L77.18 36.07L77.08 35.74L76.97 35.41L76.85 35.09L76.7 34.78L76.54 34.48L76.36 34.19L76.16 33.92L75.95 33.65L75.72 33.39L75.48 33.15L75.22 32.91L74.94 32.69L74.65 32.48L74.34 32.28L74.01 32.1L73.68 31.93L73.32 31.78L72.95 31.63L72.57 31.51L72.18 31.39L71.77 31.3L71.34 31.22L70.9 31.15L70.45 31.1L69.99 31.07L69.73 31.06L69.47 31.05L69.21 31.05L68.96 31.04L68.7 31.04L68.44 31.04L68.19 31.04L67.93 31.05L67.68 31.05L67.42 31.06L67.17 31.07L66.91 31.08L66.66 31.09L66.4 31.1L66.15 31.12L65.89 31.13L65.64 31.15L65.38 31.17L65.12 31.19L64.87 31.21L64.61 31.23L64.36 31.25L64.1 31.27L63.84 31.3L63.58 31.32L63.33 31.35L63.07 31.37L62.81 31.4L62.55 31.42L62.29 31.45L62.03 31.47L61.76 31.5L61.5 31.52L61.24 31.55L60.97 31.58L60.71 31.6L60.44 31.63L60.17 31.65L59.9 31.67L59.63 31.7L59.62 31.65L59.61 31.6L59.59 31.55L59.58 31.5L59.57 31.45L59.55 31.4L59.54 31.34L59.52 31.29L59.5 31.23L59.49 31.17L59.47 31.12L59.45 31.06L59.43 31L59.42 30.94L59.4 30.88L59.38 30.81L59.36 30.75L59.34 30.69L59.32 30.63L59.3 30.56L59.28 30.5L59.26 30.43L59.23 30.36L59.21 30.3L59.19 30.23L59.17 30.16L59.15 30.1L59.12 30.03L59.1 29.96L59.08 29.89L59.06 29.82L59.03 29.75L59.01 29.68L58.99 29.61L58.96 29.54L58.94 29.47L58.92 29.4L58.87 29.26L58.85 29.19L58.75 29L58.66 28.81L58.57 28.62L58.48 28.43L58.39 28.24L58.3 28.05L58.21 27.86L58.12 27.67L58.04 27.48L57.95 27.29L57.86 27.1L57.78 26.91L57.69 26.72L57.6 26.53L57.52 26.34L57.43 26.15L57.34 25.96L57.26 25.77L57.17 25.59L57.08 25.4L56.99 25.22L56.9 25.03L56.81 24.85L56.72 24.67L56.63 24.49L56.54 24.31L56.44 24.13L56.35 23.95L56.25 23.78L56.15 23.6L56.06 23.43L55.95 23.26L55.85 23.09L55.75 22.93L55.64 22.76L55.53 22.6L55.42 22.44L55.31 22.28L55.2 22.12L55.08 21.97L54.84 21.67L54.6 21.39L54.35 21.12L54.09 20.87L53.83 20.63L53.56 20.41L53.29 20.2L53.02 20.01L52.74 19.84L52.45 19.67L52.17 19.53L51.88 19.4L51.59 19.28L51.29 19.18L51 19.1L50.7 19.03L50.4 18.98L50.1 18.94L49.79 18.92L49.49 18.91L49.19 18.92L48.88 18.94Z" id="a27sOF3jkn"></path><path d="M55.08 54.14C53.51 55.55 51.31 57.28 49.27 57.28C47.39 57.28 45.04 55.55 43.47 54.14C42.68 53.35 42.68 51.31 42.68 49.9C42.68 48.65 42.68 46.92 43.47 46.14C45.19 44.72 47.23 43 49.27 43C51.16 43 53.35 44.72 55.08 46.14C56.02 47.08 55.87 48.8 56.18 50.22C55.87 51.63 56.02 53.35 55.08 54.14Z" id="bASPVjZuM"></path><path d="M50.69 74.54C49.9 76.11 48.65 75.95 47.86 74.54C46.61 72.03 45.51 69.36 44.41 66.85C47.7 64.18 50.84 64.03 54.3 66.85C53.2 69.36 51.94 72.03 50.69 74.54Z" id="b4ZMJrio"></path><path d="M37.5 62.93C34.84 63.24 32.01 63.55 29.19 63.71C27.46 63.87 26.83 62.77 27.78 61.2C29.19 58.69 30.91 56.49 32.48 54.3C36.56 55.87 38.13 58.53 37.5 62.93Z" id="g1pLguOD8n"></path><path d="M66.22 54.3C67.79 56.49 69.52 58.69 70.93 61.04C72.03 62.93 71.56 63.87 69.2 63.71C66.54 63.55 63.87 63.08 61.2 62.93C60.57 58.53 61.99 55.87 66.22 54.3Z" id="b5KY73hDAH"></path><path d="M69.67 36.88C71.4 36.88 72.03 37.98 71.09 39.39C69.52 41.74 67.95 43.94 66.38 46.14C61.83 44.25 60.89 42.84 61.2 37.5C64.03 37.35 66.85 36.88 69.67 36.88Z" id="bPUTHDiG"></path><path d="M44.72 33.9C45.19 31.07 46.14 28.09 48.18 25.58C49.27 24.17 50.22 25.26 50.69 26.05C51.94 28.56 53.2 31.23 54.3 33.74C50.84 36.25 47.86 36.56 44.72 33.9Z" id="b2cKh7OQK"></path><path d="M27.62 39.54C26.52 37.66 26.99 36.88 29.19 36.88C31.86 36.88 34.68 37.35 37.19 37.66C38.13 42.06 37.35 43.47 32.48 46.29C30.76 43.94 29.03 41.9 27.62 39.54Z" id="a1yoyIhP8l"></path></defs><g><g><g><use xlink:href="#a27sOF3jkn" opacity="1" fill="#66a1c8" fill-opacity="1"></use><g><use xlink:href="#a27sOF3jkn" opacity="1" fill-opacity="0" stroke="#000000" stroke-width="1" stroke-opacity="0"></use></g></g><g><use xlink:href="#bASPVjZuM" opacity="1" fill="#66a1c8" fill-opacity="1"></use><g><use xlink:href="#bASPVjZuM" opacity="1" fill-opacity="0" stroke="#000000" stroke-width="1" stroke-opacity="0"></use></g></g><g><use xlink:href="#b4ZMJrio" opacity="1" fill="#66a1c8" fill-opacity="1"></use><g><use xlink:href="#b4ZMJrio" opacity="1" fill-opacity="0" stroke="#000000" stroke-width="1" stroke-opacity="0"></use></g></g><g><use xlink:href="#g1pLguOD8n" opacity="1" fill="#66a1c8" fill-opacity="1"></use><g><use xlink:href="#g1pLguOD8n" opacity="1" fill-opacity="0" stroke="#000000" stroke-width="1" stroke-opacity="0"></use></g></g><g><use xlink:href="#b5KY73hDAH" opacity="1" fill="#66a1c8" fill-opacity="1"></use><g><use xlink:href="#b5KY73hDAH" opacity="1" fill-opacity="0" stroke="#000000" stroke-width="1" stroke-opacity="0"></use></g></g><g><use xlink:href="#bPUTHDiG" opacity="1" fill="#66a1c8" fill-opacity="1"></use><g><use xlink:href="#bPUTHDiG" opacity="1" fill-opacity="0" stroke="#000000" stroke-width="1" stroke-opacity="0"></use></g></g><g><use xlink:href="#b2cKh7OQK" opacity="1" fill="#66a1c8" fill-opacity="1"></use><g><use xlink:href="#b2cKh7OQK" opacity="1" fill-opacity="0" stroke="#000000" stroke-width="1" stroke-opacity="0"></use></g></g><g><use xlink:href="#a1yoyIhP8l" opacity="1" fill="#66a1c8" fill-opacity="1"></use><g><use xlink:href="#a1yoyIhP8l" opacity="1" fill-opacity="0" stroke="#000000" stroke-width="1" stroke-opacity="0"></use></g></g></g></g></svg>