<?xml version="1.0" encoding="utf-8"?>
<!-- Generator: Adobe Illustrator 23.0.2, SVG Export Plug-In . SVG Version: 6.00 Build 0)  -->
<svg version="1.1" id="Layer_1" xmlns="http://www.w3.org/2000/svg" xmlns:xlink="http://www.w3.org/1999/xlink" x="0px" y="0px"
	 viewBox="0 0 100 100" style="enable-background:new 0 0 100 100;" xml:space="preserve">
<style type="text/css">
	.st0{fill:#66A1C8;}
</style>
<g>
	<path class="st0" d="M82,50.1c-0.1,1.3-0.3,2.7-0.3,4c-0.1,1.2-0.6,2.1-1.8,2.2c-2.6,0.3-3.7,1.8-4.6,4.1c-1,2.4-1.3,4.3,0.4,6.5
		c0.4,0.5,0.2,1.9-0.2,2.4c-1.9,2.2-4,4.2-6.1,6.2c-0.8,0.8-1.8,0.9-2.7,0.1c-1.9-1.7-3.7-1.4-6-0.4c-2.5,1-4.1,2.2-4.4,4.9
		c-0.1,0.6-1.1,1.5-1.7,1.5c-2.9,0.2-5.9,0.1-8.8,0.1c-1.1,0-1.9-0.7-1.9-1.7c-0.2-2.6-1.7-3.7-4.1-4.7c-2.4-1-4.2-1.4-6.3,0.3
		c-0.8,0.7-1.9,0.7-2.7-0.2c-2-2-4-3.9-6-5.9c-0.9-0.9-1-2-0.2-3c1.5-1.9,1.3-3.6,0.4-5.8c-1-2.5-2.1-4.2-5-4.6
		c-1.1-0.1-1.6-1-1.6-2.1c0-2.8,0-5.5,0-8.3c0-1.3,0.7-2.2,1.9-2.3c2.6-0.2,3.5-1.7,4.5-3.9c1.1-2.5,1.4-4.4-0.3-6.6
		c-0.4-0.5-0.3-1.9,0.2-2.4c2-2.2,4.1-4.2,6.2-6.3c0.8-0.7,1.7-0.7,2.5-0.1c2.1,1.8,4,1.4,6.4,0.3c2.3-1,3.8-2.1,4.1-4.7
		c0.1-1.1,0.9-1.7,2-1.7c2.9,0,5.8,0,8.7,0c1.2,0,1.9,0.8,2,1.9c0.3,2.4,1.6,3.6,3.9,4.5c2.4,1,4.4,1.6,6.6-0.3
		c0.8-0.7,1.8-0.6,2.6,0.2c2,2,4,3.9,6,5.9c0.9,0.9,1,2,0.2,3c-1.5,1.9-1.4,3.7-0.3,5.9c1,2.3,1.9,4.2,4.8,4.4
		c1.1,0.1,1.7,1,1.8,2.1c0,0.7,0.2,1.4,0.2,2.1c0,0.7,0,1.4,0,2.1C81.9,50.1,82,50.1,82,50.1z M43.2,38.1c-2.5-0.1-4.9-0.4-7.2-0.3
		c-3.2,0.2-4.9,3-3.8,6c0.6,1.5,1.5,2.8,2.4,4.2c0.5,0.7,1.2,1.3,1.6,1.9c-1.3,1.8-2.7,3.4-3.6,5.1c-2,3.8-0.1,7,4.2,7.4
		c0.6,0,1.1,0,1.7-0.1c1.5-0.2,3-0.5,4.6-0.7c0.2,0.7,0.4,1.4,0.7,2c0.8,1.6,1.4,3.3,2.5,4.6c1.9,2.4,4.9,2.4,6.8,0.1
		c1.2-1.4,1.9-3.3,2.7-5c0.3-0.6,0.4-1.2,0.7-1.8c0.4,0.1,0.7,0.2,1,0.2c2,0.2,4.1,0.6,6.1,0.4c3.3-0.3,4.8-3,3.7-6.1
		c-0.3-0.9-0.8-1.8-1.3-2.5c-0.9-1.2-1.9-2.4-2.7-3.4c1.3-1.9,2.7-3.5,3.7-5.4c1.8-3.6,0-6.7-4-6.9c-2.2-0.1-4.3,0.2-6.6,0.4
		c-0.1-0.4-0.3-1-0.5-1.6c-0.8-1.6-1.4-3.3-2.4-4.6c-2-2.6-5.1-2.6-7.2,0c-0.7,0.8-1.2,1.7-1.6,2.7C44,35.8,43.6,37.1,43.2,38.1z"/>
	<path class="st0" d="M54.2,50c-0.2,0.9-0.1,2-0.7,2.5c-1,0.9-2.4,2-3.7,2c-1.2,0-2.7-1.1-3.7-2c-0.5-0.5-0.5-1.8-0.5-2.7
		c0-0.8,0-1.9,0.5-2.4c1.1-0.9,2.4-2,3.7-2c1.2,0,2.6,1.1,3.7,2C54.1,48,54,49.1,54.2,50z"/>
	<path class="st0" d="M53,60.6c-0.7,1.6-1.5,3.3-2.3,4.9c-0.5,1-1.3,0.9-1.8,0c-0.8-1.6-1.5-3.3-2.2-4.9
		C48.8,58.9,50.8,58.8,53,60.6z"/>
	<path class="st0" d="M39.1,52.6c2.6,1,3.6,2.7,3.2,5.5c-1.7,0.2-3.5,0.4-5.3,0.5c-1.1,0.1-1.5-0.6-0.9-1.6
		C37,55.4,38.1,54,39.1,52.6z"/>
	<path class="st0" d="M57.4,58.1c-0.4-2.8,0.5-4.5,3.2-5.5c1,1.4,2.1,2.8,3,4.3c0.7,1.2,0.4,1.8-1.1,1.7
		C60.8,58.5,59.1,58.2,57.4,58.1z"/>
	<path class="st0" d="M57.4,41.9c1.8-0.1,3.6-0.4,5.4-0.4c1.1,0,1.5,0.7,0.9,1.6c-1,1.5-2,2.9-3,4.3C57.8,46.2,57.2,45.3,57.4,41.9z
		"/>
	<path class="st0" d="M53,39.5c-2.2,1.6-4.1,1.8-6.1,0.1c0.3-1.8,0.9-3.7,2.2-5.3c0.7-0.9,1.3-0.2,1.6,0.3
		C51.5,36.2,52.3,37.9,53,39.5z"/>
	<path class="st0" d="M39.1,47.5c-1.1-1.5-2.2-2.8-3.1-4.3c-0.7-1.2-0.4-1.7,1-1.7c1.7,0,3.5,0.3,5.1,0.5
		C42.7,44.8,42.2,45.7,39.1,47.5z"/>
</g>
</svg>
