<?xml version="1.0" encoding="UTF-8" standalone="no"?>
<!DOCTYPE svg PUBLIC "-//W3C//DTD SVG 1.1//EN" "http://www.w3.org/Graphics/SVG/1.1/DTD/svg11.dtd">
<svg version="1.1" xmlns="http://www.w3.org/2000/svg" xmlns:xlink="http://www.w3.org/1999/xlink" preserveAspectRatio="xMidYMid meet" viewBox="0 0 100 100" width="100" height="100"><defs><path d="M77.48 0C79.27 0.72 80.89 1.26 82.86 1.97C82.5 3.23 82.14 4.48 81.61 5.74C91.11 10.58 97.21 18.29 99.36 28.7C100.8 35.69 99.72 42.51 97.03 48.78C92.91 46.99 88.78 45.2 84.83 43.4C84.66 43.4 84.48 43.22 84.3 43.22C79.99 42.33 75.87 40.89 72.46 38.02C71.92 37.49 71.2 37.31 70.49 36.95C70.31 37.31 70.13 37.66 69.95 38.02C65.82 49.5 61.7 60.98 57.39 72.64C69.59 74.07 81.07 77.3 91.65 83.76C89.5 85.19 87.52 86.63 85.37 87.7C83.58 88.6 81.79 88.06 80.17 86.81C72.46 81.07 63.13 80.71 55.06 85.55C54.34 86.09 53.63 86.63 52.91 87.17C50.94 88.6 49.14 88.42 46.81 86.63C38.92 81.07 29.77 80.53 21.7 85.55C20.81 86.09 20.27 86.99 19.37 87.17C17.94 87.52 16.14 87.88 14.71 87.35C12.55 86.45 10.94 85.01 8.79 83.58C13.99 80.35 19.37 78.02 24.93 76.23C33 73.71 41.25 72.28 49.68 72.1C50.4 72.1 51.3 71.38 51.65 70.85C55.96 59.01 60.26 47.17 64.57 35.51C64.57 35.33 64.57 35.15 64.75 34.62C63.13 34.44 61.7 33.9 60.08 33.9C57.21 33.9 54.88 32.82 52.19 31.93C47.89 30.13 43.4 29.06 38.92 27.62C38.2 27.44 37.49 27.26 36.77 27.08C38.92 14.17 54.52 -1.08 76.05 3.59C76.58 2.33 76.94 1.26 77.48 0Z" id="c2T9kRjS7a"></path><path d="M0 88.42C3.95 88.06 7.17 89.68 10.22 91.83C12.73 93.8 15.6 94.52 18.83 93.8C20.27 93.44 21.7 92.73 22.96 91.83C30.13 86.81 36.59 86.99 43.76 92.19C47.53 94.88 52.19 95.06 56.14 92.01C59.9 89.14 64.03 87.7 68.69 88.6C71.38 89.14 74.25 90.39 76.58 91.83C81.43 94.88 85.19 95.06 90.04 91.65C92.91 89.5 96.13 88.06 99.9 88.42C99.9 90.22 99.9 92.01 99.9 93.26C97.03 94.7 94.52 96.13 92.01 97.57C86.27 100.98 80.53 100.98 74.61 97.39C73.18 96.49 71.92 95.42 70.49 94.88C67.08 93.62 63.67 93.8 60.8 96.13C56.14 99.72 50.76 101.16 45.02 99.18C42.87 98.47 41.07 97.03 39.1 95.95C35.15 93.44 31.03 93.26 27.26 96.13C20.27 101.16 13.45 101.34 6.46 96.49C4.66 95.24 2.51 94.52 0 93.44C0 92.01 0 90.39 0 88.42Z" id="akSVuYChC"></path><path d="M21.75 28.02L21.86 28.21L21.96 28.41L22.07 28.6L22.18 28.8L22.28 28.99L22.39 29.18L22.49 29.38L22.59 29.57L22.69 29.76L22.79 29.95L22.89 30.14L22.99 30.33L23.09 30.52L23.18 30.71L23.28 30.9L23.38 31.09L23.47 31.27L23.57 31.46L23.66 31.65L23.76 31.84L23.85 32.02L23.95 32.21L24.04 32.39L24.14 32.58L24.23 32.77L24.33 32.95L24.42 33.14L24.51 33.32L24.61 33.51L24.71 33.69L24.8 33.87L24.9 34.06L24.99 34.24L25.09 34.43L25.19 34.61L25.29 34.79L25.47 34.68L25.65 34.57L25.83 34.46L26.01 34.35L26.19 34.24L26.37 34.13L26.55 34.02L26.72 33.91L26.9 33.8L27.07 33.69L27.25 33.59L27.42 33.48L27.59 33.37L27.76 33.26L27.94 33.16L28.11 33.05L28.28 32.94L28.46 32.84L28.63 32.73L28.8 32.63L28.98 32.52L29.15 32.41L29.33 32.31L29.5 32.2L29.68 32.09L29.86 31.99L30.04 31.88L30.22 31.77L30.4 31.66L30.58 31.56L30.77 31.45L30.95 31.34L31.14 31.23L31.33 31.12L31.52 31.01L31.71 30.89L31.91 30.78L32.1 30.67L32.1 38.56L40 38.56L39.88 38.74L39.77 38.93L39.66 39.11L39.55 39.29L39.44 39.47L39.33 39.65L39.22 39.83L39.11 40.01L39 40.19L38.89 40.37L38.79 40.55L38.68 40.73L38.57 40.91L38.47 41.08L38.36 41.26L38.25 41.44L38.15 41.61L38.04 41.79L37.83 42.15L37.72 42.32L37.61 42.5L37.51 42.68L37.4 42.85L37.29 43.03L37.19 43.21L37.08 43.39L36.97 43.57L36.86 43.75L36.76 43.92L36.65 44.1L36.54 44.28L36.43 44.46L36.32 44.65L36.21 44.83L36.1 45.01L35.98 45.19L35.87 45.38L36.05 45.48L36.24 45.57L36.42 45.67L36.6 45.77L36.78 45.86L36.96 45.96L37.14 46.06L37.32 46.15L37.5 46.25L37.68 46.34L37.86 46.43L38.04 46.53L38.22 46.62L38.4 46.72L38.58 46.81L38.76 46.91L38.94 47L39.12 47.1L39.3 47.19L39.48 47.29L39.66 47.38L39.84 47.48L40.03 47.58L40.21 47.68L40.39 47.77L40.58 47.87L40.76 47.97L40.95 48.08L41.13 48.18L41.32 48.28L41.51 48.38L41.7 48.49L41.89 48.59L42.08 48.7L42.28 48.81L42.47 48.92L42.67 49.03L42.87 49.14L42.67 49.26L42.47 49.37L42.28 49.48L42.08 49.59L41.89 49.7L41.7 49.81L41.51 49.92L41.13 50.13L40.95 50.24L40.76 50.35L40.58 50.45L40.39 50.56L40.21 50.66L40.03 50.77L39.84 50.87L39.66 50.98L39.48 51.08L39.3 51.18L39.12 51.29L38.94 51.39L38.76 51.49L38.58 51.59L38.4 51.69L38.22 51.79L38.04 51.89L37.86 51.99L37.68 52.09L37.5 52.19L37.32 52.29L37.14 52.39L36.96 52.49L36.78 52.59L36.6 52.69L36.42 52.79L36.24 52.89L36.05 52.99L35.87 53.09L35.98 53.26L36.1 53.43L36.21 53.6L36.32 53.77L36.43 53.94L36.54 54.11L36.65 54.28L36.76 54.45L36.86 54.62L36.97 54.79L37.08 54.96L37.19 55.13L37.29 55.3L37.4 55.48L37.51 55.65L37.61 55.82L37.72 55.99L37.83 56.17L37.93 56.34L38.04 56.51L38.15 56.69L38.25 56.86L38.36 57.04L38.47 57.21L38.57 57.39L38.68 57.56L38.79 57.74L38.89 57.92L39 58.1L39.11 58.27L39.22 58.45L39.33 58.63L39.44 58.81L39.55 58.99L39.66 59.18L39.77 59.36L39.88 59.54L40 59.73L32.1 59.73L32.1 67.62L31.92 67.5L31.74 67.39L31.56 67.28L31.37 67.16L31.19 67.05L31.01 66.94L30.83 66.82L30.65 66.71L30.47 66.6L30.29 66.49L30.12 66.37L29.94 66.26L29.76 66.15L29.58 66.04L29.41 65.93L29.23 65.82L29.05 65.71L28.87 65.6L28.7 65.49L28.52 65.38L28.34 65.27L28.17 65.16L27.99 65.05L27.81 64.94L27.63 64.84L27.46 64.73L27.28 64.62L27.1 64.52L26.92 64.41L26.74 64.31L26.56 64.2L26.38 64.1L26.2 64L26.02 63.89L25.84 63.79L25.66 63.69L25.47 63.59L25.29 63.49L25.19 63.68L25.09 63.86L24.99 64.04L24.89 64.23L24.79 64.41L24.69 64.6L24.6 64.78L24.5 64.97L24.4 65.15L24.3 65.34L24.2 65.52L24.1 65.71L24 65.89L23.9 66.08L23.8 66.26L23.7 66.45L23.6 66.64L23.5 66.82L23.41 67.01L23.31 67.2L23.21 67.39L23.11 67.58L23.01 67.76L22.91 67.95L22.81 68.14L22.71 68.33L22.61 68.53L22.51 68.72L22.41 68.91L22.32 69.1L22.22 69.3L22.12 69.49L22.02 69.68L21.92 69.88L21.82 70.07L21.72 70.27L21.62 70.47L21.52 70.67L21.41 70.47L21.3 70.27L21.19 70.08L21.08 69.88L20.97 69.69L20.87 69.5L20.76 69.31L20.66 69.12L20.56 68.93L20.45 68.74L20.35 68.56L20.25 68.37L20.15 68.19L20.06 68L19.96 67.82L19.86 67.63L19.76 67.45L19.67 67.26L19.57 67.08L19.48 66.89L19.38 66.71L19.29 66.53L19.19 66.34L19.1 66.16L19 65.97L18.91 65.79L18.81 65.6L18.72 65.41L18.63 65.22L18.53 65.04L18.44 64.85L18.34 64.66L18.24 64.47L18.15 64.27L18.05 64.08L17.95 63.89L17.85 63.69L17.76 63.49L17.59 63.6L17.41 63.72L17.24 63.83L17.07 63.94L16.9 64.05L16.72 64.16L16.55 64.27L16.37 64.38L16.2 64.49L16.02 64.59L15.85 64.7L15.67 64.81L15.49 64.92L15.31 65.02L15.13 65.13L14.96 65.24L14.78 65.34L14.6 65.45L14.42 65.55L14.23 65.66L14.05 65.77L13.87 65.87L13.69 65.98L13.51 66.09L13.33 66.19L13.14 66.3L12.96 66.41L12.78 66.51L12.59 66.62L12.41 66.73L12.23 66.84L12.04 66.95L11.86 67.06L11.68 67.17L11.49 67.28L11.31 67.39L11.12 67.5L10.94 67.62L10.94 59.9L3.05 59.9L3.16 59.71L3.28 59.51L3.39 59.32L3.5 59.13L3.62 58.94L3.73 58.75L3.84 58.57L3.96 58.38L4.07 58.2L4.18 58.02L4.3 57.84L4.41 57.66L4.52 57.48L4.63 57.3L4.75 57.13L4.86 56.95L4.97 56.78L5.09 56.6L5.2 56.43L5.31 56.26L5.43 56.08L5.54 55.91L5.65 55.74L5.77 55.56L5.88 55.39L5.99 55.22L6.11 55.05L6.22 54.87L6.33 54.7L6.45 54.52L6.56 54.35L6.67 54.17L6.79 53.99L6.9 53.81L7.01 53.63L7.13 53.45L7.24 53.27L7.35 53.09L7.17 52.99L6.99 52.89L6.8 52.79L6.62 52.69L6.44 52.59L6.26 52.49L6.08 52.39L5.9 52.29L5.72 52.19L5.54 52.09L5.36 51.99L5.18 51.89L4.99 51.79L4.81 51.69L4.63 51.59L4.45 51.49L4.27 51.39L4.08 51.29L3.9 51.18L3.72 51.08L3.53 50.98L3.35 50.87L3.16 50.77L2.97 50.66L2.78 50.56L2.59 50.45L2.4 50.35L2.2 50.24L2.01 50.13L1.81 50.03L1.62 49.92L1.42 49.81L1.22 49.7L1.01 49.59L0.81 49.48L0.6 49.37L0.39 49.26L0.18 49.14L0.38 49.03L0.57 48.92L0.77 48.81L0.97 48.7L1.16 48.59L1.36 48.49L1.55 48.38L1.74 48.28L1.94 48.18L2.13 48.08L2.32 47.97L2.51 47.87L2.7 47.77L2.89 47.68L3.08 47.58L3.27 47.48L3.46 47.38L3.65 47.29L3.83 47.19L4.02 47.1L4.21 47L4.39 46.91L4.58 46.81L4.77 46.72L4.95 46.62L5.14 46.53L5.32 46.43L5.51 46.34L5.69 46.25L5.88 46.15L6.06 46.06L6.25 45.96L6.43 45.86L6.62 45.77L6.8 45.67L6.99 45.57L7.17 45.48L7.35 45.38L7.24 45.19L7.13 45.01L7.02 44.83L6.91 44.65L6.8 44.46L6.69 44.28L6.58 44.1L6.47 43.92L6.36 43.75L6.25 43.57L6.14 43.39L6.04 43.21L5.93 43.03L5.82 42.85L5.72 42.68L5.61 42.5L5.5 42.32L5.4 42.15L5.18 41.79L5.08 41.61L4.97 41.44L4.87 41.26L4.76 41.08L4.65 40.91L4.55 40.73L4.44 40.55L4.33 40.37L4.22 40.19L4.11 40.01L4.01 39.83L3.9 39.65L3.79 39.47L3.68 39.29L3.57 39.11L3.45 38.93L3.34 38.74L3.23 38.56L10.94 38.56L10.94 30.67L11.12 30.78L11.31 30.89L11.49 31.01L11.67 31.12L11.85 31.23L12.03 31.34L12.21 31.45L12.39 31.56L12.57 31.66L12.75 31.77L12.93 31.88L13.11 31.99L13.28 32.09L13.46 32.2L13.64 32.31L13.82 32.41L13.99 32.52L14.17 32.63L14.53 32.84L14.7 32.94L14.88 33.05L15.06 33.16L15.23 33.26L15.41 33.37L15.59 33.48L15.77 33.59L15.95 33.69L16.12 33.8L16.3 33.91L16.48 34.02L16.66 34.13L16.84 34.24L17.03 34.35L17.21 34.46L17.39 34.57L17.57 34.68L17.76 34.79L17.85 34.61L17.95 34.43L18.05 34.25L18.15 34.06L18.24 33.88L18.34 33.7L18.44 33.52L18.53 33.34L18.63 33.16L18.72 32.98L18.81 32.8L18.91 32.62L19 32.44L19.1 32.25L19.19 32.07L19.29 31.89L19.38 31.71L19.48 31.53L19.57 31.34L19.76 30.97L19.86 30.79L19.96 30.6L20.06 30.41L20.15 30.22L20.25 30.03L20.35 29.84L20.45 29.65L20.56 29.45L20.66 29.25L20.76 29.06L20.87 28.86L20.97 28.66L21.08 28.45L21.19 28.25L21.3 28.04L21.41 27.83L21.52 27.62L21.64 27.82L21.75 28.02ZM18.7 38.71L17.46 39.11L16.3 39.65L15.21 40.32L14.21 41.11L13.31 42.01L12.52 43.01L11.85 44.1L11.31 45.26L10.91 46.5L10.67 47.8L10.58 49.14L10.67 50.45L10.91 51.73L11.3 52.95L11.84 54.11L12.5 55.2L13.27 56.21L14.15 57.12L15.12 57.92L16.18 58.6L17.3 59.15L18.48 59.56L19.72 59.82L20.98 59.9L22.41 59.82L23.77 59.59L25.06 59.2L26.27 58.67L27.4 58.02L28.42 57.24L29.34 56.35L30.15 55.36L30.83 54.27L31.37 53.1L31.77 51.84L32.02 50.52L32.1 49.14L32.02 47.8L31.77 46.5L31.38 45.26L30.84 44.1L30.17 43.01L29.38 42.01L28.48 41.11L27.48 40.32L26.39 39.65L25.22 39.11L23.98 38.71L22.69 38.47L21.34 38.38L20 38.47L18.7 38.71Z" id="dUzdOpqHA"></path></defs><g><g><path></path><path></path><path></path><path></path><g><use xlink:href="#c2T9kRjS7a" opacity="1" fill="#448dbc" fill-opacity="1"></use><g><use xlink:href="#c2T9kRjS7a" opacity="1" fill-opacity="0" stroke="#000000" stroke-width="1" stroke-opacity="0"></use></g></g><g><use xlink:href="#akSVuYChC" opacity="1" fill="#448dbc" fill-opacity="1"></use><g><use xlink:href="#akSVuYChC" opacity="1" fill-opacity="0" stroke="#000000" stroke-width="1" stroke-opacity="0"></use></g></g><g><use xlink:href="#dUzdOpqHA" opacity="1" fill="#448dbc" fill-opacity="1"></use><g><use xlink:href="#dUzdOpqHA" opacity="1" fill-opacity="0" stroke="#000000" stroke-width="1" stroke-opacity="0"></use></g></g></g></g></svg>