<?xml version="1.0" encoding="UTF-8" standalone="no"?>
<!DOCTYPE svg PUBLIC "-//W3C//DTD SVG 1.1//EN" "http://www.w3.org/Graphics/SVG/1.1/DTD/svg11.dtd">
<svg version="1.1" xmlns="http://www.w3.org/2000/svg" xmlns:xlink="http://www.w3.org/1999/xlink" preserveAspectRatio="xMidYMid meet" viewBox="0 0 100 100" width="100" height="100"><defs><path d="M69.92 70.48L69.89 70.61L69.87 70.73L69.85 70.86L69.83 70.99L69.81 71.12L69.79 71.24L69.77 71.37L69.76 71.5L69.75 71.62L69.74 71.75L69.73 71.87L69.72 71.99L69.72 72.12L69.71 72.24L69.71 72.36L69.71 72.48L69.72 72.6L69.72 72.73L69.73 72.85L69.73 72.97L69.74 73.08L69.76 73.2L69.77 73.32L69.79 73.44L69.8 73.56L69.82 73.67L69.84 73.79L69.87 73.91L69.89 74.02L69.92 74.14L69.95 74.25L69.98 74.37L70.02 74.48L70.05 74.59L70.09 74.71L70.13 74.82L70.17 74.93L70.21 75.03L70.25 75.13L70.29 75.22L70.33 75.32L70.37 75.42L70.42 75.51L70.46 75.61L70.5 75.7L70.55 75.79L70.59 75.89L70.64 75.98L70.69 76.08L70.73 76.17L70.78 76.26L70.83 76.35L70.88 76.45L70.93 76.54L70.98 76.63L71.03 76.72L71.08 76.82L71.13 76.91L71.19 77L71.24 77.09L71.29 77.18L71.34 77.27L71.39 77.36L71.45 77.46L71.5 77.55L71.55 77.64L71.61 77.73L71.66 77.82L71.71 77.91L71.76 78L71.82 78.09L71.87 78.18L71.92 78.27L71.97 78.37L72.02 78.46L72.08 78.55L72.13 78.64L72.2 78.77L72.27 78.89L72.34 79.02L72.41 79.14L72.49 79.27L72.56 79.39L72.63 79.52L72.71 79.64L72.78 79.77L72.86 79.89L72.93 80.02L73.01 80.14L73.08 80.26L73.16 80.39L73.23 80.51L73.31 80.64L73.38 80.76L73.45 80.88L73.53 81.01L73.6 81.13L73.68 81.26L73.75 81.38L73.82 81.51L73.9 81.63L73.97 81.76L74.04 81.88L74.11 82.01L74.18 82.13L74.25 82.26L74.32 82.39L74.39 82.51L74.45 82.64L74.52 82.77L74.59 82.9L74.65 83.03L74.71 83.16L74.78 83.29L74.84 83.42L74.9 83.55L74.96 83.68L75.06 83.92L75.16 84.17L75.25 84.41L75.33 84.66L75.4 84.9L75.46 85.15L75.52 85.39L75.57 85.64L75.61 85.88L75.65 86.12L75.67 86.36L75.7 86.6L75.71 86.85L75.72 87.09L75.72 87.33L75.72 87.57L75.71 87.81L75.69 88.04L75.67 88.28L75.64 88.52L75.61 88.76L75.57 89L75.53 89.23L75.48 89.47L75.43 89.7L75.38 89.94L75.32 90.17L75.25 90.41L75.18 90.64L75.11 90.87L75.03 91.1L74.95 91.33L74.87 91.57L74.78 91.8L74.69 92.03L74.6 92.25L74.5 92.48L74.4 92.71L74.3 92.94L74.2 93.16L74.15 93.06L74.09 92.96L74.03 92.86L73.98 92.76L73.92 92.66L73.87 92.56L73.81 92.46L73.76 92.36L73.7 92.26L73.65 92.15L73.59 92.05L73.54 91.95L73.48 91.85L73.43 91.75L73.37 91.65L73.32 91.55L73.26 91.45L73.21 91.34L73.15 91.24L73.1 91.14L73.04 91.04L72.98 90.94L72.93 90.84L72.87 90.74L72.82 90.64L72.76 90.54L72.7 90.44L72.65 90.34L72.59 90.23L72.53 90.13L72.48 90.03L72.42 89.93L72.36 89.83L72.3 89.73L72.24 89.63L72.19 89.53L72.13 89.43L72.07 89.34L72.01 89.24L71.95 89.14L71.87 89L71.78 88.87L71.69 88.75L71.6 88.63L71.51 88.51L71.42 88.39L71.32 88.28L71.22 88.17L71.12 88.06L71.02 87.96L70.91 87.86L70.81 87.76L70.7 87.66L70.58 87.57L70.47 87.48L70.36 87.39L70.24 87.3L70.12 87.22L70 87.14L69.88 87.06L69.76 86.98L69.64 86.91L69.51 86.83L69.38 86.76L69.26 86.69L69.13 86.62L69 86.55L68.87 86.49L68.73 86.42L68.6 86.36L68.47 86.29L68.33 86.23L68.2 86.17L68.06 86.11L67.92 86.05L67.79 85.99L67.65 85.93L67.51 85.88L67.37 85.82L67.23 85.76L67.11 85.71L66.99 85.66L66.86 85.61L66.74 85.56L66.62 85.51L66.49 85.46L66.37 85.41L66.25 85.36L66.13 85.31L66 85.26L65.88 85.21L65.76 85.15L65.64 85.1L65.51 85.05L65.39 85L65.27 84.94L65.15 84.89L65.03 84.84L64.9 84.78L64.78 84.73L64.66 84.67L64.54 84.62L64.42 84.56L64.3 84.51L64.18 84.45L64.06 84.39L63.94 84.33L63.82 84.28L63.7 84.22L63.58 84.16L63.47 84.1L63.35 84.04L63.23 83.98L63.11 83.92L63 83.85L62.88 83.79L62.76 83.73L62.65 83.66L62.53 83.6L62.42 83.53L62.22 83.42L62.02 83.3L61.83 83.18L61.65 83.07L61.47 82.95L61.3 82.84L61.13 82.72L60.97 82.61L60.82 82.49L60.67 82.38L60.52 82.26L60.38 82.14L60.24 82.02L60.1 81.9L59.97 81.78L59.85 81.65L59.72 81.52L59.6 81.39L59.48 81.26L59.37 81.12L59.25 80.98L59.14 80.84L59.03 80.69L58.92 80.54L58.82 80.39L58.71 80.23L58.61 80.06L58.5 79.89L58.4 79.72L58.3 79.54L58.19 79.35L58.09 79.16L57.99 78.96L57.89 78.76L57.78 78.55L57.68 78.33L57.57 78.11L57.47 77.88L57.36 77.64L57.25 77.4L57.15 77.5L57.05 77.61L56.96 77.71L56.87 77.82L56.78 77.93L56.69 78.04L56.6 78.14L56.52 78.25L56.44 78.37L56.35 78.48L56.28 78.59L56.2 78.7L56.12 78.82L56.05 78.93L55.98 79.05L55.91 79.16L55.85 79.28L55.78 79.4L55.72 79.52L55.66 79.64L55.6 79.76L55.55 79.88L55.49 80L55.44 80.12L55.39 80.25L55.35 80.37L55.3 80.5L55.26 80.62L55.22 80.75L55.18 80.88L55.15 81.01L55.12 81.14L55.09 81.27L55.06 81.4L55.04 81.53L55.01 81.66L54.99 81.8L54.98 81.93L54.96 82.07L54.95 82.2L54.94 82.33L54.93 82.45L54.92 82.58L54.92 82.71L54.91 82.83L54.91 82.96L54.9 83.09L54.9 83.22L54.9 83.34L54.9 83.47L54.9 83.6L54.9 83.72L54.9 83.85L54.9 83.98L54.9 84.11L54.9 84.23L54.91 84.36L54.91 84.49L54.91 84.62L54.92 84.74L54.93 84.87L54.93 85L54.94 85.12L54.94 85.25L54.95 85.38L54.96 85.51L54.97 85.63L54.97 85.76L54.98 85.89L54.99 86.02L55 86.14L55.01 86.27L55.02 86.4L55.03 86.52L55.04 86.65L55.05 86.78L55.05 86.9L55.06 87.03L55.07 87.16L55.08 87.28L55.11 87.67L55.13 88.06L55.14 88.44L55.14 88.82L55.13 89.2L55.12 89.57L55.1 89.94L55.06 90.3L55.03 90.66L54.98 91.01L54.92 91.37L54.86 91.71L54.78 92.05L54.7 92.39L54.61 92.73L54.51 93.06L54.4 93.38L54.28 93.7L54.15 94.02L54.02 94.33L53.87 94.64L53.71 94.94L53.55 95.24L53.37 95.53L53.19 95.82L52.99 96.11L52.79 96.38L52.58 96.66L52.35 96.93L52.12 97.2L51.87 97.46L51.62 97.71L51.36 97.96L51.08 98.21L50.8 98.45L50.5 98.69L50.19 98.92L49.88 99.14L49.55 99.36L49.21 99.58L49.29 99.32L49.36 99.07L49.43 98.82L49.48 98.57L49.53 98.32L49.57 98.07L49.61 97.82L49.64 97.57L49.66 97.33L49.68 97.08L49.69 96.84L49.69 96.6L49.68 96.36L49.67 96.12L49.66 95.88L49.63 95.64L49.6 95.4L49.57 95.17L49.53 94.93L49.48 94.7L49.43 94.46L49.37 94.23L49.31 94L49.24 93.77L49.17 93.54L49.09 93.32L49 93.09L48.91 92.86L48.82 92.64L48.72 92.41L48.62 92.19L48.51 91.97L48.39 91.75L48.28 91.53L48.15 91.31L48.03 91.09L47.9 90.87L47.76 90.66L47.62 90.44L47.48 90.22L47.4 90.11L47.32 89.99L47.25 89.88L47.17 89.76L47.09 89.65L47.01 89.54L46.92 89.42L46.84 89.31L46.76 89.2L46.68 89.09L46.6 88.97L46.51 88.86L46.43 88.75L46.35 88.64L46.26 88.52L46.18 88.41L46.1 88.3L46.01 88.19L45.93 88.08L45.85 87.96L45.77 87.85L45.68 87.74L45.6 87.63L45.52 87.51L45.44 87.4L45.35 87.29L45.27 87.18L45.19 87.06L45.11 86.95L45.03 86.83L44.95 86.72L44.88 86.6L44.8 86.49L44.72 86.37L44.64 86.26L44.57 86.14L44.49 86.02L44.42 85.9L44.35 85.78L44.27 85.66L44.16 85.47L44.05 85.28L43.95 85.09L43.84 84.9L43.74 84.71L43.64 84.52L43.55 84.32L43.45 84.13L43.36 83.93L43.28 83.74L43.19 83.54L43.11 83.34L43.04 83.14L42.97 82.94L42.9 82.74L42.83 82.54L42.77 82.33L42.71 82.13L42.66 81.92L42.61 81.71L42.57 81.51L42.53 81.3L42.5 81.09L42.47 80.87L42.44 80.66L42.42 80.44L42.41 80.23L42.4 80.01L42.39 79.79L42.39 79.57L42.4 79.35L42.41 79.12L42.42 78.9L42.45 78.67L42.48 78.44L42.51 78.21L42.55 77.98L42.6 77.75L42.65 77.51L42.71 77.27L42.53 77.33L42.36 77.4L42.18 77.46L42.01 77.53L41.85 77.6L41.68 77.67L41.52 77.74L41.36 77.82L41.2 77.89L41.05 77.97L40.89 78.06L40.74 78.14L40.59 78.23L40.45 78.31L40.31 78.41L40.16 78.5L40.03 78.59L39.89 78.69L39.75 78.79L39.62 78.89L39.49 79L39.36 79.1L39.24 79.21L39.12 79.32L38.99 79.43L38.87 79.55L38.76 79.67L38.64 79.79L38.53 79.91L38.42 80.03L38.31 80.16L38.2 80.28L38.1 80.42L37.99 80.55L37.89 80.68L37.79 80.82L37.7 80.96L37.6 81.1L37.51 81.25L37.42 81.39L37.39 81.44L37.36 81.49L37.33 81.53L37.3 81.58L37.28 81.63L37.25 81.68L37.22 81.72L37.2 81.77L37.17 81.82L37.14 81.87L37.12 81.92L37.09 81.97L37.07 82.01L37.04 82.06L37.02 82.11L36.99 82.16L36.97 82.21L36.94 82.26L36.92 82.31L36.89 82.36L36.87 82.41L36.85 82.46L36.82 82.51L36.8 82.56L36.77 82.61L36.75 82.66L36.72 82.71L36.7 82.76L36.68 82.81L36.65 82.86L36.63 82.9L36.6 82.95L36.58 83L36.55 83.05L36.53 83.1L36.5 83.15L36.47 83.2L36.45 83.25L36.42 83.3L36.4 83.34L36.34 83.45L36.28 83.56L36.22 83.67L36.16 83.78L36.1 83.89L36.04 84L35.98 84.11L35.92 84.22L35.86 84.33L35.8 84.44L35.69 84.66L35.63 84.77L35.57 84.88L35.51 84.99L35.45 85.1L35.39 85.21L35.33 85.32L35.27 85.43L35.21 85.54L35.15 85.65L35.09 85.76L35.03 85.87L34.97 85.98L34.91 86.09L34.85 86.2L34.79 86.3L34.73 86.41L34.67 86.52L34.6 86.63L34.54 86.74L34.48 86.84L34.41 86.95L34.35 87.06L34.28 87.17L34.22 87.27L34.15 87.38L34.09 87.48L34.02 87.59L33.95 87.69L33.82 87.9L33.67 88.11L33.52 88.31L33.36 88.52L33.2 88.72L33.02 88.92L32.85 89.11L32.66 89.31L32.47 89.5L32.28 89.68L32.07 89.87L31.87 90.05L31.66 90.22L31.44 90.39L31.22 90.56L30.99 90.72L30.76 90.88L30.53 91.03L30.29 91.17L30.05 91.31L29.81 91.44L29.56 91.57L29.31 91.69L29.05 91.8L28.79 91.91L28.54 92.01L28.27 92.1L28.01 92.18L27.74 92.26L27.48 92.33L27.21 92.39L26.94 92.44L26.67 92.48L26.4 92.51L26.12 92.53L25.85 92.54L25.58 92.54L25.3 92.54L25.03 92.52L24.76 92.49L24.81 92.41L24.86 92.34L24.91 92.26L24.97 92.18L25.02 92.11L25.07 92.03L25.12 91.96L25.17 91.88L25.23 91.8L25.28 91.73L25.33 91.65L25.38 91.58L25.43 91.5L25.59 91.27L25.64 91.2L25.69 91.12L25.74 91.04L25.8 90.97L25.85 90.89L25.9 90.82L25.95 90.74L26 90.66L26.06 90.59L26.11 90.51L26.16 90.43L26.21 90.36L26.27 90.28L26.32 90.21L26.37 90.13L26.43 90.05L26.48 89.98L26.53 89.9L26.58 89.83L26.64 89.75L26.69 89.67L26.75 89.6L26.8 89.52L26.85 89.45L26.91 89.36L26.97 89.28L27.02 89.2L27.07 89.11L27.12 89.03L27.17 88.94L27.22 88.86L27.26 88.77L27.31 88.68L27.35 88.6L27.39 88.51L27.43 88.42L27.46 88.34L27.49 88.25L27.53 88.16L27.56 88.07L27.59 87.98L27.61 87.89L27.64 87.8L27.66 87.71L27.68 87.62L27.7 87.52L27.72 87.43L27.74 87.34L27.75 87.25L27.77 87.15L27.78 87.06L27.79 86.96L27.8 86.87L27.81 86.77L27.81 86.68L27.82 86.58L27.82 86.48L27.82 86.38L27.82 86.29L27.82 86.19L27.81 86.09L27.81 85.99L27.8 85.89L27.8 85.79L27.78 85.59L27.76 85.39L27.75 85.19L27.73 84.99L27.71 84.79L27.7 84.59L27.68 84.39L27.66 84.19L27.65 83.99L27.63 83.79L27.62 83.59L27.6 83.39L27.59 83.19L27.57 82.99L27.55 82.79L27.54 82.59L27.53 82.39L27.51 82.19L27.5 81.99L27.48 81.79L27.47 81.59L27.46 81.39L27.44 81.19L27.43 80.99L27.42 80.79L27.41 80.59L27.39 80.39L27.38 80.19L27.37 79.99L27.36 79.79L27.35 79.59L27.34 79.39L27.33 79.19L27.33 78.99L27.32 78.79L27.31 78.6L27.3 78.4L27.3 78.2L27.29 78L27.29 77.8L27.28 77.56L27.28 77.32L27.28 77.1L27.28 76.88L27.29 76.66L27.3 76.45L27.31 76.24L27.32 76.04L27.34 75.85L27.36 75.65L27.38 75.46L27.41 75.28L27.44 75.1L27.48 74.91L27.52 74.74L27.56 74.56L27.61 74.38L27.66 74.21L27.71 74.03L27.77 73.86L27.83 73.69L27.9 73.51L27.97 73.34L28.05 73.16L28.13 72.99L28.21 72.81L28.31 72.63L28.4 72.44L28.5 72.26L28.61 72.07L28.72 71.88L28.84 71.68L28.96 71.48L29.09 71.28L29.22 71.07L29.36 70.85L29.51 70.63L29.66 70.41L29.82 70.18L29.98 69.94L29.84 69.91L29.69 69.87L29.54 69.84L29.4 69.82L29.25 69.79L29.11 69.77L28.96 69.75L28.82 69.73L28.67 69.71L28.53 69.7L28.39 69.69L28.24 69.68L28.1 69.67L27.96 69.67L27.82 69.67L27.68 69.67L27.53 69.67L27.39 69.68L27.25 69.69L27.11 69.7L26.97 69.71L26.83 69.73L26.69 69.75L26.56 69.77L26.42 69.79L26.28 69.82L26.14 69.84L26.01 69.87L25.87 69.91L25.73 69.94L25.6 69.98L25.46 70.02L25.33 70.07L25.19 70.11L25.06 70.16L24.93 70.21L24.8 70.26L24.66 70.32L24.53 70.38L24.4 70.44L24.3 70.49L24.2 70.53L24.11 70.58L24.01 70.63L23.91 70.68L23.81 70.73L23.72 70.79L23.62 70.84L23.53 70.89L23.43 70.95L23.33 71L23.24 71.06L23.14 71.11L23.05 71.17L22.96 71.23L22.86 71.28L22.77 71.34L22.68 71.4L22.58 71.46L22.49 71.52L22.4 71.58L22.3 71.64L22.21 71.7L22.12 71.76L22.03 71.82L21.94 71.88L21.84 71.95L21.75 72.01L21.66 72.07L21.57 72.13L21.48 72.19L21.39 72.26L21.3 72.32L21.21 72.38L21.12 72.45L21.02 72.51L20.93 72.57L20.84 72.63L20.75 72.7L20.66 72.76L20.51 72.86L20.36 72.97L20.21 73.07L20.06 73.18L19.9 73.28L19.75 73.38L19.6 73.49L19.45 73.59L19.29 73.69L19.14 73.79L18.99 73.88L18.83 73.98L18.68 74.08L18.52 74.17L18.37 74.26L18.21 74.35L18.05 74.44L17.89 74.53L17.73 74.61L17.57 74.69L17.41 74.78L17.25 74.85L17.09 74.93L16.92 75.01L16.75 75.08L16.59 75.15L16.42 75.21L16.25 75.28L16.08 75.34L15.91 75.4L15.73 75.45L15.56 75.5L15.38 75.55L15.2 75.6L15.02 75.64L14.84 75.68L14.66 75.71L14.47 75.75L14.28 75.77L14.09 75.8L13.88 75.82L13.66 75.84L13.45 75.85L13.24 75.86L13.02 75.87L12.81 75.87L12.6 75.87L12.4 75.86L12.19 75.85L11.98 75.83L11.78 75.81L11.57 75.79L11.36 75.76L11.16 75.73L10.96 75.7L10.75 75.66L10.55 75.62L10.35 75.58L10.15 75.53L9.95 75.48L9.74 75.43L9.54 75.37L9.34 75.31L9.14 75.25L8.94 75.18L8.74 75.12L8.54 75.05L8.34 74.97L8.14 74.9L7.94 74.82L7.74 74.74L7.54 74.66L7.33 74.58L7.13 74.49L6.93 74.4L6.73 74.31L6.53 74.22L6.32 74.13L6.12 74.03L5.91 73.93L5.94 73.93L5.96 73.92L5.99 73.91L6.01 73.9L6.03 73.89L6.05 73.89L6.07 73.88L6.09 73.87L6.11 73.87L6.13 73.86L6.15 73.85L6.16 73.85L6.24 73.81L6.26 73.81L6.27 73.8L6.3 73.79L6.31 73.79L6.32 73.78L6.33 73.78L6.35 73.78L6.36 73.77L6.37 73.77L6.38 73.77L6.39 73.76L6.4 73.76L6.41 73.76L6.42 73.76L6.43 73.75L6.44 73.75L6.45 73.75L6.46 73.75L6.47 73.75L6.48 73.75L6.49 73.75L6.5 73.75L6.68 73.74L6.85 73.74L7.03 73.73L7.2 73.71L7.37 73.7L7.53 73.67L7.7 73.65L7.86 73.62L8.02 73.58L8.18 73.55L8.34 73.51L8.5 73.46L8.65 73.41L8.8 73.36L8.96 73.31L9.1 73.25L9.25 73.18L9.4 73.12L9.54 73.05L9.68 72.97L9.82 72.9L9.95 72.82L10.09 72.73L10.22 72.65L10.35 72.56L10.48 72.46L10.61 72.37L10.73 72.27L10.86 72.16L10.98 72.06L11.1 71.95L11.21 71.83L11.33 71.72L11.44 71.6L11.55 71.48L11.66 71.35L11.77 71.23L11.87 71.1L11.97 70.96L12.07 70.83L12.16 70.71L12.24 70.59L12.32 70.47L12.4 70.35L12.48 70.23L12.56 70.11L12.63 69.99L12.71 69.87L12.78 69.74L12.86 69.62L12.93 69.5L13 69.37L13.07 69.25L13.15 69.12L13.22 68.99L13.29 68.87L13.36 68.74L13.42 68.61L13.49 68.48L13.56 68.35L13.63 68.23L13.7 68.1L13.76 67.97L13.83 67.84L13.9 67.71L13.97 67.58L14.03 67.45L14.1 67.32L14.17 67.19L14.23 67.07L14.3 66.94L14.37 66.81L14.44 66.68L14.51 66.55L14.57 66.42L14.64 66.3L14.71 66.17L14.78 66.04L14.85 65.92L14.92 65.79L15.01 65.65L15.09 65.51L15.17 65.37L15.25 65.23L15.33 65.08L15.4 64.94L15.48 64.8L15.56 64.66L15.64 64.52L15.8 64.23L15.88 64.09L15.96 63.95L16.04 63.81L16.12 63.67L16.2 63.52L16.28 63.38L16.36 63.24L16.44 63.1L16.52 62.96L16.6 62.82L16.68 62.68L16.77 62.54L16.85 62.4L16.93 62.26L17.01 62.12L17.1 61.98L17.18 61.84L17.27 61.7L17.35 61.56L17.44 61.42L17.52 61.29L17.61 61.15L17.7 61.01L17.79 60.88L17.88 60.74L17.97 60.61L18.06 60.47L18.15 60.34L18.24 60.21L18.32 60.1L18.4 59.99L18.49 59.88L18.58 59.78L18.66 59.67L18.75 59.57L18.85 59.48L18.94 59.38L19.04 59.29L19.13 59.2L19.23 59.11L19.33 59.02L19.44 58.93L19.54 58.85L19.65 58.77L19.76 58.69L19.87 58.61L19.98 58.53L20.1 58.46L20.21 58.39L20.33 58.32L20.45 58.25L20.57 58.18L20.69 58.12L20.81 58.06L20.94 57.99L21.07 57.93L21.2 57.88L21.33 57.82L21.46 57.76L21.59 57.71L21.72 57.66L21.86 57.61L22 57.56L22.14 57.51L22.27 57.47L22.42 57.43L22.56 57.38L22.7 57.34L22.85 57.3L22.73 57.2L22.61 57.1L22.49 56.99L22.37 56.9L22.26 56.8L22.14 56.7L22.02 56.61L21.9 56.52L21.77 56.43L21.65 56.35L21.53 56.26L21.41 56.18L21.28 56.1L21.16 56.02L21.04 55.94L20.91 55.87L20.78 55.8L20.66 55.73L20.53 55.66L20.4 55.6L20.27 55.54L20.14 55.48L20.01 55.42L19.88 55.37L19.75 55.32L19.62 55.27L19.48 55.22L19.35 55.18L19.21 55.14L19.08 55.1L18.94 55.07L18.8 55.03L18.67 55L18.53 54.98L18.38 54.95L18.24 54.93L18.1 54.92L17.96 54.9L17.81 54.89L17.67 54.88L17.52 54.88L17.38 54.87L17.23 54.87L17.09 54.86L16.94 54.86L16.8 54.86L16.65 54.86L16.5 54.86L16.36 54.85L16.21 54.85L16.07 54.86L15.92 54.86L15.78 54.86L15.63 54.86L15.49 54.86L15.34 54.87L15.2 54.87L15.05 54.87L14.9 54.88L14.76 54.89L14.61 54.89L14.47 54.9L14.32 54.91L14.18 54.91L14.03 54.92L13.89 54.93L13.74 54.94L13.6 54.95L13.45 54.96L13.31 54.97L13.16 54.98L13.02 54.99L12.87 55.01L12.73 55.02L12.58 55.03L12.44 55.04L12.29 55.06L12.15 55.07L12.01 55.09L11.86 55.1L11.52 55.14L11.19 55.16L10.86 55.18L10.53 55.19L10.21 55.19L9.89 55.18L9.58 55.17L9.26 55.14L8.96 55.11L8.65 55.07L8.35 55.02L8.06 54.97L7.76 54.9L7.47 54.83L7.19 54.75L6.91 54.66L6.63 54.57L6.35 54.46L6.08 54.35L5.81 54.24L5.55 54.11L5.29 53.98L5.03 53.84L4.77 53.69L4.52 53.53L4.27 53.37L4.03 53.2L3.79 53.02L3.55 52.84L3.31 52.65L3.08 52.45L2.85 52.24L2.62 52.03L2.4 51.81L2.18 51.59L1.96 51.35L1.75 51.11L1.54 50.87L1.33 50.61L1.12 50.36L1.09 50.32L1.06 50.28L1.04 50.24L1.01 50.21L0.98 50.17L0.95 50.13L0.92 50.1L0.9 50.06L0.87 50.02L0.84 49.98L0.81 49.94L0.79 49.91L0.76 49.87L0.73 49.83L0.7 49.79L0.68 49.75L0.65 49.72L0.62 49.68L0.59 49.64L0.56 49.6L0.54 49.56L0.51 49.52L0.48 49.48L0.45 49.44L0.43 49.4L0.4 49.36L0.37 49.32L0.29 49.21L0.23 49.13L0.2 49.08L0.17 49.04L0.14 49L0.12 48.96L0.09 48.92L0.06 48.88L0.03 48.84L0 48.8L0.08 48.82L0.17 48.84L0.25 48.87L0.33 48.89L0.42 48.91L0.5 48.93L0.58 48.95L0.66 48.98L0.74 49L0.82 49.02L0.9 49.05L0.98 49.07L1.14 49.11L1.22 49.14L1.3 49.16L1.38 49.18L1.46 49.2L1.54 49.23L1.61 49.25L1.69 49.27L1.77 49.29L1.85 49.31L1.93 49.33L2 49.35L2.08 49.37L2.16 49.39L2.24 49.41L2.31 49.42L2.39 49.44L2.47 49.46L2.54 49.47L2.62 49.49L2.7 49.5L2.78 49.51L2.85 49.53L2.93 49.54L3.01 49.55L3.09 49.56L3.16 49.57L3.37 49.59L3.59 49.6L3.79 49.61L4 49.61L4.21 49.61L4.41 49.6L4.61 49.59L4.81 49.57L5.01 49.55L5.21 49.52L5.4 49.49L5.6 49.45L5.79 49.41L5.98 49.36L6.17 49.31L6.36 49.26L6.55 49.2L6.74 49.14L6.92 49.07L7.11 49L7.29 48.93L7.47 48.85L7.65 48.78L7.83 48.69L8.01 48.61L8.19 48.52L8.36 48.43L8.54 48.33L8.72 48.23L8.89 48.13L9.06 48.03L9.23 47.93L9.41 47.82L9.58 47.71L9.75 47.6L9.92 47.49L10.08 47.38L10.25 47.26L10.42 47.14L10.59 47.03L10.68 46.96L10.77 46.89L10.87 46.82L10.96 46.75L11.05 46.69L11.15 46.62L11.24 46.55L11.33 46.48L11.43 46.41L11.52 46.34L11.61 46.27L11.7 46.2L11.8 46.13L11.89 46.06L11.98 46L12.07 45.93L12.17 45.86L12.26 45.79L12.35 45.72L12.45 45.65L12.54 45.58L12.63 45.52L12.73 45.45L12.82 45.38L12.91 45.31L13.01 45.25L13.1 45.18L13.19 45.11L13.29 45.05L13.38 44.98L13.48 44.92L13.57 44.85L13.67 44.79L13.77 44.72L13.86 44.66L13.96 44.6L14.05 44.53L14.15 44.47L14.25 44.41L14.35 44.35L14.54 44.24L14.74 44.12L14.93 44.01L15.13 43.9L15.32 43.79L15.52 43.69L15.72 43.59L15.92 43.5L16.12 43.4L16.32 43.31L16.52 43.23L16.72 43.15L16.92 43.07L17.13 42.99L17.33 42.92L17.54 42.85L17.75 42.79L17.96 42.73L18.16 42.68L18.38 42.63L18.59 42.58L18.8 42.54L19.02 42.51L19.23 42.48L19.45 42.45L19.67 42.43L19.89 42.41L20.11 42.4L20.33 42.4L20.55 42.4L20.78 42.4L21 42.42L21.23 42.43L21.46 42.46L21.69 42.48L21.92 42.52L22.16 42.56L22.39 42.61L22.63 42.66L22.87 42.72L22.81 42.54L22.75 42.37L22.69 42.2L22.63 42.03L22.56 41.86L22.49 41.7L22.42 41.53L22.35 41.37L22.27 41.21L22.2 41.06L22.12 40.91L22.04 40.76L21.95 40.61L21.86 40.46L21.77 40.32L21.68 40.17L21.59 40.04L21.49 39.9L21.39 39.76L21.29 39.63L21.19 39.5L21.09 39.37L20.98 39.25L20.87 39.12L20.75 39L20.64 38.88L20.52 38.76L20.4 38.65L20.28 38.54L20.16 38.43L20.03 38.32L19.9 38.21L19.77 38.11L19.64 38.01L19.5 37.91L19.36 37.81L19.22 37.71L19.08 37.62L18.93 37.53L18.79 37.44L18.68 37.38L18.58 37.32L18.48 37.26L18.38 37.2L18.27 37.15L18.17 37.09L18.07 37.03L17.96 36.98L17.86 36.92L17.75 36.87L17.65 36.82L17.54 36.76L17.44 36.71L17.33 36.66L17.23 36.61L17.12 36.55L17.02 36.5L16.91 36.45L16.8 36.4L16.7 36.35L16.59 36.3L16.48 36.25L16.37 36.2L16.27 36.15L16.16 36.1L16.05 36.05L15.95 36.01L15.84 35.96L15.73 35.91L15.62 35.86L15.52 35.81L15.41 35.77L15.3 35.72L15.19 35.67L15.08 35.62L14.98 35.58L14.87 35.53L14.76 35.48L14.65 35.43L14.55 35.39L14.21 35.23L13.88 35.07L13.56 34.91L13.25 34.74L12.95 34.56L12.66 34.38L12.37 34.19L12.1 33.99L11.83 33.79L11.57 33.59L11.32 33.37L11.08 33.16L10.85 32.93L10.62 32.7L10.41 32.47L10.2 32.23L10 31.98L9.8 31.73L9.62 31.47L9.44 31.21L9.27 30.95L9.11 30.67L8.96 30.4L8.81 30.11L8.67 29.83L8.54 29.53L8.42 29.24L8.3 28.93L8.19 28.63L8.09 28.31L7.99 28L7.9 27.67L7.82 27.35L7.75 27.02L7.68 26.68L7.62 26.34L7.56 25.99L7.51 25.65L7.47 25.29L7.43 24.93L7.43 24.91L7.43 24.89L7.43 24.87L7.43 24.85L7.43 24.83L7.43 24.81L7.43 24.79L7.43 24.77L7.43 24.74L7.43 24.72L7.43 24.7L7.43 24.68L7.43 24.66L7.43 24.64L7.43 24.61L7.43 24.59L7.43 24.57L7.43 24.55L7.44 24.53L7.44 24.5L7.44 24.48L7.44 24.46L7.44 24.44L7.45 24.41L7.45 24.39L7.45 24.37L7.46 24.34L7.46 24.32L7.46 24.3L7.47 24.27L7.47 24.25L7.48 24.22L7.48 24.2L7.49 24.17L7.49 24.15L7.5 24.13L7.5 24.1L7.51 24.07L7.52 24.05L7.52 24.02L7.63 24.17L7.73 24.32L7.84 24.46L7.94 24.6L8.05 24.74L8.17 24.87L8.28 25L8.39 25.13L8.51 25.25L8.63 25.38L8.75 25.5L8.87 25.61L9 25.72L9.12 25.83L9.25 25.94L9.38 26.04L9.51 26.14L9.65 26.24L9.78 26.33L9.92 26.42L10.06 26.51L10.2 26.6L10.34 26.68L10.48 26.75L10.63 26.83L10.78 26.9L10.93 26.97L11.08 27.03L11.23 27.09L11.39 27.15L11.55 27.2L11.7 27.25L11.86 27.3L12.03 27.34L12.19 27.38L12.36 27.41L12.52 27.44L12.69 27.47L12.87 27.5L13.04 27.52L13.17 27.53L13.3 27.55L13.44 27.56L13.57 27.57L13.71 27.58L13.84 27.59L13.97 27.6L14.11 27.61L14.24 27.62L14.38 27.62L14.51 27.63L14.65 27.64L14.78 27.64L14.92 27.64L15.05 27.65L15.18 27.65L15.32 27.65L15.45 27.65L15.59 27.65L15.72 27.65L15.86 27.65L15.99 27.65L16.13 27.64L16.27 27.64L16.4 27.64L16.54 27.63L16.67 27.63L16.81 27.62L16.94 27.61L17.07 27.61L17.21 27.6L17.34 27.59L17.48 27.58L17.61 27.57L17.75 27.56L17.88 27.55L18.02 27.54L18.15 27.53L18.29 27.52L18.42 27.51L18.63 27.49L18.84 27.47L19.05 27.45L19.26 27.43L19.46 27.41L19.67 27.39L19.88 27.37L20.09 27.35L20.3 27.33L20.51 27.32L20.71 27.3L20.92 27.29L21.13 27.28L21.34 27.26L21.54 27.25L21.75 27.25L21.96 27.24L22.17 27.24L22.37 27.23L22.58 27.23L22.78 27.24L22.99 27.24L23.2 27.25L23.4 27.26L23.61 27.27L23.81 27.29L24.02 27.31L24.22 27.33L24.43 27.36L24.63 27.39L24.83 27.42L25.04 27.46L25.24 27.5L25.44 27.54L25.65 27.59L25.85 27.65L26.05 27.7L26.25 27.77L26.45 27.83L26.65 27.91L26.75 27.94L26.84 27.98L26.93 28.02L27.03 28.06L27.12 28.1L27.21 28.14L27.3 28.18L27.39 28.22L27.48 28.27L27.57 28.31L27.66 28.36L27.75 28.4L27.84 28.45L27.93 28.5L28.02 28.54L28.11 28.59L28.2 28.64L28.29 28.69L28.38 28.74L28.47 28.79L28.56 28.84L28.65 28.89L28.74 28.94L28.82 29L28.91 29.05L29 29.1L29.09 29.15L29.18 29.2L29.27 29.25L29.36 29.31L29.45 29.36L29.54 29.41L29.63 29.46L29.72 29.51L29.81 29.56L29.9 29.62L29.99 29.67L30.08 29.72L30.17 29.77L30.26 29.82L30.3 29.63L30.33 29.45L30.36 29.26L30.39 29.08L30.42 28.89L30.44 28.71L30.45 28.53L30.46 28.35L30.47 28.16L30.48 27.98L30.48 27.8L30.47 27.62L30.47 27.44L30.46 27.26L30.44 27.09L30.43 26.91L30.4 26.73L30.38 26.55L30.35 26.38L30.32 26.2L30.28 26.03L30.24 25.85L30.2 25.68L30.15 25.51L30.11 25.33L30.05 25.16L29.99 24.99L29.93 24.82L29.87 24.65L29.8 24.48L29.73 24.31L29.66 24.14L29.58 23.97L29.5 23.8L29.41 23.64L29.33 23.47L29.23 23.31L29.14 23.14L29.04 22.98L28.94 22.81L28.87 22.71L28.81 22.61L28.74 22.51L28.68 22.41L28.61 22.31L28.54 22.21L28.47 22.11L28.41 22.01L28.34 21.91L28.27 21.81L28.2 21.71L28.13 21.62L28.06 21.52L27.99 21.42L27.92 21.32L27.85 21.22L27.78 21.12L27.71 21.03L27.64 20.93L27.57 20.83L27.5 20.73L27.43 20.63L27.36 20.54L27.29 20.44L27.22 20.34L27.15 20.24L27.08 20.14L27.01 20.04L26.94 19.95L26.87 19.85L26.8 19.75L26.73 19.65L26.66 19.55L26.59 19.45L26.52 19.35L26.46 19.25L26.39 19.15L26.32 19.05L26.25 18.95L26.19 18.85L25.99 18.54L25.8 18.23L25.62 17.92L25.46 17.61L25.3 17.29L25.16 16.98L25.03 16.67L24.91 16.36L24.8 16.05L24.7 15.73L24.62 15.42L24.54 15.11L24.47 14.79L24.42 14.48L24.37 14.17L24.34 13.85L24.31 13.54L24.29 13.23L24.29 12.91L24.29 12.6L24.3 12.28L24.32 11.97L24.35 11.66L24.39 11.34L24.43 11.03L24.49 10.71L24.55 10.4L24.62 10.08L24.7 9.77L24.79 9.45L24.88 9.14L24.99 8.82L25.1 8.51L25.21 8.19L25.34 7.88L25.47 7.56L25.61 7.25L25.76 6.93L25.91 6.62L26.07 6.3L26.07 6.3L26.07 6.3L26.07 6.29L26.07 6.29L26.08 6.29L26.08 6.28L26.08 6.28L26.09 6.28L26.09 6.27L26.1 6.27L26.1 6.26L26.11 6.26L26.11 6.26L26.12 6.25L26.14 6.24L26.14 6.24L26.15 6.23L26.2 6.21L26.21 6.21L26.22 6.2L26.24 6.19L26.26 6.18L26.27 6.17L26.28 6.17L26.29 6.16L26.3 6.15L26.31 6.15L26.31 6.18L26.32 6.22L26.32 6.25L26.33 6.28L26.33 6.32L26.33 6.35L26.34 6.38L26.34 6.42L26.34 6.45L26.35 6.48L26.35 6.51L26.36 6.64L26.37 6.67L26.37 6.71L26.37 6.74L26.38 6.77L26.38 6.8L26.38 6.83L26.39 6.86L26.39 6.89L26.39 6.93L26.4 6.96L26.4 6.99L26.4 7.02L26.41 7.05L26.41 7.08L26.42 7.11L26.42 7.14L26.42 7.17L26.43 7.2L26.43 7.23L26.44 7.26L26.44 7.29L26.45 7.32L26.45 7.35L26.46 7.38L26.46 7.41L26.5 7.61L26.54 7.8L26.59 7.99L26.64 8.17L26.69 8.35L26.75 8.53L26.81 8.71L26.87 8.88L26.94 9.05L27.02 9.22L27.1 9.38L27.18 9.55L27.26 9.71L27.35 9.86L27.44 10.02L27.54 10.17L27.64 10.32L27.74 10.46L27.84 10.61L27.95 10.75L28.07 10.89L28.18 11.03L28.3 11.16L28.42 11.29L28.54 11.42L28.67 11.55L28.8 11.67L28.93 11.8L29.07 11.92L29.21 12.03L29.35 12.15L29.49 12.26L29.63 12.38L29.78 12.49L29.93 12.59L30.08 12.7L30.24 12.8L30.4 12.91L30.55 13.01L30.71 13.1L30.82 13.17L30.92 13.23L31.02 13.28L31.13 13.34L31.24 13.4L31.34 13.45L31.45 13.51L31.55 13.56L31.66 13.62L31.77 13.67L31.88 13.72L31.99 13.77L32.1 13.82L32.2 13.87L32.31 13.92L32.42 13.97L32.53 14.02L32.64 14.07L32.75 14.12L32.86 14.17L32.97 14.22L33.09 14.27L33.2 14.32L33.31 14.37L33.42 14.42L33.53 14.47L33.64 14.52L33.74 14.57L33.85 14.62L33.96 14.67L34.07 14.72L34.18 14.77L34.29 14.82L34.4 14.88L34.5 14.93L34.61 14.98L34.72 15.04L34.82 15.1L34.93 15.15L35.16 15.29L35.29 15.36L35.42 15.43L35.55 15.51L35.68 15.58L35.81 15.66L35.94 15.73L36.07 15.8L36.2 15.88L36.33 15.95L36.46 16.03L36.59 16.11L36.72 16.18L36.85 16.26L36.98 16.33L37.11 16.41L37.24 16.49L37.37 16.57L37.49 16.64L37.62 16.72L37.75 16.8L37.88 16.88L38 16.96L38.13 17.04L38.25 17.12L38.38 17.2L38.51 17.28L38.63 17.37L38.76 17.45L38.88 17.53L39 17.62L39.13 17.7L39.25 17.79L39.37 17.87L39.5 17.96L39.62 18.04L39.74 18.13L39.86 18.22L39.98 18.31L40.1 18.4L40.21 18.48L40.31 18.56L40.41 18.64L40.5 18.72L40.6 18.81L40.69 18.89L40.78 18.98L40.87 19.07L40.96 19.16L41.05 19.26L41.13 19.35L41.21 19.45L41.29 19.55L41.37 19.65L41.45 19.75L41.52 19.86L41.6 19.96L41.67 20.07L41.74 20.18L41.81 20.29L41.87 20.4L41.94 20.51L42 20.63L42.06 20.74L42.12 20.86L42.18 20.98L42.24 21.1L42.29 21.23L42.34 21.35L42.39 21.48L42.44 21.61L42.49 21.74L42.54 21.87L42.58 22L42.63 22.13L42.67 22.27L42.71 22.4L42.75 22.54L42.78 22.68L42.82 22.83L42.89 22.75L42.96 22.68L43.03 22.61L43.1 22.54L43.17 22.47L43.23 22.4L43.3 22.32L43.36 22.25L43.42 22.18L43.48 22.1L43.54 22.03L43.59 21.95L43.65 21.88L43.7 21.81L43.76 21.73L43.81 21.66L43.86 21.58L43.91 21.5L43.96 21.43L44.01 21.35L44.05 21.27L44.1 21.2L44.15 21.12L44.19 21.04L44.23 20.96L44.28 20.88L44.32 20.81L44.36 20.73L44.4 20.65L44.44 20.57L44.48 20.49L44.51 20.41L44.55 20.33L44.59 20.24L44.62 20.16L44.66 20.08L44.69 20L44.73 19.92L44.76 19.83L44.8 19.75L44.86 19.57L44.93 19.39L44.99 19.22L45.04 19.04L45.09 18.86L45.14 18.68L45.18 18.5L45.22 18.32L45.26 18.14L45.29 17.96L45.31 17.78L45.34 17.6L45.36 17.42L45.38 17.24L45.39 17.06L45.4 16.88L45.41 16.69L45.42 16.51L45.42 16.33L45.42 16.15L45.42 15.97L45.42 15.79L45.41 15.61L45.4 15.42L45.39 15.24L45.38 15.06L45.37 14.88L45.35 14.7L45.34 14.52L45.32 14.33L45.3 14.15L45.28 13.97L45.26 13.79L45.23 13.61L45.21 13.42L45.19 13.24L45.16 13.06L45.14 12.88L45.11 12.7L45.08 12.52L45.03 12.12L45 11.73L44.97 11.34L44.96 10.95L44.96 10.56L44.97 10.18L44.99 9.79L45.03 9.41L45.08 9.03L45.13 8.65L45.2 8.27L45.28 7.9L45.37 7.54L45.48 7.17L45.59 6.81L45.71 6.46L45.85 6.11L45.99 5.76L46.15 5.42L46.32 5.09L46.49 4.76L46.68 4.44L46.87 4.12L47.08 3.81L47.3 3.51L47.52 3.22L47.76 2.93L48 2.65L48.25 2.38L48.51 2.11L48.79 1.86L49.07 1.61L49.35 1.38L49.65 1.15L49.96 0.93L50.27 0.72L50.59 0.53L50.92 0.34L51.26 0.16L51.61 0L51.5 0.2L51.39 0.39L51.29 0.59L51.19 0.79L51.11 0.98L51.03 1.18L50.95 1.37L50.88 1.57L50.82 1.76L50.76 1.96L50.71 2.15L50.66 2.35L50.62 2.54L50.59 2.74L50.56 2.93L50.53 3.12L50.52 3.32L50.5 3.51L50.5 3.7L50.5 3.89L50.5 4.09L50.51 4.28L50.52 4.47L50.54 4.66L50.56 4.85L50.59 5.04L50.62 5.23L50.66 5.42L50.7 5.61L50.75 5.8L50.8 5.99L50.86 6.18L50.92 6.37L50.98 6.55L51.05 6.74L51.12 6.93L51.2 7.12L51.28 7.31L51.36 7.49L51.45 7.68L51.5 7.78L51.56 7.88L51.61 7.99L51.66 8.09L51.71 8.19L51.77 8.29L51.82 8.39L51.88 8.49L51.93 8.59L51.99 8.69L52.05 8.79L52.11 8.89L52.16 8.99L52.22 9.09L52.28 9.19L52.34 9.29L52.4 9.39L52.47 9.48L52.53 9.58L52.59 9.68L52.65 9.78L52.72 9.87L52.78 9.97L52.84 10.06L52.91 10.16L52.97 10.26L53.04 10.35L53.1 10.45L53.17 10.54L53.24 10.63L53.3 10.73L53.37 10.82L53.44 10.92L53.51 11.01L53.57 11.1L53.64 11.19L53.71 11.29L53.78 11.38L53.85 11.47L53.92 11.56L54.04 11.73L54.17 11.9L54.29 12.07L54.42 12.24L54.54 12.41L54.66 12.58L54.78 12.75L54.9 12.92L55.02 13.09L55.14 13.26L55.25 13.43L55.37 13.61L55.48 13.78L55.59 13.96L55.7 14.13L55.81 14.31L55.92 14.49L56.02 14.67L56.12 14.85L56.22 15.03L56.32 15.21L56.42 15.39L56.51 15.57L56.6 15.76L56.68 15.95L56.77 16.13L56.85 16.32L56.93 16.51L57 16.71L57.07 16.9L57.14 17.1L57.21 17.29L57.27 17.49L57.33 17.69L57.38 17.89L57.43 18.1L57.48 18.3L57.52 18.51L57.56 18.72L57.59 18.93L57.6 19.02L57.62 19.12L57.63 19.21L57.64 19.3L57.65 19.39L57.65 19.49L57.66 19.58L57.67 19.68L57.67 19.77L57.67 19.86L57.68 19.96L57.68 20.05L57.68 20.15L57.68 20.24L57.68 20.34L57.68 20.43L57.68 20.53L57.68 20.63L57.68 20.72L57.68 20.82L57.67 20.92L57.67 21.01L57.67 21.11L57.67 21.21L57.66 21.3L57.66 21.4L57.66 21.5L57.65 21.6L57.65 21.7L57.64 21.8L57.64 21.89L57.64 21.99L57.63 22.09L57.63 22.19L57.63 22.29L57.63 22.39L57.63 22.49L57.62 22.59L57.62 22.69L57.62 22.79L57.74 22.76L57.86 22.72L57.98 22.68L58.1 22.64L58.21 22.6L58.33 22.56L58.44 22.52L58.56 22.47L58.67 22.42L58.78 22.38L58.9 22.33L59.01 22.27L59.12 22.22L59.23 22.17L59.34 22.11L59.45 22.05L59.55 21.99L59.66 21.93L59.76 21.87L59.87 21.8L59.97 21.74L60.07 21.67L60.17 21.6L60.27 21.53L60.37 21.46L60.46 21.38L60.56 21.31L60.65 21.23L60.74 21.15L60.83 21.07L60.92 20.98L61.01 20.9L61.1 20.81L61.18 20.72L61.26 20.63L61.34 20.54L61.42 20.44L61.5 20.35L61.58 20.25L61.65 20.15L61.73 20.04L61.8 19.94L61.88 19.83L61.96 19.72L62.03 19.61L62.1 19.5L62.18 19.39L62.25 19.28L62.32 19.17L62.39 19.06L62.46 18.95L62.53 18.83L62.6 18.72L62.67 18.61L62.74 18.49L62.81 18.38L62.87 18.27L62.94 18.15L63.01 18.04L63.07 17.92L63.14 17.8L63.2 17.69L63.27 17.57L63.33 17.46L63.39 17.34L63.45 17.22L63.52 17.1L63.58 16.99L63.64 16.87L63.7 16.75L63.76 16.63L63.82 16.51L63.87 16.39L63.93 16.27L63.99 16.15L64.05 16.04L64.1 15.92L64.16 15.8L64.21 15.68L64.27 15.56L64.37 15.34L64.47 15.13L64.57 14.92L64.67 14.71L64.78 14.5L64.88 14.29L64.99 14.08L65.1 13.88L65.21 13.68L65.32 13.47L65.44 13.28L65.55 13.08L65.67 12.88L65.79 12.69L65.92 12.5L66.04 12.31L66.17 12.12L66.3 11.94L66.44 11.76L66.57 11.58L66.71 11.41L66.86 11.23L67.01 11.06L67.16 10.9L67.31 10.73L67.47 10.57L67.63 10.42L67.8 10.26L67.97 10.11L68.14 9.97L68.32 9.82L68.51 9.69L68.7 9.55L68.89 9.42L69.09 9.29L69.29 9.17L69.5 9.05L69.71 8.94L69.93 8.83L70.15 8.72L70.29 8.66L70.44 8.6L70.58 8.53L70.72 8.48L70.87 8.42L71.01 8.36L71.16 8.31L71.3 8.26L71.45 8.21L71.59 8.16L71.74 8.11L71.89 8.06L72.03 8.02L72.18 7.98L72.33 7.94L72.48 7.9L72.63 7.86L72.78 7.83L72.93 7.79L73.08 7.76L73.23 7.73L73.38 7.7L73.53 7.68L73.68 7.65L73.83 7.63L73.99 7.6L74.14 7.58L74.29 7.57L74.45 7.55L74.6 7.53L74.76 7.52L74.91 7.51L75.07 7.5L75.23 7.49L75.38 7.48L75.54 7.47L75.7 7.47L75.86 7.47L76.02 7.47L76.18 7.47L76.04 7.56L75.9 7.66L75.76 7.76L75.63 7.85L75.5 7.96L75.37 8.06L75.25 8.16L75.12 8.27L75 8.38L74.88 8.49L74.77 8.6L74.65 8.71L74.54 8.82L74.44 8.94L74.33 9.06L74.23 9.18L74.13 9.3L74.03 9.42L73.94 9.55L73.85 9.67L73.76 9.8L73.67 9.93L73.59 10.06L73.51 10.2L73.44 10.33L73.37 10.47L73.3 10.61L73.23 10.75L73.17 10.89L73.11 11.03L73.06 11.18L73.01 11.32L72.96 11.47L72.91 11.62L72.87 11.78L72.84 11.93L72.8 12.08L72.77 12.24L72.75 12.4L72.73 12.56L72.71 12.72L72.69 12.89L72.67 13.05L72.66 13.21L72.64 13.38L72.63 13.54L72.62 13.7L72.6 13.87L72.6 14.03L72.59 14.19L72.58 14.36L72.57 14.52L72.57 14.69L72.56 14.85L72.56 15.02L72.56 15.18L72.56 15.35L72.55 15.51L72.55 15.68L72.56 15.84L72.56 16.01L72.56 16.17L72.56 16.34L72.57 16.5L72.57 16.67L72.58 16.83L72.59 17L72.6 17.16L72.6 17.33L72.61 17.49L72.62 17.65L72.63 17.82L72.64 17.98L72.66 18.15L72.67 18.31L72.68 18.48L72.69 18.64L72.71 18.8L72.72 18.97L72.74 19.13L72.76 19.34L72.77 19.55L72.79 19.76L72.81 19.97L72.82 20.18L72.84 20.39L72.85 20.59L72.87 20.8L72.88 21.01L72.89 21.22L72.9 21.43L72.9 21.64L72.91 21.84L72.91 22.05L72.91 22.26L72.91 22.46L72.91 22.67L72.9 22.88L72.89 23.08L72.88 23.29L72.87 23.49L72.85 23.7L72.84 23.9L72.81 24.11L72.79 24.31L72.76 24.51L72.73 24.72L72.7 24.92L72.66 25.12L72.62 25.32L72.57 25.52L72.52 25.73L72.47 25.93L72.41 26.13L72.35 26.33L72.29 26.53L72.22 26.73L72.14 26.92L72.07 27.12L71.98 27.32L71.95 27.39L71.92 27.47L71.88 27.54L71.84 27.62L71.81 27.69L71.77 27.76L71.73 27.83L71.7 27.91L71.66 27.98L71.62 28.05L71.58 28.12L71.54 28.19L71.49 28.27L71.45 28.34L71.41 28.41L71.37 28.48L71.32 28.55L71.28 28.62L71.23 28.69L71.19 28.76L71.14 28.83L71.1 28.9L71.05 28.97L71.01 29.04L70.96 29.12L70.92 29.19L70.87 29.26L70.82 29.33L70.78 29.4L70.73 29.47L70.69 29.54L70.64 29.62L70.59 29.69L70.55 29.76L70.5 29.83L70.45 29.91L70.41 29.98L70.36 30.06L70.32 30.13L70.27 30.2L70.43 30.25L70.59 30.28L70.75 30.32L70.92 30.35L71.08 30.38L71.24 30.4L71.4 30.42L71.56 30.44L71.72 30.46L71.88 30.47L72.04 30.48L72.2 30.48L72.35 30.48L72.51 30.48L72.67 30.47L72.83 30.47L72.99 30.46L73.15 30.44L73.31 30.42L73.46 30.4L73.62 30.38L73.78 30.35L73.93 30.32L74.09 30.29L74.25 30.25L74.4 30.21L74.56 30.17L74.71 30.13L74.86 30.08L75.02 30.03L75.17 29.97L75.32 29.92L75.47 29.86L75.62 29.8L75.78 29.73L75.93 29.66L76.08 29.59L76.22 29.52L76.37 29.44L76.52 29.36L76.63 29.3L76.74 29.24L76.85 29.17L76.96 29.11L77.07 29.04L77.18 28.98L77.29 28.91L77.4 28.84L77.51 28.78L77.61 28.71L77.72 28.64L77.83 28.57L77.94 28.5L78.04 28.43L78.15 28.36L78.26 28.29L78.36 28.21L78.47 28.14L78.57 28.07L78.68 28L78.78 27.92L78.89 27.85L78.99 27.78L79.1 27.7L79.2 27.63L79.3 27.55L79.41 27.48L79.51 27.41L79.62 27.33L79.72 27.26L79.82 27.18L79.93 27.11L80.03 27.03L80.14 26.96L80.24 26.88L80.34 26.81L80.45 26.73L80.55 26.66L80.65 26.58L80.76 26.51L81.07 26.29L81.38 26.09L81.69 25.89L82 25.71L82.32 25.54L82.63 25.38L82.94 25.23L83.26 25.1L83.57 24.97L83.89 24.86L84.21 24.75L84.52 24.66L84.84 24.58L85.16 24.5L85.47 24.44L85.79 24.39L86.11 24.35L86.43 24.32L86.75 24.29L87.07 24.28L87.39 24.28L87.71 24.29L88.03 24.3L88.35 24.33L88.67 24.36L89 24.41L89.32 24.46L89.64 24.52L89.97 24.59L90.29 24.67L90.62 24.75L90.94 24.85L91.27 24.95L91.59 25.07L91.92 25.18L92.24 25.31L92.57 25.45L92.9 25.59L93.23 25.74L93.55 25.9L93.56 25.9L93.57 25.91L93.58 25.91L93.59 25.92L93.6 25.93L93.61 25.93L93.62 25.94L93.63 25.95L93.64 25.95L93.65 25.96L93.66 25.97L93.67 25.97L93.68 25.98L93.69 25.99L93.7 26L93.71 26.01L93.72 26.01L93.73 26.02L93.74 26.03L93.75 26.04L93.77 26.06L93.8 26.08L93.82 26.1L93.86 26.14L93.88 26.16L93.9 26.17L93.93 26.2L93.94 26.21L93.96 26.22L93.97 26.23L93.99 26.25L94 26.26L94.02 26.28L93.67 26.31L93.32 26.35L92.99 26.41L92.67 26.47L92.35 26.55L92.04 26.63L91.75 26.72L91.46 26.83L91.18 26.94L90.91 27.06L90.64 27.19L90.38 27.32L90.14 27.47L89.89 27.62L89.66 27.78L89.43 27.95L89.21 28.12L89 28.31L88.79 28.5L88.58 28.69L88.39 28.89L88.2 29.1L88.01 29.31L87.83 29.53L87.66 29.76L87.49 29.99L87.32 30.22L87.16 30.46L87 30.71L86.85 30.96L86.7 31.21L86.56 31.47L86.41 31.73L86.28 32L86.14 32.26L86.01 32.53L85.88 32.81L85.75 33.08L85.62 33.36L85.5 33.64L85.46 33.73L85.42 33.82L85.38 33.91L85.34 34L85.3 34.09L85.26 34.18L85.23 34.27L85.19 34.36L85.15 34.45L85.11 34.54L85.07 34.63L85.03 34.72L84.99 34.81L84.95 34.9L84.92 34.99L84.88 35.08L84.84 35.17L84.8 35.26L84.76 35.35L84.72 35.44L84.68 35.53L84.64 35.62L84.6 35.71L84.56 35.8L84.52 35.89L84.48 35.97L84.44 36.06L84.39 36.15L84.35 36.24L84.31 36.33L84.27 36.41L84.22 36.5L84.18 36.59L84.14 36.68L84.09 36.76L84.05 36.85L84 36.94L83.96 37.02L83.91 37.11L83.87 37.19L83.75 37.4L83.64 37.6L83.53 37.79L83.43 37.97L83.32 38.15L83.21 38.33L83.11 38.49L83 38.65L82.9 38.81L82.79 38.96L82.68 39.11L82.57 39.26L82.46 39.4L82.34 39.53L82.22 39.67L82.1 39.8L81.98 39.93L81.85 40.05L81.72 40.18L81.59 40.3L81.45 40.42L81.3 40.55L81.15 40.67L81 40.79L80.83 40.91L80.67 41.03L80.49 41.15L80.31 41.27L80.12 41.4L79.92 41.52L79.72 41.65L79.5 41.78L79.28 41.91L79.05 42.05L78.81 42.19L78.56 42.33L78.3 42.48L78.03 42.63L77.75 42.78L77.45 42.94L77.57 43.05L77.69 43.16L77.81 43.26L77.93 43.37L78.05 43.47L78.17 43.56L78.3 43.66L78.42 43.75L78.55 43.84L78.68 43.93L78.81 44.01L78.93 44.1L79.06 44.18L79.2 44.25L79.33 44.33L79.46 44.4L79.59 44.47L79.73 44.54L79.87 44.6L80 44.67L80.14 44.72L80.28 44.78L80.42 44.84L80.56 44.89L80.7 44.94L80.85 44.98L80.99 45.03L81.13 45.07L81.28 45.1L81.43 45.14L81.57 45.17L81.72 45.2L81.87 45.23L82.02 45.25L82.17 45.27L82.33 45.29L82.48 45.31L82.63 45.32L82.79 45.33L82.94 45.34L83.07 45.34L83.19 45.35L83.32 45.35L83.44 45.35L83.57 45.35L83.69 45.35L83.82 45.35L83.94 45.35L84.07 45.35L84.19 45.34L84.32 45.34L84.45 45.34L84.57 45.33L84.7 45.33L84.82 45.32L84.95 45.31L85.07 45.31L85.2 45.3L85.32 45.29L85.45 45.28L85.57 45.27L85.7 45.26L85.82 45.26L85.95 45.25L86.07 45.23L86.2 45.22L86.32 45.21L86.45 45.2L86.57 45.19L86.69 45.18L86.82 45.17L86.94 45.15L87.07 45.14L87.19 45.13L87.32 45.12L87.44 45.1L87.57 45.09L87.69 45.08L87.81 45.06L87.94 45.05L88.33 45.01L88.71 44.99L89.09 44.97L89.46 44.96L89.83 44.96L90.19 44.97L90.55 44.99L90.9 45.02L91.25 45.06L91.59 45.1L91.93 45.16L92.26 45.23L92.59 45.31L92.91 45.4L93.23 45.49L93.54 45.6L93.85 45.71L94.16 45.84L94.46 45.98L94.75 46.12L95.05 46.28L95.33 46.44L95.62 46.62L95.9 46.8L96.18 46.99L96.45 47.2L96.72 47.41L96.98 47.64L97.24 47.87L97.5 48.11L97.76 48.37L98.01 48.63L98.26 48.9L98.51 49.18L98.75 49.48L98.99 49.78L99.23 50.09L99.46 50.41L99.69 50.75L99.92 51.09L99.93 51.09L99.93 51.1L99.93 51.1L99.93 51.11L99.94 51.11L99.94 51.12L99.94 51.13L99.94 51.13L99.95 51.14L99.95 51.15L99.95 51.15L99.95 51.16L99.95 51.17L99.95 51.18L99.95 51.18L99.96 51.19L99.96 51.2L99.96 51.21L99.96 51.22L99.96 51.23L99.97 51.27L99.97 51.28L99.97 51.29L99.97 51.3L99.98 51.33L99.98 51.34L99.98 51.35L99.98 51.36L99.98 51.37L99.99 51.39L99.99 51.4L99.99 51.41L99.99 51.43L100 51.44L100 51.45L99.96 51.44L99.93 51.42L99.86 51.39L99.71 51.33L99.68 51.31L99.65 51.3L99.61 51.28L99.58 51.27L99.54 51.26L99.51 51.24L99.48 51.23L99.44 51.21L99.41 51.2L99.38 51.18L99.34 51.17L99.31 51.16L99.28 51.14L99.24 51.13L99.21 51.11L99.18 51.1L99.15 51.09L99.11 51.07L99.08 51.06L99.05 51.05L99.02 51.03L98.99 51.02L98.95 51.01L98.92 51L98.89 50.98L98.86 50.97L98.83 50.96L98.8 50.95L98.76 50.93L98.73 50.92L98.7 50.91L98.67 50.9L98.52 50.85L98.37 50.8L98.22 50.75L98.08 50.71L97.93 50.67L97.78 50.64L97.63 50.6L97.49 50.58L97.34 50.55L97.19 50.53L97.04 50.51L96.9 50.49L96.75 50.48L96.6 50.47L96.46 50.47L96.31 50.46L96.17 50.46L96.02 50.47L95.88 50.47L95.73 50.48L95.59 50.5L95.44 50.51L95.3 50.53L95.15 50.55L95.01 50.58L94.87 50.6L94.72 50.63L94.58 50.67L94.44 50.7L94.3 50.74L94.16 50.78L94.02 50.83L93.88 50.87L93.74 50.92L93.6 50.98L93.46 51.03L93.32 51.09L93.18 51.15L93.05 51.21L92.91 51.28L92.79 51.33L92.68 51.39L92.56 51.45L92.45 51.51L92.33 51.57L92.22 51.63L92.11 51.69L91.99 51.76L91.88 51.82L91.77 51.89L91.65 51.95L91.54 52.02L91.43 52.08L91.32 52.15L91.21 52.22L91.1 52.29L90.99 52.36L90.88 52.42L90.77 52.49L90.66 52.56L90.55 52.63L90.44 52.7L90.33 52.77L90.22 52.85L90.11 52.92L90 52.99L89.89 53.06L89.78 53.13L89.67 53.2L89.45 53.34L89.35 53.42L89.24 53.49L89.13 53.56L89.02 53.63L88.91 53.7L88.8 53.77L88.69 53.84L88.58 53.91L88.47 53.98L88.38 54.04L88.3 54.09L88.21 54.15L88.13 54.21L88.04 54.26L87.96 54.32L87.87 54.38L87.79 54.44L87.7 54.49L87.62 54.55L87.53 54.61L87.45 54.67L87.36 54.73L87.28 54.79L87.19 54.85L87.02 54.96L86.94 55.02L86.85 55.08L86.77 55.14L86.68 55.2L86.6 55.26L86.51 55.32L86.43 55.37L86.34 55.43L86.26 55.49L86.17 55.55L86.09 55.6L86 55.66L85.92 55.72L85.83 55.77L85.74 55.83L85.66 55.88L85.57 55.94L85.48 55.99L85.4 56.04L85.31 56.09L85.22 56.15L85.13 56.2L85.04 56.25L84.86 56.35L84.69 56.44L84.52 56.53L84.35 56.62L84.19 56.7L84.03 56.78L83.87 56.85L83.71 56.92L83.55 56.99L83.4 57.05L83.24 57.11L83.09 57.16L82.93 57.22L82.78 57.26L82.62 57.31L82.46 57.35L82.3 57.39L82.14 57.43L81.98 57.46L81.81 57.49L81.64 57.52L81.47 57.54L81.29 57.57L81.11 57.59L80.93 57.6L80.74 57.62L80.54 57.63L80.34 57.64L80.14 57.65L79.93 57.65L79.71 57.66L79.48 57.66L79.25 57.66L79.01 57.66L78.76 57.65L78.5 57.65L78.23 57.64L77.96 57.63L77.67 57.62L77.37 57.61L77.39 57.64L77.4 57.67L77.41 57.7L77.42 57.73L77.43 57.76L77.44 57.79L77.45 57.82L77.46 57.85L77.46 57.88L77.47 57.91L77.48 57.94L77.49 57.97L77.51 58.03L77.53 58.08L77.55 58.14L77.56 58.17L77.56 58.2L77.57 58.23L77.58 58.25L77.59 58.28L77.6 58.31L77.61 58.34L77.62 58.36L77.63 58.39L77.64 58.42L77.65 58.44L77.66 58.47L77.67 58.5L77.68 58.52L77.69 58.55L77.7 58.58L77.71 58.6L77.72 58.63L77.73 58.66L77.74 58.68L77.75 58.71L77.76 58.73L77.84 58.88L77.91 59.03L77.99 59.18L78.07 59.32L78.15 59.46L78.23 59.6L78.31 59.74L78.4 59.88L78.49 60.01L78.58 60.14L78.67 60.27L78.76 60.4L78.86 60.53L78.96 60.65L79.06 60.78L79.16 60.9L79.27 61.02L79.37 61.13L79.48 61.25L79.59 61.36L79.7 61.47L79.82 61.58L79.93 61.69L80.05 61.8L80.17 61.9L80.29 62L80.41 62.1L80.54 62.2L80.67 62.3L80.79 62.39L80.93 62.48L81.06 62.57L81.19 62.66L81.33 62.75L81.47 62.83L81.61 62.92L81.75 63L81.9 63.07L82.04 63.15L82.19 63.23L82.28 63.27L82.37 63.31L82.45 63.36L82.54 63.4L82.63 63.44L82.72 63.48L82.8 63.52L82.89 63.57L82.98 63.61L83.07 63.65L83.16 63.69L83.25 63.73L83.34 63.77L83.42 63.82L83.51 63.86L83.6 63.9L83.69 63.94L83.78 63.98L83.87 64.02L83.96 64.06L84.05 64.1L84.14 64.14L84.23 64.18L84.32 64.22L84.41 64.26L84.5 64.3L84.59 64.34L84.67 64.38L84.76 64.42L84.85 64.46L84.94 64.5L85.03 64.54L85.12 64.58L85.39 64.7L85.48 64.74L85.57 64.78L85.66 64.82L85.75 64.86L86.07 65.01L86.39 65.16L86.69 65.32L86.99 65.48L87.28 65.65L87.56 65.83L87.83 66.01L88.1 66.2L88.35 66.39L88.6 66.59L88.84 66.8L89.08 67.01L89.3 67.22L89.52 67.44L89.73 67.67L89.93 67.9L90.13 68.13L90.31 68.37L90.5 68.62L90.67 68.87L90.83 69.13L90.99 69.39L91.14 69.65L91.29 69.92L91.43 70.2L91.56 70.48L91.68 70.77L91.8 71.06L91.91 71.35L92.01 71.65L92.11 71.95L92.2 72.26L92.28 72.58L92.36 72.89L92.43 73.22L92.49 73.54L92.55 73.87L92.6 74.21L92.65 74.55L92.69 74.89L92.69 74.92L92.69 74.95L92.7 74.98L92.7 75.02L92.7 75.05L92.71 75.08L92.71 75.11L92.71 75.14L92.71 75.17L92.72 75.21L92.72 75.24L92.72 75.27L92.72 75.3L92.73 75.33L92.73 75.36L92.73 75.4L92.73 75.43L92.74 75.46L92.74 75.49L92.74 75.55L92.75 75.62L92.75 75.68L92.76 75.77L92.76 75.84L92.77 75.87L92.77 75.93L92.77 75.96L92.78 76L92.78 76.06L92.78 76.09L92.78 76.12L92.79 76.15L92.78 76.15L92.77 76.15L92.75 76.15L92.74 76.15L92.72 76.15L92.69 76.15L92.65 76.15L92.63 76.15L92.62 76.15L92.61 76.15L92.6 76.15L92.59 76.14L92.58 76.14L92.58 76.14L92.57 76.14L92.56 76.14L92.56 76.14L92.55 76.14L92.55 76.14L92.54 76.14L92.54 76.13L92.54 76.13L92.53 76.13L92.53 76.13L92.53 76.13L92.52 76.13L92.52 76.12L92.52 76.12L92.35 75.86L92.17 75.62L91.98 75.38L91.79 75.15L91.6 74.94L91.4 74.73L91.2 74.54L91 74.36L90.79 74.18L90.58 74.02L90.36 73.86L90.15 73.71L89.92 73.57L89.7 73.44L89.47 73.32L89.24 73.21L89 73.11L88.76 73.01L88.52 72.92L88.28 72.84L88.03 72.77L87.78 72.7L87.53 72.64L87.28 72.59L87.02 72.54L86.76 72.5L86.5 72.46L86.24 72.44L85.98 72.41L85.71 72.4L85.44 72.38L85.17 72.38L84.9 72.38L84.62 72.38L84.35 72.38L84.07 72.4L83.8 72.41L83.52 72.43L83.24 72.45L82.96 72.48L82.75 72.5L82.54 72.52L82.33 72.54L82.13 72.57L81.92 72.59L81.71 72.61L81.51 72.64L81.3 72.66L81.1 72.68L80.89 72.71L80.68 72.73L80.48 72.75L80.27 72.77L80.06 72.79L79.86 72.81L79.65 72.83L79.44 72.85L79.24 72.87L79.03 72.88L78.83 72.89L78.62 72.9L78.41 72.91L78.21 72.92L78 72.93L77.79 72.93L77.59 72.93L77.38 72.93L77.17 72.92L76.97 72.92L76.76 72.91L76.55 72.89L76.34 72.88L76.14 72.86L75.93 72.83L75.72 72.81L75.51 72.78L75.3 72.74L75.1 72.7L74.89 72.66L74.68 72.61L74.55 72.58L74.42 72.55L74.29 72.51L74.17 72.47L74.04 72.43L73.91 72.39L73.79 72.35L73.66 72.31L73.54 72.27L73.42 72.22L73.3 72.17L73.17 72.13L73.05 72.08L72.93 72.03L72.81 71.97L72.7 71.92L72.58 71.86L72.46 71.81L72.34 71.75L72.23 71.69L72.11 71.62L71.99 71.56L71.88 71.49L71.77 71.43L71.65 71.36L71.54 71.29L71.43 71.21L71.31 71.14L71.2 71.06L71.09 70.98L70.98 70.9L70.87 70.82L70.76 70.74L70.65 70.65L70.54 70.56L70.44 70.47L70.33 70.38L70.22 70.28L70.11 70.18L70.01 70.08L69.98 70.22L69.95 70.35L69.92 70.48ZM50.93 17.18L50.73 17.31L50.53 17.45L50.34 17.59L50.16 17.73L49.98 17.88L49.8 18.03L49.64 18.19L49.48 18.35L49.32 18.51L49.17 18.68L49.03 18.86L48.89 19.03L48.76 19.22L48.63 19.4L48.52 19.59L48.4 19.78L48.3 19.98L48.2 20.18L48.1 20.38L48.01 20.59L47.93 20.8L47.85 21.01L47.78 21.23L47.72 21.44L47.66 21.67L47.61 21.89L47.57 22.12L47.53 22.35L47.5 22.59L47.47 22.82L47.45 23.06L47.44 23.31L47.43 23.55L47.43 23.8L47.44 24.05L47.45 24.3L47.47 24.55L47.49 24.81L47.5 24.88L47.51 24.95L47.51 25.01L47.52 25.08L47.53 25.15L47.54 25.22L47.54 25.28L47.55 25.35L47.56 25.42L47.56 25.49L47.57 25.55L47.57 25.62L47.58 25.69L47.58 25.76L47.59 25.83L47.59 25.89L47.6 25.96L47.6 26.03L47.61 26.1L47.61 26.17L47.62 26.23L47.62 26.3L47.62 26.37L47.62 26.44L47.63 26.5L47.63 26.57L47.63 26.64L47.63 26.71L47.63 26.78L47.63 26.84L47.63 26.91L47.63 26.98L47.63 27.05L47.63 27.11L47.63 27.18L47.63 27.25L47.62 27.32L47.62 27.38L47.62 27.45L47.61 27.52L47.61 27.64L47.6 27.76L47.58 27.88L47.57 28L47.55 28.12L47.54 28.24L47.52 28.36L47.49 28.47L47.47 28.59L47.44 28.71L47.41 28.82L47.38 28.94L47.35 29.05L47.32 29.16L47.28 29.27L47.24 29.38L47.2 29.5L47.15 29.61L47.11 29.71L47.06 29.82L47.01 29.93L46.95 30.04L46.9 30.14L46.84 30.25L46.78 30.35L46.72 30.46L46.65 30.56L46.58 30.66L46.51 30.76L46.43 30.87L46.36 30.97L46.28 31.07L46.2 31.16L46.11 31.26L46.02 31.36L45.93 31.46L45.84 31.55L45.74 31.65L45.64 31.74L45.54 31.84L45.51 31.71L45.48 31.58L45.45 31.46L45.41 31.34L45.38 31.22L45.34 31.1L45.3 30.98L45.26 30.87L45.21 30.75L45.17 30.64L45.12 30.53L45.07 30.42L45.02 30.31L44.97 30.21L44.92 30.1L44.86 30L44.81 29.9L44.75 29.8L44.69 29.71L44.63 29.61L44.56 29.52L44.5 29.42L44.43 29.33L44.36 29.24L44.29 29.16L44.22 29.07L44.15 28.98L44.07 28.9L44 28.82L43.92 28.74L43.84 28.66L43.76 28.58L43.67 28.51L43.59 28.43L43.5 28.36L43.41 28.29L43.32 28.22L43.23 28.15L43.14 28.08L43.04 28.02L42.96 27.96L42.88 27.91L42.8 27.86L42.72 27.8L42.64 27.75L42.56 27.7L42.47 27.64L42.39 27.59L42.31 27.54L42.23 27.49L42.14 27.44L42.06 27.39L41.98 27.34L41.89 27.29L41.81 27.24L41.72 27.19L41.64 27.14L41.55 27.09L41.47 27.05L41.38 27L41.3 26.95L41.21 26.9L41.12 26.86L41.04 26.81L40.95 26.77L40.86 26.72L40.78 26.68L40.69 26.63L40.6 26.59L40.51 26.54L40.43 26.5L40.34 26.46L40.25 26.41L40.16 26.37L40.08 26.33L39.99 26.29L39.9 26.24L39.81 26.2L39.72 26.16L39.64 26.12L39.46 26.04L39.28 25.95L39.1 25.86L38.93 25.77L38.75 25.68L38.58 25.59L38.41 25.5L38.24 25.4L38.08 25.3L37.91 25.2L37.75 25.1L37.59 25L37.44 24.89L37.28 24.78L37.13 24.67L36.98 24.55L36.84 24.43L36.7 24.31L36.56 24.18L36.43 24.05L36.29 23.92L36.17 23.78L36.04 23.64L35.92 23.5L35.8 23.35L35.69 23.2L35.58 23.04L35.48 22.88L35.38 22.71L35.28 22.54L35.19 22.37L35.1 22.18L35.02 22L34.94 21.81L34.87 21.61L34.8 21.41L34.74 21.2L34.68 20.98L34.63 20.77L34.59 20.54L34.5 20.73L34.41 20.93L34.32 21.12L34.24 21.31L34.16 21.5L34.09 21.69L34.02 21.88L33.95 22.07L33.89 22.26L33.83 22.45L33.78 22.63L33.73 22.82L33.68 23.01L33.64 23.19L33.6 23.38L33.57 23.56L33.54 23.75L33.52 23.93L33.5 24.12L33.49 24.3L33.48 24.49L33.47 24.67L33.47 24.85L33.48 25.03L33.49 25.22L33.5 25.4L33.52 25.58L33.55 25.76L33.58 25.95L33.62 26.13L33.66 26.31L33.71 26.49L33.76 26.67L33.82 26.85L33.88 27.03L33.96 27.22L34.03 27.4L34.11 27.58L34.2 27.76L34.3 27.94L34.35 28.03L34.4 28.12L34.45 28.21L34.5 28.3L34.55 28.39L34.61 28.47L34.66 28.56L34.71 28.65L34.77 28.74L34.82 28.82L34.88 28.91L34.93 29L34.99 29.08L35.05 29.17L35.1 29.25L35.16 29.34L35.22 29.43L35.27 29.51L35.33 29.6L35.39 29.68L35.44 29.77L35.5 29.85L35.56 29.94L35.62 30.03L35.67 30.11L35.73 30.2L35.79 30.28L35.84 30.37L35.9 30.46L35.95 30.54L36.01 30.63L36.06 30.72L36.12 30.8L36.17 30.89L36.23 30.98L36.28 31.07L36.33 31.16L36.38 31.25L36.43 31.34L36.48 31.42L36.55 31.54L36.61 31.66L36.67 31.78L36.73 31.89L36.78 32.01L36.84 32.13L36.89 32.25L36.94 32.37L36.98 32.49L37.03 32.61L37.07 32.73L37.11 32.85L37.14 32.97L37.18 33.1L37.21 33.22L37.24 33.34L37.26 33.47L37.29 33.59L37.31 33.72L37.33 33.85L37.34 33.97L37.35 34.1L37.36 34.23L37.37 34.36L37.37 34.49L37.37 34.62L37.37 34.75L37.36 34.88L37.35 35.02L37.34 35.15L37.33 35.28L37.31 35.42L37.28 35.56L37.26 35.69L37.23 35.83L37.2 35.97L37.16 36.11L37.12 36.25L37.08 36.4L37.03 36.54L36.87 36.37L36.7 36.21L36.54 36.06L36.37 35.92L36.2 35.78L36.03 35.65L35.86 35.53L35.68 35.42L35.51 35.31L35.33 35.21L35.15 35.11L34.97 35.03L34.79 34.95L34.61 34.87L34.43 34.8L34.24 34.74L34.06 34.68L33.87 34.63L33.68 34.58L33.5 34.54L33.31 34.5L33.12 34.46L32.92 34.44L32.73 34.41L32.54 34.39L32.34 34.37L32.15 34.36L31.95 34.35L31.76 34.35L31.56 34.34L31.37 34.35L31.17 34.35L30.97 34.35L30.77 34.36L30.57 34.37L30.37 34.39L30.17 34.4L29.97 34.42L29.77 34.43L29.57 34.45L29.36 34.47L29.15 34.49L28.94 34.51L28.73 34.53L28.52 34.54L28.32 34.56L28.11 34.57L27.9 34.57L27.7 34.58L27.49 34.58L27.29 34.58L27.09 34.58L26.88 34.57L26.68 34.56L26.48 34.55L26.28 34.53L26.08 34.51L25.89 34.49L25.69 34.46L25.49 34.42L25.3 34.38L25.11 34.34L24.91 34.29L24.72 34.23L24.54 34.17L24.35 34.1L24.16 34.03L23.98 33.95L23.79 33.86L23.61 33.77L23.43 33.67L23.25 33.56L23.07 33.45L22.9 33.32L22.72 33.19L22.55 33.06L22.38 32.91L22.21 32.76L22.05 32.59L21.88 32.42L21.9 32.52L21.92 32.61L21.93 32.71L21.95 32.81L21.97 32.9L21.99 33L22.01 33.09L22.03 33.18L22.05 33.28L22.06 33.37L22.08 33.47L22.1 33.56L22.12 33.65L22.14 33.75L22.17 33.84L22.19 33.93L22.21 34.03L22.23 34.12L22.25 34.21L22.28 34.3L22.3 34.4L22.32 34.49L22.35 34.58L22.37 34.67L22.4 34.76L22.43 34.85L22.45 34.94L22.48 35.03L22.51 35.12L22.54 35.21L22.57 35.3L22.6 35.39L22.63 35.48L22.66 35.56L22.69 35.65L22.73 35.74L22.76 35.83L22.8 35.91L22.83 36L22.87 36.09L22.94 36.23L23.01 36.38L23.08 36.52L23.16 36.66L23.24 36.79L23.32 36.92L23.41 37.05L23.5 37.17L23.59 37.3L23.69 37.41L23.79 37.53L23.89 37.64L23.99 37.75L24.1 37.86L24.21 37.96L24.32 38.06L24.43 38.16L24.55 38.26L24.66 38.35L24.78 38.44L24.9 38.53L25.03 38.62L25.15 38.7L25.28 38.78L25.41 38.87L25.54 38.95L25.67 39.02L25.8 39.1L25.93 39.17L26.07 39.25L26.2 39.32L26.34 39.39L26.48 39.46L26.62 39.53L26.76 39.59L26.9 39.66L27.04 39.72L27.18 39.79L27.32 39.85L27.46 39.91L27.59 39.97L27.71 40.02L27.83 40.08L27.95 40.13L28.07 40.19L28.18 40.25L28.3 40.31L28.42 40.37L28.53 40.43L28.65 40.49L28.76 40.56L28.87 40.63L28.98 40.69L29.09 40.76L29.2 40.83L29.31 40.9L29.41 40.97L29.52 41.05L29.62 41.13L29.72 41.2L29.82 41.28L29.92 41.36L30.02 41.45L30.11 41.53L30.21 41.62L30.3 41.71L30.39 41.8L30.48 41.89L30.57 41.99L30.66 42.08L30.74 42.18L30.82 42.28L30.9 42.39L30.98 42.49L31.06 42.6L31.13 42.71L31.21 42.82L31.28 42.94L31.35 43.06L31.41 43.18L31.43 43.21L31.45 43.25L31.47 43.28L31.49 43.32L31.5 43.35L31.52 43.39L31.54 43.43L31.56 43.46L31.57 43.5L31.59 43.54L31.6 43.58L31.62 43.61L31.64 43.65L31.65 43.69L31.67 43.73L31.68 43.77L31.7 43.81L31.71 43.85L31.73 43.89L31.75 43.93L31.76 43.97L31.78 44.02L31.79 44.06L31.81 44.1L31.84 44.19L31.86 44.23L31.87 44.28L31.89 44.32L31.91 44.37L31.93 44.42L31.94 44.46L31.96 44.51L31.98 44.56L32 44.61L32.02 44.66L32.04 44.71L32.06 44.76L32.08 44.81L32.1 44.86L31.87 44.81L31.64 44.76L31.41 44.72L31.19 44.68L30.96 44.66L30.75 44.63L30.53 44.62L30.31 44.61L30.1 44.61L29.89 44.61L29.69 44.62L29.48 44.64L29.28 44.66L29.08 44.69L28.88 44.72L28.69 44.75L28.49 44.8L28.3 44.84L28.11 44.9L27.93 44.95L27.74 45.01L27.55 45.08L27.37 45.15L27.19 45.22L27.01 45.3L26.83 45.38L26.66 45.47L26.48 45.56L26.31 45.65L26.13 45.74L25.96 45.84L25.79 45.94L25.62 46.05L25.45 46.16L25.28 46.27L25.12 46.38L24.95 46.49L24.79 46.61L24.62 46.73L24.46 46.85L24.29 46.97L24.12 47.1L23.95 47.22L23.78 47.34L23.61 47.46L23.43 47.57L23.26 47.68L23.09 47.79L22.91 47.9L22.74 48L22.56 48.1L22.39 48.2L22.21 48.29L22.03 48.38L21.85 48.47L21.67 48.55L21.48 48.62L21.3 48.69L21.11 48.76L20.92 48.82L20.74 48.88L20.54 48.93L20.35 48.97L20.16 49.01L19.96 49.05L19.76 49.07L19.56 49.09L19.36 49.11L19.15 49.12L18.95 49.12L18.74 49.11L18.53 49.09L18.31 49.07L18.1 49.04L17.88 49.01L17.66 48.96L17.43 48.91L17.21 48.84L16.98 48.77L16.74 48.69L16.88 48.88L17.01 49.07L17.14 49.25L17.28 49.43L17.42 49.6L17.56 49.77L17.7 49.94L17.84 50.1L17.99 50.26L18.13 50.41L18.28 50.56L18.43 50.7L18.58 50.84L18.73 50.98L18.89 51.11L19.05 51.23L19.21 51.35L19.37 51.47L19.53 51.58L19.7 51.69L19.87 51.79L20.04 51.88L20.21 51.97L20.39 52.06L20.57 52.14L20.75 52.21L20.94 52.28L21.12 52.34L21.32 52.4L21.51 52.45L21.7 52.5L21.9 52.54L22.11 52.58L22.31 52.61L22.52 52.63L22.73 52.65L22.95 52.66L23.17 52.66L23.39 52.66L23.61 52.65L23.82 52.64L23.96 52.64L24.03 52.63L24.1 52.63L24.17 52.63L24.24 52.62L24.31 52.62L24.38 52.61L24.45 52.61L24.52 52.61L24.59 52.6L24.67 52.6L24.74 52.6L24.81 52.59L24.88 52.59L24.95 52.59L25.02 52.58L25.09 52.58L25.16 52.58L25.23 52.57L25.3 52.57L25.37 52.56L25.44 52.56L25.51 52.56L25.58 52.55L25.65 52.55L25.72 52.54L25.79 52.54L25.86 52.53L25.93 52.53L26 52.53L26.07 52.52L26.14 52.52L26.21 52.51L26.28 52.51L26.35 52.5L26.42 52.5L26.54 52.49L26.66 52.48L26.78 52.48L26.89 52.48L27.01 52.48L27.13 52.48L27.24 52.48L27.36 52.49L27.47 52.49L27.59 52.5L27.7 52.51L27.82 52.53L27.93 52.54L28.04 52.56L28.16 52.58L28.27 52.6L28.38 52.62L28.49 52.64L28.6 52.67L28.71 52.69L28.82 52.72L28.93 52.75L29.04 52.79L29.15 52.82L29.25 52.86L29.36 52.9L29.47 52.94L29.57 52.98L29.68 53.02L29.78 53.07L29.89 53.12L29.99 53.17L30.1 53.22L30.2 53.28L30.3 53.33L30.4 53.39L30.5 53.45L30.6 53.51L30.7 53.57L30.8 53.64L30.83 53.66L30.85 53.67L30.88 53.69L30.9 53.71L30.92 53.73L30.95 53.75L30.97 53.76L30.99 53.78L31.02 53.8L31.04 53.82L31.06 53.84L31.08 53.86L31.11 53.88L31.13 53.9L31.15 53.92L31.17 53.94L31.19 53.96L31.21 53.98L31.23 54L31.25 54.02L31.27 54.04L31.28 54.05L31.3 54.07L31.32 54.09L31.34 54.11L31.39 54.16L31.41 54.18L31.42 54.2L31.44 54.21L31.45 54.23L31.47 54.24L31.48 54.26L31.49 54.27L31.51 54.28L31.52 54.29L31.53 54.31L31.55 54.32L31.56 54.33L31.48 54.38L31.4 54.44L31.31 54.49L31.23 54.55L31.15 54.6L31.07 54.66L30.99 54.71L30.91 54.76L30.82 54.81L30.74 54.86L30.66 54.92L30.58 54.97L30.5 55.02L30.42 55.07L30.34 55.12L30.26 55.17L30.18 55.22L30.1 55.27L30.02 55.32L29.94 55.37L29.86 55.43L29.78 55.48L29.71 55.53L29.63 55.58L29.55 55.64L29.48 55.69L29.41 55.74L29.33 55.8L29.26 55.85L29.19 55.91L29.12 55.96L29.05 56.02L28.98 56.08L28.91 56.14L28.84 56.2L28.78 56.26L28.71 56.32L28.65 56.38L28.59 56.45L28.53 56.51L28.46 56.59L28.39 56.66L28.33 56.74L28.26 56.82L28.2 56.89L28.13 56.97L28.07 57.05L28.01 57.13L27.94 57.21L27.88 57.29L27.82 57.38L27.76 57.46L27.7 57.54L27.64 57.63L27.58 57.71L27.53 57.8L27.47 57.88L27.41 57.97L27.36 58.05L27.3 58.14L27.25 58.23L27.19 58.32L27.14 58.41L27.09 58.49L27.04 58.58L26.98 58.67L26.93 58.76L26.88 58.85L26.83 58.94L26.79 59.04L26.74 59.13L26.69 59.22L26.64 59.31L26.6 59.4L26.55 59.49L26.51 59.58L26.46 59.68L26.42 59.77L26.37 59.86L26.33 59.95L26.25 60.14L26.16 60.33L26.08 60.52L25.99 60.7L25.9 60.89L25.81 61.07L25.72 61.25L25.63 61.43L25.53 61.61L25.44 61.79L25.34 61.96L25.24 62.13L25.13 62.3L25.03 62.47L24.92 62.63L24.8 62.79L24.69 62.95L24.57 63.11L24.45 63.26L24.32 63.41L24.2 63.55L24.06 63.69L23.93 63.83L23.79 63.96L23.64 64.09L23.5 64.22L23.34 64.34L23.19 64.46L23.02 64.57L22.86 64.68L22.68 64.78L22.51 64.88L22.33 64.97L22.14 65.06L21.95 65.14L21.75 65.22L21.54 65.29L21.33 65.35L21.12 65.41L20.89 65.47L20.9 65.48L20.91 65.49L20.91 65.5L20.92 65.51L20.93 65.52L20.93 65.53L20.94 65.55L20.95 65.57L20.97 65.62L20.98 65.63L20.98 65.63L20.99 65.64L20.99 65.65L20.99 65.66L21 65.66L21 65.67L21.01 65.68L21.01 65.69L21.02 65.69L21.02 65.7L21.03 65.7L21.03 65.7L21.03 65.71L21.04 65.71L21.04 65.71L21.07 65.73L21.1 65.75L21.12 65.75L21.13 65.76L21.16 65.78L21.2 65.79L21.21 65.8L21.24 65.82L21.26 65.82L21.29 65.84L21.32 65.86L21.34 65.86L21.35 65.87L21.37 65.88L21.38 65.89L21.41 65.9L21.43 65.91L21.44 65.91L21.46 65.92L21.48 65.93L21.49 65.94L21.51 65.94L21.52 65.95L21.54 65.96L21.56 65.96L21.57 65.97L21.59 65.98L21.61 65.99L21.62 65.99L21.64 66L21.65 66.01L21.67 66.01L21.87 66.09L22.06 66.16L22.26 66.23L22.46 66.29L22.65 66.35L22.84 66.4L23.04 66.45L23.23 66.49L23.42 66.53L23.61 66.56L23.81 66.59L24 66.61L24.19 66.62L24.38 66.64L24.56 66.64L24.75 66.64L24.94 66.64L25.13 66.63L25.31 66.62L25.5 66.6L25.68 66.57L25.87 66.54L26.05 66.51L26.24 66.47L26.42 66.43L26.6 66.38L26.78 66.32L26.97 66.26L27.15 66.2L27.33 66.13L27.51 66.06L27.68 65.98L27.86 65.89L28.04 65.8L28.22 65.71L28.39 65.61L28.57 65.51L28.75 65.4L28.92 65.29L29.09 65.17L29.16 65.12L29.22 65.08L29.29 65.04L29.35 64.99L29.41 64.95L29.48 64.9L29.61 64.81L29.67 64.77L29.73 64.72L29.8 64.68L29.86 64.64L29.93 64.59L29.99 64.55L30.06 64.5L30.12 64.46L30.18 64.41L30.25 64.37L30.31 64.33L30.38 64.28L30.44 64.24L30.51 64.2L30.57 64.15L30.64 64.11L30.7 64.07L30.77 64.03L30.83 63.99L30.9 63.95L30.96 63.9L31.03 63.86L31.1 63.82L31.16 63.78L31.23 63.74L31.3 63.71L31.36 63.67L31.43 63.63L31.5 63.59L31.57 63.55L31.63 63.52L31.7 63.48L31.81 63.43L31.92 63.37L32.03 63.32L32.14 63.27L32.26 63.22L32.37 63.18L32.48 63.14L32.59 63.1L32.7 63.06L32.82 63.02L32.93 62.99L33.05 62.96L33.16 62.93L33.27 62.9L33.39 62.88L33.51 62.86L33.62 62.84L33.74 62.82L33.86 62.8L33.98 62.79L34.09 62.78L34.21 62.78L34.33 62.77L34.45 62.77L34.57 62.77L34.7 62.77L34.82 62.77L34.94 62.78L35.07 62.79L35.19 62.8L35.31 62.82L35.44 62.83L35.57 62.85L35.69 62.88L35.82 62.9L35.95 62.93L36.08 62.96L36.21 62.99L36.34 63.02L36.47 63.06L36.3 63.25L36.13 63.43L35.98 63.62L35.83 63.81L35.69 64L35.56 64.2L35.44 64.39L35.33 64.58L35.22 64.78L35.12 64.98L35.03 65.18L34.95 65.38L34.87 65.58L34.8 65.78L34.74 65.99L34.68 66.19L34.63 66.4L34.58 66.61L34.54 66.81L34.5 67.02L34.47 67.23L34.45 67.44L34.43 67.65L34.41 67.87L34.4 68.08L34.39 68.29L34.38 68.51L34.38 68.72L34.38 68.94L34.39 69.16L34.39 69.37L34.41 69.59L34.42 69.81L34.43 70.03L34.45 70.25L34.47 70.47L34.49 70.69L34.51 70.91L34.53 71.13L34.55 71.35L34.57 71.54L34.59 71.73L34.6 71.93L34.62 72.12L34.62 72.31L34.63 72.5L34.63 72.69L34.63 72.88L34.63 73.06L34.62 73.25L34.61 73.44L34.6 73.62L34.58 73.81L34.56 73.99L34.54 74.17L34.51 74.35L34.47 74.53L34.43 74.71L34.39 74.89L34.34 75.06L34.29 75.24L34.23 75.41L34.17 75.58L34.1 75.75L34.02 75.92L33.94 76.09L33.86 76.25L33.76 76.42L33.67 76.58L33.56 76.74L33.45 76.9L33.33 77.05L33.21 77.21L33.08 77.36L32.94 77.51L32.8 77.66L32.65 77.8L32.49 77.95L32.32 78.09L32.15 78.23L32.38 78.21L32.61 78.19L32.84 78.17L33.07 78.14L33.29 78.11L33.51 78.07L33.73 78.04L33.95 77.99L34.16 77.95L34.37 77.9L34.58 77.84L34.78 77.78L34.98 77.72L35.18 77.65L35.37 77.58L35.56 77.5L35.75 77.42L35.94 77.33L36.12 77.24L36.3 77.15L36.47 77.05L36.65 76.94L36.82 76.83L36.98 76.72L37.14 76.6L37.3 76.47L37.46 76.34L37.61 76.2L37.76 76.06L37.91 75.92L38.05 75.76L38.19 75.61L38.32 75.44L38.46 75.27L38.58 75.1L38.71 74.92L38.83 74.73L38.95 74.54L39.06 74.34L39.17 74.13L39.2 74.08L39.22 74.03L39.25 73.97L39.28 73.92L39.31 73.87L39.33 73.81L39.36 73.76L39.39 73.71L39.41 73.65L39.44 73.6L39.47 73.54L39.49 73.49L39.52 73.44L39.55 73.38L39.57 73.33L39.6 73.27L39.63 73.22L39.65 73.17L39.68 73.11L39.71 73.06L39.73 73L39.76 72.95L39.78 72.89L39.81 72.84L39.84 72.79L39.86 72.73L39.89 72.68L39.91 72.62L39.94 72.57L39.97 72.51L40.02 72.4L40.04 72.35L40.12 72.19L40.15 72.13L40.17 72.08L40.2 72.02L40.22 71.97L40.28 71.85L40.34 71.73L40.4 71.62L40.46 71.5L40.52 71.39L40.59 71.28L40.65 71.16L40.72 71.05L40.79 70.95L40.86 70.84L40.93 70.73L41.01 70.63L41.08 70.53L41.16 70.43L41.24 70.33L41.32 70.23L41.4 70.14L41.48 70.04L41.57 69.95L41.65 69.86L41.74 69.77L41.83 69.68L41.92 69.6L42.01 69.51L42.11 69.43L42.21 69.35L42.3 69.27L42.4 69.19L42.51 69.12L42.61 69.04L42.72 68.97L42.82 68.9L42.93 68.84L43.04 68.77L43.16 68.71L43.27 68.65L43.39 68.59L43.51 68.53L43.63 68.47L43.75 68.42L43.78 68.41L43.8 68.4L43.82 68.39L43.85 68.38L43.87 68.37L43.89 68.36L43.92 68.36L43.94 68.35L43.96 68.34L43.99 68.33L44.01 68.33L44.03 68.32L44.06 68.31L44.08 68.31L44.1 68.3L44.13 68.29L44.15 68.29L44.17 68.28L44.19 68.28L44.21 68.27L44.24 68.26L44.26 68.26L44.28 68.25L44.3 68.25L44.32 68.24L44.34 68.24L44.36 68.24L44.4 68.23L44.42 68.22L44.49 68.21L44.51 68.2L44.54 68.2L44.56 68.19L44.57 68.19L44.58 68.19L44.58 68.25L44.58 68.32L44.58 68.39L44.58 68.46L44.58 68.52L44.58 68.59L44.58 68.65L44.58 68.72L44.58 68.79L44.58 68.85L44.57 68.91L44.57 68.98L44.57 69.11L44.57 69.17L44.57 69.23L44.57 69.29L44.56 69.36L44.56 69.42L44.56 69.48L44.56 69.54L44.56 69.6L44.56 69.66L44.56 69.72L44.56 69.78L44.56 69.84L44.56 69.91L44.56 69.96L44.56 70.02L44.56 70.08L44.56 70.14L44.57 70.2L44.57 70.26L44.57 70.32L44.57 70.38L44.58 70.44L44.58 70.5L44.59 70.56L44.59 70.61L44.6 70.67L44.61 70.81L44.63 70.95L44.65 71.09L44.68 71.23L44.7 71.37L44.73 71.5L44.76 71.64L44.8 71.77L44.83 71.9L44.87 72.04L44.91 72.17L44.95 72.3L45 72.43L45.04 72.55L45.09 72.68L45.14 72.81L45.19 72.93L45.25 73.06L45.3 73.18L45.36 73.31L45.42 73.43L45.48 73.55L45.55 73.67L45.61 73.79L45.68 73.91L45.74 74.03L45.81 74.15L45.88 74.27L45.96 74.39L46.03 74.5L46.1 74.62L46.18 74.74L46.26 74.85L46.33 74.97L46.41 75.08L46.49 75.19L46.58 75.31L46.66 75.42L46.74 75.53L46.83 75.64L46.95 75.81L47.08 75.98L47.2 76.15L47.32 76.31L47.43 76.48L47.55 76.65L47.66 76.82L47.77 77L47.87 77.17L47.98 77.34L48.08 77.52L48.17 77.69L48.26 77.87L48.35 78.05L48.43 78.23L48.51 78.41L48.59 78.59L48.66 78.78L48.72 78.97L48.78 79.15L48.84 79.34L48.89 79.53L48.94 79.73L48.98 79.92L49.01 80.12L49.04 80.32L49.06 80.52L49.07 80.72L49.08 80.93L49.09 81.13L49.08 81.34L49.07 81.55L49.05 81.77L49.03 81.99L48.99 82.21L48.95 82.43L48.91 82.65L48.85 82.88L48.79 83.11L48.71 83.34L48.88 83.23L49.05 83.11L49.21 82.99L49.37 82.87L49.53 82.75L49.69 82.63L49.84 82.5L49.99 82.38L50.13 82.25L50.27 82.12L50.41 82L50.54 81.86L50.67 81.73L50.8 81.6L50.92 81.46L51.04 81.33L51.16 81.19L51.27 81.05L51.37 80.9L51.48 80.76L51.58 80.61L51.67 80.46L51.76 80.31L51.85 80.16L51.93 80L52.01 79.84L52.08 79.68L52.15 79.52L52.22 79.36L52.28 79.19L52.33 79.02L52.39 78.85L52.43 78.67L52.47 78.49L52.51 78.31L52.54 78.13L52.57 77.94L52.59 77.75L52.61 77.56L52.62 77.36L52.62 77.28L52.63 77.19L52.63 77.11L52.63 77.02L52.63 76.94L52.63 76.85L52.63 76.77L52.63 76.68L52.63 76.6L52.63 76.51L52.63 76.43L52.63 76.34L52.63 76.26L52.63 76.17L52.62 76.09L52.62 76L52.62 75.92L52.62 75.83L52.61 75.75L52.61 75.66L52.6 75.57L52.6 75.49L52.59 75.4L52.59 75.32L52.58 75.23L52.58 75.15L52.57 75.06L52.57 74.98L52.56 74.89L52.56 74.81L52.55 74.72L52.54 74.64L52.54 74.55L52.53 74.47L52.53 74.38L52.52 74.3L52.51 74.21L52.51 74.13L52.5 74.04L52.5 73.96L52.49 73.82L52.48 73.69L52.48 73.56L52.47 73.43L52.47 73.3L52.47 73.17L52.48 73.04L52.48 72.92L52.49 72.79L52.5 72.66L52.51 72.53L52.52 72.41L52.53 72.28L52.55 72.16L52.57 72.03L52.59 71.91L52.61 71.79L52.64 71.66L52.66 71.54L52.69 71.42L52.72 71.3L52.76 71.18L52.79 71.06L52.83 70.94L52.87 70.82L52.91 70.7L52.96 70.58L53.01 70.47L53.05 70.35L53.11 70.24L53.16 70.12L53.22 70.01L53.28 69.89L53.34 69.78L53.4 69.66L53.47 69.55L53.54 69.44L53.61 69.33L53.68 69.22L53.76 69.11L53.78 69.09L53.79 69.06L53.81 69.04L53.82 69.02L53.83 69L53.85 68.97L53.86 68.95L53.87 68.93L53.88 68.91L53.9 68.88L53.91 68.86L53.92 68.84L53.93 68.82L53.94 68.79L53.95 68.77L53.96 68.75L53.97 68.73L53.98 68.7L53.99 68.68L54 68.66L54.01 68.64L54.02 68.62L54.02 68.6L54.03 68.58L54.04 68.56L54.05 68.54L54.06 68.52L54.06 68.5L54.07 68.49L54.08 68.45L54.09 68.42L54.1 68.41L54.11 68.38L54.11 68.36L54.12 68.35L54.12 68.34L54.13 68.33L54.2 68.43L54.27 68.53L54.35 68.64L54.42 68.74L54.49 68.84L54.55 68.93L54.62 69.03L54.69 69.13L54.75 69.23L54.82 69.32L54.88 69.42L54.94 69.51L55.06 69.7L55.13 69.79L55.19 69.88L55.25 69.97L55.31 70.06L55.37 70.15L55.42 70.23L55.48 70.32L55.54 70.4L55.6 70.49L55.66 70.57L55.72 70.65L55.78 70.73L55.84 70.81L55.9 70.89L55.96 70.97L56.02 71.04L56.09 71.12L56.15 71.19L56.21 71.26L56.28 71.33L56.34 71.4L56.41 71.47L56.47 71.54L56.54 71.6L56.61 71.66L56.68 71.73L56.76 71.8L56.84 71.86L56.92 71.93L57.01 72L57.09 72.07L57.17 72.13L57.26 72.2L57.35 72.26L57.43 72.32L57.52 72.38L57.61 72.45L57.7 72.51L57.78 72.57L57.87 72.63L57.96 72.68L58.06 72.74L58.15 72.8L58.24 72.86L58.33 72.91L58.42 72.97L58.52 73.02L58.61 73.08L58.7 73.13L58.8 73.18L58.89 73.23L58.99 73.29L59.08 73.34L59.18 73.39L59.28 73.44L59.37 73.49L59.47 73.54L59.56 73.58L59.66 73.63L59.76 73.68L59.86 73.73L59.95 73.77L60.05 73.82L60.15 73.87L60.24 73.91L60.34 73.96L60.53 74.04L60.71 74.13L60.89 74.22L61.07 74.31L61.25 74.4L61.43 74.5L61.6 74.59L61.78 74.69L61.95 74.79L62.12 74.89L62.28 74.99L62.45 75.1L62.61 75.2L62.77 75.31L62.92 75.43L63.07 75.54L63.22 75.66L63.37 75.78L63.51 75.91L63.65 76.04L63.79 76.17L63.92 76.31L64.04 76.44L64.17 76.59L64.29 76.74L64.4 76.89L64.51 77.04L64.62 77.2L64.72 77.37L64.82 77.54L64.91 77.71L65 77.89L65.08 78.07L65.16 78.26L65.23 78.46L65.29 78.66L65.35 78.86L65.41 79.08L65.46 79.29L65.5 79.52L65.62 79.31L65.73 79.11L65.83 78.91L65.93 78.7L66.02 78.5L66.1 78.3L66.18 78.09L66.25 77.89L66.32 77.69L66.38 77.48L66.44 77.28L66.49 77.07L66.53 76.87L66.57 76.67L66.6 76.47L66.63 76.26L66.64 76.06L66.66 75.86L66.67 75.66L66.67 75.46L66.66 75.26L66.65 75.05L66.64 74.85L66.62 74.65L66.59 74.46L66.56 74.26L66.52 74.06L66.47 73.86L66.42 73.66L66.36 73.47L66.3 73.27L66.23 73.08L66.16 72.88L66.08 72.69L65.99 72.49L65.9 72.3L65.81 72.11L65.7 71.92L65.59 71.73L65.48 71.54L65.43 71.45L65.37 71.37L65.32 71.28L65.26 71.2L65.21 71.12L65.15 71.03L65.1 70.95L65.04 70.86L64.99 70.78L64.93 70.7L64.88 70.61L64.82 70.53L64.71 70.36L64.65 70.28L64.6 70.19L64.54 70.11L64.49 70.02L64.43 69.94L64.38 69.86L64.32 69.77L64.27 69.69L64.21 69.6L64.16 69.52L64.11 69.43L64.05 69.35L64 69.26L63.95 69.18L63.9 69.09L63.84 69.01L63.79 68.92L63.74 68.83L63.69 68.75L63.64 68.66L63.59 68.57L63.55 68.48L63.5 68.4L63.45 68.31L63.41 68.22L63.36 68.13L63.31 68.03L63.26 67.93L63.21 67.82L63.17 67.72L63.13 67.61L63.09 67.51L63.05 67.4L63.01 67.3L62.98 67.19L62.95 67.08L62.92 66.98L62.89 66.87L62.87 66.76L62.85 66.65L62.83 66.54L62.81 66.43L62.79 66.32L62.78 66.21L62.77 66.1L62.76 65.99L62.75 65.88L62.75 65.77L62.75 65.65L62.75 65.54L62.75 65.43L62.76 65.31L62.77 65.2L62.78 65.08L62.79 64.97L62.8 64.85L62.82 64.73L62.84 64.62L62.86 64.5L62.89 64.38L62.92 64.26L62.95 64.14L62.98 64.02L63.02 63.9L63.05 63.78L63.09 63.66L63.25 63.81L63.4 63.95L63.56 64.08L63.72 64.21L63.88 64.33L64.04 64.45L64.2 64.56L64.37 64.67L64.53 64.77L64.7 64.86L64.87 64.95L65.03 65.04L65.2 65.12L65.37 65.2L65.55 65.27L65.72 65.33L65.89 65.39L66.07 65.45L66.24 65.5L66.42 65.55L66.6 65.6L66.78 65.63L66.96 65.67L67.14 65.7L67.32 65.73L67.5 65.75L67.69 65.77L67.87 65.79L68.06 65.8L68.24 65.81L68.43 65.81L68.62 65.81L68.8 65.81L68.99 65.81L69.18 65.8L69.37 65.79L69.56 65.77L69.75 65.76L69.95 65.74L70.14 65.71L70.36 65.69L70.57 65.66L70.79 65.64L71.01 65.62L71.22 65.6L71.44 65.58L71.65 65.56L71.86 65.55L72.08 65.54L72.29 65.53L72.5 65.53L72.71 65.53L72.92 65.53L73.13 65.54L73.34 65.55L73.55 65.56L73.75 65.58L73.96 65.61L74.16 65.64L74.37 65.67L74.57 65.72L74.77 65.76L74.97 65.81L75.17 65.87L75.37 65.94L75.57 66.01L75.76 66.09L75.96 66.18L76.15 66.27L76.34 66.37L76.53 66.48L76.72 66.59L76.91 66.72L77.1 66.85L77.28 66.99L77.47 67.15L77.65 67.31L77.83 67.47L78.01 67.65L78.18 67.84L78.18 67.8L78.18 67.75L78.18 67.71L78.17 67.67L78.17 67.63L78.17 67.58L78.16 67.51L78.16 67.43L78.15 67.36L78.15 67.32L78.14 67.25L78.14 67.22L78.14 67.18L78.14 67.15L78.14 67.12L78.13 67.09L78.13 67.06L78.13 67.03L78.13 67L78.12 66.97L78.12 66.94L78.12 66.91L78.12 66.88L78.11 66.85L78.11 66.82L78.11 66.8L78.11 66.77L78.1 66.74L78.1 66.72L78.1 66.69L78.09 66.66L78.09 66.64L78.09 66.61L78.08 66.59L78.08 66.56L78.07 66.53L78.04 66.33L78 66.12L77.96 65.92L77.91 65.73L77.86 65.53L77.8 65.34L77.75 65.15L77.68 64.97L77.61 64.79L77.54 64.61L77.47 64.44L77.39 64.26L77.31 64.1L77.22 63.93L77.13 63.77L77.03 63.61L76.93 63.45L76.83 63.3L76.72 63.15L76.61 63L76.5 62.85L76.38 62.71L76.25 62.57L76.13 62.44L76 62.3L75.86 62.17L75.72 62.05L75.58 61.92L75.44 61.8L75.29 61.68L75.14 61.57L74.98 61.45L74.82 61.34L74.65 61.24L74.49 61.13L74.31 61.03L74.14 60.93L73.96 60.84L73.78 60.74L73.59 60.65L73.52 60.62L73.45 60.59L73.38 60.55L73.31 60.52L73.17 60.45L73.1 60.42L73.03 60.39L72.96 60.35L72.89 60.32L72.82 60.29L72.75 60.25L72.68 60.22L72.61 60.19L72.54 60.15L72.47 60.12L72.4 60.08L72.33 60.05L72.26 60.01L72.19 59.98L72.12 59.94L72.05 59.91L71.98 59.87L71.91 59.84L71.84 59.8L71.77 59.77L71.7 59.73L71.64 59.69L71.57 59.66L71.5 59.62L71.43 59.58L71.36 59.55L71.29 59.51L71.23 59.47L71.16 59.43L71.09 59.39L71.03 59.35L70.96 59.31L70.89 59.27L70.83 59.23L70.72 59.17L70.62 59.1L70.52 59.03L70.43 58.96L70.33 58.89L70.24 58.81L70.14 58.74L70.05 58.66L69.96 58.58L69.88 58.5L69.79 58.42L69.71 58.34L69.63 58.25L69.55 58.17L69.47 58.08L69.39 57.99L69.32 57.9L69.25 57.81L69.17 57.71L69.11 57.62L69.04 57.52L68.97 57.42L68.91 57.32L68.85 57.22L68.79 57.12L68.73 57.01L68.67 56.91L68.62 56.8L68.56 56.69L68.51 56.58L68.46 56.46L68.42 56.35L68.37 56.23L68.33 56.11L68.28 55.99L68.24 55.87L68.2 55.75L68.17 55.63L68.13 55.5L68.1 55.37L68.15 55.38L68.2 55.38L68.24 55.39L68.29 55.4L68.34 55.4L68.38 55.41L68.43 55.42L68.47 55.43L68.52 55.43L68.56 55.44L68.6 55.45L68.65 55.45L68.73 55.47L68.77 55.47L68.81 55.48L68.86 55.49L68.9 55.49L68.94 55.5L68.98 55.51L69.02 55.51L69.05 55.52L69.09 55.52L69.13 55.53L69.17 55.53L69.21 55.54L69.25 55.54L69.29 55.55L69.32 55.55L69.36 55.56L69.4 55.56L69.43 55.56L69.47 55.57L69.51 55.57L69.55 55.57L69.58 55.58L69.62 55.58L69.66 55.58L69.69 55.58L69.73 55.58L69.9 55.59L70.08 55.59L70.25 55.58L70.42 55.57L70.59 55.56L70.76 55.54L70.92 55.52L71.09 55.5L71.25 55.47L71.41 55.44L71.57 55.4L71.73 55.36L71.89 55.32L72.05 55.28L72.2 55.23L72.36 55.18L72.51 55.12L72.66 55.06L72.81 55L72.96 54.94L73.11 54.87L73.26 54.8L73.4 54.73L73.55 54.66L73.69 54.58L73.84 54.5L73.98 54.42L74.12 54.34L74.26 54.26L74.4 54.17L74.54 54.08L74.68 53.99L74.82 53.9L74.96 53.81L75.1 53.72L75.23 53.62L75.37 53.52L75.51 53.43L75.64 53.33L75.78 53.23L75.88 53.15L75.99 53.08L76.09 53L76.19 52.93L76.3 52.85L76.4 52.78L76.51 52.7L76.62 52.63L76.72 52.56L76.83 52.49L76.94 52.42L77.04 52.35L77.15 52.28L77.26 52.21L77.37 52.15L77.48 52.08L77.59 52.02L77.7 51.96L77.81 51.9L77.93 51.84L78.04 51.78L78.15 51.73L78.27 51.67L78.38 51.62L78.5 51.57L78.61 51.52L78.73 51.48L78.85 51.43L78.97 51.39L79.09 51.35L79.21 51.31L79.33 51.27L79.46 51.24L79.58 51.21L79.71 51.18L79.83 51.15L79.96 51.13L80.09 51.11L80.22 51.09L80.35 51.08L80.42 51.07L80.48 51.06L80.55 51.06L80.62 51.06L80.69 51.05L80.75 51.05L80.82 51.05L80.89 51.05L80.96 51.05L81.02 51.05L81.09 51.05L81.16 51.05L81.23 51.05L81.3 51.06L81.36 51.06L81.43 51.06L81.5 51.07L81.57 51.07L81.63 51.08L81.7 51.08L81.77 51.09L81.84 51.09L81.91 51.1L81.97 51.1L82.04 51.11L82.11 51.12L82.18 51.12L82.24 51.13L82.31 51.13L82.38 51.14L82.45 51.14L82.52 51.15L82.58 51.16L82.65 51.16L82.72 51.17L82.79 51.17L82.85 51.18L82.92 51.18L82.99 51.18L83.06 51.19L82.95 50.99L82.85 50.81L82.73 50.62L82.62 50.44L82.49 50.27L82.36 50.1L82.22 49.93L82.08 49.77L81.94 49.62L81.79 49.47L81.63 49.32L81.47 49.18L81.31 49.04L81.14 48.91L80.96 48.79L80.78 48.67L80.6 48.55L80.41 48.44L80.22 48.33L80.03 48.24L79.83 48.14L79.63 48.05L79.43 47.97L79.22 47.89L79.01 47.82L78.8 47.76L78.58 47.7L78.36 47.64L78.14 47.6L77.91 47.55L77.69 47.52L77.46 47.49L77.23 47.47L77 47.45L76.76 47.44L76.52 47.43L76.29 47.44L76.05 47.44L75.81 47.46L75.57 47.48L75.49 47.49L75.42 47.5L75.34 47.5L75.27 47.51L75.19 47.52L75.12 47.52L75.04 47.53L74.97 47.54L74.89 47.54L74.82 47.55L74.74 47.55L74.66 47.56L74.59 47.57L74.51 47.57L74.44 47.58L74.36 47.58L74.29 47.59L74.21 47.59L74.14 47.59L74.06 47.6L73.99 47.6L73.91 47.6L73.84 47.61L73.76 47.61L73.69 47.61L73.61 47.62L73.54 47.62L73.46 47.62L73.38 47.62L73.31 47.62L73.23 47.62L73.16 47.62L73.08 47.62L73.01 47.62L72.93 47.62L72.86 47.62L72.78 47.62L72.71 47.62L72.63 47.62L72.56 47.61L72.44 47.61L72.32 47.6L72.2 47.59L72.08 47.58L71.96 47.57L71.84 47.55L71.72 47.53L71.61 47.51L71.49 47.49L71.38 47.46L71.27 47.43L71.15 47.4L71.04 47.37L70.93 47.33L70.82 47.3L70.71 47.26L70.6 47.21L70.49 47.17L70.39 47.12L70.28 47.07L70.17 47.02L70.07 46.97L69.96 46.91L69.86 46.86L69.76 46.79L69.65 46.73L69.55 46.67L69.45 46.6L69.35 46.53L69.25 46.45L69.15 46.38L69.05 46.3L68.95 46.22L68.85 46.14L68.76 46.06L68.66 45.97L68.56 45.88L68.47 45.79L68.37 45.69L68.28 45.59L68.45 45.55L68.61 45.51L68.77 45.46L68.93 45.41L69.09 45.35L69.24 45.29L69.4 45.23L69.54 45.17L69.69 45.1L69.83 45.03L69.97 44.96L70.1 44.88L70.24 44.8L70.37 44.72L70.49 44.63L70.62 44.55L70.74 44.46L70.86 44.36L70.98 44.27L71.1 44.17L71.21 44.07L71.32 43.97L71.43 43.86L71.53 43.76L71.64 43.65L71.74 43.54L71.84 43.42L71.94 43.31L72.04 43.19L72.13 43.07L72.22 42.95L72.32 42.83L72.41 42.7L72.49 42.58L72.58 42.45L72.67 42.32L72.75 42.19L72.83 42.06L72.91 41.92L72.99 41.79L73.03 41.73L73.06 41.67L73.09 41.61L73.13 41.54L73.16 41.48L73.19 41.42L73.23 41.36L73.26 41.3L73.29 41.23L73.32 41.17L73.36 41.11L73.39 41.05L73.42 40.98L73.45 40.92L73.48 40.86L73.51 40.79L73.54 40.73L73.57 40.67L73.6 40.6L73.63 40.54L73.66 40.48L73.69 40.41L73.72 40.35L73.75 40.29L73.78 40.22L73.81 40.16L73.84 40.09L73.87 40.03L73.89 39.96L73.92 39.9L73.95 39.84L73.98 39.77L74.04 39.64L74.07 39.58L74.1 39.52L74.13 39.45L74.15 39.39L74.18 39.32L74.21 39.26L74.29 39.09L74.38 38.92L74.46 38.75L74.55 38.58L74.63 38.42L74.72 38.26L74.81 38.1L74.91 37.94L75 37.79L75.1 37.64L75.2 37.49L75.31 37.34L75.41 37.19L75.52 37.05L75.63 36.91L75.75 36.78L75.87 36.64L75.99 36.51L76.11 36.39L76.24 36.26L76.37 36.14L76.5 36.03L76.64 35.91L76.78 35.8L76.92 35.7L77.07 35.6L77.22 35.5L77.38 35.4L77.54 35.31L77.7 35.23L77.87 35.15L78.05 35.07L78.22 35L78.4 34.93L78.59 34.86L78.78 34.8L78.98 34.75L79.18 34.7L79.38 34.65L79.59 34.61L79.38 34.51L79.16 34.41L78.95 34.32L78.73 34.23L78.52 34.14L78.31 34.06L78.1 33.99L77.89 33.92L77.68 33.86L77.47 33.8L77.26 33.75L77.05 33.7L76.84 33.66L76.64 33.62L76.43 33.59L76.23 33.56L76.02 33.54L75.82 33.52L75.61 33.51L75.41 33.51L75.21 33.51L75 33.52L74.8 33.53L74.6 33.55L74.4 33.58L74.2 33.61L74 33.65L73.8 33.69L73.6 33.74L73.4 33.8L73.2 33.86L73 33.93L72.8 34.01L72.6 34.09L72.4 34.18L72.21 34.28L72.01 34.38L71.81 34.49L71.61 34.61L71.42 34.73L71.33 34.79L71.25 34.84L71.16 34.89L71.08 34.95L71 35L70.91 35.06L70.83 35.11L70.75 35.17L70.66 35.23L70.58 35.28L70.49 35.34L70.41 35.39L70.33 35.45L70.24 35.5L70.16 35.56L70.07 35.61L69.99 35.67L69.91 35.72L69.82 35.78L69.74 35.83L69.65 35.88L69.57 35.94L69.48 35.99L69.4 36.04L69.31 36.1L69.23 36.15L69.14 36.2L69.05 36.25L68.97 36.3L68.88 36.35L68.79 36.4L68.71 36.45L68.62 36.5L68.53 36.55L68.44 36.6L68.35 36.65L68.27 36.69L68.18 36.74L68.09 36.78L68 36.83L67.9 36.88L67.8 36.92L67.7 36.97L67.6 37.01L67.49 37.05L67.39 37.09L67.29 37.12L67.19 37.16L67.08 37.19L66.98 37.22L66.87 37.25L66.77 37.27L66.66 37.3L66.56 37.32L66.45 37.34L66.35 37.35L66.24 37.37L66.13 37.38L66.02 37.39L65.91 37.4L65.81 37.4L65.7 37.41L65.59 37.41L65.48 37.41L65.37 37.4L65.25 37.4L65.14 37.39L65.03 37.38L64.92 37.36L64.81 37.35L64.69 37.33L64.58 37.31L64.46 37.28L64.35 37.26L64.23 37.23L64.12 37.2L64 37.17L63.88 37.13L63.77 37.09L63.65 37.05L63.8 36.9L63.94 36.74L64.08 36.58L64.21 36.42L64.33 36.26L64.45 36.1L64.56 35.93L64.67 35.77L64.77 35.6L64.86 35.44L64.95 35.27L65.04 35.1L65.12 34.93L65.19 34.76L65.26 34.58L65.32 34.41L65.38 34.23L65.44 34.06L65.49 33.88L65.53 33.7L65.58 33.52L65.61 33.34L65.65 33.16L65.68 32.98L65.7 32.8L65.72 32.61L65.74 32.43L65.76 32.25L65.77 32.06L65.77 31.87L65.78 31.69L65.78 31.5L65.78 31.31L65.77 31.12L65.77 30.93L65.76 30.74L65.74 30.55L65.73 30.36L65.71 30.16L65.69 29.97L65.67 29.75L65.64 29.53L65.62 29.31L65.6 29.09L65.58 28.87L65.57 28.65L65.55 28.44L65.54 28.22L65.53 28L65.52 27.79L65.52 27.57L65.52 27.36L65.52 27.14L65.53 26.93L65.54 26.72L65.55 26.51L65.57 26.3L65.6 26.09L65.63 25.88L65.67 25.68L65.71 25.47L65.75 25.27L65.81 25.07L65.87 24.87L65.94 24.67L66.01 24.47L66.09 24.28L66.18 24.08L66.28 23.89L66.38 23.7L66.49 23.51L66.61 23.33L66.74 23.14L66.88 22.96L67.03 22.78L67.19 22.6L67.36 22.43L67.53 22.25L67.72 22.08L67.92 21.92L67.68 21.93L67.44 21.95L67.2 21.98L66.96 22.01L66.73 22.04L66.51 22.08L66.28 22.12L66.06 22.17L65.84 22.22L65.63 22.27L65.41 22.33L65.21 22.4L65 22.46L64.8 22.54L64.6 22.62L64.41 22.7L64.22 22.79L64.03 22.88L63.84 22.98L63.66 23.08L63.49 23.18L63.31 23.3L63.14 23.42L62.98 23.54L62.81 23.67L62.65 23.8L62.5 23.94L62.34 24.08L62.19 24.23L62.05 24.39L61.91 24.55L61.77 24.71L61.63 24.89L61.5 25.06L61.38 25.25L61.25 25.44L61.13 25.63L61.02 25.83L60.91 26.04L60.8 26.25L60.76 26.34L60.72 26.42L60.67 26.5L60.63 26.59L60.59 26.67L60.55 26.75L60.51 26.84L60.47 26.92L60.43 27L60.39 27.09L60.35 27.17L60.31 27.26L60.27 27.34L60.23 27.42L60.19 27.51L60.14 27.59L60.1 27.67L60.06 27.75L60.02 27.84L59.98 27.92L59.93 28L59.89 28.08L59.85 28.17L59.8 28.25L59.76 28.33L59.72 28.41L59.67 28.49L59.63 28.57L59.58 28.66L59.54 28.74L59.49 28.82L59.44 28.9L59.4 28.98L59.35 29.06L59.3 29.14L59.25 29.21L59.2 29.29L59.15 29.37L59.11 29.45L59.05 29.53L58.99 29.62L58.93 29.72L58.86 29.81L58.79 29.9L58.72 29.99L58.65 30.08L58.58 30.16L58.5 30.24L58.43 30.33L58.35 30.41L58.27 30.49L58.19 30.56L58.11 30.64L58.03 30.71L57.94 30.78L57.86 30.85L57.77 30.92L57.68 30.99L57.59 31.05L57.5 31.12L57.4 31.18L57.31 31.24L57.21 31.29L57.11 31.35L57.02 31.4L56.91 31.46L56.81 31.51L56.71 31.56L56.6 31.61L56.5 31.65L56.39 31.7L56.28 31.74L56.17 31.78L56.06 31.82L55.94 31.85L55.83 31.89L55.71 31.92L55.59 31.95L55.47 31.98L55.35 32.01L55.36 31.96L55.36 31.91L55.37 31.86L55.38 31.81L55.38 31.76L55.39 31.72L55.4 31.67L55.41 31.62L55.41 31.57L55.42 31.53L55.43 31.48L55.44 31.43L55.44 31.39L55.46 31.3L55.47 31.25L55.47 31.21L55.48 31.16L55.49 31.12L55.49 31.08L55.5 31.03L55.51 30.99L55.51 30.95L55.52 30.9L55.53 30.86L55.53 30.82L55.54 30.77L55.54 30.73L55.55 30.69L55.55 30.65L55.56 30.61L55.56 30.57L55.57 30.52L55.57 30.48L55.57 30.44L55.57 30.4L55.58 30.36L55.58 30.32L55.58 30.28L55.58 30.24L55.58 30.08L55.58 29.93L55.57 29.78L55.56 29.62L55.55 29.47L55.53 29.32L55.51 29.18L55.49 29.03L55.46 28.88L55.44 28.74L55.4 28.59L55.37 28.45L55.33 28.31L55.29 28.17L55.25 28.03L55.21 27.89L55.16 27.75L55.11 27.62L55.06 27.48L55 27.34L54.95 27.21L54.89 27.08L54.83 26.94L54.76 26.81L54.7 26.68L54.63 26.55L54.56 26.42L54.49 26.29L54.42 26.16L54.34 26.04L54.27 25.91L54.19 25.78L54.11 25.66L54.03 25.53L53.95 25.41L53.86 25.29L53.78 25.16L53.69 25.04L53.61 24.92L53.52 24.8L53.39 24.63L53.26 24.45L53.14 24.28L53.01 24.1L52.89 23.92L52.77 23.75L52.65 23.57L52.53 23.39L52.42 23.21L52.31 23.03L52.2 22.85L52.09 22.67L51.99 22.49L51.89 22.31L51.8 22.12L51.71 21.94L51.62 21.75L51.54 21.56L51.46 21.37L51.39 21.18L51.32 20.99L51.26 20.8L51.21 20.6L51.16 20.4L51.11 20.2L51.08 20L51.05 19.8L51.02 19.59L51.01 19.38L51 19.17L51 18.96L51 18.75L51.02 18.53L51.04 18.31L51.07 18.09L51.11 17.86L51.15 17.63L51.21 17.4L51.28 17.17L51.35 16.93L51.14 17.05L50.93 17.18Z" id="b3HKcomWO"></path><path d="M38.78 54.77C39.05 54.19 39.39 53.62 39.81 53.14C40.19 52.73 40.73 52.46 41.25 52.11C41.18 52.04 41.05 51.89 40.89 51.79C40.27 51.36 39.57 51.2 38.81 51.24C38.37 51.28 37.93 51.3 37.48 51.31C36.05 51.38 35.06 50.64 34.23 49.43C35.71 49.97 36.81 49.36 37.87 48.56C38.9 47.79 40 47.25 41.49 47.61C41.36 47.28 41.29 47.04 41.17 46.82C40.76 46.05 40.07 45.62 39.3 45.27C38.4 44.88 37.55 44.42 37.13 43.46C36.9 42.92 36.77 42.33 36.66 41.73C37.69 42.84 38.97 42.83 40.3 42.7C41.57 42.58 42.81 42.6 43.83 43.69C44.14 42.78 43.99 42 43.58 41.27C43.26 40.7 42.85 40.19 42.54 39.62C41.92 38.48 42.1 37.35 42.68 36.13C42.94 37.57 43.92 38.24 45.06 38.77C45.62 39.03 46.17 39.33 46.67 39.67C47.27 40.08 47.67 40.67 47.85 41.48C48.5 40.89 48.78 40.21 48.83 39.44C48.86 39.01 48.82 38.58 48.78 38.16C48.6 36.54 49.23 35.19 50.6 34.44C50.09 35.94 50.81 37.06 51.62 38.16C52.17 38.93 52.61 39.75 52.6 40.73C52.6 41 52.53 41.26 52.49 41.58C53.26 41.4 53.84 41.01 54.24 40.4C54.56 39.91 54.8 39.38 55.06 38.86C55.74 37.49 56.88 36.91 58.42 36.81C57.13 37.86 57.21 39.23 57.37 40.61C57.5 41.83 57.36 42.99 56.4 43.96C57.15 44.23 57.82 44.16 58.46 43.85C59.02 43.58 59.54 43.21 60.06 42.87C61.31 42.07 62.57 42.14 63.94 42.81C62.59 43.05 61.9 43.92 61.38 45.01C61.2 45.41 61.03 45.82 60.81 46.21C60.31 47.06 59.65 47.75 58.58 48C59.18 48.62 59.83 48.92 60.61 48.96C61.09 48.98 61.56 48.95 62.03 48.89C63.55 48.74 64.95 49.41 65.57 50.64C65.15 50.62 64.71 50.55 64.28 50.59C63.45 50.68 62.77 51.12 62.12 51.61C61.26 52.24 60.38 52.76 59.25 52.72C59.02 52.71 58.79 52.66 58.48 52.62C58.68 53.43 59.11 54.03 59.76 54.44C60.18 54.7 60.63 54.9 61.07 55.12C62.26 55.68 62.99 56.58 63.19 57.9C63.22 58.07 63.23 58.23 63.25 58.52C62.14 57.3 60.82 57.35 59.44 57.51C58.22 57.67 57.08 57.48 56.11 56.54C55.85 57.3 55.91 58 56.24 58.66C56.51 59.22 56.9 59.73 57.23 60.26C57.98 61.45 57.99 62.76 57.25 64.04C57 62.61 55.98 61.95 54.8 61.41C54.19 61.12 53.57 60.8 53.07 60.35C52.63 59.96 52.34 59.4 51.86 58.74C51.83 58.81 51.79 58.98 51.69 59.11C51.2 59.8 51.03 60.56 51.09 61.4C51.12 61.93 51.17 62.47 51.14 63C51.09 64.25 50.38 65.1 49.29 65.83C49.78 64.36 49.2 63.25 48.4 62.19C47.87 61.5 47.44 60.74 47.35 59.84C47.3 59.48 47.34 59.1 47.34 58.67C47.25 58.69 47.09 58.72 46.95 58.78C46.16 59.11 45.64 59.7 45.28 60.45C45.12 60.8 44.96 61.14 44.78 61.47C44.1 62.78 42.95 63.32 41.47 63.4C42.59 62.53 42.73 61.37 42.61 60.15C42.47 58.75 42.39 57.4 43.52 56.24C42.69 55.99 41.96 56.07 41.27 56.44C40.83 56.66 40.43 56.96 40.04 57.23C38.94 58 37.77 58.14 36.52 57.63C36.42 57.59 36.32 57.55 36.22 57.49C36.24 57.49 36.24 57.45 36.2 57.39C37.62 57.07 38.24 55.98 38.78 54.77Z" id="a2d0fVkjVE"></path></defs><g><g><path></path><path></path><path></path><path></path><g><use xlink:href="#b3HKcomWO" opacity="1" fill="#448dbc" fill-opacity="1"></use><g><use xlink:href="#b3HKcomWO" opacity="1" fill-opacity="0" stroke="#000000" stroke-width="1" stroke-opacity="0"></use></g></g><g><use xlink:href="#a2d0fVkjVE" opacity="1" fill="#448dbc" fill-opacity="1"></use><g><use xlink:href="#a2d0fVkjVE" opacity="1" fill-opacity="0" stroke="#000000" stroke-width="1" stroke-opacity="0"></use></g></g></g></g></svg>