<?xml version="1.0" encoding="utf-8"?>
<!-- Generator: Adobe Illustrator 23.0.1, SVG Export Plug-In . SVG Version: 6.00 Build 0)  -->
<svg version="1.1" id="Layer_1" xmlns="http://www.w3.org/2000/svg" xmlns:xlink="http://www.w3.org/1999/xlink" x="0px" y="0px"
	 viewBox="0 0 100 100" style="enable-background:new 0 0 100 100;" xml:space="preserve">
<style type="text/css">
	.st0{fill:none;}
	.st1{fill:#66A1C8;}
</style>
<g>
	<g>
		<path class="st0" d="M27.7,20.9c0,18.4,0,36.3,0,54.2c4.9,0,9.5,0,14.3,0c-3.2-18.3-6.3-36.3-9.4-54.2
			C30.6,20.9,29.3,20.9,27.7,20.9z"/>
	</g>
	<g>
		<path class="st1" d="M27.1,80.7c-1.1,0-2.5-0.1-3.6-1.2c-0.8-0.8-1.2-2-1.2-3.5c0-16.6,0-34.8,0-55.6c0-3.1,1.6-4.7,4.8-4.9l0.2,0
			c8.8-0.5,9.6,0.2,11.3,8.8c0.4,1.9,0.7,3.7,1,5.6l0.2,1.4c0.2,1.4,0.9,2.5,2,3c1.1,0.5,2.4,0.4,3.7-0.4c5.2-3,10.4-3,15.1,0.2
			c1.5,1,2.1,0.9,3.8-0.1c5.7-3.7,15.3-2.4,19.4,2.6c0.7,0.9,1.2,2.9,0.2,4.1c-0.7,0.9-2.3,2-3.9,1.6c-1.4-0.4-2.8-1-4.2-1.9
			c-3-1.9-5.6-1.9-8.1-0.1c-3.7,2.7-7.2,2.7-10.8,0.1c-2.7-2-5.3-2-8-0.1c-2.5,1.8-4.9,2.4-7.4,1.8c0,0,0,0.1,0,0.1
			c0.4,2.6,0.8,4.9,1.3,7.1c0.1,0.6,0.3,0.9,0.4,0.9c0,0,0.3-0.1,0.9-0.5c5.6-4,11.5-4,17.4-0.1c0.3,0.1,1.2,0.1,1.5-0.1
			c7.3-4,14.2-3.4,20.1,1.5c0.9,0.8,1.9,2.5,1.1,4c-0.4,0.9-2,2.7-3.8,2.2c-1.7-0.4-3.3-1-4.6-1.8c-3-1.8-5.7-1.8-8.2,0
			c-3.7,2.6-7.2,2.6-10.8,0h0c-2.5-1.8-5.2-1.8-8.2,0c-1.2,0.7-2.5,1.3-3.9,1.8c-0.2,0.1-0.3,0.1-0.5,0.2l1.2,6.8
			c5.6-3,11.1-2.6,16.5,1c0.4-0.1,1.1-0.3,1.8-0.7c6.3-3.6,14.8-2.7,19.6,2.2c0.8,0.8,1.5,2.7,0.7,4c-0.6,1-2.2,2.4-3.8,2
			c-1.6-0.4-3-1-4.3-1.8c-3.1-2-5.8-2-8.4-0.1c-3.5,2.6-7,2.6-10.8-0.1c-3.1-2.2-7.6-1.7-9.7,1.1c0,0.1-0.3,0.7,0.2,3.2
			c0.1,0.7,0.5,2.7-0.7,4.2c-1.2,1.5-3.2,1.5-3.9,1.5C37,80.7,32.2,80.7,27.1,80.7C27.2,80.7,27.2,80.7,27.1,80.7z M29.7,73.1h9.9
			l-8.7-50.2h-1.2V73.1z M43.2,70.5l0.1,0.3c0-0.2,0.1-0.3,0.2-0.5L43.2,70.5z M81.2,68.8C81.2,68.8,81.2,68.8,81.2,68.8
			C81.2,68.8,81.2,68.8,81.2,68.8z M40.1,52.7l0.3,2l0.8-0.3c0.3-0.1,0.5-0.2,0.8-0.3c-0.1,0-0.2-0.1-0.3-0.1
			C41.3,53.7,40.7,53.3,40.1,52.7z"/>
	</g>
</g>
</svg>
