<?xml version="1.0" encoding="UTF-8" standalone="no"?>
<!DOCTYPE svg PUBLIC "-//W3C//DTD SVG 1.1//EN" "http://www.w3.org/Graphics/SVG/1.1/DTD/svg11.dtd">
<svg version="1.1" xmlns="http://www.w3.org/2000/svg" xmlns:xlink="http://www.w3.org/1999/xlink" preserveAspectRatio="xMidYMid meet" viewBox="0 0 100 100" width="100" height="100"><defs><path d="M10.71 91.96C18.18 91.96 25.2 91.96 32.53 91.96C27.65 64.03 22.92 36.56 18.18 9.24C15.13 9.24 13.15 9.24 10.71 9.24C10.71 37.32 10.71 64.64 10.71 91.96Z" id="f1RRAXXxH"></path><path d="M16.8 0.84L17.46 0.87L18.09 0.93L18.69 0.99L19.25 1.08L19.79 1.18L20.29 1.31L20.77 1.45L21.22 1.61L21.65 1.8L22.05 2.01L22.42 2.24L22.78 2.5L23.12 2.79L23.44 3.1L23.73 3.44L24.02 3.81L24.29 4.21L24.54 4.64L24.78 5.1L25.01 5.59L25.23 6.12L25.44 6.68L25.64 7.28L25.84 7.92L26.03 8.59L26.22 9.3L26.41 10.05L26.59 10.84L26.77 11.67L26.96 12.55L27.15 13.46L27.34 14.43L27.39 14.64L27.43 14.86L27.48 15.08L27.52 15.29L27.56 15.51L27.61 15.72L27.65 15.94L27.69 16.15L27.73 16.36L27.77 16.58L27.81 16.79L27.85 17L27.89 17.22L27.93 17.43L27.97 17.64L28.01 17.85L28.05 18.06L28.09 18.28L28.12 18.49L28.16 18.7L28.2 18.91L28.24 19.12L28.27 19.34L28.31 19.55L28.34 19.76L28.38 19.97L28.42 20.18L28.45 20.4L28.49 20.61L28.52 20.82L28.56 21.04L28.59 21.25L28.63 21.46L28.66 21.68L28.7 21.89L28.73 22.11L28.76 22.32L28.8 22.54L28.83 22.76L28.87 22.97L29.17 25.11L29.2 25.27L29.22 25.43L29.25 25.58L29.29 25.74L29.32 25.89L29.36 26.04L29.4 26.19L29.45 26.33L29.49 26.48L29.54 26.62L29.59 26.76L29.65 26.9L29.71 27.03L29.77 27.17L29.83 27.3L29.9 27.42L29.96 27.55L30.03 27.67L30.11 27.8L30.18 27.91L30.26 28.03L30.34 28.14L30.43 28.25L30.51 28.36L30.6 28.47L30.69 28.57L30.79 28.67L30.88 28.77L30.98 28.86L31.08 28.95L31.19 29.04L31.29 29.12L31.4 29.21L31.51 29.28L31.62 29.36L31.74 29.43L31.86 29.5L31.98 29.57L32.1 29.63L32.23 29.69L32.35 29.74L32.48 29.8L32.61 29.84L32.74 29.89L32.87 29.93L33 29.97L33.13 30L33.27 30.04L33.4 30.06L33.54 30.09L33.67 30.11L33.81 30.12L33.95 30.14L34.09 30.15L34.23 30.15L34.37 30.16L34.51 30.15L34.65 30.15L34.79 30.14L34.93 30.13L35.08 30.11L35.22 30.09L35.37 30.07L35.51 30.04L35.66 30.01L35.8 29.97L35.95 29.94L36.09 29.89L36.24 29.85L36.39 29.8L36.54 29.74L36.68 29.68L36.83 29.62L36.98 29.56L37.13 29.49L37.28 29.41L37.43 29.33L37.57 29.25L37.72 29.17L37.87 29.08L38.47 28.74L39.06 28.43L39.66 28.13L40.25 27.84L40.85 27.58L41.44 27.33L42.03 27.1L42.63 26.88L43.22 26.69L43.81 26.51L44.4 26.35L44.99 26.2L45.58 26.08L46.17 25.97L46.76 25.87L47.35 25.8L47.93 25.74L48.52 25.71L49.1 25.69L49.68 25.68L50.26 25.7L50.84 25.73L51.42 25.78L51.99 25.85L52.57 25.93L53.14 26.04L53.71 26.16L54.28 26.3L54.84 26.46L55.41 26.63L55.97 26.82L56.53 27.04L57.09 27.27L57.64 27.51L58.19 27.78L58.74 28.06L59.29 28.37L59.84 28.69L60.38 29.03L60.92 29.38L61.09 29.49L61.25 29.6L61.41 29.7L61.57 29.79L61.72 29.88L61.87 29.96L62.01 30.03L62.15 30.1L62.29 30.16L62.43 30.22L62.56 30.27L62.69 30.31L62.82 30.35L62.95 30.38L63.08 30.41L63.2 30.43L63.33 30.44L63.45 30.45L63.58 30.45L63.7 30.45L63.83 30.44L63.96 30.43L64.09 30.41L64.22 30.38L64.35 30.35L64.48 30.32L64.62 30.27L64.75 30.23L64.9 30.17L65.04 30.11L65.19 30.05L65.34 29.98L65.49 29.9L65.65 29.82L65.82 29.74L65.99 29.65L66.16 29.55L66.34 29.45L66.53 29.34L66.72 29.23L67.38 28.82L68.07 28.44L68.77 28.09L69.49 27.76L70.23 27.47L70.99 27.2L71.76 26.96L72.54 26.74L73.33 26.56L74.13 26.4L74.95 26.26L75.77 26.16L76.59 26.07L77.43 26.02L78.26 25.99L79.1 25.99L79.93 26.01L80.77 26.06L81.61 26.14L82.44 26.24L83.27 26.36L84.09 26.51L84.9 26.68L85.71 26.88L86.5 27.1L87.29 27.35L88.06 27.62L88.82 27.91L89.56 28.23L90.28 28.57L90.99 28.93L91.68 29.31L92.35 29.72L92.99 30.15L93.62 30.61L94.21 31.08L94.78 31.58L95.33 32.1L95.84 32.64L96.33 33.2L96.41 33.31L96.49 33.42L96.56 33.54L96.64 33.66L96.71 33.79L96.78 33.92L96.85 34.06L96.92 34.2L96.98 34.35L97.04 34.5L97.1 34.65L97.15 34.81L97.2 34.97L97.25 35.13L97.3 35.3L97.34 35.47L97.37 35.64L97.4 35.81L97.43 35.98L97.45 36.16L97.47 36.33L97.48 36.51L97.49 36.68L97.49 36.86L97.49 37.03L97.48 37.21L97.46 37.38L97.44 37.56L97.41 37.73L97.38 37.9L97.34 38.07L97.29 38.23L97.23 38.4L97.17 38.56L97.1 38.72L97.02 38.87L96.94 39.03L96.84 39.17L96.74 39.32L96.63 39.46L96.55 39.56L96.46 39.66L96.37 39.77L96.27 39.88L96.17 39.98L96.06 40.09L95.95 40.19L95.84 40.3L95.72 40.4L95.6 40.5L95.47 40.61L95.34 40.71L95.2 40.8L95.07 40.9L94.92 40.99L94.78 41.09L94.63 41.17L94.48 41.26L94.33 41.34L94.17 41.42L94.01 41.5L93.85 41.57L93.69 41.64L93.52 41.7L93.36 41.76L93.19 41.81L93.01 41.86L92.84 41.9L92.67 41.94L92.49 41.97L92.31 41.99L92.13 42.01L91.96 42.02L91.77 42.03L91.59 42.03L91.41 42.02L91.23 42L91.05 41.97L90.86 41.94L90.68 41.9L90.52 41.85L90.36 41.8L90.2 41.76L90.04 41.71L89.88 41.66L89.72 41.6L89.56 41.55L89.4 41.49L89.24 41.44L89.08 41.38L88.92 41.32L88.76 41.26L88.6 41.2L88.44 41.14L88.28 41.07L88.12 41.01L87.96 40.94L87.8 40.88L87.64 40.81L87.48 40.73L87.32 40.66L87.15 40.59L86.99 40.51L86.83 40.44L86.67 40.36L86.51 40.28L86.35 40.2L86.19 40.12L86.03 40.03L85.87 39.95L85.71 39.86L85.55 39.77L85.39 39.68L85.23 39.59L85.07 39.49L84.91 39.4L84.75 39.3L84.59 39.2L84.43 39.1L84.27 39L83.93 38.79L83.59 38.59L83.25 38.4L82.91 38.22L82.58 38.05L82.25 37.89L81.92 37.74L81.59 37.61L81.27 37.48L80.94 37.37L80.62 37.26L80.3 37.17L79.98 37.08L79.67 37.01L79.35 36.95L79.04 36.9L78.73 36.86L78.42 36.83L78.11 36.81L77.8 36.8L77.5 36.81L77.19 36.82L76.89 36.84L76.59 36.88L76.29 36.92L75.99 36.98L75.69 37.04L75.4 37.12L75.1 37.21L74.81 37.3L74.51 37.41L74.22 37.53L73.93 37.66L73.64 37.8L73.35 37.94L73.06 38.1L72.77 38.27L72.48 38.45L72.19 38.65L71.91 38.85L71.48 39.15L71.06 39.43L70.64 39.7L70.22 39.96L69.8 40.2L69.39 40.42L68.97 40.63L68.55 40.83L68.14 41L67.72 41.17L67.31 41.31L66.9 41.45L66.48 41.56L66.07 41.67L65.66 41.75L65.25 41.82L64.84 41.88L64.43 41.92L64.02 41.95L63.61 41.96L63.2 41.95L62.79 41.93L62.38 41.9L61.97 41.85L61.57 41.78L61.16 41.7L60.75 41.61L60.34 41.49L59.93 41.37L59.52 41.23L59.11 41.07L58.71 40.9L58.3 40.72L57.89 40.52L57.48 40.3L57.07 40.07L56.66 39.82L56.25 39.56L55.84 39.29L55.42 39L55.12 38.78L54.81 38.56L54.5 38.36L54.19 38.17L53.89 38L53.58 37.83L53.27 37.68L52.97 37.53L52.66 37.4L52.36 37.28L52.05 37.17L51.75 37.07L51.44 36.98L51.14 36.91L50.84 36.84L50.53 36.79L50.23 36.75L49.93 36.72L49.62 36.7L49.32 36.69L49.02 36.69L48.71 36.71L48.41 36.73L48.11 36.77L47.8 36.82L47.5 36.87L47.19 36.94L46.89 37.02L46.59 37.11L46.28 37.22L45.98 37.33L45.67 37.46L45.37 37.59L45.06 37.74L44.75 37.89L44.45 38.06L44.14 38.24L43.83 38.43L43.52 38.63L43.21 38.85L42.93 39.05L42.64 39.24L42.36 39.43L42.07 39.62L41.79 39.79L41.51 39.96L41.22 40.12L40.94 40.27L40.66 40.42L40.38 40.56L40.09 40.7L39.81 40.82L39.53 40.94L39.25 41.06L38.97 41.16L38.69 41.26L38.41 41.36L38.13 41.44L37.85 41.52L37.57 41.59L37.29 41.66L37.01 41.72L36.73 41.77L36.44 41.81L36.16 41.85L35.88 41.88L35.6 41.91L35.32 41.92L35.04 41.93L34.76 41.94L34.48 41.93L34.19 41.92L33.91 41.91L33.63 41.88L33.34 41.85L33.06 41.81L32.78 41.77L32.49 41.72L32.21 41.66L31.92 41.59L31.92 41.75L31.97 42.04L32.01 42.34L32.06 42.63L32.1 42.92L32.15 43.21L32.2 43.5L32.24 43.79L32.29 44.07L32.33 44.36L32.38 44.64L32.43 44.92L32.47 45.2L32.52 45.48L32.57 45.76L32.61 46.03L32.66 46.31L32.71 46.58L32.76 46.85L32.81 47.12L32.85 47.39L32.9 47.66L32.95 47.93L33 48.2L33.05 48.46L33.1 48.72L33.15 48.99L33.2 49.25L33.25 49.51L33.31 49.77L33.36 50.03L33.41 50.29L33.46 50.55L33.52 50.8L33.57 51.06L33.62 51.32L33.68 51.57L33.73 51.82L33.79 52.08L33.85 52.33L33.9 52.58L33.92 52.65L33.93 52.72L33.94 52.78L33.95 52.84L33.97 52.9L33.98 52.96L34 53.02L34.01 53.08L34.03 53.13L34.04 53.18L34.06 53.23L34.07 53.28L34.09 53.33L34.11 53.38L34.12 53.42L34.14 53.46L34.16 53.5L34.18 53.54L34.19 53.58L34.21 53.61L34.23 53.65L34.24 53.68L34.26 53.71L34.28 53.74L34.29 53.76L34.31 53.79L34.33 53.81L34.34 53.83L34.36 53.85L34.38 53.87L34.39 53.89L34.41 53.9L34.42 53.91L34.44 53.92L34.45 53.93L34.46 53.94L34.48 53.95L34.49 53.95L34.5 53.96L34.51 53.96L34.53 53.95L34.55 53.94L34.56 53.94L34.57 53.94L34.58 53.93L34.6 53.92L34.62 53.91L34.64 53.91L34.66 53.9L34.68 53.89L34.71 53.88L34.73 53.86L34.76 53.85L34.79 53.84L34.82 53.82L34.86 53.8L34.89 53.79L34.93 53.77L34.97 53.75L35.01 53.73L35.05 53.7L35.09 53.68L35.14 53.65L35.19 53.63L35.24 53.6L35.29 53.57L35.34 53.54L35.39 53.51L35.45 53.47L35.51 53.44L35.57 53.4L35.63 53.36L35.69 53.32L35.75 53.28L35.82 53.24L35.89 53.19L36.53 52.75L37.17 52.32L37.82 51.92L38.47 51.54L39.11 51.19L39.76 50.86L40.41 50.55L41.07 50.26L41.72 50L42.38 49.76L43.03 49.54L43.69 49.34L44.35 49.17L45.01 49.02L45.67 48.89L46.34 48.79L47 48.71L47.66 48.65L48.33 48.61L48.99 48.59L49.66 48.6L50.33 48.63L51 48.69L51.67 48.76L52.34 48.86L53.01 48.98L53.68 49.13L54.35 49.29L55.03 49.48L55.7 49.69L56.37 49.93L57.05 50.18L57.72 50.46L58.39 50.76L59.07 51.09L59.74 51.43L60.42 51.8L61.09 52.19L61.77 52.6L62.44 53.04L62.48 53.05L62.52 53.06L62.56 53.07L62.61 53.08L62.66 53.09L62.71 53.1L62.76 53.11L62.81 53.11L62.87 53.12L62.93 53.12L62.99 53.13L63.05 53.13L63.12 53.14L63.18 53.14L63.25 53.14L63.32 53.14L63.38 53.14L63.45 53.14L63.52 53.14L63.59 53.14L63.66 53.13L63.73 53.13L63.79 53.12L63.86 53.12L63.93 53.11L64 53.1L64.06 53.09L64.12 53.08L64.19 53.07L64.25 53.06L64.31 53.05L64.36 53.04L64.42 53.02L64.47 53L64.52 52.99L64.57 52.97L64.62 52.95L64.66 52.93L64.7 52.91L64.73 52.89L65.57 52.44L66.4 52.02L67.23 51.63L68.06 51.27L68.88 50.93L69.7 50.61L70.52 50.32L71.34 50.06L72.15 49.83L72.96 49.62L73.77 49.43L74.57 49.28L75.37 49.14L76.17 49.04L76.96 48.96L77.75 48.9L78.54 48.87L79.32 48.87L80.1 48.89L80.87 48.94L81.64 49.01L82.41 49.11L83.17 49.23L83.93 49.38L84.69 49.56L85.44 49.76L86.18 49.98L86.92 50.23L87.66 50.51L88.39 50.81L89.11 51.13L89.83 51.48L90.55 51.86L91.26 52.26L91.97 52.68L92.67 53.13L93.36 53.61L94.05 54.1L94.73 54.63L95.41 55.18L95.51 55.27L95.62 55.37L95.72 55.47L95.83 55.58L95.93 55.7L96.03 55.81L96.13 55.94L96.23 56.06L96.33 56.19L96.43 56.32L96.52 56.46L96.61 56.6L96.7 56.74L96.79 56.89L96.87 57.04L96.95 57.19L97.02 57.35L97.09 57.51L97.16 57.67L97.22 57.83L97.28 57.99L97.33 58.16L97.38 58.33L97.42 58.5L97.46 58.67L97.49 58.84L97.51 59.01L97.53 59.18L97.53 59.36L97.54 59.53L97.53 59.71L97.52 59.89L97.49 60.06L97.46 60.24L97.43 60.41L97.38 60.59L97.32 60.76L97.25 60.94L97.18 61.11L97.09 61.28L97.04 61.39L96.99 61.5L96.92 61.61L96.85 61.73L96.78 61.85L96.7 61.98L96.61 62.1L96.52 62.23L96.42 62.36L96.31 62.49L96.2 62.63L96.09 62.76L95.97 62.89L95.84 63.02L95.71 63.15L95.58 63.28L95.44 63.4L95.29 63.53L95.14 63.65L94.99 63.76L94.84 63.87L94.68 63.98L94.51 64.09L94.34 64.18L94.17 64.27L94 64.36L93.82 64.44L93.64 64.51L93.46 64.57L93.27 64.63L93.08 64.68L92.89 64.72L92.7 64.74L92.5 64.76L92.3 64.77L92.1 64.77L91.9 64.75L91.7 64.73L91.5 64.69L91.29 64.64L91.1 64.59L90.9 64.55L90.71 64.5L90.52 64.45L90.33 64.4L90.13 64.34L89.94 64.29L89.75 64.24L89.57 64.18L89.38 64.12L89.19 64.07L89.01 64.01L88.82 63.95L88.64 63.89L88.45 63.82L88.27 63.76L88.09 63.7L87.91 63.63L87.73 63.56L87.55 63.49L87.37 63.43L87.2 63.36L87.02 63.28L86.85 63.21L86.68 63.14L86.51 63.06L86.34 62.99L86.17 62.91L86 62.83L85.84 62.75L85.68 62.67L85.51 62.59L85.35 62.51L85.19 62.42L85.04 62.34L84.88 62.25L84.72 62.16L84.57 62.07L84.42 61.98L84.27 61.89L83.93 61.69L83.59 61.5L83.25 61.32L82.91 61.15L82.57 60.99L82.24 60.84L81.91 60.7L81.58 60.57L81.25 60.46L80.92 60.35L80.59 60.25L80.27 60.16L79.95 60.08L79.62 60.02L79.3 59.96L78.99 59.91L78.67 59.88L78.35 59.85L78.04 59.84L77.73 59.83L77.42 59.84L77.11 59.85L76.8 59.88L76.49 59.91L76.18 59.96L75.88 60.02L75.58 60.08L75.28 60.16L74.98 60.25L74.68 60.35L74.38 60.46L74.08 60.57L73.79 60.7L73.49 60.84L73.2 60.99L72.91 61.15L72.62 61.32L72.33 61.5L72.04 61.69L71.75 61.89L71.33 62.18L70.91 62.46L70.49 62.72L70.07 62.96L69.65 63.19L69.23 63.41L68.82 63.61L68.4 63.8L67.98 63.97L67.57 64.12L67.16 64.27L66.74 64.39L66.33 64.5L65.92 64.6L65.51 64.68L65.1 64.75L64.69 64.8L64.28 64.84L63.87 64.86L63.46 64.87L63.05 64.86L62.64 64.84L62.23 64.8L61.82 64.75L61.41 64.68L61 64.6L60.6 64.5L60.19 64.39L59.78 64.27L59.37 64.12L58.96 63.97L58.55 63.8L58.14 63.61L57.74 63.41L57.33 63.19L56.92 62.96L56.51 62.72L56.09 62.46L55.68 62.18L55.27 61.89L54.98 61.69L54.7 61.5L54.41 61.32L54.12 61.15L53.83 60.99L53.53 60.84L53.24 60.7L52.94 60.57L52.65 60.46L52.35 60.35L52.05 60.25L51.75 60.16L51.45 60.08L51.15 60.02L50.84 59.96L50.54 59.91L50.23 59.88L49.92 59.85L49.61 59.84L49.3 59.83L48.99 59.84L48.67 59.85L48.36 59.88L48.04 59.91L47.72 59.96L47.4 60.02L47.08 60.08L46.76 60.16L46.43 60.25L46.11 60.35L45.78 60.46L45.45 60.57L45.12 60.7L44.79 60.84L44.45 60.99L44.12 61.15L43.78 61.32L43.44 61.5L43.1 61.69L42.76 61.89L42.62 61.97L42.48 62.05L42.34 62.13L42.2 62.21L42.06 62.29L41.92 62.36L41.78 62.44L41.64 62.52L41.5 62.59L41.35 62.67L41.21 62.74L41.07 62.81L40.92 62.89L40.78 62.96L40.63 63.03L40.49 63.1L40.34 63.17L40.19 63.24L40.04 63.31L39.89 63.38L39.75 63.45L39.6 63.52L39.45 63.58L39.29 63.65L39.14 63.72L38.99 63.78L38.84 63.85L38.69 63.91L38.53 63.98L38.38 64.04L38.22 64.1L38.07 64.16L37.91 64.22L37.76 64.29L37.6 64.35L37.44 64.41L37.28 64.47L37.12 64.52L36.96 64.58L36.8 64.64L36.78 64.65L36.76 64.66L36.74 64.67L36.72 64.68L36.7 64.69L36.68 64.7L36.66 64.71L36.64 64.72L36.62 64.72L36.6 64.73L36.58 64.74L36.56 64.74L36.54 64.75L36.53 64.76L36.51 64.76L36.49 64.77L36.47 64.77L36.46 64.78L36.39 64.8L36.37 64.81L36.35 64.82L36.34 64.82L36.32 64.83L36.3 64.83L36.28 64.84L36.26 64.85L36.25 64.85L36.23 64.86L36.21 64.87L36.19 64.88L36.17 64.89L36.15 64.89L36.13 64.9L36.11 64.91L36.09 64.92L36.06 64.93L36.04 64.94L37.87 75.32L38.51 74.99L39.15 74.68L39.79 74.38L40.43 74.11L41.07 73.85L41.71 73.61L42.35 73.39L42.98 73.2L43.62 73.02L44.25 72.86L44.89 72.72L45.52 72.6L46.16 72.49L46.79 72.41L47.42 72.35L48.06 72.3L48.69 72.27L49.32 72.27L49.95 72.28L50.58 72.31L51.21 72.36L51.84 72.43L52.46 72.51L53.09 72.62L53.72 72.74L54.35 72.89L54.97 73.05L55.6 73.23L56.22 73.43L56.85 73.65L57.47 73.89L58.09 74.14L58.71 74.42L59.34 74.71L59.96 75.02L60.58 75.35L61.2 75.7L61.82 76.06L62.44 76.45L63.06 76.85L63.1 76.84L63.15 76.83L63.2 76.81L63.25 76.8L63.3 76.78L63.36 76.77L63.42 76.75L63.47 76.74L63.53 76.72L63.59 76.7L63.65 76.69L63.72 76.67L63.78 76.65L63.85 76.63L63.91 76.61L63.98 76.58L64.05 76.56L64.12 76.54L64.19 76.51L64.26 76.49L64.33 76.46L64.4 76.43L64.48 76.41L64.55 76.38L64.62 76.35L64.7 76.32L64.78 76.28L64.85 76.25L64.93 76.22L65.01 76.18L65.09 76.15L65.17 76.11L65.24 76.07L65.32 76.04L65.4 76L65.48 75.96L65.56 75.91L65.64 75.87L65.72 75.83L65.8 75.78L66.53 75.38L67.27 75.01L68.02 74.66L68.78 74.34L69.55 74.04L70.33 73.77L71.11 73.52L71.9 73.3L72.7 73.11L73.5 72.94L74.31 72.79L75.12 72.67L75.93 72.57L76.75 72.5L77.56 72.46L78.38 72.44L79.19 72.44L80 72.47L80.81 72.52L81.62 72.6L82.42 72.7L83.22 72.82L84.01 72.97L84.79 73.14L85.57 73.34L86.34 73.56L87.09 73.81L87.84 74.08L88.58 74.37L89.3 74.69L90.02 75.03L90.72 75.39L91.4 75.78L92.07 76.19L92.72 76.62L93.36 77.08L93.98 77.56L94.58 78.06L95.16 78.59L95.72 79.14L95.81 79.23L95.9 79.33L95.99 79.44L96.08 79.55L96.16 79.67L96.25 79.79L96.33 79.92L96.41 80.05L96.49 80.19L96.57 80.33L96.65 80.47L96.72 80.62L96.79 80.77L96.85 80.93L96.91 81.08L96.97 81.24L97.03 81.41L97.08 81.57L97.12 81.74L97.17 81.91L97.2 82.07L97.24 82.25L97.27 82.42L97.29 82.59L97.31 82.76L97.32 82.94L97.32 83.11L97.32 83.28L97.32 83.45L97.31 83.62L97.29 83.8L97.26 83.96L97.23 84.13L97.19 84.3L97.14 84.46L97.09 84.62L97.02 84.78L96.95 84.94L96.87 85.09L96.79 85.24L96.71 85.36L96.64 85.48L96.55 85.6L96.47 85.72L96.37 85.84L96.28 85.96L96.17 86.08L96.06 86.21L95.95 86.33L95.84 86.45L95.72 86.57L95.59 86.69L95.46 86.81L95.33 86.93L95.19 87.04L95.05 87.15L94.91 87.26L94.76 87.37L94.61 87.47L94.46 87.57L94.3 87.67L94.14 87.76L93.98 87.84L93.82 87.93L93.65 88L93.48 88.07L93.31 88.14L93.14 88.19L92.97 88.25L92.79 88.29L92.62 88.33L92.44 88.36L92.26 88.38L92.08 88.4L91.9 88.4L91.72 88.4L91.53 88.39L91.35 88.37L91.17 88.34L90.99 88.3L90.8 88.25L90.62 88.2L90.44 88.15L90.26 88.1L90.08 88.05L89.91 88L89.73 87.95L89.56 87.89L89.38 87.84L89.21 87.78L89.04 87.72L88.87 87.66L88.7 87.6L88.53 87.54L88.36 87.48L88.19 87.42L88.03 87.35L87.86 87.29L87.7 87.22L87.53 87.15L87.37 87.08L87.21 87.01L87.05 86.94L86.89 86.87L86.73 86.79L86.57 86.72L86.41 86.64L86.25 86.57L86.1 86.49L85.94 86.41L85.79 86.33L85.63 86.25L85.48 86.16L85.33 86.08L85.17 85.99L85.02 85.91L84.87 85.82L84.72 85.73L84.57 85.64L84.42 85.55L84.07 85.33L83.72 85.11L83.37 84.91L83.02 84.72L82.68 84.55L82.33 84.38L81.99 84.23L81.65 84.08L81.32 83.95L80.98 83.83L80.65 83.72L80.32 83.62L79.99 83.53L79.66 83.46L79.33 83.39L79.01 83.34L78.69 83.3L78.36 83.27L78.04 83.25L77.73 83.24L77.41 83.24L77.09 83.26L76.78 83.28L76.47 83.32L76.16 83.37L75.84 83.42L75.54 83.49L75.23 83.57L74.92 83.67L74.61 83.77L74.31 83.88L74.01 84.01L73.7 84.14L73.4 84.29L73.1 84.45L72.8 84.61L72.5 84.79L72.2 84.98L71.9 85.18L71.6 85.4L71.2 85.69L70.8 85.96L70.4 86.22L70 86.47L69.6 86.7L69.2 86.91L68.8 87.11L68.39 87.3L67.99 87.47L67.59 87.63L67.19 87.77L66.78 87.89L66.38 88L65.97 88.1L65.57 88.18L65.16 88.24L64.76 88.29L64.35 88.33L63.94 88.35L63.53 88.35L63.12 88.34L62.71 88.32L62.3 88.28L61.89 88.22L61.47 88.15L61.06 88.06L60.64 87.96L60.23 87.84L59.81 87.71L59.39 87.56L58.97 87.4L58.55 87.22L58.12 87.03L57.7 86.82L57.27 86.6L56.85 86.36L56.42 86.1L55.99 85.83L55.55 85.55L55.12 85.24L54.76 85L54.39 84.77L54.02 84.56L53.64 84.36L53.26 84.18L52.87 84.01L52.47 83.86L52.07 83.72L51.67 83.6L51.26 83.49L50.85 83.4L50.44 83.32L50.03 83.25L49.61 83.21L49.2 83.17L48.79 83.15L48.37 83.15L47.96 83.16L47.55 83.18L47.14 83.22L46.74 83.27L46.34 83.34L45.94 83.42L45.55 83.52L45.16 83.63L44.78 83.75L44.4 83.89L44.03 84.04L43.67 84.21L43.31 84.39L42.97 84.58L42.63 84.78L42.3 85L41.98 85.24L41.68 85.49L41.38 85.75L41.09 86.02L40.82 86.31L40.56 86.61L40.31 86.92L40.31 86.94L40.31 86.95L40.31 86.97L40.3 86.99L40.3 87.02L40.29 87.05L40.28 87.08L40.27 87.12L40.26 87.17L40.25 87.21L40.25 87.27L40.24 87.32L40.23 87.39L40.22 87.46L40.21 87.53L40.2 87.61L40.2 87.69L40.19 87.79L40.18 87.89L40.18 87.99L40.18 88.1L40.18 88.22L40.18 88.35L40.18 88.48L40.19 88.62L40.2 88.77L40.2 88.93L40.22 89.1L40.23 89.27L40.25 89.46L40.27 89.65L40.29 89.85L40.32 90.06L40.35 90.28L40.39 90.51L40.43 90.75L40.47 91L40.51 91.26L40.56 91.53L40.62 91.81L40.63 91.89L40.65 91.98L40.66 92.08L40.68 92.18L40.69 92.3L40.71 92.41L40.73 92.54L40.74 92.66L40.76 92.8L40.77 92.94L40.79 93.08L40.8 93.23L40.81 93.38L40.82 93.54L40.83 93.7L40.84 93.87L40.84 94.03L40.84 94.2L40.84 94.38L40.83 94.55L40.82 94.73L40.8 94.91L40.79 95.1L40.76 95.28L40.73 95.46L40.7 95.65L40.66 95.84L40.62 96.02L40.57 96.21L40.51 96.4L40.45 96.59L40.38 96.77L40.3 96.96L40.22 97.14L40.13 97.33L40.03 97.51L39.92 97.69L39.81 97.87L39.68 98.04L39.55 98.22L39.41 98.38L39.27 98.54L39.12 98.69L38.97 98.84L38.81 98.97L38.66 99.1L38.49 99.22L38.33 99.33L38.17 99.44L38 99.54L37.83 99.63L37.66 99.72L37.49 99.8L37.32 99.88L37.14 99.95L36.97 100.01L36.8 100.07L36.63 100.13L36.46 100.18L36.29 100.22L36.12 100.26L35.95 100.3L35.79 100.33L35.63 100.36L35.47 100.39L35.31 100.41L35.16 100.43L35.01 100.44L34.86 100.46L34.72 100.47L34.58 100.48L34.45 100.49L34.32 100.49L34.2 100.5L34.09 100.5L33.98 100.5L33.87 100.51L33.77 100.51L33.68 100.51L33.6 100.51L9.79 100.51L9.66 100.51L9.53 100.51L9.4 100.5L9.27 100.5L9.14 100.5L9.01 100.49L8.87 100.48L8.73 100.48L8.6 100.47L8.46 100.46L8.32 100.44L8.18 100.43L8.04 100.41L7.9 100.39L7.76 100.37L7.61 100.35L7.47 100.32L7.33 100.29L7.19 100.26L7.04 100.22L6.9 100.18L6.76 100.14L6.61 100.09L6.47 100.04L6.33 99.99L6.19 99.94L6.05 99.88L5.9 99.81L5.76 99.74L5.63 99.67L5.49 99.59L5.35 99.51L5.21 99.42L5.08 99.33L4.94 99.24L4.81 99.13L4.68 99.03L4.55 98.92L4.42 98.8L4.29 98.67L4.2 98.58L4.12 98.49L4.03 98.39L3.95 98.29L3.87 98.19L3.79 98.08L3.71 97.98L3.64 97.87L3.56 97.76L3.49 97.65L3.43 97.53L3.36 97.42L3.3 97.3L3.24 97.17L3.18 97.05L3.12 96.93L3.07 96.8L3.02 96.67L2.97 96.54L2.92 96.4L2.88 96.27L2.83 96.13L2.79 95.99L2.76 95.85L2.72 95.71L2.69 95.56L2.66 95.41L2.63 95.27L2.6 95.11L2.58 94.96L2.56 94.81L2.54 94.65L2.52 94.49L2.5 94.33L2.49 94.17L2.48 94.01L2.47 93.84L2.47 93.67L2.46 93.5L2.46 93.33L2.46 8.47L2.47 8.12L2.48 7.78L2.5 7.45L2.54 7.12L2.58 6.81L2.63 6.5L2.69 6.2L2.76 5.91L2.83 5.63L2.92 5.35L3.02 5.09L3.12 4.83L3.24 4.58L3.36 4.34L3.49 4.11L3.64 3.89L3.79 3.67L3.95 3.46L4.12 3.26L4.29 3.07L4.48 2.89L4.68 2.72L4.89 2.55L5.1 2.4L5.33 2.25L5.56 2.11L5.8 1.98L6.05 1.85L6.31 1.73L6.58 1.63L6.86 1.53L7.15 1.44L7.45 1.35L7.76 1.28L8.07 1.21L8.4 1.15L8.73 1.1L9.08 1.06L9.43 1.02L9.79 1L10.09 1L11.08 0.94L12.02 0.9L12.92 0.86L13.77 0.83L14.59 0.81L15.36 0.81L16.1 0.82L16.8 0.84ZM13.76 88.91L28.87 88.91L15.59 12.29L13.76 12.29L13.76 88.91ZM34.51 85.4L34.54 85.19L34.61 85.01L34.71 84.84L34.82 84.63L34.36 84.94L34.51 85.4ZM31.31 60.37L31.63 60.25L32.21 60.02L32.53 59.91L32.42 59.88L32.19 59.78L32.07 59.76L31.56 59.38L30.97 58.94L30.31 58.4L29.63 57.77L30.09 60.82L31.31 60.37Z" id="bnuRMvjo"></path></defs><g><g><g><use xlink:href="#f1RRAXXxH" opacity="1" fill="#000000" fill-opacity="0"></use><g><use xlink:href="#f1RRAXXxH" opacity="1" fill-opacity="0" stroke="#000000" stroke-width="1" stroke-opacity="0"></use></g></g><g><use xlink:href="#bnuRMvjo" opacity="1" fill="#66a1c8" fill-opacity="1"></use><g><use xlink:href="#bnuRMvjo" opacity="1" fill-opacity="0" stroke="#000000" stroke-width="1" stroke-opacity="0"></use></g></g></g></g></svg>