<?xml version="1.0" encoding="utf-8"?>
<!-- Generator: Adobe Illustrator 23.0.1, SVG Export Plug-In . SVG Version: 6.00 Build 0)  -->
<svg version="1.1" id="Layer_1" xmlns="http://www.w3.org/2000/svg" xmlns:xlink="http://www.w3.org/1999/xlink" x="0px" y="0px"
	 viewBox="0 0 100 100" style="enable-background:new 0 0 100 100;" xml:space="preserve">
<style type="text/css">
	.st0{fill:#66A1C8;}
</style>
<g>
	<path class="st0" d="M42.3,53.8c0-0.7-0.6-1.3-1.3-1.3h-4.5c-0.7,0-1.3,0.6-1.3,1.3v4.5c0,0.7,0.6,1.3,1.3,1.3H41
		c0.7,0,1.3-0.6,1.3-1.3V53.8z M42.3,53.8"/>
	<path class="st0" d="M53.5,53.8c0-0.7-0.6-1.3-1.3-1.3h-4.5c-0.7,0-1.3,0.6-1.3,1.3v4.5c0,0.7,0.6,1.3,1.3,1.3h4.5
		c0.7,0,1.3-0.6,1.3-1.3V53.8z M53.5,53.8"/>
	<path class="st0" d="M64.8,53.8c0-0.7-0.6-1.3-1.3-1.3H59c-0.7,0-1.3,0.6-1.3,1.3v4.5c0,0.7,0.6,1.3,1.3,1.3h4.5
		c0.7,0,1.3-0.6,1.3-1.3V53.8z M64.8,53.8"/>
	<path class="st0" d="M42.3,65c0-0.7-0.6-1.3-1.3-1.3h-4.5c-0.7,0-1.3,0.6-1.3,1.3v4.5c0,0.7,0.6,1.3,1.3,1.3H41
		c0.7,0,1.3-0.6,1.3-1.3V65z M42.3,65"/>
	<path class="st0" d="M53.5,65c0-0.7-0.6-1.3-1.3-1.3h-4.5c-0.7,0-1.3,0.6-1.3,1.3v4.5c0,0.7,0.6,1.3,1.3,1.3h4.5
		c0.7,0,1.3-0.6,1.3-1.3V65z M53.5,65"/>
	<g>
		<path class="st0" d="M64.8,65c0-0.7-0.6-1.3-1.3-1.3H59c-0.7,0-1.3,0.6-1.3,1.3v4.5c0,0.7,0.6,1.3,1.3,1.3h4.5
			c0.7,0,1.3-0.6,1.3-1.3V65z M64.8,65"/>
		<path class="st0" d="M72.9,28.7v6.9c0,3.1-2.5,5.6-5.6,5.6h-3.6c-3.1,0-5.7-2.5-5.7-5.6v-6.9H42v6.9c0,3.1-2.6,5.6-5.7,5.6h-3.6
			c-3.1,0-5.6-2.5-5.6-5.6v-6.9c-2.7,0.1-5,2.3-5,5.1v40.3c0,2.8,2.3,5.1,5.1,5.1h45.4c2.8,0,5.1-2.3,5.1-5.1V33.8
			C77.8,31,75.6,28.8,72.9,28.7L72.9,28.7z M71.2,71.6c0,1.2-1,2.2-2.2,2.2H30.9c-1.2,0-2.2-1-2.2-2.2V50.8c0-1.2,1-2.2,2.2-2.2H69
			c1.2,0,2.2,1,2.2,2.2V71.6z M71.2,71.6"/>
	</g>
	<path class="st0" d="M32.8,37.5h3.5c1.1,0,1.9-0.9,1.9-1.9V24.3c0-1.1-0.9-1.9-1.9-1.9h-3.5c-1.1,0-1.9,0.9-1.9,1.9v11.3
		C30.8,36.7,31.7,37.5,32.8,37.5L32.8,37.5z M32.8,37.5"/>
	<path class="st0" d="M63.6,37.5h3.5c1.1,0,1.9-0.9,1.9-1.9V24.3c0-1.1-0.9-1.9-1.9-1.9h-3.5c-1.1,0-1.9,0.9-1.9,1.9v11.3
		C61.7,36.7,62.6,37.5,63.6,37.5L63.6,37.5z M63.6,37.5"/>
</g>
</svg>
