<?xml version="1.0" encoding="UTF-8" standalone="no"?>
<!DOCTYPE svg PUBLIC "-//W3C//DTD SVG 1.1//EN" "http://www.w3.org/Graphics/SVG/1.1/DTD/svg11.dtd">
<svg version="1.1" xmlns="http://www.w3.org/2000/svg" xmlns:xlink="http://www.w3.org/1999/xlink" preserveAspectRatio="xMidYMid meet" viewBox="0 0 100 100" width="100" height="100"><defs><path d="M52.15 96.88C53.62 96.88 54.43 96.88 54.6 96.88C54.83 91.42 55.54 85.91 56.76 80.36C59.21 69.07 62.74 58.25 69.23 48.6C70.5 46.72 71.86 44.98 73.28 43.19C73.32 43.14 73.32 43.14 73.32 43.1C73.37 42.72 72.81 42.39 72.48 42.34C72.48 42.34 72.43 42.34 72.43 42.34C72.1 42.3 71.77 42.39 71.49 42.58C70.74 43 70.12 43.71 69.51 44.32C68.71 45.03 67.96 45.78 67.21 46.53C65.65 48.04 64.1 49.59 62.55 51.14C62.27 51.43 62.03 51.8 61.8 52.13C61.89 52.27 62.03 52.37 62.13 52.51C62.4 52.29 64.58 50.52 64.85 50.3C65.37 50.72 65.23 50.63 65.75 51.1C60.43 59.8 56.48 69.07 54.31 79C53.04 84.92 52.34 90.9 52.15 96.88" id="b1kZGPQ2TI"></path><path d="M54.6 96.88C54.83 91.42 55.54 85.91 56.76 80.36C59.21 69.07 62.74 58.25 69.23 48.6C70.5 46.72 71.86 44.98 73.28 43.19C73.32 43.14 73.32 43.14 73.32 43.1C73.37 42.72 72.81 42.39 72.48 42.34C72.48 42.34 72.43 42.34 72.43 42.34C72.1 42.3 71.77 42.39 71.49 42.58C70.74 43 70.12 43.71 69.51 44.32C68.71 45.03 67.96 45.78 67.21 46.53C65.65 48.04 64.1 49.59 62.55 51.14C62.27 51.43 62.03 51.8 61.8 52.13C61.89 52.27 62.03 52.37 62.13 52.51C62.4 52.29 64.58 50.52 64.85 50.3C65.37 50.72 65.23 50.63 65.75 51.1C60.43 59.8 56.48 69.07 54.31 79C53.04 84.92 52.34 90.9 52.15 96.88C52.64 96.88 54.35 96.88 54.6 96.88Z" id="aNMpAb0PG"></path><path d="M26.04 43.19C29.9 47.76 33.14 52.84 35.54 58.29C41.09 70.9 44.15 83.8 44.76 96.88C45.01 96.88 47.01 96.88 47.26 96.88C46.69 81.54 42.83 66.67 34.46 52.41C35.21 51.75 35.02 51.9 35.78 51.24C36.25 51.61 36.72 51.99 37.24 52.41C37.38 52.27 37.47 52.18 37.61 52.04C37.19 51.61 36.81 51.14 36.39 50.72C33.9 48.27 31.4 45.92 29 43.43C28.3 42.67 27.54 42.2 26.56 42.16C25.94 42.11 25.66 42.77 26.04 43.19C25.99 43.19 26.04 43.19 26.04 43.19" id="a60gRUTMDy"></path><path d="M35.54 58.29C41.09 70.9 44.15 83.8 44.76 96.88C45.01 96.88 47.01 96.88 47.26 96.88C46.69 81.54 42.83 66.67 34.46 52.41C35.21 51.75 35.02 51.9 35.78 51.24C36.25 51.61 36.72 51.99 37.24 52.41C37.38 52.27 37.47 52.18 37.61 52.04C37.19 51.61 36.81 51.14 36.39 50.72C33.9 48.27 31.4 45.92 29 43.43C28.3 42.67 27.54 42.2 26.56 42.16C25.94 42.11 25.66 42.77 26.04 43.19C25.99 43.19 26.04 43.19 26.04 43.19C29.9 47.76 33.14 52.84 35.54 58.29Z" id="aefFXXZQn"></path><path d="M62.69 27.57C62.69 34.77 56.86 40.6 49.66 40.6C42.46 40.6 36.62 34.77 36.62 27.57C36.62 20.37 42.46 14.54 49.66 14.54C56.86 14.49 62.69 20.33 62.69 27.57" id="ab6P7e8u8"></path><path d="M49.66 0L49.66 20.28" id="aqjHUb5G0"></path><path d="M51.6 7.46L52.91 7.64L54.19 7.9L55.45 8.24L56.66 8.64L57.84 9.12L58.98 9.67L60.08 10.27L61.13 10.95L62.14 11.68L63.1 12.47L64.01 13.32L64.86 14.21L65.65 15.16L66.39 16.16L67.06 17.2L67.67 18.28L68.21 19.41L68.68 20.57L69.07 21.77L69.4 23L69.64 24.26L69.81 25.55L69.89 26.87L69.89 28.18L69.8 29.49L69.63 30.77L69.39 32.03L69.07 33.26L68.67 34.46L68.21 35.63L67.68 36.76L67.08 37.86L66.41 38.92L65.69 39.93L64.9 40.89L64.06 41.81L63.17 42.67L62.22 43.47L61.22 44.22L60.18 44.91L59.09 45.53L57.96 46.08L56.79 46.56L55.58 46.97L54.33 47.3L53.05 47.55L51.75 47.72L50.41 47.8L49 47.79L47.62 47.7L46.28 47.53L44.96 47.27L43.69 46.94L42.45 46.53L41.26 46.05L40.1 45.5L39 44.89L37.94 44.2L36.93 43.45L35.98 42.64L35.08 41.77L34.23 40.85L33.45 39.87L32.73 38.83L32.07 37.75L31.48 36.61L30.95 35.44L30.5 34.21L30.12 32.95L29.82 31.65L29.59 30.31L29.44 28.93L29.38 27.52L29.4 26.24L29.51 24.98L29.69 23.74L29.96 22.52L30.31 21.32L30.73 20.15L31.22 19.02L31.77 17.91L32.4 16.85L33.08 15.83L33.83 14.85L34.63 13.91L35.48 13.03L36.39 12.19L37.34 11.42L38.34 10.7L39.38 10.04L40.47 9.45L41.58 8.92L42.74 8.46L43.92 8.08L45.13 7.77L46.37 7.55L47.63 7.4L48.9 7.34L50.27 7.36L51.6 7.46ZM46.97 11.52L45.7 11.78L44.47 12.13L43.28 12.58L42.14 13.12L41.05 13.73L40.01 14.43L39.04 15.2L38.12 16.04L37.28 16.94L36.5 17.91L35.8 18.94L35.19 20.02L34.65 21.14L34.2 22.32L33.85 23.53L33.59 24.78L33.43 26.07L33.38 27.38L33.43 28.74L33.59 30.07L33.84 31.36L34.19 32.61L34.64 33.82L35.17 34.98L35.78 36.08L36.48 37.13L37.25 38.11L38.09 39.03L39 39.89L39.97 40.67L41.01 41.37L42.1 41.99L43.24 42.53L44.43 42.98L45.67 43.33L46.95 43.59L48.26 43.75L49.61 43.8L50.94 43.75L52.25 43.59L53.52 43.33L54.76 42.97L55.95 42.52L57.1 41.99L58.19 41.37L59.24 40.67L60.22 39.89L61.14 39.05L61.99 38.13L62.77 37.16L63.47 36.12L64.09 35.04L64.63 33.9L65.08 32.72L65.43 31.49L65.69 30.23L65.84 28.94L65.89 27.62L65.83 26.26L65.67 24.94L65.4 23.66L65.05 22.41L64.6 21.21L64.06 20.06L63.44 18.96L62.74 17.91L61.97 16.93L61.12 16.01L60.21 15.17L59.23 14.39L58.19 13.69L57.1 13.07L55.96 12.54L54.77 12.1L53.53 11.74L52.26 11.49L50.95 11.34L49.61 11.29L48.28 11.35L46.97 11.52Z" id="gsgdRbBy"></path></defs><g><g><g><use xlink:href="#b1kZGPQ2TI" opacity="1" fill="#66a1c8" fill-opacity="1"></use><g><use xlink:href="#b1kZGPQ2TI" opacity="1" fill-opacity="0" stroke="#000000" stroke-width="1" stroke-opacity="0"></use></g></g><g><use xlink:href="#aNMpAb0PG" opacity="1" fill="#66a1c8" fill-opacity="1"></use><g><use xlink:href="#aNMpAb0PG" opacity="1" fill-opacity="0" stroke="#66a1c8" stroke-width="6" stroke-opacity="1"></use></g></g><g><use xlink:href="#a60gRUTMDy" opacity="1" fill="#66a1c8" fill-opacity="1"></use><g><use xlink:href="#a60gRUTMDy" opacity="1" fill-opacity="0" stroke="#000000" stroke-width="1" stroke-opacity="0"></use></g></g><g><use xlink:href="#aefFXXZQn" opacity="1" fill="#66a1c8" fill-opacity="1"></use><g><use xlink:href="#aefFXXZQn" opacity="1" fill-opacity="0" stroke="#66a1c8" stroke-width="6" stroke-opacity="1"></use></g></g><g><use xlink:href="#ab6P7e8u8" opacity="1" fill="#66a1c8" fill-opacity="1"></use><g><use xlink:href="#ab6P7e8u8" opacity="1" fill-opacity="0" stroke="#000000" stroke-width="1" stroke-opacity="0"></use></g></g><g><use xlink:href="#aqjHUb5G0" opacity="1" fill="#66a1c8" fill-opacity="1"></use><g><use xlink:href="#aqjHUb5G0" opacity="1" fill-opacity="0" stroke="#66a1c8" stroke-width="5" stroke-opacity="1"></use></g></g><g><use xlink:href="#gsgdRbBy" opacity="1" fill="#66a1c8" fill-opacity="1"></use><g><use xlink:href="#gsgdRbBy" opacity="1" fill-opacity="0" stroke="#000000" stroke-width="1" stroke-opacity="0"></use></g></g></g></g></svg>