<?xml version="1.0" encoding="utf-8"?>
<!-- Generator: Adobe Illustrator 22.0.1, SVG Export Plug-In . SVG Version: 6.00 Build 0)  -->
<svg version="1.1" id="Слой_1" xmlns="http://www.w3.org/2000/svg" xmlns:xlink="http://www.w3.org/1999/xlink" x="0px" y="0px"
	 viewBox="0 0 106.9 208.9" style="enable-background:new 0 0 106.9 208.9;" xml:space="preserve">
<style type="text/css">
	.st0{clip-path:url(#SVGID_2_);fill:#66A1C8;}
	.st1{clip-path:url(#SVGID_2_);fill:#66A1C8;;stroke:#000000;stroke-width:6;stroke-miterlimit:10;}
	.st2{clip-path:url(#SVGID_2_);fill:#66A1C8;;stroke:#000000;stroke-width:5;stroke-miterlimit:10;}
</style>
<g>
	<defs>
		<rect id="SVGID_1_" width="106.9" height="208.9"/>
	</defs>
	<clipPath id="SVGID_2_">
		<use xlink:href="#SVGID_1_"  style="overflow:visible;"/>
	</clipPath>
	<path class="st0" d="M58.9,205.9h5.2c0.5-11.6,2-23.3,4.6-35.1c5.2-24,12.7-47,26.5-67.5c2.7-4,5.6-7.7,8.6-11.5
		c0.1-0.1,0.1-0.1,0.1-0.2c0.1-0.8-1.1-1.5-1.8-1.6c0,0-0.1,0-0.1,0c-0.7-0.1-1.4,0.1-2,0.5c-1.6,0.9-2.9,2.4-4.2,3.7
		c-1.7,1.5-3.3,3.1-4.9,4.7c-3.3,3.2-6.6,6.5-9.9,9.8c-0.6,0.6-1.1,1.4-1.6,2.1c0.2,0.3,0.5,0.5,0.7,0.8l5.8-4.7
		c1.1,0.9,0.8,0.7,1.9,1.7c-11.3,18.5-19.7,38.2-24.3,59.3C60.8,180.5,59.3,193.2,58.9,205.9"/>
	<path class="st1" d="M58.9,205.9h5.2c0.5-11.6,2-23.3,4.6-35.1c5.2-24,12.7-47,26.5-67.5c2.7-4,5.6-7.7,8.6-11.5
		c0.1-0.1,0.1-0.1,0.1-0.2c0.1-0.8-1.1-1.5-1.8-1.6c0,0-0.1,0-0.1,0c-0.7-0.1-1.4,0.1-2,0.5c-1.6,0.9-2.9,2.4-4.2,3.7
		c-1.7,1.5-3.3,3.1-4.9,4.7c-3.3,3.2-6.6,6.5-9.9,9.8c-0.6,0.6-1.1,1.4-1.6,2.1c0.2,0.3,0.5,0.5,0.7,0.8l5.8-4.7
		c1.1,0.9,0.8,0.7,1.9,1.7c-11.3,18.5-19.7,38.2-24.3,59.3C60.8,180.5,59.3,193.2,58.9,205.9z"/>
	<path class="st0" d="M3.4,91.8c8.2,9.7,15.1,20.5,20.2,32.1c11.8,26.8,18.3,54.2,19.6,82h5.3c-1.2-32.6-9.4-64.2-27.2-94.5
		c1.6-1.4,1.2-1.1,2.8-2.5c1,0.8,2,1.6,3.1,2.5c0.3-0.3,0.5-0.5,0.8-0.8c-0.9-0.9-1.7-1.9-2.6-2.8c-5.3-5.2-10.6-10.2-15.7-15.5
		c-1.5-1.6-3.1-2.6-5.2-2.7C3.2,89.5,2.6,90.9,3.4,91.8C3.3,91.8,3.4,91.8,3.4,91.8"/>
	<path class="st1" d="M3.4,91.8c8.2,9.7,15.1,20.5,20.2,32.1c11.8,26.8,18.3,54.2,19.6,82h5.3c-1.2-32.6-9.4-64.2-27.2-94.5
		c1.6-1.4,1.2-1.1,2.8-2.5c1,0.8,2,1.6,3.1,2.5c0.3-0.3,0.5-0.5,0.8-0.8c-0.9-0.9-1.7-1.9-2.6-2.8c-5.3-5.2-10.6-10.2-15.7-15.5
		c-1.5-1.6-3.1-2.6-5.2-2.7C3.2,89.5,2.6,90.9,3.4,91.8C3.3,91.8,3.4,91.8,3.4,91.8z"/>
	<path class="st0" d="M81.3,58.6c0,15.3-12.4,27.7-27.7,27.7c-15.3,0-27.7-12.4-27.7-27.7s12.4-27.7,27.7-27.7
		C68.9,30.8,81.3,43.2,81.3,58.6"/>
	<line class="st2" x1="53.6" y1="0" x2="53.6" y2="43.1"/>
	<path class="st0" d="M10.5,58.5C10.1,35.7,29.2,15.9,52,15.6c24.3-0.4,43.9,18,44.6,41.5c0.7,23.5-17.5,43.8-41.4,44.5
		C30,102.2,10.9,83.7,10.5,58.5 M19,58.2c0,19.5,15.2,34.9,34.5,34.9c19.1,0,34.7-15.5,34.6-34.4C88,39.3,72.7,23.9,53.5,24
		C34.4,24.1,19,39.4,19,58.2"/>
</g>
</svg>
