<?xml version="1.0" encoding="UTF-8" standalone="no"?>
<!DOCTYPE svg PUBLIC "-//W3C//DTD SVG 1.1//EN" "http://www.w3.org/Graphics/SVG/1.1/DTD/svg11.dtd">
<svg version="1.1" xmlns="http://www.w3.org/2000/svg" xmlns:xlink="http://www.w3.org/1999/xlink" preserveAspectRatio="xMidYMid meet" viewBox="0 0 100 100" width="100" height="100"><defs><path d="M85.94 4.29C89.12 0.81 92.75 -1 96.68 2.93C100.46 6.71 98.64 10.49 95.32 13.66C89.72 18.95 84.13 24.24 78.54 29.54C78.84 29.99 78.99 30.59 79.29 31.05C81.86 31.2 84.28 31.35 86.85 31.65C90.93 32.11 93.65 34.22 93.35 38.61C93.05 43.29 90.03 45.26 85.64 44.8C77.93 44.2 70.22 43.9 62.67 42.54C60.4 42.08 57.37 39.21 57.07 36.94C55.71 29.38 55.41 21.68 54.8 13.97C54.5 9.58 56.47 6.56 61 6.26C65.69 5.95 67.65 9.13 68.11 13.36C68.26 15.63 68.41 17.74 68.56 20.01C69.01 20.31 69.62 20.62 70.22 21.07C75.51 15.48 80.65 9.88 85.94 4.29Z" id="a3k9nCXxJ"></path><path d="M13.54 95.44C9.61 99.37 5.52 99.83 2.8 96.65C-0.37 92.87 0.99 89.4 4.16 86.22C9.61 80.93 15.2 75.49 21.7 69.14C17.77 68.54 15.05 68.23 12.48 67.93C8.4 67.48 6.13 65.21 6.28 61.28C6.43 57.05 9.15 54.78 13.38 54.93C21.09 55.39 28.8 55.99 36.51 56.75C40.75 57.05 42.86 59.62 43.16 63.85C43.77 71.11 44.37 78.51 44.83 85.77C45.13 90.15 43.16 93.33 38.63 93.63C34.4 93.78 32.13 91.21 31.83 86.98C31.52 84.26 31.07 81.84 30.62 77.61C24.12 84.26 18.98 89.85 13.54 95.44Z" id="aBZvry26j"></path><path d="M67.8 87.13C67.2 91.21 64.93 93.93 60.55 93.48C56.32 93.03 54.2 90.15 54.5 85.92C55.11 78.06 55.56 70.05 56.92 62.34C57.37 60.22 60.55 57.2 62.82 56.9C70.37 55.69 78.24 55.39 85.94 54.93C90.18 54.63 93.05 56.59 93.2 60.98C93.35 65.36 90.93 67.48 86.7 67.93C84.28 68.08 81.86 68.54 78.08 68.99C82.01 73.07 85.34 76.4 88.67 79.72C90.93 81.99 93.2 84.26 95.47 86.53C98.79 89.7 100 93.33 96.38 96.8C92.75 100.28 89.12 98.92 85.94 95.6C80.5 90 75.06 84.26 69.77 78.66C69.47 78.82 69.01 79.12 68.56 79.42C68.26 81.99 68.11 84.56 67.8 87.13Z" id="a1fpott5tm"></path><path d="M4.16 13.51C0.08 9.58 -0.22 5.65 2.95 2.78C6.88 -0.55 10.21 0.97 13.23 4.14C18.52 9.73 23.97 15.17 30.47 21.98C31.07 17.9 31.37 15.17 31.68 12.61C32.13 8.37 34.55 6.1 38.78 6.41C42.86 6.71 44.83 9.43 44.53 13.36C44.07 21.07 43.47 28.78 42.71 36.49C42.41 40.27 40.29 42.69 36.21 42.99C28.96 43.59 21.55 44.35 14.29 44.95C9.61 45.41 6.13 43.59 5.98 38.76C5.68 33.77 9.15 31.95 13.69 31.65C15.65 31.5 17.77 31.35 19.73 31.2C20.19 30.44 20.64 29.84 20.94 29.38C15.35 24.09 9.76 18.95 4.16 13.51Z" id="aKHiyRND"></path></defs><g><g><g><use xlink:href="#a3k9nCXxJ" opacity="1" fill="#66a1c8" fill-opacity="1"></use><g><use xlink:href="#a3k9nCXxJ" opacity="1" fill-opacity="0" stroke="#000000" stroke-width="1" stroke-opacity="0"></use></g></g><g><use xlink:href="#aBZvry26j" opacity="1" fill="#66a1c8" fill-opacity="1"></use><g><use xlink:href="#aBZvry26j" opacity="1" fill-opacity="0" stroke="#000000" stroke-width="1" stroke-opacity="0"></use></g></g><g><use xlink:href="#a1fpott5tm" opacity="1" fill="#66a1c8" fill-opacity="1"></use><g><use xlink:href="#a1fpott5tm" opacity="1" fill-opacity="0" stroke="#000000" stroke-width="1" stroke-opacity="0"></use></g></g><g><use xlink:href="#aKHiyRND" opacity="1" fill="#66a1c8" fill-opacity="1"></use><g><use xlink:href="#aKHiyRND" opacity="1" fill-opacity="0" stroke="#000000" stroke-width="1" stroke-opacity="0"></use></g></g></g></g></svg>