<?xml version="1.0" encoding="utf-8"?>
<!-- Generator: Adobe Illustrator 23.0.1, SVG Export Plug-In . SVG Version: 6.00 Build 0)  -->
<svg version="1.1" id="Layer_1" xmlns="http://www.w3.org/2000/svg" xmlns:xlink="http://www.w3.org/1999/xlink" x="0px" y="0px"
	 viewBox="0 0 100 100" style="enable-background:new 0 0 100 100;" xml:space="preserve">
<style type="text/css">
	.st0{fill:#66A1C8;}
</style>
<path class="st0" d="M64.1,32.4c3.5-3.7,6.9-7.4,10.4-11.1c2.1-2.3,4.5-3.5,7.1-0.9c2.5,2.5,1.3,5-0.9,7.1c-3.7,3.5-7.4,7-11.1,10.5
	c0.2,0.3,0.3,0.7,0.5,1c1.7,0.1,3.3,0.2,5,0.4c2.7,0.3,4.5,1.7,4.3,4.6c-0.2,3.1-2.2,4.4-5.1,4.1c-5.1-0.4-10.2-0.6-15.2-1.5
	c-1.5-0.3-3.5-2.2-3.7-3.7c-0.9-5-1.1-10.1-1.5-15.2c-0.2-2.9,1.1-4.9,4.1-5.1c3.1-0.2,4.4,1.9,4.7,4.7c0.1,1.5,0.2,2.9,0.3,4.4
	C63.3,31.9,63.7,32.1,64.1,32.4z"/>
<path class="st0" d="M37.9,69.8c-4.3,4.4-7.7,8.1-11.3,11.8c-2.6,2.6-5.3,2.9-7.1,0.8c-2.1-2.5-1.2-4.8,0.9-6.9
	c3.6-3.5,7.3-7.1,11.6-11.3c-2.6-0.4-4.4-0.6-6.1-0.8c-2.7-0.3-4.2-1.8-4.1-4.4c0.1-2.8,1.9-4.3,4.7-4.2c5.1,0.3,10.2,0.7,15.3,1.2
	c2.8,0.2,4.2,1.9,4.4,4.7c0.4,4.8,0.8,9.7,1.1,14.5c0.2,2.9-1.1,5-4.1,5.2c-2.8,0.1-4.3-1.6-4.5-4.4C38.5,74.2,38.2,72.6,37.9,69.8z
	"/>
<path class="st0" d="M63,71c-0.2,1.7-0.3,3.4-0.5,5.1c-0.4,2.7-1.9,4.5-4.8,4.2c-2.8-0.3-4.2-2.2-4-5c0.4-5.2,0.7-10.5,1.6-15.6
	c0.3-1.4,2.4-3.4,3.9-3.6c5-0.8,10.2-1,15.3-1.3c2.8-0.2,4.7,1.1,4.8,4c0.1,2.9-1.5,4.3-4.3,4.6c-1.6,0.1-3.2,0.4-5.7,0.7
	c2.6,2.7,4.8,4.9,7,7.1c1.5,1.5,3,3,4.5,4.5c2.2,2.1,3,4.5,0.6,6.8c-2.4,2.3-4.8,1.4-6.9-0.8c-3.6-3.7-7.2-7.5-10.7-11.2
	C63.6,70.6,63.3,70.8,63,71z"/>
<path class="st0" d="M31.5,37.9c-3.7-3.5-7.4-6.9-11.1-10.5c-2.7-2.6-2.9-5.2-0.8-7.1c2.6-2.2,4.8-1.2,6.8,0.9
	c3.5,3.7,7.1,7.3,11.4,11.8c0.4-2.7,0.6-4.5,0.8-6.2c0.3-2.8,1.9-4.3,4.7-4.1c2.7,0.2,4,2,3.8,4.6c-0.3,5.1-0.7,10.2-1.2,15.3
	c-0.2,2.5-1.6,4.1-4.3,4.3c-4.8,0.4-9.7,0.9-14.5,1.3c-3.1,0.3-5.4-0.9-5.5-4.1c-0.2-3.3,2.1-4.5,5.1-4.7c1.3-0.1,2.7-0.2,4-0.3
	C31,38.6,31.3,38.2,31.5,37.9z"/>
</svg>
