<?xml version="1.0" encoding="UTF-8" standalone="no"?>
<!DOCTYPE svg PUBLIC "-//W3C//DTD SVG 1.1//EN" "http://www.w3.org/Graphics/SVG/1.1/DTD/svg11.dtd">
<svg version="1.1" xmlns="http://www.w3.org/2000/svg" xmlns:xlink="http://www.w3.org/1999/xlink" preserveAspectRatio="xMidYMid meet" viewBox="0 0 100 100" width="100" height="100"><defs><path d="M43.5 94.98L43.5 91.71L55.15 91.71L55.15 88.45L43.5 88.45L43.5 81.77L55.15 81.77L55.15 78.51L43.5 78.51L43.5 71.83L55.15 71.83L55.15 68.56L43.5 68.56L43.5 61.88L55.15 61.88L55.15 58.16L43.5 58.16L43.5 51.48L55.15 51.48L55.15 48.21L43.5 48.21L43.5 41.53L55.15 41.53L55.15 38.27L43.5 38.27L43.5 31.59L55.15 31.59L55.15 28.33L43.5 28.33L43.5 22.27L63.54 28.02L63.54 94.98L66.8 94.98L66.8 91.71L71.77 91.71L71.77 88.45L66.8 88.45L66.8 81.77L71.77 81.77L71.77 78.51L66.8 78.51L66.8 71.83L71.77 71.83L71.77 68.56L66.8 68.56L66.8 61.88L71.77 61.88L71.77 58.47L66.8 58.47L66.8 51.79L71.77 51.79L71.77 48.52L66.8 48.52L66.8 39.51L76.75 44.48L76.75 95.29L88.4 95.29L88.4 84.88L88.24 84.78L88.08 84.68L87.92 84.58L87.77 84.47L87.63 84.36L87.48 84.24L87.34 84.12L87.21 83.99L87.08 83.86L86.95 83.73L86.82 83.6L86.7 83.46L86.59 83.31L86.48 83.17L86.37 83.02L86.26 82.87L86.16 82.71L86.07 82.56L85.98 82.4L85.89 82.24L85.81 82.07L85.73 81.91L85.66 81.74L85.59 81.57L85.52 81.39L85.46 81.22L85.41 81.04L85.36 80.87L85.31 80.69L85.27 80.51L85.24 80.33L85.2 80.14L85.18 79.96L85.16 79.78L85.14 79.59L85.13 79.41L85.12 79.22L85.12 79.04L85.13 78.85L85.13 78.66L85.14 78.38L85.15 78.11L85.17 77.84L85.2 77.57L85.23 77.31L85.28 77.04L85.33 76.79L85.38 76.54L85.45 76.29L85.52 76.05L85.6 75.81L85.68 75.58L85.77 75.35L85.87 75.13L85.97 74.91L86.08 74.7L86.19 74.5L86.31 74.3L86.44 74.11L86.57 73.92L86.71 73.75L86.85 73.58L87 73.42L87.15 73.26L87.3 73.11L87.46 72.97L87.63 72.84L87.8 72.72L87.97 72.61L88.15 72.5L88.33 72.41L88.51 72.32L88.7 72.24L88.89 72.17L89.09 72.12L89.29 72.07L89.49 72.03L89.69 72L89.9 71.99L90.11 71.98L90.31 71.99L90.52 72L90.72 72.03L90.92 72.07L91.12 72.12L91.32 72.17L91.51 72.24L91.7 72.32L91.88 72.41L92.06 72.5L92.24 72.61L92.41 72.72L92.58 72.84L92.75 72.97L92.91 73.11L93.06 73.26L93.21 73.42L93.36 73.58L93.5 73.75L93.64 73.92L93.77 74.11L93.9 74.3L94.02 74.5L94.13 74.7L94.24 74.91L94.34 75.13L94.44 75.35L94.53 75.58L94.62 75.81L94.69 76.05L94.76 76.29L94.83 76.54L94.89 76.79L94.94 77.04L94.98 77.31L95.01 77.57L95.04 77.84L95.06 78.11L95.07 78.38L95.08 78.66L95.09 78.85L95.09 79.04L95.09 79.22L95.08 79.41L95.07 79.59L95.05 79.78L95.03 79.96L95.01 80.14L94.97 80.33L94.94 80.51L94.9 80.69L94.85 80.87L94.8 81.04L94.75 81.22L94.69 81.39L94.62 81.57L94.55 81.74L94.48 81.91L94.4 82.07L94.32 82.24L94.23 82.4L94.14 82.56L94.05 82.71L93.95 82.87L93.84 83.02L93.74 83.17L93.62 83.31L93.51 83.46L93.39 83.6L93.26 83.73L93.14 83.86L93 83.99L92.87 84.12L92.73 84.24L92.59 84.36L92.44 84.47L92.29 84.58L92.13 84.68L91.98 84.78L91.81 84.88L91.81 94.98L100.2 94.98L100.2 98.24L0 98.24L0 94.98L9.94 94.98L9.94 91.71L25.01 91.71L25.01 88.45L9.94 88.45L9.94 81.77L25.01 81.77L25.01 78.51L9.94 78.51L9.94 71.83L25.01 71.83L25.01 68.56L9.94 68.56L9.94 61.88L25.01 61.88L25.01 58.16L9.94 58.16L9.94 51.48L25.01 51.48L25.01 48.21L9.94 48.21L9.94 41.53L25.01 41.53L25.01 38.27L9.94 38.27L9.94 31.59L25.01 31.59L25.01 28.33L9.94 28.33L9.94 21.65L25.01 21.65L25.01 18.39L9.94 18.39L9.94 11.71L25.01 11.71L25.01 8.44L9.94 8.44L9.94 1.76L40.24 1.76L40.24 94.98L43.5 94.98Z" id="abiqrdqts"></path></defs><g><g><g><use xlink:href="#abiqrdqts" opacity="1" fill="#448dbc" fill-opacity="1"></use><g><use xlink:href="#abiqrdqts" opacity="1" fill-opacity="0" stroke="#000000" stroke-width="1" stroke-opacity="0"></use></g></g></g></g></svg>