<?xml version="1.0" encoding="utf-8"?>
<!-- Generator: Adobe Illustrator 23.0.1, SVG Export Plug-In . SVG Version: 6.00 Build 0)  -->
<svg version="1.1" id="Layer_1" xmlns="http://www.w3.org/2000/svg" xmlns:xlink="http://www.w3.org/1999/xlink" x="0px" y="0px"
	 viewBox="0 0 100 100" style="enable-background:new 0 0 100 100;" xml:space="preserve">
<style type="text/css">
	.st0{fill:#448DBC;}
</style>
<g>
	<path class="st0" d="M76.9,76.5v-6.7c1.4-0.8,2.2-2.4,2.1-4c0-2.4-1.4-4.3-3.2-4.3c-1.8,0-3.2,1.9-3.2,4.3c-0.1,1.6,0.7,3.2,2.1,4
		v6.7h-7.5V43.8l-6.4-3.2v5.8H64v2.1h-3.2v4.3H64V55h-3.2v4.3H64v2.1h-3.2v4.3H64v2.1h-3.2v4.3H64v2.1h-3.2v2.1h-2.1V33.2l-12.9-3.7
		v3.9h7.5v2.1h-7.5v4.3h7.5v2.1h-7.5v4.3h7.5v2.1h-7.5v4.3h7.5V55h-7.5v4.3h7.5v2.1h-7.5v4.3h7.5v2.1h-7.5v4.3h7.5v2.1h-7.5v2.1
		h-2.1V16.3H24.2v4.3h9.7v2.1h-9.7V27h9.7v2.1h-9.7v4.3h9.7v2.1h-9.7v4.3h9.7v2.1h-9.7v4.3h9.7v2.1h-9.7v4.3h9.7V55h-9.7v4.3h9.7
		v2.1h-9.7v4.3h9.7v2.1h-9.7v4.3h9.7v2.1h-9.7v2.1h-6.4v2.1h64.5v-2.1H76.9z M76.9,76.5"/>
</g>
</svg>
