<?xml version="1.0" encoding="UTF-8" standalone="no"?>
<!DOCTYPE svg PUBLIC "-//W3C//DTD SVG 1.1//EN" "http://www.w3.org/Graphics/SVG/1.1/DTD/svg11.dtd">
<svg version="1.1" xmlns="http://www.w3.org/2000/svg" xmlns:xlink="http://www.w3.org/1999/xlink" preserveAspectRatio="xMidYMid meet" viewBox="0 0 100 100" width="100" height="100"><defs><path d="M53.39 0.46L57.64 4.71L47.07 15.29L47.07 26.78L46.94 26.75L46.8 26.72L46.67 26.69L46.53 26.66L46.39 26.64L46.26 26.61L46.12 26.59L45.97 26.57L45.83 26.55L45.69 26.53L45.55 26.51L45.4 26.5L45.26 26.49L45.11 26.48L44.96 26.46L44.82 26.46L44.67 26.45L44.52 26.44L44.38 26.44L44.23 26.44L44.08 26.44L43.93 26.44L43.79 26.44L43.64 26.44L43.5 26.45L43.36 26.46L43.22 26.46L43.08 26.48L42.94 26.49L42.8 26.5L42.66 26.51L42.52 26.53L42.38 26.55L42.24 26.57L42.1 26.59L41.96 26.61L41.81 26.64L41.67 26.66L41.53 26.69L41.38 26.72L41.24 26.75L41.21 26.76L41.21 26.78L41.09 26.78L41.21 26.76L41.21 15.4L30.63 4.83L34.89 0.57L41.09 6.78L41.09 0L47.18 0L47.18 6.67L53.39 0.46Z" id="g15uGpamGB"></path><path d="M58.22 43.79L58.37 43.08L58.48 42.34L58.54 41.58L58.56 40.8L58.54 40.05L58.48 39.31L58.37 38.57L58.22 37.82L60.98 37.82L60.98 43.79L58.22 43.79Z" id="f2jgmfI1uv"></path><path d="M52.36 71.61L52.29 71.89L52.23 72.17L52.16 72.45L52.11 72.74L52.05 73.03L52 73.32L51.96 73.62L51.91 73.92L51.88 74.22L51.84 74.53L51.81 74.83L51.78 75.14L51.75 75.46L51.73 75.77L51.71 76.09L51.69 76.41L51.68 76.73L51.67 77.05L51.67 77.37L51.67 77.7L51.67 77.8L51.67 77.9L51.67 78L51.68 78.1L51.68 78.2L51.69 78.3L51.7 78.39L51.71 78.49L51.72 78.58L51.73 78.77L51.74 78.87L51.75 78.96L51.76 79.06L51.76 79.16L51.77 79.25L51.77 79.35L51.78 79.45L51.78 79.55L51.78 79.66L47.18 75.06L47.18 81.84L41.09 81.84L41.09 75.06L34.89 81.26L30.63 77.01L41.21 66.44L41.21 54.94L41.35 54.98L41.49 55.01L41.63 55.04L41.77 55.07L41.92 55.09L42.06 55.12L42.21 55.14L42.36 55.16L42.51 55.18L42.66 55.2L42.81 55.22L42.96 55.23L43.11 55.25L43.27 55.26L43.42 55.27L43.58 55.27L43.73 55.28L43.89 55.28L44.04 55.29L44.2 55.29L44.35 55.29L44.5 55.28L44.65 55.28L44.8 55.27L44.95 55.27L45.1 55.26L45.25 55.25L45.4 55.23L45.54 55.22L45.69 55.2L45.84 55.18L45.98 55.16L46.13 55.14L46.28 55.12L46.43 55.09L46.58 55.07L46.73 55.04L46.88 55.01L47.03 54.98L47.18 54.94L47.18 66.44L52.36 71.61Z" id="b1xgTBj5es"></path><path d="M30.06 37.93L30.03 38.06L29.99 38.2L29.97 38.33L29.94 38.47L29.91 38.61L29.89 38.74L29.87 38.88L29.84 39.03L29.83 39.17L29.81 39.31L29.79 39.45L29.78 39.6L29.76 39.74L29.75 39.89L29.74 40.04L29.73 40.18L29.73 40.33L29.72 40.48L29.72 40.62L29.71 40.77L29.71 40.92L29.71 41.07L29.72 41.21L29.72 41.36L29.73 41.5L29.73 41.64L29.74 41.78L29.75 41.92L29.76 42.06L29.78 42.2L29.79 42.34L29.81 42.48L29.83 42.62L29.84 42.76L29.87 42.9L29.89 43.04L29.91 43.19L29.94 43.33L29.97 43.47L29.99 43.62L30.03 43.76L30.06 43.91L18.56 43.91L7.99 54.48L3.74 50.23L10.06 43.91L3.28 43.91L3.28 37.82L9.94 37.82L3.74 31.61L7.99 27.36L18.56 37.93L30.06 37.93Z" id="d4WETERuR"></path><path d="M36.26 28.62L36.02 28.79L35.78 28.96L35.55 29.13L35.32 29.31L35.09 29.5L34.87 29.69L34.65 29.88L34.44 30.08L34.23 30.28L34.02 30.48L33.82 30.69L33.63 30.91L33.43 31.12L33.24 31.35L33.06 31.57L32.87 31.8L32.69 32.03L32.52 32.26L32.35 32.5L32.18 32.74L32.01 32.99L23.85 24.94L8.91 25.06L8.79 18.85L17.64 18.85L12.82 14.14L17.07 9.77L21.9 14.48L21.9 5.63L27.99 5.63L28.1 20.57L36.26 28.62Z" id="b2JslJoe9L"></path><path d="M65.68 7.27L65.02 7.71L64.39 8.2L63.81 8.76L63.28 9.37L62.79 10.04L62.36 10.77L61.99 11.56L61.68 12.4L61.43 13.3L61.24 14.25L61.13 15.26L61.09 16.32L61.09 28.51L56.38 33.1L56.11 32.71L55.82 32.32L55.53 31.95L55.22 31.58L54.91 31.23L54.58 30.89L54.24 30.55L53.89 30.24L53.53 29.93L53.17 29.64L52.79 29.36L52.41 29.1L52.01 28.85L60.17 20.8L60.29 5.86L66.38 5.86L66.38 6.9L65.68 7.27Z" id="d8dRSOI6b"></path><path d="M60.98 59.31L60.75 59.49L60.52 59.68L60.06 60.09L59.83 60.28L59.6 60.46L52.01 52.99L52.85 52.39L53.65 51.73L54.4 51.03L55.09 50.3L55.71 49.53L56.26 48.74L60.98 53.33L60.98 59.31Z" id="b8xMCYPMf"></path><path d="M32.43 49.11L32.6 49.35L32.77 49.58L32.94 49.81L33.12 50.04L33.31 50.26L33.5 50.48L33.69 50.7L33.89 50.91L34.1 51.12L34.31 51.33L34.52 51.53L34.74 51.73L34.96 51.92L35.19 52.11L35.42 52.29L35.66 52.48L35.89 52.65L36.13 52.82L36.38 52.99L28.22 61.03L28.1 75.98L22.01 75.98L22.01 67.13L17.18 71.84L12.93 67.47L17.76 62.76L8.91 62.76L8.91 56.67L23.85 56.78L32.13 48.62L32.28 48.87L32.43 49.11Z" id="c6AYMAsXb"></path><path d="M46.91 30.22L48.18 30.63L49.38 31.18L50.5 31.86L51.52 32.67L52.44 33.59L53.25 34.62L53.94 35.73L54.49 36.93L54.89 38.2L55.14 39.54L55.23 40.92L54.46 42.55L53.68 44.05L52.89 45.42L52.08 46.67L51.26 47.78L50.42 48.75L49.57 49.6L48.71 50.32L47.84 50.91L46.95 51.37L46.04 51.69L45.13 51.89L44.2 51.95L42.81 51.87L41.48 51.62L40.21 51.21L39.01 50.66L37.89 49.98L36.87 49.17L35.95 48.25L35.14 47.22L34.45 46.11L33.9 44.91L33.5 43.64L33.25 42.3L33.16 40.92L33.25 39.54L33.5 38.2L33.9 36.93L34.45 35.73L35.14 34.62L35.95 33.59L36.87 32.67L37.89 31.86L39.01 31.18L40.21 30.63L41.48 30.22L42.81 29.97L44.2 29.89L45.58 29.97L46.91 30.22Z" id="c5D69rs1uh"></path><path d="M76.15 17.13L76.36 17.16L76.59 17.19L76.83 17.26L77.08 17.36L77.34 17.49L77.58 17.67L77.83 17.9L78.05 18.19L78.26 18.54L78.45 18.97L78.51 19.15L78.56 19.34L78.62 19.55L78.67 19.77L78.72 20.02L78.76 20.27L78.8 20.55L78.84 20.84L78.87 21.15L78.89 21.47L78.9 21.82L78.91 22.18L78.91 44.48L72.59 44.48L72.59 22.18L72.59 21.85L72.6 21.52L72.63 21.21L72.66 20.91L72.7 20.62L72.74 20.34L72.8 20.08L72.86 19.82L72.93 19.57L73 19.32L73.08 19.08L73.16 18.85L73.34 18.45L73.55 18.12L73.77 17.85L74 17.64L74.24 17.47L74.48 17.34L74.73 17.25L74.97 17.19L75.2 17.15L75.42 17.13L75.62 17.13L75.8 17.13L75.96 17.13L76.15 17.13Z" id="f1B3dzwXvn"></path><path d="M75.81 7.7L75.87 7.7L75.93 7.7L75.99 7.7L76.05 7.7L76.11 7.7L76.17 7.7L76.23 7.7L76.29 7.7L76.35 7.71L76.41 7.71L76.47 7.71L76.53 7.71L76.59 7.71L76.66 7.72L76.72 7.72L76.78 7.72L76.84 7.73L76.9 7.73L76.96 7.73L77.02 7.74L77.08 7.74L77.14 7.75L77.2 7.76L77.26 7.76L77.32 7.77L77.38 7.78L77.44 7.79L77.5 7.8L77.56 7.81L77.62 7.82L77.68 7.83L77.74 7.84L77.8 7.86L77.86 7.87L77.92 7.88L77.98 7.9L78.04 7.91L78.1 7.93L78.46 8.02L78.82 8.13L79.17 8.24L79.51 8.37L79.85 8.5L80.18 8.65L80.51 8.81L80.83 8.97L81.14 9.15L81.45 9.34L81.75 9.54L82.04 9.74L82.33 9.96L82.61 10.18L82.88 10.41L83.14 10.65L83.4 10.9L83.64 11.16L83.88 11.42L84.11 11.7L84.33 11.97L84.54 12.26L84.74 12.55L84.93 12.86L85.11 13.16L85.28 13.47L85.44 13.79L85.59 14.12L85.73 14.45L85.86 14.78L85.98 15.13L86.09 15.47L86.18 15.82L86.26 16.18L86.33 16.54L86.39 16.9L86.44 17.27L86.47 17.64L86.49 18.01L86.49 18.39L86.49 61.49L86.95 61.78L87.39 62.07L87.83 62.37L88.26 62.68L88.68 63L89.1 63.34L89.5 63.68L89.9 64.03L90.28 64.39L90.66 64.76L91.03 65.14L91.39 65.53L91.74 65.93L92.08 66.33L92.41 66.75L92.73 67.17L93.04 67.6L93.33 68.04L93.62 68.48L93.89 68.94L94.16 69.4L94.41 69.87L94.65 70.34L94.88 70.82L95.09 71.31L95.3 71.8L95.49 72.3L95.67 72.81L95.83 73.32L95.98 73.84L96.12 74.37L96.25 74.9L96.36 75.43L96.45 75.97L96.53 76.52L96.6 77.07L96.66 77.62L96.69 78.18L96.72 78.74L96.72 79.31L96.71 80.06L96.67 80.8L96.61 81.53L96.52 82.25L96.4 82.97L96.27 83.68L96.1 84.38L95.92 85.07L95.71 85.75L95.48 86.42L95.23 87.07L94.96 87.72L94.66 88.36L94.34 88.98L94.01 89.59L93.65 90.19L93.28 90.77L92.88 91.34L92.47 91.9L92.04 92.44L91.59 92.97L91.13 93.48L90.64 93.98L90.14 94.46L89.63 94.92L89.1 95.36L88.55 95.79L87.99 96.2L87.42 96.59L86.83 96.96L86.23 97.31L85.62 97.65L84.99 97.96L84.35 98.25L83.7 98.52L83.04 98.77L82.37 99L81.68 99.2L80.99 99.38L80.29 99.54L80.18 99.57L80.08 99.59L79.98 99.61L79.87 99.64L79.77 99.66L79.67 99.68L79.56 99.7L79.46 99.72L79.36 99.74L79.25 99.76L79.15 99.77L79.04 99.79L78.94 99.81L78.83 99.82L78.73 99.84L78.62 99.85L78.52 99.86L78.41 99.88L78.31 99.89L78.2 99.9L78.1 99.91L77.99 99.92L77.89 99.93L77.78 99.94L77.67 99.95L77.57 99.95L77.46 99.96L77.35 99.97L77.24 99.97L77.14 99.98L77.03 99.98L76.92 99.99L76.81 99.99L76.7 99.99L76.59 99.99L76.48 100L76.37 100L76.26 100L76.15 100L76.03 100L75.19 99.98L74.34 99.93L73.51 99.85L72.69 99.73L71.88 99.59L71.08 99.41L70.3 99.2L69.52 98.97L68.76 98.7L68.02 98.41L67.29 98.08L66.57 97.73L65.87 97.36L65.18 96.96L64.52 96.53L63.87 96.08L63.24 95.61L62.63 95.11L62.04 94.59L61.47 94.05L60.92 93.49L60.39 92.91L59.88 92.3L59.4 91.68L58.94 91.04L58.51 90.38L58.1 89.71L57.71 89.02L57.36 88.31L57.03 87.59L56.72 86.85L56.45 86.1L56.2 85.33L55.99 84.55L55.8 83.76L55.64 82.96L55.52 82.15L55.43 81.33L55.37 80.5L55.34 79.66L55.34 79.31L55.35 79.21L55.35 79.1L55.35 79L55.35 78.9L55.36 78.79L55.36 78.69L55.36 78.59L55.37 78.48L55.38 78.38L55.38 78.28L55.39 78.17L55.4 78.07L55.41 77.97L55.42 77.86L55.43 77.76L55.44 77.66L55.45 77.55L55.46 77.45L55.48 77.34L55.49 77.24L55.5 77.14L55.52 77.03L55.53 76.93L55.54 76.83L55.56 76.72L55.57 76.62L55.59 76.52L55.6 76.41L55.62 76.31L55.64 76.21L55.65 76.1L55.67 76L55.69 75.9L55.7 75.79L55.72 75.69L55.74 75.59L55.75 75.48L55.77 75.38L55.79 75.28L55.8 75.17L55.86 74.91L55.91 74.66L55.98 74.4L56.04 74.15L56.11 73.89L56.18 73.64L56.25 73.39L56.33 73.13L56.41 72.88L56.49 72.64L56.58 72.39L56.66 72.14L56.76 71.9L56.85 71.66L56.95 71.41L57.05 71.17L57.16 70.94L57.26 70.7L57.37 70.46L57.49 70.23L57.6 70L57.72 69.77L57.84 69.54L57.96 69.31L58.09 69.09L58.22 68.87L58.35 68.65L58.49 68.43L58.62 68.21L58.76 68L58.9 67.78L59.05 67.57L59.2 67.37L59.34 67.16L59.5 66.96L59.65 66.76L59.81 66.56L59.96 66.36L60.12 66.17L60.29 65.98L60.39 65.86L60.5 65.74L60.6 65.62L60.7 65.5L60.81 65.38L60.92 65.27L61.02 65.15L61.13 65.04L61.24 64.93L61.35 64.81L61.46 64.7L61.57 64.59L61.68 64.48L61.79 64.37L61.9 64.26L62.01 64.16L62.13 64.05L62.24 63.94L62.36 63.84L62.47 63.74L62.59 63.63L62.71 63.53L62.82 63.43L62.94 63.33L63.06 63.23L63.19 63.13L63.31 63.03L63.43 62.94L63.56 62.84L63.68 62.74L63.81 62.65L63.94 62.56L64.06 62.46L64.19 62.37L64.33 62.28L64.46 62.19L64.59 62.1L64.73 62.01L64.86 61.93L65 61.84L65 18.39L65 18.24L65 18.1L65.01 17.96L65.01 17.81L65.02 17.67L65.03 17.53L65.04 17.39L65.06 17.25L65.07 17.11L65.09 16.97L65.1 16.83L65.12 16.69L65.15 16.56L65.17 16.42L65.19 16.29L65.22 16.16L65.25 16.02L65.28 15.89L65.31 15.76L65.34 15.63L65.38 15.5L65.42 15.38L65.46 15.25L65.5 15.12L65.54 15L65.58 14.87L65.63 14.75L65.68 14.63L65.73 14.5L65.78 14.38L65.83 14.26L65.88 14.14L65.94 14.02L66 13.91L66.06 13.79L66.12 13.67L66.18 13.56L66.24 13.44L66.31 13.33L66.38 13.22L66.52 12.97L66.67 12.73L66.82 12.49L66.98 12.25L67.14 12.02L67.31 11.8L67.49 11.58L67.67 11.36L67.85 11.15L68.04 10.95L68.24 10.75L68.44 10.56L68.65 10.37L68.86 10.19L69.07 10.01L69.29 9.84L69.52 9.67L69.75 9.51L69.98 9.36L70.22 9.21L70.46 9.07L70.7 8.93L70.95 8.81L71.2 8.68L71.46 8.57L71.72 8.46L71.98 8.36L72.25 8.26L72.52 8.18L72.8 8.09L73.07 8.02L73.35 7.95L73.64 7.9L73.92 7.85L74.21 7.8L74.5 7.77L74.79 7.74L75.09 7.72L75.39 7.71L75.69 7.7L75.75 7.7L75.81 7.7ZM75.67 15.52L75.6 15.52L75.53 15.52L75.46 15.52L75.39 15.53L75.32 15.53L75.26 15.54L75.19 15.54L75.12 15.55L75.05 15.55L74.99 15.56L74.92 15.56L74.85 15.57L74.79 15.58L74.72 15.59L74.66 15.6L74.59 15.61L74.53 15.62L74.47 15.63L74.41 15.64L74.34 15.65L74.28 15.67L74.22 15.68L74.16 15.69L74.11 15.71L74.05 15.72L73.99 15.74L73.94 15.75L73.88 15.77L73.83 15.79L73.77 15.81L73.72 15.82L73.67 15.84L73.62 15.86L73.55 15.9L73.48 15.94L73.42 15.98L73.35 16.02L73.29 16.07L73.23 16.11L73.16 16.15L73.1 16.2L73.04 16.24L72.98 16.29L72.93 16.33L72.87 16.38L72.81 16.43L72.76 16.48L72.7 16.53L72.65 16.58L72.6 16.63L72.55 16.68L72.5 16.73L72.45 16.78L72.4 16.84L72.35 16.89L72.3 16.95L72.25 17.01L72.21 17.07L72.16 17.12L72.12 17.18L72.07 17.25L72.03 17.31L71.99 17.37L71.94 17.43L71.9 17.5L71.86 17.57L71.82 17.63L71.78 17.7L71.77 17.74L71.76 17.78L71.75 17.82L71.74 17.85L71.73 17.89L71.71 17.93L71.7 17.97L71.69 18L71.67 18.04L71.66 18.07L71.65 18.11L71.63 18.14L71.62 18.18L71.6 18.21L71.59 18.25L71.57 18.28L71.56 18.32L71.53 18.39L71.51 18.42L71.5 18.45L71.49 18.49L71.47 18.52L71.46 18.56L71.44 18.59L71.43 18.63L71.42 18.67L71.4 18.7L71.39 18.74L71.38 18.77L71.37 18.81L71.35 18.85L71.34 18.89L71.33 18.93L71.32 18.97L71.29 19.04L71.26 19.13L71.24 19.21L71.21 19.29L71.19 19.37L71.16 19.46L71.14 19.54L71.12 19.63L71.1 19.72L71.08 19.8L71.06 19.89L71.04 19.98L71.03 20.07L71.01 20.16L71 20.26L70.98 20.35L70.97 20.44L70.96 20.54L70.95 20.63L70.93 20.72L70.92 20.82L70.92 20.91L70.91 21.01L70.9 21.11L70.89 21.2L70.89 21.3L70.88 21.4L70.88 21.5L70.87 21.59L70.87 21.69L70.87 21.79L70.86 21.89L70.86 21.99L70.86 22.09L70.86 22.18L70.86 67.93L70.78 67.95L70.71 67.97L70.63 68L70.55 68.02L70.47 68.04L70.4 68.07L70.32 68.09L70.25 68.12L70.17 68.15L70.1 68.18L70.03 68.21L69.95 68.24L69.88 68.27L69.81 68.3L69.73 68.34L69.66 68.37L69.59 68.4L69.52 68.44L69.45 68.47L69.38 68.51L69.31 68.54L69.24 68.58L69.17 68.62L69.1 68.65L69.03 68.69L68.96 68.73L68.89 68.77L68.82 68.81L68.75 68.85L68.68 68.88L68.61 68.92L68.54 68.96L68.47 69L68.4 69.04L68.33 69.08L68.26 69.12L68.2 69.16L68.13 69.2L68.06 69.24L68 69.28L67.93 69.33L67.86 69.37L67.8 69.41L67.74 69.46L67.67 69.5L67.61 69.54L67.55 69.59L67.48 69.63L67.42 69.68L67.36 69.73L67.3 69.77L67.24 69.82L67.18 69.87L67.12 69.91L67.07 69.96L67.01 70.01L66.95 70.06L66.9 70.1L66.84 70.15L66.79 70.2L66.73 70.25L66.68 70.3L66.62 70.35L66.57 70.39L66.52 70.44L66.47 70.49L66.41 70.54L66.36 70.59L66.31 70.64L66.26 70.69L66.15 70.82L66.03 70.95L65.92 71.08L65.81 71.21L65.7 71.34L65.59 71.48L65.48 71.61L65.38 71.75L65.27 71.89L65.17 72.03L65.07 72.17L64.98 72.31L64.88 72.46L64.79 72.6L64.7 72.75L64.61 72.89L64.52 73.04L64.44 73.19L64.36 73.34L64.28 73.5L64.2 73.65L64.13 73.81L64.06 73.97L63.99 74.12L63.92 74.29L63.86 74.45L63.79 74.61L63.73 74.78L63.68 74.94L63.62 75.11L63.57 75.28L63.52 75.45L63.48 75.63L63.43 75.8L63.39 75.98L63.37 76.03L63.35 76.08L63.33 76.13L63.32 76.18L63.3 76.23L63.28 76.28L63.27 76.33L63.25 76.39L63.24 76.44L63.22 76.5L63.21 76.55L63.19 76.6L63.18 76.66L63.17 76.71L63.16 76.77L63.15 76.83L63.14 76.88L63.13 76.94L63.12 77L63.11 77.05L63.1 77.11L63.09 77.17L63.09 77.23L63.08 77.28L63.07 77.34L63.07 77.4L63.06 77.46L63.06 77.52L63.06 77.58L63.05 77.64L63.05 77.69L63.05 77.75L63.05 77.81L63.05 77.87L63.05 77.93L63.04 77.96L63.03 77.99L63.02 78.02L63.01 78.05L63 78.08L63 78.11L62.99 78.14L62.98 78.17L62.98 78.2L62.97 78.23L62.97 78.26L62.96 78.29L62.96 78.32L62.96 78.34L62.95 78.37L62.95 78.4L62.95 78.43L62.94 78.46L62.94 78.49L62.94 78.52L62.94 78.55L62.94 78.58L62.94 78.61L62.93 78.64L62.93 78.67L62.93 78.7L62.93 78.73L62.93 78.76L62.93 78.79L62.93 78.82L62.93 78.85L62.93 78.88L62.93 78.91L62.93 78.97L62.95 79.58L62.99 80.19L63.06 80.79L63.15 81.38L63.28 81.97L63.42 82.54L63.6 83.1L63.79 83.65L64.02 84.18L64.26 84.71L64.53 85.22L64.81 85.72L65.12 86.2L65.45 86.67L65.8 87.12L66.17 87.55L66.55 87.97L66.96 88.37L67.38 88.76L67.82 89.12L68.27 89.47L68.74 89.79L69.22 90.1L69.72 90.38L70.23 90.65L70.75 90.89L71.29 91.1L71.83 91.3L72.39 91.47L72.96 91.61L73.53 91.74L74.12 91.83L74.71 91.9L75.31 91.94L75.92 91.95L76.54 91.94L77.15 91.9L77.75 91.83L78.34 91.73L78.92 91.61L79.49 91.46L80.05 91.29L80.6 91.09L81.14 90.87L81.66 90.63L82.17 90.36L82.67 90.07L83.15 89.76L83.62 89.43L84.07 89.09L84.51 88.72L84.93 88.33L85.33 87.93L85.71 87.51L86.08 87.07L86.42 86.62L86.75 86.15L87.05 85.66L87.34 85.17L87.6 84.66L87.84 84.13L88.06 83.6L88.25 83.05L88.42 82.5L88.57 81.93L88.69 81.35L88.78 80.77L88.85 80.17L88.89 79.57L88.91 78.97L88.91 78.94L88.91 78.91L88.91 78.88L88.9 78.85L88.9 78.82L88.9 78.79L88.9 78.76L88.89 78.73L88.89 78.7L88.89 78.67L88.88 78.64L88.88 78.61L88.87 78.58L88.87 78.55L88.86 78.52L88.86 78.49L88.84 78.4L88.84 78.37L88.83 78.34L88.83 78.32L88.82 78.29L88.82 78.26L88.82 78.23L88.81 78.2L88.81 78.17L88.81 78.14L88.8 78.11L88.8 78.08L88.8 78.05L88.8 78.02L88.79 77.99L88.79 77.96L88.79 77.93L88.76 77.56L88.71 77.18L88.65 76.81L88.58 76.43L88.5 76.06L88.4 75.69L88.3 75.32L88.18 74.96L88.05 74.6L87.91 74.24L87.76 73.88L87.59 73.53L87.42 73.19L87.23 72.85L87.03 72.51L86.82 72.19L86.6 71.87L86.36 71.55L86.12 71.25L85.86 70.95L85.59 70.66L85.31 70.39L85.02 70.12L84.72 69.86L84.4 69.61L84.08 69.37L83.74 69.15L83.39 68.93L83.03 68.73L82.66 68.55L82.28 68.37L81.88 68.21L81.48 68.06L81.06 67.93L80.63 67.82L80.63 22.3L80.63 22.08L80.62 21.87L80.6 21.65L80.57 21.44L80.53 21.23L80.49 21.02L80.44 20.81L80.38 20.61L80.31 20.4L80.24 20.2L80.16 19.99L80.06 19.79L79.97 19.59L79.86 19.39L79.75 19.2L79.62 19L79.49 18.8L79.36 18.61L79.21 18.42L79.06 18.23L78.89 18.04L78.72 17.85L78.55 17.66L78.36 17.48L78.17 17.29L77.97 17.11L77.76 16.93L77.54 16.74L77.32 16.57L77.09 16.39L76.84 16.21L76.6 16.04L76.34 15.86L76.08 15.69L75.8 15.52L75.74 15.52L75.67 15.52Z" id="af3wq27gV"></path><path d="M85.25 76.35L85.69 77.36L85.69 78.59L85.47 79.99L85.03 81.55L84.36 83.28L83.47 85.18L82.36 87.24L81.35 87.92L80.19 88.07L79.09 87.79L78.28 87.18L77.95 86.35L78.33 85.4L79.27 84.18L80.02 82.91L80.57 81.59L80.94 80.23L81.11 78.82L81.09 77.36L81.34 76.35L82.13 75.75L83.22 75.55L84.34 75.75L85.25 76.35Z" id="bNTHFvXWz"></path></defs><g><g><path></path><path></path><path></path><path></path><g><use xlink:href="#g15uGpamGB" opacity="1" fill="#448dbc" fill-opacity="1"></use><g><use xlink:href="#g15uGpamGB" opacity="1" fill-opacity="0" stroke="#000000" stroke-width="1" stroke-opacity="0"></use></g></g><g><use xlink:href="#f2jgmfI1uv" opacity="1" fill="#448dbc" fill-opacity="1"></use><g><use xlink:href="#f2jgmfI1uv" opacity="1" fill-opacity="0" stroke="#000000" stroke-width="1" stroke-opacity="0"></use></g></g><g><use xlink:href="#b1xgTBj5es" opacity="1" fill="#448dbc" fill-opacity="1"></use><g><use xlink:href="#b1xgTBj5es" opacity="1" fill-opacity="0" stroke="#000000" stroke-width="1" stroke-opacity="0"></use></g></g><g><use xlink:href="#d4WETERuR" opacity="1" fill="#448dbc" fill-opacity="1"></use><g><use xlink:href="#d4WETERuR" opacity="1" fill-opacity="0" stroke="#000000" stroke-width="1" stroke-opacity="0"></use></g></g><g><use xlink:href="#b2JslJoe9L" opacity="1" fill="#448dbc" fill-opacity="1"></use><g><use xlink:href="#b2JslJoe9L" opacity="1" fill-opacity="0" stroke="#000000" stroke-width="1" stroke-opacity="0"></use></g></g><g><use xlink:href="#d8dRSOI6b" opacity="1" fill="#448dbc" fill-opacity="1"></use><g><use xlink:href="#d8dRSOI6b" opacity="1" fill-opacity="0" stroke="#000000" stroke-width="1" stroke-opacity="0"></use></g></g><g><use xlink:href="#b8xMCYPMf" opacity="1" fill="#448dbc" fill-opacity="1"></use><g><use xlink:href="#b8xMCYPMf" opacity="1" fill-opacity="0" stroke="#000000" stroke-width="1" stroke-opacity="0"></use></g></g><g><use xlink:href="#c6AYMAsXb" opacity="1" fill="#448dbc" fill-opacity="1"></use><g><use xlink:href="#c6AYMAsXb" opacity="1" fill-opacity="0" stroke="#000000" stroke-width="1" stroke-opacity="0"></use></g></g><g><use xlink:href="#c5D69rs1uh" opacity="1" fill="#448dbc" fill-opacity="1"></use><g><use xlink:href="#c5D69rs1uh" opacity="1" fill-opacity="0" stroke="#000000" stroke-width="1" stroke-opacity="0"></use></g></g><g><use xlink:href="#f1B3dzwXvn" opacity="1" fill="#448dbc" fill-opacity="1"></use><g><use xlink:href="#f1B3dzwXvn" opacity="1" fill-opacity="0" stroke="#000000" stroke-width="1" stroke-opacity="0"></use></g></g><g><use xlink:href="#af3wq27gV" opacity="1" fill="#448dbc" fill-opacity="1"></use><g><use xlink:href="#af3wq27gV" opacity="1" fill-opacity="0" stroke="#000000" stroke-width="1" stroke-opacity="0"></use></g></g><g><use xlink:href="#bNTHFvXWz" opacity="1" fill="#448dbc" fill-opacity="1"></use><g><use xlink:href="#bNTHFvXWz" opacity="1" fill-opacity="0" stroke="#000000" stroke-width="1" stroke-opacity="0"></use></g></g></g></g></svg>