<?xml version="1.0" encoding="UTF-8" standalone="no"?>
<!DOCTYPE svg PUBLIC "-//W3C//DTD SVG 1.1//EN" "http://www.w3.org/Graphics/SVG/1.1/DTD/svg11.dtd">
<svg version="1.1" xmlns="http://www.w3.org/2000/svg" xmlns:xlink="http://www.w3.org/1999/xlink" preserveAspectRatio="xMidYMid meet" viewBox="0 0 100 100" width="100" height="100"><defs><path d="M75.42 91.32L75.42 99.38C46.01 99.38 29.68 99.38 26.41 99.38C26.41 94.55 26.41 91.86 26.41 91.32C27.66 91.32 28.9 91.41 30.15 91.32C31.73 91.24 33.31 91.32 34.8 90.91C39.45 89.75 42.77 85.59 42.69 80.78C42.44 63.67 42.19 46.64 41.94 29.53C41.94 29.36 41.94 29.28 41.86 29.03C41.45 29.03 41.11 28.95 40.7 28.95C36.05 28.95 31.48 28.95 26.83 28.95C19.1 28.95 13.04 34.85 12.87 42.57C12.87 44.48 12.87 46.39 12.87 48.38C12.48 48.38 10.48 48.38 6.89 48.38C6.89 46.43 6.89 36.66 6.89 19.07L92.94 19.07C92.94 36.71 92.94 46.51 92.94 48.47C89.35 48.47 87.36 48.47 86.96 48.47C86.96 48.13 86.96 47.8 86.88 47.39C86.88 45.48 86.96 43.57 86.79 41.57C86.21 34.6 80.56 29.12 73.59 28.95C68.6 28.87 63.54 28.95 58.55 28.95C58.39 28.95 58.14 28.95 57.81 29.03C57.81 29.16 57.81 29.8 57.81 30.94C57.81 61.19 57.81 78 57.81 81.36C57.81 86.26 62.38 90.99 67.44 91.32C69.68 91.49 71.93 91.41 74.09 91.41C74.58 91.32 75 91.32 75.42 91.32" id="c30r4woBz"></path><path d="M75.42 91.32L75.42 99.38C46.01 99.38 29.68 99.38 26.41 99.38C26.41 94.55 26.41 91.86 26.41 91.32C27.66 91.32 28.9 91.41 30.15 91.32C31.73 91.24 33.31 91.32 34.8 90.91C39.45 89.75 42.77 85.59 42.69 80.78C42.44 63.67 42.19 46.64 41.94 29.53C41.94 29.36 41.94 29.28 41.86 29.03C41.45 29.03 41.11 28.95 40.7 28.95C36.05 28.95 31.48 28.95 26.83 28.95C19.1 28.95 13.04 34.85 12.87 42.57C12.87 44.48 12.87 46.39 12.87 48.38C12.48 48.38 10.48 48.38 6.89 48.38C6.89 46.43 6.89 36.66 6.89 19.07L92.94 19.07C92.94 36.71 92.94 46.51 92.94 48.47C89.35 48.47 87.36 48.47 86.96 48.47C86.96 48.13 86.96 47.8 86.88 47.39C86.88 45.48 86.96 43.57 86.79 41.57C86.21 34.6 80.56 29.12 73.59 28.95C68.6 28.87 63.54 28.95 58.55 28.95C58.39 28.95 58.14 28.95 57.81 29.03C57.81 29.16 57.81 29.8 57.81 30.94C57.81 61.19 57.81 78 57.81 81.36C57.81 86.26 62.38 90.99 67.44 91.32C69.68 91.49 71.93 91.41 74.09 91.41C74.58 91.32 75 91.32 75.42 91.32" id="a20dF9UNOQ"></path><path d="M6.89 -0.62C8.8 -0.54 10.71 -0.62 12.54 -0.2C14.29 0.13 15.28 1.54 15.53 3.45C22.62 3.45 79.29 3.45 86.38 3.45C87.29 0.29 89.37 -0.95 92.61 -0.45C92.77 -0.45 93.11 -0.04 93.11 0.21C93.11 3.95 93.11 7.69 93.11 11.42C87.36 11.42 58.62 11.42 6.89 11.42C6.89 11.41 6.89 11.39 6.89 11.34C6.89 3.9 6.89 -0.09 6.89 -0.62Z" id="anfLxHbJK"></path><path d="M6.89 -0.62C8.8 -0.54 10.71 -0.62 12.54 -0.2C14.29 0.13 15.28 1.54 15.53 3.45C22.62 3.45 79.29 3.45 86.38 3.45C87.29 0.29 89.37 -0.95 92.61 -0.45C92.77 -0.45 93.11 -0.04 93.11 0.21C93.11 3.95 93.11 7.69 93.11 11.42C87.36 11.42 58.62 11.42 6.89 11.42C6.89 11.41 6.89 11.39 6.89 11.34C6.89 3.9 6.89 -0.09 6.89 -0.62Z" id="b2HBAZUYT0"></path></defs><g><g><g><use xlink:href="#c30r4woBz" opacity="1" fill="#66a1c8" fill-opacity="1"></use><g><use xlink:href="#c30r4woBz" opacity="1" fill-opacity="0" stroke="#000000" stroke-width="1" stroke-opacity="0"></use></g></g><g><use xlink:href="#a20dF9UNOQ" opacity="1" fill="#000000" fill-opacity="0"></use><g><use xlink:href="#a20dF9UNOQ" opacity="1" fill-opacity="0" stroke="#000000" stroke-width="1" stroke-opacity="0"></use></g></g><g><use xlink:href="#anfLxHbJK" opacity="1" fill="#66a1c8" fill-opacity="1"></use><g><use xlink:href="#anfLxHbJK" opacity="1" fill-opacity="0" stroke="#000000" stroke-width="1" stroke-opacity="0"></use></g></g><g><use xlink:href="#b2HBAZUYT0" opacity="1" fill="#000000" fill-opacity="0"></use><g><use xlink:href="#b2HBAZUYT0" opacity="1" fill-opacity="0" stroke="#000000" stroke-width="1" stroke-opacity="0"></use></g></g></g></g></svg>