<?xml version="1.0" encoding="utf-8"?>
<!-- Generator: Adobe Illustrator 22.0.1, SVG Export Plug-In . SVG Version: 6.00 Build 0)  -->
<svg version="1.1" id="Слой_1" xmlns="http://www.w3.org/2000/svg" xmlns:xlink="http://www.w3.org/1999/xlink" x="0px" y="0px"
	 viewBox="0 0 103.8 120.4" style="enable-background:new 0 0 103.8 120.4;" xml:space="preserve">
<style type="text/css">
	.st0{clip-path:url(#SVGID_2_);fill:#66A1C8;}
</style>
<g>
	<defs>
		<rect id="SVGID_1_" y="0" width="103.8" height="120.4"/>
	</defs>
	<clipPath id="SVGID_2_">
		<use xlink:href="#SVGID_1_"  style="overflow:visible;"/>
	</clipPath>
	<path class="st0" d="M82.5,110.7v9.7h-59v-9.7c1.5,0,3,0.1,4.5,0c1.9-0.1,3.8,0,5.6-0.5c5.6-1.4,9.6-6.4,9.5-12.2
		c-0.3-20.6-0.6-41.1-0.9-61.7c0-0.2,0-0.3-0.1-0.6c-0.5,0-0.9-0.1-1.4-0.1c-5.6,0-11.1,0-16.7,0c-9.3,0-16.6,7.1-16.8,16.4
		c0,2.3,0,4.6,0,7H0V23.7h103.6v35.4h-7.2c0-0.4,0-0.8-0.1-1.3c0-2.3,0.1-4.6-0.1-7c-0.7-8.4-7.5-15-15.9-15.2c-6-0.1-12.1,0-18.1,0
		c-0.2,0-0.5,0-0.9,0.1V38l0,60.7c0,5.9,5.5,11.6,11.6,12c2.7,0.2,5.4,0.1,8,0.1C81.5,110.7,82,110.7,82.5,110.7"/>
	<path class="st0" d="M0,14.4V0c2.3,0.1,4.6,0,6.8,0.5c2.1,0.4,3.3,2.1,3.6,4.4h85.3c1.1-3.8,3.6-5.3,7.5-4.7c0.2,0,0.6,0.5,0.6,0.8
		c0,4.5,0,9,0,13.5H0z"/>
</g>
</svg>
