<?xml version="1.0" encoding="UTF-8"?>
<!DOCTYPE svg PUBLIC "-//W3C//DTD SVG 1.1//EN" "http://www.w3.org/Graphics/SVG/1.1/DTD/svg11.dtd">
<!-- Creator: CorelDRAW 2019 (64-Bit Оценочная версия) -->
<svg xmlns="http://www.w3.org/2000/svg" xml:space="preserve" width="1000px" height="1000px" version="1.1" style="shape-rendering:geometricPrecision; text-rendering:geometricPrecision; image-rendering:optimizeQuality; fill-rule:evenodd; clip-rule:evenodd"
viewBox="0 0 1000 1000"
 xmlns:xlink="http://www.w3.org/1999/xlink">
 <defs>
  <style type="text/css">
   <![CDATA[
    .fil0 {fill:#66A1C8}
   ]]>
  </style>
 </defs>
 <g id="Слой_x0020_1">
  <metadata id="CorelCorpID_0Corel-Layer"/>
  <g id="eye.svg">
   <g>
    <g>
     <path class="fil0" d="M501.5 185.58c-188.04,0 -359.8,103.05 -486.36,271.2 -10.85,14.47 -10.85,32.55 0,47.01 126.56,168.15 298.32,271.21 486.36,271.21 188.04,0 359.8,-103.06 486.36,-271.21 10.85,-14.46 10.85,-32.54 0,-47.01 -126.56,-168.15 -298.32,-271.2 -486.36,-271.2l0 0zm12.66 502.63c-124.76,7.24 -229.63,-95.82 -220.58,-220.58 7.23,-103.06 90.4,-188.03 193.46,-193.46 124.75,-7.23 229.62,95.83 220.58,220.58 -5.43,103.06 -88.6,186.23 -193.46,193.46l0 0zm-5.43 -95.82c-66.9,3.61 -122.94,-50.63 -119.33,-119.33 3.62,-56.05 48.82,-101.25 104.87,-104.87 66.9,-3.62 122.95,50.62 119.33,119.33 -3.62,56.05 -48.82,101.25 -104.87,104.87l0 0zm0 0z"/>
    </g>
   </g>
  </g>
 </g>
</svg>
