<?xml version="1.0" encoding="UTF-8"?>
<!DOCTYPE svg PUBLIC "-//W3C//DTD SVG 1.1//EN" "http://www.w3.org/Graphics/SVG/1.1/DTD/svg11.dtd">
<!-- Creator: CorelDRAW 2019 (64-Bit Оценочная версия) -->
<svg xmlns="http://www.w3.org/2000/svg" xml:space="preserve" width="1000px" height="1000px" version="1.1" style="shape-rendering:geometricPrecision; text-rendering:geometricPrecision; image-rendering:optimizeQuality; fill-rule:evenodd; clip-rule:evenodd"
viewBox="0 0 1000 1000"
 xmlns:xlink="http://www.w3.org/1999/xlink">
 <defs>
  <style type="text/css">
   <![CDATA[
    .fil0 {fill:white}
   ]]>
  </style>
 </defs>
 <g id="Слой_x0020_1">
  <metadata id="CorelCorpID_0Corel-Layer"/>
  <g id="eye_w.svg">
   <g>
    <g>
     <path class="fil0" d="M499.5 214.26c-182.71,0 -349.62,100.14 -472.59,263.53 -10.55,14.06 -10.55,31.63 0,45.68 122.98,163.39 289.88,263.53 472.59,263.53 182.71,0 349.62,-100.14 472.59,-263.53 10.55,-14.05 10.55,-31.62 0,-45.68 -122.97,-163.39 -289.88,-263.53 -472.59,-263.53l0 0zm12.3 488.41c-121.22,7.03 -223.12,-93.11 -214.34,-214.33 7.03,-100.14 87.84,-182.72 187.99,-187.99 121.22,-7.03 223.12,93.12 214.33,214.34 -5.27,100.14 -86.08,180.95 -187.98,187.98l0 0zm-5.27 -93.11c-65.01,3.51 -119.47,-49.19 -115.95,-115.96 3.51,-54.46 47.43,-98.38 101.89,-101.89 65.01,-3.52 119.47,49.19 115.96,115.95 -3.52,54.46 -47.44,98.38 -101.9,101.9l0 0zm0 0z"/>
    </g>
   </g>
  </g>
 </g>
</svg>
