<?xml version="1.0" encoding="utf-8"?>
<!-- Generator: Adobe Illustrator 23.0.1, SVG Export Plug-In . SVG Version: 6.00 Build 0)  -->
<svg version="1.1" id="Layer_1" xmlns="http://www.w3.org/2000/svg" xmlns:xlink="http://www.w3.org/1999/xlink" x="0px" y="0px"
	 viewBox="0 0 100 100" style="enable-background:new 0 0 100 100;" xml:space="preserve">
<style type="text/css">
	.st0{fill:#FFFFFF;}
</style>
<g>
	<g>
		<path class="st0" d="M50,33.7c-10.4,0-19.9,5.7-26.9,15c-0.6,0.8-0.6,1.8,0,2.6c7,9.3,16.5,15,26.9,15c10.4,0,19.9-5.7,26.9-15
			c0.6-0.8,0.6-1.8,0-2.6C69.9,39.4,60.4,33.7,50,33.7L50,33.7z M50.7,61.5c-6.9,0.4-12.7-5.3-12.2-12.2c0.4-5.7,5-10.4,10.7-10.7
			c6.9-0.4,12.7,5.3,12.2,12.2C61.1,56.5,56.5,61.1,50.7,61.5L50.7,61.5z M50.4,56.2c-3.7,0.2-6.8-2.8-6.6-6.6
			c0.2-3.1,2.7-5.6,5.8-5.8c3.7-0.2,6.8,2.8,6.6,6.6C56,53.5,53.5,56,50.4,56.2L50.4,56.2z M50.4,56.2"/>
	</g>
</g>
</svg>
