<?xml version="1.0" encoding="UTF-8" standalone="no"?>
<!DOCTYPE svg PUBLIC "-//W3C//DTD SVG 1.1//EN" "http://www.w3.org/Graphics/SVG/1.1/DTD/svg11.dtd">
<svg version="1.1" xmlns="http://www.w3.org/2000/svg" xmlns:xlink="http://www.w3.org/1999/xlink" preserveAspectRatio="xMidYMid meet" viewBox="0 0 100 100" width="100" height="100"><defs><path d="M99.55 77.12C99.21 76.53 96.45 71.8 96.1 71.2C91.99 63.15 83.94 59.86 74.24 62C67.17 63.64 60.43 60.85 57.15 58.05C68.82 58.71 80.65 60.68 91.83 53.95C88.05 47.86 84.76 42.27 81.47 36.85C80.16 34.71 79.01 34.06 76.38 34.71C70.13 36.03 66.68 35.21 63.23 32.08C70.46 32.58 77.53 32.9 84.27 29.12C79.34 20.58 74.57 12.36 69.47 3.65C64.38 12.52 59.61 20.74 54.68 29.12C56.98 30.11 58.62 30.93 60.6 31.75C56.16 39.32 51.72 46.55 47.28 54.11C49.75 55.42 51.72 56.41 54.02 57.56C49.91 63.81 45.8 69.73 41.86 75.64C46.95 79.1 52.54 80.57 62.41 81.4C63.72 81.56 65.69 82.22 66.35 83.2C68.32 87.15 66.02 92.08 62.08 94.05C60.93 94.55 59.78 95.2 58.62 95.7C58.79 95.86 58.79 96.19 58.95 96.35C61.24 96.35 79.52 96.35 81.8 96.35C75.39 91.75 74.24 88.46 76.05 82.05C82.13 80.74 93.47 78.44 99.55 77.12Z" id="b4CMgyiqw"></path><path d="M22.3 71.7C16.38 75.97 9.8 73.51 8 66.27C7.5 64.47 6.02 62.49 4.54 61.18C-0.39 57.4 -0.72 52.47 2.74 47.04C4.38 44.41 3.89 40.47 4.54 37.01C5.04 34.06 5.53 30.93 6.19 27.97C6.68 26.17 7.34 24.36 8 22.55C8.49 21.07 8.82 19.1 9.97 18.11C14.41 14.49 18.85 10.38 23.94 7.92C31.67 4.14 40.05 9.89 41.36 18.6C41.53 20.25 42.84 22.06 44.16 23.04C47.94 25.67 49.26 28.96 48.6 33.56C48.27 35.37 49.09 37.51 49.42 39.48C49.91 39.48 50.57 39.64 51.06 39.64C49.42 42.44 47.78 45.23 46.13 48.03C42.19 54.44 42.19 54.44 48.1 59.53C43.01 64.79 41.36 72.85 33.8 76.63C33.8 83.7 35.12 90.6 42.84 96.03C34.3 96.03 26.9 96.03 18.68 96.03C25.26 88.46 25.58 79.75 24.76 70.05C23.45 70.88 22.79 71.37 22.3 71.7Z" id="j4tvZhHn0"></path></defs><g><g><g><use xlink:href="#b4CMgyiqw" opacity="1" fill="#66a1c8" fill-opacity="1"></use><g><use xlink:href="#b4CMgyiqw" opacity="1" fill-opacity="0" stroke="#000000" stroke-width="1" stroke-opacity="0"></use></g></g><g><use xlink:href="#j4tvZhHn0" opacity="1" fill="#66a1c8" fill-opacity="1"></use><g><use xlink:href="#j4tvZhHn0" opacity="1" fill-opacity="0" stroke="#000000" stroke-width="1" stroke-opacity="0"></use></g></g></g></g></svg>