<?xml version="1.0" encoding="utf-8"?>
<!-- Generator: Adobe Illustrator 23.0.1, SVG Export Plug-In . SVG Version: 6.00 Build 0)  -->
<svg version="1.1" id="Layer_1" xmlns="http://www.w3.org/2000/svg" xmlns:xlink="http://www.w3.org/1999/xlink" x="0px" y="0px"
	 viewBox="0 0 100 100" style="enable-background:new 0 0 100 100;" xml:space="preserve">
<style type="text/css">
	.st0{fill:#66A1C8;}
</style>
<path class="st0" d="M69.6,69.5c3.7-0.8,10.6-2.2,14.3-3l-2.1-3.6c-2.5-4.9-7.4-6.9-13.3-5.6c-4.3,1-8.4-0.7-10.4-2.4
	c7.1,0.4,14.3,1.6,21.1-2.5c-2.3-3.7-4.3-7.1-6.3-10.4c-0.8-1.3-1.5-1.7-3.1-1.3c-3.8,0.8-5.9,0.3-8-1.6c4.4,0.3,8.7,0.5,12.8-1.8
	c-3-5.2-5.9-10.2-9-15.5c-3.1,5.4-6,10.4-9,15.5c1.4,0.6,2.4,1.1,3.6,1.6c-2.7,4.6-5.4,9-8.1,13.6c1.5,0.8,2.7,1.4,4.1,2.1
	c-2.5,3.8-5,7.4-7.4,11c3.1,2.1,6.5,3,12.5,3.5c0.8,0.1,2,0.5,2.4,1.1c1.2,2.4-0.2,5.4-2.6,6.6c-0.7,0.3-1.4,0.7-2.1,1
	c0.1,0.1,0.1,0.3,0.2,0.4h13.9C69.2,75.4,68.5,73.4,69.6,69.5z"/>
<path class="st0" d="M38.4,62.2c-0.8,0.5-1.2,0.8-1.5,1c-3.6,2.6-7.6,1.1-8.7-3.3c-0.3-1.1-1.2-2.3-2.1-3.1c-3-2.3-3.2-5.3-1.1-8.6
	c1-1.6,0.7-4,1.1-6.1c0.3-1.8,0.6-3.7,1-5.5c0.3-1.1,0.7-2.2,1.1-3.3c0.3-0.9,0.5-2.1,1.2-2.7c2.7-2.2,5.4-4.7,8.5-6.2
	c4.7-2.3,9.8,1.2,10.6,6.5c0.1,1,0.9,2.1,1.7,2.7c2.3,1.6,3.1,3.6,2.7,6.4c-0.2,1.1,0.3,2.4,0.5,3.6c0.3,0,0.7,0.1,1,0.1
	c-1,1.7-2,3.4-3,5.1c-2.4,3.9-2.4,3.9,1.2,7c-3.1,3.2-4.1,8.1-8.7,10.4c0,4.3,0.8,8.5,5.5,11.8c-5.2,0-9.7,0-14.7,0
	C38.7,73.4,38.9,68.1,38.4,62.2z"/>
</svg>
