<?xml version="1.0" encoding="utf-8"?>
<!-- Generator: Adobe Illustrator 22.0.1, SVG Export Plug-In . SVG Version: 6.00 Build 0)  -->
<svg version="1.1" id="Слой_1" xmlns="http://www.w3.org/2000/svg" xmlns:xlink="http://www.w3.org/1999/xlink" x="0px" y="0px"
	 viewBox="0 0 183.8 255.2" style="enable-background:new 0 0 183.8 255.2;" xml:space="preserve">
<style type="text/css">
	.st0{clip-path:url(#SVGID_2_);fill:#66A1C8;}
</style>
<g>
	<defs>
		<rect id="SVGID_1_" width="183.8" height="255.2"/>
	</defs>
	<clipPath id="SVGID_2_">
		<use xlink:href="#SVGID_1_"  style="overflow:visible;"/>
	</clipPath>
	<path class="st0" d="M183.1,79.5c-0.8-6.7-2.5-13.3-5-19.5c-1.3-3.1-2.4-6.4-4.8-8.9c-4.4-4.6-15.9-6.1-22.4-2.8
		c-10.1,5.1-12,19.7-4.9,26.2c5.1,4.6,11.8,4.2,15-0.9c2.5-4,0.1-9.4-4.5-9.8c-1.9-0.1-3.7-0.1-5.6,0.3c-1.9,0.4-2.4-0.4-2.3-2.2
		c0.3-3,3.7-6.7,6.7-7.4c3.5-0.8,6.7,0.3,10,1.2c0.1,0.3,0.2,0.6,0.4,0.8c5.5,2.9,7.5,7.7,6.5,13.4c-0.9,5.2-3.6,9.3-9.1,11.3
		c-1.7,0.6-3.7,0.5-5.3,2.2c5.9,3.9,7.5,9.7,7.4,16.2c-0.3,0.8-1.2,1.3-0.5,2.4c0.5,0.7,0.3,1.7-0.4,2.1c-0.9,0.4-1.2-0.5-1.7-1.2
		c-3.2-4-5.8-8.4-9.4-12.1c-4.1-4.4-8.9-7.8-14.2-11.4c0,3.7,1.3,6.7,1.5,9.9c0.4,9.4-1.6,18.2-5.9,26.4
		c-4.3,8.2-10.5,14.5-18.5,19.3c-7.5,4.5-15.8,5.8-24.2,7c-1.4-0.8-3-0.9-4.5-1c-9.7-1-18.6-4.2-26.4-10.1c-3.6-2.7-6.7-5.8-9.1-9.4
		c-7.9-12-11.4-25.1-8.1-39.5c2.6-11.3,8.4-20.9,17.3-28.1c5.6-4.6,12.8-7,19.7-9.2c1,0.7,2.2,0.4,3.1,0.2c4.5-1.4,9.2-1.2,13.7-0.9
		c3.6,0.3,7.5,0.4,10.6,2c5.9,2.9,11.6,6.4,16.6,10.9c1.9,1.7,3.2,4.1,5.6,5.4c1.2,0.7,1.6,0.9,1.9-0.6c1.2-5.2,4.2-9.1,8.5-12.1
		c1.3-0.9,2.6-1.9,3.4-3.4c-0.4-0.2-0.6-0.3-0.9-0.4c-0.3-0.1-0.6-0.1-0.9,0c-7.4,2.2-14.9,1.5-21.9-0.8
		c-6.5-2.1-12.3-5.7-16.9-11.5c-5.9-7.4-8.4-16-10.5-24.9c-0.2-0.7-0.4-1.7,0.4-2.1c0.7-0.4,1.5-0.1,2.2,0.3c5.1,3,10,6.1,11.9,12.9
		c3.4-7.3,7.8-12.2,15.8-12.5c-0.9-1.7-2.2-2.2-3.6-2.7c-6-2.4-12.4-2.9-18.8-3.5c-6.5-0.7-13.1-1.1-19.7-0.3
		C62.1,3,43,10.5,28.6,24.2C10.6,41.2,1.3,66.5,0.1,90.8c-0.4,7.3,1.3,14.4,2.4,21.5c0.2,1.2,0.7,2.5,1.8,3.7
		c0.8-1.3,0.6-3.7,2.9-2.2c4.5,3,8.5,6.3,10.4,11.6c0.2,0.6,0.2,1.5,1.2,1.4c0.7,0,1.2-0.5,1.5-1.2c1.4-2.8,3.8-4.4,6.5-5.7
		c5.3-2.6,12.4-1.6,16.6,2.8c3.3,3.4,5.2,7.4,2.7,13.4c-0.2,0.3-0.4,0.5-0.6,0.8c-0.4,0.1-0.5,0.3-0.5,0.7c-0.8,0.3-1.1,1-1.3,1.8
		c-0.2,0-0.3,0-0.4,0.1c-4.3,2.1-4.5,2.1-4.3-2c0.1-3-1-4.9-3.7-5.9c-3.6-1.3-6.4-0.6-8.3,2.3c-2.4,3.6-2.5,7.6-1,11.4
		c2.2,5.7,7.4,8.6,12.7,10.3c5.9,1.8,12.1,1.9,18.4,0.6c6.1-1.2,7.3-7.1,4.4-11.9c-0.1-5-4.7-7.7-6.7-12.4c5.2,1.7,8.9,4.5,12,7.9
		c3.1,3.4,5.3,7.6,5.3,12.3c0,2.9-0.2,4.4,3.4,5.5c6.6,2.1,11.3,7.1,14.5,13.2c-0.1,0.7,0.2,1.3,0.6,1.9c2.6,4.4,3.8,9.2,4.1,14.2
		c0.3,5.7,0.4,11.3-1.9,17c3.7-1.7,6.3-4.5,10.4-4.5c7.2,0.1,7.3-0.1,11,2.4c-3.9,0-5.4,3.2-8.4,4.4c-1.9,0.7-2.4,3.2-3.5,4.9
		c-5.9,9.4-8.1,19.8-9,30.6c-0.3,3.7-0.3,7.4-1.7,10.9c-0.1-1.7-0.3-3.3-0.4-5c-0.3-20.5-1.6-41-5.1-61.2
		c-1.7-9.6-5.3-17.9-15.3-21.8c-6.7-2.6-13-2.3-18.8,2.1c-3,0.9-3.8,3.7-5.2,6c-2.5,4.1-2.2,10.7,0.4,14c1.2,4,6.9,7.4,10.9,6.7
		c5.2-1,8.1-6.7,5.4-10.8c-0.3-2.3-1.7-3-3.8-2.9c-0.4-0.1-0.8-0.3-1.2-0.4c-0.7-0.7-1.5-1-2.2,0c-0.4,0.2-0.9,0.3-1.3,0.5
		c-3,0.1-3.6-0.6-2.6-2.9c1.9-4.4,8-7.9,12.7-6c2.1,0.8,3.5,2.9,5.9,2.9c2.8,3.5,5.5,6.9,5.2,11.7c-0.8,0.9-1.1,2-1.6,3
		c-1.5,3.2-3.2,6.2-6.6,8.1c-3.1,1.7-6.5,1.2-9.8,2.6c3.2,2.8,5.7,5.8,5.9,10.2c0.2,4.1-1,7.8-1.6,12.3c-1.4-2.2-2.4-3.7-3.3-5.1
		c-3.1-7.4-7.7-13.7-13.5-19c-5.7-5.2-9.4-11.1-9.1-19.1c0.1-3.1,2-5.4,2.6-8.3c1.9-2,3.9-3.9,5.8-5.9l0,0c2.5,0,3.4-2.5,5.9-2.9
		c-1.8-1.4-3.2-0.6-4.6-0.4c-4.4-0.8-8.8-1.6-13.2-2.3c-1.7-1.6-3.9-2-5.9-2.9c-5.2-2.5-9.3-6.2-12.7-10.7c-0.5-0.7-0.5-1.9-1.8-0.9
		c-0.8,0.6-1.8,1.1-0.9,2.5c1.4,2.2,2.4,4.7,3.5,7c9.8,19.8,20.5,39.1,34.2,56.8c6.9,9,14.3,17.6,21.9,26
		c5.4,5.9,11.7,10.9,16.8,17.1c0.5,0.7,1.1,1.4,1.9,1.7c2.9,1.3,9.9-6.5,11.7-8.4c4.1-4.3,7.3-9.2,10.9-13.9c6-7.9,12.8-15,19-22.7
		c20.5-25.3,38.7-55.5,47.6-87C183.1,109.1,184.9,94,183.1,79.5 M53.6,168.9c0,0.1,0,0.2,0,0.3C53.6,169.1,53.6,169,53.6,168.9
		 M147.8,91.6c0-0.1-0.1-0.3-0.1-0.5C147.7,91.3,147.7,91.5,147.8,91.6 M147.7,91.1c-0.4,0-0.7-0.1-0.9-0.3
		C147,91,147.3,91.1,147.7,91.1 M146.5,90c-0.1,0-0.1,0-0.2,0C146.4,89.9,146.5,89.9,146.5,90 M145.9,89.8c-0.1,0-0.2-0.1-0.2-0.2
		C145.7,89.7,145.8,89.8,145.9,89.8"/>
	<path class="st0" d="M118.7,20.9c-3.1,3.8-2.9,10.9,0.7,14.9c4,4.4,9.2,6,14.8,6.8c4.5,0.7,8.8,0.8,13.1-1.7c2.9-1.7,3.5-3.7,3-6.5
		c-0.8-5.3-3.5-9.6-7.2-13.4c-0.4-0.4-1.6-0.6-1.1-1.5c0.5-0.8,1.4-0.5,2.1-0.1c0.7,0.4,1.5,1.3,2.2,0.2c0.7-1.1-0.4-1.8-1.1-2.4
		c-2.5-2.5-6.1-3.5-8.7-5.8c-0.6-0.5-1.7-0.5-2.6,0c0.4,1.1,0.6,2.3,1.1,3.3c2.3,4.7,1,8.6-2.2,12.3c-0.7,0.8-1.2,1.8-2.3,1.5
		c-1.3-0.3-0.7-1.6-0.8-2.5c-0.4-3.1-2-5.2-4.8-6.4C122.6,18.6,120.1,19.2,118.7,20.9"/>
</g>
</svg>
