<?xml version="1.0" encoding="utf-8"?>
<!-- Generator: Adobe Illustrator 23.0.2, SVG Export Plug-In . SVG Version: 6.00 Build 0)  -->
<svg version="1.1" id="Layer_1" xmlns="http://www.w3.org/2000/svg" xmlns:xlink="http://www.w3.org/1999/xlink" x="0px" y="0px"
	 viewBox="0 0 100 100" style="enable-background:new 0 0 100 100;" xml:space="preserve">
<style type="text/css">
	.st0{fill:#FFFFFF;}
</style>
<g>
	<path class="st0" d="M44.9,23.8l9,0c0.3,0,0.6,0,0.9,0c1,0,1.9,0,2.9,0c1.3,0,2.3-0.7,2.7-1.9c0.4-1.1,0.1-2.1-0.7-2.9l-0.4-0.4
		H43.1L42.7,19c-1,1.1-1,2.2-0.7,2.9C42.3,22.7,43,23.8,44.9,23.8z"/>
	<path class="st0" d="M57.4,78.4H44.7c-1.3,0-2.3,0.7-2.7,1.9c-0.4,1.1,0,2.3,0.9,3.1l0.4,0.3h15.8l0.4-0.4c1.2-1.2,1.1-2.3,0.9-3
		C60.1,79.4,59.3,78.4,57.4,78.4z"/>
	<path class="st0" d="M46.4,36.3c0.3-0.2,0.7-0.5,1-0.8l0.9-0.7v32.7c-0.6-0.5-1.2-1-1.9-1.5c-1.3-1-3-0.8-4,0.4
		c-1,1.2-0.7,2.9,0.5,3.9c2.1,1.7,4.3,3.4,6.4,5.1c0.6,0.5,1.2,0.7,1.8,0.7c0.6,0,1.2-0.2,1.8-0.7c2.2-1.7,4.4-3.5,6.5-5.2
		c1.2-1,1.4-2.7,0.5-3.9c-1-1.3-2.7-1.5-4-0.5c-0.4,0.3-0.7,0.6-1.1,0.9l-0.8,0.7V34.7c0.6,0.5,1.2,1,1.8,1.4
		c0.8,0.6,1.9,0.8,2.8,0.5c0.9-0.3,1.5-1.1,1.8-2c0.2-0.6,0.2-1.9-1.1-3L59,31.5c-2-1.6-4-3.2-6-4.8c-1.2-0.9-2.5-0.9-3.7,0
		c-2.1,1.7-4.3,3.4-6.4,5.1c-1.3,1-1.5,2.7-0.5,3.9C43.4,37,45.1,37.2,46.4,36.3z"/>
</g>
</svg>
