<?xml version="1.0" encoding="utf-8"?>
<!-- Generator: Adobe Illustrator 22.0.1, SVG Export Plug-In . SVG Version: 6.00 Build 0)  -->
<svg version="1.1" id="Слой_1" xmlns="http://www.w3.org/2000/svg" xmlns:xlink="http://www.w3.org/1999/xlink" x="0px" y="0px"
	 viewBox="0 0 35.4 35.4" style="enable-background:new 0 0 35.4 35.4;" xml:space="preserve">
<style type="text/css">
	.st0{clip-path:url(#SVGID_2_);fill:#66A1C8;}
	.st1{font-family:'Aquino-Demo';fill:#66A1C8;}
	.st2{font-size:7.2029px;fill:#66A1C8;}
</style>
<g>
	<defs>
		<rect id="SVGID_1_" y="0" width="35.4" height="35.4"/>
	</defs>
	<clipPath id="SVGID_2_">
		<use xlink:href="#SVGID_1_"  style="overflow:visible;"/>
	</clipPath>
	<path class="st0" d="M17.7,35.4c-1.8,0-3.5-0.2-5.2-0.8c-1.3-0.5-2.6-0.5-3.9-0.6c-1.8-0.1-3.6-0.3-5.4-0.4
		c-0.9-0.1-1.2-0.4-1.3-1.3c-0.2-2.4-0.3-4.7-0.5-7.1c0-0.5-0.2-1-0.3-1.5C-2.8,13.1,4.2,1.7,15.4,0.2c9.9-1.3,19,6,19.9,15.9
		C36.3,26.5,28.2,35.4,17.7,35.4 M2.7,17.7c0,8.3,6.7,15,15,15c8.3,0,15.1-6.7,15.1-15c0-8.3-6.7-15.1-15.1-15.1
		C9.4,2.7,2.7,9.4,2.7,17.7"/>
	<path class="st0" d="M17.7,23.5c-2.1,0-4.1,0-6.2,0c-1.9,0-3.1-1.2-3.1-3.1c0-1.8,0-3.6,0-5.5c0-1.8,1.3-3,3-3c4.2,0,8.4,0,12.6,0
		c1.8,0,3,1.2,3,3c0,1.8,0,3.7,0,5.5c0,1.8-1.3,3-3.1,3C21.9,23.5,19.8,23.5,17.7,23.5 M17.7,22.5c2.1,0,4.1,0,6.2,0
		c1.4,0,2.2-0.8,2.2-2.2c0-1.8,0-3.5,0-5.3c0-1.4-0.8-2.2-2.2-2.2c-4.1,0-8.3,0-12.4,0c-1.3,0-2.1,0.8-2.1,2.2c0,1.8,0,3.5,0,5.3
		c0,1.4,0.8,2.2,2.2,2.2C13.6,22.6,15.7,22.5,17.7,22.5"/>
</g>
<text transform="matrix(1 0 0 1 12.3286 20.2214)" class="st1 st2">kz</text>
</svg>
