<?xml version="1.0" encoding="UTF-8" standalone="no"?>
<!DOCTYPE svg PUBLIC "-//W3C//DTD SVG 1.1//EN" "http://www.w3.org/Graphics/SVG/1.1/DTD/svg11.dtd">
<svg version="1.1" xmlns="http://www.w3.org/2000/svg" xmlns:xlink="http://www.w3.org/1999/xlink" preserveAspectRatio="xMidYMid meet" viewBox="0 0 100 100" width="100" height="100"><defs><path d="M54.23 0L54.27 0.01L54.32 0.01L54.36 0.02L54.41 0.02L54.45 0.03L54.5 0.04L54.54 0.05L54.58 0.06L54.63 0.08L54.67 0.09L54.71 0.11L54.75 0.12L54.79 0.14L54.83 0.16L54.88 0.18L54.91 0.2L54.95 0.22L54.99 0.24L55.03 0.26L55.07 0.29L55.1 0.31L55.14 0.34L55.17 0.36L55.21 0.39L55.24 0.42L55.27 0.45L55.31 0.48L55.34 0.51L55.36 0.54L55.39 0.57L55.42 0.6L55.45 0.63L55.47 0.67L55.5 0.7L55.52 0.73L55.54 0.77L55.56 0.8L55.58 0.84L55.6 0.88L55.63 0.91L55.65 0.95L55.67 0.99L55.7 1.03L55.72 1.07L55.73 1.11L55.75 1.15L55.77 1.19L55.78 1.24L55.79 1.28L55.8 1.32L55.81 1.37L55.82 1.41L55.83 1.46L55.84 1.5L55.84 1.54L55.84 1.59L55.85 1.63L55.85 1.68L55.85 1.72L55.84 1.77L55.84 1.81L55.84 1.86L55.83 1.9L55.82 1.95L55.81 1.99L55.8 2.04L55.79 2.08L55.78 2.12L55.77 2.16L55.75 2.21L55.73 2.25L55.72 2.29L55.7 2.33L55.67 2.37L55.65 2.41L55.63 2.45L55.6 2.48L55.58 2.52L55.4 2.81L55.21 3.13L55.01 3.46L54.8 3.82L54.57 4.2L54.34 4.61L54.1 5.02L53.85 5.46L53.6 5.91L53.34 6.38L53.08 6.86L52.81 7.36L52.54 7.86L52.27 8.38L52 8.9L51.72 9.44L51.45 9.98L51.18 10.53L50.91 11.08L50.64 11.63L50.38 12.19L50.13 12.75L49.88 13.32L49.64 13.88L49.4 14.43L49.17 14.99L48.96 15.54L48.75 16.09L48.56 16.63L48.38 17.16L48.21 17.68L48.05 18.2L47.91 18.7L47.79 19.19L47.68 19.67L47.59 20.14L47.52 20.59L47.46 21.02L47.43 21.43L47.42 21.83L47.43 22.52L47.46 23.19L47.5 23.85L47.56 24.49L47.64 25.13L47.73 25.75L47.84 26.36L47.97 26.96L48.1 27.55L48.26 28.13L48.43 28.7L48.61 29.26L48.81 29.82L49.01 30.36L49.24 30.9L49.47 31.43L49.72 31.95L49.98 32.47L50.24 32.98L50.52 33.48L50.82 33.98L51.12 34.47L51.43 34.96L51.75 35.45L52.08 35.93L52.42 36.41L52.76 36.89L53.12 37.36L53.48 37.84L53.85 38.31L54.22 38.78L54.61 39.25L55 39.72L55.39 40.19L55.79 40.67L56.19 41.14L56.6 41.62L57.02 42.1L57.44 42.58L57.86 43.06L58.23 43.49L58.6 43.93L58.97 44.37L59.35 44.81L59.73 45.26L60.1 45.71L60.48 46.16L60.86 46.62L61.24 47.09L61.62 47.55L61.99 48.03L62.37 48.51L62.74 48.99L63.11 49.48L63.48 49.98L63.85 50.48L64.21 50.99L64.57 51.51L64.93 52.03L65.28 52.57L65.62 53.11L65.97 53.65L66.3 54.21L66.63 54.77L66.95 55.34L67.27 55.92L67.58 56.51L67.88 57.11L68.18 57.72L68.47 58.34L68.74 58.97L69.01 59.61L69.27 60.26L69.53 60.92L69.77 61.59L70 62.28L70.22 62.97L70.43 63.68L70.62 64.4L70.81 65.13L71.18 66.62L71.54 68.07L71.89 69.46L72.23 70.8L72.57 72.1L72.89 73.35L73.21 74.55L73.52 75.71L73.83 76.83L74.13 77.9L74.43 78.94L74.72 79.94L75.02 80.9L75.31 81.83L75.61 82.72L75.9 83.58L76.2 84.4L76.5 85.2L76.8 85.97L77.11 86.71L77.42 87.42L77.74 88.11L78.07 88.77L78.4 89.42L78.75 90.04L79.1 90.64L79.46 91.22L79.84 91.79L80.23 92.34L80.63 92.88L81.04 93.4L81.47 93.91L81.92 94.42L82.38 94.91L82.86 95.39L83.36 95.87L83.88 96.35L84.42 96.82L84.98 97.29L85.56 97.76L85.59 97.78L85.62 97.81L85.65 97.83L85.68 97.86L85.7 97.89L85.73 97.92L85.76 97.95L85.78 97.99L85.8 98.02L85.83 98.06L85.85 98.09L85.87 98.13L85.89 98.17L85.91 98.21L85.93 98.25L85.95 98.29L85.97 98.34L85.98 98.38L86 98.43L86.01 98.48L86.03 98.52L86.04 98.57L86.06 98.62L86.07 98.68L86.08 98.73L86.09 98.78L86.1 98.84L86.11 98.9L86.12 98.96L86.13 99.02L86.13 99.08L86.14 99.14L86.15 99.2L86.15 99.26L86.15 99.33L86.16 99.4L86.16 99.46L86.16 99.53L86.16 99.6L86.16 99.67L86.14 99.72L86.12 99.76L86.1 99.81L86.08 99.85L86.05 99.89L86.03 99.94L86 99.98L85.97 100.02L85.94 100.06L85.9 100.1L85.87 100.14L85.83 100.18L85.8 100.21L85.76 100.25L85.72 100.29L85.68 100.32L85.64 100.36L85.6 100.39L85.56 100.42L85.52 100.45L85.48 100.49L85.43 100.52L85.39 100.54L85.34 100.57L85.3 100.6L85.25 100.63L85.21 100.65L85.16 100.68L85.11 100.7L85.07 100.72L85.02 100.74L84.97 100.76L84.93 100.78L84.88 100.8L84.83 100.81L84.79 100.83L84.74 100.84L84.7 100.85L84.65 100.86L84.6 100.87L10.48 100.87L10.42 100.87L10.35 100.87L10.29 100.86L10.23 100.86L10.17 100.85L10.11 100.83L10.05 100.82L9.99 100.81L9.93 100.79L9.88 100.77L9.82 100.75L9.77 100.72L9.71 100.7L9.66 100.67L9.61 100.64L9.56 100.61L9.51 100.58L9.46 100.54L9.41 100.51L9.37 100.47L9.32 100.43L9.28 100.39L9.24 100.35L9.2 100.3L9.16 100.26L9.12 100.21L9.09 100.17L9.06 100.12L9.02 100.07L8.99 100.01L8.97 99.96L8.94 99.91L8.91 99.85L8.89 99.8L8.87 99.74L8.85 99.68L8.84 99.62L8.82 99.56L8.81 99.5L8.8 99.43L8.79 99.37L8.79 99.31L8.78 99.25L8.78 99.18L8.78 99.12L8.78 99.06L8.79 99L8.8 98.94L8.8 98.87L8.82 98.81L8.83 98.75L8.84 98.7L8.86 98.64L8.88 98.58L8.9 98.52L8.92 98.47L8.94 98.41L8.97 98.36L9 98.3L9.02 98.25L9.05 98.2L9.09 98.15L9.12 98.1L9.15 98.05L9.19 98.01L9.23 97.96L9.26 97.92L9.3 97.88L9.35 97.84L9.39 97.8L9.43 97.76L9.48 97.73L9.52 97.69L9.57 97.66L9.62 97.63L9.67 97.61L9.72 97.58L9.77 97.56L9.82 97.53L9.88 97.52L9.94 97.49L10.07 97.44L10.28 97.35L10.56 97.23L10.91 97.09L11.32 96.91L11.78 96.69L12.3 96.45L12.87 96.17L13.48 95.85L14.14 95.51L14.83 95.12L15.55 94.71L16.3 94.26L17.08 93.77L17.88 93.25L18.69 92.69L19.51 92.09L20.35 91.46L21.18 90.78L22.02 90.07L22.85 89.33L23.67 88.54L24.48 87.71L25.27 86.85L26.05 85.94L26.79 85L27.51 84.01L28.19 82.98L28.84 81.91L29.44 80.8L30 79.65L30.51 78.45L30.96 77.21L31.35 75.93L31.69 74.6L31.95 73.23L32.15 71.82L32.27 70.36L32.31 68.85L32.31 68.21L32.31 67.57L32.3 66.94L32.29 66.3L32.27 65.67L32.24 65.03L32.21 64.4L32.17 63.77L32.12 63.14L32.07 62.51L32.01 61.88L31.94 61.26L31.87 60.63L31.79 60.01L31.7 59.38L31.61 58.76L31.51 58.14L31.41 57.52L31.3 56.9L31.18 56.28L31.06 55.67L30.93 55.05L30.8 54.44L30.66 53.83L30.51 53.22L30.36 52.61L30.2 52.01L30.04 51.4L29.87 50.8L29.69 50.19L29.51 49.59L29.33 48.99L29.13 48.4L28.94 47.8L28.73 47.21L28.52 46.61L28.31 46.02L28.09 45.43L27.86 44.85L27.63 44.26L27.46 43.85L27.3 43.43L27.13 43.01L26.98 42.59L26.82 42.17L26.67 41.75L26.52 41.33L26.38 40.91L26.24 40.48L26.1 40.06L25.97 39.63L25.84 39.2L25.72 38.77L25.6 38.34L25.48 37.91L25.37 37.48L25.26 37.05L25.16 36.61L25.06 36.18L24.96 35.74L24.87 35.31L24.78 34.87L24.7 34.43L24.62 33.99L24.54 33.55L24.47 33.11L24.4 32.67L24.34 32.23L24.28 31.78L24.22 31.34L24.17 30.9L24.13 30.45L24.08 30L24.05 29.56L24.01 29.11L23.98 28.66L23.96 28.22L23.94 27.77L23.92 27.32L23.91 26.87L23.93 25.94L23.98 25.01L24.05 24.1L24.16 23.19L24.29 22.29L24.46 21.41L24.64 20.53L24.85 19.67L25.09 18.81L25.35 17.97L25.63 17.14L25.93 16.32L26.24 15.51L26.58 14.72L26.94 13.94L27.3 13.18L27.69 12.43L28.09 11.69L28.5 10.97L28.92 10.27L29.35 9.58L29.79 8.91L30.24 8.26L30.7 7.63L31.16 7.01L31.63 6.41L32.1 5.83L32.58 5.27L33.05 4.73L33.53 4.21L34 3.72L34.47 3.24L34.95 2.78L35.41 2.35L35.87 1.94L36.33 1.55L36.78 1.19L37.22 0.85L37.65 0.53L38.07 0.24L38.09 0.23L38.12 0.22L38.14 0.21L38.17 0.2L38.2 0.2L38.22 0.19L38.24 0.18L38.32 0.15L38.34 0.14L38.36 0.14L38.39 0.13L38.41 0.12L38.43 0.11L38.46 0.1L38.48 0.1L38.5 0.09L38.52 0.08L38.55 0.07L38.57 0.07L38.59 0.06L38.61 0.06L38.64 0.05L38.66 0.04L38.68 0.04L38.7 0.03L38.73 0.03L38.75 0.02L38.77 0.02L38.8 0.02L38.82 0.01L38.85 0.01L38.87 0.01L38.9 0.01L38.92 0L38.95 0L38.97 0L39 0L39.02 0L54.14 0L54.18 0L54.23 0Z" id="h2iAt4cmci"></path><path d="M91.43 67.18L91.48 67.19L91.53 67.2L91.57 67.21L91.61 67.23L91.64 67.24L91.68 67.26L91.71 67.27L91.74 67.28L91.77 67.29L91.8 67.29L91.83 67.29L91.86 67.29L91.89 67.29L91.92 67.29L91.95 67.3L91.98 67.3L92.01 67.31L92.04 67.32L92.07 67.34L92.1 67.36L92.13 67.38L92.16 67.41L92.28 67.41L92.64 67.77L92.64 67.8L92.65 67.82L92.66 67.84L92.67 67.86L92.69 67.87L92.72 67.9L92.73 67.92L92.74 67.94L92.75 67.96L92.76 67.98L92.76 68.01L92.76 68.01L92.77 68.02L92.78 68.03L92.79 68.04L92.81 68.06L92.82 68.08L92.84 68.11L92.85 68.13L92.86 68.16L92.87 68.19L92.88 68.22L92.88 68.25L92.88 89L92.87 89.16L92.83 89.31L92.78 89.46L92.69 89.61L92.59 89.76L92.46 89.9L92.31 90.04L92.13 90.17L91.94 90.3L91.71 90.43L91.47 90.56L91.2 90.68L90.97 90.66L90.74 90.62L90.53 90.55L90.34 90.46L90.15 90.35L89.99 90.21L89.84 90.06L89.71 89.9L89.6 89.72L89.51 89.53L89.44 89.33L89.4 89.12L89.4 81.56L80.05 75.33L79.93 75.26L79.83 75.18L79.73 75.08L79.65 74.98L79.57 74.86L79.51 74.74L79.45 74.61L79.41 74.47L79.37 74.33L79.35 74.18L79.33 74.04L79.33 73.89L79.36 73.74L79.41 73.59L79.46 73.44L79.52 73.3L79.59 73.16L79.67 73.03L79.76 72.91L79.85 72.79L79.95 72.69L80.06 72.6L80.17 72.51L80.29 72.45L90.36 67.53L90.6 67.41L90.66 67.38L90.72 67.35L90.78 67.32L90.84 67.29L90.9 67.27L90.96 67.24L91.02 67.22L91.08 67.21L91.14 67.19L91.2 67.18L91.26 67.17L91.32 67.17L91.38 67.17L91.43 67.18Z" id="acW3RhFIq"></path><path d="M20.9 60.46L20.95 60.47L21 60.48L21.04 60.5L21.08 60.51L21.11 60.53L21.15 60.54L21.18 60.55L21.21 60.56L21.24 60.57L21.27 60.57L21.3 60.57L21.33 60.57L21.36 60.57L21.39 60.58L21.42 60.58L21.45 60.59L21.48 60.6L21.51 60.61L21.54 60.62L21.57 60.64L21.6 60.66L21.63 60.69L21.75 60.69L22.11 61.05L22.12 61.08L22.12 61.1L22.13 61.12L22.14 61.14L22.16 61.16L22.19 61.19L22.2 61.2L22.21 61.22L22.22 61.24L22.23 61.26L22.23 61.29L22.23 61.29L22.24 61.3L22.25 61.31L22.26 61.33L22.28 61.35L22.29 61.37L22.31 61.39L22.32 61.42L22.33 61.44L22.34 61.47L22.35 61.5L22.35 61.53L22.35 82.28L22.34 82.44L22.31 82.6L22.25 82.75L22.17 82.9L22.06 83.04L21.93 83.18L21.78 83.32L21.61 83.46L21.41 83.59L21.19 83.72L20.94 83.84L20.67 83.96L20.44 83.95L20.22 83.9L20 83.84L19.81 83.74L19.62 83.63L19.46 83.5L19.31 83.35L19.18 83.18L19.07 83L18.98 82.81L18.92 82.61L18.87 82.4L18.87 74.85L9.52 68.61L9.4 68.54L9.3 68.46L9.2 68.37L9.12 68.26L9.04 68.15L8.98 68.02L8.92 67.89L8.88 67.76L8.84 67.61L8.82 67.47L8.8 67.32L8.8 67.17L8.83 67.02L8.88 66.87L8.93 66.73L8.99 66.58L9.06 66.45L9.14 66.31L9.23 66.19L9.32 66.08L9.42 65.97L9.53 65.88L9.64 65.8L9.76 65.73L19.83 60.81L20.07 60.69L20.13 60.66L20.19 60.63L20.25 60.6L20.31 60.58L20.37 60.55L20.43 60.53L20.49 60.51L20.55 60.49L20.61 60.47L20.67 60.46L20.73 60.45L20.79 60.45L20.85 60.45L20.9 60.46Z" id="a2w9Tmgnyn"></path><path d="M78.32 38.63L78.36 38.65L78.39 38.66L78.46 38.7L78.5 38.72L78.54 38.73L78.57 38.74L78.61 38.74L78.61 38.75L78.62 38.75L78.64 38.77L78.66 38.78L78.68 38.8L78.71 38.82L78.74 38.84L78.78 38.85L78.81 38.86L78.85 38.86L78.92 38.9L78.98 38.94L79.03 38.97L79.08 39.01L79.13 39.06L79.18 39.1L79.22 39.16L79.25 39.21L79.29 39.27L79.33 39.34L79.33 39.35L79.34 39.36L79.35 39.37L79.37 39.39L79.39 39.42L79.4 39.45L79.42 39.48L79.43 39.51L79.44 39.55L79.45 39.58L79.45 53.74L79.43 53.93L79.38 54.11L79.3 54.29L79.18 54.46L79.03 54.64L78.84 54.8L78.62 54.96L78.37 55.12L78.09 55.27L77.77 55.41L77.49 55.39L77.22 55.33L76.98 55.23L76.75 55.1L76.55 54.94L76.38 54.74L76.23 54.52L76.11 54.28L76.02 54.02L75.97 53.74L75.97 48.22L67.09 45.22L66.88 45.14L66.69 45.03L66.52 44.91L66.36 44.77L66.22 44.62L66.11 44.45L66.02 44.27L65.95 44.08L65.91 43.87L65.89 43.66L65.91 43.45L65.95 43.24L66.02 43.05L66.11 42.87L66.22 42.7L66.36 42.55L66.52 42.41L66.69 42.29L66.88 42.18L67.09 42.1L77.17 38.62L78.25 38.62L78.28 38.63L78.32 38.63Z" id="c4yX1YdwLU"></path><path d="M19.43 16.8L19.46 16.82L19.5 16.83L19.57 16.87L19.61 16.89L19.64 16.9L19.68 16.91L19.71 16.91L19.72 16.92L19.73 16.92L19.74 16.94L19.76 16.95L19.79 16.97L19.82 16.99L19.85 17.01L19.88 17.02L19.92 17.03L19.95 17.03L20.02 17.07L20.08 17.11L20.14 17.14L20.19 17.18L20.24 17.23L20.28 17.27L20.32 17.33L20.36 17.38L20.4 17.44L20.43 17.51L20.44 17.52L20.45 17.53L20.46 17.54L20.48 17.56L20.49 17.59L20.51 17.62L20.53 17.65L20.54 17.68L20.55 17.72L20.55 17.75L20.55 31.91L20.53 32.19L20.47 32.45L20.37 32.69L20.24 32.91L20.07 33.1L19.88 33.27L19.66 33.4L19.42 33.5L19.15 33.56L18.87 33.58L18.59 33.56L18.33 33.5L18.09 33.4L17.87 33.27L17.67 33.1L17.51 32.91L17.38 32.69L17.28 32.45L17.22 32.19L17.19 31.91L17.19 26.39L8.32 23.39L8.11 23.31L7.92 23.2L7.74 23.08L7.59 22.94L7.45 22.79L7.33 22.62L7.24 22.44L7.18 22.25L7.13 22.04L7.12 21.83L7.13 21.62L7.18 21.41L7.24 21.22L7.33 21.04L7.45 20.87L7.59 20.72L7.74 20.58L7.92 20.46L8.11 20.35L8.32 20.27L18.27 16.79L19.35 16.79L19.39 16.8L19.43 16.8Z" id="d7YpP7arj"></path><path d="M68.12 3.37L68.16 3.38L68.2 3.4L68.27 3.44L68.3 3.45L68.34 3.47L68.38 3.48L68.41 3.48L68.42 3.48L68.43 3.49L68.44 3.5L68.46 3.52L68.49 3.54L68.52 3.56L68.55 3.57L68.58 3.59L68.62 3.6L68.65 3.6L68.72 3.63L68.78 3.67L68.84 3.71L68.89 3.75L68.94 3.79L68.98 3.84L69.02 3.89L69.06 3.95L69.1 4.01L69.13 4.08L69.13 4.08L69.14 4.09L69.16 4.11L69.17 4.13L69.19 4.15L69.21 4.18L69.23 4.21L69.24 4.25L69.25 4.28L69.25 4.32L69.25 18.47L69.23 18.75L69.17 19.01L69.07 19.26L68.94 19.48L68.77 19.67L68.58 19.84L68.36 19.97L68.12 20.07L67.85 20.13L67.57 20.15L67.29 20.13L67.03 20.07L66.79 19.97L66.57 19.84L66.37 19.67L66.21 19.48L66.07 19.26L65.98 19.01L65.91 18.75L65.89 18.47L65.89 12.95L57.02 9.96L56.81 9.87L56.62 9.77L56.44 9.65L56.28 9.5L56.15 9.34L56.03 9.16L55.94 8.96L55.87 8.75L55.83 8.52L55.82 8.28L55.83 8.06L55.87 7.86L55.94 7.67L56.03 7.49L56.15 7.32L56.28 7.16L56.44 7.02L56.62 6.9L56.81 6.8L57.02 6.72L66.97 3.36L68.05 3.36L68.09 3.36L68.12 3.37Z" id="i4MHGbB1i"></path></defs><g><g><path></path><path></path><path></path><path></path><g><use xlink:href="#h2iAt4cmci" opacity="1" fill="#448dbc" fill-opacity="1"></use><g><use xlink:href="#h2iAt4cmci" opacity="1" fill-opacity="0" stroke="#000000" stroke-width="1" stroke-opacity="0"></use></g></g><g><use xlink:href="#acW3RhFIq" opacity="1" fill="#448dbc" fill-opacity="1"></use><g><use xlink:href="#acW3RhFIq" opacity="1" fill-opacity="0" stroke="#000000" stroke-width="1" stroke-opacity="0"></use></g></g><g><use xlink:href="#a2w9Tmgnyn" opacity="1" fill="#448dbc" fill-opacity="1"></use><g><use xlink:href="#a2w9Tmgnyn" opacity="1" fill-opacity="0" stroke="#000000" stroke-width="1" stroke-opacity="0"></use></g></g><g><use xlink:href="#c4yX1YdwLU" opacity="1" fill="#448dbc" fill-opacity="1"></use><g><use xlink:href="#c4yX1YdwLU" opacity="1" fill-opacity="0" stroke="#000000" stroke-width="1" stroke-opacity="0"></use></g></g><g><use xlink:href="#d7YpP7arj" opacity="1" fill="#448dbc" fill-opacity="1"></use><g><use xlink:href="#d7YpP7arj" opacity="1" fill-opacity="0" stroke="#000000" stroke-width="1" stroke-opacity="0"></use></g></g><g><use xlink:href="#i4MHGbB1i" opacity="1" fill="#448dbc" fill-opacity="1"></use><g><use xlink:href="#i4MHGbB1i" opacity="1" fill-opacity="0" stroke="#000000" stroke-width="1" stroke-opacity="0"></use></g></g></g></g></svg>