<?xml version="1.0" encoding="UTF-8" standalone="no"?>
<!DOCTYPE svg PUBLIC "-//W3C//DTD SVG 1.1//EN" "http://www.w3.org/Graphics/SVG/1.1/DTD/svg11.dtd">
<svg version="1.1" xmlns="http://www.w3.org/2000/svg" xmlns:xlink="http://www.w3.org/1999/xlink" preserveAspectRatio="xMidYMid meet" viewBox="0 0 100 100" width="100" height="100"><defs><path d="M72.33 86.08C67.62 84.58 62.91 82.88 58.21 81.37C55.38 80.43 52.55 79.3 49.54 78.93C43.32 78.17 37.11 77.42 30.89 76.67C30.52 76.67 30.33 76.48 30.14 76.1C26.75 69.7 23.36 63.1 19.97 56.7C19.78 56.51 19.78 56.13 19.78 55.95C20.16 53.5 20.53 50.86 20.91 48.41C21.47 44.45 22.04 40.31 22.79 36.35C22.79 35.98 22.79 35.6 22.42 35.41C15.26 27.69 8.29 19.97 1.13 12.24C0.75 11.87 0.57 11.49 0 11.11C0 40.69 0 70.07 0 99.65C29.76 99.65 59.52 99.65 89.29 99.65C89.1 99.46 89.1 99.46 88.91 99.27C83.64 94.94 78.36 90.79 73.09 86.46C72.9 86.27 72.71 86.27 72.33 86.08Z" id="abyNo2LrQ"></path><path d="M27.88 51.99C27.69 52.18 27.5 52.37 27.31 52.55C26.56 53.12 26.18 53.68 25.99 54.63C25.99 55.19 25.99 55.76 26.37 56.32C28.82 61.03 31.27 65.55 33.72 70.26C33.91 70.45 33.91 70.64 34.09 70.83C34.09 71.39 34.09 72.14 34.09 72.71C34.85 72.71 35.41 72.9 36.17 72.9C41.44 72.9 46.53 72.9 51.8 72.9C52.55 73.46 53.31 73.65 54.06 74.03C58.96 75.54 63.86 77.23 68.75 78.93C68.94 78.93 68.94 78.93 69.13 78.93C70.45 73.09 69.7 65.18 65.36 58.96C59.15 49.92 50.48 46.34 39.75 47.28C39.75 47.09 39.75 47.09 39.75 46.9C39.37 43.14 39.75 39.37 40.69 35.6C43.51 25.99 49.73 19.59 59.34 16.76C63.67 15.45 68.19 15.26 72.71 15.82C73.09 15.82 73.27 15.82 73.46 15.63C75.54 13.75 77.61 11.87 79.49 9.98C80.06 9.61 80.43 9.04 81 8.66C81 8.66 81 8.48 81 8.48C78.17 5.84 75.54 3.2 72.71 0.57C72.52 0.38 72.33 0.38 72.33 0.38C71.2 0.19 69.88 0.19 68.75 0C65.74 0 62.73 0 59.9 0.38C54.81 1.13 49.92 2.64 45.4 5.09C38.05 9.04 32.4 14.88 28.63 22.6C26.56 26.94 25.24 31.65 24.68 36.54C24.3 40.31 24.3 44.08 24.68 48.03C24.3 48.03 24.49 48.41 24.68 48.6C25.62 49.73 26.75 50.86 27.88 51.99Z" id="e2FIRcSOOo"></path><path d="M57.83 23.17C53.12 25.43 49.54 28.82 47.47 33.53C47.28 33.91 47.28 34.09 47.66 34.47C54.63 41.44 61.6 48.41 68.38 55.19C68.57 55.38 68.57 55.38 68.75 55.57C72.52 51.8 76.1 48.22 79.87 44.45C79.68 44.27 79.68 44.27 79.49 44.08C72.52 37.3 65.55 30.33 58.58 23.36C58.39 23.17 58.21 23.17 57.83 23.17Z" id="a2u55lQm36"></path><path d="M93.05 55.19C90.42 52.55 87.97 50.11 85.33 47.47C80.62 52.18 76.1 56.7 71.58 61.22C71.77 61.41 71.77 61.41 71.96 61.6C75.54 65.36 79.3 68.94 82.88 72.71C83.26 73.09 83.82 73.46 84.2 73.84C87.97 76.85 93.81 76.48 97.2 73.09C100.96 69.13 100.96 63.1 97.01 59.15C95.69 57.83 94.37 56.51 93.05 55.19Z" id="c3FGm5qPuL"></path></defs><g><g><path></path><path></path><path></path><path></path><g><use xlink:href="#abyNo2LrQ" opacity="1" fill="#448dbc" fill-opacity="1"></use><g><use xlink:href="#abyNo2LrQ" opacity="1" fill-opacity="0" stroke="#000000" stroke-width="1" stroke-opacity="0"></use></g></g><g><use xlink:href="#e2FIRcSOOo" opacity="1" fill="#448dbc" fill-opacity="1"></use><g><use xlink:href="#e2FIRcSOOo" opacity="1" fill-opacity="0" stroke="#000000" stroke-width="1" stroke-opacity="0"></use></g></g><g><use xlink:href="#a2u55lQm36" opacity="1" fill="#448dbc" fill-opacity="1"></use><g><use xlink:href="#a2u55lQm36" opacity="1" fill-opacity="0" stroke="#000000" stroke-width="1" stroke-opacity="0"></use></g></g><g><use xlink:href="#c3FGm5qPuL" opacity="1" fill="#448dbc" fill-opacity="1"></use><g><use xlink:href="#c3FGm5qPuL" opacity="1" fill-opacity="0" stroke="#000000" stroke-width="1" stroke-opacity="0"></use></g></g></g></g></svg>