<?xml version="1.0" encoding="utf-8"?>
<!-- Generator: Adobe Illustrator 23.0.1, SVG Export Plug-In . SVG Version: 6.00 Build 0)  -->
<svg version="1.1" id="Layer_1" xmlns="http://www.w3.org/2000/svg" xmlns:xlink="http://www.w3.org/1999/xlink" x="0px" y="0px"
	 viewBox="0 0 100 100" style="enable-background:new 0 0 100 100;" xml:space="preserve">
<style type="text/css">
	.st0{fill:#448DBC;}
</style>
<path class="st0" d="M9.1,15.8C9.1,15.8,9.1,15.7,9.1,15.8c2.5-2.6,4.9-5.1,7.4-7.6c3.3,3.2,6.5,6.3,9.7,9.4c0,0,0.1,0,0.1,0
	c0.1-0.1,0.3-0.2,0.4-0.4c3.3-2.7,6.9-4.8,10.8-6.2c3.7-1.3,7.5-2,11.4-2.3c3.3-0.2,6.7-0.1,10,0.4c6.1,0.9,11.6,3.3,16.5,7.1
	c0.6,0.4,1.1,0.9,1.7,1.4c0.1-0.1,0.2-0.2,0.2-0.2c2.9-3,5.9-6.1,8.8-9.1c0.1-0.1,0.1-0.2,0.2-0.2c0,0,0,0,0.1,0
	c2.5,2.5,4.9,4.9,7.4,7.4c-2.9,3.1-5.8,6.2-8.7,9.3c0.1,0.1,0.2,0.2,0.2,0.3c1.3,1.6,2.5,3.4,3.6,5.3c2.7,5,4.1,10.3,4.6,16
	c0.3,4.3,0.2,8.5-0.6,12.8c-1.1,6.1-3.6,11.6-7.5,16.5c-0.1,0.1-0.2,0.2-0.3,0.3c0.1,0.1,0.2,0.2,0.3,0.4c2.8,2.8,5.5,5.7,8.3,8.5
	c0.3,0.3,0.3,0.4,0,0.8c-2.2,2.4-4.4,4.7-6.6,7.1c-0.1,0.1-0.1,0.1-0.2,0.2c-3.2-3.2-6.3-6.3-9.4-9.5c-0.2,0.1-0.3,0.3-0.5,0.4
	c-3.4,3-7.2,5.2-11.4,6.7c-3.6,1.3-7.4,2-11.3,2.2c-3.8,0.2-7.6,0-11.3-0.8c-6.4-1.3-12-4.1-16.9-8.4c-0.1-0.1-0.3-0.2-0.4-0.4
	c-3.2,3.2-6.3,6.3-9.4,9.5c-2.3-2.5-4.6-4.9-6.9-7.4c3.1-3.1,6.2-6.2,9.3-9.3c-0.1-0.1-0.1-0.2-0.2-0.3c-4.7-5.9-7.4-12.7-8.2-20.2
	c-0.5-5-0.2-10,0.8-14.9c1.1-5.1,3.3-9.8,6.5-14c0.3-0.4,0.6-0.7,0.8-1c-0.1-0.1-0.1-0.1-0.1-0.1c-3-3.1-6.1-6.2-9.1-9.3
	C9.3,15.9,9.2,15.8,9.1,15.8z M21.8,51.4c0,1.3,0.1,3.2,0.4,5c0.6,3.4,1.7,6.6,3.4,9.6c2,3.4,4.7,6.2,7.8,8.7
	c3.5,2.8,7.4,4.8,11.8,5.7c3,0.7,6,0.7,9,0.6c3.3-0.1,6.5-0.8,9.6-2.1c3.7-1.6,6.8-3.9,9.6-6.7c3.2-3.3,5.7-7,7.2-11.4
	c1.6-4.7,2-9.5,1.4-14.4c-0.5-3.8-1.6-7.3-3.5-10.6c-1.7-3-4-5.7-6.5-8c-2.4-2.3-5.2-4.1-8.3-5.4c-3-1.2-6.1-1.9-9.4-2.1
	c-3.8-0.2-7.6,0.1-11.2,1.3c-3.9,1.2-7.4,3.1-10.5,5.7c-3.3,2.8-6,6.1-8,10C22.6,41.5,21.8,46,21.8,51.4z"/>
</svg>
