<?xml version="1.0" encoding="UTF-8" standalone="no"?>
<!DOCTYPE svg PUBLIC "-//W3C//DTD SVG 1.1//EN" "http://www.w3.org/Graphics/SVG/1.1/DTD/svg11.dtd">
<svg version="1.1" xmlns="http://www.w3.org/2000/svg" xmlns:xlink="http://www.w3.org/1999/xlink" preserveAspectRatio="xMidYMid meet" viewBox="0 0 100 100" width="100" height="100"><defs><path d="M62.13 99.17C62.66 89.83 59.67 82.25 49.8 81.01C43.63 80.13 39.05 87.89 37.82 98.99C27.07 98.99 16.32 98.99 4.33 98.99C4.33 96.7 4.33 94.58 4.33 92.29C4.33 75.02 4.33 57.75 4.16 40.66C4.16 38.37 3.28 35.73 1.87 33.79C-0.78 29.91 0.63 27.97 4.51 27.62C9.27 27.09 14.03 27.27 18.96 27.62C22.84 27.97 23.54 30.44 21.6 33.61C16.49 42.07 20.19 51.23 19.49 60.22C19.49 60.57 21.43 61.81 21.78 61.63C22.66 61.1 23.72 59.87 23.89 58.81C25.83 47.89 33.06 42.07 42.93 38.37C54.38 34.14 70.24 42.07 74.82 54.23C75.7 56.87 77.29 59.16 78.7 61.63C79.4 58.81 80.64 55.99 80.81 53C81.17 48.59 80.99 44.36 80.81 39.96C80.81 38.55 80.81 36.78 80.29 35.55C76.58 27.62 76.58 27.44 85.57 27.44C88.92 27.44 92.09 27.09 95.44 27.62C99.32 28.15 100.73 29.91 98.26 33.79C96.85 35.9 95.97 38.72 95.97 41.19C95.62 60.04 95.79 79.25 95.79 99.17C84.16 99.17 73.59 99.17 62.13 99.17Z" id="cb72YzIsW"></path><path d="M10.5 1.01C11.21 1.01 12.09 0.83 12.79 0.83C15.08 7.53 17.37 14.4 20.02 22.16C14.03 22.16 9.62 22.16 3.63 22.16C6.1 14.76 8.21 7.88 10.5 1.01Z" id="b5OI1jsQy"></path><path d="M87.33 1.01C88.04 1.01 88.92 1.01 89.63 1.19C91.92 8.06 94.21 14.93 96.67 22.69C90.86 22.51 86.28 22.51 80.11 22.51C82.75 14.58 85.04 7.71 87.33 1.01Z" id="a3bk1H8h2"></path></defs><g><g><g><use xlink:href="#cb72YzIsW" opacity="1" fill="#66a1c8" fill-opacity="1"></use><g><use xlink:href="#cb72YzIsW" opacity="1" fill-opacity="0" stroke="#000000" stroke-width="1" stroke-opacity="0"></use></g></g><g><use xlink:href="#b5OI1jsQy" opacity="1" fill="#66a1c8" fill-opacity="1"></use><g><use xlink:href="#b5OI1jsQy" opacity="1" fill-opacity="0" stroke="#000000" stroke-width="1" stroke-opacity="0"></use></g></g><g><use xlink:href="#a3bk1H8h2" opacity="1" fill="#66a1c8" fill-opacity="1"></use><g><use xlink:href="#a3bk1H8h2" opacity="1" fill-opacity="0" stroke="#000000" stroke-width="1" stroke-opacity="0"></use></g></g></g></g></svg>