<?xml version="1.0" encoding="utf-8"?>
<!-- Generator: Adobe Illustrator 23.0.1, SVG Export Plug-In . SVG Version: 6.00 Build 0)  -->
<svg version="1.1" id="Layer_1" xmlns="http://www.w3.org/2000/svg" xmlns:xlink="http://www.w3.org/1999/xlink" x="0px" y="0px"
	 viewBox="0 0 100 100" style="enable-background:new 0 0 100 100;" xml:space="preserve">
<style type="text/css">
	.st0{fill:#66A1C8;}
</style>
<g>
	<path class="st0" d="M78.1,77.9c-6.6,0-12.6,0-19.1,0c0.3-5.3-1.4-9.6-7-10.3c-3.5-0.5-6.1,3.9-6.8,10.2c-6.1,0-12.2,0-19,0
		c0-1.3,0-2.5,0-3.8c0-9.8,0-19.6-0.1-29.3c0-1.3-0.5-2.8-1.3-3.9c-1.5-2.2-0.7-3.3,1.5-3.5c2.7-0.3,5.4-0.2,8.2,0
		c2.2,0.2,2.6,1.6,1.5,3.4c-2.9,4.8-0.8,10-1.2,15.1c0,0.2,1.1,0.9,1.3,0.8c0.5-0.3,1.1-1,1.2-1.6c1.1-6.2,5.2-9.5,10.8-11.6
		c6.5-2.4,15.5,2.1,18.1,9c0.5,1.5,1.4,2.8,2.2,4.2c0.4-1.6,1.1-3.2,1.2-4.9c0.2-2.5,0.1-4.9,0-7.4c0-0.8,0-1.8-0.3-2.5
		c-2.1-4.5-2.1-4.6,3-4.6c1.9,0,3.7-0.2,5.6,0.1c2.2,0.3,3,1.3,1.6,3.5c-0.8,1.2-1.3,2.8-1.3,4.2C78,55.7,78.1,66.6,78.1,77.9z"/>
	<path class="st0" d="M25.8,34.2c1.4-4.2,2.6-8.1,3.9-12c0.4,0,0.9-0.1,1.3-0.1c1.3,3.8,2.6,7.7,4.1,12.1
		C31.7,34.2,29.2,34.2,25.8,34.2z"/>
	<path class="st0" d="M69.2,34.4c1.5-4.5,2.8-8.4,4.1-12.2c0.4,0,0.9,0,1.3,0.1c1.3,3.9,2.6,7.8,4,12.2
		C75.3,34.4,72.7,34.4,69.2,34.4z"/>
</g>
</svg>
