<?xml version="1.0" encoding="utf-8"?>
<!-- Generator: Adobe Illustrator 22.0.1, SVG Export Plug-In . SVG Version: 6.00 Build 0)  -->
<svg version="1.1" id="Слой_1" xmlns="http://www.w3.org/2000/svg" xmlns:xlink="http://www.w3.org/1999/xlink" x="0px" y="0px"
	 viewBox="0 0 61.3 44" style="enable-background:new 0 0 61.3 44;" xml:space="preserve">
<style type="text/css">
	.st0{clip-path:url(#SVGID_2_);fill:#66A1C8;}
</style>
<g>
	<defs>
		<rect id="SVGID_1_" y="0" width="61.3" height="44"/>
	</defs>
	<clipPath id="SVGID_2_">
		<use xlink:href="#SVGID_1_"  style="overflow:visible;"/>
	</clipPath>
	<path class="st0" d="M36.3,29.1c0,1.4,0,2.7,0,4.1c0,1.8,0.1,3.6,0,5.4c-0.1,3-2.7,5.4-5.6,5.4c-3-0.1-5.5-2.5-5.5-5.6
		c0-3.1,0-6.1,0-8.9c-1.1-0.8-2.3-1.3-2.9-2.1c-0.6-0.9-0.6-2.2-0.6-3.3c-0.1-1.2,0-2.5,0-3.7c0.1-4.5,2.4-7.3,6.9-8
		c3.2-0.5,6.2-0.2,8.8,1.9c1.7,1.3,2.4,3.2,2.5,5.3c0.1,1.7,0,3.4,0,5.2C39.8,27.4,39,28.4,36.3,29.1"/>
	<path class="st0" d="M47.9,28.4c0,2.8,0,5.6,0,8.4c0,2.1-1.3,4-3.3,4.7c-2.1,0.7-4.4,0.2-5.6-1.6c-0.6-0.9-1-2-1.1-3.1
		c-0.2-2-0.1-4,0-6c0-0.4,0.4-0.9,0.7-1.2c1.7-1.1,2.5-2.5,2.4-4.5c0-1.2,0-2.5,0-3.7c0.1-2.7-0.2-5.4-2.2-7.5
		c3.7-1.9,9.3-0.6,11.1,2.5c0.6,1,0.9,2.3,1,3.5c0.2,1.5,0,3,0,4.5C51,26.8,50.3,27.8,47.9,28.4"/>
	<path class="st0" d="M22.6,14c-1.9,2.2-2.3,4.7-2.2,7.5c0,1.2,0,2.4,0,3.6c0,2,0.8,3.5,2.5,4.6c0.3,0.2,0.7,0.7,0.7,1
		c0.1,2,0.1,4.1,0,6.1c-0.1,2.9-2.3,5-5.1,4.9c-2.9-0.1-4.8-2.1-4.9-5.1c0-1.2,0-2.5,0-3.7c0-0.8,0-1.5,0-2.3
		c0.1-1.4-0.1-2.4-1.7-2.9c-1.1-0.4-1.4-1.5-1.5-2.7c0-1.5,0-3,0-4.4c0-4.3,2.1-6.7,6.3-7.3C19.1,13,21,13.2,22.6,14"/>
	<path class="st0" d="M50.7,14.7c3.6-1.9,9.3-0.2,10.2,3.4c0.6,2.4,0.4,5,0.3,7.5c0,0.7-1,1.5-1.7,1.9c-0.7,0.4-0.9,0.7-0.9,1.4
		c0,2.3,0.1,4.6,0,6.8c-0.1,2.1-1.8,3.8-3.8,4.1c-2.3,0.3-4.3-0.8-5-2.9c-0.3-0.9-0.3-1.8-0.3-2.7c-0.1-1,0-1.9,0-2.9
		c-0.1-1.2,0-2.1,1.3-2.9c0.7-0.5,1.4-1.6,1.4-2.5c0.2-2.5,0.1-4.9-0.1-7.4C51.9,17.2,51.2,16,50.7,14.7"/>
	<path class="st0" d="M11.1,14.8c-1.8,2.1-2,4.5-1.9,6.9c0,0.9,0,1.8,0,2.8c-0.1,2,0.6,3.6,2.3,4.7c0.3,0.2,0.5,0.8,0.5,1.2
		c0,1.8,0,3.6,0,5.4c0,1.4-1.3,3.2-2.7,3.7c-1.9,0.7-3.8,0.3-5-0.9c-1.1-1.1-1.5-2.4-1.5-3.9c0.1-2,0-3.9,0-5.9
		c0-0.7-0.1-1.1-0.9-1.3c-1.3-0.3-1.9-1.4-2-2.7c0-1.5-0.1-3,0-4.4c0.2-3.5,2-5.5,5.4-6.1C7.3,14,9.1,14,11.1,14.8"/>
	<path class="st0" d="M36.2,5.5c0,3.5-2.5,5.4-5.4,5.6c-3,0.2-5.6-2.5-5.7-5.5c0-3,2.6-5.7,5.6-5.6C33.8,0,36.2,2.5,36.2,5.5"/>
	<path class="st0" d="M23.5,7.2c0,2.8-2.1,4.9-4.9,4.9c-2.8,0-5-2.2-4.9-5c0-2.8,2.2-4.9,5-4.8C21.4,2.3,23.5,4.4,23.5,7.2"/>
	<path class="st0" d="M42.8,12.2c-2.7,0-4.9-2.3-4.9-5c0-2.6,2.5-4.9,5-4.9c2.7,0,5,2.3,5,5C47.9,10,45.6,12.2,42.8,12.2"/>
	<path class="st0" d="M54.1,13.1c-2.5,0-4.5-1.9-4.5-4.4c0-2.5,1.9-4.5,4.3-4.5c2.6,0,4.6,1.9,4.6,4.5
		C58.5,11.1,56.5,13.1,54.1,13.1"/>
	<path class="st0" d="M7.4,13.1c-2.4,0-4.5-2-4.5-4.4c0-2.5,2-4.5,4.5-4.5c2.5,0,4.5,2,4.5,4.5C11.9,11.1,9.9,13.1,7.4,13.1"/>
</g>
</svg>
