<?xml version="1.0" encoding="UTF-8" standalone="no"?>
<!DOCTYPE svg PUBLIC "-//W3C//DTD SVG 1.1//EN" "http://www.w3.org/Graphics/SVG/1.1/DTD/svg11.dtd">
<svg version="1.1" xmlns="http://www.w3.org/2000/svg" xmlns:xlink="http://www.w3.org/1999/xlink" preserveAspectRatio="xMidYMid meet" viewBox="0 0 100 100" width="100" height="100"><defs><path d="M93.1 4.07L93.2 4.07L93.31 4.08L93.42 4.1L93.53 4.11L93.64 4.13L93.75 4.15L93.86 4.17L93.98 4.19L94.09 4.22L94.21 4.25L94.33 4.28L94.44 4.31L94.56 4.35L94.69 4.39L94.81 4.43L94.93 4.48L95.06 4.53L95.18 4.58L95.31 4.63L95.44 4.68L95.57 4.74L95.7 4.8L95.83 4.87L95.96 4.93L96.1 5L96.23 5.07L96.37 5.14L96.5 5.22L96.64 5.3L96.78 5.38L96.92 5.46L97.07 5.55L97.21 5.64L97.36 5.73L97.5 5.82L97.65 5.92L97.8 6.02L97.95 6.12L98.04 6.22L98.13 6.33L98.22 6.44L98.31 6.55L98.4 6.66L98.48 6.77L98.56 6.88L98.65 6.99L98.72 7.1L98.8 7.22L98.87 7.33L98.95 7.45L99.02 7.56L99.09 7.68L99.15 7.8L99.22 7.92L99.28 8.04L99.34 8.16L99.39 8.28L99.45 8.41L99.5 8.53L99.55 8.66L99.6 8.79L99.64 8.91L99.68 9.04L99.72 9.18L99.76 9.31L99.8 9.44L99.83 9.58L99.86 9.72L99.88 9.85L99.91 9.99L99.93 10.14L99.95 10.28L99.96 10.42L99.98 10.57L99.99 10.72L99.99 10.87L100 11.02L100 11.17L100 82.58L100 82.72L100 82.86L99.99 83L99.98 83.14L99.97 83.28L99.96 83.42L99.94 83.56L99.92 83.7L99.9 83.83L99.88 83.97L99.85 84.1L99.83 84.24L99.79 84.37L99.76 84.5L99.73 84.64L99.69 84.77L99.65 84.9L99.6 85.03L99.56 85.16L99.51 85.28L99.45 85.41L99.4 85.54L99.34 85.66L99.28 85.79L99.22 85.91L99.16 86.03L99.09 86.15L99.02 86.27L98.94 86.39L98.87 86.51L98.79 86.63L98.71 86.74L98.62 86.86L98.53 86.97L98.44 87.09L98.35 87.2L98.25 87.31L98.15 87.42L98.05 87.53L97.95 87.63L97.84 87.74L97.73 87.84L97.62 87.94L97.51 88.04L97.4 88.13L97.29 88.22L97.17 88.31L97.06 88.39L96.94 88.47L96.82 88.55L96.7 88.63L96.59 88.7L96.47 88.77L96.34 88.84L96.22 88.91L96.1 88.97L95.97 89.03L95.85 89.09L95.72 89.14L95.6 89.19L95.47 89.24L95.34 89.29L95.21 89.33L95.08 89.37L94.95 89.41L94.82 89.45L94.68 89.48L94.55 89.51L94.42 89.54L94.28 89.57L94.14 89.59L94.01 89.61L93.87 89.63L93.73 89.64L93.59 89.66L93.45 89.67L93.31 89.68L93.17 89.68L93.03 89.69L92.89 89.69L7.11 89.69L6.96 89.69L6.8 89.68L6.65 89.68L6.51 89.67L6.36 89.66L6.22 89.64L6.07 89.63L5.93 89.61L5.79 89.59L5.65 89.57L5.52 89.54L5.38 89.51L5.25 89.48L5.11 89.45L4.98 89.41L4.85 89.37L4.72 89.33L4.6 89.29L4.47 89.24L4.34 89.19L4.22 89.14L4.1 89.09L3.98 89.03L3.86 88.97L3.74 88.91L3.62 88.84L3.5 88.77L3.38 88.7L3.27 88.63L3.15 88.55L3.04 88.47L2.93 88.39L2.82 88.31L2.71 88.22L2.59 88.13L2.49 88.04L2.38 87.94L2.27 87.84L2.16 87.74L2.05 87.63L1.95 87.53L1.85 87.42L1.75 87.31L1.65 87.2L1.56 87.09L1.47 86.97L1.38 86.86L1.29 86.74L1.21 86.63L1.13 86.51L1.06 86.39L0.98 86.27L0.91 86.15L0.84 86.03L0.78 85.91L0.72 85.79L0.66 85.66L0.6 85.54L0.55 85.41L0.49 85.28L0.44 85.16L0.4 85.03L0.35 84.9L0.31 84.77L0.27 84.64L0.24 84.5L0.21 84.37L0.17 84.24L0.15 84.1L0.12 83.97L0.1 83.83L0.08 83.7L0.06 83.56L0.04 83.42L0.03 83.28L0.02 83.14L0.01 83L0 82.86L0 82.72L0 82.58L0 11.17L0 11.02L0 10.87L0.01 10.72L0.02 10.57L0.03 10.42L0.04 10.28L0.06 10.14L0.08 9.99L0.1 9.85L0.12 9.72L0.15 9.58L0.17 9.44L0.21 9.31L0.24 9.18L0.27 9.04L0.31 8.91L0.35 8.79L0.4 8.66L0.44 8.53L0.49 8.41L0.55 8.28L0.6 8.16L0.66 8.04L0.72 7.92L0.78 7.8L0.84 7.68L0.91 7.56L0.98 7.45L1.06 7.33L1.13 7.22L1.21 7.1L1.29 6.99L1.38 6.88L1.47 6.77L1.56 6.66L1.65 6.55L1.75 6.44L1.85 6.33L1.95 6.22L2.05 6.12L2.16 6.01L2.27 5.91L2.38 5.81L2.49 5.71L2.6 5.62L2.71 5.53L2.83 5.44L2.94 5.36L3.06 5.28L3.18 5.2L3.3 5.12L3.41 5.05L3.53 4.98L3.66 4.91L3.78 4.84L3.9 4.78L4.03 4.72L4.15 4.66L4.28 4.61L4.4 4.56L4.53 4.51L4.66 4.46L4.79 4.42L4.92 4.38L5.05 4.34L5.18 4.3L5.32 4.27L5.45 4.24L5.58 4.21L5.72 4.18L5.86 4.16L5.99 4.14L6.13 4.12L6.27 4.11L6.41 4.09L6.55 4.08L6.69 4.07L6.83 4.07L6.97 4.06L7.11 4.06L92.89 4.06L92.99 4.06L93.1 4.07ZM7.11 82.58L92.89 82.58L92.89 75.47L7.11 75.47L7.11 82.58ZM48.71 29.06L48.04 29.11L47.39 29.17L46.73 29.25L46.09 29.35L45.46 29.47L44.84 29.61L44.22 29.77L43.62 29.94L43.02 30.14L42.43 30.35L41.84 30.58L41.27 30.83L40.7 31.1L40.14 31.39L39.59 31.7L39.04 32.03L38.5 32.38L37.97 32.74L37.45 33.13L36.93 33.53L36.42 33.95L35.91 34.4L35.41 34.86L34.91 35.34L34.59 35.68L34.27 36.04L33.96 36.42L33.65 36.81L33.35 37.23L33.06 37.66L32.78 38.12L32.5 38.6L32.23 39.09L31.96 39.61L31.7 40.14L31.45 40.69L31.2 41.27L30.96 41.86L30.73 42.47L30.5 43.11L30.28 43.76L30.07 44.43L29.86 45.12L29.66 45.83L29.47 46.56L29.28 47.31L29.1 48.08L28.92 48.87L28.76 49.68L28.59 50.51L28.6 51.2L28.63 51.88L28.68 52.55L28.74 53.21L28.82 53.87L28.92 54.51L29.04 55.15L29.18 55.78L29.34 56.4L29.51 57.01L29.71 57.62L29.92 58.21L30.15 58.8L30.41 59.38L30.68 59.95L30.96 60.51L31.27 61.07L31.6 61.61L31.95 62.15L32.31 62.68L32.7 63.2L33.1 63.71L33.52 64.21L33.97 64.71L34.43 65.2L34.91 65.67L35.41 66.16L35.91 66.62L36.42 67.06L36.94 67.49L37.46 67.89L37.99 68.28L38.53 68.64L39.07 68.99L39.63 69.32L40.19 69.62L40.75 69.91L41.32 70.18L41.9 70.43L42.49 70.67L43.08 70.88L43.69 71.07L44.29 71.25L44.91 71.41L45.53 71.54L46.16 71.66L46.79 71.76L47.44 71.85L48.09 71.91L48.74 71.96L49.41 71.98L50.08 71.99L50.77 71.98L51.44 71.95L52.11 71.91L52.77 71.84L53.42 71.75L54.06 71.64L54.7 71.52L55.32 71.37L55.94 71.21L56.54 71.03L57.14 70.83L57.73 70.61L58.31 70.37L58.89 70.12L59.46 69.85L60.02 69.55L60.57 69.25L61.11 68.92L61.65 68.57L62.19 68.21L62.71 67.83L63.23 67.43L63.74 67.02L64.25 66.59L64.75 66.14L65.24 65.67L65.73 65.18L66.19 64.68L66.63 64.17L67.06 63.65L67.46 63.13L67.85 62.6L68.21 62.06L68.56 61.51L68.89 60.96L69.19 60.4L69.48 59.84L69.75 59.26L70 58.68L70.24 58.1L70.45 57.5L70.64 56.9L70.82 56.29L70.98 55.68L71.11 55.06L71.23 54.43L71.34 53.79L71.42 53.15L71.48 52.5L71.53 51.84L71.55 51.18L71.56 50.51L71.55 49.82L71.52 49.14L71.48 48.47L71.41 47.81L71.32 47.15L71.21 46.5L71.09 45.87L70.95 45.24L70.78 44.62L70.6 44L70.4 43.4L70.18 42.8L69.94 42.21L69.69 41.64L69.42 41.06L69.12 40.5L68.82 39.95L68.49 39.4L68.14 38.87L67.78 38.34L67.4 37.82L67 37.31L66.59 36.8L66.16 36.31L65.71 35.82L65.24 35.34L64.75 34.86L64.25 34.4L63.74 33.95L63.22 33.53L62.7 33.13L62.17 32.74L61.63 32.38L61.08 32.03L60.53 31.7L59.97 31.39L59.41 31.1L58.83 30.83L58.25 30.58L57.67 30.35L57.07 30.14L56.47 29.94L55.87 29.77L55.25 29.61L54.63 29.47L54 29.35L53.36 29.25L52.72 29.17L52.07 29.11L51.41 29.06L50.75 29.03L50.08 29.02L49.39 29.03L48.71 29.06ZM43.13 18.44L7.11 18.44L7.11 25.55L92.89 25.55L93.05 18.91L93.05 11.33L46.76 11.33L43.13 18.44ZM14.22 14.65L35.7 14.65L35.7 7.54L14.22 7.54L14.22 14.65Z" id="a1oC8QIO1"></path><path d="M51.29 36.19L51.95 36.27L52.61 36.37L53.25 36.5L53.87 36.66L54.49 36.86L55.09 37.08L55.69 37.33L56.27 37.61L56.84 37.92L57.4 38.26L57.94 38.63L58.48 39.03L59.01 39.45L59.52 39.91L60.03 40.4L60.52 40.9L60.98 41.42L61.4 41.95L61.8 42.49L62.17 43.03L62.51 43.59L62.82 44.16L63.1 44.74L63.35 45.34L63.57 45.94L63.77 46.56L63.93 47.18L64.06 47.82L64.16 48.48L64.24 49.14L64.28 49.82L64.3 50.51L64.28 50.98L64.24 51.47L64.16 51.97L64.06 52.49L63.93 53.02L63.77 53.57L63.57 54.14L63.35 54.72L63.1 55.31L62.82 55.92L62.51 56.55L62.17 57.19L61.8 57.84L61.4 58.51L60.98 59.2L60.52 59.9L60.03 60.62L59.55 61.11L59.05 61.56L58.54 61.99L58.01 62.39L57.46 62.76L56.91 63.09L56.33 63.4L55.75 63.67L55.15 63.92L54.54 64.13L53.91 64.31L53.27 64.46L52.63 64.58L51.97 64.66L51.29 64.72L50.61 64.74L49.92 64.73L49.23 64.71L48.55 64.67L47.89 64.61L47.24 64.51L46.6 64.39L45.97 64.24L45.35 64.06L44.75 63.85L44.16 63.62L43.58 63.35L43.01 63.05L42.45 62.73L41.9 62.37L41.36 61.98L40.83 61.56L40.32 61.1L39.81 60.62L39.35 60.11L38.92 59.6L38.51 59.07L38.13 58.53L37.77 57.98L37.45 57.42L37.15 56.85L36.88 56.27L36.63 55.68L36.42 55.08L36.23 54.46L36.07 53.83L35.94 53.19L35.83 52.54L35.76 51.88L35.72 51.2L35.7 50.51L35.72 49.82L35.76 49.14L35.82 48.48L35.92 47.82L36.04 47.18L36.19 46.56L36.37 45.94L36.58 45.34L36.81 44.74L37.08 44.16L37.38 43.59L37.7 43.03L38.06 42.49L38.45 41.95L38.87 41.42L39.32 40.9L39.81 40.4L40.32 39.91L40.83 39.45L41.36 39.03L41.9 38.63L42.45 38.26L43.01 37.92L43.58 37.61L44.16 37.33L44.75 37.08L45.35 36.86L45.97 36.66L46.6 36.5L47.24 36.37L47.89 36.27L48.55 36.19L49.23 36.15L49.92 36.13L50.61 36.15L51.29 36.19ZM47.7 41.81L46.62 42.19L45.61 42.72L44.66 43.39L43.76 44.19L42.96 45.09L42.29 46.04L41.77 47.05L41.38 48.13L41.15 49.28L41.07 50.51L41.09 50.74L41.13 50.98L41.19 51.2L41.28 51.41L41.4 51.6L41.55 51.77L41.72 51.92L41.91 52.04L42.12 52.13L42.34 52.19L42.58 52.23L42.81 52.25L43.05 52.23L43.28 52.19L43.5 52.13L43.71 52.04L43.91 51.92L44.08 51.77L44.22 51.6L44.34 51.41L44.43 51.2L44.5 50.98L44.54 50.74L44.55 50.51L44.59 50.01L44.73 49.46L44.94 48.85L45.25 48.19L45.65 47.48L46.13 46.72L46.7 46.22L47.29 45.81L47.93 45.49L48.6 45.25L49.31 45.09L50.08 44.98L50.32 44.97L50.55 44.93L50.77 44.86L50.98 44.77L51.17 44.65L51.34 44.51L51.49 44.33L51.61 44.14L51.7 43.93L51.76 43.71L51.8 43.48L51.82 43.24L51.8 43.01L51.76 42.77L51.7 42.55L51.61 42.34L51.49 42.15L51.34 41.98L51.17 41.83L50.98 41.71L50.77 41.62L50.55 41.56L50.32 41.52L50.08 41.5L48.85 41.58L47.7 41.81Z" id="aXP73xoQ2"></path></defs><g><g><g><use xlink:href="#a1oC8QIO1" opacity="1" fill="#448dbc" fill-opacity="1"></use><g><use xlink:href="#a1oC8QIO1" opacity="1" fill-opacity="0" stroke="#000000" stroke-width="1" stroke-opacity="0"></use></g></g><g><use xlink:href="#aXP73xoQ2" opacity="1" fill="#448dbc" fill-opacity="1"></use><g><use xlink:href="#aXP73xoQ2" opacity="1" fill-opacity="0" stroke="#000000" stroke-width="1" stroke-opacity="0"></use></g></g></g></g></svg>