<?xml version="1.0" encoding="utf-8"?>
<!-- Generator: Adobe Illustrator 23.0.1, SVG Export Plug-In . SVG Version: 6.00 Build 0)  -->
<svg version="1.1" id="Layer_1" xmlns="http://www.w3.org/2000/svg" xmlns:xlink="http://www.w3.org/1999/xlink" x="0px" y="0px"
	 viewBox="0 0 100 100" style="enable-background:new 0 0 100 100;" xml:space="preserve">
<style type="text/css">
	.st0{fill:#448DBC;}
</style>
<path class="st0" d="M83.81,50.02c0-0.01,0-0.02,0-0.02c0-0.28,0-0.56-0.01-0.84c-0.01-0.26-0.02-0.52-0.03-0.78c0,0,0-0.01,0-0.01
	c-0.24-5.19-1.66-10.08-4-14.4c-0.01,0-0.02,0-0.03,0.01c-3.68-6.79-9.61-12.18-16.78-15.17c0-0.01,0-0.02,0-0.02
	c-3.99-1.66-8.38-2.58-12.97-2.59c-18.54-0.04-33.71,15.06-33.8,33.66c-0.1,18.65,15.04,33.9,33.72,33.97
	c12.86,0.04,24.1-7.15,29.84-17.75c0.01,0,0.02,0,0.03,0.01c2.46-4.55,3.9-9.73,4.03-15.24c0.01-0.26,0.01-0.53,0.01-0.79
	C83.81,50.03,83.81,50.03,83.81,50.02z M21.88,45.15c0.99,1.24,1.93,2.31,2.75,3.46c0.48,0.68,0.96,1,1.79,0.74
	c0.48-0.15,0.99-0.16,1.48-0.27c0.7-0.16,1.25-0.18,1.47,0.74c0.05,0.22,0.7,0.48,1,0.41c0.8-0.16,1.09,0.07,1.23,0.87
	c0.52,2.9,1.07,5.79,0.85,8.76c-0.05,0.62,0.28,0.93,0.91,0.91c0.36-0.01,0.72,0.02,1.08-0.01c0.93-0.08,1.29,0.32,1.28,1.26
	c-0.02,1.56,0.03,1.53,1.64,1.82c2.65,0.47,2.48-0.14,2.45,2.89c-0.03,2.42-0.04,4.84,0.84,7.13c0.48,1.26,1.13,2.46,1.67,3.61
	C28.56,74.28,19.05,59.27,21.88,45.15z M48.45,78.52c-0.27-0.98-0.55-1.93-0.8-2.89c-0.05-0.2-0.07-0.45,0.02-0.62
	c0.72-1.52,1.42-3.05,2.22-4.53c0.2-0.37,0.67-0.64,1.07-0.86c1.29-0.71,1.82-1.59,1.41-3.02c-0.43-1.49-0.35-2.71,0.64-4.01
	c1.02-1.35,0.22-3.28-1.47-3.63c-1.85-0.39-2.63-1.44-2.64-3.23c0-0.11-0.05-0.22-0.04-0.32c0.3-3.84-2.54-5.68-4.97-7.77
	c-0.68-0.59-1.5-0.57-2.34-0.21c-2.53,1.1-5.07,2.17-7.86,3.36c0.22-0.49,0.33-0.76,0.45-1.03c1.31-2.75,2.85-5.42,3.85-8.28
	c0.67-1.91,0.61-4.09,0.78-6.15c0.05-0.58-0.19-1.2-0.38-1.78c-0.69-2.04-0.74-2.07-2.87-2.07c-1.26,0-2.52,0-3.78,0
	c-0.68,0-1.38-0.09-2.05,0.02c-0.65,0.11-1.27,0.43-1.89,0.65c6.82-9.56,20.75-13.39,32.45-8.9c5.7,2.22,10.62,6.29,13.9,11.37
	c-2.62,0.03-5.18-0.49-7.43-2.15c-0.93-0.69-1.64-1.47-2.18-2.32c-0.55,0.24-1.1,0.47-1.65,0.68c-1.43,0.57-2.61,1.43-3.77,2.42
	c-1.07,0.91-2.29,1.7-3.54,2.34c-2.12,1.08-3.17,3.13-2.59,5.44c0.05,0.21,0.09,0.46,0.24,0.59c1.34,1.23,2.59,2.61,4.09,3.62
	c1.72,1.16,3.64,2.03,5.5,2.96c0.64,0.32,0.92,0.72,0.87,1.42c-0.03,0.43,0.13,0.88,0.04,1.29c-0.73,3.68,2.06,5.52,4.08,7.73
	c0.15,0.16,0.64,0.13,0.93,0.04c0.5-0.16,0.98-0.36,1.43-0.59v0.61c0.08-0.04,0.16-0.06,0.24-0.08c1.74-0.37,3.7,0.6,4.94,1.79
	c0.41,0.39,0.69,0.8,0.86,1.2C71.6,72,60.44,79.56,48.45,78.52z"/>
</svg>
