<?xml version="1.0" encoding="UTF-8" standalone="no"?>
<!DOCTYPE svg PUBLIC "-//W3C//DTD SVG 1.1//EN" "http://www.w3.org/Graphics/SVG/1.1/DTD/svg11.dtd">
<svg version="1.1" xmlns="http://www.w3.org/2000/svg" xmlns:xlink="http://www.w3.org/1999/xlink" preserveAspectRatio="xMidYMid meet" viewBox="0 0 100 100" width="100" height="100"><defs><path d="M51.27 0.57L51.77 0.59L52.27 0.6L52.77 0.63L53.27 0.66L53.77 0.69L54.27 0.73L54.77 0.77L55.26 0.82L55.75 0.87L56.24 0.93L56.73 0.99L57.22 1.06L57.71 1.13L58.2 1.2L58.68 1.28L59.16 1.37L59.64 1.46L60.12 1.55L60.6 1.65L61.08 1.76L61.55 1.86L62.02 1.98L62.5 2.09L62.96 2.22L63.43 2.34L63.9 2.47L64.36 2.61L64.82 2.75L65.28 2.89L65.74 3.04L66.2 3.19L66.65 3.34L67.1 3.5L67.55 3.67L68 3.84L68.44 4.01L68.89 4.19L69.33 4.37L69.33 4.4L70.12 4.73L70.9 5.08L71.67 5.45L72.43 5.82L73.19 6.21L73.94 6.61L74.69 7.02L75.42 7.45L76.15 7.88L76.87 8.33L77.58 8.79L78.28 9.27L78.98 9.75L79.66 10.25L80.34 10.75L81.01 11.27L81.67 11.8L82.32 12.34L82.96 12.89L83.59 13.45L84.21 14.03L84.82 14.61L85.42 15.2L86.01 15.8L86.6 16.42L87.17 17.04L87.73 17.67L88.28 18.31L88.82 18.96L89.35 19.62L89.86 20.29L90.37 20.97L90.86 21.66L91.35 22.35L91.82 23.06L92.28 23.77L92.73 24.49L93.16 25.22L93.59 25.96L94 26.7L94.01 26.7L94.01 26.69L94.02 26.69L94.02 26.69L94.03 26.69L94.03 26.69L94.05 26.69L94.3 27.17L94.55 27.65L94.8 28.13L95.04 28.62L95.27 29.11L95.5 29.6L95.73 30.1L95.94 30.6L96.16 31.1L96.37 31.6L96.57 32.11L96.77 32.62L96.96 33.13L97.14 33.65L97.32 34.17L97.5 34.69L97.67 35.21L97.83 35.74L97.99 36.26L98.14 36.8L98.29 37.33L98.43 37.86L98.57 38.4L98.69 38.94L98.82 39.48L98.93 40.03L99.05 40.57L99.15 41.12L99.25 41.67L99.34 42.23L99.43 42.78L99.51 43.34L99.58 43.9L99.65 44.46L99.71 45.02L99.77 45.59L99.82 46.15L99.86 46.72L99.9 47.29L99.93 47.86L99.93 47.88L99.97 49.02L99.97 49.05L99.97 49.08L99.97 49.12L99.97 49.15L99.98 49.18L99.98 49.21L99.98 49.24L99.98 49.27L99.98 49.3L99.98 49.33L99.98 49.36L99.98 49.39L99.98 49.42L99.98 49.46L99.98 49.49L99.98 49.52L99.98 49.55L99.98 49.58L99.98 49.61L99.98 49.67L99.98 49.7L99.98 49.73L99.98 49.79L99.98 49.83L99.98 49.89L99.99 49.95L99.99 49.98L99.99 50.04L99.99 50.13L99.99 50.29L99.99 50.3L99.99 50.31L99.99 50.31L99.99 50.32L100 50.35L100 50.49L100 50.55L100 50.58L100 50.64L100 50.69L100 50.75L100 50.81L100 50.84L100 50.9L100 50.93L100 50.96L100 50.99L100 51.01L100 51.04L100 51.07L100 51.1L100 51.13L99.99 51.16L99.99 51.19L99.99 51.22L99.99 51.25L99.99 51.28L99.99 51.31L99.99 51.33L99.99 51.36L99.99 51.39L99.99 51.42L99.99 51.45L99.99 51.48L99.99 51.51L99.97 52.11L99.94 52.72L99.91 53.32L99.87 53.92L99.82 54.52L99.77 55.12L99.71 55.71L99.64 56.31L99.57 56.9L99.49 57.49L99.4 58.07L99.3 58.66L99.2 59.24L99.1 59.82L98.98 60.39L98.86 60.97L98.73 61.54L98.6 62.11L98.45 62.68L98.31 63.24L98.15 63.8L97.99 64.36L97.83 64.92L97.65 65.47L97.47 66.02L97.29 66.57L97.1 67.11L96.9 67.66L96.69 68.2L96.48 68.73L96.27 69.26L96.05 69.79L95.82 70.32L95.58 70.84L95.35 71.36L95.1 71.88L94.85 72.4L94.59 72.91L94.33 73.41L94.06 73.92L94.06 73.91L94.05 73.91L94.04 73.9L94.04 73.9L94.03 73.9L94.03 73.9L94.02 73.9L93.37 75.06L92.69 76.2L91.98 77.32L91.25 78.42L90.48 79.5L89.69 80.56L88.87 81.59L88.03 82.61L87.16 83.6L86.26 84.56L85.34 85.51L84.39 86.42L83.42 87.32L82.43 88.18L81.41 89.02L80.37 89.84L79.31 90.62L78.23 91.38L77.13 92.12L76 92.82L74.86 93.49L73.7 94.13L72.52 94.75L71.32 95.33L70.11 95.88L68.87 96.4L67.63 96.88L66.36 97.33L65.08 97.75L63.79 98.14L62.48 98.49L61.15 98.8L59.82 99.08L58.47 99.33L57.11 99.53L55.74 99.7L54.35 99.84L52.96 99.93L51.55 99.98L50.14 100L48.09 99.95L46.06 99.82L44.06 99.61L42.07 99.32L40.12 98.95L38.19 98.51L36.29 97.99L34.42 97.4L32.59 96.74L30.79 96.01L29.02 95.21L27.29 94.35L25.6 93.42L23.95 92.43L22.34 91.38L20.78 90.27L19.26 89.1L17.79 87.88L16.37 86.6L15 85.27L13.67 83.89L12.41 82.46L11.19 80.98L10.04 79.45L8.94 77.88L7.9 76.27L6.93 74.61L6.01 72.91L5.16 71.18L4.38 69.41L3.67 67.61L3.02 65.77L2.45 63.9L1.95 62L1.52 60.07L1.17 58.11L0.9 56.13L0.7 54.13L0.59 52.1L0.56 50.05L0.61 48.01L0.74 45.99L0.96 43.99L1.25 42.02L1.62 40.07L2.06 38.15L2.57 36.26L3.16 34.4L3.82 32.57L4.55 30.77L5.34 29.01L6.2 27.29L7.12 25.61L8.11 23.96L9.16 22.36L10.26 20.8L11.42 19.29L12.64 17.82L13.91 16.4L15.24 15.03L16.61 13.71L18.04 12.44L19.51 11.23L21.03 10.08L22.59 8.98L24.19 7.95L25.84 6.97L27.53 6.06L29.25 5.21L31.01 4.42L32.81 3.71L34.63 3.06L36.49 2.48L38.38 1.98L40.3 1.55L42.25 1.19L44.22 0.92L46.21 0.72L48.22 0.6L50.26 0.56L50.76 0.56L51.27 0.57ZM48 8.23L46.66 8.33L45.33 8.46L44.01 8.63L42.69 8.85L41.38 9.1L40.08 9.39L38.8 9.72L37.52 10.09L36.27 10.5L35.03 10.95L33.8 11.43L32.6 11.95L31.41 12.51L30.25 13.11L29.11 13.74L27.99 14.41L26.9 15.11L25.83 15.85L24.79 16.62L23.78 17.43L22.8 18.27L21.85 19.14L20.94 20.05L20.06 20.99L19.21 21.97L18.4 22.97L17.63 24.01L17.7 23.99L17.77 23.96L17.84 23.94L17.9 23.91L17.97 23.88L18.04 23.86L18.11 23.83L18.18 23.8L18.25 23.78L18.32 23.75L18.38 23.72L18.45 23.69L18.52 23.67L18.59 23.64L18.66 23.61L18.73 23.58L18.8 23.56L18.87 23.53L18.93 23.5L19 23.47L19.07 23.45L19.14 23.42L19.21 23.39L19.28 23.37L19.35 23.34L19.42 23.32L19.49 23.3L19.56 23.27L19.63 23.25L19.7 23.23L19.77 23.21L19.84 23.19L19.91 23.17L19.98 23.15L20.05 23.13L20.12 23.11L20.2 23.1L20.27 23.08L20.34 23.07L20.41 23.06L20.48 23.04L20.56 23.03L20.63 23.02L20.71 23.02L20.78 23.01L20.86 23L20.93 23L21.01 22.99L21.08 22.99L21.16 22.98L21.23 22.98L21.31 22.98L21.38 22.98L21.46 22.98L21.53 22.98L21.61 22.98L21.68 22.98L21.76 22.98L21.84 22.98L21.91 22.98L21.99 22.98L22.06 22.99L22.14 22.99L22.21 22.99L22.29 22.99L22.37 23L22.44 23L22.52 23L22.59 23.01L22.67 23.01L22.75 23.01L22.82 23.01L22.9 23.02L22.97 23.02L23.05 23.02L23.12 23.02L23.2 23.02L23.27 23.03L23.35 23.03L23.42 23.03L28.98 23.03L29.21 23.03L29.43 23.03L29.64 23.03L29.83 23.03L30.02 23.03L30.2 23.04L30.37 23.05L30.53 23.06L30.68 23.07L30.82 23.08L30.96 23.1L31.08 23.12L31.2 23.14L31.32 23.17L31.43 23.2L31.53 23.23L31.62 23.27L31.72 23.32L31.8 23.37L31.89 23.42L31.96 23.48L32.04 23.55L32.11 23.62L32.18 23.7L32.25 23.79L32.31 23.88L32.37 23.98L32.43 24.09L32.5 24.21L32.55 24.33L32.61 24.46L32.67 24.6L32.73 24.75L32.8 24.91L32.86 25.08L32.92 25.26L32.99 25.44L33.06 25.64L33.13 25.85L33.2 26.07L33.22 26.13L33.24 26.2L33.27 26.26L33.29 26.33L33.31 26.39L33.33 26.46L33.35 26.52L33.37 26.59L33.4 26.65L33.42 26.72L33.44 26.79L33.46 26.85L33.48 26.92L33.5 26.98L33.52 27.05L33.54 27.11L33.56 27.18L33.58 27.25L33.6 27.31L33.61 27.38L33.63 27.45L33.65 27.51L33.66 27.58L33.68 27.64L33.69 27.71L33.7 27.78L33.71 27.84L33.73 27.91L33.73 27.97L33.74 28.04L33.75 28.1L33.76 28.17L33.76 28.24L33.77 28.3L33.77 28.37L33.77 28.43L33.77 28.5L33.77 28.56L33.77 28.62L33.76 28.69L33.74 28.92L33.73 29.14L33.71 29.37L33.69 29.6L33.68 29.83L33.67 30.06L33.65 30.29L33.64 30.52L33.63 30.75L33.61 30.98L33.6 31.21L33.59 31.45L33.58 31.68L33.56 31.91L33.55 32.14L33.53 32.37L33.52 32.6L33.5 32.83L33.48 33.06L33.46 33.29L33.44 33.52L33.42 33.75L33.4 33.98L33.37 34.21L33.34 34.43L33.31 34.66L33.28 34.89L33.25 35.11L33.21 35.34L33.17 35.56L33.13 35.78L33.09 36L33.04 36.22L32.99 36.44L32.94 36.66L32.88 36.88L32.82 37.09L32.75 37.31L32.69 37.52L32.61 37.73L32.5 38.05L32.39 38.36L32.27 38.67L32.15 38.98L32.03 39.3L31.9 39.61L31.77 39.91L31.65 40.22L31.51 40.53L31.38 40.84L31.24 41.14L31.11 41.45L30.97 41.76L30.83 42.06L30.68 42.36L30.54 42.67L30.4 42.97L30.25 43.27L30.1 43.58L29.95 43.88L29.81 44.18L29.66 44.48L29.51 44.78L29.35 45.08L29.2 45.38L29.05 45.69L28.9 45.99L28.75 46.29L28.6 46.59L28.44 46.89L28.29 47.19L28.14 47.49L27.99 47.79L27.84 48.09L27.69 48.39L27.54 48.7L27.39 49L27.24 49.3L27.1 49.6L26.95 49.91L26.94 49.93L26.93 49.96L26.91 49.99L26.9 50.02L26.89 50.05L26.87 50.08L26.86 50.12L26.85 50.15L26.83 50.18L26.82 50.21L26.81 50.24L26.79 50.27L26.78 50.3L26.77 50.34L26.74 50.4L26.69 50.51L26.68 50.54L26.65 50.61L26.63 50.65L26.61 50.69L26.6 50.73L26.58 50.77L26.56 50.81L26.54 50.85L26.53 50.89L26.51 50.93L26.49 50.98L26.47 51.02L26.45 51.07L26.43 51.12L26.41 51.16L26.38 51.21L26.36 51.26L26.34 51.31L26.32 51.37L26.29 51.42L26.6 51.29L26.9 51.16L27.21 51.03L27.51 50.9L27.81 50.77L28.11 50.64L28.41 50.52L28.71 50.39L29.01 50.26L29.3 50.14L29.6 50.01L29.89 49.89L30.19 49.76L30.48 49.64L30.77 49.51L31.06 49.39L31.35 49.27L31.64 49.14L31.93 49.02L32.21 48.9L32.5 48.78L32.79 48.66L33.07 48.53L33.35 48.41L33.64 48.29L33.92 48.17L34.2 48.05L34.49 47.93L34.77 47.81L35.05 47.69L35.33 47.57L35.61 47.45L35.89 47.33L36.17 47.2L36.45 47.08L36.73 46.96L37.01 46.84L37.29 46.72L37.57 46.6L37.85 46.48L37.94 46.44L38.03 46.4L38.13 46.37L38.22 46.34L38.31 46.3L38.4 46.28L38.49 46.25L38.58 46.22L38.68 46.2L38.77 46.18L38.86 46.16L38.95 46.15L39.04 46.14L39.13 46.12L39.22 46.12L39.3 46.11L39.39 46.11L39.48 46.1L39.57 46.11L39.66 46.11L39.74 46.12L39.83 46.13L39.92 46.14L40 46.15L40.09 46.17L40.17 46.19L40.25 46.21L40.34 46.24L40.42 46.27L40.5 46.3L40.58 46.33L40.67 46.37L40.75 46.41L40.83 46.46L40.9 46.5L40.98 46.55L41.06 46.61L41.14 46.66L41.21 46.72L41.29 46.79L41.56 47.02L41.83 47.25L42.1 47.47L42.37 47.7L42.65 47.93L42.92 48.16L43.19 48.39L43.46 48.61L43.73 48.84L44 49.08L44.26 49.31L44.53 49.54L44.78 49.78L45.04 50.02L45.29 50.26L45.53 50.51L45.77 50.76L46 51.01L46.23 51.27L46.45 51.54L46.66 51.8L46.86 52.08L47.06 52.35L47.24 52.64L47.42 52.93L47.59 53.22L47.74 53.53L47.89 53.84L48.02 54.15L48.14 54.48L48.25 54.81L48.35 55.15L48.43 55.5L48.5 55.86L48.56 56.23L48.6 56.6L48.62 56.99L48.63 57.39L48.62 57.79L48.6 58.21L48.6 58.22L48.59 58.23L48.59 58.25L48.59 58.26L48.59 58.27L48.6 58.28L48.6 58.29L48.6 58.3L48.6 58.31L48.6 58.33L48.6 58.34L48.6 58.35L48.6 58.36L48.61 58.37L48.61 58.38L48.61 58.4L48.61 58.41L48.62 58.42L48.62 58.43L48.62 58.44L48.63 58.48L48.63 58.5L48.64 58.53L48.64 58.54L48.64 58.55L48.64 58.56L48.65 58.57L48.65 58.59L48.65 58.6L48.65 58.61L48.65 58.62L48.65 58.63L48.65 58.65L48.65 58.66L48.66 58.67L48.66 58.68L48.66 58.88L48.67 59.07L48.68 59.26L48.69 59.44L48.71 59.62L48.74 59.79L48.77 59.97L48.8 60.13L48.84 60.3L48.89 60.45L48.93 60.61L48.99 60.76L49.04 60.91L49.11 61.05L49.17 61.19L49.24 61.33L49.32 61.46L49.4 61.59L49.49 61.71L49.58 61.83L49.68 61.95L49.78 62.06L49.89 62.17L50 62.27L50.12 62.37L50.24 62.47L50.37 62.56L50.5 62.65L50.64 62.74L50.78 62.82L50.93 62.9L51.09 62.97L51.25 63.04L51.42 63.11L51.59 63.17L51.77 63.23L51.95 63.29L52.14 63.34L52.34 63.39L52.54 63.43L52.72 63.48L52.9 63.53L53.07 63.59L53.24 63.65L53.4 63.73L53.56 63.81L53.71 63.9L53.86 63.99L54 64.1L54.13 64.2L54.26 64.32L54.38 64.44L54.5 64.56L54.61 64.69L54.71 64.82L54.8 64.96L54.89 65.1L54.97 65.25L55.05 65.4L55.11 65.55L55.17 65.7L55.22 65.86L55.27 66.02L55.3 66.18L55.33 66.34L55.35 66.51L55.36 66.67L55.36 66.84L55.36 67L55.34 67.17L55.32 67.34L55.29 67.5L55.25 67.67L55.2 67.83L55.14 67.99L55.07 68.15L54.99 68.31L54.9 68.47L54.81 68.62L54.7 68.77L54.59 68.91L54.49 69.06L54.39 69.2L54.3 69.34L54.21 69.48L54.13 69.62L54.05 69.77L53.98 69.91L53.91 70.05L53.85 70.19L53.79 70.33L53.73 70.47L53.68 70.61L53.64 70.76L53.59 70.9L53.56 71.04L53.52 71.18L53.49 71.33L53.47 71.47L53.44 71.61L53.43 71.76L53.41 71.9L53.4 72.05L53.4 72.19L53.39 72.34L53.39 72.49L53.4 72.64L53.41 72.79L53.42 72.94L53.43 73.09L53.45 73.24L53.47 73.39L53.5 73.55L53.53 73.7L53.56 73.86L53.59 74.02L53.63 74.18L53.67 74.34L53.71 74.5L53.76 74.67L53.8 74.82L53.84 74.98L53.87 75.13L53.9 75.27L53.92 75.42L53.94 75.56L53.95 75.7L53.96 75.83L53.96 75.97L53.95 76.1L53.95 76.23L53.93 76.35L53.92 76.48L53.89 76.6L53.87 76.72L53.83 76.84L53.8 76.95L53.76 77.06L53.71 77.17L53.66 77.28L53.6 77.39L53.54 77.49L53.48 77.6L53.41 77.7L53.33 77.8L53.25 77.89L53.17 77.99L53.08 78.08L52.99 78.18L52.89 78.27L52.79 78.36L52.69 78.45L52.58 78.53L52.46 78.62L52.34 78.7L52.22 78.79L52.09 78.87L51.96 78.95L51.82 79.03L51.68 79.11L51.64 79.13L51.6 79.16L51.55 79.18L51.51 79.21L51.46 79.23L51.41 79.26L51.37 79.28L51.32 79.31L51.28 79.34L51.23 79.36L51.19 79.39L51.14 79.42L51.1 79.45L51.05 79.48L51.01 79.51L50.96 79.53L50.92 79.56L50.87 79.59L50.83 79.62L50.79 79.66L50.75 79.69L50.7 79.72L50.66 79.75L50.62 79.78L50.58 79.82L50.54 79.85L50.51 79.88L50.47 79.92L50.43 79.95L50.4 79.99L50.36 80.03L50.33 80.06L50.3 80.1L50.27 80.14L50.24 80.17L50.21 80.21L50.18 80.25L50.16 80.29L50.13 80.33L50.11 80.37L50.02 80.53L49.94 80.7L49.85 80.86L49.76 81.03L49.68 81.19L49.59 81.35L49.51 81.52L49.42 81.68L49.34 81.85L49.25 82.02L49.17 82.18L49.09 82.35L49 82.51L48.92 82.68L48.84 82.85L48.76 83.01L48.68 83.18L48.6 83.35L48.52 83.51L48.43 83.68L48.35 83.85L48.27 84.01L48.19 84.18L48.11 84.35L48.03 84.52L47.96 84.68L47.88 84.85L47.8 85.02L47.72 85.19L47.64 85.35L47.56 85.52L47.48 85.69L47.4 85.86L47.32 86.03L47.24 86.19L47.16 86.36L47.08 86.53L47.01 86.7L46.93 86.86L46.85 87.03L46.84 87.05L46.83 87.07L46.82 87.09L46.81 87.11L46.8 87.13L46.8 87.15L46.79 87.17L46.79 87.19L46.78 87.22L46.78 87.24L46.77 87.26L46.77 87.28L46.76 87.31L46.76 87.33L46.76 87.35L46.76 87.38L46.76 87.4L46.76 87.42L46.76 87.45L46.75 87.47L46.76 87.49L46.76 87.52L46.76 87.54L46.76 87.57L46.76 87.59L46.76 87.62L46.76 87.64L46.77 87.66L46.77 87.69L46.77 87.71L46.78 87.74L46.78 87.76L46.78 87.78L46.79 87.81L46.79 87.83L46.8 87.85L46.8 87.88L46.81 87.9L46.81 87.92L46.82 87.94L46.84 88.05L46.87 88.15L46.9 88.26L46.93 88.37L46.96 88.47L46.99 88.58L47.01 88.68L47.04 88.79L47.07 88.89L47.1 89L47.13 89.11L47.16 89.21L47.19 89.32L47.22 89.42L47.25 89.53L47.28 89.63L47.31 89.74L47.33 89.85L47.36 89.95L47.39 90.06L47.42 90.16L47.45 90.27L47.48 90.37L47.51 90.48L47.54 90.59L47.6 90.8L47.63 90.91L47.66 91.01L47.69 91.12L47.72 91.23L47.75 91.33L47.78 91.44L47.81 91.55L47.84 91.65L47.87 91.76L47.9 91.87L47.93 91.98L47.96 92.08L47.99 92.19L49.31 92.28L50.63 92.33L51.94 92.33L53.24 92.28L54.53 92.19L55.82 92.06L57.09 91.88L58.36 91.66L59.61 91.4L60.86 91.1L62.09 90.76L63.3 90.38L64.51 89.97L65.7 89.51L66.87 89.03L68.02 88.5L69.16 87.94L70.29 87.35L71.39 86.72L72.47 86.06L73.53 85.37L74.58 84.65L75.6 83.9L76.59 83.12L77.57 82.31L78.51 81.48L79.44 80.61L80.34 79.73L81.21 78.81L82.05 77.87L82.87 76.91L83.66 75.93L84.41 74.92L85.14 73.89L85.83 72.85L86.5 71.78L87.13 70.69L87.72 69.59L88.28 68.47L88.81 67.33L88.79 67.28L88.77 67.24L88.75 67.2L88.73 67.15L88.71 67.11L88.69 67.06L88.66 67.02L88.64 66.97L88.62 66.93L88.59 66.89L88.57 66.84L88.54 66.8L88.51 66.75L88.49 66.71L88.46 66.66L88.43 66.62L88.4 66.57L88.37 66.53L88.34 66.49L88.31 66.44L88.28 66.4L88.25 66.35L88.21 66.31L88.18 66.26L88.15 66.22L88.11 66.18L88.07 66.13L88.04 66.09L88 66.04L87.96 66L87.92 65.96L87.89 65.91L87.85 65.87L87.8 65.82L87.76 65.78L87.72 65.74L87.68 65.69L87.64 65.65L87.59 65.61L87.55 65.56L87.41 65.43L87.26 65.3L87.12 65.18L86.97 65.05L86.82 64.93L86.66 64.8L86.5 64.68L86.34 64.57L86.17 64.45L86 64.34L85.83 64.23L85.66 64.12L85.48 64.02L85.3 63.92L85.12 63.82L84.94 63.73L84.75 63.64L84.57 63.55L84.38 63.47L84.19 63.39L84 63.31L83.81 63.24L83.61 63.18L83.42 63.12L83.22 63.06L83.03 63.01L82.83 62.97L82.64 62.93L82.44 62.9L82.24 62.87L82.04 62.85L81.85 62.83L81.65 62.82L81.45 62.82L81.25 62.82L81.06 62.83L80.86 62.84L80.67 62.87L80.48 62.9L80.28 62.93L80.26 62.94L80.25 62.94L80.22 62.95L80.2 62.95L80.19 62.96L80.18 62.96L80.16 62.96L80.15 62.97L80.13 62.97L80.11 62.98L80.1 62.98L80.08 62.99L80.06 62.99L80.04 63L80.04 63L80.03 63.01L80.01 63.01L80 63.02L79.99 63.02L79.97 63.03L79.96 63.03L79.96 63.04L79.95 63.04L79.94 63.05L79.93 63.05L79.93 62.15L79.88 62.18L79.83 62.2L79.78 62.23L79.73 62.25L79.68 62.28L79.63 62.3L79.58 62.33L79.53 62.35L79.48 62.37L79.43 62.4L79.37 62.42L79.32 62.45L79.27 62.47L79.22 62.49L79.17 62.51L79.12 62.54L79.06 62.56L79.01 62.58L78.96 62.6L78.91 62.63L78.85 62.65L78.8 62.67L78.75 62.69L78.69 62.71L78.64 62.73L78.59 62.75L78.53 62.77L78.48 62.79L78.43 62.81L78.37 62.83L78.32 62.85L78.26 62.87L78.21 62.89L78.16 62.91L78.1 62.93L78.05 62.95L77.99 62.97L77.94 62.98L77.88 63L77.83 63.02L77.79 63.03L77.76 63.04L77.73 63.05L77.69 63.06L77.65 63.07L77.62 63.07L77.58 63.08L77.54 63.09L77.5 63.09L77.46 63.1L77.43 63.11L77.39 63.11L77.35 63.12L77.31 63.12L77.27 63.12L77.23 63.12L77.19 63.13L77.15 63.13L77.11 63.13L77.07 63.13L77.03 63.13L76.99 63.13L76.95 63.13L76.91 63.12L76.88 63.12L76.84 63.11L76.81 63.11L76.77 63.1L76.74 63.1L76.71 63.09L76.68 63.08L76.65 63.07L76.62 63.06L76.59 63.05L76.56 63.04L76.54 63.02L76.52 63.01L76.5 63L76.48 62.98L76.46 62.96L76.23 62.72L76.01 62.48L75.77 62.24L75.54 62L75.31 61.76L75.07 61.53L74.83 61.29L74.59 61.05L74.35 60.81L74.12 60.58L73.88 60.34L73.65 60.1L73.42 59.85L73.2 59.61L72.97 59.36L72.76 59.12L72.54 58.86L72.34 58.61L72.14 58.35L71.94 58.09L71.76 57.82L71.58 57.55L71.41 57.28L71.25 57L71.1 56.71L70.97 56.42L70.84 56.13L70.72 55.82L70.62 55.51L70.53 55.2L70.45 54.87L70.39 54.54L70.34 54.21L70.31 53.86L70.29 53.5L70.29 53.14L70.3 52.77L70.34 52.39L70.39 52L70.46 51.6L70.47 51.55L70.48 51.51L70.48 51.46L70.49 51.41L70.49 51.37L70.5 51.32L70.5 51.27L70.5 51.23L70.5 51.18L70.5 51.13L70.5 51.09L70.5 51.04L70.5 50.99L70.49 50.95L70.49 50.9L70.48 50.85L70.48 50.8L70.47 50.75L70.47 50.71L70.46 50.66L70.46 50.61L70.45 50.56L70.45 50.51L70.44 50.47L70.44 50.42L70.43 50.37L70.43 50.32L70.42 50.27L70.42 50.23L70.41 50.18L70.41 50.13L70.4 50.08L70.4 50.03L70.4 49.99L70.4 49.94L70.4 49.89L70.4 49.84L70.4 49.79L70.4 49.75L70.4 49.7L70.41 49.62L70.41 49.55L70.41 49.47L70.41 49.4L70.41 49.33L70.4 49.26L70.4 49.2L70.39 49.13L70.38 49.07L70.37 49L70.35 48.94L70.34 48.88L70.32 48.82L70.3 48.77L70.28 48.71L70.25 48.66L70.23 48.6L70.2 48.55L70.17 48.5L70.14 48.45L70.11 48.4L70.08 48.35L70.04 48.3L70 48.25L69.96 48.21L69.92 48.16L69.87 48.12L69.83 48.08L69.78 48.03L69.73 47.99L69.68 47.95L69.62 47.91L69.57 47.87L69.51 47.83L69.45 47.79L69.39 47.76L69.33 47.72L69.26 47.68L69.19 47.65L69.12 47.61L68.92 47.51L68.71 47.41L68.51 47.3L68.3 47.2L68.09 47.1L67.89 47L67.68 46.9L67.47 46.8L67.27 46.7L67.06 46.59L66.85 46.49L66.65 46.39L66.44 46.29L66.23 46.19L66.03 46.08L65.82 45.98L65.62 45.88L65.41 45.77L65.21 45.67L65 45.56L64.8 45.46L64.59 45.35L64.39 45.24L64.19 45.13L63.98 45.03L63.78 44.92L63.58 44.8L63.38 44.69L63.18 44.58L62.98 44.47L62.78 44.35L62.59 44.24L62.39 44.12L62.19 44L62 43.88L61.8 43.76L61.61 43.64L61.42 43.51L61.23 43.39L61.04 43.26L60.87 43.15L60.71 43.03L60.55 42.92L60.38 42.8L60.22 42.68L60.07 42.56L59.91 42.43L59.75 42.31L59.6 42.18L59.44 42.06L59.29 41.93L59.14 41.8L58.98 41.66L58.83 41.53L58.68 41.4L58.53 41.26L58.38 41.13L58.24 40.99L58.09 40.86L57.94 40.72L57.79 40.58L57.65 40.44L57.5 40.3L57.35 40.16L57.21 40.02L57.06 39.88L56.92 39.74L56.77 39.6L56.63 39.46L56.48 39.32L56.34 39.18L56.19 39.04L56.05 38.9L55.9 38.76L55.76 38.62L55.61 38.48L55.46 38.35L55.32 38.21L55.17 38.07L55.02 37.94L55.01 37.92L54.99 37.91L54.97 37.89L54.96 37.87L54.95 37.86L54.93 37.84L54.92 37.82L54.91 37.8L54.9 37.78L54.88 37.76L54.87 37.74L54.86 37.72L54.85 37.7L54.84 37.68L54.83 37.66L54.82 37.64L54.81 37.62L54.81 37.59L54.8 37.57L54.79 37.55L54.78 37.52L54.78 37.5L54.77 37.48L54.76 37.45L54.75 37.43L54.75 37.4L54.74 37.38L54.74 37.36L54.73 37.33L54.72 37.31L54.72 37.28L54.71 37.26L54.71 37.24L54.7 37.21L54.69 37.14L54.68 37.12L54.67 37.09L54.67 37.07L54.61 36.81L54.56 36.56L54.52 36.31L54.48 36.06L54.46 35.82L54.44 35.57L54.44 35.33L54.44 35.09L54.45 34.85L54.47 34.61L54.49 34.38L54.53 34.14L54.57 33.91L54.62 33.69L54.68 33.46L54.74 33.24L54.82 33.03L54.9 32.81L54.99 32.6L55.08 32.39L55.19 32.19L55.3 31.99L55.42 31.79L55.54 31.59L55.68 31.4L55.82 31.22L55.96 31.03L56.12 30.86L56.28 30.68L56.45 30.51L56.62 30.35L56.8 30.19L56.99 30.03L57.18 29.88L57.38 29.73L57.59 29.59L57.8 29.45L58.02 29.32L58.25 29.19L58.48 29.07L58.61 29L58.75 28.93L58.89 28.85L59.03 28.78L59.16 28.71L59.3 28.63L59.44 28.56L59.57 28.48L59.71 28.4L59.84 28.32L59.98 28.24L60.11 28.16L60.25 28.08L60.38 28L60.52 27.92L60.65 27.84L60.78 27.75L60.92 27.67L61.05 27.58L61.18 27.5L61.31 27.41L61.44 27.32L61.57 27.24L61.7 27.15L61.83 27.06L61.96 26.97L62.08 26.88L62.21 26.78L62.34 26.69L62.46 26.6L62.59 26.51L62.71 26.41L62.84 26.32L62.96 26.22L63.08 26.12L63.2 26.03L63.32 25.93L63.44 25.83L63.56 25.73L63.68 25.63L63.81 25.52L63.94 25.41L64.07 25.31L64.2 25.2L64.32 25.09L64.45 24.99L64.58 24.88L64.71 24.78L64.84 24.68L64.97 24.58L65.1 24.48L65.23 24.38L65.37 24.28L65.5 24.18L65.63 24.08L65.76 23.99L65.9 23.9L66.03 23.8L66.17 23.71L66.31 23.62L66.44 23.53L66.58 23.44L66.72 23.35L66.86 23.27L67 23.18L67.14 23.1L67.28 23.02L67.42 22.93L67.57 22.85L67.71 22.78L67.86 22.7L68.01 22.62L68.15 22.55L68.3 22.48L68.45 22.41L68.61 22.34L68.76 22.27L68.91 22.2L69.07 22.13L69.23 22.07L69.29 22.05L69.35 22.02L69.41 22L69.47 21.98L69.53 21.95L69.59 21.93L69.65 21.91L69.71 21.88L69.77 21.86L69.83 21.83L69.89 21.81L69.95 21.79L70.01 21.76L70.07 21.74L70.14 21.71L70.2 21.69L70.26 21.66L70.32 21.64L70.38 21.61L70.44 21.59L70.5 21.56L70.56 21.54L70.62 21.51L70.68 21.49L70.74 21.46L70.8 21.44L70.86 21.41L70.92 21.38L70.98 21.36L71.05 21.33L71.11 21.31L71.17 21.28L71.23 21.26L71.29 21.23L71.35 21.2L71.41 21.18L71.47 21.15L71.53 21.12L71.59 21.1L71.65 21.07L71.71 21.16L71.77 21.26L71.83 21.35L71.9 21.44L71.96 21.54L72.03 21.63L72.09 21.72L72.16 21.81L72.23 21.9L72.3 21.99L72.36 22.08L72.44 22.17L72.51 22.26L72.58 22.34L72.65 22.43L72.73 22.52L72.81 22.61L72.88 22.69L72.96 22.78L73.04 22.87L73.12 22.95L73.2 23.04L73.28 23.12L73.37 23.2L73.45 23.29L73.54 23.37L73.62 23.45L73.71 23.53L73.8 23.62L73.89 23.7L73.98 23.78L74.07 23.86L74.17 23.94L74.26 24.02L74.36 24.1L74.46 24.17L74.55 24.25L74.65 24.33L74.76 24.41L74.86 24.48L75.11 24.66L75.36 24.84L75.61 25L75.86 25.17L76.12 25.32L76.38 25.47L76.63 25.61L76.89 25.75L77.16 25.89L77.42 26.01L77.68 26.13L77.95 26.25L78.21 26.36L78.48 26.47L78.75 26.57L79.02 26.66L79.29 26.75L79.57 26.84L79.84 26.92L80.12 27L80.39 27.07L80.67 27.13L80.95 27.2L81.22 27.25L81.5 27.31L81.78 27.36L82.07 27.4L82.35 27.44L82.63 27.48L82.91 27.51L83.2 27.54L83.48 27.57L83.77 27.59L84.06 27.61L84.34 27.62L84.63 27.63L84.92 27.64L85.2 27.64L85.49 27.65L85.78 27.64L85.42 27.09L85.04 26.53L84.66 25.99L84.26 25.45L83.86 24.91L83.45 24.39L83.03 23.87L82.61 23.35L82.17 22.84L81.73 22.34L81.28 21.84L80.82 21.36L80.36 20.87L79.89 20.4L79.41 19.93L78.92 19.47L78.42 19.02L77.92 18.57L77.41 18.14L76.9 17.71L76.37 17.29L75.85 16.87L75.31 16.47L74.77 16.07L74.22 15.68L73.67 15.3L73.11 14.93L72.54 14.56L71.97 14.21L71.39 13.86L70.81 13.53L70.22 13.2L69.63 12.88L69.03 12.57L68.43 12.28L67.82 11.99L67.21 11.71L66.59 11.44L65.97 11.18L65.34 10.93L64.05 10.45L62.74 10.03L61.42 9.65L60.1 9.31L58.77 9.02L57.43 8.77L56.08 8.56L54.74 8.4L53.39 8.28L52.04 8.21L50.69 8.18L49.35 8.18L48 8.23ZM8.27 48.13L8.19 50.63L8.27 53.12L8.51 55.59L8.9 58.04L9.44 60.46L10.12 62.85L10.93 65.19L11.88 67.47L12.96 69.7L14.16 71.86L15.48 73.95L16.92 75.96L18.46 77.87L20.11 79.7L21.87 81.42L23.72 83.03L25.66 84.53L27.69 85.9L29.8 87.14L31.99 88.24L34.25 89.2L36.58 90L38.98 90.65L38.88 90.45L38.79 90.24L38.69 90.04L38.59 89.83L38.49 89.63L38.39 89.42L38.28 89.21L38.18 89L38.08 88.79L37.98 88.58L37.87 88.37L37.77 88.16L37.67 87.95L37.57 87.74L37.47 87.52L37.37 87.31L37.27 87.09L37.17 86.88L37.07 86.66L36.98 86.44L36.88 86.22L36.79 86L36.7 85.78L36.61 85.56L36.52 85.34L36.38 84.94L36.24 84.53L36.11 84.12L36 83.71L35.9 83.3L35.8 82.89L35.72 82.47L35.64 82.06L35.58 81.64L35.52 81.22L35.47 80.8L35.42 80.38L35.39 79.96L35.36 79.54L35.33 79.11L35.31 78.69L35.3 78.27L35.29 77.84L35.28 77.42L35.28 76.99L35.28 76.56L35.28 76.14L35.28 75.71L35.28 75.28L35.29 74.86L35.3 74.35L35.3 73.89L35.31 73.47L35.31 73.1L35.31 72.77L35.3 72.48L35.28 72.22L35.25 72L35.21 71.8L35.16 71.64L35.1 71.49L35.01 71.37L34.91 71.27L34.79 71.19L34.65 71.12L34.49 71.06L34.3 71.01L34.08 70.97L33.84 70.93L33.56 70.89L33.26 70.85L32.92 70.8L32.55 70.75L32.14 70.68L31.69 70.61L31.41 70.56L31.16 70.51L30.93 70.47L30.72 70.43L30.52 70.39L30.35 70.34L30.19 70.3L30.05 70.25L29.92 70.2L29.81 70.14L29.71 70.08L29.62 70.01L29.55 69.93L29.48 69.84L29.43 69.74L29.39 69.63L29.35 69.51L29.32 69.37L29.3 69.22L29.29 69.05L29.28 68.86L29.27 68.66L29.27 68.44L29.27 68.2L29.28 67.93L29.28 67.77L29.27 67.62L29.26 67.47L29.24 67.33L29.22 67.2L29.19 67.07L29.15 66.96L29.11 66.85L29.07 66.74L29.01 66.65L28.95 66.56L28.89 66.48L28.82 66.41L28.74 66.34L28.65 66.28L28.56 66.23L28.46 66.19L28.35 66.15L28.24 66.12L28.12 66.09L27.99 66.08L27.85 66.07L27.71 66.06L27.55 66.07L27.39 66.08L27.33 66.08L27.27 66.09L27.2 66.09L27.14 66.09L27.08 66.1L27.01 66.1L26.95 66.1L26.89 66.1L26.82 66.1L26.76 66.1L26.7 66.1L26.63 66.1L26.57 66.1L26.5 66.1L26.38 66.09L26.31 66.09L26.25 66.09L26.19 66.09L26.12 66.09L26.06 66.09L26 66.09L25.93 66.09L25.87 66.09L25.81 66.09L25.7 66.09L25.59 66.09L25.49 66.08L25.4 66.07L25.3 66.05L25.22 66.03L25.13 66L25.06 65.97L24.98 65.94L24.91 65.9L24.85 65.85L24.79 65.8L24.74 65.75L24.69 65.69L24.64 65.63L24.6 65.56L24.57 65.49L24.54 65.41L24.51 65.33L24.49 65.25L24.48 65.16L24.47 65.06L24.46 64.97L24.46 64.86L24.47 64.76L24.5 64.23L24.52 63.71L24.54 63.19L24.54 62.67L24.54 62.15L24.52 61.63L24.5 61.11L24.47 60.6L24.43 60.08L24.39 59.56L24.34 59.05L24.28 58.53L24.22 58.02L24.15 57.51L24.08 56.99L24.01 56.48L23.93 55.97L23.84 55.46L23.76 54.94L23.67 54.43L23.58 53.92L23.49 53.41L23.4 52.9L23.31 52.39L23.22 51.88L23.19 51.74L23.16 51.61L23.13 51.49L23.1 51.37L23.06 51.27L23.02 51.17L22.98 51.08L22.94 50.99L22.89 50.92L22.83 50.85L22.77 50.79L22.71 50.73L22.64 50.68L22.57 50.64L22.5 50.61L22.41 50.58L22.33 50.56L22.23 50.54L22.13 50.53L22.03 50.53L21.92 50.53L21.8 50.54L21.68 50.55L21.55 50.57L21.41 50.6L21.35 50.61L21.29 50.61L21.23 50.61L21.16 50.61L21.09 50.6L21.02 50.59L20.95 50.58L20.87 50.56L20.8 50.54L20.72 50.52L20.65 50.5L20.57 50.47L20.5 50.44L20.43 50.41L20.36 50.37L20.3 50.34L20.24 50.3L20.18 50.27L20.13 50.23L20.08 50.19L20.04 50.15L20 50.11L19.97 50.07L19.95 50.03L19.94 49.99L19.9 49.84L19.85 49.69L19.8 49.56L19.75 49.45L19.69 49.34L19.63 49.24L19.56 49.16L19.49 49.08L19.41 49.01L19.34 48.96L19.25 48.91L19.17 48.87L19.08 48.84L18.99 48.81L18.89 48.8L18.79 48.79L18.69 48.78L18.58 48.78L18.48 48.79L18.37 48.8L18.25 48.81L18.14 48.83L18.02 48.85L17.9 48.88L17.78 48.91L17.69 48.92L17.6 48.94L17.52 48.96L17.43 48.97L17.34 48.99L17.26 49L17.17 49.01L17.08 49.03L16.99 49.04L16.9 49.05L16.82 49.06L16.73 49.08L16.64 49.09L16.55 49.1L16.47 49.11L16.38 49.13L16.29 49.14L16.2 49.16L16.12 49.17L16.03 49.19L15.94 49.21L15.86 49.23L15.77 49.25L15.69 49.28L15.6 49.3L15.46 49.34L15.32 49.38L15.18 49.4L15.05 49.42L14.93 49.43L14.8 49.43L14.69 49.43L14.57 49.42L14.46 49.4L14.35 49.37L14.25 49.34L14.14 49.3L14.04 49.25L13.95 49.2L13.85 49.14L13.76 49.07L13.66 49L13.57 48.92L13.49 48.84L13.4 48.75L13.31 48.65L13.22 48.55L13.14 48.44L13.05 48.33L12.97 48.21L12.82 48.01L12.68 47.81L12.53 47.61L12.38 47.41L12.23 47.21L12.07 47.01L11.92 46.81L11.76 46.61L11.6 46.42L11.44 46.22L11.28 46.02L11.12 45.82L10.96 45.62L10.8 45.42L10.63 45.22L10.47 45.02L10.3 44.81L10.13 44.61L9.96 44.4L9.79 44.19L9.62 43.98L9.45 43.77L9.27 43.56L9.1 43.34L8.93 43.13L8.51 45.62L8.27 48.13Z" id="a18iVpmrx1"></path></defs><g><g><g><use xlink:href="#a18iVpmrx1" opacity="1" fill="#448dbc" fill-opacity="1"></use><g><use xlink:href="#a18iVpmrx1" opacity="1" fill-opacity="0" stroke="#000000" stroke-width="1" stroke-opacity="0"></use></g></g></g></g></svg>