<?xml version="1.0" encoding="utf-8"?>
<!-- Generator: Adobe Illustrator 23.0.2, SVG Export Plug-In . SVG Version: 6.00 Build 0)  -->
<svg version="1.1" id="Layer_1" xmlns="http://www.w3.org/2000/svg" xmlns:xlink="http://www.w3.org/1999/xlink" x="0px" y="0px"
	 viewBox="0 0 100 100" style="enable-background:new 0 0 100 100;" xml:space="preserve">
<style type="text/css">
	.st0{fill:#448DBC;}
</style>
<g>
	<g>
		<g>
			<path class="st0" d="M50,20.8c9.2,0,16.6,7.4,16.6,16.6S59.2,54,50,54c-9.2,0-16.6-7.4-16.6-16.6C33.4,28.2,40.8,20.8,50,20.8
				 M50,15.9c-11.9,0-21.5,9.6-21.5,21.5C28.5,49.3,50,84.1,50,84.1s21.5-34.8,21.5-46.7C71.5,25.5,61.9,15.9,50,15.9z M61.6,38.3
				l-1.1,7.3l-2.2-2.1c-1.5,1.2-2.8,4.4-8.7,4.5c-4.6,0-6.6-2.8-8.3-4.2l-2,1.9l-1.1-7.2l7.4,1.1l-2,2c0,0,1.8,2.9,4.8,3.1l0-11.8
				c-1.6-0.6-2.8-2.1-2.8-3.9c0-2.3,1.9-4.1,4.2-4.1c2.3,0,4.2,1.8,4.2,4.1c0,1.8-1.2,3.3-2.9,3.9c0,2.3,0,11.9,0,11.9
				c2.5-0.1,4.8-3.5,4.8-3.5l-1.9-1.9C54.2,39.4,61.6,38.3,61.6,38.3z M52.1,28.9c0-1.2-1-2.1-2.2-2.1c-1.2,0-2.2,0.9-2.2,2.1
				c0,1.2,1,2.1,2.2,2.1C51.1,31.1,52.1,30.1,52.1,28.9z"/>
		</g>
	</g>
</g>
</svg>
