<?xml version="1.0" encoding="UTF-8" standalone="no"?>
<!DOCTYPE svg PUBLIC "-//W3C//DTD SVG 1.1//EN" "http://www.w3.org/Graphics/SVG/1.1/DTD/svg11.dtd">
<svg version="1.1" xmlns="http://www.w3.org/2000/svg" xmlns:xlink="http://www.w3.org/1999/xlink" preserveAspectRatio="xMidYMid meet" viewBox="0 0 100 100" width="100" height="100"><defs><path d="M44.55 2.21L46.18 2.38L47.8 2.61L49.39 2.9L50.97 3.26L52.52 3.68L54.04 4.16L55.54 4.69L57.01 5.28L58.46 5.93L59.87 6.63L61.25 7.39L62.6 8.19L63.92 9.05L65.2 9.95L66.44 10.9L67.65 11.9L68.82 12.94L69.94 14.02L71.03 15.15L72.07 16.32L73.07 17.52L74.02 18.77L74.92 20.05L75.77 21.36L76.58 22.71L77.33 24.1L78.03 25.51L78.68 26.95L79.27 28.43L79.81 29.93L80.29 31.45L80.7 33L81.06 34.57L81.36 36.17L81.59 37.78L81.76 39.42L81.86 41.07L81.89 42.74L81.88 43.5L81.86 44.26L81.83 45.02L81.78 45.77L81.64 47.27L81.55 48.01L81.44 48.74L81.32 49.47L81.19 50.2L81.05 50.92L80.89 51.64L80.72 52.35L80.54 53.06L80.35 53.76L80.14 54.46L79.92 55.15L79.69 55.84L79.45 56.52L78.93 57.86L78.65 58.53L78.36 59.18L78.06 59.83L77.75 60.48L77.43 61.12L77.1 61.75L76.75 62.38L76.4 63L76.04 63.61L75.66 64.21L75.28 64.81L74.89 65.4L74.48 65.99L74.07 66.56L73.65 67.13L73.22 67.7L72.78 68.25L72.33 68.8L71.87 69.34L95 92.46L95.24 92.73L95.31 92.83L95.38 92.92L95.5 93.12L95.6 93.32L95.68 93.52L95.72 93.63L95.75 93.73L95.78 93.84L95.8 93.95L95.82 94.05L95.84 94.27L95.84 94.49L95.83 94.59L95.81 94.81L95.79 94.92L95.76 95.03L95.73 95.13L95.7 95.24L95.66 95.34L95.62 95.45L95.57 95.55L95.51 95.65L95.45 95.76L95.39 95.86L95.32 95.95L95.25 96.05L95.17 96.15L95.09 96.24L95 96.33L94.8 96.51L94.78 96.55L94.74 96.59L94.68 96.67L94.57 96.78L94.41 96.9L94.36 96.93L94.32 96.96L94.27 96.98L94.23 97.01L94.13 97.05L94.09 97.07L93.99 97.11L93.93 97.13L93.88 97.15L93.83 97.16L93.78 97.18L93.72 97.19L93.62 97.21L93.56 97.22L93.51 97.23L93.39 97.25L93.34 97.26L93.28 97.26L93.22 97.27L93.11 97.27L93.05 97.28L92.74 97.28L92.7 97.27L92.61 97.27L92.56 97.26L92.51 97.26L92.36 97.23L92.32 97.22L92.12 97.18L92.07 97.16L92.01 97.15L91.66 97.01L91.61 96.98L91.56 96.96L91.41 96.87L91.37 96.84L91.27 96.78L91.22 96.74L91.18 96.71L91.08 96.63L91.04 96.59L90.99 96.55L67.82 73.38L66.74 74.32L66.18 74.77L65.62 75.21L65.05 75.64L64.47 76.06L63.89 76.47L63.3 76.87L62.1 77.63L61.48 78L60.24 78.7L59.61 79.03L58.97 79.35L58.32 79.66L57.67 79.96L56.35 80.52L55.68 80.78L55.01 81.03L54.33 81.27L52.95 81.71L52.25 81.91L51.55 82.1L50.84 82.28L50.13 82.44L49.41 82.59L48.69 82.73L47.96 82.86L47.23 82.97L46.49 83.07L45.75 83.16L45.01 83.23L44.26 83.3L43.51 83.34L42.75 83.38L41.99 83.4L41.23 83.4L39.56 83.37L37.91 83.27L36.27 83.1L34.66 82.87L33.06 82.57L31.49 82.22L29.94 81.8L28.41 81.32L26.91 80.79L25.44 80.19L24 79.55L22.58 78.85L21.2 78.09L19.85 77.29L18.54 76.43L17.25 75.53L16.01 74.58L14.8 73.58L13.64 72.54L12.51 71.46L11.43 70.33L10.38 69.16L9.39 67.96L8.44 66.71L7.53 65.43L6.68 64.11L5.87 62.76L5.12 61.38L4.42 59.97L3.77 58.52L3.18 57.05L2.64 55.55L2.17 54.03L1.75 52.48L1.39 50.91L1.1 49.31L0.86 47.7L0.7 46.06L0.6 44.41L0.56 42.74L0.6 41.07L0.7 39.42L0.86 37.78L1.1 36.17L1.39 34.57L1.75 33L2.17 31.45L2.64 29.93L3.18 28.43L3.77 26.95L4.42 25.51L5.12 24.1L5.87 22.71L6.68 21.36L7.53 20.05L8.44 18.77L9.39 17.52L10.38 16.32L11.43 15.15L12.51 14.02L13.64 12.94L14.8 11.9L16.01 10.9L17.25 9.95L18.54 9.05L19.85 8.19L21.2 7.39L22.58 6.63L24 5.93L25.44 5.28L26.91 4.69L28.41 4.16L29.94 3.68L31.49 3.26L33.06 2.9L34.66 2.61L36.27 2.38L37.91 2.21L39.56 2.11L41.23 2.07L42.9 2.11L44.55 2.21ZM39.31 7.94L38.36 8.05L37.41 8.2L36.47 8.4L35.53 8.64L34.59 8.92L33.66 9.25L32.74 9.62L31.82 10.04L30.9 10.49L29.99 11L29.09 11.54L28.18 12.13L27.29 12.76L26.39 13.44L25.51 14.16L24.62 14.92L23.74 15.73L22.87 16.58L22 17.47L21.13 18.41L20.27 19.39L19.42 20.41L18.57 21.48L17.72 22.59L16.88 23.75L16.04 24.95L15.21 26.19L14.38 27.48L13.55 28.81L12.73 30.18L11.92 31.6L11.11 33.06L10.3 34.56L9.5 36.11L8.71 37.7L7.91 39.34L7.13 41.02L6.34 42.74L6.37 44.18L6.46 45.6L6.6 47.01L6.8 48.4L7.05 49.77L7.36 51.12L7.71 52.46L8.12 53.77L8.58 55.06L9.08 56.32L9.64 57.56L10.24 58.77L10.88 59.96L11.57 61.12L12.3 62.25L13.07 63.34L13.89 64.41L14.74 65.44L15.63 66.44L16.56 67.41L17.52 68.34L18.52 69.23L19.56 70.08L20.62 70.89L21.72 71.67L22.85 72.4L24.01 73.09L25.19 73.73L26.41 74.33L27.65 74.88L28.91 75.39L30.2 75.84L31.51 76.25L32.84 76.61L34.19 76.91L35.57 77.17L36.96 77.36L38.36 77.51L39.79 77.59L41.23 77.62L42.67 77.59L44.09 77.51L45.5 77.36L46.89 77.17L48.26 76.91L49.61 76.61L50.94 76.25L52.26 75.84L53.54 75.39L54.81 74.88L56.05 74.33L57.26 73.73L58.45 73.09L59.61 72.4L60.73 71.67L61.83 70.89L62.9 70.08L63.93 69.23L64.93 68.34L65.9 67.41L66.82 66.44L67.72 65.44L68.57 64.41L69.38 63.34L70.15 62.25L70.89 61.12L71.57 59.96L72.22 58.77L72.82 57.56L73.37 56.32L73.88 55.06L74.33 53.77L74.74 52.46L75.1 51.12L75.4 49.77L75.65 48.4L75.85 47.01L75.99 45.6L76.08 44.18L76.11 42.74L76.08 41.3L75.99 39.88L75.85 38.47L75.65 37.08L75.4 35.71L75.1 34.35L74.74 33.02L74.33 31.71L73.88 30.42L73.37 29.16L72.82 27.92L72.22 26.71L71.57 25.52L70.89 24.36L70.15 23.23L69.38 22.13L68.57 21.07L67.72 20.03L66.82 19.04L65.9 18.07L64.93 17.14L63.93 16.25L62.9 15.4L61.83 14.58L60.73 13.81L59.61 13.08L58.45 12.39L57.26 11.75L56.05 11.15L54.81 10.6L53.54 10.09L52.26 9.63L50.94 9.23L49.61 8.87L48.26 8.56L46.89 8.31L45.5 8.11L44.09 7.97L42.67 7.89L41.23 7.86L40.27 7.88L39.31 7.94Z" id="a2oEcDeKTy"></path><path d="M46.35 2.53L47.98 2.7L49.6 2.93L51.19 3.22L52.77 3.58L54.32 4L55.84 4.48L57.34 5.01L58.81 5.6L60.26 6.25L61.67 6.95L63.05 7.71L64.4 8.51L65.72 9.37L67 10.27L68.24 11.22L69.45 12.22L70.62 13.26L71.74 14.34L72.83 15.47L73.87 16.64L74.87 17.84L75.82 19.09L76.72 20.37L77.57 21.68L78.38 23.03L79.13 24.42L79.83 25.83L80.48 27.28L81.07 28.75L81.61 30.25L82.09 31.78L82.5 33.32L82.86 34.89L83.16 36.49L83.39 38.11L83.56 39.74L83.66 41.4L83.69 43.07L83.68 43.83L83.66 44.58L83.63 45.35L83.58 46.1L83.51 46.85L83.44 47.6L83.35 48.33L83.24 49.07L83.12 49.79L82.99 50.53L82.85 51.25L82.69 51.97L82.52 52.68L82.34 53.39L82.15 54.08L81.94 54.79L81.72 55.47L81.49 56.17L81.25 56.85L80.99 57.51L80.73 58.18L80.45 58.86L80.16 59.51L79.86 60.15L79.55 60.8L79.23 61.44L78.9 62.08L78.55 62.71L78.2 63.33L77.84 63.93L77.46 64.54L77.08 65.13L76.69 65.72L76.28 66.32L75.87 66.88L75.45 67.45L75.02 68.03L74.58 68.57L74.13 69.13L73.67 69.66L96.8 92.79L96.96 92.97L97.04 93.06L97.11 93.16L97.18 93.25L97.3 93.45L97.35 93.54L97.4 93.64L97.48 93.85L97.52 93.95L97.55 94.06L97.58 94.17L97.6 94.28L97.62 94.38L97.63 94.48L97.64 94.6L97.64 94.82L97.63 94.92L97.62 95.03L97.61 95.14L97.59 95.25L97.56 95.35L97.53 95.45L97.5 95.57L97.46 95.67L97.42 95.78L97.37 95.88L97.31 95.98L97.25 96.09L97.19 96.19L97.12 96.28L97.05 96.38L96.97 96.48L96.89 96.57L96.8 96.66L96.6 96.84L96.58 96.88L96.54 96.92L96.51 96.95L96.48 97L96.41 97.07L96.37 97.1L96.33 97.14L96.29 97.17L96.25 97.2L96.21 97.23L96.16 97.26L96.12 97.29L96.07 97.31L96.03 97.34L95.98 97.35L95.93 97.38L95.89 97.39L95.79 97.44L95.73 97.45L95.68 97.48L95.63 97.48L95.58 97.51L95.52 97.51L95.42 97.54L95.36 97.54L95.31 97.56L95.25 97.57L95.19 97.57L95.14 97.59L95.08 97.59L95.02 97.6L94.91 97.6L94.85 97.6L94.54 97.6L94.5 97.6L94.41 97.6L94.36 97.59L94.31 97.59L94.26 97.57L94.16 97.56L94.12 97.54L94.02 97.53L93.97 97.51L93.92 97.51L93.87 97.48L93.81 97.48L93.76 97.45L93.71 97.44L93.61 97.39L93.56 97.38L93.51 97.35L93.46 97.34L93.41 97.31L93.36 97.29L93.26 97.23L93.21 97.2L93.17 97.17L93.12 97.14L93.07 97.1L93.02 97.07L92.98 97.04L92.93 97L92.88 96.95L92.84 96.92L92.79 96.88L69.62 73.7L69.08 74.17L68.54 74.64L67.98 75.1L67.42 75.54L66.85 75.97L66.27 76.38L65.69 76.79L65.1 77.2L63.9 77.95L63.28 78.32L62.04 79.03L61.41 79.35L60.77 79.67L60.12 79.98L59.47 80.29L58.81 80.57L58.15 80.85L57.48 81.1L56.81 81.35L56.13 81.6L55.44 81.82L54.75 82.04L54.05 82.23L53.35 82.42L52.64 82.6L51.93 82.76L51.21 82.92L50.49 83.06L49.76 83.19L49.03 83.29L48.29 83.39L47.55 83.48L46.81 83.56L46.06 83.63L45.31 83.67L44.55 83.7L43.79 83.73L43.03 83.73L41.36 83.7L39.71 83.6L38.07 83.42L36.46 83.2L34.86 82.89L33.29 82.54L31.74 82.13L30.21 81.64L28.71 81.12L27.24 80.51L25.8 79.88L24.38 79.17L23 78.41L21.65 77.62L20.34 76.76L19.05 75.85L17.81 74.91L16.6 73.91L15.44 72.87L14.31 71.79L13.23 70.66L12.18 69.48L11.19 68.29L10.24 67.04L9.33 65.76L8.48 64.44L7.67 63.08L6.92 61.71L6.22 60.29L5.57 58.85L4.98 57.37L4.44 55.87L3.97 54.36L3.55 52.8L3.19 51.23L2.9 49.64L2.66 48.03L2.5 46.39L2.4 44.73L2.36 43.07L2.4 41.4L2.5 39.74L2.66 38.11L2.9 36.49L3.19 34.89L3.55 33.32L3.97 31.78L4.44 30.25L4.98 28.75L5.57 27.28L6.22 25.83L6.92 24.42L7.67 23.03L8.48 21.68L9.33 20.37L10.24 19.09L11.19 17.84L12.18 16.64L13.23 15.47L14.31 14.34L15.44 13.26L16.6 12.22L17.81 11.22L19.05 10.27L20.34 9.37L21.65 8.51L23 7.71L24.38 6.95L25.8 6.25L27.24 5.6L28.71 5.01L30.21 4.48L31.74 4L33.29 3.58L34.86 3.22L36.46 2.93L38.07 2.7L39.71 2.53L41.36 2.43L43.03 2.39L44.7 2.43L46.35 2.53ZM41.11 8.26L40.16 8.37L39.21 8.52L38.27 8.72L37.33 8.96L36.39 9.24L35.46 9.57L34.54 9.94L33.62 10.36L32.7 10.81L31.79 11.32L30.89 11.86L29.98 12.45L29.09 13.08L28.19 13.76L27.31 14.48L26.42 15.24L25.54 16.05L24.67 16.9L23.8 17.79L22.93 18.73L22.07 19.71L21.22 20.73L20.37 21.8L19.52 22.91L18.68 24.07L17.84 25.28L17.01 26.51L16.18 27.8L15.35 29.13L14.53 30.5L13.72 31.92L12.91 33.39L12.1 34.89L11.3 36.43L10.51 38.03L9.71 39.67L8.93 41.35L8.14 43.07L8.17 44.51L8.26 45.93L8.4 47.33L8.6 48.72L8.85 50.1L9.16 51.44L9.51 52.79L9.92 54.1L10.38 55.39L10.88 56.65L11.44 57.89L12.04 59.1L12.68 60.29L13.37 61.44L14.1 62.58L14.87 63.67L15.69 64.73L16.54 65.76L17.43 66.76L18.36 67.73L19.32 68.66L20.32 69.56L21.36 70.41L22.42 71.22L23.52 72L24.65 72.73L25.81 73.41L26.99 74.06L28.21 74.66L29.45 75.2L30.71 75.72L32 76.16L33.31 76.57L34.64 76.94L35.99 77.23L37.37 77.5L38.76 77.69L40.16 77.84L41.59 77.91L43.03 77.95L44.47 77.91L45.89 77.84L47.3 77.69L48.69 77.5L50.06 77.23L51.41 76.94L52.74 76.57L54.06 76.16L55.34 75.72L56.61 75.2L57.85 74.66L59.06 74.06L60.25 73.41L61.41 72.73L62.53 72L63.63 71.22L64.7 70.41L65.73 69.56L66.73 68.66L67.7 67.73L68.62 66.76L69.52 65.76L70.37 64.73L71.18 63.67L71.95 62.58L72.69 61.44L73.37 60.29L74.02 59.1L74.62 57.89L75.17 56.65L75.68 55.39L76.13 54.1L76.54 52.79L76.9 51.44L77.2 50.1L77.45 48.72L77.65 47.33L77.79 45.93L77.88 44.51L77.91 43.07L77.88 41.62L77.79 40.21L77.65 38.79L77.45 37.4L77.2 36.04L76.9 34.68L76.54 33.35L76.13 32.03L75.68 30.74L75.17 29.48L74.62 28.24L74.02 27.03L73.37 25.84L72.69 24.68L71.95 23.55L71.18 22.46L70.37 21.39L69.52 20.35L68.62 19.36L67.7 18.39L66.73 17.46L65.73 16.57L64.7 15.72L63.63 14.9L62.53 14.13L61.41 13.4L60.25 12.71L59.06 12.07L57.85 11.47L56.61 10.92L55.34 10.41L54.06 9.95L52.74 9.55L51.41 9.19L50.06 8.88L48.69 8.63L47.3 8.43L45.89 8.29L44.47 8.21L43.03 8.18L42.07 8.2L41.11 8.26Z" id="edVVSXPBZ"></path></defs><g><g><g><use xlink:href="#a2oEcDeKTy" opacity="1" fill="#ffffff" fill-opacity="1"></use><g><use xlink:href="#a2oEcDeKTy" opacity="1" fill-opacity="0" stroke="#000000" stroke-width="1" stroke-opacity="0"></use></g></g><g><use xlink:href="#edVVSXPBZ" opacity="1" fill="#000000" fill-opacity="0"></use><g><use xlink:href="#edVVSXPBZ" opacity="1" fill-opacity="0" stroke="#ffffff" stroke-width="2" stroke-opacity="1"></use></g></g></g></g></svg>