<?xml version="1.0" encoding="UTF-8" standalone="no"?>
<!DOCTYPE svg PUBLIC "-//W3C//DTD SVG 1.1//EN" "http://www.w3.org/Graphics/SVG/1.1/DTD/svg11.dtd">
<svg version="1.1" xmlns="http://www.w3.org/2000/svg" xmlns:xlink="http://www.w3.org/1999/xlink" preserveAspectRatio="xMidYMid meet" viewBox="0 0 100 100" width="100" height="100"><defs><path d="M80.26 0.04L81.05 0.1L81.83 0.2L82.6 0.32L83.36 0.47L84.11 0.65L84.85 0.86L85.57 1.09L86.28 1.35L86.97 1.64L87.65 1.95L88.32 2.28L88.97 2.64L89.6 3.03L90.22 3.43L90.82 3.86L91.4 4.31L91.96 4.78L92.51 5.27L93.03 5.78L93.54 6.31L94.02 6.86L94.48 7.42L94.92 8.01L95.34 8.61L95.73 9.23L96.1 9.86L96.45 10.51L96.77 11.17L97.07 11.85L97.34 12.54L97.58 13.24L97.79 13.96L97.98 14.69L98.14 15.42L98.27 16.17L98.37 16.93L98.44 17.7L98.48 18.48L98.49 19.08L98.48 19.68L98.45 20.28L98.41 20.87L98.34 21.45L98.26 22.04L98.16 22.61L98.05 23.19L97.92 23.75L97.77 24.31L97.6 24.87L97.42 25.41L97.22 25.95L97.01 26.49L96.78 27.01L96.54 27.53L96.28 28.04L96.01 28.54L95.72 29.03L95.42 29.52L95.11 29.99L94.78 30.45L94.44 30.91L94.09 31.35L93.72 31.78L93.34 32.2L92.95 32.61L92.55 33.01L92.13 33.4L91.7 33.77L91.27 34.13L90.82 34.48L90.36 34.81L89.89 35.14L89.41 35.44L88.92 35.73L88.42 36.01L87.92 36.27L87.4 36.52L86.87 36.75L87.06 37.18L87.25 37.61L87.43 38.04L87.61 38.48L87.78 38.91L87.95 39.35L88.12 39.79L88.28 40.23L88.43 40.68L88.58 41.13L88.73 41.58L88.87 42.03L89.01 42.48L89.14 42.93L89.27 43.39L89.4 43.85L89.51 44.31L89.63 44.77L89.74 45.24L89.84 45.7L89.94 46.17L90.04 46.64L90.13 47.11L90.21 47.58L90.29 48.06L90.36 48.53L90.43 49.01L90.5 49.49L90.56 49.97L90.61 50.45L90.66 50.94L90.71 51.42L90.75 51.91L90.78 52.4L90.81 52.89L90.84 53.38L90.85 53.87L90.87 54.36L90.88 54.86L90.88 55.36L90.84 57.2L90.72 59.02L90.54 60.83L90.28 62.61L89.95 64.37L89.56 66.1L89.1 67.81L88.57 69.49L87.98 71.14L87.33 72.76L86.61 74.35L85.84 75.9L85.01 77.42L84.12 78.91L83.18 80.35L82.19 81.76L81.14 83.13L80.04 84.45L78.9 85.73L77.7 86.97L76.46 88.16L75.18 89.3L73.85 90.39L72.48 91.43L71.07 92.42L69.62 93.36L68.14 94.24L66.61 95.06L65.06 95.83L63.47 96.53L61.84 97.18L60.19 97.76L58.51 98.28L56.81 98.73L55.07 99.12L53.31 99.44L51.53 99.69L49.73 99.86L47.91 99.97L46.07 100L44.23 99.96L42.4 99.84L40.6 99.65L38.82 99.39L37.06 99.06L35.33 98.66L33.62 98.2L31.94 97.67L30.29 97.07L28.67 96.42L27.09 95.7L25.53 94.93L24.01 94.09L22.53 93.2L21.09 92.26L19.68 91.26L18.32 90.21L17 89.11L15.72 87.97L14.48 86.77L13.3 85.53L12.16 84.24L11.07 82.91L10.03 81.54L9.04 80.13L8.11 78.67L7.23 77.19L6.41 75.66L5.65 74.1L4.95 72.51L4.3 70.89L3.73 69.24L3.21 67.56L2.76 65.85L2.37 64.11L2.06 62.36L1.81 60.57L1.64 58.77L1.54 56.95L1.51 55.11L1.55 53.27L1.67 51.46L1.87 49.66L2.13 47.88L2.46 46.13L2.86 44.4L3.32 42.7L3.85 41.03L4.44 39.38L5.09 37.77L5.81 36.18L6.58 34.63L7.41 33.12L8.29 31.64L9.23 30.2L10.23 28.79L11.27 27.43L12.36 26.11L13.51 24.84L14.7 23.6L15.93 22.42L17.21 21.28L18.54 20.19L19.9 19.15L21.31 18.17L22.75 17.24L24.23 16.36L25.75 15.54L27.3 14.77L28.88 14.07L30.49 13.42L32.14 12.84L33.81 12.32L35.51 11.87L37.24 11.48L38.98 11.16L40.76 10.91L42.55 10.73L44.36 10.62L46.19 10.59L46.59 10.59L46.98 10.6L47.37 10.6L47.76 10.62L48.15 10.63L48.53 10.65L48.92 10.67L49.31 10.7L49.69 10.73L50.08 10.76L50.46 10.8L50.84 10.84L51.23 10.88L51.61 10.92L51.99 10.97L52.36 11.02L52.74 11.08L53.12 11.14L53.49 11.2L53.87 11.26L54.24 11.33L54.62 11.4L54.99 11.47L55.36 11.55L55.73 11.63L56.09 11.71L56.46 11.8L56.83 11.89L57.19 11.98L57.55 12.07L57.92 12.17L58.28 12.27L58.64 12.37L58.99 12.48L59.35 12.58L59.71 12.69L60.06 12.81L60.41 12.92L60.77 13.04L61.12 13.16L61.31 12.61L61.51 12.07L61.73 11.53L61.97 11L62.23 10.48L62.5 9.97L62.79 9.46L63.09 8.97L63.4 8.48L63.74 8L64.08 7.54L64.44 7.08L64.81 6.64L65.19 6.2L65.59 5.78L66 5.37L66.42 4.97L66.85 4.59L67.3 4.21L67.75 3.85L68.22 3.51L68.7 3.18L69.18 2.86L69.68 2.56L70.18 2.27L70.7 2L71.22 1.74L71.75 1.5L72.29 1.28L72.84 1.07L73.39 0.88L73.95 0.71L74.52 0.55L75.1 0.42L75.68 0.3L76.26 0.2L76.85 0.12L77.45 0.06L78.05 0.02L78.65 0L79.46 0L80.26 0.04ZM43.31 17.58L42.09 17.69L40.89 17.84L39.69 18.02L38.5 18.24L37.32 18.5L36.15 18.79L34.99 19.12L33.85 19.48L32.72 19.88L31.61 20.31L30.51 20.78L29.44 21.28L28.38 21.82L27.34 22.39L26.32 22.99L25.33 23.62L24.36 24.29L23.42 24.99L22.5 25.72L21.61 26.48L20.75 27.27L19.92 28.09L19.12 28.95L18.35 29.83L17.62 30.74L16.92 31.68L16.98 31.66L17.04 31.64L17.11 31.62L17.17 31.6L17.23 31.57L17.29 31.55L17.35 31.52L17.41 31.5L17.47 31.48L17.53 31.45L17.6 31.43L17.66 31.4L17.72 31.38L17.78 31.35L17.84 31.33L17.9 31.31L17.97 31.28L18.03 31.26L18.09 31.23L18.15 31.21L18.21 31.19L18.28 31.16L18.34 31.14L18.4 31.12L18.46 31.09L18.53 31.07L18.59 31.05L18.65 31.03L18.72 31.01L18.78 30.99L18.84 30.97L18.9 30.95L18.97 30.93L19.03 30.91L19.09 30.9L19.16 30.88L19.22 30.87L19.29 30.85L19.35 30.84L19.41 30.83L19.48 30.81L19.54 30.8L19.61 30.79L19.67 30.78L19.74 30.78L19.81 30.77L19.87 30.76L19.94 30.76L20.01 30.75L20.07 30.75L20.14 30.75L20.21 30.74L20.27 30.74L20.34 30.74L20.41 30.74L20.48 30.74L20.54 30.74L20.61 30.74L20.68 30.74L20.75 30.74L20.82 30.75L20.89 30.75L20.95 30.75L21.02 30.75L21.09 30.75L21.16 30.76L21.23 30.76L21.36 30.77L21.43 30.77L21.5 30.77L21.57 30.77L21.64 30.78L21.71 30.78L21.77 30.78L21.84 30.78L21.91 30.78L21.98 30.78L22.05 30.78L22.11 30.78L27.1 30.78L27.31 30.79L27.5 30.79L27.69 30.79L27.87 30.79L28.04 30.79L28.2 30.8L28.35 30.8L28.49 30.81L28.63 30.82L28.76 30.83L28.88 30.85L29 30.87L29.11 30.89L29.21 30.91L29.31 30.94L29.4 30.97L29.49 31.01L29.57 31.05L29.65 31.09L29.72 31.14L29.79 31.2L29.86 31.26L29.93 31.32L29.99 31.39L30.05 31.47L30.11 31.56L30.16 31.65L30.22 31.74L30.27 31.85L30.33 31.96L30.38 32.08L30.43 32.2L30.49 32.34L30.54 32.48L30.6 32.63L30.65 32.79L30.71 32.96L30.77 33.14L30.84 33.33L30.9 33.52L30.92 33.58L30.94 33.64L30.96 33.69L30.98 33.75L31.02 33.86L31.04 33.92L31.06 33.97L31.08 34.03L31.09 34.09L31.11 34.15L31.13 34.21L31.15 34.26L31.17 34.32L31.19 34.38L31.21 34.44L31.22 34.5L31.24 34.56L31.26 34.61L31.27 34.67L31.29 34.73L31.3 34.79L31.31 34.85L31.33 34.91L31.34 34.97L31.35 35.03L31.36 35.09L31.37 35.15L31.38 35.21L31.39 35.27L31.39 35.33L31.4 35.38L31.4 35.44L31.4 35.5L31.41 35.56L31.41 35.62L31.41 35.68L31.4 35.74L31.4 35.8L31.39 35.85L31.38 36.06L31.37 36.27L31.35 36.47L31.34 36.68L31.33 36.89L31.32 37.09L31.31 37.3L31.3 37.51L31.28 37.72L31.27 37.92L31.26 38.13L31.25 38.34L31.24 38.55L31.23 38.76L31.22 38.96L31.2 39.17L31.19 39.38L31.18 39.59L31.16 39.79L31.14 40L31.12 40.2L31.11 40.41L31.08 40.62L31.06 40.82L31.04 41.02L31.01 41.23L30.98 41.43L30.95 41.63L30.92 41.83L30.88 42.03L30.84 42.23L30.8 42.43L30.76 42.63L30.71 42.83L30.67 43.03L30.61 43.22L30.56 43.41L30.5 43.61L30.44 43.8L30.37 43.99L30.27 44.27L30.17 44.56L30.07 44.84L29.96 45.12L29.85 45.4L29.74 45.68L29.62 45.96L29.51 46.24L29.39 46.52L29.27 46.79L29.15 47.07L29.02 47.35L28.9 47.62L28.77 47.89L28.65 48.17L28.52 48.44L28.39 48.71L28.26 48.99L28.12 49.26L27.99 49.53L27.86 49.8L27.72 50.07L27.59 50.34L27.45 50.61L27.32 50.88L27.18 51.15L27.04 51.42L26.91 51.69L26.77 51.96L26.63 52.23L26.5 52.5L26.36 52.78L26.23 53.05L26.09 53.32L25.96 53.59L25.83 53.86L25.69 54.13L25.56 54.4L25.43 54.67L25.3 54.95L25.29 54.97L25.28 55L25.27 55.02L25.25 55.05L25.24 55.07L25.23 55.1L25.22 55.12L25.2 55.15L25.19 55.18L25.18 55.2L25.16 55.23L25.15 55.26L25.14 55.29L25.13 55.32L25.11 55.34L25.1 55.37L25.08 55.4L25.07 55.44L25.06 55.47L25.04 55.5L25.03 55.53L25.01 55.56L25 55.6L24.98 55.63L24.97 55.67L24.95 55.7L24.93 55.74L24.92 55.78L24.9 55.82L24.88 55.86L24.86 55.9L24.85 55.94L24.83 55.98L24.81 56.02L24.79 56.06L24.77 56.11L24.75 56.15L24.73 56.2L24.69 56.3L24.96 56.18L25.24 56.06L25.51 55.94L25.78 55.82L26.05 55.71L26.32 55.59L26.59 55.48L26.86 55.36L27.13 55.25L27.39 55.13L27.66 55.02L27.92 54.91L28.18 54.8L28.45 54.68L28.71 54.57L28.97 54.46L29.23 54.35L29.49 54.24L29.75 54.13L30 54.02L30.26 53.91L30.52 53.8L30.77 53.69L31.03 53.58L31.28 53.48L31.54 53.37L31.79 53.26L32.05 53.15L32.3 53.04L32.55 52.93L32.81 52.82L33.06 52.72L33.31 52.61L33.56 52.5L33.82 52.39L34.07 52.28L34.32 52.17L34.57 52.06L34.82 51.95L35.07 51.84L35.16 51.8L35.24 51.77L35.32 51.74L35.4 51.71L35.48 51.68L35.57 51.65L35.65 51.63L35.73 51.61L35.81 51.59L35.89 51.57L35.97 51.55L36.05 51.54L36.13 51.53L36.21 51.52L36.29 51.51L36.37 51.5L36.45 51.5L36.53 51.5L36.61 51.5L36.68 51.51L36.76 51.51L36.84 51.52L36.91 51.53L36.99 51.55L37.07 51.56L37.14 51.58L37.21 51.6L37.29 51.63L37.36 51.66L37.44 51.68L37.51 51.72L37.58 51.75L37.65 51.79L37.72 51.83L37.79 51.87L37.86 51.92L37.93 51.96L38 52.02L38.07 52.07L38.14 52.13L38.38 52.33L38.63 52.54L38.87 52.74L39.12 52.94L39.37 53.15L39.61 53.35L39.86 53.55L40.1 53.76L40.35 53.96L40.59 54.17L40.83 54.38L41.06 54.59L41.3 54.81L41.52 55.02L41.75 55.24L41.97 55.46L42.18 55.69L42.39 55.91L42.6 56.15L42.79 56.38L42.99 56.62L43.17 56.87L43.34 57.12L43.51 57.37L43.67 57.64L43.82 57.9L43.96 58.17L44.09 58.45L44.21 58.74L44.32 59.03L44.42 59.33L44.5 59.64L44.58 59.95L44.64 60.27L44.69 60.6L44.72 60.94L44.75 61.29L44.75 61.65L44.74 62.01L44.72 62.39L44.72 62.4L44.72 62.41L44.71 62.42L44.71 62.43L44.71 62.44L44.71 62.45L44.71 62.46L44.71 62.47L44.71 62.48L44.71 62.49L44.71 62.5L44.71 62.51L44.71 62.52L44.71 62.53L44.72 62.54L44.72 62.55L44.72 62.56L44.72 62.57L44.72 62.58L44.73 62.59L44.73 62.61L44.73 62.62L44.74 62.67L44.75 62.68L44.75 62.69L44.75 62.7L44.75 62.71L44.75 62.72L44.76 62.73L44.76 62.74L44.76 62.75L44.76 62.76L44.76 62.77L44.76 62.78L44.76 62.79L44.76 62.8L44.76 62.97L44.77 63.14L44.78 63.31L44.79 63.47L44.81 63.63L44.83 63.78L44.86 63.94L44.89 64.09L44.92 64.23L44.96 64.37L45 64.51L45.05 64.65L45.1 64.78L45.16 64.91L45.22 65.04L45.28 65.16L45.35 65.28L45.42 65.39L45.5 65.5L45.58 65.61L45.67 65.72L45.76 65.82L45.85 65.92L45.95 66.01L46.06 66.1L46.17 66.19L46.29 66.27L46.41 66.35L46.53 66.43L46.66 66.5L46.79 66.57L46.93 66.64L47.08 66.7L47.23 66.76L47.38 66.82L47.54 66.87L47.71 66.92L47.88 66.97L48.06 67.01L48.24 67.05L48.4 67.09L48.56 67.13L48.71 67.18L48.86 67.24L49.01 67.31L49.15 67.38L49.28 67.46L49.41 67.55L49.54 67.64L49.66 67.73L49.77 67.83L49.88 67.94L49.98 68.05L50.08 68.17L50.17 68.29L50.26 68.41L50.33 68.53L50.41 68.66L50.47 68.8L50.53 68.93L50.58 69.07L50.63 69.21L50.67 69.36L50.7 69.5L50.73 69.65L50.74 69.79L50.75 69.94L50.76 70.09L50.75 70.24L50.74 70.39L50.72 70.54L50.69 70.69L50.65 70.83L50.61 70.98L50.55 71.13L50.49 71.27L50.42 71.42L50.34 71.56L50.26 71.7L50.16 71.83L50.06 71.96L49.97 72.09L49.88 72.22L49.8 72.35L49.72 72.48L49.65 72.61L49.58 72.74L49.51 72.87L49.45 73L49.39 73.13L49.34 73.26L49.29 73.38L49.24 73.51L49.2 73.64L49.16 73.77L49.13 73.9L49.1 74.03L49.07 74.15L49.04 74.28L49.02 74.41L49.01 74.54L48.99 74.67L48.98 74.8L48.98 74.93L48.98 75.07L48.98 75.2L48.98 75.33L48.99 75.47L49 75.6L49.01 75.74L49.03 75.87L49.04 76.01L49.07 76.15L49.09 76.29L49.12 76.43L49.15 76.57L49.18 76.71L49.22 76.85L49.26 77L49.3 77.15L49.34 77.29L49.37 77.43L49.4 77.57L49.42 77.7L49.44 77.83L49.46 77.96L49.47 78.09L49.47 78.21L49.48 78.33L49.47 78.45L49.46 78.57L49.45 78.68L49.44 78.79L49.42 78.9L49.39 79.01L49.36 79.12L49.33 79.22L49.29 79.32L49.25 79.42L49.2 79.52L49.15 79.61L49.1 79.71L49.04 79.8L48.98 79.89L48.91 79.98L48.84 80.07L48.76 80.15L48.68 80.24L48.6 80.32L48.51 80.4L48.42 80.48L48.33 80.56L48.23 80.64L48.12 80.71L48.02 80.79L47.9 80.86L47.79 80.94L47.67 81.01L47.55 81.08L47.42 81.15L47.35 81.2L47.31 81.22L47.27 81.24L47.23 81.26L47.19 81.29L47.15 81.31L47.11 81.33L47.07 81.36L47.03 81.38L46.99 81.41L46.95 81.43L46.91 81.46L46.87 81.49L46.83 81.51L46.79 81.54L46.75 81.57L46.71 81.59L46.67 81.62L46.63 81.65L46.59 81.68L46.56 81.71L46.52 81.74L46.48 81.77L46.45 81.8L46.41 81.83L46.38 81.86L46.35 81.89L46.31 81.92L46.28 81.95L46.25 81.98L46.22 82.02L46.19 82.05L46.17 82.09L46.14 82.12L46.12 82.15L46.09 82.19L46.07 82.22L46.05 82.26L46.03 82.3L45.95 82.44L45.87 82.59L45.79 82.74L45.71 82.89L45.64 83.04L45.56 83.19L45.48 83.33L45.41 83.48L45.33 83.63L45.25 83.78L45.18 83.93L45.1 84.08L45.03 84.23L44.95 84.38L44.88 84.53L44.81 84.68L44.73 84.83L44.66 84.99L44.58 85.14L44.51 85.29L44.44 85.44L44.37 85.59L44.29 85.74L44.22 85.89L44.15 86.04L44.08 86.19L44.01 86.35L43.94 86.5L43.86 86.65L43.79 86.8L43.72 86.95L43.65 87.1L43.58 87.25L43.51 87.4L43.44 87.55L43.3 87.86L43.23 88.01L43.16 88.16L43.09 88.31L43.08 88.32L43.07 88.34L43.07 88.36L43.06 88.37L43.06 88.39L43.05 88.41L43.05 88.43L43.05 88.45L43.04 88.47L43.04 88.49L43.04 88.51L43.03 88.53L43.03 88.55L43.03 88.57L43.03 88.59L43.03 88.61L43.03 88.63L43.03 88.66L43.03 88.68L43.02 88.7L43.03 88.72L43.03 88.75L43.03 88.77L43.03 88.79L43.03 88.81L43.03 88.83L43.03 88.86L43.03 88.88L43.04 88.9L43.04 88.92L43.04 88.94L43.05 88.97L43.05 88.99L43.05 89.01L43.06 89.03L43.06 89.05L43.07 89.07L43.07 89.09L43.08 89.11L43.09 89.13L43.11 89.22L43.14 89.32L43.16 89.41L43.19 89.51L43.21 89.6L43.24 89.7L43.26 89.79L43.29 89.89L43.31 89.98L43.34 90.08L43.36 90.17L43.39 90.27L43.42 90.36L43.44 90.46L43.47 90.55L43.5 90.65L43.52 90.74L43.55 90.84L43.58 90.94L43.6 91.03L43.63 91.13L43.66 91.22L43.68 91.32L43.71 91.42L43.74 91.51L43.76 91.61L43.79 91.7L43.82 91.8L43.85 91.9L43.87 91.99L43.93 92.19L43.98 92.38L44.01 92.48L44.04 92.58L44.07 92.67L44.09 92.77L44.12 92.87L44.15 92.97L45.65 93.07L47.13 93.1L48.61 93.07L50.08 92.97L51.53 92.81L52.98 92.59L54.4 92.31L55.81 91.98L57.2 91.58L58.58 91.14L59.93 90.64L61.26 90.08L62.56 89.48L63.84 88.83L65.1 88.13L66.32 87.38L67.52 86.59L68.68 85.76L69.82 84.88L70.92 83.96L71.98 83.01L73.01 82.01L74 80.98L74.95 79.92L75.86 78.82L76.73 77.69L77.55 76.53L78.33 75.34L79.06 74.12L79.75 72.88L80.38 71.61L80.97 70.32L81.5 69.01L81.98 67.67L82.4 66.32L82.77 64.95L83.08 63.56L83.33 62.16L83.52 60.75L83.64 59.32L83.5 59.33L83.36 59.34L83.21 59.36L83.07 59.37L82.93 59.39L82.79 59.41L82.65 59.44L82.51 59.46L82.38 59.49L82.24 59.52L82.11 59.55L81.97 59.58L81.84 59.62L81.7 59.65L81.57 59.69L81.44 59.74L81.31 59.78L81.18 59.83L81.05 59.88L80.92 59.93L80.8 59.98L80.67 60.04L80.55 60.1L80.42 60.16L80.3 60.22L80.18 60.29L80.06 60.36L79.94 60.43L79.82 60.5L79.7 60.58L79.58 60.66L79.46 60.74L79.35 60.82L79.24 60.91L79.12 61L79.01 61.09L78.9 61.19L78.79 61.29L78.68 61.39L78.57 61.49L78.4 61.65L78.24 61.82L78.07 61.98L77.9 62.15L77.73 62.31L77.56 62.47L77.38 62.63L77.21 62.79L77.04 62.95L76.87 63.11L76.69 63.27L76.52 63.42L76.34 63.58L76.16 63.73L75.98 63.88L75.81 64.03L75.62 64.18L75.44 64.32L75.26 64.46L75.07 64.61L74.89 64.74L74.7 64.88L74.51 65.01L74.31 65.14L74.12 65.27L73.92 65.4L73.72 65.52L73.52 65.64L73.32 65.76L73.12 65.87L72.91 65.98L72.7 66.09L72.49 66.19L72.27 66.29L72.06 66.38L71.84 66.48L71.61 66.56L71.39 66.65L71.16 66.73L70.93 66.8L70.9 66.81L70.87 66.82L70.84 66.83L70.81 66.84L70.78 66.84L70.75 66.85L70.71 66.86L70.68 66.87L70.64 66.87L70.61 66.88L70.57 66.88L70.54 66.89L70.5 66.89L70.47 66.89L70.43 66.9L70.4 66.9L70.36 66.9L70.32 66.9L70.29 66.9L70.25 66.91L70.22 66.9L70.18 66.9L70.15 66.9L70.12 66.9L70.08 66.9L70.05 66.89L70.02 66.89L69.99 66.88L69.96 66.88L69.93 66.87L69.9 66.86L69.87 66.86L69.85 66.85L69.82 66.84L69.8 66.83L69.78 66.82L69.75 66.8L69.74 66.79L69.72 66.78L69.7 66.76L69.5 66.54L69.29 66.32L69.08 66.11L68.87 65.89L68.66 65.68L68.44 65.46L68.23 65.25L68.01 65.04L67.8 64.82L67.59 64.61L67.38 64.39L67.17 64.18L66.96 63.96L66.76 63.74L66.56 63.52L66.37 63.29L66.17 63.07L65.99 62.84L65.81 62.61L65.64 62.37L65.47 62.13L65.31 61.89L65.16 61.64L65.02 61.39L64.89 61.14L64.76 60.88L64.65 60.61L64.55 60.34L64.45 60.06L64.37 59.78L64.3 59.49L64.25 59.19L64.2 58.89L64.17 58.58L64.16 58.26L64.15 57.93L64.17 57.6L64.2 57.25L64.24 56.9L64.3 56.54L64.31 56.5L64.32 56.46L64.33 56.41L64.33 56.37L64.34 56.33L64.34 56.28L64.34 56.24L64.34 56.2L64.34 56.15L64.34 56.11L64.34 56.07L64.34 56.03L64.34 55.98L64.34 55.94L64.33 55.9L64.33 55.85L64.33 55.81L64.32 55.77L64.32 55.73L64.31 55.68L64.31 55.64L64.31 55.6L64.3 55.51L64.29 55.47L64.29 55.43L64.28 55.38L64.28 55.34L64.27 55.3L64.27 55.25L64.27 55.21L64.26 55.17L64.26 55.12L64.26 55.08L64.26 55.04L64.26 55L64.26 54.95L64.26 54.91L64.26 54.87L64.26 54.82L64.27 54.75L64.27 54.69L64.27 54.62L64.27 54.55L64.27 54.49L64.27 54.43L64.27 54.37L64.26 54.31L64.25 54.25L64.24 54.19L64.23 54.14L64.21 54.08L64.2 54.03L64.18 53.97L64.16 53.92L64.14 53.87L64.12 53.82L64.1 53.78L64.07 53.73L64.04 53.68L64.01 53.64L63.98 53.6L63.95 53.55L63.92 53.51L63.88 53.47L63.84 53.43L63.8 53.39L63.76 53.35L63.72 53.31L63.67 53.28L63.62 53.24L63.58 53.21L63.52 53.17L63.47 53.14L63.42 53.1L63.36 53.07L63.3 53.04L63.24 53.01L63.18 52.97L63.12 52.94L62.93 52.85L62.75 52.76L62.57 52.67L62.38 52.58L62.19 52.49L62.01 52.4L61.82 52.3L61.45 52.12L61.26 52.03L61.08 51.94L60.89 51.85L60.7 51.76L60.52 51.66L60.33 51.57L60.15 51.48L59.96 51.39L59.77 51.29L59.59 51.2L59.4 51.1L59.22 51.01L59.04 50.91L58.85 50.82L58.67 50.72L58.49 50.62L58.3 50.52L58.12 50.42L57.94 50.32L57.76 50.22L57.58 50.11L57.4 50.01L57.23 49.91L57.05 49.8L56.87 49.69L56.7 49.58L56.53 49.47L56.35 49.36L56.18 49.25L56.01 49.13L55.84 49.02L55.7 48.92L55.55 48.81L55.4 48.71L55.26 48.6L55.12 48.49L54.98 48.38L54.84 48.27L54.7 48.16L54.56 48.05L54.42 47.93L54.28 47.82L54.14 47.7L54.01 47.58L53.87 47.46L53.74 47.34L53.6 47.22L53.47 47.1L53.33 46.98L53.2 46.86L53.07 46.73L52.93 46.61L52.8 46.49L52.67 46.36L52.54 46.24L52.41 46.11L52.28 45.99L52.15 45.86L52.02 45.73L51.88 45.61L51.62 45.36L51.49 45.23L51.36 45.11L51.23 44.98L51.1 44.86L50.97 44.73L50.84 44.61L50.71 44.48L50.58 44.36L50.45 44.24L50.43 44.22L50.42 44.21L50.4 44.2L50.39 44.18L50.38 44.17L50.36 44.15L50.35 44.14L50.34 44.12L50.33 44.1L50.32 44.09L50.31 44.07L50.3 44.05L50.29 44.03L50.28 44.01L50.27 43.99L50.27 43.97L50.26 43.95L50.25 43.93L50.24 43.91L50.24 43.89L50.23 43.87L50.22 43.85L50.22 43.83L50.21 43.81L50.2 43.79L50.2 43.77L50.19 43.74L50.19 43.72L50.18 43.7L50.17 43.68L50.17 43.66L50.16 43.61L50.15 43.59L50.15 43.57L50.14 43.55L50.14 43.52L50.13 43.5L50.12 43.48L50.12 43.46L50.07 43.23L50.02 43L49.99 42.78L49.96 42.55L49.94 42.33L49.93 42.11L49.92 41.89L49.93 41.67L49.94 41.46L49.95 41.24L49.98 41.03L50.01 40.82L50.05 40.62L50.1 40.41L50.15 40.21L50.21 40.01L50.28 39.82L50.35 39.62L50.43 39.43L50.52 39.25L50.61 39.06L50.71 38.88L50.82 38.71L50.93 38.53L51.05 38.36L51.18 38.19L51.31 38.03L51.45 37.87L51.59 37.71L51.74 37.56L51.9 37.41L52.06 37.27L52.22 37.13L52.4 36.99L52.58 36.86L52.76 36.73L52.95 36.61L53.15 36.49L53.35 36.37L53.55 36.26L53.67 36.2L53.8 36.13L53.92 36.07L54.04 36L54.16 35.93L54.29 35.87L54.41 35.8L54.53 35.73L54.65 35.66L54.77 35.59L54.89 35.52L55.01 35.45L55.13 35.37L55.25 35.3L55.37 35.23L55.49 35.15L55.61 35.08L55.72 35L55.84 34.92L55.96 34.85L56.08 34.77L56.19 34.69L56.31 34.61L56.43 34.53L56.54 34.45L56.66 34.37L56.77 34.29L56.88 34.21L57 34.12L57.11 34.04L57.22 33.95L57.34 33.87L57.45 33.78L57.56 33.69L57.67 33.61L57.78 33.52L57.89 33.43L58 33.34L58.11 33.25L58.21 33.16L58.33 33.06L58.45 32.96L58.56 32.86L58.68 32.77L58.8 32.67L58.91 32.58L59.03 32.49L59.15 32.39L59.27 32.3L59.38 32.21L59.5 32.12L59.62 32.03L59.74 31.94L59.86 31.85L59.98 31.77L60.1 31.68L60.22 31.6L60.34 31.51L60.46 31.43L60.58 31.35L60.71 31.27L60.83 31.19L60.96 31.11L61.08 31.03L61.21 30.95L61.33 30.88L61.46 30.81L61.59 30.73L61.72 30.66L61.85 30.59L61.98 30.52L62.11 30.46L62.24 30.39L62.38 30.33L62.51 30.26L62.65 30.2L62.78 30.14L62.92 30.08L63.06 30.02L63.2 29.97L63.21 29.97L63.21 29.97L63.22 29.97L63.23 29.97L63.24 29.96L63.24 29.96L63.25 29.96L63.26 29.96L63.27 29.96L63.28 29.96L63.29 29.95L63.3 29.95L63.31 29.95L63.32 29.94L63.34 29.94L63.34 29.93L63.35 29.93L63.36 29.93L63.37 29.92L63.38 29.92L63.4 29.91L63.42 29.9L63.43 29.89L63.45 29.89L63.31 29.68L63.18 29.47L63.05 29.26L62.93 29.05L62.8 28.83L62.68 28.61L62.56 28.4L62.45 28.17L62.33 27.95L62.22 27.73L62.12 27.5L62.01 27.27L61.91 27.04L61.81 26.81L61.71 26.57L61.62 26.34L61.53 26.1L61.44 25.86L61.35 25.62L61.27 25.37L61.19 25.13L61.11 24.88L61.04 24.63L60.97 24.38L60.9 24.13L60.83 23.87L60.77 23.62L60.71 23.36L60.66 23.1L60.61 22.84L60.56 22.58L60.51 22.32L60.47 22.05L60.43 21.79L60.39 21.52L60.36 21.25L60.33 20.98L60.3 20.7L60.28 20.43L60.26 20.16L59.08 19.71L57.9 19.3L56.71 18.94L55.5 18.61L54.3 18.33L53.08 18.09L51.86 17.89L50.64 17.73L49.42 17.61L48.19 17.52L46.97 17.48L45.74 17.48L44.52 17.51L43.31 17.58ZM8.42 53.78L8.38 56.22L8.51 58.65L8.8 61.06L9.25 63.44L9.86 65.78L10.61 68.09L11.5 70.34L12.53 72.52L13.7 74.64L14.99 76.69L16.4 78.64L17.93 80.5L19.57 82.26L21.31 83.91L23.16 85.44L25.1 86.85L27.13 88.11L29.25 89.24L31.44 90.21L33.71 91.02L36.05 91.66L35.96 91.46L35.87 91.26L35.77 91.06L35.68 90.86L35.58 90.66L35.48 90.46L35.38 90.26L35.29 90.05L35.19 89.85L35.09 89.64L34.99 89.43L34.89 89.23L34.79 89.02L34.69 88.81L34.59 88.6L34.49 88.38L34.39 88.17L34.3 87.96L34.2 87.74L34.11 87.53L34.02 87.31L33.93 87.09L33.85 86.88L33.7 86.48L33.57 86.07L33.45 85.67L33.35 85.27L33.25 84.86L33.16 84.45L33.09 84.05L33.02 83.64L32.96 83.23L32.91 82.82L32.87 82.41L32.83 81.99L32.8 81.58L32.78 81.17L32.76 80.75L32.75 80.34L32.74 79.93L32.73 79.51L32.73 79.1L32.73 78.68L32.73 78.26L32.74 77.85L32.74 77.43L32.75 76.94L32.76 76.49L32.76 76.1L32.76 75.75L32.76 75.44L32.75 75.17L32.73 74.94L32.69 74.74L32.65 74.57L32.59 74.43L32.51 74.31L32.41 74.21L32.29 74.13L32.15 74.07L31.98 74.01L31.79 73.97L31.57 73.93L31.31 73.89L31.03 73.85L30.71 73.81L30.35 73.76L29.95 73.7L29.51 73.63L29.25 73.58L29 73.54L28.78 73.5L28.58 73.46L28.4 73.42L28.23 73.38L28.09 73.34L27.96 73.29L27.84 73.23L27.74 73.17L27.66 73.11L27.58 73.03L27.52 72.94L27.47 72.84L27.43 72.73L27.4 72.6L27.37 72.46L27.36 72.3L27.35 72.13L27.34 71.93L27.34 71.72L27.34 71.48L27.35 71.22L27.35 71.06L27.34 70.91L27.33 70.76L27.32 70.63L27.3 70.5L27.27 70.38L27.23 70.27L27.19 70.17L27.14 70.08L27.08 69.99L27.02 69.91L26.95 69.84L26.87 69.78L26.78 69.72L26.69 69.67L26.59 69.63L26.48 69.6L26.37 69.57L26.24 69.55L26.11 69.54L25.97 69.53L25.83 69.53L25.67 69.54L25.61 69.55L25.54 69.55L25.48 69.55L25.42 69.56L25.36 69.56L25.29 69.56L25.23 69.56L25.17 69.56L25.11 69.56L25.05 69.56L24.99 69.56L24.92 69.56L24.86 69.56L24.8 69.55L24.74 69.55L24.68 69.55L24.62 69.55L24.55 69.55L24.49 69.55L24.43 69.54L24.37 69.54L24.3 69.54L24.24 69.54L24.13 69.54L24.03 69.53L23.93 69.52L23.83 69.51L23.74 69.48L23.66 69.46L23.58 69.43L23.51 69.39L23.44 69.35L23.37 69.31L23.32 69.26L23.26 69.21L23.21 69.15L23.17 69.09L23.13 69.02L23.1 68.95L23.07 68.87L23.05 68.79L23.03 68.71L23.02 68.61L23.01 68.52L23.01 68.42L23.01 68.32L23.05 67.8L23.07 67.29L23.09 66.79L23.09 66.28L23.09 65.77L23.07 65.27L23.05 64.76L23.01 64.26L22.97 63.75L22.93 63.25L22.87 62.75L22.81 62.25L22.75 61.75L22.68 61.25L22.6 60.75L22.52 60.25L22.44 59.75L22.36 59.25L22.27 58.75L22.18 58.25L22.09 57.75L22 57.25L21.91 56.75L21.88 56.61L21.85 56.49L21.82 56.37L21.78 56.26L21.75 56.16L21.71 56.07L21.66 55.98L21.61 55.91L21.56 55.84L21.51 55.78L21.45 55.72L21.38 55.68L21.31 55.64L21.23 55.6L21.15 55.58L21.07 55.56L20.97 55.55L20.87 55.54L20.77 55.54L20.66 55.55L20.54 55.56L20.41 55.58L20.27 55.6L20.22 55.61L20.16 55.61L20.1 55.61L20.03 55.61L19.96 55.6L19.89 55.59L19.82 55.57L19.75 55.56L19.67 55.54L19.6 55.51L19.53 55.49L19.46 55.46L19.4 55.43L19.33 55.4L19.27 55.36L19.21 55.33L19.16 55.29L19.11 55.26L19.07 55.22L19.03 55.18L19 55.14L18.98 55.11L18.97 55.07L18.93 54.92L18.88 54.78L18.83 54.65L18.78 54.54L18.72 54.44L18.65 54.35L18.59 54.27L18.51 54.2L18.44 54.15L18.36 54.1L18.27 54.06L18.18 54.03L18.09 54.01L18 53.99L17.9 53.98L17.8 53.98L17.69 53.98L17.58 53.99L17.47 54L17.36 54.02L17.24 54.04L17.12 54.06L17 54.09L16.92 54.11L16.83 54.13L16.75 54.14L16.66 54.16L16.57 54.18L16.48 54.19L16.4 54.2L16.31 54.22L16.22 54.23L16.14 54.24L16.05 54.25L15.96 54.26L15.88 54.28L15.79 54.29L15.7 54.3L15.62 54.32L15.53 54.33L15.45 54.35L15.37 54.37L15.28 54.39L15.2 54.41L15.12 54.43L15.04 54.46L14.9 54.49L14.76 54.53L14.63 54.55L14.51 54.56L14.38 54.57L14.27 54.57L14.15 54.56L14.04 54.54L13.94 54.52L13.84 54.49L13.74 54.45L13.64 54.4L13.54 54.35L13.45 54.29L13.36 54.23L13.27 54.15L13.18 54.07L13.1 53.99L13.01 53.9L12.92 53.8L12.84 53.7L12.75 53.59L12.67 53.48L12.52 53.28L12.38 53.08L12.23 52.89L12.08 52.69L11.93 52.5L11.78 52.3L11.63 52.11L11.47 51.91L11.32 51.72L11.16 51.52L11.01 51.33L10.85 51.13L10.69 50.94L10.53 50.74L10.36 50.54L10.2 50.34L10.04 50.14L9.87 49.94L9.71 49.73L9.54 49.53L9.37 49.32L9.2 49.11L9.03 48.9L8.64 51.33L8.42 53.78ZM76.7 3.98L75.44 4.25L74.22 4.62L73.05 5.08L71.93 5.64L70.87 6.28L69.86 7L68.92 7.8L68.04 8.67L67.24 9.6L66.51 10.6L65.87 11.66L65.31 12.77L64.84 13.93L64.47 15.14L64.2 16.38L64.03 17.66L63.98 18.97L64.03 20.32L64.2 21.64L64.46 22.92L64.83 24.16L65.29 25.35L65.84 26.48L66.48 27.56L67.2 28.58L68 29.54L68.87 30.42L69.81 31.23L70.81 31.96L71.88 32.61L73 33.17L74.18 33.64L75.4 34.01L76.66 34.28L77.97 34.45L79.31 34.51L80.64 34.45L81.93 34.28L83.2 34.01L84.42 33.64L85.59 33.18L86.72 32.62L87.79 31.97L88.81 31.25L89.75 30.45L90.64 29.57L91.44 28.63L92.17 27.63L92.82 26.56L93.38 25.44L93.85 24.28L94.23 23.07L94.5 21.82L94.66 20.53L94.72 19.22L94.66 17.87L94.49 16.56L94.22 15.28L93.84 14.05L93.38 12.86L92.82 11.73L92.18 10.65L91.45 9.64L90.65 8.69L89.77 7.81L88.83 7L87.82 6.27L86.75 5.63L85.62 5.07L84.45 4.61L83.22 4.24L81.95 3.97L80.65 3.81L79.31 3.76L77.99 3.82L76.7 3.98Z" id="dnMB07xvo"></path><path d="M80.15 11.2L80.67 11.3L81.17 11.43L81.64 11.61L82.09 11.82L82.51 12.07L82.91 12.36L83.29 12.68L83.64 13.04L83.96 13.42L84.24 13.82L84.48 14.24L84.69 14.68L84.87 15.14L85.02 15.62L85.13 16.13L85.21 16.66L85.26 17.21L85.28 17.78L85.25 18.53L85.16 19.25L85.02 19.94L84.82 20.6L84.57 21.24L84.25 21.84L83.88 22.42L83.45 22.96L82.96 23.48L82.42 23.96L81.87 24.38L81.31 24.75L80.71 25.08L80.09 25.37L79.45 25.61L78.77 25.81L78.08 25.97L77.35 26.08L76.61 26.14L75.83 26.17L75.79 26.16L75.74 26.15L75.7 26.13L75.66 26.11L75.62 26.08L75.58 26.04L75.55 26L75.52 25.95L75.49 25.9L75.47 25.84L75.31 25.44L75.18 25.07L75.05 24.73L74.95 24.42L74.86 24.14L74.78 23.89L74.72 23.67L74.68 23.48L74.66 23.32L74.65 23.18L74.65 23.11L74.67 23.05L74.69 22.99L74.73 22.95L74.78 22.9L74.83 22.87L74.9 22.85L74.98 22.83L75.08 22.82L75.18 22.81L75.9 22.79L76.57 22.73L77.19 22.64L77.76 22.5L78.27 22.33L78.73 22.12L79.14 21.87L79.5 21.58L79.8 21.25L80.04 20.89L80.08 20.84L80.11 20.8L80.13 20.76L80.16 20.71L80.17 20.68L80.19 20.64L80.2 20.61L80.2 20.58L80.21 20.55L80.21 20.52L80.21 20.51L80.2 20.5L80.2 20.49L80.19 20.48L80.18 20.47L80.17 20.46L80.16 20.45L80.15 20.45L80.14 20.44L80.13 20.44L80.11 20.44L80.09 20.44L80.07 20.44L80.04 20.45L80.01 20.45L79.98 20.46L79.95 20.47L79.91 20.48L79.88 20.5L79.84 20.52L79.64 20.61L79.44 20.68L79.23 20.75L79.02 20.81L78.8 20.86L78.57 20.9L78.35 20.93L78.11 20.95L77.88 20.97L77.63 20.97L77.22 20.96L76.83 20.92L76.46 20.86L76.1 20.78L75.76 20.67L75.43 20.53L75.12 20.37L74.82 20.19L74.55 19.98L74.28 19.75L74.02 19.49L73.79 19.22L73.59 18.93L73.42 18.63L73.27 18.31L73.15 17.97L73.05 17.62L72.98 17.26L72.94 16.87L72.93 16.48L72.95 15.96L73 15.47L73.09 15L73.21 14.56L73.37 14.15L73.56 13.75L73.79 13.39L74.05 13.04L74.35 12.72L74.69 12.43L75.03 12.18L75.39 11.96L75.77 11.77L76.17 11.6L76.6 11.45L77.04 11.33L77.5 11.24L77.99 11.17L78.49 11.13L79.02 11.12L79.6 11.14L80.15 11.2ZM77.5 14.91L77.14 15.55L77.02 16.43L77.05 16.84L77.15 17.21L77.31 17.53L77.55 17.83L77.84 18.07L78.16 18.25L78.52 18.36L78.9 18.4L79.31 18.37L79.67 18.28L80 18.14L80.29 17.95L80.53 17.66L80.71 17.35L80.82 17L80.86 16.6L80.83 16.18L80.74 15.78L80.59 15.41L80.37 15.09L80.07 14.79L79.73 14.57L79.35 14.44L78.94 14.39L78.11 14.52L77.5 14.91Z" id="a4ErbhFAG"></path></defs><g><g><g><use xlink:href="#dnMB07xvo" opacity="1" fill="#66a1c8" fill-opacity="1"></use><g><use xlink:href="#dnMB07xvo" opacity="1" fill-opacity="0" stroke="#000000" stroke-width="1" stroke-opacity="0"></use></g></g><g><use xlink:href="#a4ErbhFAG" opacity="1" fill="#66a1c8" fill-opacity="1"></use><g><use xlink:href="#a4ErbhFAG" opacity="1" fill-opacity="0" stroke="#000000" stroke-width="1" stroke-opacity="0"></use></g></g></g></g></svg>