<?xml version="1.0" encoding="UTF-8" standalone="no"?>
<!DOCTYPE svg PUBLIC "-//W3C//DTD SVG 1.1//EN" "http://www.w3.org/Graphics/SVG/1.1/DTD/svg11.dtd">
<svg version="1.1" xmlns="http://www.w3.org/2000/svg" xmlns:xlink="http://www.w3.org/1999/xlink" preserveAspectRatio="xMidYMid meet" viewBox="0 0 100 100" width="100" height="100"><defs><path d="M80.35 21.25L80.48 21.26L80.6 21.28L80.73 21.3L80.85 21.33L80.97 21.36L81.09 21.39L81.21 21.43L81.33 21.48L81.45 21.53L81.56 21.58L81.68 21.64L81.79 21.7L81.9 21.77L82 21.84L82.11 21.92L82.21 22L82.31 22.09L82.4 22.18L82.5 22.28L82.58 22.38L82.67 22.48L82.74 22.58L82.82 22.69L82.88 22.8L82.95 22.91L83.01 23.02L83.06 23.14L83.11 23.26L83.15 23.37L83.19 23.49L83.23 23.61L83.26 23.74L83.28 23.86L83.3 23.98L83.31 24.11L83.32 24.23L83.33 24.36L83.33 24.48L83.32 24.61L83.31 24.73L83.3 24.86L83.28 24.98L83.25 25.11L83.22 25.23L83.19 25.35L83.15 25.47L83.1 25.59L83.05 25.71L83 25.83L82.94 25.94L82.87 26.06L82.8 26.17L82.72 26.28L82.64 26.38L82.56 26.49L82.46 26.59L82.37 26.69L82.27 26.78L18.96 90.09L18.92 90.14L18.88 90.19L18.83 90.24L18.79 90.28L18.74 90.33L18.69 90.37L18.65 90.42L18.6 90.46L18.55 90.5L18.5 90.53L18.45 90.57L18.39 90.61L18.34 90.64L18.29 90.67L18.23 90.7L18.18 90.73L18.12 90.76L18.07 90.79L18.01 90.81L17.95 90.84L17.89 90.86L17.84 90.88L17.78 90.9L17.72 90.92L17.66 90.94L17.6 90.95L17.54 90.97L17.48 90.98L17.42 91L17.36 91.01L17.29 91.02L17.23 91.03L17.17 91.04L17.11 91.04L17.05 91.05L16.98 91.05L16.92 91.06L16.86 91.06L16.79 91.06L16.73 91.06L16.67 91.06L16.61 91.06L16.54 91.06L16.48 91.05L16.42 91.04L16.36 91.04L16.29 91.03L16.23 91.01L16.17 91L16.11 90.99L16.05 90.97L15.99 90.96L15.93 90.94L15.87 90.92L15.81 90.9L15.75 90.88L15.69 90.86L15.63 90.83L15.57 90.81L15.51 90.78L15.45 90.76L15.4 90.73L15.34 90.7L15.29 90.67L15.23 90.64L15.18 90.61L15.12 90.58L15.07 90.54L15.02 90.51L14.97 90.47L14.92 90.44L14.87 90.4L14.82 90.37L14.77 90.33L14.72 90.29L14.68 90.25L14.63 90.21L14.59 90.17L14.54 90.13L14.5 90.09L14.41 89.99L14.32 89.89L14.24 89.79L14.16 89.69L14.09 89.58L14.02 89.47L13.96 89.36L13.9 89.25L13.84 89.13L13.8 89.01L13.75 88.9L13.71 88.78L13.68 88.66L13.64 88.53L13.62 88.41L13.6 88.29L13.58 88.16L13.57 88.04L13.56 87.91L13.56 87.79L13.56 87.66L13.57 87.54L13.58 87.41L13.6 87.29L13.62 87.16L13.64 87.04L13.68 86.92L13.71 86.8L13.75 86.68L13.8 86.56L13.84 86.44L13.9 86.33L13.96 86.21L14.02 86.1L14.09 85.99L14.16 85.89L14.24 85.78L14.32 85.68L14.41 85.58L14.5 85.49L27.75 72.24L27.53 71.92L27.32 71.61L27.11 71.28L26.91 70.96L26.71 70.63L26.52 70.3L26.33 69.97L26.14 69.63L25.97 69.3L25.79 68.96L25.62 68.61L25.46 68.27L25.3 67.92L25.15 67.57L25 67.22L24.86 66.86L24.73 66.51L24.59 66.15L24.47 65.79L24.35 65.42L24.23 65.06L24.12 64.69L24.02 64.33L23.92 63.96L23.83 63.59L23.74 63.21L23.66 62.84L23.59 62.46L23.52 62.09L23.45 61.71L23.4 61.33L23.34 60.95L23.3 60.57L23.26 60.19L23.22 59.8L23.2 59.42L23.17 59.04L23.16 58.65L23.15 58.26L23.15 57.88L23.17 56.86L23.23 55.85L23.33 54.85L23.47 53.87L23.65 52.89L23.86 51.94L24.11 50.99L24.4 50.06L24.72 49.15L25.08 48.26L25.47 47.38L25.89 46.52L26.35 45.68L26.84 44.86L27.35 44.06L27.9 43.29L28.47 42.53L29.08 41.8L29.71 41.1L30.36 40.41L31.04 39.76L31.75 39.13L32.48 38.53L33.24 37.95L34.01 37.4L34.81 36.89L35.63 36.4L36.47 35.95L37.33 35.52L38.2 35.13L39.1 34.78L40.01 34.45L40.94 34.17L41.88 33.91L42.84 33.7L43.81 33.52L44.8 33.38L45.8 33.28L46.81 33.22L47.83 33.2L48.21 33.2L48.6 33.21L48.98 33.23L49.37 33.25L49.75 33.28L50.14 33.31L50.52 33.35L50.9 33.4L51.28 33.45L51.66 33.51L52.04 33.57L52.41 33.64L52.79 33.71L53.16 33.8L53.53 33.88L53.9 33.97L54.27 34.07L54.64 34.18L55.01 34.29L55.37 34.4L55.73 34.52L56.1 34.65L56.45 34.78L56.81 34.92L57.16 35.06L57.52 35.2L57.87 35.36L58.22 35.51L58.56 35.68L58.9 35.85L59.24 36.02L59.58 36.2L59.92 36.38L60.25 36.57L60.58 36.76L60.91 36.96L61.23 37.16L61.55 37.37L61.87 37.58L62.19 37.8L77.8 22.18L77.9 22.09L78 22L78.1 21.92L78.2 21.84L78.31 21.77L78.42 21.7L78.53 21.64L78.64 21.58L78.76 21.53L78.88 21.48L78.99 21.43L79.11 21.39L79.23 21.36L79.36 21.33L79.48 21.3L79.6 21.28L79.73 21.26L79.85 21.25L79.98 21.24L80.1 21.24L80.23 21.24L80.35 21.25ZM44.16 39.99L42.41 40.44L40.74 41.05L39.14 41.83L37.63 42.74L36.23 43.8L34.93 44.98L33.75 46.28L32.69 47.69L31.77 49.19L31 50.79L30.39 52.46L29.93 54.21L29.65 56.02L29.56 57.88L29.57 58.32L29.6 58.79L29.66 59.28L29.73 59.8L29.83 60.33L29.95 60.88L30.09 61.46L30.26 62.06L30.44 62.68L30.65 63.32L30.88 63.99L31.13 64.68L31.4 65.38L31.69 66.11L32.01 66.86L32.35 67.64L57.59 42.4L57.03 42.07L56.47 41.76L55.9 41.47L55.32 41.2L54.73 40.95L54.13 40.72L53.53 40.51L52.91 40.33L52.3 40.16L51.67 40.02L51.04 39.89L50.41 39.79L49.77 39.71L49.13 39.66L48.48 39.62L47.83 39.61L45.97 39.71L44.16 39.99Z" id="a3y9X1GoBd"></path><path d="M50.47 24.14C50.47 22.94 50.47 13.34 50.47 12.14C50.47 10.33 49.08 8.94 47.27 8.94C45.46 8.94 44.06 10.33 44.06 12.14C44.06 13.34 44.06 22.94 44.06 24.14C44.06 25.95 45.46 27.34 47.27 27.34C49.08 27.34 50.47 25.95 50.47 24.14Z" id="a2hfAClOqk"></path><path d="M17.85 53C16.38 53 4.67 53 3.21 53C1.39 53 0 54.39 0 56.2C0 58.02 1.39 59.41 3.21 59.41C4.67 59.41 16.38 59.41 17.85 59.41C19.66 59.41 21.05 58.02 21.05 56.2C21.05 54.39 19.66 53 17.85 53Z" id="f84cyEAnn"></path><path d="M25.1 37.24C25.93 37.24 26.77 36.96 27.33 36.27C27.89 35.71 28.3 34.87 28.3 34.03C28.3 33.2 28.03 32.36 27.33 31.8C26.49 30.97 19.8 24.27 18.96 23.44C17.71 22.18 15.62 22.18 14.36 23.44C13.11 24.69 13.11 26.78 14.36 28.04C14.93 28.59 17.76 31.33 22.87 36.27C23.8 36.92 24.54 37.24 25.1 37.24Z" id="amhEVhfGu"></path><path d="M47.69 70.85C48.01 70.52 50.57 67.96 50.89 67.64C52.29 69.03 53.68 69.73 55.22 69.73C55.91 69.73 56.47 69.59 56.89 69.17C57.31 68.89 57.59 68.34 57.59 67.78C57.59 67.22 57.31 66.8 56.75 66.38C56.19 66.1 55.49 65.83 54.52 65.83C54.38 65.83 53.68 65.83 52.43 65.83L51.73 63.18L55.91 59.41L48.94 59.41L48.94 55.37L62.05 55.37L62.05 58.99C59.45 61.25 58.01 62.51 57.73 62.76C60.79 63.46 62.47 65.13 62.47 67.92C62.47 69.73 61.77 71.12 60.51 72.24C59.12 73.49 57.45 74.05 55.35 74.05C52.15 74.05 49.5 72.94 47.69 70.85Z" id="c2CWIQxjYg"></path><path d="M74.25 55.45L74.88 55.56L75.49 55.71L76.07 55.91L76.63 56.16L77.17 56.46L77.68 56.8L78.17 57.2L78.63 57.65L79.06 58.16L79.46 58.66L79.81 59.19L80.13 59.73L80.41 60.3L80.64 60.89L80.84 61.5L81.01 62.13L81.13 62.78L81.22 63.45L81.27 64.14L81.29 64.85L81.24 65.53L81.16 66.19L81.05 66.84L80.9 67.47L80.73 68.09L80.52 68.68L80.27 69.27L79.99 69.83L79.67 70.37L79.32 70.9L78.92 71.4L78.49 71.88L78.03 72.31L77.54 72.7L77.03 73.04L76.49 73.34L75.93 73.6L75.35 73.81L74.74 73.98L74.11 74.1L73.46 74.17L72.78 74.19L72.11 74.17L71.46 74.11L70.83 74L70.22 73.85L69.63 73.66L69.07 73.42L68.54 73.14L68.03 72.81L67.54 72.44L67.08 72.01L66.65 71.54L66.25 71.04L65.89 70.51L65.58 69.97L65.3 69.4L65.06 68.81L64.86 68.2L64.7 67.57L64.58 66.92L64.49 66.25L64.44 65.56L64.42 64.85L64.44 64.14L64.5 63.45L64.6 62.78L64.74 62.13L64.92 61.5L65.14 60.89L65.4 60.3L65.69 59.73L66.02 59.19L66.39 58.66L66.79 58.16L67.22 57.68L67.68 57.25L68.16 56.86L68.68 56.52L69.21 56.22L69.77 55.96L70.36 55.75L70.97 55.58L71.6 55.46L72.25 55.39L72.92 55.37L73.6 55.39L74.25 55.45ZM71.69 59.76L71.21 60.03L70.78 60.43L70.41 60.95L70.1 61.55L69.83 62.2L69.62 62.91L69.49 63.7L69.44 64.57L69.47 65.46L69.58 66.27L69.77 67L70.04 67.64L70.41 68.2L70.78 68.72L71.21 69.11L71.69 69.38L72.22 69.54L72.78 69.59L73.35 69.54L73.88 69.38L74.36 69.11L74.79 68.72L75.15 68.2L75.47 67.59L75.74 66.94L75.95 66.23L76.08 65.44L76.13 64.57L76.1 63.75L75.99 62.97L75.8 62.24L75.52 61.56L75.15 60.95L74.73 60.43L74.3 60.03L73.84 59.76L73.34 59.6L72.78 59.55L72.22 59.6L71.69 59.76Z" id="csbUOfBTg"></path><path d="M93.07 55.45L93.7 55.56L94.31 55.71L94.9 55.91L95.46 56.16L95.99 56.46L96.51 56.8L96.99 57.2L97.45 57.65L97.88 58.16L98.28 58.66L98.64 59.19L98.95 59.73L99.23 60.3L99.47 60.89L99.67 61.5L99.83 62.13L99.95 62.78L100.04 63.45L100.1 64.14L100.11 64.85L100.09 65.53L100.03 66.19L99.93 66.84L99.79 67.47L99.61 68.09L99.39 68.68L99.13 69.27L98.84 69.83L98.51 70.37L98.14 70.9L97.74 71.4L97.31 71.88L96.85 72.31L96.37 72.7L95.85 73.04L95.32 73.34L94.76 73.6L94.17 73.81L93.56 73.98L92.93 74.1L92.28 74.17L91.61 74.19L90.93 74.17L90.28 74.11L89.65 74L89.04 73.85L88.46 73.66L87.9 73.42L87.36 73.14L86.85 72.81L86.36 72.44L85.9 72.01L85.47 71.54L85.07 71.04L84.72 70.51L84.4 69.97L84.12 69.4L83.89 68.81L83.69 68.2L83.52 67.57L83.4 66.92L83.31 66.25L83.26 65.56L83.24 64.85L83.26 64.14L83.32 63.45L83.43 62.78L83.57 62.13L83.75 61.5L83.97 60.89L84.22 60.3L84.52 59.73L84.85 59.19L85.21 58.66L85.61 58.16L86.04 57.68L86.5 57.25L86.99 56.86L87.5 56.52L88.04 56.22L88.6 55.96L89.18 55.75L89.79 55.58L90.42 55.46L91.07 55.39L91.75 55.37L92.42 55.39L93.07 55.45ZM90.51 59.76L90.03 60.03L89.6 60.43L89.24 60.95L88.92 61.55L88.65 62.2L88.44 62.91L88.31 63.7L88.26 64.57L88.36 65.46L88.5 66.27L88.69 67L88.93 67.64L89.24 68.2L89.6 68.72L90.03 69.11L90.51 69.38L91.04 69.54L91.61 69.59L92.17 69.54L92.7 69.38L93.18 69.11L93.61 68.72L93.98 68.2L94.29 67.59L94.56 66.94L94.77 66.23L94.91 65.44L94.95 64.57L94.92 63.75L94.81 62.97L94.62 62.24L94.35 61.56L93.98 60.95L93.56 60.43L93.12 60.03L92.66 59.76L92.16 59.6L91.61 59.55L91.04 59.6L90.51 59.76Z" id="a1knbagDJx"></path></defs><g><g><path></path><path></path><path></path><path></path><g><use xlink:href="#a3y9X1GoBd" opacity="1" fill="#448dbc" fill-opacity="1"></use><g><use xlink:href="#a3y9X1GoBd" opacity="1" fill-opacity="0" stroke="#000000" stroke-width="1" stroke-opacity="0"></use></g></g><g><use xlink:href="#a2hfAClOqk" opacity="1" fill="#448dbc" fill-opacity="1"></use><g><use xlink:href="#a2hfAClOqk" opacity="1" fill-opacity="0" stroke="#000000" stroke-width="1" stroke-opacity="0"></use></g></g><g><use xlink:href="#f84cyEAnn" opacity="1" fill="#448dbc" fill-opacity="1"></use><g><use xlink:href="#f84cyEAnn" opacity="1" fill-opacity="0" stroke="#000000" stroke-width="1" stroke-opacity="0"></use></g></g><g><use xlink:href="#amhEVhfGu" opacity="1" fill="#448dbc" fill-opacity="1"></use><g><use xlink:href="#amhEVhfGu" opacity="1" fill-opacity="0" stroke="#000000" stroke-width="1" stroke-opacity="0"></use></g></g><g><use xlink:href="#c2CWIQxjYg" opacity="1" fill="#448dbc" fill-opacity="1"></use><g><use xlink:href="#c2CWIQxjYg" opacity="1" fill-opacity="0" stroke="#000000" stroke-width="1" stroke-opacity="0"></use></g></g><g><use xlink:href="#csbUOfBTg" opacity="1" fill="#448dbc" fill-opacity="1"></use><g><use xlink:href="#csbUOfBTg" opacity="1" fill-opacity="0" stroke="#000000" stroke-width="1" stroke-opacity="0"></use></g></g><g><use xlink:href="#a1knbagDJx" opacity="1" fill="#448dbc" fill-opacity="1"></use><g><use xlink:href="#a1knbagDJx" opacity="1" fill-opacity="0" stroke="#000000" stroke-width="1" stroke-opacity="0"></use></g></g></g></g></svg>