<?xml version="1.0" encoding="UTF-8" standalone="no"?>
<!DOCTYPE svg PUBLIC "-//W3C//DTD SVG 1.1//EN" "http://www.w3.org/Graphics/SVG/1.1/DTD/svg11.dtd">
<svg version="1.1" xmlns="http://www.w3.org/2000/svg" xmlns:xlink="http://www.w3.org/1999/xlink" preserveAspectRatio="xMidYMid meet" viewBox="0 0 100 100" width="100" height="100"><defs><path d="M33.97 25.36C33.59 25.36 33.21 25.36 32.78 25.36C32.78 30.77 32.78 36.02 32.78 41.51C33.01 41.2 33.13 41.09 33.21 40.94C36.17 35.22 40.92 31.68 46.95 29.78C48.05 29.43 49.34 29.08 50.41 29.33C57.13 30.85 62.46 34.36 65.8 40.57C65.94 40.82 66.1 41.06 66.25 41.3C66.45 40.84 66.45 40.46 66.45 40.07C66.45 35.58 66.42 31.09 66.47 26.61C66.48 25.65 66.26 25.33 65.23 25.34C54.81 25.38 44.39 25.36 33.97 25.36Z" id="b4ide0hVAD"></path><path d="M65.37 23.3C65.83 23.3 66.45 23.48 66.44 22.65C66.44 22.39 66.44 22.12 66.44 21.85C66.43 18.26 63.52 15.35 59.92 15.35C57.72 15.35 40.16 15.35 37.96 15.35C35.12 15.35 32.83 17.64 32.83 20.48C32.83 20.76 32.83 23.03 32.83 23.31C33.33 23.31 33.71 23.31 34.1 23.31C38.96 23.31 43.8 23.31 48.66 23.31C54.23 23.31 59.8 23.31 65.37 23.3Z" id="c77YCPn43"></path><path d="M20.28 52.5C20.26 57.7 20.27 83.39 20.27 88.61C20.27 88.92 20.31 89.23 20.34 89.67C22.8 89.67 25.2 89.69 27.6 89.64C27.79 89.64 28.13 89.18 28.13 88.94C28.16 83.55 28.19 57.68 28.11 52.3C28.08 50.04 26.23 48.42 24.09 48.47C21.98 48.53 20.29 50.29 20.28 52.5Z" id="bKiB9FBgR"></path><path d="M5.53 52.17C5.47 56.12 5.53 60.06 5.53 64.02C5.53 65.66 5.53 87.78 5.53 89.65C8.06 89.65 10.38 89.67 12.71 89.62C12.93 89.61 13.32 89.16 13.33 88.91C13.36 83.46 13.4 57.51 13.32 52.06C13.3 50.08 11.43 48.48 9.43 48.47C7.38 48.46 5.56 50.11 5.53 52.17Z" id="b3an0XEBGp"></path><path d="M0.74 43.51C0.17 43.51 0 43.77 0 44.3C0.02 49.61 0.02 54.93 0.02 60.25C0.02 62.75 0.01 85.75 0.01 88.26C0.01 88.68 0.01 89.11 0.01 89.59C1.2 89.59 2.26 89.59 3.46 89.59C3.46 88.4 3.46 66.79 3.46 65.65C3.46 61.37 3.58 57.1 3.44 52.83C3.26 47.96 8.59 44.65 12.79 47.5C12.9 47.58 13.04 47.62 13.36 47.76C13.36 46.47 13.34 45.37 13.37 44.25C13.38 43.71 13.15 43.51 12.6 43.51C8.64 43.52 4.69 43.52 0.74 43.51Z" id="b1plOc5xSw"></path><path d="M71.83 11.05C71.83 10.52 71.68 10.26 71.1 10.27C68.72 10.28 66.33 10.27 63.95 10.26C63.95 10.26 63.95 10.26 63.95 10.26C63.92 10.26 63.88 10.26 63.85 10.26C62.31 10.26 60.79 10.26 59.25 10.26C59.22 10.26 59.2 10.26 59.17 10.26C52.91 10.26 46.64 10.26 40.38 10.26C40.34 10.26 40.31 10.25 40.27 10.25C36.32 10.27 32.37 10.27 28.42 10.26C27.84 10.26 27.68 10.52 27.68 11.04C27.7 16.36 27.7 21.68 27.7 26.99C27.7 29.5 27.69 52.5 27.69 55C27.69 55.43 27.69 89.07 27.69 89.56C28.88 89.56 29.94 89.56 31.14 89.56C31.14 88.36 31.14 33.53 31.14 32.39C31.14 28.12 31.26 23.84 31.12 19.58C30.97 15.51 33.97 13.39 37.44 13.07C38.06 13.07 38.7 13.07 39.33 13.07C39.4 13.08 39.48 13.08 39.56 13.09C39.7 13.09 39.83 13.08 39.95 13.07C46.51 13.07 53.08 13.08 59.64 13.07C59.73 13.08 59.83 13.09 59.95 13.09C60.03 13.08 60.12 13.08 60.2 13.07C60.81 13.07 61.42 13.07 62.03 13.07C65.5 13.38 68.53 15.5 68.39 19.58C68.23 23.84 68.36 28.13 68.36 32.39C68.36 33.53 68.36 88.36 68.36 89.56C69.57 89.56 70.62 89.56 71.81 89.56C71.81 89.07 71.81 55.43 71.81 55C71.82 52.51 71.81 29.51 71.81 27C71.81 21.69 71.82 16.37 71.83 11.05Z" id="g4sX8TvCL"></path><path d="M0.48 38.67C0.34 38.67 0.21 38.72 0.01 38.77C0.01 39.04 0.01 41.17 0.01 41.43C0.41 41.45 0.79 41.49 1.17 41.49C10.17 41.5 19.18 41.5 28.19 41.49C28.19 41.3 28.19 40.36 28.19 38.67C15.88 38.67 6.64 38.67 0.48 38.67Z" id="fmi9Q8UIr"></path><path d="M15.47 43.57C15.47 52.15 15.47 81.09 15.47 89.49C15.57 89.57 15.59 89.6 15.63 89.61C18.24 89.92 18.23 89.92 18.23 87.31C18.23 80.09 18.23 52.39 18.23 45.16C18.23 43.16 18.25 43.55 16.53 43.52C16.21 43.51 15.89 43.55 15.47 43.57Z" id="b3a4J5RwyY"></path><path d="M28.07 43.61C25.52 43.61 22.99 43.61 20.36 43.61C20.36 44.95 20.36 46.28 20.36 47.81C22.99 46.03 25.48 46.03 28.07 47.84C28.07 46.35 28.07 45.03 28.07 43.61Z" id="f14qqJzVtd"></path><path d="M79.73 52.5C79.75 57.7 79.74 83.39 79.74 88.61C79.74 88.92 79.7 89.23 79.67 89.67C77.2 89.67 74.81 89.69 72.41 89.64C72.22 89.64 71.88 89.18 71.88 88.94C71.85 83.55 71.81 57.68 71.9 52.3C71.92 50.04 73.78 48.42 75.91 48.47C78.02 48.53 79.72 50.29 79.73 52.5Z" id="f8MiC2TptC"></path><path d="M94.48 52.17C94.54 56.12 94.48 60.06 94.48 64.02C94.48 65.66 94.48 87.78 94.48 89.65C91.95 89.65 89.62 89.67 87.3 89.62C87.08 89.61 86.69 89.16 86.68 88.91C86.65 83.46 86.61 57.51 86.69 52.06C86.71 50.08 88.58 48.48 90.58 48.47C92.63 48.46 94.45 50.11 94.48 52.17Z" id="c3F2OjbWps"></path><path d="M99.26 43.51C99.83 43.51 100 43.77 100 44.3C99.98 49.61 99.98 54.93 99.98 60.25C99.98 62.75 99.99 85.75 99.99 88.26C99.99 88.68 99.99 89.11 99.99 89.59C98.8 89.59 97.74 89.59 96.54 89.59C96.54 88.4 96.54 66.79 96.54 65.65C96.54 61.37 96.42 57.1 96.56 52.83C96.74 47.96 91.41 44.65 87.21 47.5C87.1 47.58 86.96 47.62 86.64 47.76C86.64 46.47 86.66 45.37 86.63 44.25C86.62 43.71 86.86 43.51 87.4 43.51C91.36 43.52 95.31 43.52 99.26 43.51Z" id="b1Bma92weZ"></path><path d="M71.99 38.67C71.99 38.95 71.99 41.21 71.99 41.49C80.94 41.51 89.89 41.5 98.84 41.49C99.22 41.49 99.59 41.45 100 41.43C100 41.17 100 39.04 100 38.77C99.8 38.73 99.66 38.67 99.53 38.67C90.35 38.66 81.17 38.66 71.99 38.67Z" id="bsepIuHf2"></path><path d="M84.54 43.57C84.54 52.15 84.54 81.09 84.54 89.49C84.44 89.57 84.42 89.6 84.38 89.61C81.77 89.92 81.77 89.92 81.77 87.31C81.77 80.09 81.77 52.39 81.77 45.16C81.77 43.16 81.76 43.55 83.48 43.52C83.8 43.51 84.11 43.55 84.54 43.57Z" id="c8g1jvuHb"></path><path d="M71.94 43.61C74.49 43.61 77.02 43.61 79.65 43.61C79.65 44.95 79.65 46.28 79.65 47.81C77.02 46.03 74.53 46.03 71.94 47.84C71.94 46.35 71.94 45.03 71.94 43.61Z" id="e1ULYYEkBa"></path></defs><g><g><path></path><path></path><path></path><path></path><g><use xlink:href="#b4ide0hVAD" opacity="1" fill="#4b88b2" fill-opacity="1"></use><g><use xlink:href="#b4ide0hVAD" opacity="1" fill-opacity="0" stroke="#000000" stroke-width="1" stroke-opacity="0"></use></g></g><g><use xlink:href="#c77YCPn43" opacity="1" fill="#4b88b2" fill-opacity="1"></use><g><use xlink:href="#c77YCPn43" opacity="1" fill-opacity="0" stroke="#000000" stroke-width="1" stroke-opacity="0"></use></g></g><g><use xlink:href="#bKiB9FBgR" opacity="1" fill="#4b88b2" fill-opacity="1"></use><g><use xlink:href="#bKiB9FBgR" opacity="1" fill-opacity="0" stroke="#000000" stroke-width="1" stroke-opacity="0"></use></g></g><g><use xlink:href="#b3an0XEBGp" opacity="1" fill="#4b88b2" fill-opacity="1"></use><g><use xlink:href="#b3an0XEBGp" opacity="1" fill-opacity="0" stroke="#000000" stroke-width="1" stroke-opacity="0"></use></g></g><g><use xlink:href="#b1plOc5xSw" opacity="1" fill="#4b88b2" fill-opacity="1"></use><g><use xlink:href="#b1plOc5xSw" opacity="1" fill-opacity="0" stroke="#000000" stroke-width="1" stroke-opacity="0"></use></g></g><g><use xlink:href="#g4sX8TvCL" opacity="1" fill="#4b88b2" fill-opacity="1"></use><g><use xlink:href="#g4sX8TvCL" opacity="1" fill-opacity="0" stroke="#000000" stroke-width="1" stroke-opacity="0"></use></g></g><g><use xlink:href="#fmi9Q8UIr" opacity="1" fill="#4b88b2" fill-opacity="1"></use><g><use xlink:href="#fmi9Q8UIr" opacity="1" fill-opacity="0" stroke="#000000" stroke-width="1" stroke-opacity="0"></use></g></g><g><use xlink:href="#b3a4J5RwyY" opacity="1" fill="#4b88b2" fill-opacity="1"></use><g><use xlink:href="#b3a4J5RwyY" opacity="1" fill-opacity="0" stroke="#000000" stroke-width="1" stroke-opacity="0"></use></g></g><g><use xlink:href="#f14qqJzVtd" opacity="1" fill="#4b88b2" fill-opacity="1"></use><g><use xlink:href="#f14qqJzVtd" opacity="1" fill-opacity="0" stroke="#000000" stroke-width="1" stroke-opacity="0"></use></g></g><g><use xlink:href="#f8MiC2TptC" opacity="1" fill="#4b88b2" fill-opacity="1"></use><g><use xlink:href="#f8MiC2TptC" opacity="1" fill-opacity="0" stroke="#000000" stroke-width="1" stroke-opacity="0"></use></g></g><g><use xlink:href="#c3F2OjbWps" opacity="1" fill="#4b88b2" fill-opacity="1"></use><g><use xlink:href="#c3F2OjbWps" opacity="1" fill-opacity="0" stroke="#000000" stroke-width="1" stroke-opacity="0"></use></g></g><g><use xlink:href="#b1Bma92weZ" opacity="1" fill="#4b88b2" fill-opacity="1"></use><g><use xlink:href="#b1Bma92weZ" opacity="1" fill-opacity="0" stroke="#000000" stroke-width="1" stroke-opacity="0"></use></g></g><g><use xlink:href="#bsepIuHf2" opacity="1" fill="#4b88b2" fill-opacity="1"></use><g><use xlink:href="#bsepIuHf2" opacity="1" fill-opacity="0" stroke="#000000" stroke-width="1" stroke-opacity="0"></use></g></g><g><use xlink:href="#c8g1jvuHb" opacity="1" fill="#4b88b2" fill-opacity="1"></use><g><use xlink:href="#c8g1jvuHb" opacity="1" fill-opacity="0" stroke="#000000" stroke-width="1" stroke-opacity="0"></use></g></g><g><use xlink:href="#e1ULYYEkBa" opacity="1" fill="#4b88b2" fill-opacity="1"></use><g><use xlink:href="#e1ULYYEkBa" opacity="1" fill-opacity="0" stroke="#000000" stroke-width="1" stroke-opacity="0"></use></g></g></g></g></svg>