<?xml version="1.0" encoding="UTF-8" standalone="no"?>
<!DOCTYPE svg PUBLIC "-//W3C//DTD SVG 1.1//EN" "http://www.w3.org/Graphics/SVG/1.1/DTD/svg11.dtd">
<svg version="1.1" xmlns="http://www.w3.org/2000/svg" xmlns:xlink="http://www.w3.org/1999/xlink" preserveAspectRatio="xMidYMid meet" viewBox="0 0 100 100" width="100" height="100"><defs><path d="M63.63 56.98C72.74 56.86 81.98 56.69 91.43 56.56C91.18 64.59 88.59 72.45 84.2 79.18C76.76 77.01 69.52 74.92 62.25 72.78C62.67 67.81 63.13 62.46 63.63 56.98" id="bppbTv6cK"></path><path d="M87.17 34.87C85.45 35.87 83.32 36.16 81.27 36.08C78.22 35.95 74.25 35.7 71.57 34.11C70.99 33.78 70.44 33.4 69.9 32.94C66.97 33.9 64.01 34.66 60.99 35.28C61.83 40.68 62.67 45.9 63.46 50.84C72.74 50.54 81.98 50.25 91.47 49.92C90.76 44.65 89.38 39.63 87.17 34.87" id="a2m1ePrIFI"></path><path d="M27.26 58.44C28.05 63.46 28.85 68.81 29.64 73.87C22.83 76.3 16.05 78.72 9.03 81.23C4.22 74.83 1.38 67.39 0.59 59.32C9.57 59.03 18.44 58.74 27.26 58.44" id="aML9vdRYd"></path><path d="M28.39 36.33C27.97 41.6 27.51 46.86 27.13 51.92C18.35 52.22 9.49 52.47 0.59 52.76C-0.17 47.45 3.47 35.58 7.53 30.43C10.91 31.56 14.3 32.86 17.77 33.82C21.2 34.82 24.75 35.49 28.39 36.33" id="a1sp4cHqCt"></path><path d="M57.94 57.65C57.53 62.37 57.07 67.35 56.73 71.03C49.29 71.32 42.27 71.61 34.66 71.91C34.07 68.14 33.32 63.17 32.61 58.4C41.1 58.15 49.33 57.9 57.94 57.65" id="a1qcODWsss"></path><path d="M56.06 37.71C56.61 41.47 57.36 46.32 58.07 51.05C49.58 51.34 41.39 51.59 32.78 51.88C33.15 47.07 33.57 42.22 33.86 38.46C41.39 38.25 48.41 38 56.06 37.71" id="d19c6Jz7Is"></path><path d="M64.59 25.17C64.13 23.24 64.13 21.24 63.96 19.31C63.84 17.22 63.75 15.22 64.51 13.25C64.55 13.17 64.59 13.09 64.63 13C59.87 10.87 54.81 9.62 49.41 9.2C52.97 16.01 56.52 22.87 60.16 29.97C62.12 29.6 64.05 29.14 66.01 28.55C65.34 27.42 64.88 26.3 64.59 25.17" id="d4hZIJ5qTu"></path><path d="M51.55 100C56.02 93.31 58.95 86.33 60.87 78.93C66.18 79.06 77.93 82.57 80.39 84.82C72.74 93.39 63.21 98.37 51.55 100" id="asPr9SMQg"></path><path d="M38.55 9.7C35.54 16.68 32.57 23.54 29.47 30.73C23.54 30.02 17.35 28.3 11.12 25.63C18.6 16.85 27.76 11.62 38.55 9.7" id="eBTExfFHd"></path><path d="M41.22 99.92C30.52 98.91 21.11 94.44 13.34 86.04C19.02 82.82 25.04 80.89 30.89 79.68C34.36 86.54 37.79 93.19 41.22 99.92" id="b6Klbe859"></path><path d="M43.98 12.75C48.7 18.14 51.55 24.33 53.93 31.44C47.7 31.61 41.72 31.77 35.37 31.98C37.33 24.87 39.72 18.52 43.98 12.75" id="bza4UxJdi"></path><path d="M46.86 96.7C42.22 91.39 39.38 85.37 37.04 78.39C43.14 78.18 48.91 77.97 55.1 77.76C53.39 84.78 50.84 90.89 46.86 96.7" id="d1sQhUoLj2"></path><path d="M81.98 0.13L83.29 0.32L84.58 0.6L85.83 0.95L87.04 1.38L88.22 1.88L89.35 2.45L90.44 3.08L91.48 3.79L92.48 4.55L93.42 5.37L94.3 6.25L95.12 7.19L95.89 8.17L96.59 9.2L97.22 10.28L97.78 11.41L98.27 12.57L98.69 13.77L99.03 15L99.28 16.27L99.45 17.57L99.54 18.9L99.54 20.22L99.45 21.53L99.27 22.81L99.01 24.07L98.68 25.31L98.26 26.51L97.78 27.67L97.22 28.8L96.59 29.89L95.9 30.94L95.14 31.93L94.32 32.88L93.44 33.77L92.51 34.61L91.53 35.38L90.49 36.09L89.41 36.74L88.28 37.31L87.11 37.81L85.9 38.23L84.66 38.57L83.38 38.83L82.07 39.01L80.73 39.09L79.31 39.08L77.92 38.98L76.56 38.8L75.24 38.54L73.96 38.19L72.73 37.77L71.53 37.27L70.39 36.69L69.29 36.05L68.24 35.33L67.25 34.55L66.31 33.71L65.44 32.81L64.62 31.84L63.87 30.82L63.18 29.75L62.57 28.63L62.02 27.45L61.55 26.23L61.15 24.97L60.83 23.66L60.59 22.32L60.44 20.94L60.37 19.52L60.39 18.24L60.51 16.96L60.71 15.71L60.99 14.49L61.35 13.29L61.79 12.12L62.31 10.99L62.89 9.89L63.54 8.83L64.25 7.82L65.03 6.85L65.87 5.94L66.75 5.07L67.7 4.27L68.69 3.52L69.72 2.83L70.8 2.21L71.91 1.66L73.07 1.19L74.25 0.78L75.47 0.46L76.71 0.22L77.98 0.07L79.26 0L80.63 0.02L81.98 0.13ZM77.26 4.07L75.98 4.35L74.73 4.72L73.54 5.2L72.39 5.77L71.3 6.42L70.27 7.16L69.31 7.97L68.41 8.86L67.59 9.82L66.85 10.84L66.19 11.92L65.62 13.06L65.14 14.25L64.76 15.48L64.48 16.75L64.31 18.06L64.26 19.4L64.31 20.78L64.48 22.13L64.75 23.44L65.13 24.7L65.6 25.91L66.16 27.07L66.81 28.17L67.55 29.22L68.37 30.19L69.26 31.09L70.22 31.92L71.25 32.67L72.34 33.33L73.48 33.9L74.69 34.38L75.93 34.77L77.23 35.05L78.56 35.22L79.93 35.28L81.29 35.23L82.61 35.06L83.89 34.78L85.14 34.4L86.34 33.92L87.49 33.35L88.59 32.7L89.62 31.95L90.59 31.13L91.49 30.24L92.32 29.28L93.07 28.25L93.73 27.16L94.3 26.02L94.78 24.83L95.16 23.59L95.43 22.31L95.6 20.99L95.65 19.65L95.59 18.27L95.43 16.93L95.15 15.63L94.77 14.37L94.3 13.15L93.73 12L93.07 10.89L92.33 9.86L91.51 8.88L90.61 7.98L89.65 7.16L88.61 6.41L87.52 5.75L86.37 5.18L85.17 4.71L83.92 4.33L82.63 4.06L81.3 3.9L79.93 3.85L78.58 3.9L77.26 4.07Z" id="c1wy1Wa4rb"></path><path d="M86.29 19.02C84.99 19.02 82.4 19.02 80.1 19.02C80.1 16.3 80.1 12.46 80.1 10.66C79.72 10.66 76.68 10.66 76.3 10.66C76.25 10.79 76.17 10.83 76.17 10.91C76.17 12.63 76.17 16.39 76.17 19.06C76.17 19.06 76.17 19.06 76.17 19.06L76.17 20.57C76.17 22 76.17 22.79 76.17 22.95C78.43 22.99 84.2 22.95 86.5 22.95C86.5 22.57 86.5 19.53 86.5 19.15C86.41 19.06 86.33 19.02 86.29 19.02" id="geqA7U9w"></path></defs><g><g><g><use xlink:href="#bppbTv6cK" opacity="1" fill="#66a1c8" fill-opacity="1"></use><g><use xlink:href="#bppbTv6cK" opacity="1" fill-opacity="0" stroke="#000000" stroke-width="1" stroke-opacity="0"></use></g></g><g><use xlink:href="#a2m1ePrIFI" opacity="1" fill="#66a1c8" fill-opacity="1"></use><g><use xlink:href="#a2m1ePrIFI" opacity="1" fill-opacity="0" stroke="#000000" stroke-width="1" stroke-opacity="0"></use></g></g><g><use xlink:href="#aML9vdRYd" opacity="1" fill="#66a1c8" fill-opacity="1"></use><g><use xlink:href="#aML9vdRYd" opacity="1" fill-opacity="0" stroke="#000000" stroke-width="1" stroke-opacity="0"></use></g></g><g><use xlink:href="#a1sp4cHqCt" opacity="1" fill="#66a1c8" fill-opacity="1"></use><g><use xlink:href="#a1sp4cHqCt" opacity="1" fill-opacity="0" stroke="#000000" stroke-width="1" stroke-opacity="0"></use></g></g><g><use xlink:href="#a1qcODWsss" opacity="1" fill="#66a1c8" fill-opacity="1"></use><g><use xlink:href="#a1qcODWsss" opacity="1" fill-opacity="0" stroke="#000000" stroke-width="1" stroke-opacity="0"></use></g></g><g><use xlink:href="#d19c6Jz7Is" opacity="1" fill="#66a1c8" fill-opacity="1"></use><g><use xlink:href="#d19c6Jz7Is" opacity="1" fill-opacity="0" stroke="#000000" stroke-width="1" stroke-opacity="0"></use></g></g><g><use xlink:href="#d4hZIJ5qTu" opacity="1" fill="#66a1c8" fill-opacity="1"></use><g><use xlink:href="#d4hZIJ5qTu" opacity="1" fill-opacity="0" stroke="#000000" stroke-width="1" stroke-opacity="0"></use></g></g><g><use xlink:href="#asPr9SMQg" opacity="1" fill="#66a1c8" fill-opacity="1"></use><g><use xlink:href="#asPr9SMQg" opacity="1" fill-opacity="0" stroke="#000000" stroke-width="1" stroke-opacity="0"></use></g></g><g><use xlink:href="#eBTExfFHd" opacity="1" fill="#66a1c8" fill-opacity="1"></use><g><use xlink:href="#eBTExfFHd" opacity="1" fill-opacity="0" stroke="#000000" stroke-width="1" stroke-opacity="0"></use></g></g><g><use xlink:href="#b6Klbe859" opacity="1" fill="#66a1c8" fill-opacity="1"></use><g><use xlink:href="#b6Klbe859" opacity="1" fill-opacity="0" stroke="#000000" stroke-width="1" stroke-opacity="0"></use></g></g><g><use xlink:href="#bza4UxJdi" opacity="1" fill="#66a1c8" fill-opacity="1"></use><g><use xlink:href="#bza4UxJdi" opacity="1" fill-opacity="0" stroke="#000000" stroke-width="1" stroke-opacity="0"></use></g></g><g><use xlink:href="#d1sQhUoLj2" opacity="1" fill="#66a1c8" fill-opacity="1"></use><g><use xlink:href="#d1sQhUoLj2" opacity="1" fill-opacity="0" stroke="#000000" stroke-width="1" stroke-opacity="0"></use></g></g><g><use xlink:href="#c1wy1Wa4rb" opacity="1" fill="#66a1c8" fill-opacity="1"></use><g><use xlink:href="#c1wy1Wa4rb" opacity="1" fill-opacity="0" stroke="#000000" stroke-width="1" stroke-opacity="0"></use></g></g><g><use xlink:href="#geqA7U9w" opacity="1" fill="#66a1c8" fill-opacity="1"></use><g><use xlink:href="#geqA7U9w" opacity="1" fill-opacity="0" stroke="#000000" stroke-width="1" stroke-opacity="0"></use></g></g></g></g></svg>