<?xml version="1.0" encoding="UTF-8" standalone="no"?>
<!DOCTYPE svg PUBLIC "-//W3C//DTD SVG 1.1//EN" "http://www.w3.org/Graphics/SVG/1.1/DTD/svg11.dtd">
<svg version="1.1" xmlns="http://www.w3.org/2000/svg" xmlns:xlink="http://www.w3.org/1999/xlink" preserveAspectRatio="xMidYMid meet" viewBox="0 0 100 100" width="100" height="100"><defs><path d="M64.5 37.09L64.53 37.1L64.56 37.11L64.59 37.13L64.62 37.16L64.65 37.19L64.68 37.22L64.71 37.26L64.74 37.31L64.78 37.36L64.81 37.42L64.84 37.48L64.87 37.55L64.9 37.62L64.9 37.65L64.9 37.68L64.9 37.71L64.91 37.74L64.91 37.76L64.92 37.79L64.92 37.82L64.93 37.84L64.93 37.86L64.94 37.89L64.95 37.91L64.96 37.93L64.97 37.95L64.98 37.97L64.99 37.99L65 38.01L65.02 38.03L65.03 38.05L65.04 38.06L65.05 38.08L65.07 38.1L65.08 38.12L65.1 38.13L65.11 38.15L65.13 38.17L65.14 38.18L65.16 38.2L65.17 38.21L65.19 38.23L65.2 38.24L65.22 38.26L65.28 38.38L65.34 38.5L65.41 38.62L65.47 38.74L65.54 38.86L65.6 38.98L65.67 39.1L65.74 39.22L65.8 39.34L65.87 39.45L65.94 39.57L66.01 39.68L66.08 39.8L66.15 39.92L66.22 40.03L66.29 40.15L66.35 40.26L66.42 40.38L66.49 40.49L66.56 40.61L66.63 40.73L66.7 40.84L66.77 40.96L66.83 41.08L66.9 41.2L66.97 41.31L67.03 41.43L67.1 41.55L67.16 41.67L67.22 41.8L67.29 41.92L67.32 41.98L67.35 42.04L67.38 42.1L67.41 42.16L67.44 42.21L67.47 42.27L67.5 42.33L67.53 42.38L67.56 42.44L67.59 42.49L67.62 42.54L67.65 42.6L67.69 42.65L67.72 42.7L67.75 42.75L67.78 42.8L67.81 42.85L67.84 42.9L67.87 42.95L67.9 42.99L67.93 43.04L67.96 43.09L67.99 43.14L68.02 43.18L68.06 43.23L68.09 43.28L68.12 43.32L68.15 43.37L68.18 43.42L68.24 43.51L68.29 43.62L68.33 43.73L68.38 43.83L68.43 43.94L68.48 44.05L68.54 44.16L68.59 44.26L68.64 44.37L68.7 44.48L68.75 44.59L68.81 44.7L68.87 44.8L68.92 44.91L68.98 45.02L69.04 45.13L69.11 45.23L69.17 45.34L69.23 45.45L69.3 45.56L69.36 45.67L69.43 45.77L69.5 45.88L69.57 45.99L69.63 46.1L69.71 46.2L69.78 46.31L69.85 46.42L69.92 46.53L70 46.64L70.07 46.74L70.15 46.85L70.21 46.97L70.27 47.1L70.33 47.22L70.4 47.34L70.46 47.47L70.52 47.59L70.58 47.71L70.64 47.83L70.7 47.96L70.77 48.08L70.83 48.2L70.89 48.32L70.95 48.44L71.01 48.56L71.07 48.68L71.14 48.8L71.2 48.92L71.26 49.04L71.32 49.16L71.38 49.27L71.44 49.39L71.5 49.51L71.57 49.62L71.63 49.73L71.69 49.85L71.75 49.96L71.81 50.07L71.87 50.18L71.94 50.29L72 50.4L72.06 50.51L72.11 50.62L72.15 50.73L72.2 50.83L72.25 50.94L72.3 51.04L72.35 51.14L72.4 51.25L72.45 51.35L72.51 51.45L72.56 51.55L72.61 51.65L72.67 51.75L72.72 51.85L72.77 51.95L72.83 52.05L72.88 52.15L72.94 52.25L72.99 52.35L73.04 52.45L73.1 52.55L73.15 52.66L73.2 52.76L73.25 52.86L73.31 52.96L73.36 53.06L73.41 53.17L73.46 53.27L73.51 53.37L73.56 53.48L73.6 53.59L73.65 53.69L73.7 53.8L73.74 53.91L73.79 54.02L73.84 54.13L73.89 54.24L73.94 54.36L73.99 54.47L74.05 54.58L74.1 54.69L74.15 54.81L74.2 54.92L74.26 55.03L74.31 55.14L74.37 55.26L74.42 55.37L74.47 55.48L74.53 55.59L74.58 55.7L74.63 55.81L74.69 55.92L74.74 56.03L74.79 56.14L74.85 56.24L74.9 56.35L74.95 56.45L75 56.55L75.05 56.65L75.1 56.75L75.15 56.85L75.19 56.94L75.24 57.04L75.29 57.14L75.34 57.25L75.38 57.36L75.43 57.47L75.48 57.58L75.53 57.68L75.59 57.79L75.64 57.9L75.69 58.01L75.74 58.12L75.8 58.23L75.85 58.34L75.9 58.45L75.96 58.56L76.01 58.67L76.06 58.78L76.12 58.89L76.17 59.01L76.23 59.12L76.28 59.23L76.33 59.35L76.38 59.46L76.44 59.58L76.49 59.7L76.54 59.81L76.59 59.93L76.64 60.05L76.69 60.17L76.74 60.29L76.79 60.41L76.83 60.54L76.85 60.6L76.87 60.66L76.88 60.72L76.9 60.78L76.92 60.84L76.94 60.9L76.96 60.97L76.99 61.03L77.01 61.09L77.03 61.15L77.06 61.21L77.08 61.27L77.11 61.33L77.13 61.38L77.16 61.44L77.18 61.5L77.21 61.56L77.24 61.61L77.27 61.67L77.3 61.73L77.33 61.78L77.36 61.83L77.38 61.89L77.41 61.94L77.44 61.99L77.48 62.04L77.51 62.09L77.54 62.14L77.57 62.19L77.6 62.24L77.63 62.29L77.67 62.4L77.72 62.5L77.77 62.61L77.81 62.73L77.86 62.84L77.91 62.95L77.95 63.06L78 63.18L78.04 63.29L78.09 63.4L78.14 63.52L78.18 63.63L78.23 63.75L78.28 63.86L78.32 63.98L78.37 64.1L78.41 64.21L78.46 64.33L78.51 64.44L78.55 64.56L78.6 64.67L78.64 64.79L78.69 64.9L78.74 65.01L78.78 65.13L78.83 65.24L78.88 65.35L78.92 65.46L78.97 65.57L79.01 65.68L79.06 65.79L79.11 65.9L79.15 66L79.2 66.11L79.24 66.21L79.28 66.32L79.32 66.42L79.36 66.52L79.4 66.62L79.44 66.73L79.48 66.83L79.52 66.93L79.56 67.03L79.6 67.13L79.64 67.23L79.68 67.33L79.72 67.43L79.75 67.53L79.79 67.63L79.83 67.73L79.87 67.83L79.91 67.93L79.95 68.03L79.99 68.13L80.03 68.24L80.07 68.34L80.11 68.44L80.16 68.55L80.2 68.65L80.24 68.76L80.29 68.86L80.33 68.97L80.35 69.03L80.37 69.09L80.38 69.15L80.4 69.21L80.42 69.27L80.44 69.32L80.46 69.38L80.48 69.44L80.5 69.49L80.53 69.55L80.55 69.6L80.57 69.66L80.59 69.71L80.62 69.76L80.64 69.82L80.66 69.87L80.69 69.93L80.71 69.98L80.73 70.03L80.75 70.09L80.78 70.14L80.8 70.2L80.82 70.25L80.84 70.31L80.86 70.37L80.88 70.42L80.9 70.48L80.92 70.54L80.94 70.6L80.95 70.66L80.97 70.72L81 70.83L81.03 70.94L81.07 71.04L81.1 71.15L81.14 71.26L81.17 71.37L81.21 71.48L81.24 71.59L81.28 71.69L81.32 71.8L81.35 71.91L81.39 72.02L81.43 72.13L81.47 72.24L81.51 72.36L81.55 72.47L81.58 72.58L81.62 72.69L81.66 72.81L81.7 72.92L81.74 73.03L81.77 73.15L81.81 73.26L81.85 73.38L81.88 73.5L81.92 73.62L81.95 73.74L81.99 73.86L82.02 73.98L82.05 74.1L82.08 74.22L82.1 74.27L82.11 74.32L82.13 74.36L82.15 74.41L82.16 74.46L82.18 74.51L82.19 74.57L82.2 74.62L82.22 74.67L82.23 74.72L82.25 74.78L82.26 74.83L82.27 74.88L82.28 74.94L82.3 74.99L82.31 75.04L82.32 75.1L82.33 75.15L82.34 75.21L82.35 75.26L82.36 75.31L82.37 75.36L82.37 75.42L82.38 75.47L82.39 75.52L82.39 75.57L82.39 75.62L82.4 75.67L82.4 75.72L82.4 75.77L82.4 75.81L82.42 75.87L82.45 76L82.46 76.06L82.48 76.12L82.49 76.18L82.51 76.24L82.53 76.3L82.54 76.36L82.56 76.42L82.57 76.48L82.59 76.54L82.6 76.6L82.62 76.66L82.63 76.72L82.65 76.78L82.66 76.83L82.68 76.89L82.69 76.95L82.71 77L82.73 77.06L82.74 77.11L82.76 77.16L82.77 77.22L82.79 77.27L82.8 77.32L82.82 77.37L82.83 77.42L82.85 77.47L82.86 77.52L82.88 77.56L82.88 77.61L82.88 77.66L82.88 77.71L82.89 77.76L82.89 77.81L82.9 77.86L82.9 77.91L82.91 77.96L82.91 78.01L82.92 78.06L82.93 78.12L82.93 78.17L82.94 78.22L82.95 78.28L82.96 78.33L82.96 78.39L82.97 78.44L82.98 78.49L82.99 78.55L82.99 78.6L83 78.65L83.01 78.71L83.01 78.76L83.02 78.81L83.02 78.86L83.03 78.91L83.03 78.96L83.03 79.01L83.04 79.06L83.04 79.11L83.04 79.15L83.05 79.32L83.07 79.49L83.08 79.66L83.09 79.83L83.1 80L83.11 80.17L83.12 80.34L83.13 80.51L83.14 80.68L83.14 80.85L83.15 81.02L83.15 81.19L83.16 81.36L83.16 81.53L83.16 81.7L83.16 81.86L83.16 82.03L83.16 82.2L83.15 82.37L83.15 82.54L83.14 82.71L83.14 82.88L83.13 83.05L83.12 83.22L83.11 83.39L83.1 83.56L83.09 83.73L83.08 83.9L83.07 84.07L83.05 84.24L83.04 84.41L83.02 84.45L83.01 84.5L83 84.55L82.98 84.6L82.97 84.65L82.96 84.7L82.95 84.75L82.94 84.8L82.93 84.85L82.92 84.91L82.92 84.96L82.91 85.01L82.9 85.07L82.89 85.12L82.88 85.17L82.88 85.23L82.87 85.28L82.86 85.34L82.85 85.39L82.84 85.44L82.84 85.5L82.83 85.55L82.82 85.6L82.81 85.65L82.8 85.7L82.79 85.75L82.77 85.8L82.76 85.85L82.75 85.9L82.74 85.95L82.72 86L82.71 86.06L82.67 86.18L82.66 86.24L82.64 86.3L82.63 86.37L82.61 86.43L82.6 86.49L82.58 86.55L82.57 86.61L82.55 86.67L82.54 86.73L82.52 86.79L82.5 86.84L82.49 86.9L82.47 86.96L82.46 87.02L82.44 87.07L82.43 87.13L82.41 87.19L82.4 87.24L82.38 87.3L82.37 87.35L82.35 87.4L82.34 87.45L82.32 87.5L82.3 87.55L82.29 87.6L82.27 87.65L82.26 87.7L82.24 87.75L82.2 87.86L82.15 87.96L82.1 88.07L82.05 88.18L82 88.29L81.95 88.4L81.9 88.5L81.85 88.61L81.79 88.72L81.74 88.83L81.69 88.94L81.64 89.05L81.58 89.16L81.53 89.27L81.47 89.38L81.42 89.49L81.37 89.61L81.31 89.72L81.26 89.83L81.21 89.95L81.15 90.06L81.1 90.18L81.05 90.29L81 90.41L80.94 90.53L80.89 90.64L80.84 90.76L80.79 90.88L80.75 91L80.7 91.13L80.65 91.25L80.47 91.54L80.28 91.83L80.08 92.11L79.89 92.39L79.69 92.66L79.49 92.93L79.28 93.2L79.08 93.46L78.86 93.72L78.65 93.97L78.43 94.22L78.21 94.46L77.99 94.7L77.76 94.94L77.53 95.17L77.29 95.4L77.05 95.62L76.81 95.84L76.57 96.05L76.32 96.26L76.06 96.47L75.81 96.67L75.55 96.86L75.28 97.05L75.02 97.24L74.75 97.42L74.47 97.59L74.19 97.77L73.91 97.93L73.62 98.09L73.33 98.25L73.22 98.3L73.12 98.34L73.01 98.39L72.9 98.44L72.79 98.49L72.68 98.54L72.58 98.59L72.47 98.64L72.36 98.69L72.25 98.75L72.14 98.8L72.03 98.85L71.92 98.9L71.81 98.95L71.7 99L71.59 99.05L71.47 99.1L71.36 99.15L71.25 99.2L71.13 99.24L71.02 99.29L70.9 99.34L70.79 99.38L70.67 99.42L70.55 99.46L70.44 99.5L70.32 99.54L70.2 99.58L70.08 99.62L69.95 99.65L69.83 99.68L69.81 99.68L69.79 99.68L69.77 99.69L69.74 99.69L69.71 99.69L69.67 99.7L69.63 99.7L69.59 99.71L69.54 99.72L69.49 99.73L69.44 99.73L69.39 99.74L69.33 99.75L69.27 99.76L69.21 99.78L69.14 99.79L69.07 99.8L69 99.81L68.86 99.84L68.78 99.85L68.7 99.87L68.62 99.88L68.54 99.89L68.45 99.91L68.37 99.92L68.28 99.94L68.19 99.95L68.1 99.97L68.01 99.98L67.92 100L62.19 100L62.01 99.97L61.83 99.93L61.64 99.9L61.46 99.86L61.28 99.82L61.1 99.78L60.92 99.74L60.74 99.7L60.57 99.65L60.39 99.6L60.21 99.56L60.04 99.51L59.86 99.46L59.69 99.4L59.52 99.35L59.34 99.3L59.17 99.24L59 99.19L58.82 99.13L58.65 99.07L58.48 99.01L58.31 98.96L58.14 98.9L57.97 98.84L57.8 98.78L57.63 98.72L57.46 98.65L57.29 98.59L57.12 98.53L56.95 98.47L56.78 98.41L56.68 98.35L56.57 98.28L56.46 98.22L56.35 98.16L56.24 98.09L56.13 98.02L56.03 97.96L55.92 97.89L55.81 97.82L55.7 97.75L55.59 97.69L55.48 97.62L55.37 97.55L55.26 97.48L55.15 97.41L55.04 97.34L54.92 97.27L54.81 97.2L54.7 97.13L54.58 97.06L54.47 97L54.35 96.93L54.24 96.86L54.12 96.79L54 96.73L53.89 96.66L53.77 96.59L53.65 96.53L53.53 96.47L53.4 96.4L53.28 96.34L53.21 96.28L53.13 96.22L53.06 96.16L52.98 96.09L52.91 96.03L52.84 95.97L52.76 95.91L52.69 95.85L52.62 95.79L52.55 95.72L52.48 95.66L52.41 95.6L52.34 95.54L52.27 95.48L52.2 95.42L52.13 95.35L52.06 95.29L51.99 95.23L51.93 95.17L51.86 95.11L51.79 95.05L51.71 94.98L51.64 94.92L51.57 94.86L51.5 94.8L51.43 94.74L51.36 94.68L51.28 94.62L51.21 94.55L51.13 94.49L51.05 94.43L51.01 94.38L50.96 94.34L50.92 94.29L50.88 94.25L50.83 94.2L50.79 94.15L50.75 94.11L50.71 94.06L50.67 94.01L50.63 93.97L50.59 93.92L50.55 93.88L50.51 93.83L50.48 93.78L50.44 93.74L50.4 93.69L50.36 93.65L50.32 93.6L50.28 93.55L50.24 93.51L50.2 93.46L50.16 93.41L50.12 93.37L50.08 93.32L50.04 93.28L50 93.23L49.96 93.18L49.92 93.14L49.87 93.09L49.83 93.04L49.78 93L49.77 92.98L49.75 92.97L49.74 92.95L49.73 92.94L49.72 92.92L49.7 92.91L49.69 92.89L49.68 92.88L49.68 92.86L49.67 92.85L49.66 92.84L49.65 92.82L49.64 92.81L49.63 92.8L49.63 92.79L49.62 92.77L49.61 92.76L49.6 92.75L49.59 92.74L49.59 92.73L49.58 92.72L49.57 92.72L49.56 92.71L49.55 92.7L49.54 92.7L49.53 92.69L49.52 92.69L49.51 92.68L49.49 92.68L49.48 92.68L49.46 92.68L49.4 92.57L49.34 92.46L49.28 92.36L49.22 92.25L49.15 92.14L49.09 92.03L49.03 91.93L48.97 91.82L48.9 91.71L48.84 91.6L48.78 91.49L48.71 91.39L48.65 91.28L48.59 91.17L48.52 91.06L48.46 90.96L48.39 90.85L48.32 90.74L48.26 90.63L48.19 90.52L48.12 90.42L48.05 90.31L47.98 90.2L47.91 90.09L47.84 89.99L47.77 89.88L47.69 89.77L47.62 89.66L47.55 89.55L47.47 89.45L47.39 89.34L47.35 89.22L47.3 89.09L47.26 88.97L47.22 88.85L47.17 88.73L47.13 88.61L47.09 88.5L47.05 88.38L47.01 88.26L46.97 88.15L46.93 88.03L46.89 87.91L46.85 87.8L46.82 87.68L46.78 87.57L46.74 87.45L46.7 87.34L46.66 87.22L46.62 87.1L46.58 86.99L46.54 86.87L46.5 86.75L46.46 86.64L46.42 86.52L46.38 86.4L46.34 86.28L46.3 86.16L46.26 86.04L46.21 85.92L46.17 85.8L46.12 85.68L46.11 85.63L46.09 85.59L46.08 85.54L46.07 85.49L46.06 85.45L46.04 85.4L46.03 85.36L46.02 85.31L46.02 85.26L46.01 85.22L46 85.17L45.99 85.12L45.98 85.08L45.97 85.03L45.97 84.99L45.96 84.94L45.95 84.89L45.94 84.85L45.93 84.8L45.93 84.75L45.92 84.71L45.91 84.66L45.9 84.62L45.89 84.57L45.88 84.52L45.87 84.48L45.86 84.43L45.85 84.39L45.83 84.34L45.82 84.29L45.8 84.25L45.8 84.18L45.8 84.12L45.8 84.06L45.8 84L45.79 83.94L45.79 83.88L45.78 83.82L45.78 83.76L45.77 83.7L45.76 83.64L45.76 83.58L45.75 83.52L45.74 83.46L45.74 83.4L45.73 83.34L45.72 83.28L45.71 83.23L45.7 83.17L45.7 83.11L45.69 83.06L45.68 83L45.68 82.95L45.67 82.89L45.66 82.84L45.66 82.79L45.66 82.74L45.65 82.69L45.65 82.64L45.65 82.59L45.64 82.54L45.64 82.5L45.64 80.9L45.64 80.84L45.65 80.78L45.65 80.72L45.65 80.66L45.66 80.6L45.66 80.54L45.66 80.47L45.67 80.41L45.68 80.35L45.68 80.29L45.69 80.23L45.7 80.17L45.7 80.1L45.71 80.04L45.72 79.98L45.73 79.92L45.74 79.86L45.74 79.8L45.75 79.73L45.76 79.67L45.76 79.61L45.77 79.55L45.78 79.49L45.78 79.43L45.79 79.36L45.79 79.3L45.8 79.24L45.8 79.18L45.8 79.12L45.8 79.06L45.8 79L45.8 78.95L45.8 78.9L45.81 78.86L45.81 78.81L45.81 78.76L45.82 78.72L45.82 78.67L45.83 78.63L45.84 78.58L45.84 78.53L45.85 78.49L45.86 78.44L45.86 78.39L45.87 78.35L45.88 78.3L45.89 78.26L45.89 78.21L45.9 78.16L45.91 78.12L45.92 78.07L45.92 78.03L45.93 77.98L45.94 77.93L45.94 77.89L45.95 77.84L45.95 77.79L45.95 77.75L45.96 77.7L45.96 77.66L45.96 77.61L45.96 77.56L45.99 77.46L46.02 77.35L46.05 77.24L46.08 77.13L46.11 77.02L46.13 76.92L46.16 76.81L46.18 76.7L46.21 76.59L46.23 76.49L46.26 76.38L46.28 76.27L46.3 76.16L46.33 76.05L46.35 75.95L46.37 75.84L46.39 75.73L46.42 75.62L46.44 75.51L46.46 75.41L46.49 75.3L46.51 75.19L46.54 75.08L46.56 74.98L46.59 74.87L46.61 74.76L46.64 74.65L46.67 74.54L46.7 74.44L46.73 74.33L46.76 74.22L46.77 74.16L46.79 74.1L46.8 74.04L46.82 73.98L46.83 73.92L46.85 73.87L46.87 73.81L46.88 73.75L46.9 73.7L46.91 73.64L46.93 73.59L46.94 73.54L46.96 73.48L46.97 73.43L47 73.32L47.02 73.27L47.04 73.21L47.05 73.16L47.07 73.1L47.08 73.05L47.1 72.99L47.11 72.94L47.13 72.88L47.14 72.83L47.16 72.77L47.17 72.71L47.19 72.65L47.2 72.59L47.22 72.53L47.24 72.47L47.25 72.42L47.27 72.38L47.28 72.33L47.3 72.28L47.31 72.23L47.33 72.18L47.34 72.13L47.36 72.08L47.37 72.02L47.39 71.97L47.4 71.92L47.42 71.86L47.44 71.81L47.45 71.76L47.48 71.65L47.5 71.59L47.51 71.54L47.53 71.49L47.54 71.43L47.56 71.38L47.57 71.33L47.59 71.28L47.6 71.22L47.62 71.17L47.64 71.12L47.65 71.07L47.67 71.02L47.68 70.97L47.7 70.93L47.71 70.88L47.76 70.77L47.8 70.66L47.85 70.56L47.89 70.45L47.93 70.34L47.97 70.23L48.02 70.13L48.06 70.02L48.1 69.91L48.14 69.8L48.17 69.69L48.21 69.59L48.25 69.48L48.29 69.37L48.33 69.26L48.37 69.16L48.41 69.05L48.45 68.94L48.48 68.83L48.52 68.72L48.56 68.62L48.6 68.51L48.64 68.4L48.68 68.29L48.72 68.18L48.77 68.08L48.81 67.97L48.85 67.86L48.9 67.75L48.94 67.65L48.99 67.54L49.03 67.43L49.08 67.32L49.12 67.21L49.17 67.11L49.22 67L49.26 66.89L49.31 66.78L49.36 66.67L49.4 66.56L49.45 66.45L49.49 66.35L49.54 66.24L49.59 66.13L49.63 66.01L49.68 65.9L49.72 65.79L49.77 65.68L49.82 65.57L49.86 65.45L49.91 65.34L49.96 65.22L50 65.11L50.05 64.99L50.09 64.88L50.14 64.76L50.19 64.64L50.23 64.52L50.28 64.4L50.33 64.28L50.37 64.16L50.42 64.04L50.45 63.98L50.48 63.92L50.51 63.86L50.53 63.8L50.56 63.74L50.59 63.68L50.61 63.63L50.64 63.57L50.66 63.52L50.69 63.46L50.71 63.41L50.73 63.35L50.76 63.3L50.78 63.24L50.8 63.19L50.83 63.14L50.85 63.08L50.87 63.03L50.9 62.97L50.92 62.92L50.94 62.86L50.97 62.81L50.99 62.75L51.02 62.7L51.04 62.64L51.07 62.58L51.1 62.53L51.13 62.47L51.15 62.41L51.18 62.35L51.21 62.29L51.26 62.18L51.31 62.07L51.35 61.96L51.4 61.86L51.45 61.75L51.49 61.64L51.54 61.53L51.59 61.42L51.63 61.32L51.68 61.21L51.73 61.1L51.78 60.99L51.83 60.89L51.87 60.78L51.92 60.67L51.97 60.56L52.03 60.45L52.08 60.35L52.13 60.24L52.18 60.13L52.23 60.02L52.29 59.92L52.34 59.81L52.4 59.7L52.45 59.59L52.51 59.48L52.57 59.38L52.62 59.27L52.68 59.16L52.74 59.05L52.8 58.95L52.87 58.84L52.93 58.73L52.99 58.62L53.04 58.51L53.1 58.41L53.16 58.3L53.21 58.19L53.27 58.08L53.32 57.97L53.38 57.86L53.43 57.75L53.48 57.64L53.53 57.53L53.58 57.42L53.63 57.31L53.68 57.2L53.73 57.09L53.78 56.97L53.83 56.86L53.88 56.75L53.93 56.63L53.98 56.52L54.02 56.4L54.07 56.28L54.12 56.17L54.16 56.05L54.21 55.93L54.26 55.81L54.3 55.69L54.35 55.57L54.4 55.44L54.46 55.34L54.52 55.23L54.58 55.13L54.63 55.02L54.69 54.92L54.75 54.81L54.8 54.71L54.86 54.61L54.91 54.51L54.97 54.41L55.02 54.3L55.07 54.2L55.12 54.1L55.18 54L55.23 53.9L55.28 53.8L55.33 53.7L55.37 53.6L55.42 53.5L55.47 53.4L55.52 53.3L55.57 53.2L55.61 53.1L55.66 53L55.71 52.89L55.76 52.79L55.8 52.69L55.85 52.58L55.89 52.48L55.94 52.37L55.99 52.26L56.05 52.14L56.11 52.02L56.17 51.9L56.23 51.78L56.3 51.66L56.36 51.54L56.42 51.42L56.48 51.3L56.54 51.19L56.6 51.07L56.66 50.95L56.73 50.84L56.79 50.72L56.85 50.61L56.91 50.49L56.97 50.37L57.03 50.26L57.1 50.14L57.16 50.03L57.22 49.91L57.28 49.79L57.34 49.68L57.4 49.56L57.47 49.44L57.53 49.33L57.59 49.21L57.65 49.09L57.71 48.97L57.77 48.85L57.84 48.72L57.9 48.6L57.96 48.49L58.02 48.39L58.08 48.28L58.14 48.17L58.2 48.06L58.27 47.95L58.33 47.85L58.39 47.74L58.45 47.63L58.51 47.52L58.57 47.41L58.64 47.3L58.7 47.19L58.76 47.08L58.82 46.97L58.88 46.86L58.94 46.74L59.01 46.63L59.07 46.52L59.13 46.4L59.19 46.29L59.25 46.17L59.31 46.06L59.38 45.94L59.44 45.82L59.5 45.71L59.56 45.59L59.62 45.47L59.68 45.35L59.74 45.22L59.81 45.1L59.84 45.05L59.87 45.01L59.9 44.96L59.93 44.92L59.96 44.87L59.99 44.82L60.02 44.78L60.05 44.73L60.08 44.68L60.11 44.63L60.14 44.59L60.17 44.54L60.19 44.49L60.22 44.44L60.25 44.39L60.28 44.34L60.3 44.29L60.33 44.24L60.35 44.19L60.38 44.13L60.4 44.08L60.43 44.03L60.45 43.97L60.47 43.92L60.49 43.86L60.51 43.81L60.53 43.75L60.55 43.69L60.57 43.63L60.59 43.57L60.6 43.51L60.63 43.45L60.66 43.39L60.69 43.33L60.73 43.27L60.76 43.21L60.79 43.16L60.82 43.1L60.85 43.04L60.88 42.99L60.91 42.93L60.94 42.88L60.97 42.82L61 42.77L61.03 42.72L61.06 42.66L61.09 42.61L61.13 42.55L61.16 42.5L61.19 42.45L61.22 42.39L61.25 42.34L61.28 42.28L61.31 42.23L61.34 42.17L61.37 42.11L61.4 42.06L61.43 42L61.46 41.94L61.5 41.88L61.53 41.82L61.56 41.76L61.59 41.71L61.62 41.67L61.65 41.62L61.68 41.57L61.71 41.52L61.74 41.47L61.77 41.41L61.8 41.36L61.83 41.31L61.86 41.25L61.9 41.2L61.93 41.14L61.96 41.09L61.99 41.03L62.02 40.97L62.05 40.92L62.08 40.86L62.11 40.8L62.14 40.74L62.17 40.68L62.2 40.62L62.23 40.56L62.27 40.5L62.3 40.44L62.33 40.38L62.36 40.32L62.39 40.26L62.42 40.19L62.45 40.13L62.48 40.07L62.51 40.01L63.94 37.62L63.97 37.56L64.01 37.51L64.04 37.45L64.07 37.4L64.1 37.35L64.13 37.31L64.16 37.27L64.19 37.23L64.22 37.2L64.25 37.17L64.28 37.15L64.31 37.13L64.34 37.11L64.37 37.1L64.41 37.09L64.44 37.08L64.47 37.08L64.5 37.09ZM54.62 61.08L54.14 62.08L53.63 63.16L53.12 64.3L52.6 65.49L52.1 66.69L51.61 67.89L51.15 69.06L50.73 70.2L50.36 71.26L50.04 72.24L49.78 73.11L49.6 73.77L49.44 74.42L49.28 75.07L49.14 75.72L49.01 76.37L48.9 77.02L48.8 77.67L48.71 78.33L48.64 78.99L48.58 79.65L48.54 80.33L48.52 81.01L48.51 81.7L48.55 82.43L48.67 83.13L48.87 83.8L49.13 84.45L49.46 85.05L49.85 85.61L50.29 86.13L50.77 86.59L51.31 86.99L51.88 87.33L52.48 87.6L53.11 87.79L53.76 87.91L54.52 87.97L55.27 87.95L56 87.85L56.69 87.67L57.36 87.41L57.98 87.08L58.56 86.69L59.09 86.23L59.56 85.71L59.96 85.14L60.31 84.52L60.57 83.85L60.76 83.13L60.83 82.73L60.88 82.33L60.91 81.94L60.93 81.55L60.93 81.17L60.93 80.78L60.91 80.39L60.88 80.01L60.84 79.62L60.79 79.23L60.74 78.84L60.67 78.44L60.6 78.04L60.48 77.27L60.33 76.52L60.16 75.77L59.96 75.03L59.75 74.3L59.53 73.57L59.29 72.84L59.04 72.12L58.78 71.4L58.52 70.68L58.26 69.95L58 69.22L57.74 68.49L57.48 67.83L57.23 67.17L56.98 66.5L56.74 65.83L56.52 65.16L56.3 64.48L56.11 63.79L55.94 63.09L55.79 62.39L55.67 61.67L55.58 60.93L55.53 60.19L55.51 59.42L55.08 60.19L54.62 61.08Z" id="d27hA1y5BI"></path><path d="M55.64 -0.05L55.7 0.05L55.76 0.16L55.83 0.27L55.89 0.38L55.96 0.49L56.02 0.6L56.08 0.71L56.15 0.82L56.21 0.93L56.27 1.04L56.34 1.14L56.4 1.24L56.46 1.34L56.53 1.47L56.59 1.6L56.66 1.72L56.72 1.85L56.78 1.97L56.85 2.09L56.91 2.22L56.97 2.34L57.04 2.45L57.1 2.57L57.16 2.68L57.23 2.79L57.29 2.89L57.36 2.99L57.42 3.09L57.45 3.19L57.49 3.29L57.53 3.39L57.58 3.5L57.63 3.6L57.68 3.71L57.73 3.82L57.79 3.92L57.84 4.02L57.9 4.12L57.96 4.21L58.03 4.3L58.09 4.38L58.15 4.46L58.21 4.52L58.21 4.68L58.34 4.91L58.46 5.14L58.58 5.37L58.7 5.6L58.81 5.84L58.92 6.08L59.03 6.31L59.15 6.55L59.26 6.79L59.37 7.03L59.48 7.26L59.6 7.5L59.72 7.73L59.84 7.96L59.97 8.18L60.06 8.41L60.16 8.63L60.27 8.85L60.38 9.08L60.48 9.3L60.59 9.53L60.71 9.76L60.82 9.99L60.93 10.22L61.04 10.46L61.15 10.7L61.25 10.94L61.36 11.18L61.46 11.43L61.56 11.68L61.59 11.81L61.63 11.94L61.67 12.07L61.71 12.19L61.76 12.32L61.81 12.44L61.87 12.56L61.92 12.68L61.98 12.8L62.04 12.91L62.1 13.02L62.16 13.13L62.23 13.24L62.29 13.34L62.35 13.43L62.51 13.88L62.68 14.33L62.84 14.77L63.01 15.22L63.18 15.67L63.34 16.12L63.51 16.57L63.66 17.02L63.82 17.48L63.97 17.94L64.11 18.4L64.24 18.86L64.37 19.33L64.48 19.8L64.58 20.28L64.64 20.63L64.68 20.97L64.72 21.31L64.74 21.65L64.75 21.99L64.74 22.32L64.73 22.66L64.71 22.99L64.67 23.32L64.63 23.66L64.57 24L64.51 24.34L64.44 24.68L64.35 25.02L64.26 25.37L64.2 25.49L64.13 25.62L64.07 25.73L64.01 25.85L63.95 25.96L63.89 26.08L63.83 26.19L63.78 26.3L63.72 26.41L63.67 26.52L63.62 26.64L63.58 26.75L63.54 26.87L63.5 26.99L63.47 27.12L63.47 27.13L63.46 27.14L63.46 27.15L63.46 27.16L63.46 27.18L63.45 27.19L63.44 27.21L63.43 27.22L63.42 27.24L63.4 27.25L63.38 27.26L63.36 27.27L63.34 27.28L63.31 27.28L63.24 27.37L63.17 27.47L63.1 27.57L63.02 27.66L62.95 27.76L62.87 27.85L62.79 27.95L62.71 28.04L62.63 28.14L62.55 28.23L62.48 28.33L62.4 28.42L62.33 28.52L62.26 28.62L62.19 28.71L61.72 29.19L61.59 29.28L61.46 29.37L61.33 29.46L61.21 29.54L61.08 29.62L60.95 29.71L60.82 29.79L60.7 29.86L60.57 29.94L60.44 30.03L60.32 30.11L60.19 30.19L60.06 30.28L59.93 30.37L59.81 30.46L59.71 30.5L59.61 30.53L59.5 30.57L59.4 30.62L59.29 30.66L59.18 30.71L59.07 30.76L58.95 30.8L58.84 30.85L58.73 30.9L58.62 30.94L58.52 30.99L58.41 31.03L58.31 31.06L58.21 31.1L58.09 31.13L57.97 31.16L57.85 31.19L57.73 31.22L57.62 31.25L57.51 31.28L57.4 31.3L57.28 31.33L57.17 31.35L57.06 31.37L56.95 31.39L56.83 31.4L56.71 31.41L56.59 31.41L56.46 31.42L55.03 31.42L54.91 31.39L54.78 31.36L54.65 31.34L54.52 31.32L54.4 31.3L54.27 31.28L54.14 31.27L54.01 31.25L53.89 31.23L53.76 31.22L53.63 31.2L53.5 31.18L53.38 31.15L53.25 31.13L53.12 31.1L53.03 31.07L52.92 31.03L52.82 31L52.71 30.97L52.6 30.93L52.49 30.9L52.38 30.86L52.27 30.82L52.16 30.78L52.05 30.73L51.94 30.69L51.83 30.63L51.73 30.58L51.63 30.52L51.53 30.46L51.22 30.27L50.9 30.07L50.6 29.87L50.3 29.66L50 29.44L49.71 29.22L49.42 28.99L49.15 28.75L48.87 28.5L48.61 28.25L48.35 27.98L48.1 27.7L47.86 27.41L47.62 27.11L47.39 26.8L47.27 26.58L47.16 26.36L47.05 26.13L46.95 25.91L46.85 25.68L46.76 25.45L46.68 25.23L46.6 25L46.52 24.76L46.45 24.53L46.38 24.29L46.31 24.05L46.25 23.8L46.19 23.55L46.12 23.3L46.12 23.18L46.12 23.05L46.12 22.94L46.12 22.82L46.12 22.71L46.11 22.59L46.11 22.48L46.1 22.37L46.09 22.26L46.07 22.15L46.06 22.03L46.04 21.92L46.02 21.8L45.99 21.68L45.96 21.55L45.96 21.45L45.97 21.35L45.98 21.25L45.99 21.14L46 21.03L46.02 20.92L46.03 20.81L46.05 20.7L46.07 20.59L46.08 20.48L46.09 20.37L46.1 20.26L46.11 20.16L46.12 20.06L46.12 19.96L46.18 19.74L46.25 19.51L46.31 19.29L46.38 19.06L46.44 18.84L46.5 18.61L46.57 18.38L46.63 18.15L46.69 17.92L46.76 17.68L46.82 17.45L46.89 17.2L46.95 16.96L47.01 16.71L47.08 16.46L47.14 16.33L47.2 16.21L47.25 16.09L47.3 15.98L47.35 15.86L47.39 15.75L47.43 15.64L47.47 15.53L47.51 15.42L47.55 15.3L47.58 15.19L47.62 15.07L47.65 14.95L47.68 14.83L47.71 14.71L47.81 14.49L47.9 14.26L48 14.04L48.09 13.81L48.19 13.59L48.29 13.36L48.38 13.13L48.48 12.9L48.57 12.67L48.67 12.43L48.76 12.19L48.86 11.95L48.95 11.71L49.05 11.46L49.14 11.21L49.24 10.99L49.34 10.77L49.43 10.56L49.53 10.34L49.62 10.13L49.72 9.93L49.81 9.72L49.91 9.51L50 9.31L50.1 9.1L50.19 8.89L50.29 8.68L50.39 8.46L50.48 8.25L50.58 8.02L50.7 7.77L50.83 7.52L50.96 7.28L51.09 7.03L51.21 6.79L51.34 6.55L51.47 6.31L51.6 6.08L51.72 5.84L51.85 5.6L51.98 5.36L52.1 5.11L52.23 4.87L52.36 4.62L52.49 4.36L52.61 4.2L52.74 4.03L52.87 3.85L53 3.67L53.12 3.47L53.25 3.28L53.38 3.08L53.5 2.87L53.63 2.66L53.76 2.44L53.89 2.23L54.01 2.01L54.14 1.79L54.27 1.56L54.4 1.34L54.49 1.24L54.57 1.14L54.65 1.04L54.72 0.93L54.79 0.82L54.86 0.71L54.92 0.6L54.98 0.49L55.05 0.38L55.11 0.27L55.18 0.16L55.26 0.05L55.33 -0.05L55.42 -0.15L55.51 -0.25L55.57 -0.15L55.64 -0.05ZM49.75 13.28L49.26 14.33L48.8 15.39L48.39 16.47L48.03 17.57L47.81 18.29L47.61 19.01L47.45 19.74L47.34 20.48L47.26 21.24L47.24 22.03L47.34 22.94L47.63 23.74L48.09 24.41L48.7 24.93L49.43 25.25L50.26 25.37L51.1 25.25L51.86 24.93L52.51 24.41L53.01 23.74L53.33 22.94L53.44 22.03L53.38 21.01L53.21 20.01L52.96 19.02L52.66 18.06L52.34 17.1L52.01 16.14L51.75 15.34L51.47 14.54L51.19 13.73L50.96 12.91L50.8 12.07L50.74 11.21L50.25 12.24L49.75 13.28Z" id="gtV4Lx0Go"></path><path d="M31.4 18.57L31.43 18.59L31.46 18.62L31.49 18.65L31.51 18.67L31.54 18.7L31.56 18.73L31.58 18.76L31.6 18.8L31.62 18.83L31.64 18.87L31.66 18.9L31.68 18.94L31.7 18.97L31.72 19.01L31.75 19.05L31.77 19.09L31.8 19.13L31.82 19.16L31.85 19.2L31.89 19.24L31.92 19.28L31.96 19.32L32.04 19.46L32.12 19.6L32.2 19.73L32.28 19.87L32.36 20L32.44 20.13L32.52 20.26L32.6 20.4L32.68 20.53L32.75 20.66L32.83 20.78L32.99 21.04L33.07 21.17L33.15 21.3L33.23 21.43L33.31 21.56L33.39 21.69L33.47 21.83L33.55 21.96L33.63 22.09L33.71 22.23L33.79 22.37L33.87 22.51L33.99 22.72L34.1 22.94L34.22 23.15L34.33 23.37L34.45 23.58L34.56 23.79L34.67 24L34.78 24.21L34.89 24.42L35 24.63L35.11 24.84L35.33 25.26L35.44 25.47L35.55 25.68L35.66 25.89L35.77 26.1L35.88 26.31L35.99 26.52L36.11 26.73L36.22 26.95L36.34 27.16L36.46 27.38L36.57 27.6L36.65 27.74L36.73 27.88L36.81 28.02L36.88 28.15L36.95 28.29L37.03 28.44L37.1 28.58L37.17 28.72L37.24 28.86L37.31 29L37.38 29.14L37.45 29.29L37.52 29.43L37.59 29.58L37.66 29.72L37.73 29.87L37.8 30.02L37.87 30.17L37.94 30.32L38.02 30.47L38.09 30.63L38.17 30.78L38.25 30.94L38.32 31.1L38.38 31.24L38.44 31.38L38.5 31.52L38.56 31.67L38.62 31.81L38.68 31.96L38.75 32.1L38.81 32.25L38.87 32.39L38.93 32.54L39 32.68L39.06 32.83L39.13 32.97L39.19 33.12L39.26 33.26L39.33 33.4L39.4 33.53L39.47 33.67L39.54 33.81L39.61 33.94L39.68 34.07L39.76 34.19L39.84 34.32L39.92 34.44L39.94 34.52L39.96 34.6L39.98 34.68L40.01 34.76L40.03 34.84L40.06 34.91L40.09 34.99L40.12 35.07L40.15 35.15L40.19 35.22L40.22 35.3L40.25 35.37L40.29 35.45L40.32 35.52L40.36 35.59L40.4 35.67L40.44 35.74L40.47 35.8L40.51 35.87L40.55 35.94L40.59 36L40.63 36.07L40.67 36.13L40.71 36.19L42.14 39.53L42.2 39.67L42.26 39.81L42.32 39.96L42.38 40.1L42.44 40.25L42.5 40.39L42.56 40.54L42.62 40.69L42.68 40.84L42.74 40.98L42.8 41.13L42.92 41.43L42.98 41.58L43.04 41.73L43.1 41.88L43.16 42.03L43.22 42.17L43.28 42.32L43.34 42.46L43.4 42.61L43.46 42.75L43.52 42.89L43.58 43.03L43.6 43.09L43.62 43.16L43.64 43.22L43.66 43.28L43.68 43.35L43.7 43.42L43.72 43.48L43.74 43.55L43.76 43.62L43.79 43.69L43.81 43.76L43.83 43.83L43.86 43.9L43.89 43.97L43.91 44.04L43.94 44.11L43.97 44.17L44 44.24L44.03 44.31L44.07 44.37L44.1 44.44L44.14 44.5L44.17 44.56L44.21 44.62L44.25 44.76L44.29 44.9L44.33 45.04L44.37 45.18L44.41 45.32L44.45 45.46L44.49 45.6L44.54 45.74L44.58 45.89L44.62 46.03L44.66 46.17L44.71 46.31L44.75 46.46L44.8 46.6L44.85 46.75L44.9 46.9L44.94 47.05L45 47.2L45.05 47.35L45.1 47.5L45.15 47.65L45.21 47.81L45.27 47.97L45.33 48.12L45.35 48.2L45.37 48.28L45.39 48.36L45.41 48.44L45.43 48.52L45.45 48.6L45.46 48.68L45.48 48.76L45.5 48.83L45.52 48.91L45.54 48.98L45.56 49.06L45.58 49.13L45.6 49.21L45.62 49.28L45.64 49.35L45.66 49.42L45.68 49.49L45.7 49.56L45.72 49.62L45.74 49.69L45.76 49.75L45.78 49.81L45.8 49.88L45.82 49.94L45.84 50L45.86 50.06L45.87 50.13L45.88 50.19L45.9 50.26L45.91 50.33L45.92 50.39L45.93 50.46L45.94 50.53L45.95 50.6L45.97 50.74L45.98 50.81L45.99 50.88L46 50.95L46.01 51.02L46.03 51.08L46.04 51.15L46.05 51.22L46.07 51.28L46.08 51.34L46.1 51.41L46.12 51.47L46.14 51.69L46.16 51.9L46.17 52.12L46.19 52.34L46.2 52.56L46.21 52.78L46.22 53L46.22 53.22L46.22 53.44L46.23 53.65L46.22 53.87L46.22 54.09L46.21 54.31L46.21 54.53L46.19 54.75L46.18 54.97L46.16 55.19L46.14 55.4L46.12 55.62L46.1 55.84L46.07 56.06L46.04 56.28L46 56.5L45.96 56.72L45.94 56.78L45.92 56.84L45.9 56.9L45.88 56.96L45.86 57.02L45.85 57.08L45.83 57.14L45.81 57.19L45.79 57.25L45.77 57.31L45.76 57.37L45.74 57.43L45.73 57.49L45.72 57.55L45.7 57.61L45.69 57.67L45.68 57.73L45.67 57.79L45.66 57.85L45.66 57.91L45.65 57.97L45.65 58.03L45.64 58.09L45.64 58.15L45.58 58.31L45.52 58.47L45.46 58.63L45.39 58.79L45.33 58.94L45.26 59.1L45.19 59.26L45.12 59.42L45.05 59.57L44.98 59.73L44.9 59.88L44.83 60.04L44.75 60.19L44.68 60.35L44.6 60.5L44.52 60.65L44.45 60.8L44.37 60.95L44.29 61.09L44.21 61.24L44.13 61.38L44.05 61.53L43.97 61.67L43.89 61.81L43.75 62.01L43.61 62.2L43.47 62.39L43.32 62.58L43.18 62.76L43.03 62.95L42.87 63.12L42.72 63.3L42.56 63.47L42.41 63.64L42.25 63.81L42.08 63.98L41.92 64.14L41.75 64.3L41.58 64.46L41.41 64.61L41.23 64.77L41.05 64.92L40.87 65.07L40.69 65.22L40.5 65.36L40.31 65.51L40.11 65.65L39.92 65.79L39.78 65.87L39.64 65.95L39.5 66.03L39.36 66.11L39.22 66.18L39.08 66.26L38.94 66.34L38.8 66.42L38.66 66.5L38.52 66.57L38.38 66.65L38.24 66.72L38.11 66.8L37.97 66.87L37.83 66.94L37.69 67.01L37.55 67.08L37.41 67.15L37.27 67.22L37.13 67.29L36.99 67.35L36.85 67.42L36.71 67.48L36.57 67.54L36.51 67.56L36.45 67.58L36.39 67.6L36.32 67.62L36.26 67.64L36.19 67.66L36.12 67.68L36.06 67.7L35.99 67.72L35.92 67.74L35.85 67.76L35.71 67.8L35.64 67.82L35.57 67.84L35.5 67.86L35.43 67.88L35.37 67.9L35.3 67.92L35.23 67.94L35.17 67.96L35.1 67.98L35.04 68L34.98 68.02L34.76 68.05L34.54 68.09L34.33 68.12L34.11 68.15L33.89 68.18L33.67 68.2L33.45 68.22L33.23 68.24L33.01 68.26L32.79 68.27L32.58 68.28L32.36 68.29L32.14 68.3L31.92 68.31L31.7 68.32L31.48 68.32L31.26 68.33L31.04 68.33L30.83 68.33L30.61 68.33L30.39 68.33L30.17 68.33L29.95 68.33L29.73 68.33L29.67 68.31L29.61 68.3L29.55 68.28L29.48 68.27L29.42 68.25L29.35 68.24L29.28 68.23L29.21 68.22L29.14 68.21L29.07 68.19L29.01 68.18L28.87 68.16L28.8 68.15L28.73 68.14L28.66 68.13L28.59 68.12L28.52 68.11L28.46 68.1L28.39 68.08L28.33 68.07L28.26 68.05L28.2 68.03L28.14 68.02L28.06 68L27.98 67.98L27.91 67.96L27.83 67.94L27.76 67.91L27.69 67.89L27.62 67.87L27.54 67.85L27.47 67.83L27.4 67.81L27.33 67.78L27.26 67.76L27.2 67.73L27.13 67.71L27.06 67.68L26.98 67.65L26.91 67.62L26.84 67.59L26.77 67.56L26.7 67.53L26.62 67.49L26.55 67.46L26.47 67.42L26.39 67.38L26.23 67.32L26.07 67.26L25.92 67.19L25.77 67.13L25.61 67.06L25.46 66.99L25.31 66.92L25.16 66.85L25.02 66.77L24.87 66.7L24.72 66.62L24.58 66.54L24.44 66.46L24.29 66.38L24.15 66.3L24.01 66.21L23.87 66.13L23.73 66.04L23.59 65.95L23.45 65.85L23.31 65.76L23.17 65.67L23.03 65.57L22.89 65.47L22.79 65.39L22.69 65.31L22.6 65.23L22.5 65.15L22.41 65.07L22.32 64.99L22.23 64.91L22.13 64.83L22.04 64.75L21.95 64.67L21.86 64.59L21.69 64.44L21.6 64.36L21.51 64.28L21.42 64.2L21.32 64.12L21.23 64.04L21.14 63.96L21.05 63.88L20.95 63.8L20.86 63.72L20.76 63.64L20.66 63.56L20.6 63.5L20.54 63.44L20.49 63.38L20.43 63.32L20.38 63.26L20.33 63.2L20.28 63.14L20.22 63.08L20.17 63.02L20.12 62.96L20.07 62.9L19.97 62.78L19.92 62.72L19.87 62.66L19.82 62.61L19.77 62.55L19.72 62.49L19.67 62.43L19.61 62.37L19.56 62.31L19.5 62.25L19.45 62.19L19.39 62.13L19.39 62.11L19.39 62.09L19.39 62.07L19.39 62.06L19.39 62.05L19.39 62.03L19.38 62.02L19.38 62.01L19.38 62L19.38 61.99L19.37 61.98L19.37 61.97L19.36 61.96L19.36 61.95L19.35 61.94L19.34 61.93L19.33 61.92L19.32 61.9L19.31 61.89L19.3 61.88L19.28 61.86L19.27 61.85L19.25 61.83L19.23 61.81L19.15 61.67L19.07 61.53L18.99 61.39L18.91 61.25L18.83 61.11L18.76 60.97L18.68 60.83L18.6 60.69L18.53 60.55L18.46 60.41L18.38 60.26L18.31 60.12L18.25 59.97L18.18 59.83L18.11 59.68L18.05 59.53L17.99 59.39L17.93 59.24L17.88 59.09L17.82 58.93L17.77 58.78L17.72 58.62L17.68 58.47L17.64 58.31L17.58 58.11L17.52 57.91L17.47 57.7L17.41 57.5L17.36 57.29L17.31 57.09L17.26 56.88L17.22 56.67L17.18 56.46L17.14 56.25L17.1 56.04L17.06 55.82L17.03 55.61L17 55.39L16.97 55.18L16.94 54.96L16.92 54.74L16.9 54.53L16.88 54.31L16.87 54.09L16.86 53.87L16.85 53.65L16.84 53.44L16.84 53.22L16.86 53.14L16.88 53.06L16.89 52.98L16.91 52.9L16.92 52.82L16.93 52.74L16.94 52.66L16.95 52.59L16.96 52.51L16.97 52.43L16.98 52.36L16.98 52.28L16.99 52.21L16.99 52.13L16.99 52.06L17 51.99L17 51.92L17 51.85L17 51.78L17 51.72L17 51.65L17 51.59L17 51.53L17 51.47L17.02 51.41L17.04 51.34L17.05 51.28L17.07 51.22L17.08 51.15L17.1 51.08L17.11 51.02L17.12 50.95L17.13 50.88L17.14 50.81L17.15 50.74L17.17 50.6L17.18 50.53L17.19 50.46L17.2 50.39L17.21 50.33L17.22 50.26L17.24 50.19L17.25 50.13L17.27 50.06L17.28 50L17.3 49.94L17.32 49.87L17.34 49.8L17.36 49.72L17.38 49.64L17.4 49.57L17.42 49.5L17.44 49.42L17.46 49.35L17.48 49.28L17.5 49.21L17.52 49.14L17.54 49.07L17.58 48.93L17.6 48.86L17.62 48.79L17.64 48.72L17.66 48.65L17.68 48.58L17.7 48.5L17.72 48.43L17.74 48.36L17.76 48.28L17.78 48.2L17.8 48.12L17.84 47.99L17.88 47.85L17.92 47.71L17.96 47.57L18 47.43L18.04 47.29L18.08 47.15L18.12 47L18.16 46.86L18.21 46.72L18.25 46.58L18.29 46.43L18.34 46.29L18.39 46.14L18.43 46L18.48 45.85L18.53 45.7L18.58 45.55L18.63 45.4L18.68 45.25L18.74 45.09L18.79 44.94L18.85 44.78L18.91 44.62L18.93 44.56L18.95 44.5L18.98 44.44L19 44.37L19.03 44.31L19.05 44.24L19.08 44.17L19.11 44.11L19.14 44.04L19.17 43.97L19.2 43.9L19.26 43.76L19.29 43.69L19.32 43.62L19.35 43.55L19.38 43.48L19.4 43.42L19.43 43.35L19.46 43.28L19.48 43.22L19.5 43.16L19.53 43.09L19.55 43.03L19.61 42.89L19.67 42.75L19.73 42.61L19.79 42.47L19.84 42.33L19.9 42.19L19.96 42.05L20.02 41.91L20.08 41.77L20.13 41.63L20.19 41.49L20.24 41.34L20.3 41.2L20.35 41.05L20.4 40.91L20.45 40.76L20.51 40.61L20.55 40.46L20.6 40.31L20.65 40.16L20.69 40L20.74 39.85L20.78 39.69L20.82 39.53L20.88 39.39L20.94 39.25L21 39.11L21.06 38.97L21.12 38.83L21.18 38.69L21.24 38.55L21.3 38.41L21.36 38.27L21.42 38.13L21.48 37.98L21.54 37.84L21.6 37.7L21.66 37.55L21.72 37.4L21.77 37.26L21.83 37.11L21.89 36.96L21.95 36.81L22.01 36.65L22.07 36.5L22.13 36.35L22.19 36.19L22.25 36.03L22.33 35.89L22.41 35.75L22.48 35.61L22.56 35.47L22.63 35.33L22.7 35.19L22.77 35.05L22.84 34.91L22.91 34.77L22.98 34.63L23.04 34.48L23.11 34.34L23.17 34.2L23.24 34.05L23.3 33.9L23.36 33.76L23.42 33.61L23.48 33.46L23.54 33.31L23.6 33.15L23.66 33L23.72 32.85L23.78 32.69L23.84 32.53L23.88 32.45L23.92 32.37L23.96 32.3L24 32.22L24.04 32.15L24.08 32.08L24.12 32.01L24.16 31.93L24.19 31.86L24.23 31.79L24.27 31.72L24.3 31.65L24.34 31.59L24.37 31.52L24.4 31.45L24.43 31.38L24.46 31.3L24.49 31.23L24.52 31.16L24.55 31.09L24.57 31.01L24.6 30.94L24.62 30.86L24.64 30.78L24.76 30.58L24.87 30.38L24.99 30.18L25.1 29.97L25.22 29.77L25.33 29.56L25.44 29.35L25.55 29.14L25.66 28.93L25.77 28.72L25.88 28.51L25.99 28.29L26.1 28.08L26.21 27.86L26.32 27.65L26.43 27.43L26.54 27.22L26.65 27L26.77 26.78L26.88 26.56L26.99 26.34L27.11 26.13L27.23 25.91L27.34 25.69L27.42 25.55L27.5 25.41L27.58 25.27L27.66 25.13L27.74 24.99L27.82 24.85L27.9 24.71L27.98 24.57L28.06 24.43L28.14 24.28L28.22 24.14L28.3 24L28.38 23.85L28.46 23.71L28.54 23.56L28.62 23.41L28.7 23.26L28.78 23.11L28.86 22.96L28.94 22.81L29.02 22.66L29.09 22.5L29.17 22.35L29.25 22.19L29.35 22.05L29.45 21.91L29.54 21.77L29.63 21.63L29.71 21.49L29.8 21.35L29.88 21.21L29.96 21.07L30.04 20.93L30.12 20.78L30.19 20.64L30.27 20.5L30.34 20.35L30.42 20.21L30.49 20.06L30.56 19.91L30.64 19.76L30.71 19.61L30.78 19.46L30.86 19.31L30.93 19.16L31.01 19L31.08 18.84L31.16 18.69L31.32 18.53L31.36 18.55L31.4 18.57ZM23.07 38.4L22.62 39.34L22.18 40.28L21.76 41.22L21.34 42.17L20.95 43.12L20.57 44.09L20.21 45.06L19.87 46.06L19.63 46.82L19.41 47.6L19.21 48.39L19.02 49.18L18.85 49.97L18.71 50.78L18.59 51.58L18.51 52.39L18.45 53.2L18.43 54.01L18.5 54.8L18.69 55.55L18.99 56.24L19.39 56.86L19.89 57.41L20.46 57.88L21.11 58.27L21.81 58.55L22.57 58.73L23.37 58.79L24.16 58.72L24.92 58.53L25.62 58.23L26.26 57.82L26.83 57.31L27.31 56.72L27.69 56.06L27.96 55.32L28.12 54.53L28.14 53.69L28.11 52.7L28.02 51.72L27.87 50.76L27.68 49.81L27.44 48.86L27.18 47.92L26.88 46.98L26.57 46.04L26.25 45.1L25.91 44.15L25.66 43.43L25.39 42.7L25.12 41.96L24.85 41.21L24.6 40.45L24.38 39.68L24.19 38.9L24.06 38.11L24 37.32L24 36.51L23.53 37.46L23.07 38.4Z" id="a3LRUc9jrU"></path></defs><g><g><g><use xlink:href="#d27hA1y5BI" opacity="1" fill="#66a1c8" fill-opacity="1"></use><g><use xlink:href="#d27hA1y5BI" opacity="1" fill-opacity="0" stroke="#000000" stroke-width="1" stroke-opacity="0"></use></g></g><g><use xlink:href="#gtV4Lx0Go" opacity="1" fill="#66a1c8" fill-opacity="1"></use><g><use xlink:href="#gtV4Lx0Go" opacity="1" fill-opacity="0" stroke="#000000" stroke-width="1" stroke-opacity="0"></use></g></g><g><use xlink:href="#a3LRUc9jrU" opacity="1" fill="#66a1c8" fill-opacity="1"></use><g><use xlink:href="#a3LRUc9jrU" opacity="1" fill-opacity="0" stroke="#000000" stroke-width="1" stroke-opacity="0"></use></g></g></g></g></svg>