<?xml version="1.0" encoding="UTF-8" standalone="no"?>
<!DOCTYPE svg PUBLIC "-//W3C//DTD SVG 1.1//EN" "http://www.w3.org/Graphics/SVG/1.1/DTD/svg11.dtd">
<svg version="1.1" xmlns="http://www.w3.org/2000/svg" xmlns:xlink="http://www.w3.org/1999/xlink" preserveAspectRatio="xMidYMid meet" viewBox="0 0 100 100" width="100" height="100"><defs><path d="M85.58 21.15L86.63 21.32L87.66 21.55L88.66 21.85L89.63 22.21L90.58 22.63L91.49 23.1L92.37 23.63L93.21 24.21L94.01 24.83L94.78 25.51L95.5 26.23L96.17 26.99L96.8 27.8L97.38 28.64L97.9 29.52L98.38 30.43L98.79 31.37L99.15 32.35L99.45 33.35L99.69 34.37L99.86 35.42L99.96 36.49L100 37.58L99.94 38.64L99.75 39.78L99.46 40.99L99.07 42.26L98.58 43.58L98.02 44.95L97.38 46.34L96.69 47.76L95.94 49.19L95.15 50.62L94.33 52.05L93.48 53.46L92.63 54.85L91.77 56.2L90.91 57.5L90.08 58.75L89.27 59.94L88.49 61.05L87.77 62.07L87.09 63.01L86.49 63.84L85.96 64.55L85.51 65.15L85.16 65.61L84.91 65.93L84.9 65.96L84.88 65.99L84.86 66.02L84.84 66.04L84.82 66.07L84.79 66.1L84.77 66.12L84.74 66.15L84.71 66.17L84.68 66.2L84.66 66.23L84.63 66.25L84.59 66.27L84.56 66.3L84.53 66.32L84.5 66.34L84.47 66.36L84.44 66.38L84.4 66.4L84.37 66.42L84.34 66.44L84.31 66.46L84.28 66.48L84.25 66.49L84.22 66.5L80.57 68.33L80.54 68.35L80.51 68.36L80.48 68.37L80.45 68.39L80.42 68.4L80.38 68.41L80.35 68.43L80.32 68.44L80.28 68.45L80.24 68.46L80.21 68.47L80.17 68.49L80.13 68.5L80.09 68.51L80.06 68.51L80.02 68.52L79.98 68.53L79.94 68.54L79.9 68.54L79.86 68.55L79.82 68.55L79.77 68.56L79.73 68.56L79.69 68.56L79.65 68.56L79.57 68.56L79.48 68.55L79.4 68.54L79.32 68.53L79.23 68.51L79.15 68.49L79.06 68.46L78.98 68.43L78.89 68.4L78.81 68.36L78.73 68.32L78.65 68.27L78.57 68.22L78.49 68.17L78.42 68.12L78.34 68.06L78.27 68L78.21 67.94L78.14 67.87L78.08 67.8L78.02 67.73L77.96 67.66L77.91 67.58L77.87 67.5L77.82 67.42L77.77 67.3L77.73 67.17L77.69 67.05L77.66 66.92L77.64 66.79L77.63 66.67L77.62 66.54L77.62 66.42L77.63 66.3L77.64 66.17L77.66 66.05L77.69 65.93L77.73 65.82L77.77 65.7L77.81 65.59L77.87 65.48L77.93 65.38L77.99 65.28L78.07 65.18L78.14 65.08L78.23 64.99L78.32 64.9L78.41 64.82L78.52 64.75L78.62 64.68L78.5 64.62L78.39 64.55L78.28 64.48L78.18 64.41L78.09 64.33L78 64.24L77.92 64.15L77.85 64.05L77.78 63.95L77.72 63.85L77.67 63.74L77.63 63.63L77.59 63.52L77.56 63.4L77.54 63.28L77.52 63.16L77.51 63.04L77.51 62.92L77.52 62.8L77.53 62.67L77.55 62.55L77.58 62.42L77.61 62.29L77.66 62.17L77.71 62.05L77.74 62.01L77.76 61.97L77.79 61.93L77.82 61.89L77.85 61.85L77.87 61.82L77.9 61.78L77.93 61.75L77.95 61.71L77.98 61.68L78.01 61.65L78.04 61.62L78.06 61.59L78.09 61.56L78.12 61.53L78.15 61.5L78.17 61.47L78.2 61.44L78.23 61.41L78.26 61.38L78.28 61.36L78.31 61.33L78.34 61.3L78.37 61.27L78.39 61.25L77.83 60.46L77.25 59.62L76.66 58.76L76.05 57.85L75.43 56.92L74.8 55.96L74.17 54.98L73.55 53.98L72.93 52.96L72.31 51.93L71.72 50.89L71.13 49.85L70.57 48.81L70.03 47.77L69.52 46.73L69.04 45.71L68.6 44.7L68.19 43.71L67.83 42.74L67.51 41.8L67.24 40.88L67.02 40L66.86 39.15L66.77 38.35L66.73 37.58L66.77 36.49L66.88 35.42L67.05 34.37L67.29 33.35L67.59 32.35L67.95 31.37L68.38 30.43L68.86 29.52L69.39 28.64L69.97 27.8L70.61 26.99L71.29 26.23L72.02 25.51L72.79 24.83L73.6 24.21L74.45 23.63L75.33 23.1L76.25 22.63L77.2 22.21L78.18 21.85L79.18 21.55L80.21 21.32L81.26 21.15L82.33 21.04L83.42 21.01L84.51 21.04L85.58 21.15ZM80.87 34.26L79.98 35.15L79.4 36.28L79.19 37.58L79.4 38.89L79.98 40.02L80.87 40.91L82 41.49L83.31 41.7L84.62 41.49L85.75 40.91L86.63 40.02L87.22 38.89L87.42 37.58L87.22 36.28L86.63 35.15L85.75 34.26L84.62 33.68L83.31 33.47L82 33.68L80.87 34.26Z" id="aIjQnXBx9"></path><path d="M19.02 54.42L20.11 54.61L21.18 54.87L22.22 55.19L23.22 55.58L24.2 56.03L25.14 56.54L26.04 57.11L26.9 57.73L27.72 58.41L28.49 59.13L29.22 59.9L29.9 60.72L30.52 61.58L31.09 62.49L31.6 63.43L32.05 64.4L32.44 65.41L32.76 66.45L33.02 67.51L33.2 68.6L33.31 69.71L33.35 70.85L33.32 71.64L33.21 72.49L33.04 73.37L32.81 74.29L32.52 75.25L32.18 76.23L31.78 77.24L31.35 78.28L30.87 79.32L30.36 80.39L29.82 81.46L29.25 82.54L28.66 83.62L28.05 84.69L27.42 85.76L26.78 86.82L26.14 87.86L25.49 88.89L24.85 89.89L24.21 90.86L23.58 91.8L22.97 92.71L22.38 93.58L21.81 94.4L21.83 94.43L21.86 94.46L21.89 94.48L21.92 94.51L21.95 94.54L21.98 94.57L22 94.6L22.03 94.63L22.06 94.66L22.08 94.69L22.11 94.72L22.13 94.76L22.16 94.79L22.18 94.82L22.21 94.86L22.23 94.89L22.25 94.92L22.27 94.96L22.29 95L22.31 95.04L22.33 95.08L22.35 95.12L22.36 95.16L22.38 95.2L22.44 95.33L22.5 95.46L22.54 95.59L22.58 95.73L22.61 95.86L22.62 96L22.63 96.13L22.62 96.27L22.61 96.4L22.59 96.53L22.56 96.66L22.52 96.78L22.47 96.91L22.42 97.03L22.36 97.14L22.28 97.26L22.21 97.36L22.12 97.47L22.03 97.56L21.93 97.65L21.82 97.74L21.71 97.81L21.59 97.88L21.46 97.94L17.69 99.77L17.66 99.79L17.63 99.8L17.6 99.81L17.57 99.83L17.53 99.84L17.5 99.86L17.46 99.87L17.43 99.88L17.39 99.89L17.35 99.91L17.32 99.92L17.28 99.93L17.24 99.94L17.2 99.95L17.16 99.96L17.11 99.97L17.07 99.97L17.03 99.98L16.99 99.99L16.95 99.99L16.9 99.99L16.86 100L16.82 100L16.78 100L16.7 100L16.63 99.99L16.56 99.98L16.48 99.97L16.41 99.96L16.33 99.94L16.26 99.92L16.18 99.89L16.11 99.87L16.04 99.84L15.96 99.81L15.89 99.77L15.82 99.73L15.75 99.7L15.68 99.65L15.62 99.61L15.55 99.57L15.49 99.52L15.43 99.47L15.37 99.42L15.32 99.37L15.27 99.31L15.22 99.26L15.18 99.2L14.93 98.86L14.57 98.37L14.11 97.74L13.55 96.97L12.91 96.09L12.21 95.09L11.44 94L10.63 92.81L9.78 91.56L8.91 90.23L8.02 88.85L7.13 87.42L6.25 85.97L5.38 84.49L4.55 82.99L3.75 81.5L3.01 80.02L2.33 78.56L1.73 77.13L1.21 75.74L0.78 74.41L0.47 73.14L0.27 71.95L0.2 70.85L0.24 69.71L0.35 68.6L0.54 67.51L0.79 66.45L1.12 65.41L1.5 64.4L1.95 63.43L2.47 62.49L3.03 61.58L3.66 60.72L4.33 59.9L5.06 59.13L5.83 58.41L6.65 57.73L7.51 57.11L8.41 56.54L9.35 56.03L10.33 55.58L11.34 55.19L12.37 54.87L13.44 54.61L14.53 54.42L15.64 54.31L16.78 54.27L17.91 54.31L19.02 54.42ZM14.34 67.52L13.45 68.41L12.87 69.54L12.66 70.85L12.87 72.15L13.45 73.29L14.34 74.17L15.47 74.76L16.78 74.96L18.08 74.76L19.21 74.17L20.1 73.29L20.68 72.15L20.89 70.85L20.68 69.54L20.1 68.41L19.21 67.52L18.08 66.94L16.78 66.73L15.47 66.94L14.34 67.52Z" id="cAjH5ae54"></path><path d="M39.3 84.34C38.27 84.8 37.81 86.05 38.38 87.08C38.73 87.77 39.53 88.23 40.21 88.23C40.55 88.23 40.9 88.11 41.13 88C41.78 87.67 46.99 85.01 47.64 84.68C48.67 84.22 49.13 82.97 48.56 81.94C48.1 80.91 46.84 80.45 45.81 81.02C44.51 81.69 39.95 84.01 39.3 84.34Z" id="a3FrcyRy1q"></path><path d="M65.59 71.19C64.56 71.65 64.1 72.91 64.68 73.94C65.02 74.62 65.82 75.08 66.5 75.08C66.85 75.08 67.19 74.96 67.42 74.85C68.07 74.52 73.28 71.87 73.94 71.53C74.96 71.08 75.42 69.82 74.85 68.79C74.39 67.76 73.14 67.42 72.11 67.88C70.8 68.54 66.24 70.86 65.59 71.19Z" id="b1S24iS2qe"></path><path d="M26.15 90.85C25.12 91.31 24.66 92.57 25.24 93.6C25.58 94.28 26.38 94.74 27.06 94.74C27.41 94.74 27.75 94.63 27.98 94.51C28.63 94.18 33.84 91.53 34.5 91.2C35.52 90.74 35.98 89.48 35.41 88.45C34.95 87.42 33.7 87.08 32.67 87.54C31.36 88.2 26.8 90.52 26.15 90.85Z" id="bbWJqOCSI"></path><path d="M52.44 77.71C51.41 78.17 50.96 79.42 51.53 80.45C51.87 81.14 52.67 81.59 53.36 81.59C53.7 81.59 54.04 81.48 54.27 81.37C54.92 81.03 60.14 78.38 60.79 78.05C61.82 77.59 62.27 76.34 61.7 75.31C61.25 74.39 59.99 73.94 58.96 74.39C57.66 75.06 53.1 77.38 52.44 77.71Z" id="ce3QHjUUq"></path><path d="M73.82 60.22C74.28 59.19 73.82 57.93 72.79 57.47C72.03 57.13 65.9 54.39 65.13 54.04C64.1 53.59 62.85 54.04 62.39 55.07C61.93 56.1 62.39 57.36 63.42 57.82C64.18 58.16 70.31 60.9 71.08 61.25C71.31 61.47 71.65 61.47 71.88 61.47C72.68 61.47 73.48 61.02 73.82 60.22Z" id="d30zup1jU7"></path><path d="M48.1 50.84C48.87 51.19 54.99 53.93 55.76 54.27C55.99 54.39 56.33 54.5 56.67 54.5C57.47 54.5 58.27 54.04 58.62 53.24C59.07 52.21 58.62 50.96 57.59 50.5C56.82 50.16 50.69 47.41 49.93 47.07C48.79 46.61 47.53 47.07 47.07 48.1C46.61 49.13 47.07 50.39 48.1 50.84Z" id="c7I20Df8RD"></path><path d="M39.74 0.34L40.79 0.51L41.82 0.75L42.82 1.05L43.79 1.41L44.74 1.82L45.65 2.3L46.53 2.82L47.37 3.4L48.17 4.03L48.93 4.7L49.65 5.42L50.33 6.19L50.96 6.99L51.54 7.83L52.06 8.71L52.54 9.62L52.95 10.57L53.31 11.54L53.61 12.54L53.85 13.57L54.02 14.62L54.12 15.69L54.16 16.78L54.11 17.67L53.98 18.62L53.77 19.62L53.49 20.66L53.14 21.75L52.73 22.87L52.26 24.01L51.74 25.18L51.17 26.36L50.57 27.56L49.93 28.75L49.27 29.95L48.58 31.15L47.88 32.33L47.17 33.49L46.45 34.63L45.74 35.75L45.03 36.83L44.34 37.87L43.67 38.86L43.02 39.8L42.4 40.69L41.82 41.52L41.28 42.27L40.78 42.96L42.27 43.64L42.39 43.7L42.5 43.77L42.61 43.84L42.72 43.92L42.82 44L42.91 44.09L42.99 44.19L43.07 44.29L43.14 44.4L43.21 44.51L43.27 44.62L43.32 44.74L43.36 44.86L43.4 44.98L43.43 45.11L43.45 45.23L43.47 45.36L43.47 45.49L43.47 45.62L43.47 45.75L43.45 45.88L43.42 46.01L43.39 46.13L43.35 46.26L43.3 46.38L43.25 46.48L43.21 46.57L43.16 46.66L43.1 46.74L43.04 46.82L42.98 46.9L42.91 46.97L42.84 47.04L42.77 47.11L42.7 47.17L42.62 47.23L42.54 47.29L42.46 47.34L42.37 47.39L42.29 47.43L42.2 47.47L42.11 47.51L42.02 47.54L41.92 47.56L41.83 47.59L41.74 47.61L41.64 47.62L41.55 47.63L41.45 47.64L41.35 47.64L41.33 47.64L41.3 47.64L41.27 47.64L41.24 47.64L41.21 47.63L41.18 47.63L41.14 47.62L41.11 47.62L41.08 47.61L41.04 47.61L41.01 47.6L40.97 47.59L40.94 47.58L40.9 47.57L40.86 47.56L40.82 47.55L40.78 47.54L40.74 47.52L40.7 47.51L40.66 47.5L40.62 47.48L40.57 47.47L40.53 47.45L40.49 47.43L40.44 47.41L36.78 45.7L36.74 45.68L36.7 45.67L36.66 45.65L36.63 45.64L36.59 45.62L36.55 45.6L36.52 45.58L36.48 45.56L36.45 45.54L36.42 45.51L36.39 45.49L36.35 45.47L36.32 45.44L36.29 45.42L36.26 45.39L36.23 45.37L36.2 45.34L36.18 45.32L36.15 45.29L36.12 45.26L36.09 45.24L36.06 45.21L36.04 45.18L36.01 45.15L35.98 45.13L35.75 44.81L35.41 44.34L34.97 43.75L34.45 43.03L33.85 42.2L33.19 41.27L32.47 40.24L31.7 39.13L30.9 37.94L30.07 36.7L29.22 35.39L28.36 34.04L27.51 32.66L26.67 31.24L25.85 29.82L25.06 28.38L24.31 26.95L23.62 25.53L22.98 24.14L22.42 22.78L21.94 21.45L21.54 20.18L21.25 18.97L21.07 17.83L21.01 16.78L21.04 15.69L21.15 14.62L21.32 13.57L21.55 12.54L21.85 11.54L22.21 10.57L22.63 9.62L23.1 8.71L23.63 7.83L24.21 6.99L24.83 6.19L25.51 5.42L26.23 4.7L26.99 4.03L27.8 3.4L28.64 2.82L29.52 2.3L30.43 1.82L31.37 1.41L32.35 1.05L33.35 0.75L34.37 0.51L35.42 0.34L36.49 0.24L37.58 0.2L38.67 0.24L39.74 0.34ZM35.15 13.45L34.26 14.34L33.68 15.47L33.47 16.78L33.68 18.08L34.26 19.21L35.15 20.1L36.28 20.68L37.58 20.89L38.89 20.68L40.02 20.1L40.91 19.21L41.49 18.08L41.7 16.78L41.49 15.47L40.91 14.34L40.02 13.45L38.89 12.87L37.58 12.66L36.28 12.87L35.15 13.45Z" id="j66Cydev1"></path></defs><g><g><path></path><path></path><path></path><path></path><g><use xlink:href="#aIjQnXBx9" opacity="1" fill="#448dbc" fill-opacity="1"></use><g><use xlink:href="#aIjQnXBx9" opacity="1" fill-opacity="0" stroke="#000000" stroke-width="1" stroke-opacity="0"></use></g></g><g><use xlink:href="#cAjH5ae54" opacity="1" fill="#448dbc" fill-opacity="1"></use><g><use xlink:href="#cAjH5ae54" opacity="1" fill-opacity="0" stroke="#000000" stroke-width="1" stroke-opacity="0"></use></g></g><g><use xlink:href="#a3FrcyRy1q" opacity="1" fill="#448dbc" fill-opacity="1"></use><g><use xlink:href="#a3FrcyRy1q" opacity="1" fill-opacity="0" stroke="#000000" stroke-width="1" stroke-opacity="0"></use></g></g><g><use xlink:href="#b1S24iS2qe" opacity="1" fill="#448dbc" fill-opacity="1"></use><g><use xlink:href="#b1S24iS2qe" opacity="1" fill-opacity="0" stroke="#000000" stroke-width="1" stroke-opacity="0"></use></g></g><g><use xlink:href="#bbWJqOCSI" opacity="1" fill="#448dbc" fill-opacity="1"></use><g><use xlink:href="#bbWJqOCSI" opacity="1" fill-opacity="0" stroke="#000000" stroke-width="1" stroke-opacity="0"></use></g></g><g><use xlink:href="#ce3QHjUUq" opacity="1" fill="#448dbc" fill-opacity="1"></use><g><use xlink:href="#ce3QHjUUq" opacity="1" fill-opacity="0" stroke="#000000" stroke-width="1" stroke-opacity="0"></use></g></g><g><use xlink:href="#d30zup1jU7" opacity="1" fill="#448dbc" fill-opacity="1"></use><g><use xlink:href="#d30zup1jU7" opacity="1" fill-opacity="0" stroke="#000000" stroke-width="1" stroke-opacity="0"></use></g></g><g><use xlink:href="#c7I20Df8RD" opacity="1" fill="#448dbc" fill-opacity="1"></use><g><use xlink:href="#c7I20Df8RD" opacity="1" fill-opacity="0" stroke="#000000" stroke-width="1" stroke-opacity="0"></use></g></g><g><use xlink:href="#j66Cydev1" opacity="1" fill="#448dbc" fill-opacity="1"></use><g><use xlink:href="#j66Cydev1" opacity="1" fill-opacity="0" stroke="#000000" stroke-width="1" stroke-opacity="0"></use></g></g></g></g></svg>