<?xml version="1.0" encoding="UTF-8" standalone="no"?>
<!DOCTYPE svg PUBLIC "-//W3C//DTD SVG 1.1//EN" "http://www.w3.org/Graphics/SVG/1.1/DTD/svg11.dtd">
<svg version="1.1" xmlns="http://www.w3.org/2000/svg" xmlns:xlink="http://www.w3.org/1999/xlink" preserveAspectRatio="xMidYMid meet" viewBox="0 0 100 100" width="100" height="100"><defs><path d="M48.16 83.16C47.12 78.24 47.42 73.03 47.12 67.96C47.24 67.96 48.19 67.96 48.31 67.96C48.31 67.96 48.31 67.81 48.31 67.81C51.89 67.21 51.89 67.21 51.89 63.79C51.89 61.55 51.89 59.32 51.89 57.98C53.98 56.49 55.76 55.44 57.11 54.1C59.64 51.72 62.02 49.18 64.56 46.65C65.75 45.61 66.2 44.42 66.2 42.92C66.05 39.35 66.2 35.62 66.2 32.05C69.77 31 69.77 31 69.77 27.28C69.77 26.09 69.77 24.89 69.77 23.7C69.77 21.91 69.03 21.17 67.24 21.17C63.22 21.17 59.04 21.17 55.02 21.17C51.89 21.17 48.61 21.17 45.48 21.17C45.48 21.18 45.48 21.3 45.48 21.32C42.8 21.32 40.12 21.32 37.44 21.32C33.41 21.32 29.24 21.32 25.22 21.32C23.43 21.32 22.53 22.06 22.68 23.85C22.68 25.04 22.68 26.23 22.68 27.43C22.68 31.15 22.68 31.15 26.26 32.2C26.26 35.77 26.26 39.35 26.26 43.07C26.26 44.71 26.71 45.76 27.9 46.8C30.43 49.18 32.82 51.87 35.35 54.25C36.84 55.59 38.48 56.63 40.56 58.12C40.56 59.61 40.56 61.7 40.56 63.94C40.56 67.36 40.56 67.36 44.14 67.96C44.14 71.54 44.14 74.96 44.14 78.39C44.29 90.61 53.83 100.15 65.75 100C70.52 100 74.69 98.36 78.27 95.83C78.27 95.38 78.27 91.8 78.27 91.36C75.14 94.04 71.56 95.83 67.69 96.27C58.6 97.32 49.95 91.95 48.16 83.16Z" id="a1gMuSZq1C"></path><path d="M40.12 4.63C39.97 1.95 37.58 0.01 34.9 0.01C32.37 0.01 29.84 1.95 29.69 4.48C29.54 8.8 29.69 13.12 29.69 17.59C33.26 17.59 36.54 17.59 40.12 17.59C40.12 13.12 40.27 8.95 40.12 4.63Z" id="a3el1IRTYJ"></path><path d="M61.73 17.59C61.73 13.12 61.87 8.8 61.73 4.48C61.58 1.8 59.04 -0.14 56.36 0.01C53.68 0.16 51.44 2.09 51.29 4.93C51.14 6.42 51.29 7.76 51.29 9.25C51.14 11.93 51.14 14.76 51.14 17.59C54.87 17.59 58.15 17.59 61.73 17.59Z" id="i2lu7clLR"></path></defs><g><g><path></path><path></path><path></path><path></path><g><use xlink:href="#a1gMuSZq1C" opacity="1" fill="#448dbc" fill-opacity="1"></use><g><use xlink:href="#a1gMuSZq1C" opacity="1" fill-opacity="0" stroke="#000000" stroke-width="1" stroke-opacity="0"></use></g></g><g><use xlink:href="#a3el1IRTYJ" opacity="1" fill="#448dbc" fill-opacity="1"></use><g><use xlink:href="#a3el1IRTYJ" opacity="1" fill-opacity="0" stroke="#000000" stroke-width="1" stroke-opacity="0"></use></g></g><g><use xlink:href="#i2lu7clLR" opacity="1" fill="#448dbc" fill-opacity="1"></use><g><use xlink:href="#i2lu7clLR" opacity="1" fill-opacity="0" stroke="#000000" stroke-width="1" stroke-opacity="0"></use></g></g></g></g></svg>