<?xml version="1.0" encoding="UTF-8"?>
<!DOCTYPE svg PUBLIC "-//W3C//DTD SVG 1.1//EN" "http://www.w3.org/Graphics/SVG/1.1/DTD/svg11.dtd">
<!-- Creator: CorelDRAW 2019 (64-Bit Оценочная версия) -->
<svg xmlns="http://www.w3.org/2000/svg" xml:space="preserve" width="3245px" height="2243px" version="1.1" style="shape-rendering:geometricPrecision; text-rendering:geometricPrecision; image-rendering:optimizeQuality; fill-rule:evenodd; clip-rule:evenodd"
viewBox="0 0 3245 2243.01"
 xmlns:xlink="http://www.w3.org/1999/xlink">
 <defs>
  <style type="text/css">
   <![CDATA[
    .fil0 {fill:#20A7DF}
    .fil2 {fill:url(#id0)}
    .fil1 {fill:url(#id1)}
    .fil3 {fill:url(#id2)}
    .fil4 {fill:url(#id3)}
   ]]>
  </style>
  <linearGradient id="id0" gradientUnits="userSpaceOnUse" x1="1952.66" y1="622.98" x2="2097.25" y2="586.09">
   <stop offset="0" style="stop-opacity:1; stop-color:#934791"/>
   <stop offset="0.329412" style="stop-opacity:1; stop-color:#5466AD"/>
   <stop offset="0.741176" style="stop-opacity:1; stop-color:#318AC9"/>
   <stop offset="1" style="stop-opacity:1; stop-color:#56C5CD"/>
  </linearGradient>
  <linearGradient id="id1" gradientUnits="userSpaceOnUse" x1="2046.74" y1="488.69" x2="2476.12" y2="1352.05">
   <stop offset="0" style="stop-opacity:1; stop-color:#318AC9"/>
   <stop offset="0.521569" style="stop-opacity:1; stop-color:#318AC9"/>
   <stop offset="1" style="stop-opacity:1; stop-color:#56C5CD"/>
  </linearGradient>
  <linearGradient id="id2" gradientUnits="userSpaceOnUse" xlink:href="#id0" x1="633.34" y1="785.52" x2="2261.34" y2="367.99">
  </linearGradient>
  <linearGradient id="id3" gradientUnits="userSpaceOnUse" x1="631.24" y1="1265.81" x2="2684.31" y2="88.08">
   <stop offset="0" style="stop-opacity:1; stop-color:#934791"/>
   <stop offset="0.419608" style="stop-opacity:1; stop-color:#EF4E47"/>
   <stop offset="1" style="stop-opacity:1; stop-color:#EE4698"/>
  </linearGradient>
 </defs>
 <g id="Слой_x0020_1">
  <metadata id="CorelCorpID_0Corel-Layer"/>
  <g id="_2674112071040">
   <path class="fil0" d="M2575.12 2009.2c-7.5,2.4 -109.5,0.6 -126.9,0.6 0,-8.4 18.3,-56.7 24,-74.4 0.9,-3.9 2.7,-6.9 3.6,-10.8 1.8,-4.5 1.8,-7.5 3.6,-12 5.4,-14.1 17.4,-55.19 24.9,-73.19l8.4 -23.4c2.7,-3.9 0,-1.8 3.6,-3.9 1.8,2.4 6.3,19.8 8.4,24.3l14.7 50.09c1.8,3.9 1.8,7.5 3.6,12 0.9,3.9 2.7,7.5 3.6,11.4l19.2 63.6c2.7,7.5 11.1,30.6 9.3,35.7l0 0zm151.79 41.99c-2.7,-13.49 -31.2,-88.49 -38.7,-110.69l-55.2 -156.59c-4.5,-12.6 -12.9,-33.6 -15.6,-45.3 -1.8,-5.1 -4.5,-12.6 -7.5,-17.7 -5.4,-13.5 -16.49,-26.09 -18.29,-31.19l-3.6 -3.3 -3.6 -3.9 -1.8 -1.8c-7.5,-5.1 -13.8,-11.4 -22.2,-14.7 -9.3,-3.3 -17.4,-7.5 -27.6,-7.5l-2.7 -1.2c-52.5,0 -45.9,8.4 -59.7,10.8l-3.6 2.4c-3.6,3.9 -9.3,6.3 -12.9,10.8 -12.9,14.7 -19.2,20.4 -29.4,42.59l-12.89 35.1c-5.4,10.2 -8.4,23.4 -12.9,34.2l-73.5 200.39c-0.9,2.4 -2.7,4.5 -3.6,7.5l-38.7 104.99c-10.2,26.7 -26.7,67.5 -18.3,96 0.3,0.9 0.9,1.8 1.5,3 7.2,14.69 28.2,42.29 54.9,42.29 28.2,0 46.2,-17.1 53.4,-26.7 2.1,-2.7 3.6,-4.79 4.5,-5.99l2.7 -3.9c0.9,-5.1 5.4,-12.6 7.5,-18.3 1.8,-3.3 1.8,-6.3 3.6,-10.2 4.5,-12.6 7.49,-24.3 13.79,-39.3 1.8,-3.9 1.8,-6.3 2.7,-10.2l207.89 0c3.6,9.6 6.3,19.8 10.2,30 10.8,32.7 11.1,41.1 24.6,58.19 11.4,12.9 36.3,30.3 63.3,26.4 1.8,-0.3 3.6,-0.6 6,-1.2 0.9,-0.3 1.5,-0.3 2.4,-0.6 6,-1.8 13.49,-4.8 22.49,-11.4 10.2,-6.9 15.6,-17.1 20.1,-29.4 12,-30.59 -11.1,-72.59 -19.2,-99.89l-19.19 -54 -0.9 0.3z"/>
   <path class="fil0" d="M377.15 1963l-2.7 -3.3c-2.7,-2.4 -1.8,-1.2 -2.7,-3.9l-2.7 -3.3 -1.8 -1.8 -4.5 -4.5 -8.4 -7.5 -3.6 -3.3 -2.7 -1.2 -3.6 -3.3c-1.8,-0.6 -22.19,-14.1 -23.09,-15.3l-4.5 -2.4c0,0 -47.7,-21 -64.5,-26.1 -9.3,-3.3 -61.5,-19.8 -67.2,-22.8l-4.5 -3.3 -2.7 -0.6c-3.6,-1.2 -9.3,-3.89 -11.99,-6.89l-4.5 -4.5 -0.9 -0.6 -2.7 -3.9c-7.5,-5.7 -9.3,-22.8 -7.5,-31.2 3.6,-23.4 18.29,-35.7 40.49,-41.4 2.7,-1.2 15.6,-1.8 18.3,-1.8 3.6,0 7.5,-0.6 10.2,0l57.9 13.5c4.5,1.2 12,3.9 15.6,4.5 31.2,3.9 40.5,3.3 63.59,-12l4.5 -5.1c1.8,-5.7 5.4,-10.2 8.4,-19.2 1.8,-8.4 2.7,-15.3 0.9,-24.3 -1.8,-9.6 -10.2,-28.5 -19.2,-33.6 -5.4,-7.5 -16.5,-11.4 -21.3,-17.1l-4.5 -2.4c-2.69,-0.6 -10.19,-3.9 -13.79,-5.7 -9.3,-4.5 -38.7,-12.6 -48.9,-13.5l-38.7 -2.39c-19.2,-3.3 -52.5,3.89 -71.69,7.49 -10.2,1.8 -21.3,6.3 -30.3,10.8 -39.6,17.7 -37.8,24.3 -50.7,30.6l-4.5 4.5 -2.7 2.4 -3.6 3.3 -7.5 9 -2.7 3.3 -1.8 2.4 -3.6 3.9c-0.9,6.3 -23.1,31.2 -29.4,77.7 -1.8,15.9 -1.8,34.19 0,50.39l5.4 21.6c1.8,5.7 5.4,14.1 6.3,19.8l2.7 3.9c2.7,3.3 1.8,0.6 1.8,4.5l2.7 3.9 2.7 4.5 3.6 3.9c2.7,1.8 1.8,0.6 2.7,3.9l4.5 4.5 1.8 2.4 2.7 1.8 0.9 1.8 3.6 2.7c0,0.6 31.2,21.6 39.6,25.5 13.8,6.3 32.1,14.7 45.9,19.2l24.9 7.5c5.4,2.4 7.5,2.4 12.9,3.9 4.5,1.2 7.5,3.3 11.99,4.5 10.2,3.9 38.7,12 45.9,19.19l3.6 2.4c2.7,0.6 4.5,1.8 7.5,4.5 0.9,0.6 1.8,1.8 2.7,2.4 2.7,2.4 0.9,0.6 1.8,2.4l3.6 3.3c11.1,9 12.9,24.3 12.9,37.5 0,7.5 0,15.9 -2.7,22.2 -1.8,3.9 -6.3,12.6 -10.2,15.3l-8.4 8.4c-9.3,12 -37.8,17.7 -51.59,15.9 -20.1,-3.3 -36.9,-5.1 -55.2,-11.4 -16.5,-5.7 -33.9,-12 -51.6,-16.5 -35.09,-9 -40.49,1.2 -56.09,3.9l-3.6 2.4 -10.2 8.4 -2.7 2.4 -0.9 1.8 -2.7 3.9c-1.8,4.5 -2.7,8.4 -4.5,12 -1.8,4.5 -1.8,10.8 -3.6,13.5l0 9.6 0.9 0c0,10.8 6.3,15.3 7.5,22.2l2.7 3.3c11.1,12 17.4,17.7 31.2,27.9l3.6 2.39c3.6,0.6 3.6,0.6 6.3,3.3l6.3 3.9c15.6,3.3 23.09,13.5 84.59,22.2 29.4,3.9 30.3,1.8 60.6,1.8 6.3,-0.6 12,-1.2 18.3,-2.4 6.3,-1.2 14.69,-1.8 20.09,-3.3 23.1,-5.7 45.9,-12.6 66.3,-24.9 4.5,-3.29 26.7,-17.69 27.6,-17.69l3.6 -3.9c0.9,-1.2 21.3,-22.2 22.2,-22.8l2.7 -3.3c0.9,-3.3 15.6,-23.4 24,-44.4 4.5,-11.4 11.1,-43.8 12,-56.1 0,-18.3 -0.9,-44.39 -7.5,-61.79 -11.1,-29.4 -21.3,-40.2 -23.1,-44.4l1.19 -0.9z"/>
   <path class="fil0" d="M920.72 2121.39l-1.8 -2.4c-2.7,-1.8 -3.6,-1.8 -4.5,-5.1l-2.7 -3.3c-2.7,-1.8 -3.6,-1.8 -3.6,-5.1l-3.6 -3.3 -18.3 -22.2 -4.5 -4.5c-2.7,-1.8 -1.8,-1.2 -2.7,-3.9l-1.8 -3.3c-3.6,-1.8 -4.5,-1.8 -5.4,-5.1l-2.7 -3.9 -12.9 -14.7 -2.7 -3.3c-2.7,-1.8 -2.7,-1.2 -2.7,-3.9l-3.6 -3.9c-3.6,-2.4 -24.9,-27.29 -25.8,-29.99l-2.7 -3.9 -27.59 -31.2 -1.8 -2.7 -2.7 -3.9 -4.5 -4.5 -1.8 -2.4 0.9 -3.9 16.5 -20.4 3.6 -3.9c0.9,-3.3 23.99,-30.6 27.59,-33.6l3.6 -3.9 2.7 -3.9 2.7 -3.3c0.9,-2.4 0.9,-1.8 3.6,-3.9l2.7 -3.3 16.5 -19.8 2.7 -3.3c0.9,-3.3 36.9,-46.49 41.4,-50.39l2.7 -3.3 3.6 -3.9 2.7 -3.3 9.3 -11.4 2.7 -3.3c1.8,-5.1 11.1,-11.4 16.5,-35.1 4.5,-22.2 -3.6,-29.4 -6.3,-43.2l-1.8 -4.5c-2.7,-2.4 -5.4,-7.5 -8.4,-10.8 -15.6,-17.1 -43.2,-26.7 -66.3,-21 -5.4,1.2 -10.2,1.8 -14.7,3.9 -3.6,2.4 -7.49,4.5 -11.09,6.3l-3.6 2.4c-1.8,3.3 -0.9,2.4 -3.6,3.3l-4.5 4.5c-0.9,3.3 -19.2,24.9 -23.1,27.9l-3.6 3.3 -2.7 3.9 -2.7 3.9 -2.7 3.3 -3.6 3.9c-0.9,2.4 0,1.8 -2.7,3.9l-3.6 3.3c0,2.4 -11.1,16.5 -14.7,18.3l-2.7 3.3 -24 27.9 -2.7 3.9 -9.3 10.8 -2.7 3.9 -2.7 3.3 -4.5 5.1 -2.7 3.9 -2.7 3.3c-0.9,2.4 -0.9,1.8 -3.6,3.9l-2.7 3.9 -2.7 3.9 -3.6 3.29 -2.7 3.9 -1.8 2.4 -17.4 20.4 -2.7 3.9c-0.9,3.3 -12.9,16.5 -16.5,19.2l-2.7 3.9 -2.7 3.9 -3.6 3.3c-0.9,3.3 -5.4,9 -8.4,10.8l-3.59 3.9c-0.9,2.7 0,1.2 -2.7,3.9l-4.5 4.5c-0.9,3.3 0,2.4 -3.6,3.9l0 -191.99c0,-44.4 -5.4,-32.4 -10.2,-52.19l-3.6 -3.3 -0.9 -2.4 -4.5 -4.5 -1.8 -1.8 -2.7 -3.3 -6.3 -3.9 -3.6 -2.4c-4.5,-0.6 -12,-5.7 -19.2,-6.9 -9.3,-1.2 -14.7,-1.2 -24,-1.2 -4.5,1.2 -7.5,0.6 -11.1,1.8 -2.7,0.6 -6.3,2.4 -9.3,3.9 -3.6,1.8 -12.9,7.5 -14.7,7.5l-3.6 3.3c-2.7,4.5 -5.4,5.7 -8.4,10.2 -2.7,3.9 -5.4,7.5 -7.5,12l-1.8 5.1c0,0 -0.3,0 -0.3,0 -0.9,1.8 -1.8,3.6 -2.4,5.7l-2.7 26.39c0,1.5 0,3.3 0,5.1 0,0 0,0 0,0 0,1.8 0,3.6 0,5.7 0,0 0,0 0,0.3 0,2.1 0,4.2 0,6.3l0 0c0,18.9 0,43.8 -0.3,64.2 0,1.2 0,2.1 0,3.3 0,0.6 0,1.2 0,1.8 0,1.8 0,3.9 0,5.7 0,0.6 0,0.9 0,1.5 0,1.8 0,3.6 0,5.1 0,0.3 0,0.3 0,0.6 0,1.8 0,3.3 0,4.8 0,0.3 0,0.3 0,0.6 0,1.5 0,3 0,4.2l0 322.48c0,17.1 0.9,18.3 0.9,31.2 2.7,-0.6 0.9,1.2 1.8,5.7 2.7,13.5 14.7,25.49 20.1,32.99l4.5 3.9c6.3,1.8 18.3,13.5 36,13.5 36.9,-0.6 27.6,-6.3 41.4,-8.4l3.6 -3.3 11.1 -8.4 2.7 -3.9 2.7 -3.29 3.6 -3.9c1.8,-8.4 10.2,-17.7 10.2,-35.1l0 -132.9c0,-8.39 -1.8,-52.79 1.8,-57.89l8.4 10.8 2.69 3.9c3.6,1.8 9.3,9 10.2,12l3.6 3.3 18.3 22.2 4.5 4.5c2.7,1.8 1.8,1.2 2.7,3.9l2.7 3.3 18.3 22.19 4.5 4.5c2.7,2.4 1.8,1.2 2.7,3.9l3.6 3.9 25.8 30 2.7 3.9 12.9 14.7 1.8 1.8c2.7,2.4 11.1,11.4 12,14.7l2.7 2.4 17.4 20.4 3.6 5.1 2.7 3.9 3.6 3.3 19.2 22.8 3.6 3.9 14.7 15.9 2.7 3.3c18.29,5.7 11.09,12 47.69,12.6 22.2,0 35.1,-15.3 42.3,-17.7l5.4 -5.7 6.3 -9 2.7 -3.9c0.9,-10.8 12,-23.4 5.4,-48.3 -7.5,-27.3 -17.4,-28.5 -21.3,-37.5l0 0.6z"/>
   <path class="fil0" d="M1158.3 1876.91c3.6,-6.3 6.3,-3.9 14.7,-18.3 24,-40.2 1.8,-64.8 -0.9,-75.6l-3.6 -3.3 -11.1 -15.9 -2.7 -3.9c-1.8,0 -1.8,0.6 -0.9,-1.2l-2.7 -3.3 -4.49 -6.3 -2.7 -3.3c-2.7,-2.7 -19.2,-23.4 -20.1,-26.7l-2.7 -3.9c-3.6,-4.5 -12.9,-15.29 -14.7,-20.39l-3.6 -3.9c-4.5,-5.1 -9.3,-10.8 -12.9,-16.5 -3.6,-5.7 -10.2,-10.2 -14.7,-14.7l-3.6 -3.3c-3.6,0 -8.4,-2.4 -11.1,-4.5 -6.3,-3.3 -6.3,-2.4 -12.9,-3.3 -21.3,-3.3 -32.1,-1.2 -50.7,9.6 -10.2,5.7 -12,10.8 -17.4,14.7l-2.7 3.3c-0.9,4.5 -4.5,9.6 -6.29,14.7 -6.3,15.89 -6.3,38.69 0.89,53.39 8.4,17.1 32.1,43.2 35.1,50.4l2.7 3.9c1.8,0 0.9,0 0.9,1.2l2.7 3.9 11.1 15.3 3.6 3.9c0.9,0 0.9,0 0,1.2l3.6 3.9 3.6 5.7 2.7 3.9c2.7,1.8 19.2,23.39 20.1,26.69l2.7 3.3 10.2 9.6 3.6 3.3c2.7,0.6 13.8,6.9 18.3,8.4 32.1,10.8 42.3,-1.2 62.69,-8.4l3.6 -3.3 -0.3 -0.29z"/>
   <path class="fil0" d="M1439.69 1666.02l-4.5 -2.4c-2.7,-0.6 -3.6,-1.2 -6.3,-1.8 -3.6,-1.2 -6.3,-0.6 -5.4,-2.4 -12,0 -12.9,-5.1 -33.9,-0.6 -4.5,1.2 -10.2,1.8 -13.8,4.5 -3.6,1.8 -7.5,4.5 -11.1,5.1l-3.6 3.3 -2.7 1.8 -5.4 5.1 -18.3 23.4 -2.7 3.3 -1.8 2.4 -2.7 3.9 -10.2 13.5 -3.6 3.29c-0.9,4.5 -48.89,63 -54.29,69.9l-3.6 3.9 -1.8 2.4 -2.7 3.3 -14.7 19.8 -3.6 3.3 -10.2 13.5 -2.7 3.9 -1.8 2.4 -2.7 3.9 -1.8 1.8 -3.6 3.9c-0.9,2.4 -12,17.1 -14.7,19.2l-2.7 3.9 -1.8 2.4 -2.7 3.9c-1.8,2.4 -7.5,10.8 -11.1,12.6l-2.7 3.89 -1.8 2.4 -2.7 3.9c-0.9,3.3 -7.5,10.8 -10.2,12.6l-3.6 3.9c-1.8,13.5 0,45.9 0,61.8 0,20.4 0,40.8 0,61.8 0,3.9 0,8.1 0,11.99l0 111.9c0.3,0 0.6,0 0.6,0 0,0.6 0,1.8 0.3,4.5l3.6 14.7c2.7,6.3 6.3,10.8 8.4,15.9l2.7 3.9c7.5,5.7 12,13.5 22.2,17.7 21.3,8.99 40.5,11.39 62.7,0.6 4.5,-2.4 8.4,-4.5 12,-6.9 4.5,-3.3 6.3,-6.3 11.1,-9l2.7 -3.9 2.69 -4.5 2.7 -3.9c1.8,-10.8 8.4,-16.5 8.4,-31.8 0,-25.5 -1.8,-192.59 0.9,-197.69l35.1 -43.2 3.6 -3.9 1.8 -2.4 2.7 -3.3 1.8 -2.4 2.7 -3.9c1.8,-4.5 7.5,-10.2 10.2,-13.5l3.6 -3.3 0.9 -2.4 3.6 -3.9 10.2 -13.49 2.7 -3.3 1.8 -2.7 2.7 -3.9 1.8 -2.4 3.6 -3.3 5.4 -7.5 2.7 -3.3 1.8 -2.4 2.7 -3.9c0.9,-3.3 12,-17.1 14.7,-19.2l3.6 -3.9c0.9,-3.3 12,-17.1 14.7,-19.2l2.7 -3.9c1.8,-3.3 17.4,-23.4 20.1,-25.5l2.7 -3.9c1.8,-3.3 5.4,-8.4 7.5,-12 8.4,-14.1 12,-31.2 8.4,-47.7 -7.5,-26.69 -13.8,-30.59 -32.1,-46.49l-1.2 0z"/>
   <path class="fil0" d="M2225.34 1678.02l-3.6 -3.9 -3.6 -3.3 -3.6 -3.3c-6.3,-1.2 -17.4,-10.2 -33.9,-10.2 -26.7,-0.6 -30.3,4.5 -37.8,5.7l-3.6 1.8 0 0.6c-2.7,3.3 -7.5,5.7 -10.2,9.6 -1.8,2.7 -5.4,7.5 -7.5,9.6l-2.7 3.9c-0.9,6.9 -6.3,14.7 -8.4,21l-18.29 95.99c-0.9,7.5 -3.6,15.3 -4.5,23.4l-6.3 36.3c-0.9,3.9 -1.8,6.9 -2.7,10.8l-4.5 24.9c-1.8,8.99 -3.6,15.29 -4.5,24.29 -0.9,6.9 -3.6,17.1 -5.4,24.3l-8.4 47.7c-0.9,3.9 -1.8,8.4 -2.7,12 -1.8,15.3 -4.5,22.2 -6.3,35.7 -0.9,3.9 -0.9,8.4 -2.7,12l-2.7 9 0 0.6c-2.7,-4.5 -25.8,-98.1 -26.7,-102.3l-30.3 -115.79c-0.9,-4.5 -1.8,-9 -2.7,-12.6l-13.8 -51.6c-1.8,-7.5 -4.5,-17.1 -6.3,-25.5 -4.5,-16.49 -8.4,-34.19 -13.8,-50.99 -8.4,-26.1 -22.2,-31.8 -25.8,-38.1l-1.8 -1.2 -1.8 -1.2c-5.4,-1.8 -8.4,-3.9 -13.79,-5.7 -1.8,-1.2 -4.5,-1.2 -7.5,-1.8 -3.6,-0.6 -7.5,0 -5.4,-1.8 -12,0 -20.1,-0.6 -31.2,1.8 -3.6,0.6 -8.4,1.2 -12,3.3 -4.5,1.8 -6.3,2.4 -11.1,4.5l-3.6 2.4c-3.6,6.3 -17.4,11.4 -26.7,38.7 -6.3,20.4 -18.3,67.49 -24,90.29 -0.9,4.5 -2.7,8.4 -3.6,12 -1.8,10.2 -4.5,16.5 -6.3,26.1 -0.9,5.1 -2.7,9 -3.6,13.5l-6.3 26.1c-1.8,4.5 -1.8,8.4 -2.7,12.6l-21.3 77.09c-0.9,3.3 0,4.5 -0.9,7.5 -2.7,10.2 -9.3,30 -12,44.4l-6.3 26.1c-0.9,3.9 -2.7,8.4 -3.6,12 -0.9,4.5 0,9 -5.4,10.2l-8.4 -50.1c-3.59,-15.9 -6.29,-32.4 -9.29,-48.29l-27.6 -146.99c-2.7,-13.5 -2.7,-15.3 -4.5,-24.3 -1.8,-8.4 -3.6,-15.3 -4.5,-24.3l-6.3 -36.9c-0.9,-4.5 -1.8,-7.5 -2.7,-12 -7.5,-36.3 -9.3,-25.5 -15.6,-42l-2.7 -3.3 -14.7 -12.6 -5.4 -3.9c-5.4,-0.6 -11.1,-2.4 -17.4,-3.9 -6.3,-1.2 -13.8,-0.6 -20.1,-0.6 -2.7,1.2 -16.5,4.5 -19.2,4.5l-7.5 3.9 -5.4 3.3 -3.6 3.3 -7.5 6.9 -2.7 3.9c-4.5,11.4 -10.2,15.9 -11.1,31.2 0,15.3 0.9,24.9 2.7,38.7l5.4 25.5c1.8,14.1 4.5,14.1 6.3,24.9 4.5,27.89 13.8,57.89 18.3,84.59 0.9,5.7 3.6,10.8 4.5,16.5 5.4,28.5 12.9,56.7 18.3,84.59 1.8,9 3.6,11.4 6.3,25.5 0,2.4 0.9,5.1 1.8,7.5l11.1 50.1c3.6,13.5 1.8,9.6 3.6,17.1 0.9,5.1 3.6,11.4 4.5,17.1 0.9,3.3 0.9,5.7 1.8,9.6 0,1.8 0.9,4.5 1.8,6.9 1.8,6.3 2.7,10.8 3.6,17.1l12.9 48.29c2.7,7.5 12,22.8 12.9,27.9l2.7 3.3 1.8 2.4 3.6 3.9 3.6 3.9 2.7 3.3c1.8,-1.2 1.8,-1.2 1.8,0l3.6 3.3c6.3,1.8 12,5.7 19.2,7.5 8.4,2.4 13.8,3.9 23.1,3.9 8.1,0 20.69,0.3 33.29,-2.1 12,-2.7 22.8,-8.4 32.1,-15.9 0.6,-0.6 1.5,-1.5 2.4,-2.1 18.6,-15.9 31.5,-39.9 36,-63.9 0.9,-4.5 2.7,-8.99 3.6,-13.49l13.8 -54c0.9,-5.7 1.8,-8.4 2.7,-13.5l7.5 -27.9c0.9,-5.1 1.8,-8.4 3.6,-13.5l6.3 -27.3c6.3,-22.2 10.2,-45.89 17.4,-68.09l20.1 -80.1c0,-0.6 0.9,-1.2 0.9,-1.2l2.7 -1.8 0.9 3.9 58.79 221.99c0.9,4.5 0.9,6.3 2.7,10.8 1.8,6.9 2.7,14.7 5.4,21.6 1.8,6.9 2.7,13.5 5.4,21 1.8,6.9 3.6,13.5 5.4,21 1.8,10.8 12,39.29 12,40.19l4.5 6.3c2.7,2.4 8.4,10.8 11.1,14.7 10.2,11.4 24.9,18.6 39.9,21.9 0.9,0 1.5,0.3 1.8,0.3 4.8,0.9 9.6,1.5 14.1,1.5l-7.5 0c7.2,1.2 19.8,1.8 33,0l-9 0c6.3,0 10.8,-0.3 14.7,-0.9 17.69,-3.6 36.29,-12.6 47.09,-32.4 0,0 0,0 0,0 3.3,-6.6 8.1,-14.4 10.8,-21.9 4.5,-10.79 7.5,-22.19 10.2,-32.99 1.8,-5.7 2.7,-12 4.5,-17.7l30.3 -119.7c0.9,-5.7 1.8,-12 3.6,-17.7 1.8,-5.69 2.7,-11.39 4.5,-17.09 0.9,-6.3 2.7,-11.4 4.5,-17.1l24.9 -102.9c0.9,-5.7 2.7,-10.8 4.5,-17.1 0.9,-6.3 2.7,-11.4 4.5,-17.1 4.5,-17.69 16.5,-66.89 19.2,-86.39 1.8,-14.1 3.6,-24.9 0.9,-40.2 -3.6,-17.1 -9.3,-19.2 -13.8,-27.9l1.2 -0.9z"/>
   <path class="fil0" d="M2962.39 1868.21l2.7 -3.9c2.7,-10.2 13.8,-23.4 8.4,-48.3 -2.7,-14.1 0,-9 -7.5,-22.8 -3.6,-6.3 -8.4,-10.8 -12,-17.1l-2.7 -2.4 -74.39 -90.29 -2.7 -2.4c-44.1,-33 -69,-12.6 -81,-10.8l-3.6 2.4 -2.7 1.8 -3.6 2.4c-1.79,3.3 -22.19,18.3 -25.79,42.6 -4.5,31.19 10.2,46.49 12.9,53.99l2.7 3.9 10.19 12 1.8 2.4 1.8 2.4 4.5 4.5 1.8 2.4 2.7 3.9 15.6 19.2 2.7 2.4 1.8 2.4 2.7 3.3 2.7 3.9 3.6 3.9 0.9 1.8 3.6 3.9c3.6,2.4 11.1,12.6 14.7,17.1 3.6,4.5 10.2,11.4 13.8,16.5l3.6 3.3c1.8,-0.6 1.8,-1.2 0.9,0.6l3.6 2.4c12,3.9 24.9,15.9 55.2,9 20.1,-4.5 27.6,-14.1 40.49,-26.7l0.6 0.3z"/>
   <path class="fil0" d="M3248.58 1714.32c-7.5,-25.5 -12.9,-23.4 -22.2,-36.3l-2.7 -2.7c-11.1,-3.9 -3.6,-4.5 -24,-10.2 -8.4,-2.4 -19.2,-4.5 -29.4,-2.4 -29.4,6.3 -33,17.7 -42.3,24.3l-1.8 1.8c-1.8,3.9 -12,17.7 -15.6,19.8l-2.7 3.3c-0.9,3.9 -17.4,26.09 -21.3,27.89l-2.7 3.9c-0.9,3.3 -6.3,10.2 -9.3,12l-2.7 3.3c0.9,1.8 0.9,1.2 -0.9,1.8l-2.69 3.3 -13.8 18.3 -2.7 3.3 -4.5 6.3 -2.7 3.3 -1.8 2.4 -3.6 3.9c-0.9,3.3 -5.4,10.2 -8.4,12l-3.6 3.9 -9.3 12 -2.7 3.3c-0.9,3.3 -6.3,10.2 -9.3,12l-1.8 2.4 -10.2 13.5 -2.7 3.9c-0.9,2.4 -26.7,36.3 -29.4,38.1l-3.6 3.9c-0.9,4.5 -5.4,9 -8.4,12.6l-2.7 4.5c-0.9,2.4 -3.6,10.19 -4.5,14.09 -6.3,18.3 -3.6,32.4 -3.6,52.2 0,23.4 -1.8,173.69 0.9,185.09 2.7,15.9 6.3,25.5 7.5,28.5l2.7 3.9 1.8 3.3 2.7 3.9 14.7 13.5 3.6 2.4c7.5,2.4 11.1,5.7 20.1,7.5 40.5,7.5 51.6,-11.4 61.49,-14.7l2.7 -3.3c12.9,-14.7 20.1,-26.7 20.1,-45.9 0,-24.9 -0.9,-182.39 0,-194.09l1.8 -1.2 3.6 -3.9c-0.9,-1.2 -0.9,-1.2 0,-1.2l2.7 -3.3 9.3 -12.6 3.6 -3.3 13.8 -18.3 2.7 -3.3c-0.9,-1.8 -0.9,-1.2 0.9,-1.2l1.8 -2.4 1.8 -2.7 2.7 -3.3c0.9,-3.3 11.1,-16.5 13.8,-18.29l2.7 -3.9c0.9,-2.4 6.3,-10.2 9.3,-12l2.7 -3.3c1.8,-5.1 6.3,-9 9.3,-12l3.6 -3.9 8.4 -12 3.6 -3.9c0.9,-3.9 20.1,-27.9 24.9,-32.4l2.7 -3.9 1.8 -1.8 2.7 -3.9c0.9,-3.3 6.3,-10.2 9.3,-12l2.7 -3.9 9.3 -12 2.7 -3.3 9.3 -13.5 2.7 -3.9c1.8,-12 12.89,-24.9 4.5,-49.49l0.6 0.3z"/>
   <path class="fil1" d="M2614.41 974.26c-20.69,120.29 -92.99,231.89 -196.78,296.98 -32.1,20.1 -66.6,36 -103.2,46.5 -91.79,26.4 -191.69,19.5 -286.48,19.5 -23.1,0 -51.6,3.3 -71.7,-5.1 -64.49,-26.1 -69.89,-107.39 -22.19,-143.69 21.29,-16.5 35.09,-17.7 58.79,-17.7 96.6,0 203.39,13.8 295.18,-22.8 90.3,-36 156.59,-125.69 164.39,-222.59 8.7,-105.89 -53.09,-212.08 -147.89,-259.48 -23.1,-11.4 -37.8,-15.9 -61.79,-21.6 -7.5,-1.8 -14.1,-2.4 -21.3,-3.9 64.79,-67.79 119.09,-124.49 131.69,-137.99 0,3.9 9.3,5.7 12.9,7.5 4.5,2.4 10.2,5.1 14.7,6.9 143.99,62.09 237.58,230.38 238.78,383.07 0.3,24.9 -1.8,49.5 -6,74.1l0.9 0.3z"/>
   <path class="fil2" d="M1954.45 678.48c25.2,-25.8 82.8,-86.1 141,-147.29l0 0.3c-0.9,4.8 -107.7,113.39 -141,147.29l0 -0.3z"/>
   <path class="fil3" d="M2243.64 374c-26.7,28.8 -87.9,93.29 -148.19,156.89l0 -3.3c0,-17.7 -0.3,-38.7 -2.7,-54.9 -13.8,-85.49 -71.7,-161.69 -150.59,-197.69 -72.3,-32.99 -159.59,-30.89 -230.09,5.4 -87.29,45 -130.19,128.4 -143.09,221.99 -1.8,13.2 1.8,31.2 0.9,44.4 0,21.6 -8.4,29.1 -9.3,37.5l-2.7 3.9 -5.4 8.4 -2.7 3.3 -6.6 6.3 -4.5 4.5c-14.7,5.09 -31.2,27.89 -82.79,11.99 -9.3,-2.4 -16.5,-9.6 -23.1,-11.99l-4.5 -4.5 -6.6 -6.3 -2.7 -3.3 -3.6 -4.5 -2.7 -3.9c-9.3,-45 -74.1,-76.2 -114.89,-77.1 -42.9,-1.2 -85.8,21.3 -109.5,57.3 -25.8,39.3 -30,101.99 0.9,140.09l2.7 3.9c0,4.5 0,2.4 1.8,5.7 14.7,30 9.3,63.59 -11.1,90.89 -2.7,3.9 -5.4,5.7 -8.4,9.6l-2.7 1.8c-4.5,2.4 -7.5,5.7 -12.9,8.4 -5.4,3.3 -8.4,3.9 -13.8,6.3 -21.29,8.4 -47.99,5.1 -68.09,-5.7 -11.1,-5.1 -21.3,-6.9 -32.1,-10.8 -13.8,-4.5 -16.5,-2.4 -25.8,-3.9 -14.7,-0.6 -12,-1.2 -30.3,-1.2 -89.69,0 -170.99,85.2 -170.99,174.29 0,3.6 0,8.1 0.3,12.9 0,18.3 -1.5,42.3 8.4,68.4l0 0.3c-33.6,-33 -100.19,-60.6 -175.49,-57.9l0 -38.4c0,-4.5 0.9,-6.3 0.9,-12 0,-15.9 5.4,-39.6 9.3,-55.19 9.3,-31.8 11.1,-33.6 21.3,-57.9 23.1,-52.8 61.2,-98.39 107.4,-132.59 36.59,-27.3 95.99,-63.3 143.69,-63.3 7.5,0 14.7,-1.8 23.1,-3.3l24.89 -2.7 17.4 -1.8c-0.9,-7.8 -0.9,-19.2 1.8,-25.5 2.7,-0.6 0,-6.3 1.8,-15.3 16.8,-89.69 58.8,-168.59 138.9,-217.48 46.19,-28.2 100.49,-42.9 154.49,-42.9 48.29,0 85.49,16.2 129.89,31.5 4.5,-9 8.4,-22.8 9.3,-26.7 2.7,-5.1 2.7,-3.9 3.6,-9.6 74.69,-152.39 228.88,-257.38 401.67,-254.38 162.89,3 319.18,105.59 386.08,254.38 1.8,6.3 4.5,10.2 6.3,16.5 1.8,4.5 4.5,12 6.6,15.9l1.8 3.3 2.7 0c0,0 0,0 0,0l0 0z"/>
   <path class="fil4" d="M2662.11 47.92c-3.3,12 -9,23.4 -16.5,33.3 -24.9,33.6 -50.99,67.49 -78.89,98.69l-2.7 3.3c-9.3,7.8 -5.4,14.1 2.7,36.9l33 95.99c5.4,21.6 25.8,71.1 32.99,95.4 9.3,26.7 19.2,33 0.9,57.29 -2.7,3.3 -10.19,11.4 -11.09,14.7l-4.5 4.5c-2.7,1.8 -6.3,5.1 -9.3,6.3 -11.1,0 -8.4,-2.4 -15.6,-7.5l-3.6 -3.3c-10.8,-27 -36,-52.49 -53.1,-76.19 -19.8,-27.3 -39.3,-54.9 -57.6,-83.4 -0.6,-0.9 -10.19,-15.9 -10.19,-15.9 -8.4,5.7 -14.7,16.8 -21,24.6 -7.2,8.7 -14.7,17.4 -21.9,26.1 -6.9,8.4 -14.1,16.5 -21.3,24.6 -2.7,3 -7.8,7.2 -8.4,11.1 -0.6,3.9 1.8,9 2.7,12.6 1.8,7.8 0,8.4 2.7,16.5 -3.6,1.2 -1.8,1.8 -2.7,8.4 0,1.2 -0.9,5.7 -0.9,7.5 -1.8,4.5 -3.6,10.8 -4.5,15.3l-3.6 6.3c-1.8,2.4 -5.4,7.5 -7.5,11.4l-1.8 2.4c-3.6,2.4 -12.9,10.79 -13.8,14.69l-12.9 13.5c-1.2,1.2 -2.1,2.4 -3.3,3.3 -216.29,230.99 -434.67,476.97 -701.36,651.56 -179.68,117.6 -389.97,198.59 -604.46,190.19 -68.69,-2.7 -137.99,-14.7 -200.39,-43.5 -78.89,-36.29 -135.89,-95.99 -169.78,-175.19 -5.4,-13.49 -9.3,-25.49 -12.9,-38.69l-9.3 -43.2c0,-9.6 -0.9,-15.9 -1.8,-24.9l0 -15c74.99,-2.7 141.89,28.5 175.19,62.4l0 0.3c7.2,18.6 20.09,38.09 43.19,57.29 0.3,0.3 0.9,0.6 1.2,1.2 0,0 0,0 0.3,0 1.2,1.2 2.7,2.1 3.9,3 16.8,12.9 36.6,21.3 56.7,27.9 45.9,14.7 94.49,20.7 142.79,21.6 6.3,0 12.6,0.3 18.9,0 163.49,-1.5 307.78,-63.9 441.87,-152.99 15.6,-10.5 31.2,-21 46.5,-31.5 193.49,-134.69 353.08,-300.58 513.57,-468.57 48.89,-51.3 98.09,-102.59 148.19,-153.59 0,0 0,0 0,0 0.3,-0.3 1.8,-1.8 1.8,-1.8 11.1,-9.3 19.2,-19.8 32.69,-26.1 15,-6.9 31.8,-8.7 48.3,-8.7 5.4,0 4.5,1.2 10.2,0.6l0.9 -1.8 2.7 -3.9c4.2,-2.1 8.1,-8.1 10.8,-11.7 4.2,-5.7 8.7,-11.1 13.2,-16.5 8.4,-10.5 17.1,-21 25.8,-31.49 3.9,-4.5 7.8,-9 11.4,-13.5 3.9,-4.5 4.8,-5.4 -0.3,-8.4 -4.8,-3 -11.4,-7.5 -17.1,-8.4l-6.6 -3.9c-8.4,-4.5 -40.5,-22.2 -46.8,-23.4l-6.6 -3.9 -5.4 -3.9c-1.8,-1.2 -4.5,-1.8 -6.6,-3.3 -8.4,-3.9 -35.1,-19.2 -39.6,-19.8l-6.59 -3.9 -5.4 -1.8 -6.6 -3.9c-9.3,-6.3 -31.2,-15.9 -40.5,-17.7l-4.5 -3.9c-0.9,-6.3 -2.7,-4.5 -0.9,-11.4 2.7,-10.2 13.8,-31.2 14.7,-32.4l2.7 -3.3 0.9 -1.2 3.6 -3.3c7.5,-0.6 0,-1.8 16.5,-1.8l168.29 27.9c21.29,2.4 73.49,13.5 86.39,13.5l4.5 -7.8 2.7 -3.9c17.4,-23.7 34.2,-47.69 53.1,-70.49 17.39,-21 38.09,-46.5 66.29,-52.2 10.8,-2.1 23.4,0.6 30.3,9.3 3,3.9 4.5,8.7 4.8,13.5 0.6,6 -0.3,12.6 -2.1,18.6l2.4 -0.6z"/>
  </g>
 </g>
</svg>
