<?xml version="1.0" encoding="UTF-8"?>
<!DOCTYPE svg PUBLIC "-//W3C//DTD SVG 1.1//EN" "http://www.w3.org/Graphics/SVG/1.1/DTD/svg11.dtd">
<!-- Creator: CorelDRAW X6 -->
<svg xmlns="http://www.w3.org/2000/svg" xml:space="preserve" width="15.7778in" height="12.3333in" version="1.1" style="shape-rendering:geometricPrecision; text-rendering:geometricPrecision; image-rendering:optimizeQuality; fill-rule:evenodd; clip-rule:evenodd"
viewBox="0 0 15778 12333"
 xmlns:xlink="http://www.w3.org/1999/xlink">
 <defs>
  <style type="text/css">
   <![CDATA[
    .fil0 {fill:#20A7DF}
    .fil4 {fill:url(#id0)}
    .fil3 {fill:url(#id1)}
    .fil1 {fill:url(#id2)}
    .fil2 {fill:url(#id3)}
   ]]>
  </style>
  <linearGradient id="id0" gradientUnits="userSpaceOnUse" x1="4563.1" y1="6652.7" x2="11408.7" y2="2699.62">
   <stop offset="0" style="stop-color:#934791"/>
   <stop offset="0.419608" style="stop-color:#EF4E47"/>
   <stop offset="1" style="stop-color:#EE4698"/>
  </linearGradient>
  <linearGradient id="id1" gradientUnits="userSpaceOnUse" x1="4570.11" y1="5024.43" x2="9997.89" y2="3628.03">
   <stop offset="0" style="stop-color:#934791"/>
   <stop offset="0.329412" style="stop-color:#5466AD"/>
   <stop offset="0.741176" style="stop-color:#318AC9"/>
   <stop offset="1" style="stop-color:#56C5CD"/>
  </linearGradient>
  <linearGradient id="id2" gradientUnits="userSpaceOnUse" x1="9239.71" y1="4037.75" x2="10703.9" y2="6936.46">
   <stop offset="0" style="stop-color:#318AC9"/>
   <stop offset="0.521569" style="stop-color:#318AC9"/>
   <stop offset="1" style="stop-color:#56C5CD"/>
  </linearGradient>
  <linearGradient id="id3" gradientUnits="userSpaceOnUse" xlink:href="#id1" x1="8968.96" y1="4485.83" x2="9450.15" y2="4362.04">
  </linearGradient>
 </defs>
 <g id="Layer_x0020_1">
  <metadata id="CorelCorpID_0Corel-Layer"/>
  <path class="fil0" d="M11043 9106c-25,8 -365,2 -423,2 0,-28 61,-189 80,-248 3,-13 9,-23 12,-36 6,-15 6,-25 12,-40 18,-47 58,-184 83,-244l28 -78c9,-13 0,-6 12,-13 6,8 21,66 28,81l49 167c6,13 6,25 12,40 3,13 9,25 12,38l64 212c9,25 37,102 31,119zm506 140c-9,-45 -104,-295 -129,-369l-184 -522c-15,-42 -43,-112 -52,-151 -6,-17 -15,-42 -25,-59 -18,-45 -55,-87 -61,-104l-12 -11 -12 -13 -6 -6c-25,-17 -46,-38 -74,-49 -31,-11 -58,-25 -92,-25l-9 -4c-175,0 -153,28 -199,36l-12 8c-12,13 -31,21 -43,36 -43,49 -64,68 -98,142l-43 117c-18,34 -28,78 -43,114l-245 668c-3,8 -9,15 -12,25l-129 350c-34,89 -89,225 -61,320 1,3 3,6 5,10 24,49 94,141 183,141 94,0 154,-57 178,-89 7,-9 12,-16 15,-20l9 -13c3,-17 18,-42 25,-61 6,-11 6,-21 12,-34 15,-42 25,-81 46,-131 6,-13 6,-21 9,-34l693 0c12,32 21,66 34,100 36,109 37,137 82,194 38,43 121,101 211,88 6,-1 12,-2 20,-4 3,-1 5,-1 8,-2 20,-6 45,-16 75,-38 34,-23 52,-57 67,-98 40,-102 -37,-242 -64,-333l-64 -180z"/>
  <path class="fil0" d="M3716 8952l-9 -11c-9,-8 -6,-4 -9,-13l-9 -11 -6 -6 -15 -15 -28 -25 -12 -11 -9 -4 -12 -11c-6,-2 -74,-47 -77,-51l-15 -8c0,0 -159,-70 -215,-87 -31,-11 -205,-66 -224,-76l-15 -11 -9 -2c-12,-4 -31,-13 -40,-23l-15 -15 -3 -2 -9 -13c-25,-19 -31,-76 -25,-104 12,-78 61,-119 135,-138 9,-4 52,-6 61,-6 12,0 25,-2 34,0l193 45c15,4 40,13 52,15 104,13 135,11 212,-40l15 -17c6,-19 18,-34 28,-64 6,-28 9,-51 3,-81 -6,-32 -34,-95 -64,-112 -18,-25 -55,-38 -71,-57l-15 -8c-9,-2 -34,-13 -46,-19 -31,-15 -129,-42 -163,-45l-129 -8c-64,-11 -175,13 -239,25 -34,6 -71,21 -101,36 -132,59 -126,81 -169,102l-15 15 -9 8 -12 11 -25 30 -9 11 -6 8 -12 13c-3,21 -77,104 -98,259 -6,53 -6,114 0,168l18 72c6,19 18,47 21,66l9 13c9,11 6,2 6,15l9 13 9 15 12 13c9,6 6,2 9,13l15 15 6 8 9 6 3 6 12 9c0,2 104,72 132,85 46,21 107,49 153,64l83 25c18,8 25,8 43,13 15,4 25,11 40,15 34,13 129,40 153,64l12 8c9,2 15,6 25,15 3,2 6,6 9,8 9,8 3,2 6,8l12 11c37,30 43,81 43,125 0,25 0,53 -9,74 -6,13 -21,42 -34,51l-28 28c-31,40 -126,59 -172,53 -67,-11 -123,-17 -184,-38 -55,-19 -113,-40 -172,-55 -117,-30 -135,4 -187,13l-12 8 -34 28 -9 8 -3 6 -9 13c-6,15 -9,28 -15,40 -6,15 -6,36 -12,45l0 32 3 0c0,36 21,51 25,74l9 11c37,40 58,59 104,93l12 8c12,2 12,2 21,11l21 13c52,11 77,45 282,74 98,13 101,6 202,6 21,-2 40,-4 61,-8 21,-4 49,-6 67,-11 77,-19 153,-42 221,-83 15,-11 89,-59 92,-59l12 -13c3,-4 71,-74 74,-76l9 -11c3,-11 52,-78 80,-148 15,-38 37,-146 40,-187 0,-61 -3,-148 -25,-206 -37,-98 -71,-134 -77,-148z"/>
  <path class="fil0" d="M5528 9480l-6 -8c-9,-6 -12,-6 -15,-17l-9 -11c-9,-6 -12,-6 -12,-17l-12 -11 -61 -74 -15 -15c-9,-6 -6,-4 -9,-13l-6 -11c-12,-6 -15,-6 -18,-17l-9 -13 -43 -49 -9 -11c-9,-6 -9,-4 -9,-13l-12 -13c-12,-8 -83,-91 -86,-100l-9 -13 -92 -104 -6 -9 -9 -13 -15 -15 -6 -8 3 -13 55 -68 12 -13c3,-11 80,-102 92,-112l12 -13 9 -13 9 -11c3,-8 3,-6 12,-13l9 -11 55 -66 9 -11c3,-11 123,-155 138,-168l9 -11 12 -13 9 -11 31 -38 9 -11c6,-17 37,-38 55,-117 15,-74 -12,-98 -21,-144l-6 -15c-9,-8 -18,-25 -28,-36 -52,-57 -144,-89 -221,-70 -18,4 -34,6 -49,13 -12,8 -25,15 -37,21l-12 8c-6,11 -3,8 -12,11l-15 15c-3,11 -64,83 -77,93l-12 11 -9 13 -9 13 -9 11 -12 13c-3,8 0,6 -9,13l-12 11c0,8 -37,55 -49,61l-9 11 -80 93 -9 13 -31 36 -9 13 -9 11 -15 17 -9 13 -9 11c-3,8 -3,6 -12,13l-9 13 -9 13 -12 11 -9 13 -6 8 -58 68 -9 13c-3,11 -43,55 -55,64l-9 13 -9 13 -12 11c-3,11 -18,30 -28,36l-12 13c-3,9 0,4 -9,13l-15 15c-3,11 0,8 -12,13l0 -640c0,-148 -18,-108 -34,-174l-12 -11 -3 -8 -15 -15 -6 -6 -9 -11 -21 -13 -12 -8c-15,-2 -40,-19 -64,-23 -31,-4 -49,-4 -80,-4 -15,4 -25,2 -37,6 -9,2 -21,8 -31,13 -12,6 -43,25 -49,25l-12 11c-9,15 -18,19 -28,34 -9,13 -18,25 -25,40l-6 17c0,0 -1,0 -1,0 -3,6 -6,12 -8,19l-9 88c0,5 0,11 0,17 0,0 0,0 0,0 0,6 0,12 0,19 0,0 0,0 0,1 0,7 0,14 0,21l0 0c0,63 0,146 -1,214 0,4 0,7 0,11 0,2 0,4 0,6 0,6 0,13 0,19 0,2 0,3 0,5 0,6 0,12 0,17 0,1 0,1 0,2 0,6 0,11 0,16 0,1 0,1 0,2 0,5 0,10 0,14l0 1075c0,57 3,61 3,104 9,-2 3,4 6,19 9,45 49,85 67,110l15 13c21,6 61,45 120,45 123,-2 92,-21 138,-28l12 -11 37 -28 9 -13 9 -11 12 -13c6,-28 34,-59 34,-117l0 -443c0,-28 -6,-176 6,-193l28 36 9 13c12,6 31,30 34,40l12 11 61 74 15 15c9,6 6,4 9,13l9 11 61 74 15 15c9,8 6,4 9,13l12 13 86 100 9 13 43 49 6 6c9,8 37,38 40,49l9 8 58 68 12 17 9 13 12 11 64 76 12 13 49 53 9 11c61,19 37,40 159,42 74,0 117,-51 141,-59l18 -19 21 -30 9 -13c3,-36 40,-78 18,-161 -25,-91 -58,-95 -71,-125z"/>
  <path class="fil0" d="M6320 8665c12,-21 21,-13 49,-61 80,-134 6,-216 -3,-252l-12 -11 -37 -53 -9 -13c-6,0 -6,2 -3,-4l-9 -11 -15 -21 -9 -11c-9,-9 -64,-78 -67,-89l-9 -13c-12,-15 -43,-51 -49,-68l-12 -13c-15,-17 -31,-36 -43,-55 -12,-19 -34,-34 -49,-49l-12 -11c-12,0 -28,-8 -37,-15 -21,-11 -21,-8 -43,-11 -71,-11 -107,-4 -169,32 -34,19 -40,36 -58,49l-9 11c-3,15 -15,32 -21,49 -21,53 -21,129 3,178 28,57 107,144 117,168l9 13c6,0 3,0 3,4l9 13 37 51 12 13c3,0 3,0 0,4l12 13 12 19 9 13c9,6 64,78 67,89l9 11 34 32 12 11c9,2 46,23 61,28 107,36 141,-4 209,-28l12 -11z"/>
  <path class="fil0" d="M7258 7962l-15 -8c-9,-2 -12,-4 -21,-6 -12,-4 -21,-2 -18,-8 -40,0 -43,-17 -113,-2 -15,4 -34,6 -46,15 -12,6 -25,15 -37,17l-12 11 -9 6 -18 17 -61 78 -9 11 -6 8 -9 13 -34 45 -12 11c-3,15 -163,210 -181,233l-12 13 -6 8 -9 11 -49 66 -12 11 -34 45 -9 13 -6 8 -9 13 -6 6 -12 13c-3,8 -40,57 -49,64l-9 13 -6 8 -9 13c-6,8 -25,36 -37,42l-9 13 -6 8 -9 13c-3,11 -25,36 -34,42l-12 13c-6,45 0,153 0,206 0,68 0,136 0,206 0,13 0,27 0,40l0 373c1,0 2,0 2,0 0,2 0,6 1,15l12 49c9,21 21,36 28,53l9 13c25,19 40,45 74,59 71,30 135,38 209,2 15,-8 28,-15 40,-23 15,-11 21,-21 37,-30l9 -13 9 -15 9 -13c6,-36 28,-55 28,-106 0,-85 -6,-642 3,-659l117 -144 12 -13 6 -8 9 -11 6 -8 9 -13c6,-15 25,-34 34,-45l12 -11 3 -8 12 -13 34 -45 9 -11 6 -9 9 -13 6 -8 12 -11 18 -25 9 -11 6 -8 9 -13c3,-11 40,-57 49,-64l12 -13c3,-11 40,-57 49,-64l9 -13c6,-11 58,-78 67,-85l9 -13c6,-11 18,-28 25,-40 28,-47 40,-104 28,-159 -25,-89 -46,-102 -107,-155z"/>
  <path class="fil0" d="M9877 8002l-12 -13 -12 -11 -12 -11c-21,-4 -58,-34 -113,-34 -89,-2 -101,15 -126,19l-12 6 0 2c-9,11 -25,19 -34,32 -6,9 -18,25 -25,32l-9 13c-3,23 -21,49 -28,70l-61 320c-3,25 -12,51 -15,78l-21 121c-3,13 -6,23 -9,36l-15 83c-6,30 -12,51 -15,81 -3,23 -12,57 -18,81l-28 159c-3,13 -6,28 -9,40 -6,51 -15,74 -21,119 -3,13 -3,28 -9,40l-9 30 0 2c-9,-15 -86,-327 -89,-341l-101 -386c-3,-15 -6,-30 -9,-42l-46 -172c-6,-25 -15,-57 -21,-85 -15,-55 -28,-114 -46,-170 -28,-87 -74,-106 -86,-127l-6 -4 -6 -4c-18,-6 -28,-13 -46,-19 -6,-4 -15,-4 -25,-6 -12,-2 -25,0 -18,-6 -40,0 -67,-2 -104,6 -12,2 -28,4 -40,11 -15,6 -21,8 -37,15l-12 8c-12,21 -58,38 -89,129 -21,68 -61,225 -80,301 -3,15 -9,28 -12,40 -6,34 -15,55 -21,87 -3,17 -9,30 -12,45l-21 87c-6,15 -6,28 -9,42l-71 257c-3,11 0,15 -3,25 -9,34 -31,100 -40,148l-21 87c-3,13 -9,28 -12,40 -3,15 0,30 -18,34l-28 -167c-12,-53 -21,-108 -31,-161l-92 -490c-9,-45 -9,-51 -15,-81 -6,-28 -12,-51 -15,-81l-21 -123c-3,-15 -6,-25 -9,-40 -25,-121 -31,-85 -52,-140l-9 -11 -49 -42 -18 -13c-18,-2 -37,-8 -58,-13 -21,-4 -46,-2 -67,-2 -9,4 -55,15 -64,15l-25 13 -18 11 -12 11 -25 23 -9 13c-15,38 -34,53 -37,104 0,51 3,83 9,129l18 85c6,47 15,47 21,83 15,93 46,193 61,282 3,19 12,36 15,55 18,95 43,189 61,282 6,30 12,38 21,85 0,8 3,17 6,25l37 167c12,45 6,32 12,57 3,17 12,38 15,57 3,11 3,19 6,32 0,6 3,15 6,23 6,21 9,36 12,57l43 161c9,25 40,76 43,93l9 11 6 8 12 13 12 13 9 11c6,-4 6,-4 6,0l12 11c21,6 40,19 64,25 28,8 46,13 77,13 27,0 69,1 111,-7 40,-9 76,-28 107,-53 2,-2 5,-5 8,-7 62,-53 105,-133 120,-213 3,-15 9,-30 12,-45l46 -180c3,-19 6,-28 9,-45l25 -93c3,-17 6,-28 12,-45l21 -91c21,-74 34,-153 58,-227l67 -267c0,-2 3,-4 3,-4l9 -6 3 13 196 740c3,15 3,21 9,36 6,23 9,49 18,72 6,23 9,45 18,70 6,23 12,45 18,70 6,36 40,131 40,134l15 21c9,8 28,36 37,49 34,38 83,62 133,73 3,0 5,1 6,1 16,3 32,5 47,5l-25 0c24,4 66,6 110,0l-30 0c21,0 36,-1 49,-3 59,-12 121,-42 157,-108 0,0 0,0 0,0 11,-22 27,-48 36,-73 15,-36 25,-74 34,-110 6,-19 9,-40 15,-59l101 -399c3,-19 6,-40 12,-59 6,-19 9,-38 15,-57 3,-21 9,-38 15,-57l83 -343c3,-19 9,-36 15,-57 3,-21 9,-38 15,-57 15,-59 55,-223 64,-288 6,-47 12,-83 3,-134 -12,-57 -31,-64 -46,-93z"/>
  <path class="fil0" d="M12334 8636l9 -13c9,-34 46,-78 28,-161 -9,-47 0,-30 -25,-76 -12,-21 -28,-36 -40,-57l-9 -8 -248 -301 -9 -8c-147,-110 -230,-42 -270,-36l-12 8 -9 6 -12 8c-6,11 -74,61 -86,142 -15,104 34,155 43,180l9 13 34 40 6 8 6 8 15 15 6 8 9 13 52 64 9 8 6 8 9 11 9 13 12 13 3 6 12 13c12,8 37,42 49,57 12,15 34,38 46,55l12 11c6,-2 6,-4 3,2l12 8c40,13 83,53 184,30 67,-15 92,-47 135,-89z"/>
  <path class="fil0" d="M13288 8123c-25,-85 -43,-78 -74,-121l-9 -9c-37,-13 -12,-15 -80,-34 -28,-8 -64,-15 -98,-8 -98,21 -110,59 -141,81l-6 6c-6,13 -40,59 -52,66l-9 11c-3,13 -58,87 -71,93l-9 13c-3,11 -21,34 -31,40l-9 11c3,6 3,4 -3,6l-9 11 -46 61 -9 11 -15 21 -9 11 -6 8 -12 13c-3,11 -18,34 -28,40l-12 13 -31 40 -9 11c-3,11 -21,34 -31,40l-6 8 -34 45 -9 13c-3,8 -89,121 -98,127l-12 13c-3,15 -18,30 -28,42l-9 15c-3,8 -12,34 -15,47 -21,61 -12,108 -12,174 0,78 -6,579 3,617 9,53 21,85 25,95l9 13 6 11 9 13 49 45 12 8c25,8 37,19 67,25 135,25 172,-38 205,-49l9 -11c43,-49 67,-89 67,-153 0,-83 -3,-608 0,-647l6 -4 12 -13c-3,-4 -3,-4 0,-4l9 -11 31 -42 12 -11 46 -61 9 -11c-3,-6 -3,-4 3,-4l6 -8 6 -9 9 -11c3,-11 37,-55 46,-61l9 -13c3,-8 21,-34 31,-40l9 -11c6,-17 21,-30 31,-40l12 -13 28 -40 12 -13c3,-13 67,-93 83,-108l9 -13 6 -6 9 -13c3,-11 21,-34 31,-40l9 -13 31 -40 9 -11 31 -45 9 -13c6,-40 43,-83 15,-165z"/>
  <path class="fil1" d="M11174 5656c-69,401 -310,773 -656,990 -107,67 -222,120 -344,155 -306,88 -639,65 -955,65 -77,0 -172,11 -239,-17 -215,-87 -233,-358 -74,-479 71,-55 117,-59 196,-59 322,0 678,46 984,-76 301,-120 522,-419 548,-742 29,-353 -177,-707 -493,-865 -77,-38 -126,-53 -206,-72 -25,-6 -47,-8 -71,-13 216,-226 397,-415 439,-460 0,13 31,19 43,25 15,8 34,17 49,23 480,207 792,768 796,1277 1,83 -6,165 -20,247z"/>
  <path class="fil2" d="M8974 4670c84,-86 276,-287 470,-491l0 1c-3,16 -359,378 -470,491z"/>
  <path class="fil3" d="M9938 3655c-89,96 -293,311 -494,523l0 -11c0,-59 -1,-129 -9,-183 -46,-285 -239,-539 -502,-659 -241,-110 -532,-103 -767,18 -291,150 -434,428 -477,740 -6,44 6,104 3,148 0,72 -28,97 -31,125l-9 13 -18 28 -9 11 -22 21 -15 15c-49,17 -104,93 -276,40 -31,-8 -55,-32 -77,-40l-15 -15 -22 -21 -9 -11 -12 -15 -9 -13c-31,-150 -247,-254 -383,-257 -143,-4 -286,71 -365,191 -86,131 -100,340 3,467l9 13c0,15 0,8 6,19 49,100 31,212 -37,303 -9,13 -18,19 -28,32l-9 6c-15,8 -25,19 -43,28 -18,11 -28,13 -46,21 -71,28 -160,17 -227,-19 -37,-17 -71,-23 -107,-36 -46,-15 -55,-8 -86,-13 -49,-2 -40,-4 -101,-4 -299,0 -570,284 -570,581 0,12 0,27 1,43 0,61 -5,141 28,228l0 1c-112,-110 -334,-202 -585,-193l0 -128c0,-15 3,-21 3,-40 0,-53 18,-132 31,-184 31,-106 37,-112 71,-193 77,-176 204,-328 358,-442 122,-91 320,-211 479,-211 25,0 49,-6 77,-11l83 -9 58 -6c-3,-26 -3,-64 6,-85 9,-2 0,-21 6,-51 56,-299 196,-562 463,-725 154,-94 335,-143 515,-143 161,0 285,54 433,105 15,-30 28,-76 31,-89 9,-17 9,-13 12,-32 249,-508 763,-858 1339,-848 543,10 1064,352 1287,848 6,21 15,34 21,55 6,15 15,40 22,53l6 11 9 0c0,0 0,0 0,0z"/>
  <path class="fil4" d="M11333 2568c-11,40 -30,78 -55,111 -83,112 -170,225 -263,329l-9 11c-31,26 -18,47 9,123l110 320c18,72 86,237 110,318 31,89 64,110 3,191 -9,11 -34,38 -37,49l-15 15c-9,6 -21,17 -31,21 -37,0 -28,-8 -52,-25l-12 -11c-36,-90 -120,-175 -177,-254 -66,-91 -131,-183 -192,-278 -2,-3 -34,-53 -34,-53 -28,19 -49,56 -70,82 -24,29 -49,58 -73,87 -23,28 -47,55 -71,82 -9,10 -26,24 -28,37 -2,13 6,30 9,42 6,26 0,28 9,55 -12,4 -6,6 -9,28 0,4 -3,19 -3,25 -6,15 -12,36 -15,51l-12 21c-6,8 -18,25 -25,38l-6 8c-12,8 -43,36 -46,49l-43 45c-4,4 -7,8 -11,11 -721,770 -1449,1590 -2338,2172 -599,392 -1300,662 -2015,634 -229,-9 -460,-49 -668,-145 -263,-121 -453,-320 -566,-584 -18,-45 -31,-85 -43,-129l-31 -144c0,-32 -3,-53 -6,-83l0 -50c250,-9 473,95 584,208l0 1c24,62 67,127 144,191 1,1 3,2 4,4 0,0 0,0 1,0 4,4 9,7 13,10 56,43 122,71 189,93 153,49 315,69 476,72 21,0 42,1 63,0 545,-5 1026,-213 1473,-510 52,-35 104,-70 155,-105 645,-449 1177,-1002 1712,-1562 163,-171 327,-342 494,-512 0,0 0,0 0,0 1,-1 6,-6 6,-6 37,-31 64,-66 109,-87 50,-23 106,-29 161,-29 18,0 15,4 34,2l3 -6 9 -13c14,-7 27,-27 36,-39 14,-19 29,-37 44,-55 28,-35 57,-70 86,-105 13,-15 26,-30 38,-45 13,-15 16,-18 -1,-28 -16,-10 -38,-25 -57,-28l-22 -13c-28,-15 -135,-74 -156,-78l-22 -13 -18 -13c-6,-4 -15,-6 -22,-11 -28,-13 -117,-64 -132,-66l-22 -13 -18 -6 -22 -13c-31,-21 -104,-53 -135,-59l-15 -13c-3,-21 -9,-15 -3,-38 9,-34 46,-104 49,-108l9 -11 3 -4 12 -11c25,-2 0,-6 55,-6l561 93c71,8 245,45 288,45l15 -26 9 -13c58,-79 114,-159 177,-235 58,-70 127,-155 221,-174 36,-7 78,2 101,31 10,13 15,29 16,45 2,20 -1,42 -7,62z"/>
 </g>
</svg>
