<?xml version="1.0" encoding="UTF-8" standalone="no"?>
<!DOCTYPE svg PUBLIC "-//W3C//DTD SVG 1.1//EN" "http://www.w3.org/Graphics/SVG/1.1/DTD/svg11.dtd">
<svg version="1.1" xmlns="http://www.w3.org/2000/svg" xmlns:xlink="http://www.w3.org/1999/xlink" preserveAspectRatio="xMidYMid meet" viewBox="0 0 100 100" width="100" height="100"><defs><path d="M35.13 53.25L35.39 53.45L35.64 53.7L35.89 54.01L36.14 54.38L36.38 54.8L36.62 55.28L36.62 63.2L36.58 63.61L36.47 63.99L36.3 64.35L36.07 64.67L35.79 64.94L35.47 65.17L35.11 65.35L34.73 65.46L34.33 65.49L26.41 65.49L26 65.46L25.62 65.35L25.26 65.17L24.94 64.94L24.67 64.67L24.44 64.35L24.26 63.99L24.15 63.61L24.12 63.2L24.12 55.28L24.15 54.88L24.26 54.5L24.44 54.14L24.67 53.82L24.94 53.54L25.26 53.31L25.62 53.14L26 53.03L26.41 52.99L34.33 52.99L34.6 53.02L34.87 53.11L35.13 53.25Z" id="a71f8Pm3D"></path><path d="M35.13 53.25L35.39 53.45L35.64 53.7L35.89 54.01L36.14 54.38L36.38 54.8L36.62 55.28L36.62 63.2L36.58 63.61L36.47 63.99L36.3 64.35L36.07 64.67L35.79 64.94L35.47 65.17L35.11 65.35L34.73 65.46L34.33 65.49L26.41 65.49L26 65.46L25.62 65.35L25.26 65.17L24.94 64.94L24.67 64.67L24.44 64.35L24.26 63.99L24.15 63.61L24.12 63.2L24.12 55.28L24.15 54.88L24.26 54.5L24.44 54.14L24.67 53.82L24.94 53.54L25.26 53.31L25.62 53.14L26 53.03L26.41 52.99L34.33 52.99L34.6 53.02L34.87 53.11L35.13 53.25Z" id="i2eUrYcQs"></path><path d="M54.85 53.25L55.11 53.45L55.36 53.7L55.61 54.01L55.86 54.38L56.1 54.8L56.34 55.28L56.34 63.2L56.3 63.61L56.19 63.99L56.02 64.35L55.79 64.67L55.51 64.94L55.19 65.17L54.83 65.35L54.45 65.46L54.05 65.49L46.12 65.49L45.72 65.46L45.34 65.35L44.98 65.17L44.66 64.94L44.38 64.67L44.15 64.35L43.98 63.99L43.87 63.61L43.84 63.2L43.84 55.28L43.87 54.88L43.98 54.5L44.15 54.14L44.38 53.82L44.66 53.54L44.98 53.31L45.34 53.14L45.72 53.03L46.12 52.99L54.05 52.99L54.32 53.02L54.59 53.11L54.85 53.25Z" id="e8Xwn8pc2"></path><path d="M54.85 53.25L55.11 53.45L55.36 53.7L55.61 54.01L55.86 54.38L56.1 54.8L56.34 55.28L56.34 63.2L56.3 63.61L56.19 63.99L56.02 64.35L55.79 64.67L55.51 64.94L55.19 65.17L54.83 65.35L54.45 65.46L54.05 65.49L46.12 65.49L45.72 65.46L45.34 65.35L44.98 65.17L44.66 64.94L44.38 64.67L44.15 64.35L43.98 63.99L43.87 63.61L43.84 63.2L43.84 55.28L43.87 54.88L43.98 54.5L44.15 54.14L44.38 53.82L44.66 53.54L44.98 53.31L45.34 53.14L45.72 53.03L46.12 52.99L54.05 52.99L54.32 53.02L54.59 53.11L54.85 53.25Z" id="e36kgKsjkS"></path><path d="M74.74 53.25L75 53.45L75.26 53.7L75.51 54.01L75.75 54.38L75.99 54.8L76.23 55.28L76.23 63.2L76.19 63.61L76.08 63.99L75.91 64.35L75.68 64.67L75.4 64.94L75.08 65.17L74.73 65.35L74.34 65.46L73.94 65.49L66.02 65.49L65.62 65.46L65.23 65.35L64.88 65.17L64.56 64.94L64.28 64.67L64.05 64.35L63.88 63.99L63.77 63.61L63.73 63.2L63.73 55.28L63.77 54.88L63.88 54.5L64.05 54.14L64.28 53.82L64.56 53.54L64.88 53.31L65.23 53.14L65.62 53.03L66.02 52.99L73.94 52.99L74.21 53.02L74.48 53.11L74.74 53.25Z" id="d1J7ePmj2V"></path><path d="M74.74 53.25L75 53.45L75.26 53.7L75.51 54.01L75.75 54.38L75.99 54.8L76.23 55.28L76.23 63.2L76.19 63.61L76.08 63.99L75.91 64.35L75.68 64.67L75.4 64.94L75.08 65.17L74.73 65.35L74.34 65.46L73.94 65.49L66.02 65.49L65.62 65.46L65.23 65.35L64.88 65.17L64.56 64.94L64.28 64.67L64.05 64.35L63.88 63.99L63.77 63.61L63.73 63.2L63.73 55.28L63.77 54.88L63.88 54.5L64.05 54.14L64.28 53.82L64.56 53.54L64.88 53.31L65.23 53.14L65.62 53.03L66.02 52.99L73.94 52.99L74.21 53.02L74.48 53.11L74.74 53.25Z" id="f9fiMe46Wk"></path><path d="M35.13 72.97L35.39 73.16L35.64 73.42L35.89 73.73L36.14 74.1L36.38 74.52L36.62 75L36.62 82.92L36.58 83.33L36.47 83.71L36.3 84.06L36.07 84.38L35.79 84.66L35.47 84.89L35.11 85.06L34.73 85.17L34.33 85.21L26.41 85.21L26 85.17L25.62 85.06L25.26 84.89L24.94 84.66L24.67 84.38L24.44 84.06L24.26 83.71L24.15 83.33L24.12 82.92L24.12 75L24.15 74.6L24.26 74.21L24.44 73.86L24.67 73.54L24.94 73.26L25.26 73.03L25.62 72.86L26 72.75L26.41 72.71L34.33 72.71L34.6 72.74L34.87 72.82L35.13 72.97Z" id="c2GikTQC4"></path><path d="M35.13 72.97L35.39 73.16L35.64 73.42L35.89 73.73L36.14 74.1L36.38 74.52L36.62 75L36.62 82.92L36.58 83.33L36.47 83.71L36.3 84.06L36.07 84.38L35.79 84.66L35.47 84.89L35.11 85.06L34.73 85.17L34.33 85.21L26.41 85.21L26 85.17L25.62 85.06L25.26 84.89L24.94 84.66L24.67 84.38L24.44 84.06L24.26 83.71L24.15 83.33L24.12 82.92L24.12 75L24.15 74.6L24.26 74.21L24.44 73.86L24.67 73.54L24.94 73.26L25.26 73.03L25.62 72.86L26 72.75L26.41 72.71L34.33 72.71L34.6 72.74L34.87 72.82L35.13 72.97Z" id="f3M5Pdqen9"></path><path d="M54.85 72.97L55.11 73.16L55.36 73.42L55.61 73.73L55.86 74.1L56.1 74.52L56.34 75L56.34 82.92L56.3 83.33L56.19 83.71L56.02 84.06L55.79 84.38L55.51 84.66L55.19 84.89L54.83 85.06L54.45 85.17L54.05 85.21L46.12 85.21L45.72 85.17L45.34 85.06L44.98 84.89L44.66 84.66L44.38 84.38L44.15 84.06L43.98 83.71L43.87 83.33L43.84 82.92L43.84 75L43.87 74.6L43.98 74.21L44.15 73.86L44.38 73.54L44.66 73.26L44.98 73.03L45.34 72.86L45.72 72.75L46.12 72.71L54.05 72.71L54.32 72.74L54.59 72.82L54.85 72.97Z" id="b2zmRCiFA"></path><path d="M54.85 72.97L55.11 73.16L55.36 73.42L55.61 73.73L55.86 74.1L56.1 74.52L56.34 75L56.34 82.92L56.3 83.33L56.19 83.71L56.02 84.06L55.79 84.38L55.51 84.66L55.19 84.89L54.83 85.06L54.45 85.17L54.05 85.21L46.12 85.21L45.72 85.17L45.34 85.06L44.98 84.89L44.66 84.66L44.38 84.38L44.15 84.06L43.98 83.71L43.87 83.33L43.84 82.92L43.84 75L43.87 74.6L43.98 74.21L44.15 73.86L44.38 73.54L44.66 73.26L44.98 73.03L45.34 72.86L45.72 72.75L46.12 72.71L54.05 72.71L54.32 72.74L54.59 72.82L54.85 72.97Z" id="m7HQB88P4n"></path><path d="M74.74 72.97L75 73.16L75.26 73.42L75.51 73.73L75.75 74.1L75.99 74.52L76.23 75L76.23 82.92L76.19 83.33L76.08 83.71L75.91 84.06L75.68 84.38L75.4 84.66L75.08 84.89L74.73 85.06L74.34 85.17L73.94 85.21L66.02 85.21L65.62 85.17L65.23 85.06L64.88 84.89L64.56 84.66L64.28 84.38L64.05 84.06L63.88 83.71L63.77 83.33L63.73 82.92L63.73 75L63.77 74.6L63.88 74.21L64.05 73.86L64.28 73.54L64.56 73.26L64.88 73.03L65.23 72.86L65.62 72.75L66.02 72.71L73.94 72.71L74.21 72.74L74.48 72.82L74.74 72.97Z" id="b43YbXrIQI"></path><path d="M74.74 72.97L75 73.16L75.26 73.42L75.51 73.73L75.75 74.1L75.99 74.52L76.23 75L76.23 82.92L76.19 83.33L76.08 83.71L75.91 84.06L75.68 84.38L75.4 84.66L75.08 84.89L74.73 85.06L74.34 85.17L73.94 85.21L66.02 85.21L65.62 85.17L65.23 85.06L64.88 84.89L64.56 84.66L64.28 84.38L64.05 84.06L63.88 83.71L63.77 83.33L63.73 82.92L63.73 75L63.77 74.6L63.88 74.21L64.05 73.86L64.28 73.54L64.56 73.26L64.88 73.03L65.23 72.86L65.62 72.75L66.02 72.71L73.94 72.71L74.21 72.74L74.48 72.82L74.74 72.97Z" id="a1zY5JrqIy"></path><path d="M64.27 23.65L64.29 24.05L64.33 24.45L64.39 24.84L64.47 25.23L64.55 25.61L64.66 25.99L64.78 26.36L64.91 26.72L65.06 27.08L65.22 27.43L65.39 27.78L65.58 28.11L65.78 28.44L65.99 28.76L66.22 29.07L66.45 29.37L66.7 29.66L66.96 29.94L67.23 30.22L67.51 30.48L67.8 30.73L68.1 30.97L68.4 31.2L68.72 31.42L69.04 31.62L69.38 31.82L69.72 32L70.07 32.17L70.42 32.33L70.78 32.47L71.15 32.6L71.53 32.71L71.91 32.81L72.29 32.9L72.69 32.97L73.08 33.03L73.48 33.07L73.89 33.09L74.29 33.1L80.63 33.1L81.04 33.09L81.44 33.07L81.84 33.03L82.23 32.97L82.62 32.9L83 32.81L83.38 32.71L83.75 32.6L84.12 32.47L84.47 32.33L84.82 32.17L85.17 32L85.5 31.82L85.83 31.62L86.15 31.42L86.46 31.2L86.76 30.97L87.05 30.73L87.33 30.48L87.61 30.22L87.87 29.94L88.12 29.66L88.36 29.37L88.59 29.07L88.81 28.76L89.02 28.44L89.21 28.11L89.39 27.78L89.56 27.43L89.72 27.08L89.86 26.72L89.99 26.36L90.1 25.99L90.2 25.61L90.29 25.23L90.36 24.84L90.42 24.45L90.46 24.05L90.48 23.65L90.49 23.24L90.49 11.09L90.84 11.11L91.2 11.15L91.54 11.19L91.89 11.25L92.23 11.33L92.56 11.41L92.89 11.51L93.21 11.62L93.53 11.74L94.15 12.02L94.45 12.18L94.74 12.34L95.02 12.52L95.3 12.71L95.57 12.91L95.83 13.12L96.08 13.33L96.33 13.56L96.79 14.04L97.01 14.3L97.21 14.56L97.41 14.83L97.6 15.11L97.94 15.69L98.09 15.99L98.23 16.3L98.36 16.61L98.48 16.93L98.59 17.26L98.68 17.59L98.76 17.93L98.88 18.63L98.91 18.98L98.94 19.34L98.95 19.7L98.94 20.07L98.94 91.02L98.93 91.39L98.91 91.75L98.87 92.11L98.82 92.47L98.76 92.82L98.68 93.17L98.59 93.51L98.48 93.85L98.36 94.18L98.23 94.5L98.09 94.82L97.77 95.44L97.59 95.74L97.4 96.03L97.2 96.31L96.99 96.59L96.77 96.85L96.54 97.11L96.3 97.36L96.05 97.6L95.79 97.83L95.53 98.05L95.25 98.26L94.97 98.46L94.68 98.65L94.38 98.83L94.08 98.99L93.76 99.15L93.44 99.29L93.12 99.42L92.79 99.54L92.11 99.74L91.76 99.82L91.41 99.88L91.05 99.93L90.69 99.97L90.33 99.99L89.96 100L10.03 100L9.66 99.99L9.3 99.97L8.94 99.93L8.58 99.88L8.23 99.82L7.88 99.74L7.54 99.64L7.21 99.54L6.87 99.42L6.55 99.29L6.23 99.15L5.61 98.83L5.32 98.65L5.03 98.46L4.74 98.26L4.47 98.05L4.2 97.83L3.94 97.6L3.69 97.36L3.45 97.11L3.22 96.85L3 96.59L2.79 96.31L2.59 96.03L2.41 95.74L2.23 95.44L2.06 95.13L1.91 94.82L1.76 94.5L1.63 94.18L1.51 93.85L1.41 93.51L1.32 93.17L1.24 92.82L1.17 92.47L1.12 92.11L1.08 91.75L1.06 91.39L1.05 91.02L1.05 20.07L1.06 19.7L1.08 19.34L1.12 18.98L1.17 18.63L1.24 18.28L1.32 17.93L1.41 17.59L1.51 17.26L1.63 16.93L1.76 16.61L1.9 16.3L2.06 15.99L2.22 15.69L2.4 15.4L2.59 15.11L2.78 14.83L2.99 14.56L3.21 14.3L3.44 14.04L3.67 13.8L3.92 13.56L4.17 13.33L4.43 13.12L4.7 12.91L4.98 12.71L5.27 12.52L5.56 12.34L6.16 12.02L6.48 11.88L6.79 11.74L7.12 11.62L7.44 11.51L7.78 11.41L8.11 11.33L8.45 11.25L8.8 11.19L9.5 11.11L9.86 11.09L9.86 23.65L9.89 24.05L9.93 24.45L9.99 24.84L10.06 25.23L10.14 25.61L10.24 25.99L10.36 26.36L10.49 26.72L10.63 27.08L10.95 27.78L11.33 28.44L11.54 28.76L11.75 29.07L11.98 29.37L12.23 29.66L12.48 29.94L12.74 30.22L13.01 30.48L13.29 30.73L13.59 30.97L13.89 31.2L14.2 31.42L14.84 31.82L15.18 32L15.52 32.17L15.87 32.33L16.23 32.47L16.59 32.6L16.97 32.71L17.34 32.81L17.72 32.9L18.11 32.97L18.51 33.03L18.91 33.07L19.31 33.09L19.72 33.1L26.05 33.1L26.46 33.09L26.87 33.07L27.27 33.03L27.66 32.97L28.05 32.9L28.44 32.81L28.82 32.71L29.19 32.6L29.56 32.47L29.92 32.33L30.28 32.17L30.63 32L30.97 31.82L31.63 31.42L31.94 31.2L32.25 30.97L32.55 30.73L32.84 30.48L33.12 30.22L33.39 29.94L33.64 29.66L33.89 29.37L34.13 29.07L34.35 28.76L34.57 28.44L34.77 28.11L34.95 27.78L35.13 27.43L35.29 27.08L35.44 26.72L35.57 26.36L35.69 25.99L35.79 25.61L35.88 25.23L35.96 24.84L36.01 24.45L36.05 24.05L36.08 23.65L36.09 23.24L36.09 11.09L64.26 11.09L64.26 23.24L64.27 23.65ZM16.23 46.14L16.08 46.16L15.92 46.18L15.62 46.24L15.48 46.28L15.33 46.33L15.05 46.43L14.91 46.5L14.78 46.56L14.65 46.64L14.52 46.71L14.39 46.8L14.27 46.88L14.15 46.97L13.82 47.27L13.71 47.38L13.61 47.49L13.52 47.61L13.43 47.72L13.34 47.85L13.26 47.97L13.18 48.1L13.11 48.23L13.04 48.37L12.98 48.5L12.92 48.64L12.87 48.79L12.83 48.93L12.75 49.23L12.72 49.38L12.7 49.53L12.69 49.69L12.68 49.84L12.67 50L12.67 86.62L12.68 86.78L12.69 86.93L12.7 87.09L12.72 87.24L12.75 87.39L12.83 87.69L12.87 87.83L12.92 87.98L12.98 88.12L13.04 88.25L13.11 88.39L13.18 88.52L13.26 88.65L13.34 88.77L13.43 88.9L13.52 89.01L13.61 89.13L13.71 89.24L13.82 89.35L14.15 89.65L14.27 89.74L14.39 89.82L14.52 89.91L14.65 89.98L14.78 90.06L14.91 90.12L15.19 90.24L15.33 90.29L15.48 90.34L15.62 90.38L15.92 90.44L16.08 90.46L16.23 90.48L16.39 90.49L83.73 90.49L83.83 90.48L83.94 90.47L84.04 90.45L84.15 90.43L84.25 90.41L84.35 90.37L84.45 90.34L84.56 90.3L84.76 90.2L85.06 90.02L85.16 89.95L85.36 89.79L85.45 89.71L85.55 89.62L85.65 89.52L85.75 89.43L85.84 89.32L85.94 89.21L86.03 89.1L86.13 88.98L86.22 88.86L86.32 88.73L86.41 88.6L86.5 88.46L86.59 88.31L86.69 88.17L86.78 88.01L86.87 87.86L86.96 87.69L87.05 87.53L87.14 87.36L87.32 87L87.5 86.62L87.5 50L87.49 49.84L87.48 49.69L87.47 49.53L87.45 49.38L87.42 49.23L87.34 48.93L87.3 48.79L87.25 48.64L87.19 48.5L87.13 48.37L87.06 48.23L86.99 48.1L86.91 47.97L86.83 47.85L86.74 47.72L86.65 47.61L86.56 47.49L86.46 47.38L86.25 47.17L86.13 47.07L86.02 46.97L85.9 46.88L85.78 46.8L85.65 46.71L85.52 46.64L85.39 46.56L85.26 46.5L85.12 46.43L84.84 46.33L84.69 46.28L84.55 46.24L84.25 46.18L84.09 46.16L83.94 46.14L83.78 46.13L16.39 46.13L16.23 46.14Z" id="aRLjwW0d"></path><path d="M64.27 23.65L64.29 24.05L64.33 24.45L64.39 24.84L64.47 25.23L64.55 25.61L64.66 25.99L64.78 26.36L64.91 26.72L65.06 27.08L65.22 27.43L65.39 27.78L65.58 28.11L65.78 28.44L65.99 28.76L66.22 29.07L66.45 29.37L66.7 29.66L66.96 29.94L67.23 30.22L67.51 30.48L67.8 30.73L68.1 30.97L68.4 31.2L68.72 31.42L69.04 31.62L69.38 31.82L69.72 32L70.07 32.17L70.42 32.33L70.78 32.47L71.15 32.6L71.53 32.71L71.91 32.81L72.29 32.9L72.69 32.97L73.08 33.03L73.48 33.07L73.89 33.09L74.29 33.1L80.63 33.1L81.04 33.09L81.44 33.07L81.84 33.03L82.23 32.97L82.62 32.9L83 32.81L83.38 32.71L83.75 32.6L84.12 32.47L84.47 32.33L84.82 32.17L85.17 32L85.5 31.82L85.83 31.62L86.15 31.42L86.46 31.2L86.76 30.97L87.05 30.73L87.33 30.48L87.61 30.22L87.87 29.94L88.12 29.66L88.36 29.37L88.59 29.07L88.81 28.76L89.02 28.44L89.21 28.11L89.39 27.78L89.56 27.43L89.72 27.08L89.86 26.72L89.99 26.36L90.1 25.99L90.2 25.61L90.29 25.23L90.36 24.84L90.42 24.45L90.46 24.05L90.48 23.65L90.49 23.24L90.49 11.09L90.84 11.11L91.2 11.15L91.54 11.19L91.89 11.25L92.23 11.33L92.56 11.41L92.89 11.51L93.21 11.62L93.53 11.74L94.15 12.02L94.45 12.18L94.74 12.34L95.02 12.52L95.3 12.71L95.57 12.91L95.83 13.12L96.08 13.33L96.33 13.56L96.79 14.04L97.01 14.3L97.21 14.56L97.41 14.83L97.6 15.11L97.94 15.69L98.09 15.99L98.23 16.3L98.36 16.61L98.48 16.93L98.59 17.26L98.68 17.59L98.76 17.93L98.88 18.63L98.91 18.98L98.94 19.34L98.95 19.7L98.94 20.07L98.94 91.02L98.93 91.39L98.91 91.75L98.87 92.11L98.82 92.47L98.76 92.82L98.68 93.17L98.59 93.51L98.48 93.85L98.36 94.18L98.23 94.5L98.09 94.82L97.77 95.44L97.59 95.74L97.4 96.03L97.2 96.31L96.99 96.59L96.77 96.85L96.54 97.11L96.3 97.36L96.05 97.6L95.79 97.83L95.53 98.05L95.25 98.26L94.97 98.46L94.68 98.65L94.38 98.83L94.08 98.99L93.76 99.15L93.44 99.29L93.12 99.42L92.79 99.54L92.11 99.74L91.76 99.82L91.41 99.88L91.05 99.93L90.69 99.97L90.33 99.99L89.96 100L10.03 100L9.66 99.99L9.3 99.97L8.94 99.93L8.58 99.88L8.23 99.82L7.88 99.74L7.54 99.64L7.21 99.54L6.87 99.42L6.55 99.29L6.23 99.15L5.61 98.83L5.32 98.65L5.03 98.46L4.74 98.26L4.47 98.05L4.2 97.83L3.94 97.6L3.69 97.36L3.45 97.11L3.22 96.85L3 96.59L2.79 96.31L2.59 96.03L2.41 95.74L2.23 95.44L2.06 95.13L1.91 94.82L1.76 94.5L1.63 94.18L1.51 93.85L1.41 93.51L1.32 93.17L1.24 92.82L1.17 92.47L1.12 92.11L1.08 91.75L1.06 91.39L1.05 91.02L1.05 20.07L1.06 19.7L1.08 19.34L1.12 18.98L1.17 18.63L1.24 18.28L1.32 17.93L1.41 17.59L1.51 17.26L1.63 16.93L1.76 16.61L1.9 16.3L2.06 15.99L2.22 15.69L2.4 15.4L2.59 15.11L2.78 14.83L2.99 14.56L3.21 14.3L3.44 14.04L3.67 13.8L3.92 13.56L4.17 13.33L4.43 13.12L4.7 12.91L4.98 12.71L5.27 12.52L5.56 12.34L6.16 12.02L6.48 11.88L6.79 11.74L7.12 11.62L7.44 11.51L7.78 11.41L8.11 11.33L8.45 11.25L8.8 11.19L9.5 11.11L9.86 11.09L9.86 23.65L9.89 24.05L9.93 24.45L9.99 24.84L10.06 25.23L10.14 25.61L10.24 25.99L10.36 26.36L10.49 26.72L10.63 27.08L10.95 27.78L11.33 28.44L11.54 28.76L11.75 29.07L11.98 29.37L12.23 29.66L12.48 29.94L12.74 30.22L13.01 30.48L13.29 30.73L13.59 30.97L13.89 31.2L14.2 31.42L14.84 31.82L15.18 32L15.52 32.17L15.87 32.33L16.23 32.47L16.59 32.6L16.97 32.71L17.34 32.81L17.72 32.9L18.11 32.97L18.51 33.03L18.91 33.07L19.31 33.09L19.72 33.1L26.05 33.1L26.46 33.09L26.87 33.07L27.27 33.03L27.66 32.97L28.05 32.9L28.44 32.81L28.82 32.71L29.19 32.6L29.56 32.47L29.92 32.33L30.28 32.17L30.63 32L30.97 31.82L31.63 31.42L31.94 31.2L32.25 30.97L32.55 30.73L32.84 30.48L33.12 30.22L33.39 29.94L33.64 29.66L33.89 29.37L34.13 29.07L34.35 28.76L34.57 28.44L34.77 28.11L34.95 27.78L35.13 27.43L35.29 27.08L35.44 26.72L35.57 26.36L35.69 25.99L35.79 25.61L35.88 25.23L35.96 24.84L36.01 24.45L36.05 24.05L36.08 23.65L36.09 23.24L36.09 11.09L64.26 11.09L64.26 23.24L64.27 23.65ZM16.23 46.14L16.08 46.16L15.92 46.18L15.62 46.24L15.48 46.28L15.33 46.33L15.05 46.43L14.91 46.5L14.78 46.56L14.65 46.64L14.52 46.71L14.39 46.8L14.27 46.88L14.15 46.97L13.82 47.27L13.71 47.38L13.61 47.49L13.52 47.61L13.43 47.72L13.34 47.85L13.26 47.97L13.18 48.1L13.11 48.23L13.04 48.37L12.98 48.5L12.92 48.64L12.87 48.79L12.83 48.93L12.75 49.23L12.72 49.38L12.7 49.53L12.69 49.69L12.68 49.84L12.67 50L12.67 86.62L12.68 86.78L12.69 86.93L12.7 87.09L12.72 87.24L12.75 87.39L12.83 87.69L12.87 87.83L12.92 87.98L12.98 88.12L13.04 88.25L13.11 88.39L13.18 88.52L13.26 88.65L13.34 88.77L13.43 88.9L13.52 89.01L13.61 89.13L13.71 89.24L13.82 89.35L14.15 89.65L14.27 89.74L14.39 89.82L14.52 89.91L14.65 89.98L14.78 90.06L14.91 90.12L15.19 90.24L15.33 90.29L15.48 90.34L15.62 90.38L15.92 90.44L16.08 90.46L16.23 90.48L16.39 90.49L83.73 90.49L83.83 90.48L83.94 90.47L84.04 90.45L84.15 90.43L84.25 90.41L84.35 90.37L84.45 90.34L84.56 90.3L84.76 90.2L85.06 90.02L85.16 89.95L85.36 89.79L85.45 89.71L85.55 89.62L85.65 89.52L85.75 89.43L85.84 89.32L85.94 89.21L86.03 89.1L86.13 88.98L86.22 88.86L86.32 88.73L86.41 88.6L86.5 88.46L86.59 88.31L86.69 88.17L86.78 88.01L86.87 87.86L86.96 87.69L87.05 87.53L87.14 87.36L87.32 87L87.5 86.62L87.5 50L87.49 49.84L87.48 49.69L87.47 49.53L87.45 49.38L87.42 49.23L87.34 48.93L87.3 48.79L87.25 48.64L87.19 48.5L87.13 48.37L87.06 48.23L86.99 48.1L86.91 47.97L86.83 47.85L86.74 47.72L86.65 47.61L86.56 47.49L86.46 47.38L86.25 47.17L86.13 47.07L86.02 46.97L85.9 46.88L85.78 46.8L85.65 46.71L85.52 46.64L85.39 46.56L85.26 46.5L85.12 46.43L84.84 46.33L84.69 46.28L84.55 46.24L84.25 46.18L84.09 46.16L83.94 46.14L83.78 46.13L16.39 46.13L16.23 46.14Z" id="bakQZUvIW1"></path><path d="M27.15 0.19L27.49 0.32L27.81 0.5L28.11 0.71L28.39 0.95L28.64 1.22L28.86 1.51L29.04 1.83L29.19 2.18L29.31 2.55L29.37 2.94L29.4 3.35L29.4 23.24L29.38 23.61L29.31 23.98L29.21 24.33L29.07 24.67L28.9 24.99L28.69 25.3L28.45 25.57L28.18 25.82L27.89 26.04L27.56 26.23L27.22 26.38L26.85 26.49L26.46 26.56L26.05 26.58L19.89 26.58L19.48 26.56L19.09 26.5L18.71 26.4L18.35 26.26L18.02 26.09L17.71 25.88L17.43 25.64L17.18 25.37L16.97 25.07L16.79 24.75L16.66 24.4L16.57 24.03L16.54 23.65L16.55 23.24L16.55 3.35L16.57 2.97L16.63 2.61L16.73 2.25L16.87 1.91L17.05 1.59L17.25 1.29L17.49 1.01L17.76 0.76L18.06 0.54L18.38 0.36L18.73 0.2L19.1 0.09L19.48 0.02L19.89 0L26.05 0L26.43 0.02L26.79 0.08L27.15 0.19Z" id="c5tMWQgj3z"></path><path d="M27.15 0.19L27.49 0.32L27.81 0.5L28.11 0.71L28.39 0.95L28.64 1.22L28.86 1.51L29.04 1.83L29.19 2.18L29.31 2.55L29.37 2.94L29.4 3.35L29.4 23.24L29.38 23.61L29.31 23.98L29.21 24.33L29.07 24.67L28.9 24.99L28.69 25.3L28.45 25.57L28.18 25.82L27.89 26.04L27.56 26.23L27.22 26.38L26.85 26.49L26.46 26.56L26.05 26.58L19.89 26.58L19.48 26.56L19.09 26.5L18.71 26.4L18.35 26.26L18.02 26.09L17.71 25.88L17.43 25.64L17.18 25.37L16.97 25.07L16.79 24.75L16.66 24.4L16.57 24.03L16.54 23.65L16.55 23.24L16.55 3.35L16.57 2.97L16.63 2.61L16.73 2.25L16.87 1.91L17.05 1.59L17.25 1.29L17.49 1.01L17.76 0.76L18.06 0.54L18.38 0.36L18.73 0.2L19.1 0.09L19.48 0.02L19.89 0L26.05 0L26.43 0.02L26.79 0.08L27.15 0.19Z" id="adaM8T6Bw"></path><path d="M81.37 0.19L81.71 0.32L82.03 0.5L82.33 0.71L82.61 0.95L82.86 1.22L83.08 1.51L83.27 1.83L83.42 2.18L83.53 2.55L83.6 2.94L83.62 3.35L83.62 23.24L83.6 23.61L83.54 23.98L83.44 24.33L83.3 24.67L83.13 24.99L82.92 25.3L82.68 25.57L82.41 25.82L82.11 26.04L81.79 26.23L81.44 26.38L81.07 26.49L80.69 26.56L80.28 26.58L74.12 26.58L73.74 26.56L73.38 26.5L73.02 26.4L72.68 26.26L72.36 26.09L72.06 25.88L71.78 25.64L71.53 25.37L71.31 25.07L71.13 24.75L70.98 24.4L70.86 24.03L70.8 23.65L70.77 23.24L70.77 3.35L70.79 2.97L70.86 2.61L70.96 2.25L71.1 1.91L71.27 1.59L71.48 1.29L71.72 1.01L71.99 0.76L72.28 0.54L72.61 0.36L72.95 0.2L73.32 0.09L73.71 0.02L74.12 0L80.28 0L80.65 0.02L81.02 0.08L81.37 0.19Z" id="bbvyjY1rB"></path><path d="M81.37 0.19L81.71 0.32L82.03 0.5L82.33 0.71L82.61 0.95L82.86 1.22L83.08 1.51L83.27 1.83L83.42 2.18L83.53 2.55L83.6 2.94L83.62 3.35L83.62 23.24L83.6 23.61L83.54 23.98L83.44 24.33L83.3 24.67L83.13 24.99L82.92 25.3L82.68 25.57L82.41 25.82L82.11 26.04L81.79 26.23L81.44 26.38L81.07 26.49L80.69 26.56L80.28 26.58L74.12 26.58L73.74 26.56L73.38 26.5L73.02 26.4L72.68 26.26L72.36 26.09L72.06 25.88L71.78 25.64L71.53 25.37L71.31 25.07L71.13 24.75L70.98 24.4L70.86 24.03L70.8 23.65L70.77 23.24L70.77 3.35L70.79 2.97L70.86 2.61L70.96 2.25L71.1 1.91L71.27 1.59L71.48 1.29L71.72 1.01L71.99 0.76L72.28 0.54L72.61 0.36L72.95 0.2L73.32 0.09L73.71 0.02L74.12 0L80.28 0L80.65 0.02L81.02 0.08L81.37 0.19Z" id="d2UbBeBPiy"></path></defs><g><g><g><use xlink:href="#a71f8Pm3D" opacity="1" fill="#ffffff" fill-opacity="1"></use><g><use xlink:href="#a71f8Pm3D" opacity="1" fill-opacity="0" stroke="#000000" stroke-width="1" stroke-opacity="0"></use></g></g><g><use xlink:href="#i2eUrYcQs" opacity="1" fill="#ffffff" fill-opacity="1"></use><g><use xlink:href="#i2eUrYcQs" opacity="1" fill-opacity="0" stroke="#000000" stroke-width="1" stroke-opacity="0"></use></g></g><g><use xlink:href="#e8Xwn8pc2" opacity="1" fill="#ffffff" fill-opacity="1"></use><g><use xlink:href="#e8Xwn8pc2" opacity="1" fill-opacity="0" stroke="#000000" stroke-width="1" stroke-opacity="0"></use></g></g><g><use xlink:href="#e36kgKsjkS" opacity="1" fill="#ffffff" fill-opacity="1"></use><g><use xlink:href="#e36kgKsjkS" opacity="1" fill-opacity="0" stroke="#000000" stroke-width="1" stroke-opacity="0"></use></g></g><g><use xlink:href="#d1J7ePmj2V" opacity="1" fill="#ffffff" fill-opacity="1"></use><g><use xlink:href="#d1J7ePmj2V" opacity="1" fill-opacity="0" stroke="#000000" stroke-width="1" stroke-opacity="0"></use></g></g><g><use xlink:href="#f9fiMe46Wk" opacity="1" fill="#ffffff" fill-opacity="1"></use><g><use xlink:href="#f9fiMe46Wk" opacity="1" fill-opacity="0" stroke="#000000" stroke-width="1" stroke-opacity="0"></use></g></g><g><use xlink:href="#c2GikTQC4" opacity="1" fill="#ffffff" fill-opacity="1"></use><g><use xlink:href="#c2GikTQC4" opacity="1" fill-opacity="0" stroke="#000000" stroke-width="1" stroke-opacity="0"></use></g></g><g><use xlink:href="#f3M5Pdqen9" opacity="1" fill="#ffffff" fill-opacity="1"></use><g><use xlink:href="#f3M5Pdqen9" opacity="1" fill-opacity="0" stroke="#000000" stroke-width="1" stroke-opacity="0"></use></g></g><g><use xlink:href="#b2zmRCiFA" opacity="1" fill="#ffffff" fill-opacity="1"></use><g><use xlink:href="#b2zmRCiFA" opacity="1" fill-opacity="0" stroke="#000000" stroke-width="1" stroke-opacity="0"></use></g></g><g><use xlink:href="#m7HQB88P4n" opacity="1" fill="#ffffff" fill-opacity="1"></use><g><use xlink:href="#m7HQB88P4n" opacity="1" fill-opacity="0" stroke="#000000" stroke-width="1" stroke-opacity="0"></use></g></g><g><use xlink:href="#b43YbXrIQI" opacity="1" fill="#ffffff" fill-opacity="1"></use><g><use xlink:href="#b43YbXrIQI" opacity="1" fill-opacity="0" stroke="#000000" stroke-width="1" stroke-opacity="0"></use></g></g><g><use xlink:href="#a1zY5JrqIy" opacity="1" fill="#ffffff" fill-opacity="1"></use><g><use xlink:href="#a1zY5JrqIy" opacity="1" fill-opacity="0" stroke="#000000" stroke-width="1" stroke-opacity="0"></use></g></g><g><use xlink:href="#aRLjwW0d" opacity="1" fill="#ffffff" fill-opacity="1"></use><g><use xlink:href="#aRLjwW0d" opacity="1" fill-opacity="0" stroke="#000000" stroke-width="1" stroke-opacity="0"></use></g></g><g><use xlink:href="#bakQZUvIW1" opacity="1" fill="#ffffff" fill-opacity="1"></use><g><use xlink:href="#bakQZUvIW1" opacity="1" fill-opacity="0" stroke="#000000" stroke-width="1" stroke-opacity="0"></use></g></g><g><use xlink:href="#c5tMWQgj3z" opacity="1" fill="#ffffff" fill-opacity="1"></use><g><use xlink:href="#c5tMWQgj3z" opacity="1" fill-opacity="0" stroke="#000000" stroke-width="1" stroke-opacity="0"></use></g></g><g><use xlink:href="#adaM8T6Bw" opacity="1" fill="#ffffff" fill-opacity="1"></use><g><use xlink:href="#adaM8T6Bw" opacity="1" fill-opacity="0" stroke="#000000" stroke-width="1" stroke-opacity="0"></use></g></g><g><use xlink:href="#bbvyjY1rB" opacity="1" fill="#ffffff" fill-opacity="1"></use><g><use xlink:href="#bbvyjY1rB" opacity="1" fill-opacity="0" stroke="#000000" stroke-width="1" stroke-opacity="0"></use></g></g><g><use xlink:href="#d2UbBeBPiy" opacity="1" fill="#ffffff" fill-opacity="1"></use><g><use xlink:href="#d2UbBeBPiy" opacity="1" fill-opacity="0" stroke="#000000" stroke-width="1" stroke-opacity="0"></use></g></g></g></g></svg>