<?xml version="1.0" encoding="UTF-8" standalone="no"?>
<!DOCTYPE svg PUBLIC "-//W3C//DTD SVG 1.1//EN" "http://www.w3.org/Graphics/SVG/1.1/DTD/svg11.dtd">
<svg version="1.1" xmlns="http://www.w3.org/2000/svg" xmlns:xlink="http://www.w3.org/1999/xlink" preserveAspectRatio="xMidYMid meet" viewBox="0 0 100 100" width="100" height="100"><defs><path d="M34.67 74.8C34.67 75.12 34.67 75.44 34.67 75.76C34.67 81.84 34.51 87.93 34.51 93.86C34.51 95.46 34.03 96.9 32.91 97.86C31.3 99.3 29.38 99.78 27.3 98.98C25.22 98.02 24.1 96.42 24.1 94.18C24.1 90.17 24.26 86.01 24.26 82C24.26 80.08 24.42 78 24.26 76.08C24.26 74.8 23.94 73.35 23.62 72.07C22.81 67.11 22.01 62.14 21.37 57.34C20.73 52.85 19.93 48.37 19.29 43.88C19.13 42.76 18.97 41.64 18.81 40.52C18.81 40.04 18.65 39.72 18.33 39.4C13.04 33.79 7.76 28.18 2.63 22.42C0.55 20.17 1.19 16.81 3.91 15.69C5.52 14.89 7.44 15.37 8.72 16.81C11.12 19.37 13.52 21.94 15.93 24.66C18.01 26.9 20.09 29.14 22.33 31.55C22.49 31.71 22.65 31.87 22.81 31.87C23.14 31.71 23.62 31.39 23.94 31.23C25.22 30.59 26.66 30.27 28.1 30.1C30.02 29.78 31.95 29.46 34.03 29.3C34.99 29.14 35.95 29.46 36.75 29.62C37.23 29.62 37.39 29.62 37.55 29.3C40.27 23.22 43.16 17.29 45.88 11.2C46.52 9.76 47.64 8.96 49.08 8.64C51.97 8.16 54.69 11.04 53.73 13.93C53.41 15.21 52.77 16.33 52.13 17.61C49.24 23.7 46.52 29.78 43.64 35.87C43.48 36.19 43.48 36.67 43.48 36.99C44.12 41.32 44.76 45.48 45.4 49.81C45.88 52.69 46.36 55.57 46.84 58.46C46.84 58.78 47 59.26 47.32 59.58C49.4 62.14 51.49 64.86 53.73 67.43C54.53 68.55 55.01 69.67 55.01 71.11C55.01 76.56 55.01 82.16 55.01 87.61C55.01 91.45 51.65 93.86 47.96 92.74C45.88 92.09 44.44 90.01 44.44 87.61C44.44 82.96 44.44 78.48 44.44 73.83C44.44 73.19 44.28 72.55 43.8 72.07C42.2 70.15 40.43 68.07 38.83 65.99C38.67 65.83 38.51 65.66 38.35 65.66C36.59 65.34 34.99 65.66 33.39 65.99C33.55 67.11 33.71 68.23 33.87 69.35C34.19 71.11 34.51 73.03 34.67 74.8Z" id="cP51Brm6A"></path><path d="M34.67 74.8C34.67 75.12 34.67 75.44 34.67 75.76C34.67 81.84 34.51 87.93 34.51 93.86C34.51 95.46 34.03 96.9 32.91 97.86C31.3 99.3 29.38 99.78 27.3 98.98C25.22 98.02 24.1 96.42 24.1 94.18C24.1 90.17 24.26 86.01 24.26 82C24.26 80.08 24.42 78 24.26 76.08C24.26 74.8 23.94 73.35 23.62 72.07C22.81 67.11 22.01 62.14 21.37 57.34C20.73 52.85 19.93 48.37 19.29 43.88C19.13 42.76 18.97 41.64 18.81 40.52C18.81 40.04 18.65 39.72 18.33 39.4C13.04 33.79 7.76 28.18 2.63 22.42C0.55 20.17 1.19 16.81 3.91 15.69C5.52 14.89 7.44 15.37 8.72 16.81C11.12 19.37 13.52 21.94 15.93 24.66C18.01 26.9 20.09 29.14 22.33 31.55C22.49 31.71 22.65 31.87 22.81 31.87C23.14 31.71 23.62 31.39 23.94 31.23C25.22 30.59 26.66 30.27 28.1 30.1C30.02 29.78 31.95 29.46 34.03 29.3C34.99 29.14 35.95 29.46 36.75 29.62C37.23 29.62 37.39 29.62 37.55 29.3C40.27 23.22 43.16 17.29 45.88 11.2C46.52 9.76 47.64 8.96 49.08 8.64C51.97 8.16 54.69 11.04 53.73 13.93C53.41 15.21 52.77 16.33 52.13 17.61C49.24 23.7 46.52 29.78 43.64 35.87C43.48 36.19 43.48 36.67 43.48 36.99C44.12 41.32 44.76 45.48 45.4 49.81C45.88 52.69 46.36 55.57 46.84 58.46C46.84 58.78 47 59.26 47.32 59.58C49.4 62.14 51.49 64.86 53.73 67.43C54.53 68.55 55.01 69.67 55.01 71.11C55.01 76.56 55.01 82.16 55.01 87.61C55.01 91.45 51.65 93.86 47.96 92.74C45.88 92.09 44.44 90.01 44.44 87.61C44.44 82.96 44.44 78.48 44.44 73.83C44.44 73.19 44.28 72.55 43.8 72.07C42.2 70.15 40.43 68.07 38.83 65.99C38.67 65.83 38.51 65.66 38.35 65.66C36.59 65.34 34.99 65.66 33.39 65.99C33.55 67.11 33.71 68.23 33.87 69.35C34.19 71.11 34.51 73.03 34.67 74.8Z" id="hvxbE6kse"></path><path d="M58.38 71.27C58.38 68.39 58.05 67.11 56.29 64.7C56.93 63.9 57.57 63.1 58.38 62.3C58.86 61.66 59.5 60.86 59.98 60.22C60.62 59.42 60.94 58.62 61.1 57.66C61.9 52.21 62.7 46.76 63.66 41.32C63.82 40.52 63.66 40.04 63.34 39.24C60.62 33.63 58.05 27.86 55.49 22.26C54.37 19.69 56.13 16.97 58.86 17.13C60.3 17.29 61.1 18.09 61.74 19.21C62.7 21.29 63.66 23.22 64.46 25.3C65.9 28.34 67.18 31.23 68.63 34.27C68.63 34.43 68.79 34.59 68.95 34.75C71.19 33.95 73.43 34.75 75.67 34.91C76.32 35.07 76.96 35.07 77.6 35.23C78.72 35.39 79.84 35.87 80.8 36.67C81.92 35.39 83.04 34.27 84.16 33.15C86.89 30.1 89.77 27.22 92.49 24.18C93.61 23.06 95.06 22.74 96.5 23.22C97.94 23.86 98.74 25.14 98.58 26.58C98.58 27.38 98.26 28.18 97.62 28.82C95.06 31.71 92.33 34.43 89.77 37.31C88.01 39.24 86.09 41.16 84.32 43.08C84.16 43.24 84.16 43.4 84 43.72C83.2 49.01 82.4 54.29 81.6 59.42C80.96 63.74 80.16 68.07 79.52 72.55C79.52 72.87 79.52 73.19 79.52 73.51C79.52 78.48 79.68 83.44 79.68 88.41C79.68 90.33 78.88 91.77 77.12 92.58C74.23 94.02 71.03 91.93 70.87 88.57C70.87 85.53 70.87 82.48 70.71 79.28C70.71 77.36 70.55 75.44 70.71 73.67C70.71 72.07 71.03 70.63 71.19 69.03C71.35 67.75 71.67 66.47 71.83 65.02C71.35 64.86 71.03 64.86 70.55 64.7C69.75 64.54 68.79 64.38 67.99 64.22C67.67 64.06 67.51 64.22 67.18 64.54C65.74 66.31 64.3 68.07 63.02 69.83C62.86 70.15 62.7 70.47 62.7 70.79C62.7 74.8 62.7 78.64 62.7 82.64C62.86 85.21 60.94 87.13 58.38 87.13C58.38 86.81 58.38 86.65 58.38 86.49C58.38 81.36 58.38 76.24 58.38 71.27Z" id="cZyF40J80"></path><path d="M58.38 71.27C58.38 68.39 58.05 67.11 56.29 64.7C56.93 63.9 57.57 63.1 58.38 62.3C58.86 61.66 59.5 60.86 59.98 60.22C60.62 59.42 60.94 58.62 61.1 57.66C61.9 52.21 62.7 46.76 63.66 41.32C63.82 40.52 63.66 40.04 63.34 39.24C60.62 33.63 58.05 27.86 55.49 22.26C54.37 19.69 56.13 16.97 58.86 17.13C60.3 17.29 61.1 18.09 61.74 19.21C62.7 21.29 63.66 23.22 64.46 25.3C65.9 28.34 67.18 31.23 68.63 34.27C68.63 34.43 68.79 34.59 68.95 34.75C71.19 33.95 73.43 34.75 75.67 34.91C76.32 35.07 76.96 35.07 77.6 35.23C78.72 35.39 79.84 35.87 80.8 36.67C81.92 35.39 83.04 34.27 84.16 33.15C86.89 30.1 89.77 27.22 92.49 24.18C93.61 23.06 95.06 22.74 96.5 23.22C97.94 23.86 98.74 25.14 98.58 26.58C98.58 27.38 98.26 28.18 97.62 28.82C95.06 31.71 92.33 34.43 89.77 37.31C88.01 39.24 86.09 41.16 84.32 43.08C84.16 43.24 84.16 43.4 84 43.72C83.2 49.01 82.4 54.29 81.6 59.42C80.96 63.74 80.16 68.07 79.52 72.55C79.52 72.87 79.52 73.19 79.52 73.51C79.52 78.48 79.68 83.44 79.68 88.41C79.68 90.33 78.88 91.77 77.12 92.58C74.23 94.02 71.03 91.93 70.87 88.57C70.87 85.53 70.87 82.48 70.71 79.28C70.71 77.36 70.55 75.44 70.71 73.67C70.71 72.07 71.03 70.63 71.19 69.03C71.35 67.75 71.67 66.47 71.83 65.02C71.35 64.86 71.03 64.86 70.55 64.7C69.75 64.54 68.79 64.38 67.99 64.22C67.67 64.06 67.51 64.22 67.18 64.54C65.74 66.31 64.3 68.07 63.02 69.83C62.86 70.15 62.7 70.47 62.7 70.79C62.7 74.8 62.7 78.64 62.7 82.64C62.86 85.21 60.94 87.13 58.38 87.13C58.38 86.81 58.38 86.65 58.38 86.49C58.38 81.36 58.38 76.24 58.38 71.27Z" id="a33MpntfR2"></path><path d="M33.23 3.68C34.03 4 34.03 4.8 33.39 5.28C32.91 5.6 32.27 6.08 31.79 6.4C32.75 7.04 33.55 7.52 34.35 8.32C39.79 13.13 38.35 22.1 31.62 24.98C24.74 28.02 17.37 22.9 17.53 15.37C17.69 13.13 18.33 11.2 19.61 9.6C19.77 9.28 19.93 8.96 20.09 8.64C21.21 5.44 23.14 2.71 26.18 1.11C26.66 0.79 27.14 0.63 27.78 0.63C28.1 0.63 28.42 0.79 28.58 0.95C28.74 1.11 28.74 1.59 28.74 1.91C28.74 2.23 28.42 2.55 28.26 2.87C28.1 3.19 27.94 3.51 27.78 3.84C29.22 3.35 30.66 3.03 32.11 3.35C32.43 3.35 32.91 3.51 33.23 3.68Z" id="f5SCqADUe4"></path><path d="M33.23 3.68C34.03 4 34.03 4.8 33.39 5.28C32.91 5.6 32.27 6.08 31.79 6.4C32.75 7.04 33.55 7.52 34.35 8.32C39.79 13.13 38.35 22.1 31.62 24.98C24.74 28.02 17.37 22.9 17.53 15.37C17.69 13.13 18.33 11.2 19.61 9.6C19.77 9.28 19.93 8.96 20.09 8.64C21.21 5.44 23.14 2.71 26.18 1.11C26.66 0.79 27.14 0.63 27.78 0.63C28.1 0.63 28.42 0.79 28.58 0.95C28.74 1.11 28.74 1.59 28.74 1.91C28.74 2.23 28.42 2.55 28.26 2.87C28.1 3.19 27.94 3.51 27.78 3.84C29.22 3.35 30.66 3.03 32.11 3.35C32.43 3.35 32.91 3.51 33.23 3.68Z" id="e9nWrlLkT"></path><path d="M71.83 13.77C71.83 13.29 72.15 13.13 72.63 12.97C73.91 12.65 75.03 12.81 76.32 13.13C76.48 13.13 76.64 13.13 76.8 13.29C76.48 12.81 76.32 12.32 76.16 11.84C75.99 11.52 75.83 11.2 76.16 10.72C76.48 10.4 76.8 10.4 77.12 10.56C78.4 10.88 79.52 11.68 80.32 12.65C81.6 14.09 82.56 15.53 83.2 17.45C83.2 17.61 83.36 17.77 83.52 17.93C85.61 20.49 85.93 24.34 84.16 27.22C82.4 30.27 79.04 31.87 75.67 31.39C72.15 30.91 69.27 28.18 68.63 24.66C67.99 20.97 69.75 17.45 72.95 15.69C73.27 15.69 73.43 15.69 73.59 15.53C73.11 15.21 72.63 14.89 72.31 14.57C72.15 14.41 71.83 14.09 71.83 13.77Z" id="oTNlcUjym"></path><path d="M71.83 13.77C71.83 13.29 72.15 13.13 72.63 12.97C73.91 12.65 75.03 12.81 76.32 13.13C76.48 13.13 76.64 13.13 76.8 13.29C76.48 12.81 76.32 12.32 76.16 11.84C75.99 11.52 75.83 11.2 76.16 10.72C76.48 10.4 76.8 10.4 77.12 10.56C78.4 10.88 79.52 11.68 80.32 12.65C81.6 14.09 82.56 15.53 83.2 17.45C83.2 17.61 83.36 17.77 83.52 17.93C85.61 20.49 85.93 24.34 84.16 27.22C82.4 30.27 79.04 31.87 75.67 31.39C72.15 30.91 69.27 28.18 68.63 24.66C67.99 20.97 69.75 17.45 72.95 15.69C73.27 15.69 73.43 15.69 73.59 15.53C73.11 15.21 72.63 14.89 72.31 14.57C72.15 14.41 71.83 14.09 71.83 13.77Z" id="b7k26FINpX"></path></defs><g><g><g><use xlink:href="#cP51Brm6A" opacity="1" fill="#ffffff" fill-opacity="1"></use><g><use xlink:href="#cP51Brm6A" opacity="1" fill-opacity="0" stroke="#000000" stroke-width="1" stroke-opacity="0"></use></g></g><g><use xlink:href="#hvxbE6kse" opacity="1" fill="#000000" fill-opacity="0"></use><g><use xlink:href="#hvxbE6kse" opacity="1" fill-opacity="0" stroke="#000000" stroke-width="1" stroke-opacity="0"></use></g></g><g><use xlink:href="#cZyF40J80" opacity="1" fill="#ffffff" fill-opacity="1"></use><g><use xlink:href="#cZyF40J80" opacity="1" fill-opacity="0" stroke="#000000" stroke-width="1" stroke-opacity="0"></use></g></g><g><use xlink:href="#a33MpntfR2" opacity="1" fill="#000000" fill-opacity="0"></use><g><use xlink:href="#a33MpntfR2" opacity="1" fill-opacity="0" stroke="#000000" stroke-width="1" stroke-opacity="0"></use></g></g><g><use xlink:href="#f5SCqADUe4" opacity="1" fill="#ffffff" fill-opacity="1"></use><g><use xlink:href="#f5SCqADUe4" opacity="1" fill-opacity="0" stroke="#000000" stroke-width="1" stroke-opacity="0"></use></g></g><g><use xlink:href="#e9nWrlLkT" opacity="1" fill="#000000" fill-opacity="0"></use><g><use xlink:href="#e9nWrlLkT" opacity="1" fill-opacity="0" stroke="#000000" stroke-width="1" stroke-opacity="0"></use></g></g><g><use xlink:href="#oTNlcUjym" opacity="1" fill="#ffffff" fill-opacity="1"></use><g><use xlink:href="#oTNlcUjym" opacity="1" fill-opacity="0" stroke="#000000" stroke-width="1" stroke-opacity="0"></use></g></g><g><use xlink:href="#b7k26FINpX" opacity="1" fill="#ffffff" fill-opacity="0"></use><g><use xlink:href="#b7k26FINpX" opacity="1" fill-opacity="0" stroke="#ffffff" stroke-width="1" stroke-opacity="0"></use></g></g></g></g></svg>