<?xml version="1.0" encoding="UTF-8" standalone="no"?>
<!DOCTYPE svg PUBLIC "-//W3C//DTD SVG 1.1//EN" "http://www.w3.org/Graphics/SVG/1.1/DTD/svg11.dtd">
<svg version="1.1" xmlns="http://www.w3.org/2000/svg" xmlns:xlink="http://www.w3.org/1999/xlink" preserveAspectRatio="xMidYMid meet" viewBox="0 0 100 100" width="100" height="100"><defs><path d="M62.61 66.14C62.61 69.32 62.61 72.27 62.61 75.45C62.61 79.55 62.84 83.64 62.61 87.73C62.39 94.55 56.48 100 49.89 100C43.07 99.77 37.39 94.32 37.39 87.27C37.39 80.23 37.39 73.41 37.39 67.05C34.89 65.23 32.16 64.09 30.8 62.27C29.43 60.23 29.43 57.27 29.43 54.77C29.2 52.05 29.43 49.09 29.43 46.36C29.66 36.14 34.89 29.77 45.11 28.18C52.39 27.05 59.2 27.73 65.11 32.5C68.98 35.45 70.57 39.77 70.8 44.55C71.02 48.41 70.8 52.27 70.8 56.36C70.57 62.27 68.75 64.55 62.61 66.14" id="b1Gv6BxnQn"></path><path d="M62.61 66.14C62.61 69.32 62.61 72.27 62.61 75.45C62.61 79.55 62.84 83.64 62.61 87.73C62.39 94.55 56.48 100 49.89 100C43.07 99.77 37.39 94.32 37.39 87.27C37.39 80.23 37.39 73.41 37.39 67.05C34.89 65.23 32.16 64.09 30.8 62.27C29.43 60.23 29.43 57.27 29.43 54.77C29.2 52.05 29.43 49.09 29.43 46.36C29.66 36.14 34.89 29.77 45.11 28.18C52.39 27.05 59.2 27.73 65.11 32.5C68.98 35.45 70.57 39.77 70.8 44.55C71.02 48.41 70.8 52.27 70.8 56.36C70.57 62.27 68.75 64.55 62.61 66.14" id="bf7hX5kp"></path><path d="M62.39 12.5C62.39 20.45 56.7 24.77 50.11 25.23C43.3 25.68 37.39 19.55 37.16 12.73C37.16 5.91 43.07 -0.23 49.89 0C56.93 0 62.39 5.68 62.39 12.5" id="bA7IxxLca"></path><path d="M62.39 12.5C62.39 20.45 56.7 24.77 50.11 25.23C43.3 25.68 37.39 19.55 37.16 12.73C37.16 5.91 43.07 -0.23 49.89 0C56.93 0 62.39 5.68 62.39 12.5" id="cdx5JOh6n"></path></defs><g><g><g><use xlink:href="#b1Gv6BxnQn" opacity="1" fill="#ffffff" fill-opacity="1"></use><g><use xlink:href="#b1Gv6BxnQn" opacity="1" fill-opacity="0" stroke="#000000" stroke-width="1" stroke-opacity="0"></use></g></g><g><use xlink:href="#bf7hX5kp" opacity="1" fill="#ffffff" fill-opacity="1"></use><g><use xlink:href="#bf7hX5kp" opacity="1" fill-opacity="0" stroke="#000000" stroke-width="1" stroke-opacity="0"></use></g></g><g><use xlink:href="#bA7IxxLca" opacity="1" fill="#ffffff" fill-opacity="1"></use><g><use xlink:href="#bA7IxxLca" opacity="1" fill-opacity="0" stroke="#000000" stroke-width="1" stroke-opacity="0"></use></g></g><g><use xlink:href="#cdx5JOh6n" opacity="1" fill="#ffffff" fill-opacity="1"></use><g><use xlink:href="#cdx5JOh6n" opacity="1" fill-opacity="0" stroke="#000000" stroke-width="1" stroke-opacity="0"></use></g></g></g></g></svg>