<?xml version="1.0" encoding="UTF-8" standalone="no"?>
<!DOCTYPE svg PUBLIC "-//W3C//DTD SVG 1.1//EN" "http://www.w3.org/Graphics/SVG/1.1/DTD/svg11.dtd">
<svg version="1.1" xmlns="http://www.w3.org/2000/svg" xmlns:xlink="http://www.w3.org/1999/xlink" preserveAspectRatio="xMidYMid meet" viewBox="0 0 100 100" width="100" height="100"><defs><path d="M40.41 8.13L54.22 8.13C55.05 8.13 55.51 8.13 55.6 8.13C57.13 8.13 58.51 8.13 60.05 8.13C62.04 8.13 63.57 7.06 64.19 5.21C64.8 3.53 64.34 1.99 63.11 0.77C63.06 0.72 62.81 0.46 62.35 0L37.65 0C37.29 0.46 37.08 0.72 37.04 0.77C35.51 2.45 35.51 4.14 35.97 5.21C36.27 6.44 37.5 8.13 40.41 8.13" id="b2wCisbL1y"></path><path d="M59.59 91.87C47.9 91.87 41.41 91.87 40.11 91.87C38.11 91.87 36.58 92.94 35.97 94.79C35.35 96.47 35.97 98.31 37.35 99.54C37.39 99.57 37.59 99.72 37.96 100L62.19 100C62.56 99.63 62.77 99.43 62.81 99.39C64.65 97.55 64.49 95.86 64.19 94.79C63.73 93.4 62.5 91.87 59.59 91.87" id="a4cKlEdC59"></path><path d="M42.71 27.15C43.17 26.84 43.79 26.38 44.25 25.92C44.34 25.85 44.8 25.49 45.63 24.85C45.63 54.94 45.63 71.66 45.63 75C44.71 74.23 43.79 73.47 42.71 72.7C40.72 71.17 38.11 71.47 36.58 73.31C35.05 75.15 35.51 77.76 37.35 79.29C40.57 81.9 43.94 84.51 47.16 87.12C48.08 87.88 49 88.19 49.92 88.19C50.84 88.19 51.76 87.88 52.68 87.12C56.06 84.51 59.43 81.75 62.65 79.14C64.49 77.61 64.8 75 63.42 73.16C61.89 71.17 59.28 70.86 57.29 72.39C56.67 72.85 56.21 73.31 55.6 73.77C55.52 73.84 55.11 74.2 54.37 74.85C54.37 44.85 54.37 28.18 54.37 24.85C55.29 25.61 56.21 26.38 57.13 26.99C58.36 27.91 60.05 28.22 61.43 27.76C62.81 27.3 63.73 26.07 64.19 24.69C64.49 23.77 64.49 21.78 62.5 20.09C62.45 20.08 62.09 19.95 62.04 19.94C58.97 17.48 55.9 15.03 52.84 12.58C51 11.2 49 11.2 47.16 12.58C43.94 15.18 40.57 17.79 37.35 20.4C35.35 21.93 35.05 24.54 36.58 26.38C38.11 28.37 40.72 28.68 42.71 27.15" id="a11j1VYGjT"></path></defs><g><g><g><use xlink:href="#b2wCisbL1y" opacity="1" fill="#ffffff" fill-opacity="1"></use><g><use xlink:href="#b2wCisbL1y" opacity="1" fill-opacity="0" stroke="#000000" stroke-width="1" stroke-opacity="0"></use></g></g><g><use xlink:href="#a4cKlEdC59" opacity="1" fill="#ffffff" fill-opacity="1"></use><g><use xlink:href="#a4cKlEdC59" opacity="1" fill-opacity="0" stroke="#000000" stroke-width="1" stroke-opacity="0"></use></g></g><g><use xlink:href="#a11j1VYGjT" opacity="1" fill="#ffffff" fill-opacity="1"></use><g><use xlink:href="#a11j1VYGjT" opacity="1" fill-opacity="0" stroke="#000000" stroke-width="1" stroke-opacity="0"></use></g></g></g></g></svg>