<?xml version="1.0" encoding="UTF-8" standalone="no"?>
<!DOCTYPE svg PUBLIC "-//W3C//DTD SVG 1.1//EN" "http://www.w3.org/Graphics/SVG/1.1/DTD/svg11.dtd">
<svg version="1.1" xmlns="http://www.w3.org/2000/svg" xmlns:xlink="http://www.w3.org/1999/xlink" preserveAspectRatio="xMidYMid meet" viewBox="0 0 100 100" width="100" height="100"><defs><path d="M46.27 14.85L46.24 14.86L46.21 14.86L46.18 14.87L46.14 14.87L46.08 14.89L46.05 14.89L45.87 14.95L45.84 14.97L45.78 14.99L45.75 15.01L45.72 15.02L45.69 15.04L45.66 15.05L45.57 15.11L45.55 15.12L45.46 15.18L45.44 15.21L45.38 15.25L45.33 15.3L45.3 15.32L45.28 15.35L45.25 15.37L45.23 15.4L45.2 15.42L45.16 15.48L45.13 15.5L45.07 15.59L45.04 15.61L44.92 15.79L44.91 15.82L44.87 15.88L44.86 15.91L44.84 15.95L44.83 15.98L44.81 16.01L44.8 16.04L44.79 16.08L44.77 16.11L44.76 16.14L44.75 16.18L44.74 16.21L44.73 16.25L44.72 16.28L44.72 16.32L44.71 16.35L44.7 16.39L44.7 16.46L44.69 16.5L44.69 16.61L43.84 27.15L43.84 27.19L43.83 27.23L43.83 27.3L43.82 27.34L43.82 27.44L43.83 27.48L43.83 27.58L43.84 27.62L43.85 27.65L43.85 27.68L43.86 27.72L43.89 27.81L43.9 27.85L43.93 27.94L43.95 27.97L43.96 28L43.98 28.03L43.99 28.06L44.05 28.15L44.07 28.17L44.08 28.2L44.11 28.23L44.13 28.26L44.15 28.28L44.19 28.34L44.22 28.36L44.24 28.39L44.27 28.41L44.29 28.44L44.32 28.46L44.34 28.49L44.37 28.51L44.44 28.58L44.5 28.62L44.52 28.64L44.55 28.65L44.57 28.67L44.63 28.71L44.65 28.72L44.68 28.74L44.71 28.75L44.74 28.77L44.77 28.78L44.79 28.79L44.82 28.81L45.03 28.88L45.06 28.88L45.1 28.89L45.13 28.9L45.16 28.9L45.2 28.91L45.26 28.91L45.3 28.92L54.76 28.92L54.8 28.91L54.86 28.91L54.89 28.9L54.92 28.9L54.98 28.88L55.01 28.88L55.05 28.87L55.23 28.81L55.26 28.79L55.32 28.77L55.35 28.75L55.38 28.74L55.41 28.72L55.44 28.71L55.47 28.69L55.49 28.67L55.52 28.65L55.55 28.64L55.61 28.6L55.63 28.58L55.66 28.56L55.71 28.51L55.74 28.49L55.89 28.34L55.93 28.28L55.95 28.26L56.01 28.17L56.03 28.15L56.04 28.12L56.06 28.09L56.07 28.06L56.09 28.03L56.13 27.91L56.15 27.88L56.16 27.85L56.16 27.81L56.19 27.72L56.19 27.68L56.21 27.62L56.21 27.58L56.22 27.55L56.22 27.48L56.23 27.44L56.23 27.37L56.24 27.34L56.24 27.15L55.4 16.61L55.4 16.57L55.39 16.54L55.39 16.46L55.38 16.42L55.38 16.39L55.37 16.35L55.37 16.32L55.36 16.28L55.35 16.25L55.34 16.21L55.33 16.18L55.32 16.14L55.3 16.08L55.29 16.04L55.27 16.01L55.26 15.98L55.24 15.95L55.23 15.91L55.19 15.85L55.18 15.82L55.04 15.61L55.02 15.59L55 15.56L54.97 15.53L54.95 15.5L54.9 15.45L54.88 15.42L54.81 15.35L54.77 15.32L54.74 15.3L54.71 15.27L54.62 15.21L54.58 15.18L54.49 15.12L54.46 15.11L54.4 15.07L54.36 15.05L54.33 15.04L54.3 15.02L54.27 15.01L54.24 14.99L54.21 14.98L54.17 14.97L54.14 14.95L54.02 14.91L53.98 14.9L53.95 14.89L53.92 14.89L53.86 14.87L53.83 14.87L53.79 14.86L53.76 14.86L53.73 14.85L53.7 14.85L53.67 14.84L72.33 14.84L72.38 14.85L72.43 14.85L72.48 14.86L72.54 14.86L72.69 14.89L72.75 14.9L72.85 14.92L72.9 14.94L72.96 14.95L73.01 14.97L73.06 14.98L73.11 15L73.17 15.02L73.32 15.08L73.37 15.11L73.43 15.13L73.48 15.16L73.53 15.18L73.78 15.33L73.83 15.37L73.87 15.4L74.02 15.52L74.06 15.56L74.11 15.6L74.15 15.64L74.4 15.84L74.44 15.88L74.54 15.96L74.58 16L74.63 16.04L74.67 16.08L74.72 16.12L74.76 16.16L74.8 16.2L74.84 16.25L74.88 16.29L74.92 16.33L74.96 16.37L75 16.42L75.04 16.46L75.07 16.51L75.11 16.55L75.14 16.59L75.18 16.64L75.21 16.68L75.25 16.73L75.28 16.78L75.31 16.82L75.37 16.92L75.4 16.96L75.42 17.01L75.48 17.11L75.5 17.16L75.53 17.2L75.63 17.45L98.57 74.79L98.92 75.64L98.98 75.8L99.1 76.14L99.16 76.3L99.22 76.47L99.32 76.79L99.37 76.96L99.47 77.28L99.51 77.45L99.56 77.61L99.64 77.93L99.67 78.09L99.71 78.25L99.77 78.57L99.81 78.72L99.83 78.88L99.86 79.04L99.89 79.19L99.93 79.51L99.95 79.66L99.97 79.82L99.99 79.97L100.01 80.13L100.02 80.28L100.04 80.43L100.05 80.59L100.07 80.89L100.08 81.05L100.08 81.59L100.06 81.97L100.04 82.15L100.03 82.32L100.01 82.49L99.98 82.65L99.96 82.81L99.93 82.97L99.89 83.12L99.86 83.26L99.82 83.4L99.77 83.53L99.73 83.66L99.68 83.79L99.63 83.91L99.51 84.13L99.39 84.33L99.25 84.51L99.17 84.6L99.1 84.68L99.02 84.75L98.93 84.82L98.75 84.94L98.57 85.04L98.47 85.08L98.36 85.12L98.26 85.15L98.15 85.18L98.04 85.2L97.92 85.22L97.68 85.24L59.01 85.24L59.04 85.23L59.07 85.23L59.11 85.22L59.14 85.22L59.17 85.21L59.2 85.21L59.41 85.14L59.45 85.13L59.51 85.11L59.53 85.09L59.56 85.08L59.59 85.06L59.62 85.05L59.68 85.01L59.71 85L59.77 84.96L59.79 84.94L59.88 84.88L59.93 84.83L59.96 84.81L60.11 84.66L60.13 84.63L60.15 84.61L60.19 84.55L60.21 84.53L60.22 84.5L60.26 84.44L60.27 84.41L60.29 84.38L60.3 84.35L60.32 84.32L60.39 84.11L60.4 84.07L60.4 84.04L60.41 84.01L60.42 83.97L60.42 83.94L60.43 83.91L60.43 83.87L60.44 83.84L60.44 83.77L60.45 83.73L60.45 83.55L60.46 83.51L60.46 83.47L59.36 69.39L59.36 69.32L59.35 69.28L59.35 69.21L59.34 69.17L59.34 69.14L59.32 69.06L59.31 69.03L59.31 68.99L59.3 68.96L59.28 68.93L59.27 68.89L59.25 68.83L59.24 68.79L59.22 68.76L59.21 68.73L59.17 68.67L59.16 68.63L59.08 68.51L59.07 68.48L59.05 68.45L59.02 68.43L58.94 68.31L58.91 68.29L58.87 68.23L58.84 68.21L58.82 68.18L58.72 68.08L58.69 68.06L58.67 68.03L58.58 67.97L58.56 67.95L58.41 67.85L58.38 67.84L58.32 67.8L58.26 67.78L58.23 67.76L58.17 67.74L58.14 67.72L58.1 67.71L58.04 67.69L58 67.68L57.97 67.68L57.94 67.67L57.9 67.66L57.87 67.65L57.83 67.65L57.8 67.64L57.76 67.64L57.73 67.63L57.62 67.63L57.58 67.62L42.5 67.62L42.47 67.63L42.36 67.63L42.32 67.64L42.29 67.64L42.25 67.65L42.22 67.65L42.18 67.66L42.15 67.67L42.11 67.68L42.08 67.68L42.05 67.69L42.01 67.7L41.95 67.72L41.92 67.74L41.88 67.75L41.85 67.76L41.82 67.78L41.76 67.8L41.7 67.84L41.67 67.85L41.58 67.91L41.56 67.93L41.47 67.99L41.45 68.01L41.42 68.03L41.37 68.08L41.34 68.1L41.32 68.13L41.29 68.15L41.27 68.18L41.19 68.26L41.17 68.29L41.12 68.34L41.06 68.43L41.04 68.45L40.94 68.6L40.93 68.63L40.91 68.67L40.89 68.7L40.88 68.73L40.86 68.76L40.85 68.79L40.84 68.83L40.82 68.86L40.81 68.89L40.8 68.93L40.78 68.99L40.77 69.03L40.76 69.06L40.75 69.1L40.75 69.14L40.74 69.17L40.74 69.21L40.73 69.24L40.73 69.39L39.63 83.47L39.62 83.51L39.62 83.55L39.61 83.59L39.61 83.84L39.62 83.87L39.62 83.94L39.63 83.97L39.64 84.01L39.64 84.04L39.65 84.07L39.66 84.11L39.69 84.2L39.71 84.23L39.73 84.29L39.75 84.32L39.76 84.35L39.78 84.38L39.79 84.41L39.87 84.53L39.89 84.55L39.93 84.61L39.98 84.66L40 84.69L40.03 84.71L40.05 84.74L40.08 84.76L40.1 84.79L40.13 84.81L40.2 84.88L40.23 84.9L40.25 84.92L40.31 84.96L40.33 84.98L40.36 85L40.39 85.01L40.41 85.03L40.44 85.05L40.47 85.06L40.49 85.08L40.52 85.09L40.55 85.11L40.64 85.14L40.66 85.15L40.75 85.18L40.79 85.19L40.85 85.21L40.88 85.21L40.91 85.22L40.95 85.22L40.98 85.23L41.01 85.23L41.05 85.24L2.4 85.24L2.16 85.22L1.94 85.18L1.72 85.12L1.52 85.04L1.42 84.99L1.33 84.94L1.15 84.82L0.99 84.68L0.91 84.6L0.7 84.33L0.63 84.23L0.57 84.13L0.51 84.02L0.46 83.91L0.4 83.79L0.36 83.66L0.31 83.53L0.27 83.4L0.19 83.12L0.16 82.97L0.1 82.65L0.08 82.49L0.04 82.15L0.03 81.97L0.01 81.78L0.01 81.59L0 81.4L0 80.89L0.02 80.59L0.02 80.43L0.03 80.28L0.05 80.13L0.06 79.97L0.07 79.82L0.09 79.66L0.11 79.51L0.15 79.19L0.18 79.03L0.2 78.88L0.32 78.24L0.36 78.08L0.39 77.92L0.43 77.75L0.51 77.43L0.55 77.26L0.59 77.1L0.64 76.93L0.69 76.77L0.73 76.6L0.88 76.09L0.94 75.92L0.99 75.75L1.11 75.41L1.17 75.23L1.23 75.06L1.35 74.7L24.28 17.37L24.31 17.32L24.33 17.27L24.39 17.17L24.41 17.12L24.5 16.97L24.53 16.93L24.55 16.88L24.61 16.78L24.64 16.74L24.68 16.69L24.71 16.65L24.77 16.55L24.81 16.51L24.84 16.47L24.87 16.42L24.91 16.38L24.94 16.33L24.98 16.29L25.02 16.25L25.06 16.2L25.09 16.16L25.13 16.12L25.17 16.08L25.21 16.04L25.38 15.87L25.48 15.79L25.52 15.75L25.57 15.71L25.62 15.68L25.82 15.52L25.87 15.49L25.92 15.45L26.27 15.24L26.33 15.21L26.38 15.19L26.43 15.16L26.48 15.14L26.53 15.11L26.58 15.09L26.64 15.07L26.84 14.99L26.9 14.98L26.95 14.96L27 14.95L27.06 14.93L27.16 14.91L27.22 14.9L27.32 14.88L27.38 14.87L27.43 14.86L27.49 14.86L27.54 14.85L27.6 14.85L27.66 14.84L46.33 14.84L46.3 14.85L46.27 14.85ZM44.63 35.93L44.41 35.97L44.31 35.99L44.11 36.07L44.02 36.11L43.93 36.16L43.75 36.28L43.59 36.42L43.52 36.5L43.44 36.59L43.37 36.67L43.25 36.85L43.2 36.95L43.15 37.04L43.1 37.14L43.07 37.25L43.04 37.35L43.02 37.46L43.01 37.57L43 37.69L41.74 55.31L41.74 55.48L41.72 55.58L41.72 55.77L41.73 55.86L41.75 55.96L41.77 56.05L41.81 56.14L41.85 56.22L41.95 56.38L42.02 56.45L42.08 56.52L42.16 56.58L42.24 56.63L42.32 56.69L42.4 56.74L42.49 56.78L42.58 56.83L42.67 56.86L42.76 56.9L42.86 56.93L42.95 56.95L43.05 56.97L43.14 56.99L43.24 57L56.86 57L56.97 56.99L57.17 56.95L57.26 56.93L57.35 56.9L57.44 56.86L57.53 56.83L57.61 56.78L57.69 56.74L57.77 56.69L57.85 56.63L57.93 56.58L57.98 56.53L58.02 56.48L58.07 56.43L58.11 56.37L58.15 56.29L58.18 56.22L58.22 56.13L58.25 56.04L58.29 55.84L58.32 55.73L58.33 55.61L58.35 55.48L58.35 55.31L56.91 37.69L56.91 37.57L56.9 37.46L56.88 37.35L56.85 37.25L56.81 37.14L56.77 37.04L56.72 36.95L56.67 36.85L56.61 36.76L56.54 36.67L56.47 36.59L56.4 36.5L56.32 36.42L56.16 36.28L56.08 36.22L55.99 36.16L55.9 36.11L55.8 36.07L55.71 36.03L55.61 35.99L55.5 35.97L55.4 35.95L55.29 35.93L55.17 35.92L44.74 35.92L44.63 35.93Z" id="i1AwUllcuo"></path><path d="M46.27 14.85L46.24 14.86L46.21 14.86L46.18 14.87L46.14 14.87L46.08 14.89L46.05 14.89L45.87 14.95L45.84 14.97L45.78 14.99L45.75 15.01L45.72 15.02L45.69 15.04L45.66 15.05L45.57 15.11L45.55 15.12L45.46 15.18L45.44 15.21L45.38 15.25L45.33 15.3L45.3 15.32L45.28 15.35L45.25 15.37L45.23 15.4L45.2 15.42L45.16 15.48L45.13 15.5L45.07 15.59L45.04 15.61L44.92 15.79L44.91 15.82L44.87 15.88L44.86 15.91L44.84 15.95L44.83 15.98L44.81 16.01L44.8 16.04L44.79 16.08L44.77 16.11L44.76 16.14L44.75 16.18L44.74 16.21L44.73 16.25L44.72 16.28L44.72 16.32L44.71 16.35L44.7 16.39L44.7 16.46L44.69 16.5L44.69 16.61L43.84 27.15L43.84 27.19L43.83 27.23L43.83 27.3L43.82 27.34L43.82 27.44L43.83 27.48L43.83 27.58L43.84 27.62L43.85 27.65L43.85 27.68L43.86 27.72L43.89 27.81L43.9 27.85L43.93 27.94L43.95 27.97L43.96 28L43.98 28.03L43.99 28.06L44.05 28.15L44.07 28.17L44.08 28.2L44.11 28.23L44.13 28.26L44.15 28.28L44.19 28.34L44.22 28.36L44.24 28.39L44.27 28.41L44.29 28.44L44.32 28.46L44.34 28.49L44.37 28.51L44.44 28.58L44.5 28.62L44.52 28.64L44.55 28.65L44.57 28.67L44.63 28.71L44.65 28.72L44.68 28.74L44.71 28.75L44.74 28.77L44.77 28.78L44.79 28.79L44.82 28.81L45.03 28.88L45.06 28.88L45.1 28.89L45.13 28.9L45.16 28.9L45.2 28.91L45.26 28.91L45.3 28.92L54.76 28.92L54.8 28.91L54.86 28.91L54.89 28.9L54.92 28.9L54.98 28.88L55.01 28.88L55.05 28.87L55.23 28.81L55.26 28.79L55.32 28.77L55.35 28.75L55.38 28.74L55.41 28.72L55.44 28.71L55.47 28.69L55.49 28.67L55.52 28.65L55.55 28.64L55.61 28.6L55.63 28.58L55.66 28.56L55.71 28.51L55.74 28.49L55.89 28.34L55.93 28.28L55.95 28.26L56.01 28.17L56.03 28.15L56.04 28.12L56.06 28.09L56.07 28.06L56.09 28.03L56.13 27.91L56.15 27.88L56.16 27.85L56.16 27.81L56.19 27.72L56.19 27.68L56.21 27.62L56.21 27.58L56.22 27.55L56.22 27.48L56.23 27.44L56.23 27.37L56.24 27.34L56.24 27.15L55.4 16.61L55.4 16.57L55.39 16.54L55.39 16.46L55.38 16.42L55.38 16.39L55.37 16.35L55.37 16.32L55.36 16.28L55.35 16.25L55.34 16.21L55.33 16.18L55.32 16.14L55.3 16.08L55.29 16.04L55.27 16.01L55.26 15.98L55.24 15.95L55.23 15.91L55.19 15.85L55.18 15.82L55.04 15.61L55.02 15.59L55 15.56L54.97 15.53L54.95 15.5L54.9 15.45L54.88 15.42L54.81 15.35L54.77 15.32L54.74 15.3L54.71 15.27L54.62 15.21L54.58 15.18L54.49 15.12L54.46 15.11L54.4 15.07L54.36 15.05L54.33 15.04L54.3 15.02L54.27 15.01L54.24 14.99L54.21 14.98L54.17 14.97L54.14 14.95L54.02 14.91L53.98 14.9L53.95 14.89L53.92 14.89L53.86 14.87L53.83 14.87L53.79 14.86L53.76 14.86L53.73 14.85L53.7 14.85L53.67 14.84L72.33 14.84L72.38 14.85L72.43 14.85L72.48 14.86L72.54 14.86L72.69 14.89L72.75 14.9L72.85 14.92L72.9 14.94L72.96 14.95L73.01 14.97L73.06 14.98L73.11 15L73.17 15.02L73.32 15.08L73.37 15.11L73.43 15.13L73.48 15.16L73.53 15.18L73.78 15.33L73.83 15.37L73.87 15.4L74.02 15.52L74.06 15.56L74.11 15.6L74.15 15.64L74.4 15.84L74.44 15.88L74.54 15.96L74.58 16L74.63 16.04L74.67 16.08L74.72 16.12L74.76 16.16L74.8 16.2L74.84 16.25L74.88 16.29L74.92 16.33L74.96 16.37L75 16.42L75.04 16.46L75.07 16.51L75.11 16.55L75.14 16.59L75.18 16.64L75.21 16.68L75.25 16.73L75.28 16.78L75.31 16.82L75.37 16.92L75.4 16.96L75.42 17.01L75.48 17.11L75.5 17.16L75.53 17.2L75.63 17.45L98.57 74.79L98.92 75.64L98.98 75.8L99.1 76.14L99.16 76.3L99.22 76.47L99.32 76.79L99.37 76.96L99.47 77.28L99.51 77.45L99.56 77.61L99.64 77.93L99.67 78.09L99.71 78.25L99.77 78.57L99.81 78.72L99.83 78.88L99.86 79.04L99.89 79.19L99.93 79.51L99.95 79.66L99.97 79.82L99.99 79.97L100.01 80.13L100.02 80.28L100.04 80.43L100.05 80.59L100.07 80.89L100.08 81.05L100.08 81.59L100.06 81.97L100.04 82.15L100.03 82.32L100.01 82.49L99.98 82.65L99.96 82.81L99.93 82.97L99.89 83.12L99.86 83.26L99.82 83.4L99.77 83.53L99.73 83.66L99.68 83.79L99.63 83.91L99.51 84.13L99.39 84.33L99.25 84.51L99.17 84.6L99.1 84.68L99.02 84.75L98.93 84.82L98.75 84.94L98.57 85.04L98.47 85.08L98.36 85.12L98.26 85.15L98.15 85.18L98.04 85.2L97.92 85.22L97.68 85.24L59.01 85.24L59.04 85.23L59.07 85.23L59.11 85.22L59.14 85.22L59.17 85.21L59.2 85.21L59.41 85.14L59.45 85.13L59.51 85.11L59.53 85.09L59.56 85.08L59.59 85.06L59.62 85.05L59.68 85.01L59.71 85L59.77 84.96L59.79 84.94L59.88 84.88L59.93 84.83L59.96 84.81L60.11 84.66L60.13 84.63L60.15 84.61L60.19 84.55L60.21 84.53L60.22 84.5L60.26 84.44L60.27 84.41L60.29 84.38L60.3 84.35L60.32 84.32L60.39 84.11L60.4 84.07L60.4 84.04L60.41 84.01L60.42 83.97L60.42 83.94L60.43 83.91L60.43 83.87L60.44 83.84L60.44 83.77L60.45 83.73L60.45 83.55L60.46 83.51L60.46 83.47L59.36 69.39L59.36 69.32L59.35 69.28L59.35 69.21L59.34 69.17L59.34 69.14L59.32 69.06L59.31 69.03L59.31 68.99L59.3 68.96L59.28 68.93L59.27 68.89L59.25 68.83L59.24 68.79L59.22 68.76L59.21 68.73L59.17 68.67L59.16 68.63L59.08 68.51L59.07 68.48L59.05 68.45L59.02 68.43L58.94 68.31L58.91 68.29L58.87 68.23L58.84 68.21L58.82 68.18L58.72 68.08L58.69 68.06L58.67 68.03L58.58 67.97L58.56 67.95L58.41 67.85L58.38 67.84L58.32 67.8L58.26 67.78L58.23 67.76L58.17 67.74L58.14 67.72L58.1 67.71L58.04 67.69L58 67.68L57.97 67.68L57.94 67.67L57.9 67.66L57.87 67.65L57.83 67.65L57.8 67.64L57.76 67.64L57.73 67.63L57.62 67.63L57.58 67.62L42.5 67.62L42.47 67.63L42.36 67.63L42.32 67.64L42.29 67.64L42.25 67.65L42.22 67.65L42.18 67.66L42.15 67.67L42.11 67.68L42.08 67.68L42.05 67.69L42.01 67.7L41.95 67.72L41.92 67.74L41.88 67.75L41.85 67.76L41.82 67.78L41.76 67.8L41.7 67.84L41.67 67.85L41.58 67.91L41.56 67.93L41.47 67.99L41.45 68.01L41.42 68.03L41.37 68.08L41.34 68.1L41.32 68.13L41.29 68.15L41.27 68.18L41.19 68.26L41.17 68.29L41.12 68.34L41.06 68.43L41.04 68.45L40.94 68.6L40.93 68.63L40.91 68.67L40.89 68.7L40.88 68.73L40.86 68.76L40.85 68.79L40.84 68.83L40.82 68.86L40.81 68.89L40.8 68.93L40.78 68.99L40.77 69.03L40.76 69.06L40.75 69.1L40.75 69.14L40.74 69.17L40.74 69.21L40.73 69.24L40.73 69.39L39.63 83.47L39.62 83.51L39.62 83.55L39.61 83.59L39.61 83.84L39.62 83.87L39.62 83.94L39.63 83.97L39.64 84.01L39.64 84.04L39.65 84.07L39.66 84.11L39.69 84.2L39.71 84.23L39.73 84.29L39.75 84.32L39.76 84.35L39.78 84.38L39.79 84.41L39.87 84.53L39.89 84.55L39.93 84.61L39.98 84.66L40 84.69L40.03 84.71L40.05 84.74L40.08 84.76L40.1 84.79L40.13 84.81L40.2 84.88L40.23 84.9L40.25 84.92L40.31 84.96L40.33 84.98L40.36 85L40.39 85.01L40.41 85.03L40.44 85.05L40.47 85.06L40.49 85.08L40.52 85.09L40.55 85.11L40.64 85.14L40.66 85.15L40.75 85.18L40.79 85.19L40.85 85.21L40.88 85.21L40.91 85.22L40.95 85.22L40.98 85.23L41.01 85.23L41.05 85.24L2.4 85.24L2.16 85.22L1.94 85.18L1.72 85.12L1.52 85.04L1.42 84.99L1.33 84.94L1.15 84.82L0.99 84.68L0.91 84.6L0.7 84.33L0.63 84.23L0.57 84.13L0.51 84.02L0.46 83.91L0.4 83.79L0.36 83.66L0.31 83.53L0.27 83.4L0.19 83.12L0.16 82.97L0.1 82.65L0.08 82.49L0.04 82.15L0.03 81.97L0.01 81.78L0.01 81.59L0 81.4L0 80.89L0.02 80.59L0.02 80.43L0.03 80.28L0.05 80.13L0.06 79.97L0.07 79.82L0.09 79.66L0.11 79.51L0.15 79.19L0.18 79.03L0.2 78.88L0.32 78.24L0.36 78.08L0.39 77.92L0.43 77.75L0.51 77.43L0.55 77.26L0.59 77.1L0.64 76.93L0.69 76.77L0.73 76.6L0.88 76.09L0.94 75.92L0.99 75.75L1.11 75.41L1.17 75.23L1.23 75.06L1.35 74.7L24.28 17.37L24.31 17.32L24.33 17.27L24.39 17.17L24.41 17.12L24.5 16.97L24.53 16.93L24.55 16.88L24.61 16.78L24.64 16.74L24.68 16.69L24.71 16.65L24.77 16.55L24.81 16.51L24.84 16.47L24.87 16.42L24.91 16.38L24.94 16.33L24.98 16.29L25.02 16.25L25.06 16.2L25.09 16.16L25.13 16.12L25.17 16.08L25.21 16.04L25.38 15.87L25.48 15.79L25.52 15.75L25.57 15.71L25.62 15.68L25.82 15.52L25.87 15.49L25.92 15.45L26.27 15.24L26.33 15.21L26.38 15.19L26.43 15.16L26.48 15.14L26.53 15.11L26.58 15.09L26.64 15.07L26.84 14.99L26.9 14.98L26.95 14.96L27 14.95L27.06 14.93L27.16 14.91L27.22 14.9L27.32 14.88L27.38 14.87L27.43 14.86L27.49 14.86L27.54 14.85L27.6 14.85L27.66 14.84L46.33 14.84L46.3 14.85L46.27 14.85ZM44.63 35.93L44.41 35.97L44.31 35.99L44.11 36.07L44.02 36.11L43.93 36.16L43.75 36.28L43.59 36.42L43.52 36.5L43.44 36.59L43.37 36.67L43.25 36.85L43.2 36.95L43.15 37.04L43.1 37.14L43.07 37.25L43.04 37.35L43.02 37.46L43.01 37.57L43 37.69L41.74 55.31L41.74 55.48L41.72 55.58L41.72 55.77L41.73 55.86L41.75 55.96L41.77 56.05L41.81 56.14L41.85 56.22L41.95 56.38L42.02 56.45L42.08 56.52L42.16 56.58L42.24 56.63L42.32 56.69L42.4 56.74L42.49 56.78L42.58 56.83L42.67 56.86L42.76 56.9L42.86 56.93L42.95 56.95L43.05 56.97L43.14 56.99L43.24 57L56.86 57L56.97 56.99L57.17 56.95L57.26 56.93L57.35 56.9L57.44 56.86L57.53 56.83L57.61 56.78L57.69 56.74L57.77 56.69L57.85 56.63L57.93 56.58L57.98 56.53L58.02 56.48L58.07 56.43L58.11 56.37L58.15 56.29L58.18 56.22L58.22 56.13L58.25 56.04L58.29 55.84L58.32 55.73L58.33 55.61L58.35 55.48L58.35 55.31L56.91 37.69L56.91 37.57L56.9 37.46L56.88 37.35L56.85 37.25L56.81 37.14L56.77 37.04L56.72 36.95L56.67 36.85L56.61 36.76L56.54 36.67L56.47 36.59L56.4 36.5L56.32 36.42L56.16 36.28L56.08 36.22L55.99 36.16L55.9 36.11L55.8 36.07L55.71 36.03L55.61 35.99L55.5 35.97L55.4 35.95L55.29 35.93L55.17 35.92L44.74 35.92L44.63 35.93Z" id="dRhYHS1f"></path></defs><g><g><g><use xlink:href="#i1AwUllcuo" opacity="1" fill="#ffffff" fill-opacity="1"></use><g><use xlink:href="#i1AwUllcuo" opacity="1" fill-opacity="0" stroke="#000000" stroke-width="1" stroke-opacity="0"></use></g></g><g><use xlink:href="#dRhYHS1f" opacity="1" fill="#ffffff" fill-opacity="1"></use><g><use xlink:href="#dRhYHS1f" opacity="1" fill-opacity="0" stroke="#000000" stroke-width="1" stroke-opacity="0"></use></g></g></g></g></svg>