<?xml version="1.0" encoding="UTF-8" standalone="no"?>
<!DOCTYPE svg PUBLIC "-//W3C//DTD SVG 1.1//EN" "http://www.w3.org/Graphics/SVG/1.1/DTD/svg11.dtd">
<svg version="1.1" xmlns="http://www.w3.org/2000/svg" xmlns:xlink="http://www.w3.org/1999/xlink" preserveAspectRatio="xMidYMid meet" viewBox="0 0 100 100" width="100" height="100"><defs><path d="M53.02 0.07L54.04 0.14L55.06 0.25L56.07 0.38L57.07 0.54L58.06 0.73L59.03 0.95L60 1.2L60.96 1.47L61.9 1.77L62.84 2.11L63.76 2.47L64.68 2.86L65.58 3.28L66.47 3.73L67.35 4.2L68.22 4.71L69.08 5.24L69.92 5.8L70.75 6.39L71.58 7.01L72.38 7.66L73.18 8.34L73.97 9.04L74.74 9.78L75.5 10.54L76.25 11.34L76.98 12.16L77.7 13.01L78.41 13.89L79.11 14.79L79.8 15.74L80.46 16.69L81.09 17.64L81.68 18.59L82.24 19.55L82.77 20.51L83.26 21.48L83.72 22.44L84.15 23.41L84.55 24.39L84.92 25.37L85.25 26.35L85.55 27.33L85.82 28.31L86.06 29.3L86.26 30.3L86.44 31.29L86.58 32.29L86.7 33.29L86.78 34.29L86.83 35.29L86.85 36.3L86.84 37.31L86.79 38.32L86.72 39.34L86.62 40.35L86.49 41.37L86.33 42.39L86.13 43.42L85.91 44.44L85.66 45.47L85.38 46.5L85.07 47.53L84.73 48.56L84.36 49.6L83.96 50.63L83.53 51.67L83.08 52.71L82.59 53.75L82.08 54.8L81.55 55.84L81.01 56.87L80.47 57.91L79.91 58.94L79.35 59.96L78.79 60.98L78.21 61.99L77.63 63.01L77.04 64.01L76.45 65.02L75.85 66.01L75.24 67.01L74.63 68L74.01 68.99L73.38 69.97L72.75 70.95L72.12 71.93L71.47 72.9L70.83 73.87L70.17 74.83L69.51 75.79L68.85 76.75L68.18 77.7L67.51 78.65L66.83 79.6L66.14 80.55L65.45 81.49L64.76 82.42L64.06 83.36L63.36 84.29L62.66 85.22L61.95 86.14L61.23 87.07L60.51 87.99L59.79 88.9L59.07 89.82L58.34 90.73L57.61 91.64L56.87 92.54L56.13 93.45L56.02 93.58L55.91 93.71L55.8 93.84L55.69 93.97L55.58 94.1L55.47 94.24L55.36 94.37L55.26 94.5L55.15 94.63L55.04 94.76L54.93 94.89L54.83 95.03L54.72 95.16L54.61 95.29L54.5 95.42L54.4 95.55L54.29 95.69L54.18 95.82L54.08 95.95L53.87 96.21L53.76 96.34L53.65 96.48L53.55 96.61L53.44 96.74L53.33 96.87L53.23 97L53.12 97.13L53.01 97.27L52.9 97.4L52.8 97.53L52.69 97.66L52.58 97.79L52.47 97.93L52.36 98.06L52.25 98.19L52.14 98.32L52.03 98.45L51.92 98.58L51.81 98.72L51.71 98.83L51.61 98.95L51.51 99.06L51.41 99.16L51.31 99.25L51.21 99.34L51.11 99.43L51.01 99.51L50.91 99.58L50.82 99.65L50.72 99.71L50.62 99.77L50.53 99.82L50.43 99.86L50.33 99.9L50.24 99.93L50.14 99.96L50.04 99.98L49.95 99.99L49.85 100L49.75 100L49.66 100L49.56 99.99L49.46 99.97L49.37 99.95L49.27 99.92L49.17 99.88L49.08 99.84L48.98 99.8L48.88 99.74L48.79 99.68L48.69 99.62L48.59 99.54L48.49 99.46L48.39 99.38L48.29 99.29L48.19 99.19L48.09 99.08L47.99 98.97L47.89 98.85L46.98 97.77L46.07 96.68L45.17 95.59L44.27 94.5L43.38 93.4L42.49 92.3L41.6 91.2L40.72 90.1L39.85 88.99L38.98 87.88L38.12 86.77L37.26 85.65L36.41 84.53L35.56 83.4L34.72 82.27L33.89 81.14L33.06 80L32.24 78.85L31.43 77.71L30.63 76.55L29.83 75.39L29.04 74.23L28.26 73.06L27.49 71.89L26.72 70.71L25.97 69.52L25.22 68.33L24.48 67.13L23.75 65.93L23.03 64.72L22.32 63.5L21.62 62.28L20.93 61.05L20.25 59.81L19.58 58.57L18.93 57.31L18.28 56.05L17.64 54.79L17.02 53.51L16.4 52.23L16.24 51.86L16.09 51.5L15.93 51.13L15.79 50.76L15.64 50.39L15.5 50.02L15.37 49.65L15.24 49.28L15.11 48.9L14.98 48.53L14.86 48.16L14.75 47.78L14.64 47.4L14.53 47.03L14.43 46.65L14.33 46.27L14.23 45.89L14.14 45.51L14.05 45.13L13.97 44.74L13.89 44.36L13.82 43.98L13.75 43.59L13.68 43.21L13.62 42.82L13.56 42.44L13.5 42.05L13.45 41.66L13.4 41.27L13.36 40.88L13.32 40.49L13.29 40.1L13.26 39.71L13.23 39.32L13.21 38.93L13.19 38.53L13.18 38.14L13.17 37.75L13.16 37.35L13.16 36.96L13.15 35.68L13.19 34.41L13.28 33.15L13.42 31.9L13.6 30.66L13.82 29.42L14.09 28.2L14.4 26.99L14.76 25.79L15.15 24.61L15.59 23.44L16.06 22.29L16.58 21.16L17.13 20.04L17.72 18.95L18.35 17.87L19.01 16.82L19.71 15.79L20.44 14.78L21.2 13.8L22 12.84L22.82 11.91L23.68 11.01L24.57 10.13L25.49 9.29L26.44 8.47L27.41 7.69L28.41 6.94L29.44 6.22L30.49 5.54L31.57 4.9L32.67 4.29L33.79 3.72L34.93 3.19L36.1 2.7L37.29 2.25L38.49 1.84L39.71 1.47L40.96 1.15L42.21 0.87L43.34 0.67L44.45 0.49L45.55 0.33L46.64 0.21L47.73 0.11L48.81 0.05L49.87 0.01L50.93 0L51.98 0.02L53.02 0.07ZM47.38 17.96L46.08 18.19L44.81 18.51L43.57 18.92L42.37 19.41L41.2 19.97L40.08 20.61L39.01 21.32L37.99 22.09L37.02 22.93L36.11 23.83L35.26 24.79L34.47 25.8L33.75 26.85L33.1 27.96L32.53 29.1L32.03 30.29L31.62 31.51L31.3 32.77L31.06 34.05L30.91 35.36L30.86 36.69L30.91 38.07L31.05 39.42L31.28 40.75L31.59 42.04L31.99 43.29L32.47 44.51L33.02 45.68L33.65 46.81L34.35 47.89L35.11 48.92L35.95 49.89L36.84 50.8L37.79 51.65L38.8 52.44L39.87 53.15L40.98 53.79L42.14 54.36L43.34 54.85L44.59 55.26L45.87 55.58L47.19 55.82L48.54 55.96L49.92 56.01L51.26 55.96L52.59 55.82L53.89 55.59L55.16 55.27L56.4 54.87L57.6 54.39L58.77 53.83L59.89 53.2L60.96 52.5L61.98 51.73L62.95 50.89L63.86 50L64.71 49.05L65.5 48.04L66.22 46.98L66.87 45.88L67.44 44.73L67.94 43.54L68.35 42.31L68.67 41.05L68.91 39.76L69.06 38.44L69.11 37.09L69.06 35.71L68.92 34.36L68.68 33.03L68.36 31.74L67.95 30.48L67.46 29.27L66.9 28.09L66.26 26.97L65.55 25.89L64.77 24.86L63.93 23.89L63.02 22.98L62.06 22.13L61.05 21.34L59.98 20.63L58.87 19.98L57.72 19.42L56.52 18.93L55.29 18.52L54.02 18.19L52.72 17.96L51.4 17.82L50.05 17.77L48.71 17.82L47.38 17.96Z" id="f1MkiDVMN5"></path></defs><g><g><g><use xlink:href="#f1MkiDVMN5" opacity="1" fill="#ffffff" fill-opacity="1"></use><g><use xlink:href="#f1MkiDVMN5" opacity="1" fill-opacity="0" stroke="#000000" stroke-width="1" stroke-opacity="0"></use></g></g></g></g></svg>